<?xml version="1.0" encoding="UTF-8" standalone="no"?>
<!DOCTYPE svg PUBLIC "-//W3C//DTD SVG 1.1//EN"
 "http://www.w3.org/Graphics/SVG/1.1/DTD/svg11.dtd">
<!-- Generated by graphviz version 13.0.0 (0)
 -->
<!-- Title: Buffer.cpp Pages: 1 -->
<svg width="556pt" height="98pt"
 viewBox="0.00 0.00 556.00 98.00" xmlns="http://www.w3.org/2000/svg" xmlns:xlink="http://www.w3.org/1999/xlink">
<g id="graph0" class="graph" transform="scale(1 1) rotate(0) translate(4 94.25)">
<title>Buffer.cpp</title>
<!-- Node1 -->
<g id="Node000001" class="node">
<title>Node1</title>
<g id="a_Node000001"><a xlink:title=" ">
<polygon fill="#999999" stroke="#666666" points="294,-90.25 229.25,-90.25 229.25,-69.5 294,-69.5 294,-90.25"/>
<text xml:space="preserve" text-anchor="middle" x="261.62" y="-76.75" font-family="Helvetica,sans-Serif" font-size="10.00">Buffer.cpp</text>
</a>
</g>
</g>
<!-- Node2 -->
<g id="Node000002" class="node">
<title>Node2</title>
<g id="a_Node000002"><a xlink:title=" ">
<polygon fill="#e0e0e0" stroke="#999999" points="111.25,-33.5 0,-33.5 0,0 111.25,0 111.25,-33.5"/>
<text xml:space="preserve" text-anchor="start" x="8" y="-20" font-family="Helvetica,sans-Serif" font-size="10.00">../include/Managers</text>
<text xml:space="preserve" text-anchor="middle" x="55.62" y="-7.25" font-family="Helvetica,sans-Serif" font-size="10.00">/Buffer.h</text>
</a>
</g>
</g>
<!-- Node1&#45;&gt;Node2 -->
<g id="edge1_Node000001_Node000002" class="edge">
<title>Node1&#45;&gt;Node2</title>
<g id="a_edge1_Node000001_Node000002"><a xlink:title=" ">
<path fill="none" stroke="#63b8ff" d="M228.98,-69.19C200.09,-60.62 157.06,-47.85 121.09,-37.18"/>
<polygon fill="#63b8ff" stroke="#63b8ff" points="122.21,-33.86 111.63,-34.37 120.22,-40.57 122.21,-33.86"/>
</a>
</g>
</g>
<!-- Node3 -->
<g id="Node000003" class="node">
<title>Node3</title>
<g id="a_Node000003"><a xlink:title=" ">
<polygon fill="#e0e0e0" stroke="#999999" points="240.25,-33.5 129,-33.5 129,0 240.25,0 240.25,-33.5"/>
<text xml:space="preserve" text-anchor="start" x="137" y="-20" font-family="Helvetica,sans-Serif" font-size="10.00">../include/Managers</text>
<text xml:space="preserve" text-anchor="middle" x="184.62" y="-7.25" font-family="Helvetica,sans-Serif" font-size="10.00">/Image.h</text>
</a>
</g>
</g>
<!-- Node1&#45;&gt;Node3 -->
<g id="edge2_Node000001_Node000003" class="edge">
<title>Node1&#45;&gt;Node3</title>
<g id="a_edge2_Node000001_Node000003"><a xlink:title=" ">
<path fill="none" stroke="#63b8ff" d="M249.25,-69.05C239.77,-61.52 226.28,-50.81 214.07,-41.13"/>
<polygon fill="#63b8ff" stroke="#63b8ff" points="216.27,-38.4 206.26,-34.93 211.92,-43.88 216.27,-38.4"/>
</a>
</g>
</g>
<!-- Node4 -->
<g id="Node000004" class="node">
<title>Node4</title>
<g id="a_Node000004"><a xlink:title=" ">
<polygon fill="#e0e0e0" stroke="#999999" points="419,-27.12 258.25,-27.12 258.25,-6.38 419,-6.38 419,-27.12"/>
<text xml:space="preserve" text-anchor="middle" x="338.62" y="-13.62" font-family="Helvetica,sans-Serif" font-size="10.00">../include/Utils/MemoryUtils.h</text>
</a>
</g>
</g>
<!-- Node1&#45;&gt;Node4 -->
<g id="edge3_Node000001_Node000004" class="edge">
<title>Node1&#45;&gt;Node4</title>
<g id="a_edge3_Node000001_Node000004"><a xlink:title=" ">
<path fill="none" stroke="#63b8ff" d="M274,-69.05C285.67,-59.79 303.42,-45.7 317.36,-34.63"/>
<polygon fill="#63b8ff" stroke="#63b8ff" points="319.44,-37.45 325.1,-28.49 315.09,-31.96 319.44,-37.45"/>
</a>
</g>
</g>
<!-- Node5 -->
<g id="Node000005" class="node">
<title>Node5</title>
<g id="a_Node000005"><a xlink:title=" ">
<polygon fill="#e0e0e0" stroke="#999999" points="548.25,-33.5 437,-33.5 437,0 548.25,0 548.25,-33.5"/>
<text xml:space="preserve" text-anchor="start" x="445" y="-20" font-family="Helvetica,sans-Serif" font-size="10.00">../include/Managers</text>
<text xml:space="preserve" text-anchor="middle" x="492.62" y="-7.25" font-family="Helvetica,sans-Serif" font-size="10.00">/MeshManager.h</text>
</a>
</g>
</g>
<!-- Node1&#45;&gt;Node5 -->
<g id="edge4_Node000001_Node000005" class="edge">
<title>Node1&#45;&gt;Node5</title>
<g id="a_edge4_Node000001_Node000005"><a xlink:title=" ">
<path fill="none" stroke="#63b8ff" d="M294.23,-70.25C328.21,-61.26 382.42,-46.91 425.59,-35.49"/>
<polygon fill="#63b8ff" stroke="#63b8ff" points="426.36,-38.91 435.13,-32.96 424.57,-32.14 426.36,-38.91"/>
</a>
</g>
</g>
</g>
</svg>
