<?xml version="1.0" encoding="UTF-8" standalone="no"?>
<!DOCTYPE svg PUBLIC "-//W3C//DTD SVG 1.1//EN"
 "http://www.w3.org/Graphics/SVG/1.1/DTD/svg11.dtd">
<!-- Generated by graphviz version 13.0.0 (0)
 -->
<!-- Title: Buffer.h Pages: 1 -->
<svg width="321pt" height="199pt"
 viewBox="0.00 0.00 321.00 199.00" xmlns="http://www.w3.org/2000/svg" xmlns:xlink="http://www.w3.org/1999/xlink">
<g id="graph0" class="graph" transform="scale(1 1) rotate(0) translate(4 195)">
<title>Buffer.h</title>
<!-- Node1 -->
<g id="Node000001" class="node">
<title>Node1</title>
<g id="a_Node000001"><a xlink:title=" ">
<polygon fill="#999999" stroke="#666666" points="134.88,-191 81.38,-191 81.38,-170.25 134.88,-170.25 134.88,-191"/>
<text xml:space="preserve" text-anchor="middle" x="108.12" y="-177.5" font-family="Helvetica,sans-Serif" font-size="10.00">Buffer.h</text>
</a>
</g>
</g>
<!-- Node2 -->
<g id="Node000002" class="node">
<title>Node2</title>
<g id="a_Node000002"><a xlink:href="BufferManager_8h.html" target="_top" xlink:title=" ">
<polygon fill="white" stroke="#666666" points="96.25,-134.25 0,-134.25 0,-113.5 96.25,-113.5 96.25,-134.25"/>
<text xml:space="preserve" text-anchor="middle" x="48.12" y="-120.75" font-family="Helvetica,sans-Serif" font-size="10.00">BufferManager.h</text>
</a>
</g>
</g>
<!-- Node1&#45;&gt;Node2 -->
<g id="edge1_Node000001_Node000002" class="edge">
<title>Node1&#45;&gt;Node2</title>
<g id="a_edge1_Node000001_Node000002"><a xlink:title=" ">
<path fill="none" stroke="#63b8ff" d="M88.9,-162.08C78.91,-152.97 67.09,-142.18 58.76,-134.58"/>
<polygon fill="#63b8ff" stroke="#63b8ff" points="86.53,-164.66 96.28,-168.82 91.25,-159.49 86.53,-164.66"/>
</a>
</g>
</g>
<!-- Node4 -->
<g id="Node000004" class="node">
<title>Node4</title>
<g id="a_Node000004"><a xlink:href="DescriptorBuilder_8h.html" target="_top" xlink:title=" ">
<polygon fill="white" stroke="#666666" points="224.62,-134.25 115.62,-134.25 115.62,-113.5 224.62,-113.5 224.62,-134.25"/>
<text xml:space="preserve" text-anchor="middle" x="170.12" y="-120.75" font-family="Helvetica,sans-Serif" font-size="10.00">DescriptorBuilder.h</text>
</a>
</g>
</g>
<!-- Node1&#45;&gt;Node4 -->
<g id="edge3_Node000001_Node000004" class="edge">
<title>Node1&#45;&gt;Node4</title>
<g id="a_edge3_Node000001_Node000004"><a xlink:title=" ">
<path fill="none" stroke="#63b8ff" d="M127.68,-162.36C138.06,-153.19 150.44,-142.26 159.14,-134.58"/>
<polygon fill="#63b8ff" stroke="#63b8ff" points="125.52,-159.59 120.34,-168.83 130.16,-164.84 125.52,-159.59"/>
</a>
</g>
</g>
<!-- Node3 -->
<g id="Node000003" class="node">
<title>Node3</title>
<g id="a_Node000003"><a xlink:href="MeshManager_8h.html" target="_top" xlink:title=" ">
<polygon fill="white" stroke="#666666" points="130.75,-20.75 37.5,-20.75 37.5,0 130.75,0 130.75,-20.75"/>
<text xml:space="preserve" text-anchor="middle" x="84.12" y="-7.25" font-family="Helvetica,sans-Serif" font-size="10.00">MeshManager.h</text>
</a>
</g>
</g>
<!-- Node2&#45;&gt;Node3 -->
<g id="edge2_Node000002_Node000003" class="edge">
<title>Node2&#45;&gt;Node3</title>
<g id="a_edge2_Node000002_Node000003"><a xlink:title=" ">
<path fill="none" stroke="#63b8ff" d="M54.66,-102.63C62.43,-78.56 75.1,-39.34 80.96,-21.18"/>
<polygon fill="#63b8ff" stroke="#63b8ff" points="51.4,-101.34 51.66,-111.93 58.06,-103.49 51.4,-101.34"/>
</a>
</g>
</g>
<!-- Node4&#45;&gt;Node3 -->
<g id="edge7_Node000004_Node000003" class="edge">
<title>Node4&#45;&gt;Node3</title>
<g id="a_edge7_Node000004_Node000003"><a xlink:title=" ">
<path fill="none" stroke="#63b8ff" d="M138.35,-107.57C125.77,-100.09 112.17,-89.97 103.12,-77.5 90.5,-60.1 86.24,-34.48 84.82,-20.8"/>
<polygon fill="#63b8ff" stroke="#63b8ff" points="136.36,-110.47 146.8,-112.27 139.76,-104.35 136.36,-110.47"/>
</a>
</g>
</g>
<!-- Node5 -->
<g id="Node000005" class="node">
<title>Node5</title>
<g id="a_Node000005"><a xlink:href="DescriptorManager_8h.html" target="_top" xlink:title=" ">
<polygon fill="white" stroke="#666666" points="229.75,-77.5 112.5,-77.5 112.5,-56.75 229.75,-56.75 229.75,-77.5"/>
<text xml:space="preserve" text-anchor="middle" x="171.12" y="-64" font-family="Helvetica,sans-Serif" font-size="10.00">DescriptorManager.h</text>
</a>
</g>
</g>
<!-- Node4&#45;&gt;Node5 -->
<g id="edge4_Node000004_Node000005" class="edge">
<title>Node4&#45;&gt;Node5</title>
<g id="a_edge4_Node000004_Node000005"><a xlink:title=" ">
<path fill="none" stroke="#63b8ff" d="M170.51,-101.63C170.66,-93.41 170.83,-84.43 170.95,-77.83"/>
<polygon fill="#63b8ff" stroke="#63b8ff" points="167.01,-101.51 170.33,-111.57 174.01,-101.64 167.01,-101.51"/>
</a>
</g>
</g>
<!-- Node6 -->
<g id="Node000006" class="node">
<title>Node6</title>
<g id="a_Node000006"><a xlink:href="Material_8h.html" target="_top" xlink:title=" ">
<polygon fill="white" stroke="#666666" points="312.88,-77.5 247.38,-77.5 247.38,-56.75 312.88,-56.75 312.88,-77.5"/>
<text xml:space="preserve" text-anchor="middle" x="280.12" y="-64" font-family="Helvetica,sans-Serif" font-size="10.00">Material.h</text>
</a>
</g>
</g>
<!-- Node4&#45;&gt;Node6 -->
<g id="edge5_Node000004_Node000006" class="edge">
<title>Node4&#45;&gt;Node6</title>
<g id="a_edge5_Node000004_Node000006"><a xlink:title=" ">
<path fill="none" stroke="#63b8ff" d="M199.89,-108.06C219.19,-98.45 243.79,-86.21 260.63,-77.83"/>
<polygon fill="#63b8ff" stroke="#63b8ff" points="198.54,-104.82 191.15,-112.41 201.66,-111.09 198.54,-104.82"/>
</a>
</g>
</g>
<!-- Node6&#45;&gt;Node3 -->
<g id="edge6_Node000006_Node000003" class="edge">
<title>Node6&#45;&gt;Node3</title>
<g id="a_edge6_Node000006_Node000003"><a xlink:title=" ">
<path fill="none" stroke="#63b8ff" d="M235.93,-53.78C200.63,-43.92 151.84,-30.29 119.19,-21.17"/>
<polygon fill="#63b8ff" stroke="#63b8ff" points="234.85,-57.11 245.42,-56.43 236.73,-50.37 234.85,-57.11"/>
</a>
</g>
</g>
</g>
</svg>
