<?xml version="1.0" encoding="UTF-8" standalone="no"?>
<!DOCTYPE svg PUBLIC "-//W3C//DTD SVG 1.1//EN"
 "http://www.w3.org/Graphics/SVG/1.1/DTD/svg11.dtd">
<!-- Generated by graphviz version 13.0.0 (0)
 -->
<!-- Title: BufferManager.cpp Pages: 1 -->
<svg width="407pt" height="98pt"
 viewBox="0.00 0.00 407.00 98.00" xmlns="http://www.w3.org/2000/svg" xmlns:xlink="http://www.w3.org/1999/xlink">
<g id="graph0" class="graph" transform="scale(1 1) rotate(0) translate(4 94.25)">
<title>BufferManager.cpp</title>
<!-- Node1 -->
<g id="Node000001" class="node">
<title>Node1</title>
<g id="a_Node000001"><a xlink:title=" ">
<polygon fill="#999999" stroke="#666666" points="243.38,-90.25 135.88,-90.25 135.88,-69.5 243.38,-69.5 243.38,-90.25"/>
<text xml:space="preserve" text-anchor="middle" x="189.62" y="-76.75" font-family="Helvetica,sans-Serif" font-size="10.00">BufferManager.cpp</text>
</a>
</g>
</g>
<!-- Node2 -->
<g id="Node000002" class="node">
<title>Node2</title>
<g id="a_Node000002"><a xlink:title=" ">
<polygon fill="#e0e0e0" stroke="#999999" points="111.25,-33.5 0,-33.5 0,0 111.25,0 111.25,-33.5"/>
<text xml:space="preserve" text-anchor="start" x="8" y="-20" font-family="Helvetica,sans-Serif" font-size="10.00">../include/Managers</text>
<text xml:space="preserve" text-anchor="middle" x="55.62" y="-7.25" font-family="Helvetica,sans-Serif" font-size="10.00">/BufferManager.h</text>
</a>
</g>
</g>
<!-- Node1&#45;&gt;Node2 -->
<g id="edge1_Node000001_Node000002" class="edge">
<title>Node1&#45;&gt;Node2</title>
<g id="a_edge1_Node000001_Node000002"><a xlink:title=" ">
<path fill="none" stroke="#63b8ff" d="M168.1,-69.05C150.21,-60.9 124.15,-49.01 101.61,-38.73"/>
<polygon fill="#63b8ff" stroke="#63b8ff" points="103.14,-35.58 92.59,-34.61 100.24,-41.95 103.14,-35.58"/>
</a>
</g>
</g>
<!-- Node3 -->
<g id="Node000003" class="node">
<title>Node3</title>
<g id="a_Node000003"><a xlink:title=" ">
<polygon fill="#e0e0e0" stroke="#999999" points="249.75,-33.5 129.5,-33.5 129.5,0 249.75,0 249.75,-33.5"/>
<text xml:space="preserve" text-anchor="start" x="137.5" y="-20" font-family="Helvetica,sans-Serif" font-size="10.00">../include/Managers</text>
<text xml:space="preserve" text-anchor="middle" x="189.62" y="-7.25" font-family="Helvetica,sans-Serif" font-size="10.00">/DescriptorManager.h</text>
</a>
</g>
</g>
<!-- Node1&#45;&gt;Node3 -->
<g id="edge2_Node000001_Node000003" class="edge">
<title>Node1&#45;&gt;Node3</title>
<g id="a_edge2_Node000001_Node000003"><a xlink:title=" ">
<path fill="none" stroke="#63b8ff" d="M189.62,-69.05C189.62,-62.63 189.62,-53.9 189.62,-45.45"/>
<polygon fill="#63b8ff" stroke="#63b8ff" points="193.13,-45.5 189.63,-35.5 186.13,-45.5 193.13,-45.5"/>
</a>
</g>
</g>
<!-- Node4 -->
<g id="Node000004" class="node">
<title>Node4</title>
<g id="a_Node000004"><a xlink:title=" ">
<polygon fill="#e0e0e0" stroke="#999999" points="399.38,-33.5 267.88,-33.5 267.88,0 399.38,0 399.38,-33.5"/>
<text xml:space="preserve" text-anchor="start" x="275.88" y="-20" font-family="Helvetica,sans-Serif" font-size="10.00">../include/Core/Graphics</text>
<text xml:space="preserve" text-anchor="middle" x="333.62" y="-7.25" font-family="Helvetica,sans-Serif" font-size="10.00">Pipeline.h</text>
</a>
</g>
</g>
<!-- Node1&#45;&gt;Node4 -->
<g id="edge3_Node000001_Node000004" class="edge">
<title>Node1&#45;&gt;Node4</title>
<g id="a_edge3_Node000001_Node000004"><a xlink:title=" ">
<path fill="none" stroke="#63b8ff" d="M212.76,-69.05C232.15,-60.82 260.5,-48.79 284.86,-38.45"/>
<polygon fill="#63b8ff" stroke="#63b8ff" points="286.15,-41.71 293.99,-34.58 283.41,-35.26 286.15,-41.71"/>
</a>
</g>
</g>
</g>
</svg>
