<?xml version="1.0" encoding="UTF-8" standalone="no"?>
<!DOCTYPE svg PUBLIC "-//W3C//DTD SVG 1.1//EN"
 "http://www.w3.org/Graphics/SVG/1.1/DTD/svg11.dtd">
<!-- Generated by graphviz version 13.0.0 (0)
 -->
<!-- Title: tinygltf::Model Pages: 1 -->
<svg width="173pt" height="180pt"
 viewBox="0.00 0.00 173.00 180.00" xmlns="http://www.w3.org/2000/svg" xmlns:xlink="http://www.w3.org/1999/xlink">
<g id="graph0" class="graph" transform="scale(1 1) rotate(0) translate(4 175.75)">
<title>tinygltf::Model</title>
<!-- Node1 -->
<g id="Node000001" class="node">
<title>Node1</title>
<g id="a_Node000001"><a xlink:title=" ">
<polygon fill="#999999" stroke="#666666" points="101,-20.75 14.5,-20.75 14.5,0 101,0 101,-20.75"/>
<text xml:space="preserve" text-anchor="middle" x="57.75" y="-7.25" font-family="Helvetica,sans-Serif" font-size="10.00">tinygltf::Model</text>
</a>
</g>
</g>
<!-- Node2 -->
<g id="Node000002" class="node">
<title>Node2</title>
<g id="a_Node000002"><a xlink:href="structtinygltf_1_1Asset.html" target="_top" xlink:title=" ">
<polygon fill="white" stroke="#666666" points="164.5,-96.25 81,-96.25 81,-75.5 164.5,-75.5 164.5,-96.25"/>
<text xml:space="preserve" text-anchor="middle" x="122.75" y="-82.75" font-family="Helvetica,sans-Serif" font-size="10.00">tinygltf::Asset</text>
</a>
</g>
</g>
<!-- Node2&#45;&gt;Node1 -->
<g id="edge1_Node000001_Node000002" class="edge">
<title>Node2&#45;&gt;Node1</title>
<g id="a_edge1_Node000001_Node000002"><a xlink:title=" ">
<path fill="none" stroke="#9a32cd" stroke-dasharray="5,2" d="M106.68,-66.7C93.97,-52.33 76.72,-32.82 66.46,-21.22"/>
<polygon fill="#9a32cd" stroke="#9a32cd" points="104,-68.96 113.25,-74.13 109.25,-64.32 104,-68.96"/>
</a>
</g>
<text xml:space="preserve" text-anchor="start" x="100.98" y="-45" font-family="Helvetica,sans-Serif" font-size="10.00" fill="grey">asset</text>
</g>
<!-- Node3 -->
<g id="Node000003" class="node">
<title>Node3</title>
<g id="a_Node000003"><a xlink:href="classtinygltf_1_1Value.html" target="_top" xlink:title=" ">
<polygon fill="white" stroke="#666666" points="83.5,-171.75 0,-171.75 0,-151 83.5,-151 83.5,-171.75"/>
<text xml:space="preserve" text-anchor="middle" x="41.75" y="-158.25" font-family="Helvetica,sans-Serif" font-size="10.00">tinygltf::Value</text>
</a>
</g>
</g>
<!-- Node3&#45;&gt;Node1 -->
<g id="edge3_Node000001_Node000003" class="edge">
<title>Node3&#45;&gt;Node1</title>
<g id="a_edge3_Node000001_Node000003"><a xlink:title=" ">
<path fill="none" stroke="#9a32cd" stroke-dasharray="5,2" d="M37.19,-139.36C34.13,-122.11 31.29,-97.08 35,-75.5 38.45,-55.48 47.53,-33.41 53.12,-21.09"/>
<polygon fill="#9a32cd" stroke="#9a32cd" points="33.75,-140.01 39.12,-149.14 40.61,-138.66 33.75,-140.01"/>
</a>
</g>
<text xml:space="preserve" text-anchor="start" x="38" y="-82.75" font-family="Helvetica,sans-Serif" font-size="10.00" fill="grey">extras</text>
</g>
<!-- Node3&#45;&gt;Node2 -->
<g id="edge2_Node000002_Node000003" class="edge">
<title>Node3&#45;&gt;Node2</title>
<g id="a_edge2_Node000002_Node000003"><a xlink:title=" ">
<path fill="none" stroke="#9a32cd" stroke-dasharray="5,2" d="M60.44,-143.42C76.38,-128.95 98.75,-108.65 111.9,-96.72"/>
<polygon fill="#9a32cd" stroke="#9a32cd" points="58.51,-140.44 53.46,-149.75 63.22,-145.62 58.51,-140.44"/>
</a>
</g>
<text xml:space="preserve" text-anchor="start" x="94.89" y="-120.5" font-family="Helvetica,sans-Serif" font-size="10.00" fill="grey">extras</text>
</g>
</g>
</svg>
