<?xml version="1.0" encoding="UTF-8" standalone="no"?>
<!DOCTYPE svg PUBLIC "-//W3C//DTD SVG 1.1//EN"
 "http://www.w3.org/Graphics/SVG/1.1/DTD/svg11.dtd">
<!-- Generated by graphviz version 13.0.0 (0)
 -->
<!-- Title: tinyobj::MaterialReader Pages: 1 -->
<svg width="340pt" height="86pt"
 viewBox="0.00 0.00 340.00 86.00" xmlns="http://www.w3.org/2000/svg" xmlns:xlink="http://www.w3.org/1999/xlink">
<g id="graph0" class="graph" transform="scale(1 1) rotate(0) translate(4 81.5)">
<title>tinyobj::MaterialReader</title>
<!-- Node1 -->
<g id="Node000001" class="node">
<title>Node1</title>
<g id="a_Node000001"><a xlink:title=" ">
<polygon fill="#999999" stroke="#666666" points="226.38,-77.5 95.62,-77.5 95.62,-56.75 226.38,-56.75 226.38,-77.5"/>
<text xml:space="preserve" text-anchor="middle" x="161" y="-64" font-family="Helvetica,sans-Serif" font-size="10.00">tinyobj::MaterialReader</text>
</a>
</g>
</g>
<!-- Node2 -->
<g id="Node000002" class="node">
<title>Node2</title>
<g id="a_Node000002"><a xlink:href="classtinyobj_1_1MaterialFileReader.html" target="_top" xlink:title=" ">
<polygon fill="white" stroke="#666666" points="148,-20.75 0,-20.75 0,0 148,0 148,-20.75"/>
<text xml:space="preserve" text-anchor="middle" x="74" y="-7.25" font-family="Helvetica,sans-Serif" font-size="10.00">tinyobj::MaterialFileReader</text>
</a>
</g>
</g>
<!-- Node1&#45;&gt;Node2 -->
<g id="edge1_Node000001_Node000002" class="edge">
<title>Node1&#45;&gt;Node2</title>
<g id="a_edge1_Node000001_Node000002"><a xlink:title=" ">
<path fill="none" stroke="#63b8ff" d="M135.75,-50.23C120.76,-40.8 102.25,-29.15 89.42,-21.08"/>
<polygon fill="#63b8ff" stroke="#63b8ff" points="133.84,-53.17 144.17,-55.53 137.57,-47.24 133.84,-53.17"/>
</a>
</g>
</g>
<!-- Node3 -->
<g id="Node000003" class="node">
<title>Node3</title>
<g id="a_Node000003"><a xlink:href="classtinyobj_1_1MaterialStreamReader.html" target="_top" xlink:title=" ">
<polygon fill="white" stroke="#666666" points="332,-20.75 166,-20.75 166,0 332,0 332,-20.75"/>
<text xml:space="preserve" text-anchor="middle" x="249" y="-7.25" font-family="Helvetica,sans-Serif" font-size="10.00">tinyobj::MaterialStreamReader</text>
</a>
</g>
</g>
<!-- Node1&#45;&gt;Node3 -->
<g id="edge2_Node000001_Node000003" class="edge">
<title>Node1&#45;&gt;Node3</title>
<g id="a_edge2_Node000001_Node000003"><a xlink:title=" ">
<path fill="none" stroke="#63b8ff" d="M186.11,-50.51C201.34,-41.03 220.3,-29.23 233.4,-21.08"/>
<polygon fill="#63b8ff" stroke="#63b8ff" points="184.66,-47.28 178.02,-55.54 188.36,-53.23 184.66,-47.28"/>
</a>
</g>
</g>
</g>
</svg>
