<?xml version="1.0" encoding="UTF-8" standalone="no"?>
<!DOCTYPE svg PUBLIC "-//W3C//DTD SVG 1.1//EN"
 "http://www.w3.org/Graphics/SVG/1.1/DTD/svg11.dtd">
<!-- Generated by graphviz version 13.0.0 (0)
 -->
<!-- Title: config.h Pages: 1 -->
<svg width="1374pt" height="369pt"
 viewBox="0.00 0.00 1374.00 369.00" xmlns="http://www.w3.org/2000/svg" xmlns:xlink="http://www.w3.org/1999/xlink">
<g id="graph0" class="graph" transform="scale(1 1) rotate(0) translate(4 365.25)">
<title>config.h</title>
<!-- Node1 -->
<g id="Node000001" class="node">
<title>Node1</title>
<g id="a_Node000001"><a xlink:title=" ">
<polygon fill="#999999" stroke="#666666" points="631.09,-361.25 576.84,-361.25 576.84,-340.5 631.09,-340.5 631.09,-361.25"/>
<text xml:space="preserve" text-anchor="middle" x="603.96" y="-347.75" font-family="Helvetica,sans-Serif" font-size="10.00">config.h</text>
</a>
</g>
</g>
<!-- Node2 -->
<g id="Node000002" class="node">
<title>Node2</title>
<g id="a_Node000002"><a xlink:href="Buffer_8h.html" target="_top" xlink:title=" ">
<polygon fill="white" stroke="#666666" points="269.71,-247.75 216.21,-247.75 216.21,-227 269.71,-227 269.71,-247.75"/>
<text xml:space="preserve" text-anchor="middle" x="242.96" y="-234.25" font-family="Helvetica,sans-Serif" font-size="10.00">Buffer.h</text>
</a>
</g>
</g>
<!-- Node1&#45;&gt;Node2 -->
<g id="edge1_Node000001_Node000002" class="edge">
<title>Node1&#45;&gt;Node2</title>
<g id="a_edge1_Node000001_Node000002"><a xlink:title=" ">
<path fill="none" stroke="#63b8ff" d="M565.58,-347.53C494.17,-342.62 344.05,-329.59 298.96,-304.5 274.78,-291.04 256.43,-262.77 248.02,-247.93"/>
<polygon fill="#63b8ff" stroke="#63b8ff" points="565.03,-351 575.24,-348.17 565.49,-344.02 565.03,-351"/>
</a>
</g>
</g>
<!-- Node3 -->
<g id="Node000003" class="node">
<title>Node3</title>
<g id="a_Node000003"><a xlink:href="BufferManager_8h.html" target="_top" xlink:title=" ">
<polygon fill="white" stroke="#666666" points="336.09,-191 239.84,-191 239.84,-170.25 336.09,-170.25 336.09,-191"/>
<text xml:space="preserve" text-anchor="middle" x="287.96" y="-177.5" font-family="Helvetica,sans-Serif" font-size="10.00">BufferManager.h</text>
</a>
</g>
</g>
<!-- Node1&#45;&gt;Node3 -->
<g id="edge9_Node000001_Node000003" class="edge">
<title>Node1&#45;&gt;Node3</title>
<g id="a_edge9_Node000001_Node000003"><a xlink:title=" ">
<path fill="none" stroke="#63b8ff" d="M565.3,-344.4C529.87,-338.26 476.74,-326.21 434.96,-304.5 375.05,-273.36 317.72,-214.34 296.55,-191.24"/>
<polygon fill="#63b8ff" stroke="#63b8ff" points="564.66,-347.84 575.1,-346.01 565.8,-340.93 564.66,-347.84"/>
</a>
</g>
</g>
<!-- Node4 -->
<g id="Node000004" class="node">
<title>Node4</title>
<g id="a_Node000004"><a xlink:href="MeshManager_8h.html" target="_top" xlink:title=" ">
<polygon fill="white" stroke="#666666" points="342.59,-77.5 249.34,-77.5 249.34,-56.75 342.59,-56.75 342.59,-77.5"/>
<text xml:space="preserve" text-anchor="middle" x="295.96" y="-64" font-family="Helvetica,sans-Serif" font-size="10.00">MeshManager.h</text>
</a>
</g>
</g>
<!-- Node1&#45;&gt;Node4 -->
<g id="edge36_Node000001_Node000004" class="edge">
<title>Node1&#45;&gt;Node4</title>
<g id="a_edge36_Node000001_Node000004"><a xlink:title=" ">
<path fill="none" stroke="#63b8ff" d="M565.01,-349.44C459.39,-347.8 169.61,-340.09 81.96,-304.5 38.9,-287.02 0.96,-284.85 0.96,-238.38 0.96,-238.38 0.96,-238.38 0.96,-179.62 0.96,-149.05 -2.89,-133.82 19.96,-113.5 53.07,-84.05 179.24,-73.53 248.96,-69.92"/>
<polygon fill="#63b8ff" stroke="#63b8ff" points="564.82,-352.94 574.87,-349.58 564.92,-345.94 564.82,-352.94"/>
</a>
</g>
</g>
<!-- Node5 -->
<g id="Node000005" class="node">
<title>Node5</title>
<g id="a_Node000005"><a xlink:href="DescriptorBuilder_8h.html" target="_top" xlink:title=" ">
<polygon fill="white" stroke="#666666" points="221.46,-191 112.46,-191 112.46,-170.25 221.46,-170.25 221.46,-191"/>
<text xml:space="preserve" text-anchor="middle" x="166.96" y="-177.5" font-family="Helvetica,sans-Serif" font-size="10.00">DescriptorBuilder.h</text>
</a>
</g>
</g>
<!-- Node1&#45;&gt;Node5 -->
<g id="edge20_Node000001_Node000005" class="edge">
<title>Node1&#45;&gt;Node5</title>
<g id="a_edge20_Node000001_Node000005"><a xlink:title=" ">
<path fill="none" stroke="#63b8ff" d="M564.93,-348.99C458.49,-346.17 169.24,-335.68 140.96,-304.5 111.37,-271.87 144.67,-214.23 160.03,-191.36"/>
<polygon fill="#63b8ff" stroke="#63b8ff" points="564.79,-352.49 574.88,-349.24 564.97,-345.49 564.79,-352.49"/>
</a>
</g>
</g>
<!-- Node6 -->
<g id="Node000006" class="node">
<title>Node6</title>
<g id="a_Node000006"><a xlink:href="DescriptorManager_8h.html" target="_top" xlink:title=" ">
<polygon fill="white" stroke="#666666" points="146.59,-134.25 29.34,-134.25 29.34,-113.5 146.59,-113.5 146.59,-134.25"/>
<text xml:space="preserve" text-anchor="middle" x="87.96" y="-120.75" font-family="Helvetica,sans-Serif" font-size="10.00">DescriptorManager.h</text>
</a>
</g>
</g>
<!-- Node1&#45;&gt;Node6 -->
<g id="edge21_Node000001_Node000006" class="edge">
<title>Node1&#45;&gt;Node6</title>
<g id="a_edge21_Node000001_Node000006"><a xlink:title=" ">
<path fill="none" stroke="#63b8ff" d="M565.33,-348.7C454.26,-344.99 139.64,-332.13 102.96,-304.5 49.47,-264.2 74.93,-165.76 84.72,-134.54"/>
<polygon fill="#63b8ff" stroke="#63b8ff" points="565.01,-352.19 575.12,-349.02 565.24,-345.19 565.01,-352.19"/>
</a>
</g>
</g>
<!-- Node7 -->
<g id="Node000007" class="node">
<title>Node7</title>
<g id="a_Node000007"><a xlink:href="Material_8h.html" target="_top" xlink:title=" ">
<polygon fill="white" stroke="#666666" points="229.71,-134.25 164.21,-134.25 164.21,-113.5 229.71,-113.5 229.71,-134.25"/>
<text xml:space="preserve" text-anchor="middle" x="196.96" y="-120.75" font-family="Helvetica,sans-Serif" font-size="10.00">Material.h</text>
</a>
</g>
</g>
<!-- Node1&#45;&gt;Node7 -->
<g id="edge32_Node000001_Node000007" class="edge">
<title>Node1&#45;&gt;Node7</title>
<g id="a_edge32_Node000001_Node000007"><a xlink:title=" ">
<path fill="none" stroke="#63b8ff" d="M565.14,-348.8C457.21,-345.44 159.29,-333.6 126.96,-304.5 81.97,-264 71.89,-221.59 103.96,-170.25 111.43,-158.29 144.72,-143.93 169.35,-134.62"/>
<polygon fill="#63b8ff" stroke="#63b8ff" points="564.84,-352.29 574.95,-349.09 565.06,-345.29 564.84,-352.29"/>
</a>
</g>
</g>
<!-- Node8 -->
<g id="Node000008" class="node">
<title>Node8</title>
<g id="a_Node000008"><a xlink:href="Camera_8h.html" target="_top" xlink:title=" ">
<polygon fill="white" stroke="#666666" points="213.59,-304.5 150.34,-304.5 150.34,-283.75 213.59,-283.75 213.59,-304.5"/>
<text xml:space="preserve" text-anchor="middle" x="181.96" y="-291" font-family="Helvetica,sans-Serif" font-size="10.00">Camera.h</text>
</a>
</g>
</g>
<!-- Node1&#45;&gt;Node8 -->
<g id="edge10_Node000001_Node000008" class="edge">
<title>Node1&#45;&gt;Node8</title>
<g id="a_edge10_Node000001_Node000008"><a xlink:title=" ">
<path fill="none" stroke="#63b8ff" d="M565.45,-346.27C497.21,-339.64 350.67,-324.38 227.96,-304.5 223.46,-303.77 218.72,-302.91 214.07,-302.01"/>
<polygon fill="#63b8ff" stroke="#63b8ff" points="564.7,-349.71 574.99,-347.18 565.37,-342.74 564.7,-349.71"/>
</a>
</g>
</g>
<!-- Node9 -->
<g id="Node000009" class="node">
<title>Node9</title>
<g id="a_Node000009"><a xlink:href="IO_8h.html" target="_top" xlink:title=" ">
<polygon fill="white" stroke="#666666" points="197.71,-247.75 162.21,-247.75 162.21,-227 197.71,-227 197.71,-247.75"/>
<text xml:space="preserve" text-anchor="middle" x="179.96" y="-234.25" font-family="Helvetica,sans-Serif" font-size="10.00">IO.h</text>
</a>
</g>
</g>
<!-- Node1&#45;&gt;Node9 -->
<g id="edge27_Node000001_Node000009" class="edge">
<title>Node1&#45;&gt;Node9</title>
<g id="a_edge27_Node000001_Node000009"><a xlink:title=" ">
<path fill="none" stroke="#63b8ff" d="M565,-350.62C501.18,-350.54 371.42,-344.85 270.96,-304.5 237.8,-291.18 205.55,-263.11 189.85,-248.19"/>
<polygon fill="#63b8ff" stroke="#63b8ff" points="564.99,-354.12 574.98,-350.58 564.97,-347.12 564.99,-354.12"/>
</a>
</g>
</g>
<!-- Node10 -->
<g id="Node000010" class="node">
<title>Node10</title>
<g id="a_Node000010"><a xlink:href="DebugManager_8h.html" target="_top" xlink:title=" ">
<polygon fill="white" stroke="#666666" points="768.21,-247.75 669.71,-247.75 669.71,-227 768.21,-227 768.21,-247.75"/>
<text xml:space="preserve" text-anchor="middle" x="718.96" y="-234.25" font-family="Helvetica,sans-Serif" font-size="10.00">DebugManager.h</text>
</a>
</g>
</g>
<!-- Node1&#45;&gt;Node10 -->
<g id="edge12_Node000001_Node000010" class="edge">
<title>Node1&#45;&gt;Node10</title>
<g id="a_edge12_Node000001_Node000010"><a xlink:title=" ">
<path fill="none" stroke="#63b8ff" d="M642.53,-346.68C670.5,-342.11 706.54,-331.08 724.96,-304.5 736.78,-287.45 729.01,-261.68 723.36,-247.89"/>
<polygon fill="#63b8ff" stroke="#63b8ff" points="642.41,-343.16 632.99,-348.01 643.38,-350.1 642.41,-343.16"/>
</a>
</g>
</g>
<!-- Node11 -->
<g id="Node000011" class="node">
<title>Node11</title>
<g id="a_Node000011"><a xlink:href="VulkanInstance_8h.html" target="_top" xlink:title=" ">
<polygon fill="white" stroke="#666666" points="768.21,-191 669.71,-191 669.71,-170.25 768.21,-170.25 768.21,-191"/>
<text xml:space="preserve" text-anchor="middle" x="718.96" y="-177.5" font-family="Helvetica,sans-Serif" font-size="10.00">VulkanInstance.h</text>
</a>
</g>
</g>
<!-- Node1&#45;&gt;Node11 -->
<g id="edge50_Node000001_Node000011" class="edge">
<title>Node1&#45;&gt;Node11</title>
<g id="a_edge50_Node000001_Node000011"><a xlink:title=" ">
<path fill="none" stroke="#63b8ff" d="M607.69,-329.1C613.38,-302.63 626.46,-256.76 652.96,-227 666.28,-212.04 685.49,-199.56 699.76,-191.49"/>
<polygon fill="#63b8ff" stroke="#63b8ff" points="604.32,-328.1 605.82,-338.59 611.19,-329.45 604.32,-328.1"/>
</a>
</g>
</g>
<!-- Node12 -->
<g id="Node000012" class="node">
<title>Node12</title>
<g id="a_Node000012"><a xlink:href="Swapchain_8h.html" target="_top" xlink:title=" ">
<polygon fill="white" stroke="#666666" points="988.71,-77.5 911.21,-77.5 911.21,-56.75 988.71,-56.75 988.71,-77.5"/>
<text xml:space="preserve" text-anchor="middle" x="949.96" y="-64" font-family="Helvetica,sans-Serif" font-size="10.00">Swapchain.h</text>
</a>
</g>
</g>
<!-- Node1&#45;&gt;Node12 -->
<g id="edge41_Node000001_Node000012" class="edge">
<title>Node1&#45;&gt;Node12</title>
<g id="a_edge41_Node000001_Node000012"><a xlink:title=" ">
<path fill="none" stroke="#63b8ff" d="M642.7,-350.56C734.34,-351.44 961.17,-348.93 1019.96,-304.5 1094.74,-247.99 990.35,-115.18 958.61,-77.97"/>
<polygon fill="#63b8ff" stroke="#63b8ff" points="643.01,-347.07 632.97,-350.45 642.92,-354.07 643.01,-347.07"/>
</a>
</g>
</g>
<!-- Node13 -->
<g id="Node000013" class="node">
<title>Node13</title>
<g id="a_Node000013"><a xlink:href="GraphicsPipeline_8h.html" target="_top" xlink:title=" ">
<polygon fill="white" stroke="#666666" points="1202.34,-20.75 1095.59,-20.75 1095.59,0 1202.34,0 1202.34,-20.75"/>
<text xml:space="preserve" text-anchor="middle" x="1148.96" y="-7.25" font-family="Helvetica,sans-Serif" font-size="10.00">GraphicsPipeline.h</text>
</a>
</g>
</g>
<!-- Node1&#45;&gt;Node13 -->
<g id="edge26_Node000001_Node000013" class="edge">
<title>Node1&#45;&gt;Node13</title>
<g id="a_edge26_Node000001_Node000013"><a xlink:title=" ">
<path fill="none" stroke="#63b8ff" d="M642.8,-349.64C765.58,-348.53 1144.09,-342.05 1259.96,-304.5 1312.78,-287.38 1365.96,-293.9 1365.96,-238.38 1365.96,-238.38 1365.96,-238.38 1365.96,-122.88 1365.96,-49.6 1266.86,-24.44 1202.6,-15.83"/>
<polygon fill="#63b8ff" stroke="#63b8ff" points="642.88,-346.14 632.91,-349.73 642.94,-353.14 642.88,-346.14"/>
</a>
</g>
</g>
<!-- Node14 -->
<g id="Node000014" class="node">
<title>Node14</title>
<g id="a_Node000014"><a xlink:href="VulkanDevices_8h.html" target="_top" xlink:title=" ">
<polygon fill="white" stroke="#666666" points="774.09,-134.25 677.84,-134.25 677.84,-113.5 774.09,-113.5 774.09,-134.25"/>
<text xml:space="preserve" text-anchor="middle" x="725.96" y="-120.75" font-family="Helvetica,sans-Serif" font-size="10.00">VulkanDevices.h</text>
</a>
</g>
</g>
<!-- Node1&#45;&gt;Node14 -->
<g id="edge49_Node000001_Node000014" class="edge">
<title>Node1&#45;&gt;Node14</title>
<g id="a_edge49_Node000001_Node000014"><a xlink:title=" ">
<path fill="none" stroke="#63b8ff" d="M604.2,-329.16C604.76,-315.99 606.23,-298.66 609.96,-283.75 623.39,-230.1 625.22,-212.45 660.96,-170.25 673.77,-155.13 692.74,-142.66 706.88,-134.65"/>
<polygon fill="#63b8ff" stroke="#63b8ff" points="600.71,-328.7 603.95,-338.79 607.71,-328.89 600.71,-328.7"/>
</a>
</g>
</g>
<!-- Node15 -->
<g id="Node000015" class="node">
<title>Node15</title>
<g id="a_Node000015"><a xlink:href="ECS_8h.html" target="_top" xlink:title=" ">
<polygon fill="white" stroke="#666666" points="1010.84,-304.5 967.09,-304.5 967.09,-283.75 1010.84,-283.75 1010.84,-304.5"/>
<text xml:space="preserve" text-anchor="middle" x="988.96" y="-291" font-family="Helvetica,sans-Serif" font-size="10.00">ECS.h</text>
</a>
</g>
</g>
<!-- Node1&#45;&gt;Node15 -->
<g id="edge22_Node000001_Node000015" class="edge">
<title>Node1&#45;&gt;Node15</title>
<g id="a_edge22_Node000001_Node000015"><a xlink:title=" ">
<path fill="none" stroke="#63b8ff" d="M642.76,-345.34C705.42,-337.85 832.72,-321.99 939.96,-304.5 948.85,-303.05 958.61,-301.23 967.05,-299.58"/>
<polygon fill="#63b8ff" stroke="#63b8ff" points="642.5,-341.84 632.98,-346.5 643.32,-348.79 642.5,-341.84"/>
</a>
</g>
</g>
<!-- Node18 -->
<g id="Node000018" class="node">
<title>Node18</title>
<g id="a_Node000018"><a xlink:href="GUI_8h.html" target="_top" xlink:title=" ">
<polygon fill="white" stroke="#666666" points="829.46,-247.75 786.46,-247.75 786.46,-227 829.46,-227 829.46,-247.75"/>
<text xml:space="preserve" text-anchor="middle" x="807.96" y="-234.25" font-family="Helvetica,sans-Serif" font-size="10.00">GUI.h</text>
</a>
</g>
</g>
<!-- Node1&#45;&gt;Node18 -->
<g id="edge25_Node000001_Node000018" class="edge">
<title>Node1&#45;&gt;Node18</title>
<g id="a_edge25_Node000001_Node000018"><a xlink:title=" ">
<path fill="none" stroke="#63b8ff" d="M642.4,-342.34C671.3,-335.5 711.06,-323.53 741.96,-304.5 767.1,-289.02 789.85,-262.13 800.91,-247.88"/>
<polygon fill="#63b8ff" stroke="#63b8ff" points="641.97,-338.85 632.98,-344.46 643.51,-345.68 641.97,-338.85"/>
</a>
</g>
</g>
<!-- Node19 -->
<g id="Node000019" class="node">
<title>Node19</title>
<g id="a_Node000019"><a xlink:href="Image_8h.html" target="_top" xlink:title=" ">
<polygon fill="white" stroke="#666666" points="499.84,-304.5 444.09,-304.5 444.09,-283.75 499.84,-283.75 499.84,-304.5"/>
<text xml:space="preserve" text-anchor="middle" x="471.96" y="-291" font-family="Helvetica,sans-Serif" font-size="10.00">Image.h</text>
</a>
</g>
</g>
<!-- Node1&#45;&gt;Node19 -->
<g id="edge28_Node000001_Node000019" class="edge">
<title>Node1&#45;&gt;Node19</title>
<g id="a_edge28_Node000001_Node000019"><a xlink:title=" ">
<path fill="none" stroke="#63b8ff" d="M569.85,-335.72C546.46,-326.02 516.03,-313.41 495.36,-304.83"/>
<polygon fill="#63b8ff" stroke="#63b8ff" points="568.39,-338.91 578.96,-339.51 571.07,-332.44 568.39,-338.91"/>
</a>
</g>
</g>
<!-- Node20 -->
<g id="Node000020" class="node">
<title>Node20</title>
<g id="a_Node000020"><a xlink:href="ImageManager_8h.html" target="_top" xlink:title=" ">
<polygon fill="white" stroke="#666666" points="537.84,-247.75 440.09,-247.75 440.09,-227 537.84,-227 537.84,-247.75"/>
<text xml:space="preserve" text-anchor="middle" x="488.96" y="-234.25" font-family="Helvetica,sans-Serif" font-size="10.00">ImageManager.h</text>
</a>
</g>
</g>
<!-- Node1&#45;&gt;Node20 -->
<g id="edge31_Node000001_Node000020" class="edge">
<title>Node1&#45;&gt;Node20</title>
<g id="a_edge31_Node000001_Node000020"><a xlink:title=" ">
<path fill="none" stroke="#63b8ff" d="M583.5,-332.78C573.76,-324.45 562.06,-314.17 551.96,-304.5 531.8,-285.2 509.58,-261.18 497.67,-248.06"/>
<polygon fill="#63b8ff" stroke="#63b8ff" points="581.07,-335.31 590.97,-339.1 585.6,-329.97 581.07,-335.31"/>
</a>
</g>
</g>
<!-- Node21 -->
<g id="Node000021" class="node">
<title>Node21</title>
<g id="a_Node000021"><a xlink:href="MemoryUtils_8h.html" target="_top" xlink:title=" ">
<polygon fill="white" stroke="#666666" points="897.96,-304.5 809.96,-304.5 809.96,-283.75 897.96,-283.75 897.96,-304.5"/>
<text xml:space="preserve" text-anchor="middle" x="853.96" y="-291" font-family="Helvetica,sans-Serif" font-size="10.00">MemoryUtils.h</text>
</a>
</g>
</g>
<!-- Node1&#45;&gt;Node21 -->
<g id="edge33_Node000001_Node000021" class="edge">
<title>Node1&#45;&gt;Node21</title>
<g id="a_edge33_Node000001_Node000021"><a xlink:title=" ">
<path fill="none" stroke="#63b8ff" d="M642.25,-341.49C687.3,-331.62 761.98,-315.27 809.54,-304.85"/>
<polygon fill="#63b8ff" stroke="#63b8ff" points="641.69,-338.03 632.67,-343.59 643.19,-344.87 641.69,-338.03"/>
</a>
</g>
</g>
<!-- Node22 -->
<g id="Node000022" class="node">
<title>Node22</title>
<g id="a_Node000022"><a xlink:href="Renderer_8h.html" target="_top" xlink:title=" ">
<polygon fill="white" stroke="#666666" points="954.21,-247.75 885.71,-247.75 885.71,-227 954.21,-227 954.21,-247.75"/>
<text xml:space="preserve" text-anchor="middle" x="919.96" y="-234.25" font-family="Helvetica,sans-Serif" font-size="10.00">Renderer.h</text>
</a>
</g>
</g>
<!-- Node1&#45;&gt;Node22 -->
<g id="edge37_Node000001_Node000022" class="edge">
<title>Node1&#45;&gt;Node22</title>
<g id="a_edge37_Node000001_Node000022"><a xlink:title=" ">
<path fill="none" stroke="#63b8ff" d="M642.96,-349.43C716.09,-347.76 869.8,-340.01 906.96,-304.5 922.36,-289.79 922.43,-262.57 921.19,-248.07"/>
<polygon fill="#63b8ff" stroke="#63b8ff" points="642.97,-345.93 633.05,-349.63 643.11,-352.93 642.97,-345.93"/>
</a>
</g>
</g>
<!-- Node23 -->
<g id="Node000023" class="node">
<title>Node23</title>
<g id="a_Node000023"><a xlink:href="ShaderLoader_8h.html" target="_top" xlink:title=" ">
<polygon fill="white" stroke="#666666" points="1231.46,-77.5 1140.46,-77.5 1140.46,-56.75 1231.46,-56.75 1231.46,-77.5"/>
<text xml:space="preserve" text-anchor="middle" x="1185.96" y="-64" font-family="Helvetica,sans-Serif" font-size="10.00">ShaderLoader.h</text>
</a>
</g>
</g>
<!-- Node1&#45;&gt;Node23 -->
<g id="edge39_Node000001_Node000023" class="edge">
<title>Node1&#45;&gt;Node23</title>
<g id="a_edge39_Node000001_Node000023"><a xlink:title=" ">
<path fill="none" stroke="#63b8ff" d="M643.01,-349.92C770.09,-349.68 1165.86,-345.59 1203.96,-304.5 1235.02,-271 1198.68,-117.84 1188.47,-77.75"/>
<polygon fill="#63b8ff" stroke="#63b8ff" points="643.08,-346.42 633.09,-349.93 643.09,-353.42 643.08,-346.42"/>
</a>
</g>
</g>
<!-- Node24 -->
<g id="Node000024" class="node">
<title>Node24</title>
<g id="a_Node000024"><a xlink:href="SwapchainRecreater_8h.html" target="_top" xlink:title=" ">
<polygon fill="white" stroke="#666666" points="1337.96,-134.25 1213.96,-134.25 1213.96,-113.5 1337.96,-113.5 1337.96,-134.25"/>
<text xml:space="preserve" text-anchor="middle" x="1275.96" y="-120.75" font-family="Helvetica,sans-Serif" font-size="10.00">SwapchainRecreater.h</text>
</a>
</g>
</g>
<!-- Node1&#45;&gt;Node24 -->
<g id="edge42_Node000001_Node000024" class="edge">
<title>Node1&#45;&gt;Node24</title>
<g id="a_edge42_Node000001_Node000024"><a xlink:title=" ">
<path fill="none" stroke="#63b8ff" d="M642.63,-349.75C773.19,-348.97 1192.06,-343.43 1236.96,-304.5 1288.32,-259.97 1281.21,-165.19 1277.38,-134.61"/>
<polygon fill="#63b8ff" stroke="#63b8ff" points="642.76,-346.25 632.78,-349.8 642.8,-353.25 642.76,-346.25"/>
</a>
</g>
</g>
<!-- Node25 -->
<g id="Node000025" class="node">
<title>Node25</title>
<g id="a_Node000025"><a xlink:href="ThreadPool_8h.html" target="_top" xlink:title=" ">
<polygon fill="white" stroke="#666666" points="1194.84,-304.5 1115.09,-304.5 1115.09,-283.75 1194.84,-283.75 1194.84,-304.5"/>
<text xml:space="preserve" text-anchor="middle" x="1154.96" y="-291" font-family="Helvetica,sans-Serif" font-size="10.00">ThreadPool.h</text>
</a>
</g>
</g>
<!-- Node1&#45;&gt;Node25 -->
<g id="edge44_Node000001_Node000025" class="edge">
<title>Node1&#45;&gt;Node25</title>
<g id="a_edge44_Node000001_Node000025"><a xlink:title=" ">
<path fill="none" stroke="#63b8ff" d="M642.78,-347.4C726.64,-341.83 930.91,-326.99 1100.96,-304.5 1105.4,-303.91 1110.02,-303.23 1114.62,-302.5"/>
<polygon fill="#63b8ff" stroke="#63b8ff" points="642.79,-343.9 633.04,-348.04 643.25,-350.88 642.79,-343.9"/>
</a>
</g>
</g>
<!-- Node26 -->
<g id="Node000026" class="node">
<title>Node26</title>
<g id="a_Node000026"><a xlink:href="Vertex_8h.html" target="_top" xlink:title=" ">
<polygon fill="white" stroke="#666666" points="364.21,-304.5 307.71,-304.5 307.71,-283.75 364.21,-283.75 364.21,-304.5"/>
<text xml:space="preserve" text-anchor="middle" x="335.96" y="-291" font-family="Helvetica,sans-Serif" font-size="10.00">Vertex.h</text>
</a>
</g>
</g>
<!-- Node1&#45;&gt;Node26 -->
<g id="edge45_Node000001_Node000026" class="edge">
<title>Node1&#45;&gt;Node26</title>
<g id="a_edge45_Node000001_Node000026"><a xlink:title=" ">
<path fill="none" stroke="#63b8ff" d="M565.14,-342.34C520.08,-333.54 443.55,-318.4 377.96,-304.5 373.58,-303.57 368.94,-302.56 364.41,-301.56"/>
<polygon fill="#63b8ff" stroke="#63b8ff" points="564.47,-345.78 574.95,-344.26 565.81,-338.91 564.47,-345.78"/>
</a>
</g>
</g>
<!-- Node27 -->
<g id="Node000027" class="node">
<title>Node27</title>
<g id="a_Node000027"><a xlink:href="cstm__types_8h.html" target="_top" xlink:title=" ">
<polygon fill="white" stroke="#666666" points="1145.59,-191 1064.34,-191 1064.34,-170.25 1145.59,-170.25 1145.59,-191"/>
<text xml:space="preserve" text-anchor="middle" x="1104.96" y="-177.5" font-family="Helvetica,sans-Serif" font-size="10.00">cstm_types.h</text>
</a>
</g>
</g>
<!-- Node1&#45;&gt;Node27 -->
<g id="edge51_Node000001_Node000027" class="edge">
<title>Node1&#45;&gt;Node27</title>
<g id="a_edge51_Node000001_Node000027"><a xlink:title=" ">
<path fill="none" stroke="#63b8ff" d="M642.54,-348.43C747.1,-344.18 1030.29,-330.39 1062.96,-304.5 1099.01,-275.94 1104.28,-214.87 1104.93,-191.24"/>
<polygon fill="#63b8ff" stroke="#63b8ff" points="642.64,-344.92 632.78,-348.82 642.91,-351.92 642.64,-344.92"/>
</a>
</g>
</g>
<!-- Node28 -->
<g id="Node000028" class="node">
<title>Node28</title>
<g id="a_Node000028"><a xlink:href="helperFuncs_8h.html" target="_top" xlink:title=" ">
<polygon fill="white" stroke="#666666" points="715.71,-304.5 632.21,-304.5 632.21,-283.75 715.71,-283.75 715.71,-304.5"/>
<text xml:space="preserve" text-anchor="middle" x="673.96" y="-291" font-family="Helvetica,sans-Serif" font-size="10.00">helperFuncs.h</text>
</a>
</g>
</g>
<!-- Node1&#45;&gt;Node28 -->
<g id="edge55_Node000001_Node000028" class="edge">
<title>Node1&#45;&gt;Node28</title>
<g id="a_edge55_Node000001_Node000028"><a xlink:title=" ">
<path fill="none" stroke="#63b8ff" d="M625.33,-333.16C637.19,-323.88 651.53,-312.67 661.56,-304.83"/>
<polygon fill="#63b8ff" stroke="#63b8ff" points="623.39,-330.24 617.67,-339.15 627.7,-335.75 623.39,-330.24"/>
</a>
</g>
</g>
<!-- Node2&#45;&gt;Node3 -->
<g id="edge2_Node000002_Node000003" class="edge">
<title>Node2&#45;&gt;Node3</title>
<g id="a_edge2_Node000002_Node000003"><a xlink:title=" ">
<path fill="none" stroke="#63b8ff" d="M258.31,-217.71C265.59,-208.84 273.99,-198.62 279.99,-191.33"/>
<polygon fill="#63b8ff" stroke="#63b8ff" points="255.61,-215.47 251.97,-225.42 261.02,-219.91 255.61,-215.47"/>
</a>
</g>
</g>
<!-- Node2&#45;&gt;Node5 -->
<g id="edge4_Node000002_Node000005" class="edge">
<title>Node2&#45;&gt;Node5</title>
<g id="a_edge4_Node000002_Node000005"><a xlink:title=" ">
<path fill="none" stroke="#63b8ff" d="M220.14,-219.94C207.19,-210.61 191.42,-199.25 180.43,-191.33"/>
<polygon fill="#63b8ff" stroke="#63b8ff" points="217.99,-222.7 228.15,-225.7 222.08,-217.02 217.99,-222.7"/>
</a>
</g>
</g>
<!-- Node3&#45;&gt;Node4 -->
<g id="edge3_Node000003_Node000004" class="edge">
<title>Node3&#45;&gt;Node4</title>
<g id="a_edge3_Node000003_Node000004"><a xlink:title=" ">
<path fill="none" stroke="#63b8ff" d="M289.46,-158.72C291.19,-134.59 293.97,-95.92 295.26,-77.93"/>
<polygon fill="#63b8ff" stroke="#63b8ff" points="285.98,-158.38 288.75,-168.61 292.96,-158.89 285.98,-158.38"/>
</a>
</g>
</g>
<!-- Node5&#45;&gt;Node4 -->
<g id="edge8_Node000005_Node000004" class="edge">
<title>Node5&#45;&gt;Node4</title>
<g id="a_edge8_Node000005_Node000004"><a xlink:title=" ">
<path fill="none" stroke="#63b8ff" d="M195.68,-164.19C209.44,-156.14 225.76,-145.62 238.96,-134.25 259.41,-116.65 278.98,-91.55 289.01,-77.9"/>
<polygon fill="#63b8ff" stroke="#63b8ff" points="194.03,-161.1 187.06,-169.08 197.48,-167.19 194.03,-161.1"/>
</a>
</g>
</g>
<!-- Node5&#45;&gt;Node6 -->
<g id="edge5_Node000005_Node000006" class="edge">
<title>Node5&#45;&gt;Node6</title>
<g id="a_edge5_Node000005_Node000006"><a xlink:title=" ">
<path fill="none" stroke="#63b8ff" d="M143.64,-163.46C130.1,-154.08 113.5,-142.57 101.96,-134.58"/>
<polygon fill="#63b8ff" stroke="#63b8ff" points="141.38,-166.16 151.59,-168.97 145.37,-160.4 141.38,-166.16"/>
</a>
</g>
</g>
<!-- Node5&#45;&gt;Node7 -->
<g id="edge6_Node000005_Node000007" class="edge">
<title>Node5&#45;&gt;Node7</title>
<g id="a_edge6_Node000005_Node000007"><a xlink:title=" ">
<path fill="none" stroke="#63b8ff" d="M177.81,-159.82C182.52,-151.23 187.82,-141.56 191.64,-134.58"/>
<polygon fill="#63b8ff" stroke="#63b8ff" points="174.79,-158.06 173.05,-168.51 180.93,-161.42 174.79,-158.06"/>
</a>
</g>
</g>
<!-- Node7&#45;&gt;Node4 -->
<g id="edge7_Node000007_Node000004" class="edge">
<title>Node7&#45;&gt;Node4</title>
<g id="a_edge7_Node000007_Node000004"><a xlink:title=" ">
<path fill="none" stroke="#63b8ff" d="M224.72,-107.53C241.94,-98 263.54,-86.06 278.42,-77.83"/>
<polygon fill="#63b8ff" stroke="#63b8ff" points="223.04,-104.45 215.99,-112.35 226.43,-110.58 223.04,-104.45"/>
</a>
</g>
</g>
<!-- Node8&#45;&gt;Node9 -->
<g id="edge11_Node000008_Node000009" class="edge">
<title>Node8&#45;&gt;Node9</title>
<g id="a_edge11_Node000008_Node000009"><a xlink:title=" ">
<path fill="none" stroke="#63b8ff" d="M181.19,-271.88C180.89,-263.66 180.56,-254.68 180.32,-248.08"/>
<polygon fill="#63b8ff" stroke="#63b8ff" points="177.69,-271.96 181.55,-281.82 184.68,-271.7 177.69,-271.96"/>
</a>
</g>
</g>
<!-- Node10&#45;&gt;Node11 -->
<g id="edge13_Node000010_Node000011" class="edge">
<title>Node10&#45;&gt;Node11</title>
<g id="a_edge13_Node000010_Node000011"><a xlink:title=" ">
<path fill="none" stroke="#63b8ff" d="M718.96,-215.13C718.96,-206.91 718.96,-197.93 718.96,-191.33"/>
<polygon fill="#63b8ff" stroke="#63b8ff" points="715.46,-215.07 718.96,-225.07 722.46,-215.07 715.46,-215.07"/>
</a>
</g>
</g>
<!-- Node11&#45;&gt;Node12 -->
<g id="edge14_Node000011_Node000012" class="edge">
<title>Node11&#45;&gt;Node12</title>
<g id="a_edge14_Node000011_Node000012"><a xlink:title=" ">
<path fill="none" stroke="#63b8ff" d="M746.01,-164.49C771.1,-150.65 809.65,-129.89 843.96,-113.5 871.6,-100.3 904.06,-86.67 925.71,-77.84"/>
<polygon fill="#63b8ff" stroke="#63b8ff" points="744.5,-161.33 737.45,-169.24 747.89,-167.45 744.5,-161.33"/>
</a>
</g>
</g>
<!-- Node11&#45;&gt;Node14 -->
<g id="edge16_Node000011_Node000014" class="edge">
<title>Node11&#45;&gt;Node14</title>
<g id="a_edge16_Node000011_Node000014"><a xlink:title=" ">
<path fill="none" stroke="#63b8ff" d="M721.64,-158.67C722.7,-150.38 723.87,-141.25 724.72,-134.58"/>
<polygon fill="#63b8ff" stroke="#63b8ff" points="718.2,-157.97 720.41,-168.34 725.15,-158.86 718.2,-157.97"/>
</a>
</g>
</g>
<!-- Node12&#45;&gt;Node13 -->
<g id="edge15_Node000012_Node000013" class="edge">
<title>Node12&#45;&gt;Node13</title>
<g id="a_edge15_Node000012_Node000013"><a xlink:title=" ">
<path fill="none" stroke="#63b8ff" d="M996.64,-53.28C1032.32,-43.47 1080.77,-30.14 1113.36,-21.17"/>
<polygon fill="#63b8ff" stroke="#63b8ff" points="995.71,-49.91 987,-55.94 997.57,-56.66 995.71,-49.91"/>
</a>
</g>
</g>
<!-- Node14&#45;&gt;Node4 -->
<g id="edge18_Node000014_Node000004" class="edge">
<title>Node14&#45;&gt;Node4</title>
<g id="a_edge18_Node000014_Node000004"><a xlink:title=" ">
<path fill="none" stroke="#63b8ff" d="M666.28,-115.28C579.86,-104.27 421.64,-84.13 342.97,-74.11"/>
<polygon fill="#63b8ff" stroke="#63b8ff" points="665.61,-118.72 675.97,-116.51 666.49,-111.77 665.61,-118.72"/>
</a>
</g>
</g>
<!-- Node14&#45;&gt;Node12 -->
<g id="edge19_Node000014_Node000012" class="edge">
<title>Node14&#45;&gt;Node12</title>
<g id="a_edge19_Node000014_Node000012"><a xlink:title=" ">
<path fill="none" stroke="#63b8ff" d="M777.28,-110.33C817.86,-100.41 873.67,-86.77 910.73,-77.71"/>
<polygon fill="#63b8ff" stroke="#63b8ff" points="776.62,-106.89 767.74,-112.66 778.28,-113.69 776.62,-106.89"/>
</a>
</g>
</g>
<!-- Node14&#45;&gt;Node13 -->
<g id="edge17_Node000014_Node000013" class="edge">
<title>Node14&#45;&gt;Node13</title>
<g id="a_edge17_Node000014_Node000013"><a xlink:title=" ">
<path fill="none" stroke="#63b8ff" d="M758.84,-108.51C793.77,-93.73 850.87,-70.92 901.96,-56.75 967.5,-38.57 1044.89,-25.7 1095.34,-18.42"/>
<polygon fill="#63b8ff" stroke="#63b8ff" points="757.53,-105.26 749.71,-112.41 760.28,-111.7 757.53,-105.26"/>
</a>
</g>
</g>
<!-- Node16 -->
<g id="Node000016" class="node">
<title>Node16</title>
<g id="a_Node000016"><a xlink:href="Physics_8h.html" target="_top" xlink:title=" ">
<polygon fill="white" stroke="#666666" points="1033.84,-247.75 972.09,-247.75 972.09,-227 1033.84,-227 1033.84,-247.75"/>
<text xml:space="preserve" text-anchor="middle" x="1002.96" y="-234.25" font-family="Helvetica,sans-Serif" font-size="10.00">Physics.h</text>
</a>
</g>
</g>
<!-- Node15&#45;&gt;Node16 -->
<g id="edge23_Node000015_Node000016" class="edge">
<title>Node15&#45;&gt;Node16</title>
<g id="a_edge23_Node000015_Node000016"><a xlink:title=" ">
<path fill="none" stroke="#63b8ff" d="M994.25,-272.46C996.39,-264.09 998.75,-254.83 1000.48,-248.08"/>
<polygon fill="#63b8ff" stroke="#63b8ff" points="990.93,-271.32 991.84,-281.87 997.71,-273.05 990.93,-271.32"/>
</a>
</g>
</g>
<!-- Node17 -->
<g id="Node000017" class="node">
<title>Node17</title>
<g id="a_Node000017"><a xlink:href="main_8cpp.html" target="_top" xlink:title=" ">
<polygon fill="white" stroke="#666666" points="981.46,-191 920.46,-191 920.46,-170.25 981.46,-170.25 981.46,-191"/>
<text xml:space="preserve" text-anchor="middle" x="950.96" y="-177.5" font-family="Helvetica,sans-Serif" font-size="10.00">main.cpp</text>
</a>
</g>
</g>
<!-- Node16&#45;&gt;Node17 -->
<g id="edge24_Node000016_Node000017" class="edge">
<title>Node16&#45;&gt;Node17</title>
<g id="a_edge24_Node000016_Node000017"><a xlink:title=" ">
<path fill="none" stroke="#63b8ff" d="M985.77,-218.27C977.23,-209.28 967.25,-198.78 960.18,-191.33"/>
<polygon fill="#63b8ff" stroke="#63b8ff" points="983.2,-220.65 992.62,-225.49 988.27,-215.83 983.2,-220.65"/>
</a>
</g>
</g>
<!-- Node19&#45;&gt;Node4 -->
<g id="edge30_Node000019_Node000004" class="edge">
<title>Node19&#45;&gt;Node4</title>
<g id="a_edge30_Node000019_Node000004"><a xlink:title=" ">
<path fill="none" stroke="#63b8ff" d="M454.54,-275.1C447,-266.98 438.25,-257.13 430.96,-247.75 387.06,-191.2 387.47,-168.76 341.96,-113.5 331.12,-100.34 316.94,-86.81 307.2,-77.99"/>
<polygon fill="#63b8ff" stroke="#63b8ff" points="451.94,-277.45 461.36,-282.31 457.03,-272.64 451.94,-277.45"/>
</a>
</g>
</g>
<!-- Node19&#45;&gt;Node20 -->
<g id="edge29_Node000019_Node000020" class="edge">
<title>Node19&#45;&gt;Node20</title>
<g id="a_edge29_Node000019_Node000020"><a xlink:title=" ">
<path fill="none" stroke="#63b8ff" d="M478.38,-272.46C480.98,-264.09 483.85,-254.83 485.95,-248.08"/>
<polygon fill="#63b8ff" stroke="#63b8ff" points="475.07,-271.3 475.45,-281.89 481.76,-273.38 475.07,-271.3"/>
</a>
</g>
</g>
<!-- Node21&#45;&gt;Node12 -->
<g id="edge35_Node000021_Node000012" class="edge">
<title>Node21&#45;&gt;Node12</title>
<g id="a_edge35_Node000021_Node000012"><a xlink:title=" ">
<path fill="none" stroke="#63b8ff" d="M860.44,-272.9C864.8,-259.71 870.85,-242.19 876.96,-227 900.2,-169.27 933.03,-102.12 945.19,-77.66"/>
<polygon fill="#63b8ff" stroke="#63b8ff" points="857.19,-271.57 857.42,-282.16 863.85,-273.74 857.19,-271.57"/>
</a>
</g>
</g>
<!-- Node21&#45;&gt;Node18 -->
<g id="edge34_Node000021_Node000018" class="edge">
<title>Node21&#45;&gt;Node18</title>
<g id="a_edge34_Node000021_Node000018"><a xlink:title=" ">
<path fill="none" stroke="#63b8ff" d="M838.51,-274.74C831.01,-265.81 822.31,-255.45 816.11,-248.08"/>
<polygon fill="#63b8ff" stroke="#63b8ff" points="835.65,-276.77 844.76,-282.18 841.01,-272.27 835.65,-276.77"/>
</a>
</g>
</g>
<!-- Node22&#45;&gt;Node17 -->
<g id="edge38_Node000022_Node000017" class="edge">
<title>Node22&#45;&gt;Node17</title>
<g id="a_edge38_Node000022_Node000017"><a xlink:title=" ">
<path fill="none" stroke="#63b8ff" d="M931.18,-216.57C936.04,-207.98 941.51,-198.31 945.47,-191.33"/>
<polygon fill="#63b8ff" stroke="#63b8ff" points="928.13,-214.84 926.25,-225.27 934.22,-218.29 928.13,-214.84"/>
</a>
</g>
</g>
<!-- Node23&#45;&gt;Node13 -->
<g id="edge40_Node000023_Node000013" class="edge">
<title>Node23&#45;&gt;Node13</title>
<g id="a_edge40_Node000023_Node000013"><a xlink:title=" ">
<path fill="none" stroke="#63b8ff" d="M1172.96,-46.89C1167.06,-38.16 1160.35,-28.22 1155.52,-21.08"/>
<polygon fill="#63b8ff" stroke="#63b8ff" points="1170,-48.76 1178.5,-55.08 1175.8,-44.84 1170,-48.76"/>
</a>
</g>
</g>
<!-- Node24&#45;&gt;Node13 -->
<g id="edge43_Node000024_Node000013" class="edge">
<title>Node24&#45;&gt;Node13</title>
<g id="a_edge43_Node000024_Node000013"><a xlink:title=" ">
<path fill="none" stroke="#63b8ff" d="M1269.02,-102.45C1263.33,-88.18 1254.06,-69.48 1240.96,-56.75 1223.85,-40.12 1199.44,-28.47 1180.07,-21.14"/>
<polygon fill="#63b8ff" stroke="#63b8ff" points="1265.71,-103.57 1272.45,-111.74 1272.28,-101.15 1265.71,-103.57"/>
</a>
</g>
</g>
<!-- Node26&#45;&gt;Node2 -->
<g id="edge46_Node000026_Node000002" class="edge">
<title>Node26&#45;&gt;Node2</title>
<g id="a_edge46_Node000026_Node000002"><a xlink:title=" ">
<path fill="none" stroke="#63b8ff" d="M309.43,-277.51C293.33,-268.03 273.29,-256.23 259.44,-248.08"/>
<polygon fill="#63b8ff" stroke="#63b8ff" points="307.64,-280.51 318.03,-282.57 311.19,-274.48 307.64,-280.51"/>
</a>
</g>
</g>
<!-- Node26&#45;&gt;Node3 -->
<g id="edge47_Node000026_Node000003" class="edge">
<title>Node26&#45;&gt;Node3</title>
<g id="a_edge47_Node000026_Node000003"><a xlink:title=" ">
<path fill="none" stroke="#63b8ff" d="M327.39,-273.21C317.04,-249.16 300.03,-209.67 292.18,-191.43"/>
<polygon fill="#63b8ff" stroke="#63b8ff" points="324.1,-274.43 331.27,-282.23 330.53,-271.66 324.1,-274.43"/>
</a>
</g>
</g>
<!-- Node26&#45;&gt;Node4 -->
<g id="edge48_Node000026_Node000004" class="edge">
<title>Node26&#45;&gt;Node4</title>
<g id="a_edge48_Node000026_Node000004"><a xlink:title=" ">
<path fill="none" stroke="#63b8ff" d="M341.19,-272.24C346.52,-247.56 352.96,-205.42 344.96,-170.25 336.67,-133.82 313.7,-95.21 302.4,-77.72"/>
<polygon fill="#63b8ff" stroke="#63b8ff" points="337.79,-271.41 338.93,-281.95 344.61,-273 337.79,-271.41"/>
</a>
</g>
</g>
<!-- Node27&#45;&gt;Node12 -->
<g id="edge53_Node000027_Node000012" class="edge">
<title>Node27&#45;&gt;Node12</title>
<g id="a_edge53_Node000027_Node000012"><a xlink:title=" ">
<path fill="none" stroke="#63b8ff" d="M1092.59,-160.47C1082.5,-146.06 1067.16,-126.61 1049.96,-113.5 1029.04,-97.55 1001.62,-85.61 980.78,-77.99"/>
<polygon fill="#63b8ff" stroke="#63b8ff" points="1089.61,-162.32 1098.1,-168.66 1095.42,-158.41 1089.61,-162.32"/>
</a>
</g>
</g>
<!-- Node27&#45;&gt;Node13 -->
<g id="edge52_Node000027_Node000013" class="edge">
<title>Node27&#45;&gt;Node13</title>
<g id="a_edge52_Node000027_Node000013"><a xlink:title=" ">
<path fill="none" stroke="#63b8ff" d="M1108.6,-158.79C1113.12,-134.16 1121.52,-92.07 1131.96,-56.75 1135.68,-44.16 1141.18,-30.07 1144.91,-20.98"/>
<polygon fill="#63b8ff" stroke="#63b8ff" points="1105.19,-158 1106.87,-168.46 1112.08,-159.23 1105.19,-158"/>
</a>
</g>
</g>
<!-- Node27&#45;&gt;Node14 -->
<g id="edge54_Node000027_Node000014" class="edge">
<title>Node27&#45;&gt;Node14</title>
<g id="a_edge54_Node000027_Node000014"><a xlink:title=" ">
<path fill="none" stroke="#63b8ff" d="M1052.76,-172.08C979.17,-161.45 845.94,-142.21 774.43,-131.88"/>
<polygon fill="#63b8ff" stroke="#63b8ff" points="1052.15,-175.53 1062.54,-173.5 1053.15,-168.6 1052.15,-175.53"/>
</a>
</g>
</g>
<!-- Node28&#45;&gt;Node10 -->
<g id="edge56_Node000028_Node000010" class="edge">
<title>Node28&#45;&gt;Node10</title>
<g id="a_edge56_Node000028_Node000010"><a xlink:title=" ">
<path fill="none" stroke="#63b8ff" d="M689.31,-274.46C696.59,-265.59 704.99,-255.37 710.99,-248.08"/>
<polygon fill="#63b8ff" stroke="#63b8ff" points="686.61,-272.22 682.97,-282.17 692.02,-276.66 686.61,-272.22"/>
</a>
</g>
</g>
<!-- Node28&#45;&gt;Node11 -->
<g id="edge57_Node000028_Node000011" class="edge">
<title>Node28&#45;&gt;Node11</title>
<g id="a_edge57_Node000028_Node000011"><a xlink:title=" ">
<path fill="none" stroke="#63b8ff" d="M663.84,-273.49C658.29,-259.87 653.83,-241.63 660.96,-227 668.75,-211.03 685.18,-199.02 698.57,-191.38"/>
<polygon fill="#63b8ff" stroke="#63b8ff" points="660.53,-274.68 667.9,-282.29 666.89,-271.74 660.53,-274.68"/>
</a>
</g>
</g>
</g>
</svg>
