<?xml version="1.0" encoding="UTF-8" standalone="no"?>
<!DOCTYPE svg PUBLIC "-//W3C//DTD SVG 1.1//EN"
 "http://www.w3.org/Graphics/SVG/1.1/DTD/svg11.dtd">
<!-- Generated by graphviz version 13.0.0 (0)
 -->
<!-- Title: cstm_types.h Pages: 1 -->
<svg width="250pt" height="199pt"
 viewBox="0.00 0.00 250.00 199.00" xmlns="http://www.w3.org/2000/svg" xmlns:xlink="http://www.w3.org/1999/xlink">
<g id="graph0" class="graph" transform="scale(1 1) rotate(0) translate(4 195)">
<title>cstm_types.h</title>
<!-- Node1 -->
<g id="Node000001" class="node">
<title>Node1</title>
<g id="a_Node000001"><a xlink:title=" ">
<polygon fill="#999999" stroke="#666666" points="85,-191 3.75,-191 3.75,-170.25 85,-170.25 85,-191"/>
<text xml:space="preserve" text-anchor="middle" x="44.38" y="-177.5" font-family="Helvetica,sans-Serif" font-size="10.00">cstm_types.h</text>
</a>
</g>
</g>
<!-- Node2 -->
<g id="Node000002" class="node">
<title>Node2</title>
<g id="a_Node000002"><a xlink:href="GraphicsPipeline_8h.html" target="_top" xlink:title=" ">
<polygon fill="white" stroke="#666666" points="106.75,-20.75 0,-20.75 0,0 106.75,0 106.75,-20.75"/>
<text xml:space="preserve" text-anchor="middle" x="53.38" y="-7.25" font-family="Helvetica,sans-Serif" font-size="10.00">GraphicsPipeline.h</text>
</a>
</g>
</g>
<!-- Node1&#45;&gt;Node2 -->
<g id="edge1_Node000001_Node000002" class="edge">
<title>Node1&#45;&gt;Node2</title>
<g id="a_edge1_Node000001_Node000002"><a xlink:title=" ">
<path fill="none" stroke="#63b8ff" d="M29.98,-160.57C13.32,-136.05 -9.97,-92.36 5.38,-56.75 11.91,-41.58 26.28,-29.12 37.6,-21.12"/>
<polygon fill="#63b8ff" stroke="#63b8ff" points="27.04,-162.49 35.7,-168.6 32.74,-158.42 27.04,-162.49"/>
</a>
</g>
</g>
<!-- Node3 -->
<g id="Node000003" class="node">
<title>Node3</title>
<g id="a_Node000003"><a xlink:href="Swapchain_8h.html" target="_top" xlink:title=" ">
<polygon fill="white" stroke="#666666" points="92.12,-77.5 14.62,-77.5 14.62,-56.75 92.12,-56.75 92.12,-77.5"/>
<text xml:space="preserve" text-anchor="middle" x="53.38" y="-64" font-family="Helvetica,sans-Serif" font-size="10.00">Swapchain.h</text>
</a>
</g>
</g>
<!-- Node1&#45;&gt;Node3 -->
<g id="edge2_Node000001_Node000003" class="edge">
<title>Node1&#45;&gt;Node3</title>
<g id="a_edge2_Node000001_Node000003"><a xlink:title=" ">
<path fill="none" stroke="#63b8ff" d="M46.06,-158.72C48.01,-134.59 51.13,-95.92 52.58,-77.93"/>
<polygon fill="#63b8ff" stroke="#63b8ff" points="42.58,-158.36 45.26,-168.61 49.56,-158.92 42.58,-158.36"/>
</a>
</g>
</g>
<!-- Node4 -->
<g id="Node000004" class="node">
<title>Node4</title>
<g id="a_Node000004"><a xlink:href="VulkanDevices_8h.html" target="_top" xlink:title=" ">
<polygon fill="white" stroke="#666666" points="168.5,-134.25 72.25,-134.25 72.25,-113.5 168.5,-113.5 168.5,-134.25"/>
<text xml:space="preserve" text-anchor="middle" x="120.38" y="-120.75" font-family="Helvetica,sans-Serif" font-size="10.00">VulkanDevices.h</text>
</a>
</g>
</g>
<!-- Node1&#45;&gt;Node4 -->
<g id="edge4_Node000001_Node000004" class="edge">
<title>Node1&#45;&gt;Node4</title>
<g id="a_edge4_Node000001_Node000004"><a xlink:title=" ">
<path fill="none" stroke="#63b8ff" d="M67.19,-163.19C80.15,-153.86 95.92,-142.5 106.91,-134.58"/>
<polygon fill="#63b8ff" stroke="#63b8ff" points="65.26,-160.27 59.19,-168.95 69.35,-165.95 65.26,-160.27"/>
</a>
</g>
</g>
<!-- Node3&#45;&gt;Node2 -->
<g id="edge3_Node000003_Node000002" class="edge">
<title>Node3&#45;&gt;Node2</title>
<g id="a_edge3_Node000003_Node000002"><a xlink:title=" ">
<path fill="none" stroke="#63b8ff" d="M53.38,-44.88C53.38,-36.66 53.38,-27.68 53.38,-21.08"/>
<polygon fill="#63b8ff" stroke="#63b8ff" points="49.88,-44.82 53.38,-54.82 56.88,-44.82 49.88,-44.82"/>
</a>
</g>
</g>
<!-- Node4&#45;&gt;Node2 -->
<g id="edge5_Node000004_Node000002" class="edge">
<title>Node4&#45;&gt;Node2</title>
<g id="a_edge5_Node000004_Node000002"><a xlink:title=" ">
<path fill="none" stroke="#63b8ff" d="M117.35,-102.14C114.67,-88.5 109.84,-70.66 101.38,-56.75 92.55,-42.25 77.89,-29.35 67.09,-21.05"/>
<polygon fill="#63b8ff" stroke="#63b8ff" points="113.86,-102.49 118.98,-111.77 120.76,-101.32 113.86,-102.49"/>
</a>
</g>
</g>
<!-- Node4&#45;&gt;Node3 -->
<g id="edge7_Node000004_Node000003" class="edge">
<title>Node4&#45;&gt;Node3</title>
<g id="a_edge7_Node000004_Node000003"><a xlink:title=" ">
<path fill="none" stroke="#63b8ff" d="M99.58,-105.89C88.3,-96.66 74.75,-85.59 65.25,-77.83"/>
<polygon fill="#63b8ff" stroke="#63b8ff" points="97.27,-108.51 107.22,-112.13 101.7,-103.09 97.27,-108.51"/>
</a>
</g>
</g>
<!-- Node5 -->
<g id="Node000005" class="node">
<title>Node5</title>
<g id="a_Node000005"><a xlink:href="MeshManager_8h.html" target="_top" xlink:title=" ">
<polygon fill="white" stroke="#666666" points="242,-77.5 148.75,-77.5 148.75,-56.75 242,-56.75 242,-77.5"/>
<text xml:space="preserve" text-anchor="middle" x="195.38" y="-64" font-family="Helvetica,sans-Serif" font-size="10.00">MeshManager.h</text>
</a>
</g>
</g>
<!-- Node4&#45;&gt;Node5 -->
<g id="edge6_Node000004_Node000005" class="edge">
<title>Node4&#45;&gt;Node5</title>
<g id="a_edge6_Node000004_Node000005"><a xlink:title=" ">
<path fill="none" stroke="#63b8ff" d="M142.89,-106.44C155.68,-97.11 171.24,-85.75 182.08,-77.83"/>
<polygon fill="#63b8ff" stroke="#63b8ff" points="141.02,-103.47 135.01,-112.19 145.15,-109.13 141.02,-103.47"/>
</a>
</g>
</g>
</g>
</svg>
