<?xml version="1.0" encoding="UTF-8" standalone="no"?>
<!DOCTYPE svg PUBLIC "-//W3C//DTD SVG 1.1//EN"
 "http://www.w3.org/Graphics/SVG/1.1/DTD/svg11.dtd">
<!-- Generated by graphviz version 13.0.0 (0)
 -->
<!-- Title: DescriptorBuilder.h Pages: 1 -->
<svg width="252pt" height="142pt"
 viewBox="0.00 0.00 252.00 142.00" xmlns="http://www.w3.org/2000/svg" xmlns:xlink="http://www.w3.org/1999/xlink">
<g id="graph0" class="graph" transform="scale(1 1) rotate(0) translate(4 138.25)">
<title>DescriptorBuilder.h</title>
<!-- Node1 -->
<g id="Node000001" class="node">
<title>Node1</title>
<g id="a_Node000001"><a xlink:title=" ">
<polygon fill="#999999" stroke="#666666" points="222.12,-134.25 113.12,-134.25 113.12,-113.5 222.12,-113.5 222.12,-134.25"/>
<text xml:space="preserve" text-anchor="middle" x="167.62" y="-120.75" font-family="Helvetica,sans-Serif" font-size="10.00">DescriptorBuilder.h</text>
</a>
</g>
</g>
<!-- Node2 -->
<g id="Node000002" class="node">
<title>Node2</title>
<g id="a_Node000002"><a xlink:href="DescriptorManager_8h.html" target="_top" xlink:title=" ">
<polygon fill="white" stroke="#666666" points="117.25,-77.5 0,-77.5 0,-56.75 117.25,-56.75 117.25,-77.5"/>
<text xml:space="preserve" text-anchor="middle" x="58.62" y="-64" font-family="Helvetica,sans-Serif" font-size="10.00">DescriptorManager.h</text>
</a>
</g>
</g>
<!-- Node1&#45;&gt;Node2 -->
<g id="edge1_Node000001_Node000002" class="edge">
<title>Node1&#45;&gt;Node2</title>
<g id="a_edge1_Node000001_Node000002"><a xlink:title=" ">
<path fill="none" stroke="#63b8ff" d="M137.87,-107.93C118.78,-98.34 94.55,-86.17 77.94,-77.83"/>
<polygon fill="#63b8ff" stroke="#63b8ff" points="136.28,-111.05 146.79,-112.41 139.42,-104.79 136.28,-111.05"/>
</a>
</g>
</g>
<!-- Node3 -->
<g id="Node000003" class="node">
<title>Node3</title>
<g id="a_Node000003"><a xlink:href="Material_8h.html" target="_top" xlink:title=" ">
<polygon fill="white" stroke="#666666" points="200.38,-77.5 134.88,-77.5 134.88,-56.75 200.38,-56.75 200.38,-77.5"/>
<text xml:space="preserve" text-anchor="middle" x="167.62" y="-64" font-family="Helvetica,sans-Serif" font-size="10.00">Material.h</text>
</a>
</g>
</g>
<!-- Node1&#45;&gt;Node3 -->
<g id="edge2_Node000001_Node000003" class="edge">
<title>Node1&#45;&gt;Node3</title>
<g id="a_edge2_Node000001_Node000003"><a xlink:title=" ">
<path fill="none" stroke="#63b8ff" d="M167.62,-101.63C167.62,-93.41 167.62,-84.43 167.62,-77.83"/>
<polygon fill="#63b8ff" stroke="#63b8ff" points="164.13,-101.57 167.63,-111.57 171.13,-101.57 164.13,-101.57"/>
</a>
</g>
</g>
<!-- Node4 -->
<g id="Node000004" class="node">
<title>Node4</title>
<g id="a_Node000004"><a xlink:href="MeshManager_8h.html" target="_top" xlink:title=" ">
<polygon fill="white" stroke="#666666" points="244.25,-20.75 151,-20.75 151,0 244.25,0 244.25,-20.75"/>
<text xml:space="preserve" text-anchor="middle" x="197.62" y="-7.25" font-family="Helvetica,sans-Serif" font-size="10.00">MeshManager.h</text>
</a>
</g>
</g>
<!-- Node1&#45;&gt;Node4 -->
<g id="edge4_Node000001_Node000004" class="edge">
<title>Node1&#45;&gt;Node4</title>
<g id="a_edge4_Node000001_Node000004"><a xlink:title=" ">
<path fill="none" stroke="#63b8ff" d="M189.44,-105.57C197.38,-97.92 205.43,-88.22 209.62,-77.5 217.12,-58.38 208.63,-34.3 202.6,-21.11"/>
<polygon fill="#63b8ff" stroke="#63b8ff" points="187.34,-102.76 182.19,-112.02 191.99,-107.99 187.34,-102.76"/>
</a>
</g>
</g>
<!-- Node3&#45;&gt;Node4 -->
<g id="edge3_Node000003_Node000004" class="edge">
<title>Node3&#45;&gt;Node4</title>
<g id="a_edge3_Node000003_Node000004"><a xlink:title=" ">
<path fill="none" stroke="#63b8ff" d="M178.48,-46.32C183.18,-37.73 188.48,-28.06 192.31,-21.08"/>
<polygon fill="#63b8ff" stroke="#63b8ff" points="175.45,-44.56 173.72,-55.01 181.59,-47.92 175.45,-44.56"/>
</a>
</g>
</g>
</g>
</svg>
