<?xml version="1.0" encoding="UTF-8" standalone="no"?>
<!DOCTYPE svg PUBLIC "-//W3C//DTD SVG 1.1//EN"
 "http://www.w3.org/Graphics/SVG/1.1/DTD/svg11.dtd">
<!-- Generated by graphviz version 13.0.0 (0)
 -->
<!-- Title: DescriptorManager.cpp Pages: 1 -->
<svg width="572pt" height="98pt"
 viewBox="0.00 0.00 572.00 98.00" xmlns="http://www.w3.org/2000/svg" xmlns:xlink="http://www.w3.org/1999/xlink">
<g id="graph0" class="graph" transform="scale(1 1) rotate(0) translate(4 94.25)">
<title>DescriptorManager.cpp</title>
<!-- Node1 -->
<g id="Node000001" class="node">
<title>Node1</title>
<g id="a_Node000001"><a xlink:title=" ">
<polygon fill="#999999" stroke="#666666" points="322.38,-90.25 193.88,-90.25 193.88,-69.5 322.38,-69.5 322.38,-90.25"/>
<text xml:space="preserve" text-anchor="middle" x="258.12" y="-76.75" font-family="Helvetica,sans-Serif" font-size="10.00">DescriptorManager.cpp</text>
</a>
</g>
</g>
<!-- Node2 -->
<g id="Node000002" class="node">
<title>Node2</title>
<g id="a_Node000002"><a xlink:title=" ">
<polygon fill="#e0e0e0" stroke="#999999" points="120.25,-33.5 0,-33.5 0,0 120.25,0 120.25,-33.5"/>
<text xml:space="preserve" text-anchor="start" x="8" y="-20" font-family="Helvetica,sans-Serif" font-size="10.00">../include/Managers</text>
<text xml:space="preserve" text-anchor="middle" x="60.12" y="-7.25" font-family="Helvetica,sans-Serif" font-size="10.00">/DescriptorManager.h</text>
</a>
</g>
</g>
<!-- Node1&#45;&gt;Node2 -->
<g id="edge1_Node000001_Node000002" class="edge">
<title>Node1&#45;&gt;Node2</title>
<g id="a_edge1_Node000001_Node000002"><a xlink:title=" ">
<path fill="none" stroke="#63b8ff" d="M226.31,-69.05C198.69,-60.53 157.86,-47.92 123.59,-37.34"/>
<polygon fill="#63b8ff" stroke="#63b8ff" points="124.75,-34.04 114.16,-34.43 122.68,-40.73 124.75,-34.04"/>
</a>
</g>
</g>
<!-- Node3 -->
<g id="Node000003" class="node">
<title>Node3</title>
<g id="a_Node000003"><a xlink:title=" ">
<polygon fill="#e0e0e0" stroke="#999999" points="249.75,-33.5 138.5,-33.5 138.5,0 249.75,0 249.75,-33.5"/>
<text xml:space="preserve" text-anchor="start" x="146.5" y="-20" font-family="Helvetica,sans-Serif" font-size="10.00">../include/Managers</text>
<text xml:space="preserve" text-anchor="middle" x="194.12" y="-7.25" font-family="Helvetica,sans-Serif" font-size="10.00">/BufferManager.h</text>
</a>
</g>
</g>
<!-- Node1&#45;&gt;Node3 -->
<g id="edge2_Node000001_Node000003" class="edge">
<title>Node1&#45;&gt;Node3</title>
<g id="a_edge2_Node000001_Node000003"><a xlink:title=" ">
<path fill="none" stroke="#63b8ff" d="M247.84,-69.05C240.11,-61.67 229.18,-51.23 219.2,-41.7"/>
<polygon fill="#63b8ff" stroke="#63b8ff" points="221.87,-39.41 212.22,-35.03 217.03,-44.47 221.87,-39.41"/>
</a>
</g>
</g>
<!-- Node4 -->
<g id="Node000004" class="node">
<title>Node4</title>
<g id="a_Node000004"><a xlink:title=" ">
<polygon fill="#e0e0e0" stroke="#999999" points="378.75,-33.5 267.5,-33.5 267.5,0 378.75,0 378.75,-33.5"/>
<text xml:space="preserve" text-anchor="start" x="275.5" y="-20" font-family="Helvetica,sans-Serif" font-size="10.00">../include/Managers</text>
<text xml:space="preserve" text-anchor="middle" x="323.12" y="-7.25" font-family="Helvetica,sans-Serif" font-size="10.00">/Buffer.h</text>
</a>
</g>
</g>
<!-- Node1&#45;&gt;Node4 -->
<g id="edge3_Node000001_Node000004" class="edge">
<title>Node1&#45;&gt;Node4</title>
<g id="a_edge3_Node000001_Node000004"><a xlink:title=" ">
<path fill="none" stroke="#63b8ff" d="M268.57,-69.05C276.42,-61.67 287.52,-51.23 297.66,-41.7"/>
<polygon fill="#63b8ff" stroke="#63b8ff" points="299.87,-44.42 304.76,-35.02 295.08,-39.32 299.87,-44.42"/>
</a>
</g>
</g>
<!-- Node5 -->
<g id="Node000005" class="node">
<title>Node5</title>
<g id="a_Node000005"><a xlink:title=" ">
<polygon fill="#e0e0e0" stroke="#999999" points="563.5,-33.5 396.75,-33.5 396.75,0 563.5,0 563.5,-33.5"/>
<text xml:space="preserve" text-anchor="start" x="404.75" y="-20" font-family="Helvetica,sans-Serif" font-size="10.00">../include/System_Components</text>
<text xml:space="preserve" text-anchor="middle" x="480.12" y="-7.25" font-family="Helvetica,sans-Serif" font-size="10.00">/Camera.h</text>
</a>
</g>
</g>
<!-- Node1&#45;&gt;Node5 -->
<g id="edge4_Node000001_Node000005" class="edge">
<title>Node1&#45;&gt;Node5</title>
<g id="a_edge4_Node000001_Node000005"><a xlink:title=" ">
<path fill="none" stroke="#63b8ff" d="M293.79,-69.05C325.16,-60.42 371.73,-47.6 410.46,-36.93"/>
<polygon fill="#63b8ff" stroke="#63b8ff" points="410.99,-40.42 419.7,-34.39 409.13,-33.67 410.99,-40.42"/>
</a>
</g>
</g>
</g>
</svg>
