<?xml version="1.0" encoding="UTF-8" standalone="no"?>
<!DOCTYPE svg PUBLIC "-//W3C//DTD SVG 1.1//EN"
 "http://www.w3.org/Graphics/SVG/1.1/DTD/svg11.dtd">
<!-- Generated by graphviz version 13.0.0 (0)
 -->
<!-- Title: GraphicsPipeline.cpp Pages: 1 -->
<svg width="1029pt" height="98pt"
 viewBox="0.00 0.00 1029.00 98.00" xmlns="http://www.w3.org/2000/svg" xmlns:xlink="http://www.w3.org/1999/xlink">
<g id="graph0" class="graph" transform="scale(1 1) rotate(0) translate(4 94.25)">
<title>GraphicsPipeline.cpp</title>
<!-- Node1 -->
<g id="Node000001" class="node">
<title>Node1</title>
<g id="a_Node000001"><a xlink:title=" ">
<polygon fill="#999999" stroke="#666666" points="546.75,-90.25 428.75,-90.25 428.75,-69.5 546.75,-69.5 546.75,-90.25"/>
<text xml:space="preserve" text-anchor="middle" x="487.75" y="-76.75" font-family="Helvetica,sans-Serif" font-size="10.00">GraphicsPipeline.cpp</text>
</a>
</g>
</g>
<!-- Node2 -->
<g id="Node000002" class="node">
<title>Node2</title>
<g id="a_Node000002"><a xlink:title=" ">
<polygon fill="#e0e0e0" stroke="#999999" points="131.5,-33.5 0,-33.5 0,0 131.5,0 131.5,-33.5"/>
<text xml:space="preserve" text-anchor="start" x="8" y="-20" font-family="Helvetica,sans-Serif" font-size="10.00">../include/Core/Graphics</text>
<text xml:space="preserve" text-anchor="middle" x="65.75" y="-7.25" font-family="Helvetica,sans-Serif" font-size="10.00">Pipeline.h</text>
</a>
</g>
</g>
<!-- Node1&#45;&gt;Node2 -->
<g id="edge1_Node000001_Node000002" class="edge">
<title>Node1&#45;&gt;Node2</title>
<g id="a_edge1_Node000001_Node000002"><a xlink:title=" ">
<path fill="none" stroke="#63b8ff" d="M428.42,-72.6C361.36,-65.19 248.67,-51.74 143.05,-34"/>
<polygon fill="#63b8ff" stroke="#63b8ff" points="143.8,-30.57 133.36,-32.35 142.63,-37.47 143.8,-30.57"/>
</a>
</g>
</g>
<!-- Node3 -->
<g id="Node000003" class="node">
<title>Node3</title>
<g id="a_Node000003"><a xlink:title=" ">
<polygon fill="#e0e0e0" stroke="#999999" points="260.38,-33.5 149.12,-33.5 149.12,0 260.38,0 260.38,-33.5"/>
<text xml:space="preserve" text-anchor="start" x="157.12" y="-20" font-family="Helvetica,sans-Serif" font-size="10.00">../include/Managers</text>
<text xml:space="preserve" text-anchor="middle" x="204.75" y="-7.25" font-family="Helvetica,sans-Serif" font-size="10.00">/BufferManager.h</text>
</a>
</g>
</g>
<!-- Node1&#45;&gt;Node3 -->
<g id="edge2_Node000001_Node000003" class="edge">
<title>Node1&#45;&gt;Node3</title>
<g id="a_edge2_Node000001_Node000003"><a xlink:title=" ">
<path fill="none" stroke="#63b8ff" d="M437.62,-69.04C395.68,-60.68 333.98,-48.11 271.77,-34.15"/>
<polygon fill="#63b8ff" stroke="#63b8ff" points="272.57,-30.74 262.05,-31.95 271.03,-37.57 272.57,-30.74"/>
</a>
</g>
</g>
<!-- Node4 -->
<g id="Node000004" class="node">
<title>Node4</title>
<g id="a_Node000004"><a xlink:title=" ">
<polygon fill="#e0e0e0" stroke="#999999" points="389.38,-33.5 278.12,-33.5 278.12,0 389.38,0 389.38,-33.5"/>
<text xml:space="preserve" text-anchor="start" x="286.12" y="-20" font-family="Helvetica,sans-Serif" font-size="10.00">../include/Managers</text>
<text xml:space="preserve" text-anchor="middle" x="333.75" y="-7.25" font-family="Helvetica,sans-Serif" font-size="10.00">/Buffer.h</text>
</a>
</g>
</g>
<!-- Node1&#45;&gt;Node4 -->
<g id="edge3_Node000001_Node000004" class="edge">
<title>Node1&#45;&gt;Node4</title>
<g id="a_edge3_Node000001_Node000004"><a xlink:title=" ">
<path fill="none" stroke="#63b8ff" d="M463.01,-69.05C442.08,-60.75 411.41,-48.58 385.2,-38.17"/>
<polygon fill="#63b8ff" stroke="#63b8ff" points="386.65,-34.98 376.06,-34.54 384.06,-41.49 386.65,-34.98"/>
</a>
</g>
</g>
<!-- Node5 -->
<g id="Node000005" class="node">
<title>Node5</title>
<g id="a_Node000005"><a xlink:title=" ">
<polygon fill="#e0e0e0" stroke="#999999" points="568.12,-27.12 407.38,-27.12 407.38,-6.38 568.12,-6.38 568.12,-27.12"/>
<text xml:space="preserve" text-anchor="middle" x="487.75" y="-13.62" font-family="Helvetica,sans-Serif" font-size="10.00">../include/Utils/MemoryUtils.h</text>
</a>
</g>
</g>
<!-- Node1&#45;&gt;Node5 -->
<g id="edge4_Node000001_Node000005" class="edge">
<title>Node1&#45;&gt;Node5</title>
<g id="a_edge4_Node000001_Node000005"><a xlink:title=" ">
<path fill="none" stroke="#63b8ff" d="M487.75,-69.05C487.75,-60.9 487.75,-49.01 487.75,-38.73"/>
<polygon fill="#63b8ff" stroke="#63b8ff" points="491.25,-38.86 487.75,-28.86 484.25,-38.86 491.25,-38.86"/>
</a>
</g>
</g>
<!-- Node6 -->
<g id="Node000006" class="node">
<title>Node6</title>
<g id="a_Node000006"><a xlink:title=" ">
<polygon fill="#e0e0e0" stroke="#999999" points="706.88,-33.5 586.62,-33.5 586.62,0 706.88,0 706.88,-33.5"/>
<text xml:space="preserve" text-anchor="start" x="594.62" y="-20" font-family="Helvetica,sans-Serif" font-size="10.00">../include/Managers</text>
<text xml:space="preserve" text-anchor="middle" x="646.75" y="-7.25" font-family="Helvetica,sans-Serif" font-size="10.00">/DescriptorManager.h</text>
</a>
</g>
</g>
<!-- Node1&#45;&gt;Node6 -->
<g id="edge5_Node000001_Node000006" class="edge">
<title>Node1&#45;&gt;Node6</title>
<g id="a_edge5_Node000001_Node000006"><a xlink:title=" ">
<path fill="none" stroke="#63b8ff" d="M513.3,-69.05C535,-60.71 566.85,-48.47 593.99,-38.03"/>
<polygon fill="#63b8ff" stroke="#63b8ff" points="595.03,-41.38 603.11,-34.53 592.52,-34.85 595.03,-41.38"/>
</a>
</g>
</g>
<!-- Node7 -->
<g id="Node000007" class="node">
<title>Node7</title>
<g id="a_Node000007"><a xlink:title=" ">
<polygon fill="#e0e0e0" stroke="#999999" points="836.38,-33.5 725.12,-33.5 725.12,0 836.38,0 836.38,-33.5"/>
<text xml:space="preserve" text-anchor="start" x="733.12" y="-20" font-family="Helvetica,sans-Serif" font-size="10.00">../include/Managers</text>
<text xml:space="preserve" text-anchor="middle" x="780.75" y="-7.25" font-family="Helvetica,sans-Serif" font-size="10.00">/MeshManager.h</text>
</a>
</g>
</g>
<!-- Node1&#45;&gt;Node7 -->
<g id="edge6_Node000001_Node000007" class="edge">
<title>Node1&#45;&gt;Node7</title>
<g id="a_edge6_Node000001_Node000007"><a xlink:title=" ">
<path fill="none" stroke="#63b8ff" d="M540.4,-69.04C584.26,-60.7 648.61,-48.13 713.86,-33.87"/>
<polygon fill="#63b8ff" stroke="#63b8ff" points="714.27,-37.36 723.29,-31.8 712.77,-30.52 714.27,-37.36"/>
</a>
</g>
</g>
<!-- Node8 -->
<g id="Node000008" class="node">
<title>Node8</title>
<g id="a_Node000008"><a xlink:title=" ">
<polygon fill="#e0e0e0" stroke="#999999" points="1021.12,-33.5 854.38,-33.5 854.38,0 1021.12,0 1021.12,-33.5"/>
<text xml:space="preserve" text-anchor="start" x="862.38" y="-20" font-family="Helvetica,sans-Serif" font-size="10.00">../include/System_Components</text>
<text xml:space="preserve" text-anchor="middle" x="937.75" y="-7.25" font-family="Helvetica,sans-Serif" font-size="10.00">/GUI.h</text>
</a>
</g>
</g>
<!-- Node1&#45;&gt;Node8 -->
<g id="edge7_Node000001_Node000008" class="edge">
<title>Node1&#45;&gt;Node8</title>
<g id="a_edge7_Node000001_Node000008"><a xlink:title=" ">
<path fill="none" stroke="#63b8ff" d="M547.09,-72.15C615.83,-64.19 732.78,-50.09 842.74,-33.91"/>
<polygon fill="#63b8ff" stroke="#63b8ff" points="843.16,-37.39 852.54,-32.46 842.14,-30.46 843.16,-37.39"/>
</a>
</g>
</g>
</g>
</svg>
