<?xml version="1.0" encoding="UTF-8" standalone="no"?>
<!DOCTYPE svg PUBLIC "-//W3C//DTD SVG 1.1//EN"
 "http://www.w3.org/Graphics/SVG/1.1/DTD/svg11.dtd">
<!-- Generated by graphviz version 13.0.0 (0)
 -->
<!-- Title: GUI.cpp Pages: 1 -->
<svg width="324pt" height="98pt"
 viewBox="0.00 0.00 324.00 98.00" xmlns="http://www.w3.org/2000/svg" xmlns:xlink="http://www.w3.org/1999/xlink">
<g id="graph0" class="graph" transform="scale(1 1) rotate(0) translate(4 94.25)">
<title>GUI.cpp</title>
<!-- Node1 -->
<g id="Node000001" class="node">
<title>Node1</title>
<g id="a_Node000001"><a xlink:title=" ">
<polygon fill="#999999" stroke="#666666" points="193.5,-90.25 139.25,-90.25 139.25,-69.5 193.5,-69.5 193.5,-90.25"/>
<text xml:space="preserve" text-anchor="middle" x="166.38" y="-76.75" font-family="Helvetica,sans-Serif" font-size="10.00">GUI.cpp</text>
</a>
</g>
</g>
<!-- Node2 -->
<g id="Node000002" class="node">
<title>Node2</title>
<g id="a_Node000002"><a xlink:title=" ">
<polygon fill="#e0e0e0" stroke="#999999" points="166.75,-33.5 0,-33.5 0,0 166.75,0 166.75,-33.5"/>
<text xml:space="preserve" text-anchor="start" x="8" y="-20" font-family="Helvetica,sans-Serif" font-size="10.00">../include/System_Components</text>
<text xml:space="preserve" text-anchor="middle" x="83.38" y="-7.25" font-family="Helvetica,sans-Serif" font-size="10.00">/GUI.h</text>
</a>
</g>
</g>
<!-- Node1&#45;&gt;Node2 -->
<g id="edge1_Node000001_Node000002" class="edge">
<title>Node1&#45;&gt;Node2</title>
<g id="a_edge1_Node000001_Node000002"><a xlink:title=" ">
<path fill="none" stroke="#63b8ff" d="M153.04,-69.05C142.61,-61.38 127.7,-50.39 114.34,-40.56"/>
<polygon fill="#63b8ff" stroke="#63b8ff" points="116.77,-37.99 106.64,-34.88 112.62,-43.63 116.77,-37.99"/>
</a>
</g>
</g>
<!-- Node3 -->
<g id="Node000003" class="node">
<title>Node3</title>
<g id="a_Node000003"><a xlink:title=" ">
<polygon fill="#e0e0e0" stroke="#999999" points="316.12,-33.5 184.62,-33.5 184.62,0 316.12,0 316.12,-33.5"/>
<text xml:space="preserve" text-anchor="start" x="192.62" y="-20" font-family="Helvetica,sans-Serif" font-size="10.00">../include/Core/Graphics</text>
<text xml:space="preserve" text-anchor="middle" x="250.38" y="-7.25" font-family="Helvetica,sans-Serif" font-size="10.00">Pipeline.h</text>
</a>
</g>
</g>
<!-- Node1&#45;&gt;Node3 -->
<g id="edge2_Node000001_Node000003" class="edge">
<title>Node1&#45;&gt;Node3</title>
<g id="a_edge2_Node000001_Node000003"><a xlink:title=" ">
<path fill="none" stroke="#63b8ff" d="M179.87,-69.05C190.42,-61.38 205.52,-50.39 219.03,-40.56"/>
<polygon fill="#63b8ff" stroke="#63b8ff" points="220.81,-43.59 226.84,-34.88 216.7,-37.93 220.81,-43.59"/>
</a>
</g>
</g>
</g>
</svg>
