<?xml version="1.0" encoding="UTF-8" standalone="no"?>
<!DOCTYPE svg PUBLIC "-//W3C//DTD SVG 1.1//EN"
 "http://www.w3.org/Graphics/SVG/1.1/DTD/svg11.dtd">
<!-- Generated by graphviz version 13.0.0 (0)
 -->
<!-- Title: helperFuncs.h Pages: 1 -->
<svg width="250pt" height="313pt"
 viewBox="0.00 0.00 250.00 313.00" xmlns="http://www.w3.org/2000/svg" xmlns:xlink="http://www.w3.org/1999/xlink">
<g id="graph0" class="graph" transform="scale(1 1) rotate(0) translate(4 308.5)">
<title>helperFuncs.h</title>
<!-- Node1 -->
<g id="Node000001" class="node">
<title>Node1</title>
<g id="a_Node000001"><a xlink:title=" ">
<polygon fill="#999999" stroke="#666666" points="129,-304.5 45.5,-304.5 45.5,-283.75 129,-283.75 129,-304.5"/>
<text xml:space="preserve" text-anchor="middle" x="87.25" y="-291" font-family="Helvetica,sans-Serif" font-size="10.00">helperFuncs.h</text>
</a>
</g>
</g>
<!-- Node2 -->
<g id="Node000002" class="node">
<title>Node2</title>
<g id="a_Node000002"><a xlink:href="DebugManager_8h.html" target="_top" xlink:title=" ">
<polygon fill="white" stroke="#666666" points="98.5,-247.75 0,-247.75 0,-227 98.5,-227 98.5,-247.75"/>
<text xml:space="preserve" text-anchor="middle" x="49.25" y="-234.25" font-family="Helvetica,sans-Serif" font-size="10.00">DebugManager.h</text>
</a>
</g>
</g>
<!-- Node1&#45;&gt;Node2 -->
<g id="edge1_Node000001_Node000002" class="edge">
<title>Node1&#45;&gt;Node2</title>
<g id="a_edge1_Node000001_Node000002"><a xlink:title=" ">
<path fill="none" stroke="#63b8ff" d="M73.9,-273.89C67.84,-265.16 60.94,-255.22 55.98,-248.08"/>
<polygon fill="#63b8ff" stroke="#63b8ff" points="71.02,-275.87 79.59,-282.09 76.77,-271.88 71.02,-275.87"/>
</a>
</g>
</g>
<!-- Node3 -->
<g id="Node000003" class="node">
<title>Node3</title>
<g id="a_Node000003"><a xlink:href="VulkanInstance_8h.html" target="_top" xlink:title=" ">
<polygon fill="white" stroke="#666666" points="136.5,-191 38,-191 38,-170.25 136.5,-170.25 136.5,-191"/>
<text xml:space="preserve" text-anchor="middle" x="87.25" y="-177.5" font-family="Helvetica,sans-Serif" font-size="10.00">VulkanInstance.h</text>
</a>
</g>
</g>
<!-- Node1&#45;&gt;Node3 -->
<g id="edge9_Node000001_Node000003" class="edge">
<title>Node1&#45;&gt;Node3</title>
<g id="a_edge9_Node000001_Node000003"><a xlink:title=" ">
<path fill="none" stroke="#63b8ff" d="M98.13,-273.28C101.8,-265.55 105.41,-256.47 107.25,-247.75 109.15,-238.73 109.15,-236.02 107.25,-227 104.52,-214.03 97.84,-200.24 92.94,-191.32"/>
<polygon fill="#63b8ff" stroke="#63b8ff" points="95.07,-271.59 93.63,-282.09 101.3,-274.77 95.07,-271.59"/>
</a>
</g>
</g>
<!-- Node2&#45;&gt;Node3 -->
<g id="edge2_Node000002_Node000003" class="edge">
<title>Node2&#45;&gt;Node3</title>
<g id="a_edge2_Node000002_Node000003"><a xlink:title=" ">
<path fill="none" stroke="#63b8ff" d="M62.6,-217.14C68.66,-208.41 75.56,-198.47 80.52,-191.33"/>
<polygon fill="#63b8ff" stroke="#63b8ff" points="59.73,-215.13 56.91,-225.34 65.48,-219.12 59.73,-215.13"/>
</a>
</g>
</g>
<!-- Node4 -->
<g id="Node000004" class="node">
<title>Node4</title>
<g id="a_Node000004"><a xlink:href="Swapchain_8h.html" target="_top" xlink:title=" ">
<polygon fill="white" stroke="#666666" points="92,-77.5 14.5,-77.5 14.5,-56.75 92,-56.75 92,-77.5"/>
<text xml:space="preserve" text-anchor="middle" x="53.25" y="-64" font-family="Helvetica,sans-Serif" font-size="10.00">Swapchain.h</text>
</a>
</g>
</g>
<!-- Node3&#45;&gt;Node4 -->
<g id="edge3_Node000003_Node000004" class="edge">
<title>Node3&#45;&gt;Node4</title>
<g id="a_edge3_Node000003_Node000004"><a xlink:title=" ">
<path fill="none" stroke="#63b8ff" d="M78.05,-159.76C74.66,-151.93 70.98,-142.78 68.25,-134.25 61.93,-114.52 57.21,-90.66 54.88,-77.68"/>
<polygon fill="#63b8ff" stroke="#63b8ff" points="74.77,-161 82.06,-168.69 81.16,-158.13 74.77,-161"/>
</a>
</g>
</g>
<!-- Node6 -->
<g id="Node000006" class="node">
<title>Node6</title>
<g id="a_Node000006"><a xlink:href="VulkanDevices_8h.html" target="_top" xlink:title=" ">
<polygon fill="white" stroke="#666666" points="173.38,-134.25 77.12,-134.25 77.12,-113.5 173.38,-113.5 173.38,-134.25"/>
<text xml:space="preserve" text-anchor="middle" x="125.25" y="-120.75" font-family="Helvetica,sans-Serif" font-size="10.00">VulkanDevices.h</text>
</a>
</g>
</g>
<!-- Node3&#45;&gt;Node6 -->
<g id="edge5_Node000003_Node000006" class="edge">
<title>Node3&#45;&gt;Node6</title>
<g id="a_edge5_Node000003_Node000006"><a xlink:title=" ">
<path fill="none" stroke="#63b8ff" d="M100.6,-160.39C106.66,-151.66 113.56,-141.72 118.52,-134.58"/>
<polygon fill="#63b8ff" stroke="#63b8ff" points="97.73,-158.38 94.91,-168.59 103.48,-162.37 97.73,-158.38"/>
</a>
</g>
</g>
<!-- Node5 -->
<g id="Node000005" class="node">
<title>Node5</title>
<g id="a_Node000005"><a xlink:href="GraphicsPipeline_8h.html" target="_top" xlink:title=" ">
<polygon fill="white" stroke="#666666" points="139.62,-20.75 32.88,-20.75 32.88,0 139.62,0 139.62,-20.75"/>
<text xml:space="preserve" text-anchor="middle" x="86.25" y="-7.25" font-family="Helvetica,sans-Serif" font-size="10.00">GraphicsPipeline.h</text>
</a>
</g>
</g>
<!-- Node4&#45;&gt;Node5 -->
<g id="edge4_Node000004_Node000005" class="edge">
<title>Node4&#45;&gt;Node5</title>
<g id="a_edge4_Node000004_Node000005"><a xlink:title=" ">
<path fill="none" stroke="#63b8ff" d="M65.02,-46.6C70.23,-37.95 76.14,-28.14 80.4,-21.08"/>
<polygon fill="#63b8ff" stroke="#63b8ff" points="62.1,-44.67 59.93,-55.04 68.09,-48.28 62.1,-44.67"/>
</a>
</g>
</g>
<!-- Node6&#45;&gt;Node4 -->
<g id="edge8_Node000006_Node000004" class="edge">
<title>Node6&#45;&gt;Node4</title>
<g id="a_edge8_Node000006_Node000004"><a xlink:title=" ">
<path fill="none" stroke="#63b8ff" d="M103.27,-106.16C91.07,-96.88 76.32,-85.67 66.01,-77.83"/>
<polygon fill="#63b8ff" stroke="#63b8ff" points="101.09,-108.9 111.17,-112.17 105.33,-103.33 101.09,-108.9"/>
</a>
</g>
</g>
<!-- Node6&#45;&gt;Node5 -->
<g id="edge6_Node000006_Node000005" class="edge">
<title>Node6&#45;&gt;Node5</title>
<g id="a_edge6_Node000006_Node000005"><a xlink:title=" ">
<path fill="none" stroke="#63b8ff" d="M118.17,-102.63C109.75,-78.56 96.03,-39.34 89.68,-21.18"/>
<polygon fill="#63b8ff" stroke="#63b8ff" points="114.82,-103.66 121.43,-111.94 121.43,-101.35 114.82,-103.66"/>
</a>
</g>
</g>
<!-- Node7 -->
<g id="Node000007" class="node">
<title>Node7</title>
<g id="a_Node000007"><a xlink:href="MeshManager_8h.html" target="_top" xlink:title=" ">
<polygon fill="white" stroke="#666666" points="241.88,-77.5 148.62,-77.5 148.62,-56.75 241.88,-56.75 241.88,-77.5"/>
<text xml:space="preserve" text-anchor="middle" x="195.25" y="-64" font-family="Helvetica,sans-Serif" font-size="10.00">MeshManager.h</text>
</a>
</g>
</g>
<!-- Node6&#45;&gt;Node7 -->
<g id="edge7_Node000006_Node000007" class="edge">
<title>Node6&#45;&gt;Node7</title>
<g id="a_edge7_Node000006_Node000007"><a xlink:title=" ">
<path fill="none" stroke="#63b8ff" d="M146.62,-106.16C158.48,-96.88 172.82,-85.67 182.84,-77.83"/>
<polygon fill="#63b8ff" stroke="#63b8ff" points="144.68,-103.24 138.96,-112.15 148.99,-108.75 144.68,-103.24"/>
</a>
</g>
</g>
</g>
</svg>
