<?xml version="1.0" encoding="UTF-8" standalone="no"?>
<!DOCTYPE svg PUBLIC "-//W3C//DTD SVG 1.1//EN"
 "http://www.w3.org/Graphics/SVG/1.1/DTD/svg11.dtd">
<!-- Generated by graphviz version 13.0.0 (0)
 -->
<!-- Title: Image.cpp Pages: 1 -->
<svg width="725pt" height="98pt"
 viewBox="0.00 0.00 725.00 98.00" xmlns="http://www.w3.org/2000/svg" xmlns:xlink="http://www.w3.org/1999/xlink">
<g id="graph0" class="graph" transform="scale(1 1) rotate(0) translate(4 94.25)">
<title>Image.cpp</title>
<!-- Node1 -->
<g id="Node000001" class="node">
<title>Node1</title>
<g id="a_Node000001"><a xlink:title=" ">
<polygon fill="#999999" stroke="#666666" points="367.12,-90.25 300.12,-90.25 300.12,-69.5 367.12,-69.5 367.12,-90.25"/>
<text xml:space="preserve" text-anchor="middle" x="333.62" y="-76.75" font-family="Helvetica,sans-Serif" font-size="10.00">Image.cpp</text>
</a>
</g>
</g>
<!-- Node2 -->
<g id="Node000002" class="node">
<title>Node2</title>
<g id="a_Node000002"><a xlink:title=" ">
<polygon fill="#e0e0e0" stroke="#999999" points="111.25,-33.5 0,-33.5 0,0 111.25,0 111.25,-33.5"/>
<text xml:space="preserve" text-anchor="start" x="8" y="-20" font-family="Helvetica,sans-Serif" font-size="10.00">../include/Managers</text>
<text xml:space="preserve" text-anchor="middle" x="55.62" y="-7.25" font-family="Helvetica,sans-Serif" font-size="10.00">/Image.h</text>
</a>
</g>
</g>
<!-- Node1&#45;&gt;Node2 -->
<g id="edge1_Node000001_Node000002" class="edge">
<title>Node1&#45;&gt;Node2</title>
<g id="a_edge1_Node000001_Node000002"><a xlink:title=" ">
<path fill="none" stroke="#63b8ff" d="M299.82,-72.06C259.73,-63.9 190.59,-49.59 122.38,-34.1"/>
<polygon fill="#63b8ff" stroke="#63b8ff" points="123.45,-30.75 112.92,-31.94 121.89,-37.57 123.45,-30.75"/>
</a>
</g>
</g>
<!-- Node3 -->
<g id="Node000003" class="node">
<title>Node3</title>
<g id="a_Node000003"><a xlink:title=" ">
<polygon fill="#e0e0e0" stroke="#999999" points="240.25,-33.5 129,-33.5 129,0 240.25,0 240.25,-33.5"/>
<text xml:space="preserve" text-anchor="start" x="137" y="-20" font-family="Helvetica,sans-Serif" font-size="10.00">../include/Managers</text>
<text xml:space="preserve" text-anchor="middle" x="184.62" y="-7.25" font-family="Helvetica,sans-Serif" font-size="10.00">/BufferManager.h</text>
</a>
</g>
</g>
<!-- Node1&#45;&gt;Node3 -->
<g id="edge2_Node000001_Node000003" class="edge">
<title>Node1&#45;&gt;Node3</title>
<g id="a_edge2_Node000001_Node000003"><a xlink:title=" ">
<path fill="none" stroke="#63b8ff" d="M309.69,-69.05C289.53,-60.79 260.03,-48.68 234.74,-38.31"/>
<polygon fill="#63b8ff" stroke="#63b8ff" points="236.18,-35.12 225.6,-34.56 233.52,-41.59 236.18,-35.12"/>
</a>
</g>
</g>
<!-- Node4 -->
<g id="Node000004" class="node">
<title>Node4</title>
<g id="a_Node000004"><a xlink:title=" ">
<polygon fill="#e0e0e0" stroke="#999999" points="408.75,-27.12 258.5,-27.12 258.5,-6.38 408.75,-6.38 408.75,-27.12"/>
<text xml:space="preserve" text-anchor="middle" x="333.62" y="-13.62" font-family="Helvetica,sans-Serif" font-size="10.00">../include/Core/Swapchain.h</text>
</a>
</g>
</g>
<!-- Node1&#45;&gt;Node4 -->
<g id="edge3_Node000001_Node000004" class="edge">
<title>Node1&#45;&gt;Node4</title>
<g id="a_edge3_Node000001_Node000004"><a xlink:title=" ">
<path fill="none" stroke="#63b8ff" d="M333.62,-69.05C333.62,-60.9 333.62,-49.01 333.62,-38.73"/>
<polygon fill="#63b8ff" stroke="#63b8ff" points="337.13,-38.86 333.63,-28.86 330.13,-38.86 337.13,-38.86"/>
</a>
</g>
</g>
<!-- Node5 -->
<g id="Node000005" class="node">
<title>Node5</title>
<g id="a_Node000005"><a xlink:title=" ">
<polygon fill="#e0e0e0" stroke="#999999" points="588,-27.12 427.25,-27.12 427.25,-6.38 588,-6.38 588,-27.12"/>
<text xml:space="preserve" text-anchor="middle" x="507.62" y="-13.62" font-family="Helvetica,sans-Serif" font-size="10.00">../include/Utils/MemoryUtils.h</text>
</a>
</g>
</g>
<!-- Node1&#45;&gt;Node5 -->
<g id="edge4_Node000001_Node000005" class="edge">
<title>Node1&#45;&gt;Node5</title>
<g id="a_edge4_Node000001_Node000005"><a xlink:title=" ">
<path fill="none" stroke="#63b8ff" d="M361.58,-69.05C390.75,-58.81 436.7,-42.67 469.25,-31.23"/>
<polygon fill="#63b8ff" stroke="#63b8ff" points="470.04,-34.66 478.31,-28.05 467.72,-28.06 470.04,-34.66"/>
</a>
</g>
</g>
<!-- Node6 -->
<g id="Node000006" class="node">
<title>Node6</title>
<g id="a_Node000006"><a xlink:title=" ">
<polygon fill="#e0e0e0" stroke="#999999" points="717.25,-33.5 606,-33.5 606,0 717.25,0 717.25,-33.5"/>
<text xml:space="preserve" text-anchor="start" x="614" y="-20" font-family="Helvetica,sans-Serif" font-size="10.00">../include/Managers</text>
<text xml:space="preserve" text-anchor="middle" x="661.62" y="-7.25" font-family="Helvetica,sans-Serif" font-size="10.00">/Buffer.h</text>
</a>
</g>
</g>
<!-- Node1&#45;&gt;Node6 -->
<g id="edge5_Node000001_Node000006" class="edge">
<title>Node1&#45;&gt;Node6</title>
<g id="a_edge5_Node000001_Node000006"><a xlink:title=" ">
<path fill="none" stroke="#63b8ff" d="M367.39,-73.79C415.52,-66.38 506.84,-51.73 594.44,-33.87"/>
<polygon fill="#63b8ff" stroke="#63b8ff" points="595.09,-37.31 604.18,-31.87 593.68,-30.46 595.09,-37.31"/>
</a>
</g>
</g>
</g>
</svg>
