<?xml version="1.0" encoding="UTF-8" standalone="no"?>
<!DOCTYPE svg PUBLIC "-//W3C//DTD SVG 1.1//EN"
 "http://www.w3.org/Graphics/SVG/1.1/DTD/svg11.dtd">
<!-- Generated by graphviz version 13.0.0 (0)
 -->
<!-- Title: ImageManager.h Pages: 1 -->
<svg width="2762pt" height="212pt"
 viewBox="0.00 0.00 2762.00 212.00" xmlns="http://www.w3.org/2000/svg" xmlns:xlink="http://www.w3.org/1999/xlink">
<g id="graph0" class="graph" transform="scale(1 1) rotate(0) translate(4 207.75)">
<title>ImageManager.h</title>
<!-- Node1 -->
<g id="Node000001" class="node">
<title>Node1</title>
<g id="a_Node000001"><a xlink:title=" ">
<polygon fill="#999999" stroke="#666666" points="1709.25,-203.75 1611.5,-203.75 1611.5,-183 1709.25,-183 1709.25,-203.75"/>
<text xml:space="preserve" text-anchor="middle" x="1660.38" y="-190.25" font-family="Helvetica,sans-Serif" font-size="10.00">ImageManager.h</text>
</a>
</g>
</g>
<!-- Node2 -->
<g id="Node000002" class="node">
<title>Node2</title>
<g id="a_Node000002"><a xlink:href="config_8h.html" target="_top" xlink:title=" ">
<polygon fill="white" stroke="#666666" points="1660.25,-90.25 1580.5,-90.25 1580.5,-69.5 1660.25,-69.5 1660.25,-90.25"/>
<text xml:space="preserve" text-anchor="middle" x="1620.38" y="-76.75" font-family="Helvetica,sans-Serif" font-size="10.00">Utils/config.h</text>
</a>
</g>
</g>
<!-- Node1&#45;&gt;Node2 -->
<g id="edge1_Node000001_Node000002" class="edge">
<title>Node1&#45;&gt;Node2</title>
<g id="a_edge1_Node000001_Node000002"><a xlink:title=" ">
<path fill="none" stroke="#63b8ff" d="M1655.43,-182.82C1650.87,-173.76 1644.1,-159.69 1639.38,-147 1633.81,-132.07 1628.89,-114.75 1625.45,-101.58"/>
<polygon fill="#63b8ff" stroke="#63b8ff" points="1628.85,-100.74 1623,-91.91 1622.06,-102.46 1628.85,-100.74"/>
</a>
</g>
</g>
<!-- Node33 -->
<g id="Node000033" class="node">
<title>Node33</title>
<g id="a_Node000033"><a xlink:href="Image_8h.html" target="_top" xlink:title=" ">
<polygon fill="white" stroke="#666666" points="1754.75,-147 1648,-147 1648,-126.25 1754.75,-126.25 1754.75,-147"/>
<text xml:space="preserve" text-anchor="middle" x="1701.38" y="-133.5" font-family="Helvetica,sans-Serif" font-size="10.00">Managers/Image.h</text>
</a>
</g>
</g>
<!-- Node1&#45;&gt;Node33 -->
<g id="edge32_Node000001_Node000033" class="edge">
<title>Node1&#45;&gt;Node33</title>
<g id="a_edge32_Node000001_Node000033"><a xlink:title=" ">
<path fill="none" stroke="#63b8ff" d="M1667.7,-182.59C1673.13,-175.35 1680.68,-165.26 1687.26,-156.47"/>
<polygon fill="#63b8ff" stroke="#63b8ff" points="1690.01,-158.64 1693.2,-148.54 1684.41,-154.45 1690.01,-158.64"/>
</a>
</g>
</g>
<!-- Node3 -->
<g id="Node000003" class="node">
<title>Node3</title>
<g id="a_Node000003"><a xlink:title=" ">
<polygon fill="#e0e0e0" stroke="#999999" points="82.75,-27.12 0,-27.12 0,-6.38 82.75,-6.38 82.75,-27.12"/>
<text xml:space="preserve" text-anchor="middle" x="41.38" y="-13.62" font-family="Helvetica,sans-Serif" font-size="10.00">GLFW/glfw3.h</text>
</a>
</g>
</g>
<!-- Node2&#45;&gt;Node3 -->
<g id="edge2_Node000002_Node000003" class="edge">
<title>Node2&#45;&gt;Node3</title>
<g id="a_edge2_Node000002_Node000003"><a xlink:title=" ">
<path fill="none" stroke="#63b8ff" d="M1580.22,-79.18C1369.5,-80.53 389.89,-83.95 91.38,-33.5 87.23,-32.8 82.95,-31.84 78.72,-30.73"/>
<polygon fill="#63b8ff" stroke="#63b8ff" points="79.8,-27.4 69.22,-27.98 77.85,-34.13 79.8,-27.4"/>
</a>
</g>
</g>
<!-- Node4 -->
<g id="Node000004" class="node">
<title>Node4</title>
<g id="a_Node000004"><a xlink:title=" ">
<polygon fill="#e0e0e0" stroke="#999999" points="178.12,-27.12 100.62,-27.12 100.62,-6.38 178.12,-6.38 178.12,-27.12"/>
<text xml:space="preserve" text-anchor="middle" x="139.38" y="-13.62" font-family="Helvetica,sans-Serif" font-size="10.00">glm/glm.hpp</text>
</a>
</g>
</g>
<!-- Node2&#45;&gt;Node4 -->
<g id="edge3_Node000002_Node000004" class="edge">
<title>Node2&#45;&gt;Node4</title>
<g id="a_edge3_Node000002_Node000004"><a xlink:title=" ">
<path fill="none" stroke="#63b8ff" d="M1580.09,-79.15C1377.14,-80.28 465.6,-82.51 187.38,-33.5 183.5,-32.82 179.51,-31.89 175.56,-30.83"/>
<polygon fill="#63b8ff" stroke="#63b8ff" points="176.72,-27.52 166.14,-27.99 174.7,-34.22 176.72,-27.52"/>
</a>
</g>
</g>
<!-- Node5 -->
<g id="Node000005" class="node">
<title>Node5</title>
<g id="a_Node000005"><a xlink:title=" ">
<polygon fill="#e0e0e0" stroke="#999999" points="358.5,-27.12 196.25,-27.12 196.25,-6.38 358.5,-6.38 358.5,-27.12"/>
<text xml:space="preserve" text-anchor="middle" x="277.38" y="-13.62" font-family="Helvetica,sans-Serif" font-size="10.00">glm/gtc/matrix_transform.hpp</text>
</a>
</g>
</g>
<!-- Node2&#45;&gt;Node5 -->
<g id="edge4_Node000002_Node000005" class="edge">
<title>Node2&#45;&gt;Node5</title>
<g id="a_edge4_Node000002_Node000005"><a xlink:title=" ">
<path fill="none" stroke="#63b8ff" d="M1580.11,-78.16C1393.4,-74.73 610.79,-59.08 367.38,-33.5 357.63,-32.48 347.35,-31.03 337.36,-29.42"/>
<polygon fill="#63b8ff" stroke="#63b8ff" points="338.18,-26.01 327.74,-27.81 337.02,-32.92 338.18,-26.01"/>
</a>
</g>
</g>
<!-- Node6 -->
<g id="Node000006" class="node">
<title>Node6</title>
<g id="a_Node000006"><a xlink:title=" ">
<polygon fill="#e0e0e0" stroke="#999999" points="548,-27.12 376.75,-27.12 376.75,-6.38 548,-6.38 548,-27.12"/>
<text xml:space="preserve" text-anchor="middle" x="462.38" y="-13.62" font-family="Helvetica,sans-Serif" font-size="10.00">glm/gtx/matrix_decompose.hpp</text>
</a>
</g>
</g>
<!-- Node2&#45;&gt;Node6 -->
<g id="edge5_Node000002_Node000006" class="edge">
<title>Node2&#45;&gt;Node6</title>
<g id="a_edge5_Node000002_Node000006"><a xlink:title=" ">
<path fill="none" stroke="#63b8ff" d="M1580.14,-78.94C1439.1,-78.81 954.03,-75.13 556.38,-33.5 546.22,-32.44 535.51,-30.97 525.08,-29.36"/>
<polygon fill="#63b8ff" stroke="#63b8ff" points="525.86,-25.94 515.43,-27.81 524.75,-32.85 525.86,-25.94"/>
</a>
</g>
</g>
<!-- Node7 -->
<g id="Node000007" class="node">
<title>Node7</title>
<g id="a_Node000007"><a xlink:title=" ">
<polygon fill="#e0e0e0" stroke="#999999" points="679.12,-33.5 565.62,-33.5 565.62,0 679.12,0 679.12,-33.5"/>
<text xml:space="preserve" text-anchor="start" x="573.62" y="-20" font-family="Helvetica,sans-Serif" font-size="10.00">../src/External/imgui</text>
<text xml:space="preserve" text-anchor="middle" x="622.38" y="-7.25" font-family="Helvetica,sans-Serif" font-size="10.00">/imgui.h</text>
</a>
</g>
</g>
<!-- Node2&#45;&gt;Node7 -->
<g id="edge6_Node000002_Node000007" class="edge">
<title>Node2&#45;&gt;Node7</title>
<g id="a_edge6_Node000002_Node000007"><a xlink:title=" ">
<path fill="none" stroke="#63b8ff" d="M1580.2,-77.91C1428.05,-74.12 886.33,-59.19 690.76,-33.61"/>
<polygon fill="#63b8ff" stroke="#63b8ff" points="691.37,-30.16 680.99,-32.27 690.42,-37.09 691.37,-30.16"/>
</a>
</g>
</g>
<!-- Node8 -->
<g id="Node000008" class="node">
<title>Node8</title>
<g id="a_Node000008"><a xlink:title=" ">
<polygon fill="#e0e0e0" stroke="#999999" points="817.5,-33.5 697.25,-33.5 697.25,0 817.5,0 817.5,-33.5"/>
<text xml:space="preserve" text-anchor="start" x="705.25" y="-20" font-family="Helvetica,sans-Serif" font-size="10.00">../src/External/imgui</text>
<text xml:space="preserve" text-anchor="middle" x="757.38" y="-7.25" font-family="Helvetica,sans-Serif" font-size="10.00">/imgui_impl_vulkan.h</text>
</a>
</g>
</g>
<!-- Node2&#45;&gt;Node8 -->
<g id="edge7_Node000002_Node000008" class="edge">
<title>Node2&#45;&gt;Node8</title>
<g id="a_edge7_Node000002_Node000008"><a xlink:title=" ">
<path fill="none" stroke="#63b8ff" d="M1580.07,-78.95C1464.49,-78.64 1121.96,-74.24 829.12,-33.74"/>
<polygon fill="#63b8ff" stroke="#63b8ff" points="829.74,-30.29 819.35,-32.37 828.77,-37.22 829.74,-30.29"/>
</a>
</g>
</g>
<!-- Node9 -->
<g id="Node000009" class="node">
<title>Node9</title>
<g id="a_Node000009"><a xlink:title=" ">
<polygon fill="#e0e0e0" stroke="#999999" points="949.12,-33.5 835.62,-33.5 835.62,0 949.12,0 949.12,-33.5"/>
<text xml:space="preserve" text-anchor="start" x="843.62" y="-20" font-family="Helvetica,sans-Serif" font-size="10.00">../src/External/imgui</text>
<text xml:space="preserve" text-anchor="middle" x="892.38" y="-7.25" font-family="Helvetica,sans-Serif" font-size="10.00">/imgui_impl_glfw.h</text>
</a>
</g>
</g>
<!-- Node2&#45;&gt;Node9 -->
<g id="edge8_Node000002_Node000009" class="edge">
<title>Node2&#45;&gt;Node9</title>
<g id="a_edge8_Node000002_Node000009"><a xlink:title=" ">
<path fill="none" stroke="#63b8ff" d="M1580.2,-78.44C1478.16,-76.83 1200.69,-69.38 960.54,-33.66"/>
<polygon fill="#63b8ff" stroke="#63b8ff" points="961.41,-30.25 950.99,-32.22 960.36,-37.17 961.41,-30.25"/>
</a>
</g>
</g>
<!-- Node10 -->
<g id="Node000010" class="node">
<title>Node10</title>
<g id="a_Node000010"><a xlink:title=" ">
<polygon fill="#e0e0e0" stroke="#999999" points="1015.12,-27.12 967.62,-27.12 967.62,-6.38 1015.12,-6.38 1015.12,-27.12"/>
<text xml:space="preserve" text-anchor="middle" x="991.38" y="-13.62" font-family="Helvetica,sans-Serif" font-size="10.00">thread</text>
</a>
</g>
</g>
<!-- Node2&#45;&gt;Node10 -->
<g id="edge9_Node000002_Node000010" class="edge">
<title>Node2&#45;&gt;Node10</title>
<g id="a_edge9_Node000002_Node000010"><a xlink:title=" ">
<path fill="none" stroke="#63b8ff" d="M1580.17,-77.74C1464.06,-74.15 1129.78,-61.61 1024.38,-33.5 1022.56,-33.02 1020.73,-32.43 1018.9,-31.78"/>
<polygon fill="#63b8ff" stroke="#63b8ff" points="1020.7,-28.74 1010.12,-28.09 1017.98,-35.19 1020.7,-28.74"/>
</a>
</g>
</g>
<!-- Node11 -->
<g id="Node000011" class="node">
<title>Node11</title>
<g id="a_Node000011"><a xlink:title=" ">
<polygon fill="#e0e0e0" stroke="#999999" points="1079.38,-27.12 1033.38,-27.12 1033.38,-6.38 1079.38,-6.38 1079.38,-27.12"/>
<text xml:space="preserve" text-anchor="middle" x="1056.38" y="-13.62" font-family="Helvetica,sans-Serif" font-size="10.00">queue</text>
</a>
</g>
</g>
<!-- Node2&#45;&gt;Node11 -->
<g id="edge10_Node000002_Node000011" class="edge">
<title>Node2&#45;&gt;Node11</title>
<g id="a_edge10_Node000002_Node000011"><a xlink:title=" ">
<path fill="none" stroke="#63b8ff" d="M1580.3,-77.38C1473,-73.07 1181.03,-59.27 1088.38,-33.5 1086.77,-33.05 1085.15,-32.53 1083.54,-31.94"/>
<polygon fill="#63b8ff" stroke="#63b8ff" points="1085.14,-28.82 1074.57,-28.07 1082.36,-35.25 1085.14,-28.82"/>
</a>
</g>
</g>
<!-- Node12 -->
<g id="Node000012" class="node">
<title>Node12</title>
<g id="a_Node000012"><a xlink:title=" ">
<polygon fill="#e0e0e0" stroke="#999999" points="1203.38,-27.12 1097.38,-27.12 1097.38,-6.38 1203.38,-6.38 1203.38,-27.12"/>
<text xml:space="preserve" text-anchor="middle" x="1150.38" y="-13.62" font-family="Helvetica,sans-Serif" font-size="10.00">condition_variable</text>
</a>
</g>
</g>
<!-- Node2&#45;&gt;Node12 -->
<g id="edge11_Node000002_Node000012" class="edge">
<title>Node2&#45;&gt;Node12</title>
<g id="a_edge11_Node000002_Node000012"><a xlink:title=" ">
<path fill="none" stroke="#63b8ff" d="M1580.15,-76.25C1506.66,-71.05 1345.96,-57.78 1212.38,-33.5 1207.18,-32.56 1201.79,-31.42 1196.43,-30.2"/>
<polygon fill="#63b8ff" stroke="#63b8ff" points="1197.61,-26.88 1187.07,-27.95 1195.98,-33.69 1197.61,-26.88"/>
</a>
</g>
</g>
<!-- Node13 -->
<g id="Node000013" class="node">
<title>Node13</title>
<g id="a_Node000013"><a xlink:title=" ">
<polygon fill="#e0e0e0" stroke="#999999" points="1271.25,-27.12 1221.5,-27.12 1221.5,-6.38 1271.25,-6.38 1271.25,-27.12"/>
<text xml:space="preserve" text-anchor="middle" x="1246.38" y="-13.62" font-family="Helvetica,sans-Serif" font-size="10.00">atomic</text>
</a>
</g>
</g>
<!-- Node2&#45;&gt;Node13 -->
<g id="edge12_Node000002_Node000013" class="edge">
<title>Node2&#45;&gt;Node13</title>
<g id="a_edge12_Node000002_Node000013"><a xlink:title=" ">
<path fill="none" stroke="#63b8ff" d="M1580.05,-77.41C1515.55,-74.19 1385.73,-64.16 1280.38,-33.5 1278.77,-33.03 1277.15,-32.5 1275.53,-31.93"/>
<polygon fill="#63b8ff" stroke="#63b8ff" points="1277.03,-28.76 1266.45,-28.2 1274.37,-35.23 1277.03,-28.76"/>
</a>
</g>
</g>
<!-- Node14 -->
<g id="Node000014" class="node">
<title>Node14</title>
<g id="a_Node000014"><a xlink:title=" ">
<polygon fill="#e0e0e0" stroke="#999999" points="1349.12,-27.12 1289.62,-27.12 1289.62,-6.38 1349.12,-6.38 1349.12,-27.12"/>
<text xml:space="preserve" text-anchor="middle" x="1319.38" y="-13.62" font-family="Helvetica,sans-Serif" font-size="10.00">iostream</text>
</a>
</g>
</g>
<!-- Node2&#45;&gt;Node14 -->
<g id="edge13_Node000002_Node000014" class="edge">
<title>Node2&#45;&gt;Node14</title>
<g id="a_edge13_Node000002_Node000014"><a xlink:title=" ">
<path fill="none" stroke="#63b8ff" d="M1580.28,-74.61C1528.36,-68.49 1435.4,-55.45 1358.38,-33.5 1356.27,-32.9 1354.12,-32.22 1351.97,-31.5"/>
<polygon fill="#63b8ff" stroke="#63b8ff" points="1353.38,-28.29 1342.78,-28.1 1350.95,-34.85 1353.38,-28.29"/>
</a>
</g>
</g>
<!-- Node15 -->
<g id="Node000015" class="node">
<title>Node15</title>
<g id="a_Node000015"><a xlink:title=" ">
<polygon fill="#e0e0e0" stroke="#999999" points="1431.38,-27.12 1367.38,-27.12 1367.38,-6.38 1431.38,-6.38 1431.38,-27.12"/>
<text xml:space="preserve" text-anchor="middle" x="1399.38" y="-13.62" font-family="Helvetica,sans-Serif" font-size="10.00">stdexcept</text>
</a>
</g>
</g>
<!-- Node2&#45;&gt;Node15 -->
<g id="edge14_Node000002_Node000015" class="edge">
<title>Node2&#45;&gt;Node15</title>
<g id="a_edge14_Node000002_Node000015"><a xlink:title=" ">
<path fill="none" stroke="#63b8ff" d="M1580.31,-70.23C1543.58,-61.95 1487.84,-48.54 1440.38,-33.5 1438.3,-32.84 1436.18,-32.14 1434.06,-31.4"/>
<polygon fill="#63b8ff" stroke="#63b8ff" points="1435.5,-28.2 1424.91,-28.08 1433.11,-34.78 1435.5,-28.2"/>
</a>
</g>
</g>
<!-- Node16 -->
<g id="Node000016" class="node">
<title>Node16</title>
<g id="a_Node000016"><a xlink:title=" ">
<polygon fill="#e0e0e0" stroke="#999999" points="1513,-27.12 1449.75,-27.12 1449.75,-6.38 1513,-6.38 1513,-27.12"/>
<text xml:space="preserve" text-anchor="middle" x="1481.38" y="-13.62" font-family="Helvetica,sans-Serif" font-size="10.00">algorithm</text>
</a>
</g>
</g>
<!-- Node2&#45;&gt;Node16 -->
<g id="edge15_Node000002_Node000016" class="edge">
<title>Node2&#45;&gt;Node16</title>
<g id="a_edge15_Node000002_Node000016"><a xlink:title=" ">
<path fill="none" stroke="#63b8ff" d="M1598.04,-69.05C1575.35,-59.07 1539.94,-43.5 1514.08,-32.13"/>
<polygon fill="#63b8ff" stroke="#63b8ff" points="1515.6,-28.98 1505.04,-28.16 1512.78,-35.39 1515.6,-28.98"/>
</a>
</g>
</g>
<!-- Node17 -->
<g id="Node000017" class="node">
<title>Node17</title>
<g id="a_Node000017"><a xlink:title=" ">
<polygon fill="#e0e0e0" stroke="#999999" points="1577.75,-27.12 1531,-27.12 1531,-6.38 1577.75,-6.38 1577.75,-27.12"/>
<text xml:space="preserve" text-anchor="middle" x="1554.38" y="-13.62" font-family="Helvetica,sans-Serif" font-size="10.00">vector</text>
</a>
</g>
</g>
<!-- Node2&#45;&gt;Node17 -->
<g id="edge16_Node000002_Node000017" class="edge">
<title>Node2&#45;&gt;Node17</title>
<g id="a_edge16_Node000002_Node000017"><a xlink:title=" ">
<path fill="none" stroke="#63b8ff" d="M1609.77,-69.05C1599.9,-59.91 1584.96,-46.08 1573.09,-35.08"/>
<polygon fill="#63b8ff" stroke="#63b8ff" points="1575.56,-32.6 1565.85,-28.37 1570.8,-37.74 1575.56,-32.6"/>
</a>
</g>
</g>
<!-- Node18 -->
<g id="Node000018" class="node">
<title>Node18</title>
<g id="a_Node000018"><a xlink:title=" ">
<polygon fill="#e0e0e0" stroke="#999999" points="1644.88,-27.12 1595.88,-27.12 1595.88,-6.38 1644.88,-6.38 1644.88,-27.12"/>
<text xml:space="preserve" text-anchor="middle" x="1620.38" y="-13.62" font-family="Helvetica,sans-Serif" font-size="10.00">cstring</text>
</a>
</g>
</g>
<!-- Node2&#45;&gt;Node18 -->
<g id="edge17_Node000002_Node000018" class="edge">
<title>Node2&#45;&gt;Node18</title>
<g id="a_edge17_Node000002_Node000018"><a xlink:title=" ">
<path fill="none" stroke="#63b8ff" d="M1620.38,-69.05C1620.38,-60.9 1620.38,-49.01 1620.38,-38.73"/>
<polygon fill="#63b8ff" stroke="#63b8ff" points="1623.88,-38.86 1620.38,-28.86 1616.88,-38.86 1623.88,-38.86"/>
</a>
</g>
</g>
<!-- Node19 -->
<g id="Node000019" class="node">
<title>Node19</title>
<g id="a_Node000019"><a xlink:title=" ">
<polygon fill="#e0e0e0" stroke="#999999" points="1711.5,-27.12 1663.25,-27.12 1663.25,-6.38 1711.5,-6.38 1711.5,-27.12"/>
<text xml:space="preserve" text-anchor="middle" x="1687.38" y="-13.62" font-family="Helvetica,sans-Serif" font-size="10.00">cstdlib</text>
</a>
</g>
</g>
<!-- Node2&#45;&gt;Node19 -->
<g id="edge18_Node000002_Node000019" class="edge">
<title>Node2&#45;&gt;Node19</title>
<g id="a_edge18_Node000002_Node000019"><a xlink:title=" ">
<path fill="none" stroke="#63b8ff" d="M1631.14,-69.05C1641.16,-59.91 1656.32,-46.08 1668.38,-35.08"/>
<polygon fill="#63b8ff" stroke="#63b8ff" points="1670.71,-37.69 1675.74,-28.36 1665.99,-32.52 1670.71,-37.69"/>
</a>
</g>
</g>
<!-- Node20 -->
<g id="Node000020" class="node">
<title>Node20</title>
<g id="a_Node000020"><a xlink:title=" ">
<polygon fill="#e0e0e0" stroke="#999999" points="1778.88,-27.12 1729.88,-27.12 1729.88,-6.38 1778.88,-6.38 1778.88,-27.12"/>
<text xml:space="preserve" text-anchor="middle" x="1754.38" y="-13.62" font-family="Helvetica,sans-Serif" font-size="10.00">cstdint</text>
</a>
</g>
</g>
<!-- Node2&#45;&gt;Node20 -->
<g id="edge19_Node000002_Node000020" class="edge">
<title>Node2&#45;&gt;Node20</title>
<g id="a_edge19_Node000002_Node000020"><a xlink:title=" ">
<path fill="none" stroke="#63b8ff" d="M1642.25,-69.01C1662.52,-59.85 1693.51,-45.82 1720.38,-33.5 1721.15,-33.14 1721.94,-32.78 1722.73,-32.42"/>
<polygon fill="#63b8ff" stroke="#63b8ff" points="1724.18,-35.61 1731.79,-28.24 1721.25,-29.25 1724.18,-35.61"/>
</a>
</g>
</g>
<!-- Node21 -->
<g id="Node000021" class="node">
<title>Node21</title>
<g id="a_Node000021"><a xlink:title=" ">
<polygon fill="#e0e0e0" stroke="#999999" points="1840.25,-27.12 1796.5,-27.12 1796.5,-6.38 1840.25,-6.38 1840.25,-27.12"/>
<text xml:space="preserve" text-anchor="middle" x="1818.38" y="-13.62" font-family="Helvetica,sans-Serif" font-size="10.00">limits</text>
</a>
</g>
</g>
<!-- Node2&#45;&gt;Node21 -->
<g id="edge20_Node000002_Node000021" class="edge">
<title>Node2&#45;&gt;Node21</title>
<g id="a_edge20_Node000002_Node000021"><a xlink:title=" ">
<path fill="none" stroke="#63b8ff" d="M1660.59,-70.39C1694.88,-62.58 1745.18,-49.75 1787.38,-33.5 1788.34,-33.13 1789.31,-32.74 1790.28,-32.33"/>
<polygon fill="#63b8ff" stroke="#63b8ff" points="1791.65,-35.56 1799.25,-28.18 1788.71,-29.2 1791.65,-35.56"/>
</a>
</g>
</g>
<!-- Node22 -->
<g id="Node000022" class="node">
<title>Node22</title>
<g id="a_Node000022"><a xlink:title=" ">
<polygon fill="#e0e0e0" stroke="#999999" points="1914.25,-27.12 1858.5,-27.12 1858.5,-6.38 1914.25,-6.38 1914.25,-27.12"/>
<text xml:space="preserve" text-anchor="middle" x="1886.38" y="-13.62" font-family="Helvetica,sans-Serif" font-size="10.00">optional</text>
</a>
</g>
</g>
<!-- Node2&#45;&gt;Node22 -->
<g id="edge21_Node000002_Node000022" class="edge">
<title>Node2&#45;&gt;Node22</title>
<g id="a_edge21_Node000002_Node000022"><a xlink:title=" ">
<path fill="none" stroke="#63b8ff" d="M1660.71,-73.47C1706.95,-66.67 1784.69,-53.44 1849.38,-33.5 1851.21,-32.93 1853.08,-32.31 1854.95,-31.64"/>
<polygon fill="#63b8ff" stroke="#63b8ff" points="1856.07,-34.96 1864.11,-28.06 1853.53,-28.44 1856.07,-34.96"/>
</a>
</g>
</g>
<!-- Node23 -->
<g id="Node000023" class="node">
<title>Node23</title>
<g id="a_Node000023"><a xlink:title=" ">
<polygon fill="#e0e0e0" stroke="#999999" points="1962.88,-27.12 1931.88,-27.12 1931.88,-6.38 1962.88,-6.38 1962.88,-27.12"/>
<text xml:space="preserve" text-anchor="middle" x="1947.38" y="-13.62" font-family="Helvetica,sans-Serif" font-size="10.00">set</text>
</a>
</g>
</g>
<!-- Node2&#45;&gt;Node23 -->
<g id="edge22_Node000002_Node000023" class="edge">
<title>Node2&#45;&gt;Node23</title>
<g id="a_edge22_Node000002_Node000023"><a xlink:title=" ">
<path fill="none" stroke="#63b8ff" d="M1660.49,-78.3C1719.84,-76.26 1833.68,-67.74 1923.38,-33.5 1923.86,-33.31 1924.35,-33.12 1924.84,-32.91"/>
<polygon fill="#63b8ff" stroke="#63b8ff" points="1926.3,-36.1 1933.4,-28.23 1922.95,-29.96 1926.3,-36.1"/>
</a>
</g>
</g>
<!-- Node24 -->
<g id="Node000024" class="node">
<title>Node24</title>
<g id="a_Node000024"><a xlink:title=" ">
<polygon fill="#e0e0e0" stroke="#999999" points="2022.12,-27.12 1980.62,-27.12 1980.62,-6.38 2022.12,-6.38 2022.12,-27.12"/>
<text xml:space="preserve" text-anchor="middle" x="2001.38" y="-13.62" font-family="Helvetica,sans-Serif" font-size="10.00">array</text>
</a>
</g>
</g>
<!-- Node2&#45;&gt;Node24 -->
<g id="edge23_Node000002_Node000024" class="edge">
<title>Node2&#45;&gt;Node24</title>
<g id="a_edge23_Node000002_Node000024"><a xlink:title=" ">
<path fill="none" stroke="#63b8ff" d="M1660.58,-78.27C1726.85,-76.26 1862.54,-67.88 1971.38,-33.5 1972.55,-33.13 1973.74,-32.71 1974.93,-32.26"/>
<polygon fill="#63b8ff" stroke="#63b8ff" points="1976.31,-35.48 1983.95,-28.14 1973.4,-29.11 1976.31,-35.48"/>
</a>
</g>
</g>
<!-- Node25 -->
<g id="Node000025" class="node">
<title>Node25</title>
<g id="a_Node000025"><a xlink:title=" ">
<polygon fill="#e0e0e0" stroke="#999999" points="2084.25,-27.12 2040.5,-27.12 2040.5,-6.38 2084.25,-6.38 2084.25,-27.12"/>
<text xml:space="preserve" text-anchor="middle" x="2062.38" y="-13.62" font-family="Helvetica,sans-Serif" font-size="10.00">string</text>
</a>
</g>
</g>
<!-- Node2&#45;&gt;Node25 -->
<g id="edge24_Node000002_Node000025" class="edge">
<title>Node2&#45;&gt;Node25</title>
<g id="a_edge24_Node000002_Node000025"><a xlink:title=" ">
<path fill="none" stroke="#63b8ff" d="M1660.7,-79.17C1735.44,-78.69 1899.81,-72.76 2031.38,-33.5 2032.74,-33.09 2034.12,-32.63 2035.5,-32.11"/>
<polygon fill="#63b8ff" stroke="#63b8ff" points="2036.67,-35.42 2044.39,-28.17 2033.83,-29.02 2036.67,-35.42"/>
</a>
</g>
</g>
<!-- Node26 -->
<g id="Node000026" class="node">
<title>Node26</title>
<g id="a_Node000026"><a xlink:title=" ">
<polygon fill="#e0e0e0" stroke="#999999" points="2166.75,-27.12 2102,-27.12 2102,-6.38 2166.75,-6.38 2166.75,-27.12"/>
<text xml:space="preserve" text-anchor="middle" x="2134.38" y="-13.62" font-family="Helvetica,sans-Serif" font-size="10.00">functional</text>
</a>
</g>
</g>
<!-- Node2&#45;&gt;Node26 -->
<g id="edge25_Node000002_Node000026" class="edge">
<title>Node2&#45;&gt;Node26</title>
<g id="a_edge25_Node000002_Node000026"><a xlink:title=" ">
<path fill="none" stroke="#63b8ff" d="M1660.52,-78.67C1742.83,-77.45 1936.19,-70.5 2093.38,-33.5 2096.01,-32.88 2098.69,-32.13 2101.37,-31.3"/>
<polygon fill="#63b8ff" stroke="#63b8ff" points="2102.44,-34.63 2110.74,-28.04 2100.14,-28.02 2102.44,-34.63"/>
</a>
</g>
</g>
<!-- Node27 -->
<g id="Node000027" class="node">
<title>Node27</title>
<g id="a_Node000027"><a xlink:title=" ">
<polygon fill="#e0e0e0" stroke="#999999" points="2277.62,-27.12 2185.12,-27.12 2185.12,-6.38 2277.62,-6.38 2277.62,-27.12"/>
<text xml:space="preserve" text-anchor="middle" x="2231.38" y="-13.62" font-family="Helvetica,sans-Serif" font-size="10.00">unordered_map</text>
</a>
</g>
</g>
<!-- Node2&#45;&gt;Node27 -->
<g id="edge26_Node000002_Node000027" class="edge">
<title>Node2&#45;&gt;Node27</title>
<g id="a_edge26_Node000002_Node000027"><a xlink:title=" ">
<path fill="none" stroke="#63b8ff" d="M1660.42,-78.24C1752.21,-76.2 1984.6,-67.8 2175.38,-33.5 2180.02,-32.67 2184.83,-31.61 2189.59,-30.45"/>
<polygon fill="#63b8ff" stroke="#63b8ff" points="2190.27,-33.89 2199.06,-27.96 2188.5,-27.12 2190.27,-33.89"/>
</a>
</g>
</g>
<!-- Node28 -->
<g id="Node000028" class="node">
<title>Node28</title>
<g id="a_Node000028"><a xlink:title=" ">
<polygon fill="#e0e0e0" stroke="#999999" points="2340.62,-27.12 2296.12,-27.12 2296.12,-6.38 2340.62,-6.38 2340.62,-27.12"/>
<text xml:space="preserve" text-anchor="middle" x="2318.38" y="-13.62" font-family="Helvetica,sans-Serif" font-size="10.00">utility</text>
</a>
</g>
</g>
<!-- Node2&#45;&gt;Node28 -->
<g id="edge27_Node000002_Node000028" class="edge">
<title>Node2&#45;&gt;Node28</title>
<g id="a_edge27_Node000002_Node000028"><a xlink:title=" ">
<path fill="none" stroke="#63b8ff" d="M1660.34,-78.18C1785.28,-75.68 2167.18,-65.55 2286.38,-33.5 2287.98,-33.07 2289.6,-32.55 2291.22,-31.98"/>
<polygon fill="#63b8ff" stroke="#63b8ff" points="2292.38,-35.29 2300.19,-28.13 2289.62,-28.85 2292.38,-35.29"/>
</a>
</g>
</g>
<!-- Node29 -->
<g id="Node000029" class="node">
<title>Node29</title>
<g id="a_Node000029"><a xlink:title=" ">
<polygon fill="#e0e0e0" stroke="#999999" points="2407.88,-27.12 2358.88,-27.12 2358.88,-6.38 2407.88,-6.38 2407.88,-27.12"/>
<text xml:space="preserve" text-anchor="middle" x="2383.38" y="-13.62" font-family="Helvetica,sans-Serif" font-size="10.00">chrono</text>
</a>
</g>
</g>
<!-- Node2&#45;&gt;Node29 -->
<g id="edge28_Node000002_Node000029" class="edge">
<title>Node2&#45;&gt;Node29</title>
<g id="a_edge28_Node000002_Node000029"><a xlink:title=" ">
<path fill="none" stroke="#63b8ff" d="M1660.31,-78.33C1792.86,-76.22 2217.23,-66.96 2349.38,-33.5 2351.24,-33.03 2353.13,-32.45 2355.01,-31.81"/>
<polygon fill="#63b8ff" stroke="#63b8ff" points="2356.14,-35.13 2364.08,-28.12 2353.5,-28.65 2356.14,-35.13"/>
</a>
</g>
</g>
<!-- Node30 -->
<g id="Node000030" class="node">
<title>Node30</title>
<g id="a_Node000030"><a xlink:title=" ">
<polygon fill="#e0e0e0" stroke="#999999" points="2480.5,-27.12 2426.25,-27.12 2426.25,-6.38 2480.5,-6.38 2480.5,-27.12"/>
<text xml:space="preserve" text-anchor="middle" x="2453.38" y="-13.62" font-family="Helvetica,sans-Serif" font-size="10.00">fstream</text>
</a>
</g>
</g>
<!-- Node2&#45;&gt;Node30 -->
<g id="edge29_Node000002_Node000030" class="edge">
<title>Node2&#45;&gt;Node30</title>
<g id="a_edge29_Node000002_Node000030"><a xlink:title=" ">
<path fill="none" stroke="#63b8ff" d="M1660.47,-78.41C1800.96,-76.5 2270.3,-67.65 2416.38,-33.5 2418.66,-32.97 2420.98,-32.3 2423.29,-31.55"/>
<polygon fill="#63b8ff" stroke="#63b8ff" points="2424.3,-34.91 2432.42,-28.09 2421.82,-28.36 2424.3,-34.91"/>
</a>
</g>
</g>
<!-- Node31 -->
<g id="Node000031" class="node">
<title>Node31</title>
<g id="a_Node000031"><a xlink:title=" ">
<polygon fill="#e0e0e0" stroke="#999999" points="2544,-27.12 2498.75,-27.12 2498.75,-6.38 2544,-6.38 2544,-27.12"/>
<text xml:space="preserve" text-anchor="middle" x="2521.38" y="-13.62" font-family="Helvetica,sans-Serif" font-size="10.00">future</text>
</a>
</g>
</g>
<!-- Node2&#45;&gt;Node31 -->
<g id="edge30_Node000002_Node000031" class="edge">
<title>Node2&#45;&gt;Node31</title>
<g id="a_edge30_Node000002_Node000031"><a xlink:title=" ">
<path fill="none" stroke="#63b8ff" d="M1660.57,-78.92C1809.53,-78.74 2329.65,-75.1 2489.38,-33.5 2490.99,-33.08 2492.61,-32.58 2494.23,-32.01"/>
<polygon fill="#63b8ff" stroke="#63b8ff" points="2495.38,-35.32 2503.21,-28.18 2492.64,-28.88 2495.38,-35.32"/>
</a>
</g>
</g>
<!-- Node32 -->
<g id="Node000032" class="node">
<title>Node32</title>
<g id="a_Node000032"><a xlink:title=" ">
<polygon fill="#e0e0e0" stroke="#999999" points="2616.88,-27.12 2561.88,-27.12 2561.88,-6.38 2616.88,-6.38 2616.88,-27.12"/>
<text xml:space="preserve" text-anchor="middle" x="2589.38" y="-13.62" font-family="Helvetica,sans-Serif" font-size="10.00">unistd.h</text>
</a>
</g>
</g>
<!-- Node2&#45;&gt;Node32 -->
<g id="edge31_Node000002_Node000032" class="edge">
<title>Node2&#45;&gt;Node32</title>
<g id="a_edge31_Node000002_Node000032"><a xlink:title=" ">
<path fill="none" stroke="#63b8ff" d="M1660.5,-78.85C1816.13,-78.47 2379.8,-74.23 2553.38,-33.5 2555.52,-33 2557.69,-32.37 2559.85,-31.66"/>
<polygon fill="#63b8ff" stroke="#63b8ff" points="2560.91,-35 2568.98,-28.13 2558.39,-28.48 2560.91,-35"/>
</a>
</g>
</g>
<!-- Node33&#45;&gt;Node2 -->
<g id="edge33_Node000033_Node000002" class="edge">
<title>Node33&#45;&gt;Node2</title>
<g id="a_edge33_Node000033_Node000002"><a xlink:title=" ">
<path fill="none" stroke="#63b8ff" d="M1686.89,-125.84C1675.03,-117.82 1658,-106.31 1644.14,-96.94"/>
<polygon fill="#63b8ff" stroke="#63b8ff" points="1646.23,-94.13 1635.98,-91.43 1642.31,-99.93 1646.23,-94.13"/>
</a>
</g>
</g>
<!-- Node34 -->
<g id="Node000034" class="node">
<title>Node34</title>
<g id="a_Node000034"><a xlink:href="stb__image_8h.html" target="_top" xlink:title=" ">
<polygon fill="white" stroke="#666666" points="2719.12,-90.25 2599.62,-90.25 2599.62,-69.5 2719.12,-69.5 2719.12,-90.25"/>
<text xml:space="preserve" text-anchor="middle" x="2659.38" y="-76.75" font-family="Helvetica,sans-Serif" font-size="10.00">External/stb_image.h</text>
</a>
</g>
</g>
<!-- Node33&#45;&gt;Node34 -->
<g id="edge34_Node000033_Node000034" class="edge">
<title>Node33&#45;&gt;Node34</title>
<g id="a_edge34_Node000033_Node000034"><a xlink:title=" ">
<path fill="none" stroke="#63b8ff" d="M1754.93,-132.56C1917.25,-123.29 2403.8,-95.48 2587.81,-84.96"/>
<polygon fill="#63b8ff" stroke="#63b8ff" points="2587.93,-88.46 2597.72,-84.4 2587.53,-81.48 2587.93,-88.46"/>
</a>
</g>
</g>
<!-- Node35 -->
<g id="Node000035" class="node">
<title>Node35</title>
<g id="a_Node000035"><a xlink:title=" ">
<polygon fill="#e0e0e0" stroke="#999999" points="2683.88,-27.12 2634.88,-27.12 2634.88,-6.38 2683.88,-6.38 2683.88,-27.12"/>
<text xml:space="preserve" text-anchor="middle" x="2659.38" y="-13.62" font-family="Helvetica,sans-Serif" font-size="10.00">stdio.h</text>
</a>
</g>
</g>
<!-- Node34&#45;&gt;Node35 -->
<g id="edge35_Node000034_Node000035" class="edge">
<title>Node34&#45;&gt;Node35</title>
<g id="a_edge35_Node000034_Node000035"><a xlink:title=" ">
<path fill="none" stroke="#63b8ff" d="M2659.38,-69.05C2659.38,-60.9 2659.38,-49.01 2659.38,-38.73"/>
<polygon fill="#63b8ff" stroke="#63b8ff" points="2662.88,-38.86 2659.38,-28.86 2655.88,-38.86 2662.88,-38.86"/>
</a>
</g>
</g>
<!-- Node36 -->
<g id="Node000036" class="node">
<title>Node36</title>
<g id="a_Node000036"><a xlink:title=" ">
<polygon fill="#e0e0e0" stroke="#999999" points="2754.38,-27.12 2702.38,-27.12 2702.38,-6.38 2754.38,-6.38 2754.38,-27.12"/>
<text xml:space="preserve" text-anchor="middle" x="2728.38" y="-13.62" font-family="Helvetica,sans-Serif" font-size="10.00">stdlib.h</text>
</a>
</g>
</g>
<!-- Node34&#45;&gt;Node36 -->
<g id="edge36_Node000034_Node000036" class="edge">
<title>Node34&#45;&gt;Node36</title>
<g id="a_edge36_Node000034_Node000036"><a xlink:title=" ">
<path fill="none" stroke="#63b8ff" d="M2670.46,-69.05C2680.88,-59.82 2696.7,-45.81 2709.18,-34.76"/>
<polygon fill="#63b8ff" stroke="#63b8ff" points="2711.25,-37.6 2716.41,-28.35 2706.6,-32.36 2711.25,-37.6"/>
</a>
</g>
</g>
</g>
</svg>
