<?xml version="1.0" encoding="UTF-8" standalone="no"?>
<!DOCTYPE svg PUBLIC "-//W3C//DTD SVG 1.1//EN"
 "http://www.w3.org/Graphics/SVG/1.1/DTD/svg11.dtd">
<!-- Generated by graphviz version 13.0.0 (0)
 -->
<!-- Title: Image.h Pages: 1 -->
<svg width="218pt" height="86pt"
 viewBox="0.00 0.00 218.00 86.00" xmlns="http://www.w3.org/2000/svg" xmlns:xlink="http://www.w3.org/1999/xlink">
<g id="graph0" class="graph" transform="scale(1 1) rotate(0) translate(4 81.5)">
<title>Image.h</title>
<!-- Node1 -->
<g id="Node000001" class="node">
<title>Node1</title>
<g id="a_Node000001"><a xlink:title=" ">
<polygon fill="#999999" stroke="#666666" points="133.75,-77.5 78,-77.5 78,-56.75 133.75,-56.75 133.75,-77.5"/>
<text xml:space="preserve" text-anchor="middle" x="105.88" y="-64" font-family="Helvetica,sans-Serif" font-size="10.00">Image.h</text>
</a>
</g>
</g>
<!-- Node2 -->
<g id="Node000002" class="node">
<title>Node2</title>
<g id="a_Node000002"><a xlink:href="ImageManager_8h.html" target="_top" xlink:title=" ">
<polygon fill="white" stroke="#666666" points="97.75,-20.75 0,-20.75 0,0 97.75,0 97.75,-20.75"/>
<text xml:space="preserve" text-anchor="middle" x="48.88" y="-7.25" font-family="Helvetica,sans-Serif" font-size="10.00">ImageManager.h</text>
</a>
</g>
</g>
<!-- Node1&#45;&gt;Node2 -->
<g id="edge1_Node000001_Node000002" class="edge">
<title>Node1&#45;&gt;Node2</title>
<g id="a_edge1_Node000001_Node000002"><a xlink:title=" ">
<path fill="none" stroke="#63b8ff" d="M87.61,-48.58C78.12,-39.47 66.9,-28.68 58.98,-21.08"/>
<polygon fill="#63b8ff" stroke="#63b8ff" points="84.96,-50.89 94.59,-55.29 89.81,-45.84 84.96,-50.89"/>
</a>
</g>
</g>
<!-- Node3 -->
<g id="Node000003" class="node">
<title>Node3</title>
<g id="a_Node000003"><a xlink:href="MeshManager_8h.html" target="_top" xlink:title=" ">
<polygon fill="white" stroke="#666666" points="209.5,-20.75 116.25,-20.75 116.25,0 209.5,0 209.5,-20.75"/>
<text xml:space="preserve" text-anchor="middle" x="162.88" y="-7.25" font-family="Helvetica,sans-Serif" font-size="10.00">MeshManager.h</text>
</a>
</g>
</g>
<!-- Node1&#45;&gt;Node3 -->
<g id="edge2_Node000001_Node000003" class="edge">
<title>Node1&#45;&gt;Node3</title>
<g id="a_edge2_Node000001_Node000003"><a xlink:title=" ">
<path fill="none" stroke="#63b8ff" d="M124.14,-48.58C133.63,-39.47 144.85,-28.68 152.77,-21.08"/>
<polygon fill="#63b8ff" stroke="#63b8ff" points="121.94,-45.84 117.16,-55.29 126.79,-50.89 121.94,-45.84"/>
</a>
</g>
</g>
</g>
</svg>
