<?xml version="1.0" encoding="UTF-8" standalone="no"?>
<!DOCTYPE svg PUBLIC "-//W3C//DTD SVG 1.1//EN"
 "http://www.w3.org/Graphics/SVG/1.1/DTD/svg11.dtd">
<!-- Generated by graphviz version 13.0.0 (0)
 -->
<!-- Title: imgui_internal.h Pages: 1 -->
<svg width="525pt" height="142pt"
 viewBox="0.00 0.00 525.00 142.00" xmlns="http://www.w3.org/2000/svg" xmlns:xlink="http://www.w3.org/1999/xlink">
<g id="graph0" class="graph" transform="scale(1 1) rotate(0) translate(4 138.25)">
<title>imgui_internal.h</title>
<!-- Node1 -->
<g id="Node000001" class="node">
<title>Node1</title>
<g id="a_Node000001"><a xlink:title=" ">
<polygon fill="#999999" stroke="#666666" points="399.25,-134.25 303.75,-134.25 303.75,-113.5 399.25,-113.5 399.25,-134.25"/>
<text xml:space="preserve" text-anchor="middle" x="351.5" y="-120.75" font-family="Helvetica,sans-Serif" font-size="10.00">imgui_internal.h</text>
</a>
</g>
</g>
<!-- Node2 -->
<g id="Node000002" class="node">
<title>Node2</title>
<g id="a_Node000002"><a xlink:href="imgui_8h.html" target="_top" xlink:title=" ">
<polygon fill="white" stroke="#666666" points="239.88,-77.5 187.12,-77.5 187.12,-56.75 239.88,-56.75 239.88,-77.5"/>
<text xml:space="preserve" text-anchor="middle" x="213.5" y="-64" font-family="Helvetica,sans-Serif" font-size="10.00">imgui.h</text>
</a>
</g>
</g>
<!-- Node1&#45;&gt;Node2 -->
<g id="edge1_Node000001_Node000002" class="edge">
<title>Node1&#45;&gt;Node2</title>
<g id="a_edge1_Node000001_Node000002"><a xlink:title=" ">
<path fill="none" stroke="#63b8ff" d="M326.83,-113.09C305.05,-104.44 273.04,-91.75 248.59,-82.05"/>
<polygon fill="#63b8ff" stroke="#63b8ff" points="249.95,-78.82 239.36,-78.39 247.37,-85.33 249.95,-78.82"/>
</a>
</g>
</g>
<!-- Node9 -->
<g id="Node000009" class="node">
<title>Node9</title>
<g id="a_Node000009"><a xlink:title=" ">
<polygon fill="#e0e0e0" stroke="#999999" points="307,-77.5 258,-77.5 258,-56.75 307,-56.75 307,-77.5"/>
<text xml:space="preserve" text-anchor="middle" x="282.5" y="-64" font-family="Helvetica,sans-Serif" font-size="10.00">stdio.h</text>
</a>
</g>
</g>
<!-- Node1&#45;&gt;Node9 -->
<g id="edge8_Node000001_Node000009" class="edge">
<title>Node1&#45;&gt;Node9</title>
<g id="a_edge8_Node000001_Node000009"><a xlink:title=" ">
<path fill="none" stroke="#63b8ff" d="M339.16,-113.09C329.25,-105.22 315.11,-94 303.44,-84.74"/>
<polygon fill="#63b8ff" stroke="#63b8ff" points="305.92,-82.24 295.91,-78.77 301.57,-87.73 305.92,-82.24"/>
</a>
</g>
</g>
<!-- Node10 -->
<g id="Node000010" class="node">
<title>Node10</title>
<g id="a_Node000010"><a xlink:title=" ">
<polygon fill="#e0e0e0" stroke="#999999" points="377.5,-77.5 325.5,-77.5 325.5,-56.75 377.5,-56.75 377.5,-77.5"/>
<text xml:space="preserve" text-anchor="middle" x="351.5" y="-64" font-family="Helvetica,sans-Serif" font-size="10.00">stdlib.h</text>
</a>
</g>
</g>
<!-- Node1&#45;&gt;Node10 -->
<g id="edge9_Node000001_Node000010" class="edge">
<title>Node1&#45;&gt;Node10</title>
<g id="a_edge9_Node000001_Node000010"><a xlink:title=" ">
<path fill="none" stroke="#63b8ff" d="M351.5,-113.09C351.5,-106.47 351.5,-97.47 351.5,-89.27"/>
<polygon fill="#63b8ff" stroke="#63b8ff" points="355,-89.34 351.5,-79.34 348,-89.34 355,-89.34"/>
</a>
</g>
</g>
<!-- Node11 -->
<g id="Node000011" class="node">
<title>Node11</title>
<g id="a_Node000011"><a xlink:title=" ">
<polygon fill="#e0e0e0" stroke="#999999" points="445.75,-77.5 395.25,-77.5 395.25,-56.75 445.75,-56.75 445.75,-77.5"/>
<text xml:space="preserve" text-anchor="middle" x="420.5" y="-64" font-family="Helvetica,sans-Serif" font-size="10.00">math.h</text>
</a>
</g>
</g>
<!-- Node1&#45;&gt;Node11 -->
<g id="edge10_Node000001_Node000011" class="edge">
<title>Node1&#45;&gt;Node11</title>
<g id="a_edge10_Node000001_Node000011"><a xlink:title=" ">
<path fill="none" stroke="#63b8ff" d="M363.84,-113.09C373.75,-105.22 387.89,-94 399.56,-84.74"/>
<polygon fill="#63b8ff" stroke="#63b8ff" points="401.43,-87.73 407.09,-78.77 397.08,-82.24 401.43,-87.73"/>
</a>
</g>
</g>
<!-- Node12 -->
<g id="Node000012" class="node">
<title>Node12</title>
<g id="a_Node000012"><a xlink:title=" ">
<polygon fill="#e0e0e0" stroke="#999999" points="516.88,-77.5 464.12,-77.5 464.12,-56.75 516.88,-56.75 516.88,-77.5"/>
<text xml:space="preserve" text-anchor="middle" x="490.5" y="-64" font-family="Helvetica,sans-Serif" font-size="10.00">limits.h</text>
</a>
</g>
</g>
<!-- Node1&#45;&gt;Node12 -->
<g id="edge11_Node000001_Node000012" class="edge">
<title>Node1&#45;&gt;Node12</title>
<g id="a_edge11_Node000001_Node000012"><a xlink:title=" ">
<path fill="none" stroke="#63b8ff" d="M376.35,-113.09C398.39,-104.41 430.82,-91.63 455.48,-81.92"/>
<polygon fill="#63b8ff" stroke="#63b8ff" points="456.43,-85.3 464.46,-78.38 453.87,-78.79 456.43,-85.3"/>
</a>
</g>
</g>
<!-- Node3 -->
<g id="Node000003" class="node">
<title>Node3</title>
<g id="a_Node000003"><a xlink:href="imconfig_8h.html" target="_top" xlink:title=" ">
<polygon fill="white" stroke="#666666" points="67,-20.75 0,-20.75 0,0 67,0 67,-20.75"/>
<text xml:space="preserve" text-anchor="middle" x="33.5" y="-7.25" font-family="Helvetica,sans-Serif" font-size="10.00">imconfig.h</text>
</a>
</g>
</g>
<!-- Node2&#45;&gt;Node3 -->
<g id="edge2_Node000002_Node000003" class="edge">
<title>Node2&#45;&gt;Node3</title>
<g id="a_edge2_Node000002_Node000003"><a xlink:title=" ">
<path fill="none" stroke="#63b8ff" d="M186.94,-58.05C157.91,-49.22 110.96,-34.93 76.63,-24.49"/>
<polygon fill="#63b8ff" stroke="#63b8ff" points="78,-21.25 67.41,-21.69 75.96,-27.95 78,-21.25"/>
</a>
</g>
</g>
<!-- Node4 -->
<g id="Node000004" class="node">
<title>Node4</title>
<g id="a_Node000004"><a xlink:title=" ">
<polygon fill="#e0e0e0" stroke="#999999" points="131.88,-20.75 85.12,-20.75 85.12,0 131.88,0 131.88,-20.75"/>
<text xml:space="preserve" text-anchor="middle" x="108.5" y="-7.25" font-family="Helvetica,sans-Serif" font-size="10.00">float.h</text>
</a>
</g>
</g>
<!-- Node2&#45;&gt;Node4 -->
<g id="edge3_Node000002_Node000004" class="edge">
<title>Node2&#45;&gt;Node4</title>
<g id="a_edge3_Node000002_Node000004"><a xlink:title=" ">
<path fill="none" stroke="#63b8ff" d="M194.73,-56.34C178.75,-48.01 155.55,-35.91 137.24,-26.36"/>
<polygon fill="#63b8ff" stroke="#63b8ff" points="138.94,-23.3 128.45,-21.78 135.7,-29.51 138.94,-23.3"/>
</a>
</g>
</g>
<!-- Node5 -->
<g id="Node000005" class="node">
<title>Node5</title>
<g id="a_Node000005"><a xlink:title=" ">
<polygon fill="#e0e0e0" stroke="#999999" points="205.38,-20.75 149.62,-20.75 149.62,0 205.38,0 205.38,-20.75"/>
<text xml:space="preserve" text-anchor="middle" x="177.5" y="-7.25" font-family="Helvetica,sans-Serif" font-size="10.00">stdarg.h</text>
</a>
</g>
</g>
<!-- Node2&#45;&gt;Node5 -->
<g id="edge4_Node000002_Node000005" class="edge">
<title>Node2&#45;&gt;Node5</title>
<g id="a_edge4_Node000002_Node000005"><a xlink:title=" ">
<path fill="none" stroke="#63b8ff" d="M207.06,-56.34C202.35,-49.17 195.81,-39.23 190.08,-30.51"/>
<polygon fill="#63b8ff" stroke="#63b8ff" points="193.13,-28.78 184.71,-22.34 187.28,-32.62 193.13,-28.78"/>
</a>
</g>
</g>
<!-- Node6 -->
<g id="Node000006" class="node">
<title>Node6</title>
<g id="a_Node000006"><a xlink:title=" ">
<polygon fill="#e0e0e0" stroke="#999999" points="278,-20.75 223,-20.75 223,0 278,0 278,-20.75"/>
<text xml:space="preserve" text-anchor="middle" x="250.5" y="-7.25" font-family="Helvetica,sans-Serif" font-size="10.00">stddef.h</text>
</a>
</g>
</g>
<!-- Node2&#45;&gt;Node6 -->
<g id="edge5_Node000002_Node000006" class="edge">
<title>Node2&#45;&gt;Node6</title>
<g id="a_edge5_Node000002_Node000006"><a xlink:title=" ">
<path fill="none" stroke="#63b8ff" d="M220.11,-56.34C224.96,-49.17 231.68,-39.23 237.57,-30.51"/>
<polygon fill="#63b8ff" stroke="#63b8ff" points="240.4,-32.58 243.09,-22.33 234.6,-28.66 240.4,-32.58"/>
</a>
</g>
</g>
<!-- Node7 -->
<g id="Node000007" class="node">
<title>Node7</title>
<g id="a_Node000007"><a xlink:title=" ">
<polygon fill="#e0e0e0" stroke="#999999" points="348.88,-20.75 296.12,-20.75 296.12,0 348.88,0 348.88,-20.75"/>
<text xml:space="preserve" text-anchor="middle" x="322.5" y="-7.25" font-family="Helvetica,sans-Serif" font-size="10.00">string.h</text>
</a>
</g>
</g>
<!-- Node2&#45;&gt;Node7 -->
<g id="edge6_Node000002_Node000007" class="edge">
<title>Node2&#45;&gt;Node7</title>
<g id="a_edge6_Node000002_Node000007"><a xlink:title=" ">
<path fill="none" stroke="#63b8ff" d="M232.99,-56.34C249.65,-47.97 273.88,-35.79 292.94,-26.22"/>
<polygon fill="#63b8ff" stroke="#63b8ff" points="294.46,-29.37 301.83,-21.76 291.32,-23.12 294.46,-29.37"/>
</a>
</g>
</g>
<!-- Node8 -->
<g id="Node000008" class="node">
<title>Node8</title>
<g id="a_Node000008"><a xlink:title=" ">
<polygon fill="#e0e0e0" stroke="#999999" points="422,-20.75 367,-20.75 367,0 422,0 422,-20.75"/>
<text xml:space="preserve" text-anchor="middle" x="394.5" y="-7.25" font-family="Helvetica,sans-Serif" font-size="10.00">assert.h</text>
</a>
</g>
</g>
<!-- Node2&#45;&gt;Node8 -->
<g id="edge7_Node000002_Node000008" class="edge">
<title>Node2&#45;&gt;Node8</title>
<g id="a_edge7_Node000002_Node000008"><a xlink:title=" ">
<path fill="none" stroke="#63b8ff" d="M240.21,-58.05C270.82,-48.79 321.25,-33.53 356.08,-23"/>
<polygon fill="#63b8ff" stroke="#63b8ff" points="356.78,-26.44 365.34,-20.19 354.76,-19.74 356.78,-26.44"/>
</a>
</g>
</g>
</g>
</svg>
