<?xml version="1.0" encoding="UTF-8" standalone="no"?>
<!DOCTYPE svg PUBLIC "-//W3C//DTD SVG 1.1//EN"
 "http://www.w3.org/Graphics/SVG/1.1/DTD/svg11.dtd">
<!-- Generated by graphviz version 13.0.0 (0)
 -->
<!-- Title: imgui_demo.cpp Pages: 1 -->
<svg width="748pt" height="142pt"
 viewBox="0.00 0.00 748.00 142.00" xmlns="http://www.w3.org/2000/svg" xmlns:xlink="http://www.w3.org/1999/xlink">
<g id="graph0" class="graph" transform="scale(1 1) rotate(0) translate(4 138.25)">
<title>imgui_demo.cpp</title>
<!-- Node1 -->
<g id="Node000001" class="node">
<title>Node1</title>
<g id="a_Node000001"><a xlink:title=" ">
<polygon fill="#999999" stroke="#666666" points="506,-134.25 409,-134.25 409,-113.5 506,-113.5 506,-134.25"/>
<text xml:space="preserve" text-anchor="middle" x="457.5" y="-120.75" font-family="Helvetica,sans-Serif" font-size="10.00">imgui_demo.cpp</text>
</a>
</g>
</g>
<!-- Node2 -->
<g id="Node000002" class="node">
<title>Node2</title>
<g id="a_Node000002"><a xlink:href="imgui_8h.html" target="_top" xlink:title=" ">
<polygon fill="white" stroke="#666666" points="239.88,-77.5 187.12,-77.5 187.12,-56.75 239.88,-56.75 239.88,-77.5"/>
<text xml:space="preserve" text-anchor="middle" x="213.5" y="-64" font-family="Helvetica,sans-Serif" font-size="10.00">imgui.h</text>
</a>
</g>
</g>
<!-- Node1&#45;&gt;Node2 -->
<g id="edge1_Node000001_Node000002" class="edge">
<title>Node1&#45;&gt;Node2</title>
<g id="a_edge1_Node000001_Node000002"><a xlink:title=" ">
<path fill="none" stroke="#63b8ff" d="M409.2,-113.07C369.23,-104.81 310.71,-92.36 251.31,-78.1"/>
<polygon fill="#63b8ff" stroke="#63b8ff" points="252.23,-74.73 241.69,-75.78 250.59,-81.53 252.23,-74.73"/>
</a>
</g>
</g>
<!-- Node9 -->
<g id="Node000009" class="node">
<title>Node9</title>
<g id="a_Node000009"><a xlink:title=" ">
<polygon fill="#e0e0e0" stroke="#999999" points="309.5,-77.5 257.5,-77.5 257.5,-56.75 309.5,-56.75 309.5,-77.5"/>
<text xml:space="preserve" text-anchor="middle" x="283.5" y="-64" font-family="Helvetica,sans-Serif" font-size="10.00">ctype.h</text>
</a>
</g>
</g>
<!-- Node1&#45;&gt;Node9 -->
<g id="edge8_Node000001_Node000009" class="edge">
<title>Node1&#45;&gt;Node9</title>
<g id="a_edge8_Node000001_Node000009"><a xlink:title=" ">
<path fill="none" stroke="#63b8ff" d="M426.39,-113.09C396.79,-103.77 352.22,-89.75 320.74,-79.84"/>
<polygon fill="#63b8ff" stroke="#63b8ff" points="321.82,-76.51 311.23,-76.85 319.72,-83.19 321.82,-76.51"/>
</a>
</g>
</g>
<!-- Node10 -->
<g id="Node000010" class="node">
<title>Node10</title>
<g id="a_Node000010"><a xlink:title=" ">
<polygon fill="#e0e0e0" stroke="#999999" points="379.88,-77.5 327.12,-77.5 327.12,-56.75 379.88,-56.75 379.88,-77.5"/>
<text xml:space="preserve" text-anchor="middle" x="353.5" y="-64" font-family="Helvetica,sans-Serif" font-size="10.00">limits.h</text>
</a>
</g>
</g>
<!-- Node1&#45;&gt;Node10 -->
<g id="edge9_Node000001_Node000010" class="edge">
<title>Node1&#45;&gt;Node10</title>
<g id="a_edge9_Node000001_Node000010"><a xlink:title=" ">
<path fill="none" stroke="#63b8ff" d="M438.91,-113.09C423.08,-104.76 400.1,-92.66 381.96,-83.11"/>
<polygon fill="#63b8ff" stroke="#63b8ff" points="383.75,-80.09 373.27,-78.53 380.49,-86.29 383.75,-80.09"/>
</a>
</g>
</g>
<!-- Node11 -->
<g id="Node000011" class="node">
<title>Node11</title>
<g id="a_Node000011"><a xlink:title=" ">
<polygon fill="#e0e0e0" stroke="#999999" points="448.75,-77.5 398.25,-77.5 398.25,-56.75 448.75,-56.75 448.75,-77.5"/>
<text xml:space="preserve" text-anchor="middle" x="423.5" y="-64" font-family="Helvetica,sans-Serif" font-size="10.00">math.h</text>
</a>
</g>
</g>
<!-- Node1&#45;&gt;Node11 -->
<g id="edge10_Node000001_Node000011" class="edge">
<title>Node1&#45;&gt;Node11</title>
<g id="a_edge10_Node000001_Node000011"><a xlink:title=" ">
<path fill="none" stroke="#63b8ff" d="M451.42,-113.09C447.02,-106 440.93,-96.19 435.56,-87.54"/>
<polygon fill="#63b8ff" stroke="#63b8ff" points="438.57,-85.76 430.32,-79.11 432.63,-89.46 438.57,-85.76"/>
</a>
</g>
</g>
<!-- Node12 -->
<g id="Node000012" class="node">
<title>Node12</title>
<g id="a_Node000012"><a xlink:title=" ">
<polygon fill="#e0e0e0" stroke="#999999" points="516,-77.5 467,-77.5 467,-56.75 516,-56.75 516,-77.5"/>
<text xml:space="preserve" text-anchor="middle" x="491.5" y="-64" font-family="Helvetica,sans-Serif" font-size="10.00">stdio.h</text>
</a>
</g>
</g>
<!-- Node1&#45;&gt;Node12 -->
<g id="edge11_Node000001_Node000012" class="edge">
<title>Node1&#45;&gt;Node12</title>
<g id="a_edge11_Node000001_Node000012"><a xlink:title=" ">
<path fill="none" stroke="#63b8ff" d="M463.58,-113.09C467.98,-106 474.07,-96.19 479.44,-87.54"/>
<polygon fill="#63b8ff" stroke="#63b8ff" points="482.37,-89.46 484.68,-79.11 476.43,-85.76 482.37,-89.46"/>
</a>
</g>
</g>
<!-- Node13 -->
<g id="Node000013" class="node">
<title>Node13</title>
<g id="a_Node000013"><a xlink:title=" ">
<polygon fill="#e0e0e0" stroke="#999999" points="586.5,-77.5 534.5,-77.5 534.5,-56.75 586.5,-56.75 586.5,-77.5"/>
<text xml:space="preserve" text-anchor="middle" x="560.5" y="-64" font-family="Helvetica,sans-Serif" font-size="10.00">stdlib.h</text>
</a>
</g>
</g>
<!-- Node1&#45;&gt;Node13 -->
<g id="edge12_Node000001_Node000013" class="edge">
<title>Node1&#45;&gt;Node13</title>
<g id="a_edge12_Node000001_Node000013"><a xlink:title=" ">
<path fill="none" stroke="#63b8ff" d="M475.91,-113.09C491.59,-104.76 514.35,-92.66 532.31,-83.11"/>
<polygon fill="#63b8ff" stroke="#63b8ff" points="533.72,-86.32 540.91,-78.54 530.44,-80.14 533.72,-86.32"/>
</a>
</g>
</g>
<!-- Node14 -->
<g id="Node000014" class="node">
<title>Node14</title>
<g id="a_Node000014"><a xlink:title=" ">
<polygon fill="#e0e0e0" stroke="#999999" points="656.88,-77.5 604.12,-77.5 604.12,-56.75 656.88,-56.75 656.88,-77.5"/>
<text xml:space="preserve" text-anchor="middle" x="630.5" y="-64" font-family="Helvetica,sans-Serif" font-size="10.00">stdint.h</text>
</a>
</g>
</g>
<!-- Node1&#45;&gt;Node14 -->
<g id="edge13_Node000001_Node000014" class="edge">
<title>Node1&#45;&gt;Node14</title>
<g id="a_edge13_Node000001_Node000014"><a xlink:title=" ">
<path fill="none" stroke="#63b8ff" d="M488.43,-113.09C517.69,-103.83 561.65,-89.91 592.92,-80.02"/>
<polygon fill="#63b8ff" stroke="#63b8ff" points="593.89,-83.38 602.37,-77.03 591.78,-76.71 593.89,-83.38"/>
</a>
</g>
</g>
<!-- Node15 -->
<g id="Node000015" class="node">
<title>Node15</title>
<g id="a_Node000015"><a xlink:title=" ">
<polygon fill="#e0e0e0" stroke="#999999" points="739.88,-77.5 675.12,-77.5 675.12,-56.75 739.88,-56.75 739.88,-77.5"/>
<text xml:space="preserve" text-anchor="middle" x="707.5" y="-64" font-family="Helvetica,sans-Serif" font-size="10.00">inttypes.h</text>
</a>
</g>
</g>
<!-- Node1&#45;&gt;Node15 -->
<g id="edge14_Node000001_Node000015" class="edge">
<title>Node1&#45;&gt;Node15</title>
<g id="a_edge14_Node000001_Node000015"><a xlink:title=" ">
<path fill="none" stroke="#63b8ff" d="M502.96,-113.02C542.72,-104.39 602.33,-91.42 663.85,-77.86"/>
<polygon fill="#63b8ff" stroke="#63b8ff" points="664.46,-81.31 673.47,-75.73 662.95,-74.47 664.46,-81.31"/>
</a>
</g>
</g>
<!-- Node3 -->
<g id="Node000003" class="node">
<title>Node3</title>
<g id="a_Node000003"><a xlink:href="imconfig_8h.html" target="_top" xlink:title=" ">
<polygon fill="white" stroke="#666666" points="67,-20.75 0,-20.75 0,0 67,0 67,-20.75"/>
<text xml:space="preserve" text-anchor="middle" x="33.5" y="-7.25" font-family="Helvetica,sans-Serif" font-size="10.00">imconfig.h</text>
</a>
</g>
</g>
<!-- Node2&#45;&gt;Node3 -->
<g id="edge2_Node000002_Node000003" class="edge">
<title>Node2&#45;&gt;Node3</title>
<g id="a_edge2_Node000002_Node000003"><a xlink:title=" ">
<path fill="none" stroke="#63b8ff" d="M186.94,-58.05C157.91,-49.22 110.96,-34.93 76.63,-24.49"/>
<polygon fill="#63b8ff" stroke="#63b8ff" points="78,-21.25 67.41,-21.69 75.96,-27.95 78,-21.25"/>
</a>
</g>
</g>
<!-- Node4 -->
<g id="Node000004" class="node">
<title>Node4</title>
<g id="a_Node000004"><a xlink:title=" ">
<polygon fill="#e0e0e0" stroke="#999999" points="131.88,-20.75 85.12,-20.75 85.12,0 131.88,0 131.88,-20.75"/>
<text xml:space="preserve" text-anchor="middle" x="108.5" y="-7.25" font-family="Helvetica,sans-Serif" font-size="10.00">float.h</text>
</a>
</g>
</g>
<!-- Node2&#45;&gt;Node4 -->
<g id="edge3_Node000002_Node000004" class="edge">
<title>Node2&#45;&gt;Node4</title>
<g id="a_edge3_Node000002_Node000004"><a xlink:title=" ">
<path fill="none" stroke="#63b8ff" d="M194.73,-56.34C178.75,-48.01 155.55,-35.91 137.24,-26.36"/>
<polygon fill="#63b8ff" stroke="#63b8ff" points="138.94,-23.3 128.45,-21.78 135.7,-29.51 138.94,-23.3"/>
</a>
</g>
</g>
<!-- Node5 -->
<g id="Node000005" class="node">
<title>Node5</title>
<g id="a_Node000005"><a xlink:title=" ">
<polygon fill="#e0e0e0" stroke="#999999" points="205.38,-20.75 149.62,-20.75 149.62,0 205.38,0 205.38,-20.75"/>
<text xml:space="preserve" text-anchor="middle" x="177.5" y="-7.25" font-family="Helvetica,sans-Serif" font-size="10.00">stdarg.h</text>
</a>
</g>
</g>
<!-- Node2&#45;&gt;Node5 -->
<g id="edge4_Node000002_Node000005" class="edge">
<title>Node2&#45;&gt;Node5</title>
<g id="a_edge4_Node000002_Node000005"><a xlink:title=" ">
<path fill="none" stroke="#63b8ff" d="M207.06,-56.34C202.35,-49.17 195.81,-39.23 190.08,-30.51"/>
<polygon fill="#63b8ff" stroke="#63b8ff" points="193.13,-28.78 184.71,-22.34 187.28,-32.62 193.13,-28.78"/>
</a>
</g>
</g>
<!-- Node6 -->
<g id="Node000006" class="node">
<title>Node6</title>
<g id="a_Node000006"><a xlink:title=" ">
<polygon fill="#e0e0e0" stroke="#999999" points="278,-20.75 223,-20.75 223,0 278,0 278,-20.75"/>
<text xml:space="preserve" text-anchor="middle" x="250.5" y="-7.25" font-family="Helvetica,sans-Serif" font-size="10.00">stddef.h</text>
</a>
</g>
</g>
<!-- Node2&#45;&gt;Node6 -->
<g id="edge5_Node000002_Node000006" class="edge">
<title>Node2&#45;&gt;Node6</title>
<g id="a_edge5_Node000002_Node000006"><a xlink:title=" ">
<path fill="none" stroke="#63b8ff" d="M220.11,-56.34C224.96,-49.17 231.68,-39.23 237.57,-30.51"/>
<polygon fill="#63b8ff" stroke="#63b8ff" points="240.4,-32.58 243.09,-22.33 234.6,-28.66 240.4,-32.58"/>
</a>
</g>
</g>
<!-- Node7 -->
<g id="Node000007" class="node">
<title>Node7</title>
<g id="a_Node000007"><a xlink:title=" ">
<polygon fill="#e0e0e0" stroke="#999999" points="348.88,-20.75 296.12,-20.75 296.12,0 348.88,0 348.88,-20.75"/>
<text xml:space="preserve" text-anchor="middle" x="322.5" y="-7.25" font-family="Helvetica,sans-Serif" font-size="10.00">string.h</text>
</a>
</g>
</g>
<!-- Node2&#45;&gt;Node7 -->
<g id="edge6_Node000002_Node000007" class="edge">
<title>Node2&#45;&gt;Node7</title>
<g id="a_edge6_Node000002_Node000007"><a xlink:title=" ">
<path fill="none" stroke="#63b8ff" d="M232.99,-56.34C249.65,-47.97 273.88,-35.79 292.94,-26.22"/>
<polygon fill="#63b8ff" stroke="#63b8ff" points="294.46,-29.37 301.83,-21.76 291.32,-23.12 294.46,-29.37"/>
</a>
</g>
</g>
<!-- Node8 -->
<g id="Node000008" class="node">
<title>Node8</title>
<g id="a_Node000008"><a xlink:title=" ">
<polygon fill="#e0e0e0" stroke="#999999" points="422,-20.75 367,-20.75 367,0 422,0 422,-20.75"/>
<text xml:space="preserve" text-anchor="middle" x="394.5" y="-7.25" font-family="Helvetica,sans-Serif" font-size="10.00">assert.h</text>
</a>
</g>
</g>
<!-- Node2&#45;&gt;Node8 -->
<g id="edge7_Node000002_Node000008" class="edge">
<title>Node2&#45;&gt;Node8</title>
<g id="a_edge7_Node000002_Node000008"><a xlink:title=" ">
<path fill="none" stroke="#63b8ff" d="M240.21,-58.05C270.82,-48.79 321.25,-33.53 356.08,-23"/>
<polygon fill="#63b8ff" stroke="#63b8ff" points="356.78,-26.44 365.34,-20.19 354.76,-19.74 356.78,-26.44"/>
</a>
</g>
</g>
</g>
</svg>
