<?xml version="1.0" encoding="UTF-8" standalone="no"?>
<!DOCTYPE svg PUBLIC "-//W3C//DTD SVG 1.1//EN"
 "http://www.w3.org/Graphics/SVG/1.1/DTD/svg11.dtd">
<!-- Generated by graphviz version 13.0.0 (0)
 -->
<!-- Title: imgui.h Pages: 1 -->
<svg width="767pt" height="142pt"
 viewBox="0.00 0.00 767.00 142.00" xmlns="http://www.w3.org/2000/svg" xmlns:xlink="http://www.w3.org/1999/xlink">
<g id="graph0" class="graph" transform="scale(1 1) rotate(0) translate(4 138.25)">
<title>imgui.h</title>
<!-- Node1 -->
<g id="Node000001" class="node">
<title>Node1</title>
<g id="a_Node000001"><a xlink:title=" ">
<polygon fill="#999999" stroke="#666666" points="363.38,-134.25 310.62,-134.25 310.62,-113.5 363.38,-113.5 363.38,-134.25"/>
<text xml:space="preserve" text-anchor="middle" x="337" y="-120.75" font-family="Helvetica,sans-Serif" font-size="10.00">imgui.h</text>
</a>
</g>
</g>
<!-- Node2 -->
<g id="Node000002" class="node">
<title>Node2</title>
<g id="a_Node000002"><a xlink:href="imgui_8cpp.html" target="_top" xlink:title=" ">
<polygon fill="white" stroke="#666666" points="64,-20.75 0,-20.75 0,0 64,0 64,-20.75"/>
<text xml:space="preserve" text-anchor="middle" x="32" y="-7.25" font-family="Helvetica,sans-Serif" font-size="10.00">imgui.cpp</text>
</a>
</g>
</g>
<!-- Node1&#45;&gt;Node2 -->
<g id="edge1_Node000001_Node000002" class="edge">
<title>Node1&#45;&gt;Node2</title>
<g id="a_edge1_Node000001_Node000002"><a xlink:title=" ">
<path fill="none" stroke="#63b8ff" d="M298.87,-120.4C253.45,-116.27 176.17,-105.44 116,-77.5 85.36,-63.27 55.83,-35.85 41.32,-21.19"/>
<polygon fill="#63b8ff" stroke="#63b8ff" points="298.48,-123.88 308.74,-121.23 299.07,-116.91 298.48,-123.88"/>
</a>
</g>
</g>
<!-- Node3 -->
<g id="Node000003" class="node">
<title>Node3</title>
<g id="a_Node000003"><a xlink:href="imgui__demo_8cpp.html" target="_top" xlink:title=" ">
<polygon fill="white" stroke="#666666" points="424.5,-77.5 327.5,-77.5 327.5,-56.75 424.5,-56.75 424.5,-77.5"/>
<text xml:space="preserve" text-anchor="middle" x="376" y="-64" font-family="Helvetica,sans-Serif" font-size="10.00">imgui_demo.cpp</text>
</a>
</g>
</g>
<!-- Node1&#45;&gt;Node3 -->
<g id="edge2_Node000001_Node000003" class="edge">
<title>Node1&#45;&gt;Node3</title>
<g id="a_edge2_Node000001_Node000003"><a xlink:title=" ">
<path fill="none" stroke="#63b8ff" d="M350.5,-103.92C356.77,-95.13 363.95,-85.05 369.09,-77.83"/>
<polygon fill="#63b8ff" stroke="#63b8ff" points="347.8,-101.68 344.85,-111.85 353.5,-105.74 347.8,-101.68"/>
</a>
</g>
</g>
<!-- Node4 -->
<g id="Node000004" class="node">
<title>Node4</title>
<g id="a_Node000004"><a xlink:href="imgui__draw_8cpp.html" target="_top" xlink:title=" ">
<polygon fill="white" stroke="#666666" points="174.25,-20.75 81.75,-20.75 81.75,0 174.25,0 174.25,-20.75"/>
<text xml:space="preserve" text-anchor="middle" x="128" y="-7.25" font-family="Helvetica,sans-Serif" font-size="10.00">imgui_draw.cpp</text>
</a>
</g>
</g>
<!-- Node1&#45;&gt;Node4 -->
<g id="edge3_Node000001_Node000004" class="edge">
<title>Node1&#45;&gt;Node4</title>
<g id="a_edge3_Node000001_Node000004"><a xlink:title=" ">
<path fill="none" stroke="#63b8ff" d="M298.89,-120.19C244.56,-115.48 149.06,-103.62 128,-77.5 115.03,-61.41 120.3,-35.26 124.57,-21.14"/>
<polygon fill="#63b8ff" stroke="#63b8ff" points="298.38,-123.66 308.63,-120.99 298.95,-116.68 298.38,-123.66"/>
</a>
</g>
</g>
<!-- Node5 -->
<g id="Node000005" class="node">
<title>Node5</title>
<g id="a_Node000005"><a xlink:href="imgui__impl__glfw_8cpp.html" target="_top" xlink:title=" ">
<polygon fill="white" stroke="#666666" points="560.88,-20.75 445.12,-20.75 445.12,0 560.88,0 560.88,-20.75"/>
<text xml:space="preserve" text-anchor="middle" x="503" y="-7.25" font-family="Helvetica,sans-Serif" font-size="10.00">imgui_impl_glfw.cpp</text>
</a>
</g>
</g>
<!-- Node1&#45;&gt;Node5 -->
<g id="edge4_Node000001_Node000005" class="edge">
<title>Node1&#45;&gt;Node5</title>
<g id="a_edge4_Node000001_Node000005"><a xlink:title=" ">
<path fill="none" stroke="#63b8ff" d="M374.28,-108.82C392.99,-100.94 415.54,-90.15 434,-77.5 458.63,-60.62 482.74,-34.78 494.88,-20.93"/>
<polygon fill="#63b8ff" stroke="#63b8ff" points="373.11,-105.52 365.17,-112.54 375.76,-112 373.11,-105.52"/>
</a>
</g>
</g>
<!-- Node6 -->
<g id="Node000006" class="node">
<title>Node6</title>
<g id="a_Node000006"><a xlink:href="imgui__impl__glfw_8h.html" target="_top" xlink:title=" ">
<polygon fill="white" stroke="#666666" points="585.25,-77.5 480.75,-77.5 480.75,-56.75 585.25,-56.75 585.25,-77.5"/>
<text xml:space="preserve" text-anchor="middle" x="533" y="-64" font-family="Helvetica,sans-Serif" font-size="10.00">imgui_impl_glfw.h</text>
</a>
</g>
</g>
<!-- Node1&#45;&gt;Node6 -->
<g id="edge5_Node000001_Node000006" class="edge">
<title>Node1&#45;&gt;Node6</title>
<g id="a_edge5_Node000001_Node000006"><a xlink:title=" ">
<path fill="none" stroke="#63b8ff" d="M374.74,-112.33C410.31,-102.4 463.2,-87.62 497.88,-77.93"/>
<polygon fill="#63b8ff" stroke="#63b8ff" points="373.99,-108.91 365.3,-114.97 375.87,-115.65 373.99,-108.91"/>
</a>
</g>
</g>
<!-- Node7 -->
<g id="Node000007" class="node">
<title>Node7</title>
<g id="a_Node000007"><a xlink:href="imgui__impl__vulkan_8cpp.html" target="_top" xlink:title=" ">
<polygon fill="white" stroke="#666666" points="726.25,-20.75 597.75,-20.75 597.75,0 726.25,0 726.25,-20.75"/>
<text xml:space="preserve" text-anchor="middle" x="662" y="-7.25" font-family="Helvetica,sans-Serif" font-size="10.00">imgui_impl_vulkan.cpp</text>
</a>
</g>
</g>
<!-- Node1&#45;&gt;Node7 -->
<g id="edge7_Node000001_Node000007" class="edge">
<title>Node1&#45;&gt;Node7</title>
<g id="a_edge7_Node000001_Node000007"><a xlink:title=" ">
<path fill="none" stroke="#63b8ff" d="M375.16,-123.01C427.37,-121.72 522.72,-113.98 594,-77.5 620.97,-63.69 644.3,-35.57 655.29,-20.85"/>
<polygon fill="#63b8ff" stroke="#63b8ff" points="375.23,-119.51 365.29,-123.18 375.35,-126.51 375.23,-119.51"/>
</a>
</g>
</g>
<!-- Node8 -->
<g id="Node000008" class="node">
<title>Node8</title>
<g id="a_Node000008"><a xlink:href="imgui__impl__vulkan_8h.html" target="_top" xlink:title=" ">
<polygon fill="white" stroke="#666666" points="758.62,-77.5 641.38,-77.5 641.38,-56.75 758.62,-56.75 758.62,-77.5"/>
<text xml:space="preserve" text-anchor="middle" x="700" y="-64" font-family="Helvetica,sans-Serif" font-size="10.00">imgui_impl_vulkan.h</text>
</a>
</g>
</g>
<!-- Node1&#45;&gt;Node8 -->
<g id="edge8_Node000001_Node000008" class="edge">
<title>Node1&#45;&gt;Node8</title>
<g id="a_edge8_Node000001_Node000008"><a xlink:title=" ">
<path fill="none" stroke="#63b8ff" d="M374.72,-117.19C437.93,-107.65 565.7,-88.38 640.92,-77.04"/>
<polygon fill="#63b8ff" stroke="#63b8ff" points="374.56,-113.67 365.19,-118.62 375.6,-120.59 374.56,-113.67"/>
</a>
</g>
</g>
<!-- Node9 -->
<g id="Node000009" class="node">
<title>Node9</title>
<g id="a_Node000009"><a xlink:href="imgui__internal_8h.html" target="_top" xlink:title=" ">
<polygon fill="white" stroke="#666666" points="232.75,-77.5 137.25,-77.5 137.25,-56.75 232.75,-56.75 232.75,-77.5"/>
<text xml:space="preserve" text-anchor="middle" x="185" y="-64" font-family="Helvetica,sans-Serif" font-size="10.00">imgui_internal.h</text>
</a>
</g>
</g>
<!-- Node1&#45;&gt;Node9 -->
<g id="edge10_Node000001_Node000009" class="edge">
<title>Node1&#45;&gt;Node9</title>
<g id="a_edge10_Node000001_Node000009"><a xlink:title=" ">
<path fill="none" stroke="#63b8ff" d="M299.56,-109.39C272.55,-99.66 236.68,-86.74 212.32,-77.97"/>
<polygon fill="#63b8ff" stroke="#63b8ff" points="298.16,-112.6 308.75,-112.7 300.53,-106.02 298.16,-112.6"/>
</a>
</g>
</g>
<!-- Node10 -->
<g id="Node000010" class="node">
<title>Node10</title>
<g id="a_Node000010"><a xlink:href="imgui__tables_8cpp.html" target="_top" xlink:title=" ">
<polygon fill="white" stroke="#666666" points="291.62,-20.75 192.38,-20.75 192.38,0 291.62,0 291.62,-20.75"/>
<text xml:space="preserve" text-anchor="middle" x="242" y="-7.25" font-family="Helvetica,sans-Serif" font-size="10.00">imgui_tables.cpp</text>
</a>
</g>
</g>
<!-- Node1&#45;&gt;Node10 -->
<g id="edge15_Node000001_Node000010" class="edge">
<title>Node1&#45;&gt;Node10</title>
<g id="a_edge15_Node000001_Node000010"><a xlink:title=" ">
<path fill="none" stroke="#63b8ff" d="M321.68,-104.9C301.39,-81.08 266.32,-39.92 250.35,-21.18"/>
<polygon fill="#63b8ff" stroke="#63b8ff" points="318.77,-106.87 327.92,-112.22 324.1,-102.33 318.77,-106.87"/>
</a>
</g>
</g>
<!-- Node11 -->
<g id="Node000011" class="node">
<title>Node11</title>
<g id="a_Node000011"><a xlink:href="imgui__widgets_8cpp.html" target="_top" xlink:title=" ">
<polygon fill="white" stroke="#666666" points="416.75,-20.75 309.25,-20.75 309.25,0 416.75,0 416.75,-20.75"/>
<text xml:space="preserve" text-anchor="middle" x="363" y="-7.25" font-family="Helvetica,sans-Serif" font-size="10.00">imgui_widgets.cpp</text>
</a>
</g>
</g>
<!-- Node1&#45;&gt;Node11 -->
<g id="edge16_Node000001_Node000011" class="edge">
<title>Node1&#45;&gt;Node11</title>
<g id="a_edge16_Node000001_Node000011"><a xlink:title=" ">
<path fill="none" stroke="#63b8ff" d="M325.05,-103.23C318.5,-89.86 312.86,-71.91 319,-56.75 325.02,-41.9 338.48,-29.23 348.94,-21.08"/>
<polygon fill="#63b8ff" stroke="#63b8ff" points="321.92,-104.81 329.79,-111.9 328.06,-101.44 321.92,-104.81"/>
</a>
</g>
</g>
<!-- Node6&#45;&gt;Node5 -->
<g id="edge6_Node000006_Node000005" class="edge">
<title>Node6&#45;&gt;Node5</title>
<g id="a_edge6_Node000006_Node000005"><a xlink:title=" ">
<path fill="none" stroke="#63b8ff" d="M522.15,-46.32C517.44,-37.73 512.14,-28.06 508.32,-21.08"/>
<polygon fill="#63b8ff" stroke="#63b8ff" points="519.03,-47.92 526.91,-55.01 525.17,-44.56 519.03,-47.92"/>
</a>
</g>
</g>
<!-- Node8&#45;&gt;Node7 -->
<g id="edge9_Node000008_Node000007" class="edge">
<title>Node8&#45;&gt;Node7</title>
<g id="a_edge9_Node000008_Node000007"><a xlink:title=" ">
<path fill="none" stroke="#63b8ff" d="M686.65,-46.89C680.59,-38.16 673.69,-28.22 668.73,-21.08"/>
<polygon fill="#63b8ff" stroke="#63b8ff" points="683.77,-48.87 692.34,-55.09 689.52,-44.88 683.77,-48.87"/>
</a>
</g>
</g>
<!-- Node9&#45;&gt;Node2 -->
<g id="edge11_Node000009_Node000002" class="edge">
<title>Node9&#45;&gt;Node2</title>
<g id="a_edge11_Node000009_Node000002"><a xlink:title=" ">
<path fill="none" stroke="#63b8ff" d="M146.96,-52.51C119.75,-42.78 83.78,-29.9 59.37,-21.17"/>
<polygon fill="#63b8ff" stroke="#63b8ff" points="145.63,-55.75 156.22,-55.83 147.99,-49.16 145.63,-55.75"/>
</a>
</g>
</g>
<!-- Node9&#45;&gt;Node4 -->
<g id="edge12_Node000009_Node000004" class="edge">
<title>Node9&#45;&gt;Node4</title>
<g id="a_edge12_Node000009_Node000004"><a xlink:title=" ">
<path fill="none" stroke="#63b8ff" d="M166.73,-48.58C157.25,-39.47 146.02,-28.68 138.1,-21.08"/>
<polygon fill="#63b8ff" stroke="#63b8ff" points="164.08,-50.89 173.72,-55.29 168.93,-45.84 164.08,-50.89"/>
</a>
</g>
</g>
<!-- Node9&#45;&gt;Node10 -->
<g id="edge13_Node000009_Node000010" class="edge">
<title>Node9&#45;&gt;Node10</title>
<g id="a_edge13_Node000009_Node000010"><a xlink:title=" ">
<path fill="none" stroke="#63b8ff" d="M203.27,-48.58C212.75,-39.47 223.98,-28.68 231.9,-21.08"/>
<polygon fill="#63b8ff" stroke="#63b8ff" points="201.07,-45.84 196.28,-55.29 205.92,-50.89 201.07,-45.84"/>
</a>
</g>
</g>
<!-- Node9&#45;&gt;Node11 -->
<g id="edge14_Node000009_Node000011" class="edge">
<title>Node9&#45;&gt;Node11</title>
<g id="a_edge14_Node000009_Node000011"><a xlink:title=" ">
<path fill="none" stroke="#63b8ff" d="M227.58,-53.03C259.42,-43.24 302.25,-30.06 331.15,-21.17"/>
<polygon fill="#63b8ff" stroke="#63b8ff" points="226.8,-49.61 218.27,-55.89 228.86,-56.3 226.8,-49.61"/>
</a>
</g>
</g>
</g>
</svg>
