<?xml version="1.0" encoding="UTF-8" standalone="no"?>
<!DOCTYPE svg PUBLIC "-//W3C//DTD SVG 1.1//EN"
 "http://www.w3.org/Graphics/SVG/1.1/DTD/svg11.dtd">
<!-- Generated by graphviz version 13.0.0 (0)
 -->
<!-- Title: imgui_widgets.cpp Pages: 1 -->
<svg width="577pt" height="199pt"
 viewBox="0.00 0.00 577.00 199.00" xmlns="http://www.w3.org/2000/svg" xmlns:xlink="http://www.w3.org/1999/xlink">
<g id="graph0" class="graph" transform="scale(1 1) rotate(0) translate(4 195)">
<title>imgui_widgets.cpp</title>
<!-- Node1 -->
<g id="Node000001" class="node">
<title>Node1</title>
<g id="a_Node000001"><a xlink:title=" ">
<polygon fill="#999999" stroke="#666666" points="435.25,-191 327.75,-191 327.75,-170.25 435.25,-170.25 435.25,-191"/>
<text xml:space="preserve" text-anchor="middle" x="381.5" y="-177.5" font-family="Helvetica,sans-Serif" font-size="10.00">imgui_widgets.cpp</text>
</a>
</g>
</g>
<!-- Node2 -->
<g id="Node000002" class="node">
<title>Node2</title>
<g id="a_Node000002"><a xlink:href="imgui_8h.html" target="_top" xlink:title=" ">
<polygon fill="white" stroke="#666666" points="239.88,-77.5 187.12,-77.5 187.12,-56.75 239.88,-56.75 239.88,-77.5"/>
<text xml:space="preserve" text-anchor="middle" x="213.5" y="-64" font-family="Helvetica,sans-Serif" font-size="10.00">imgui.h</text>
</a>
</g>
</g>
<!-- Node1&#45;&gt;Node2 -->
<g id="edge1_Node000001_Node000002" class="edge">
<title>Node1&#45;&gt;Node2</title>
<g id="a_edge1_Node000001_Node000002"><a xlink:title=" ">
<path fill="none" stroke="#63b8ff" d="M351.54,-169.86C330.11,-162.08 301.17,-149.91 278.5,-134.25 258.94,-120.74 240.32,-100.82 228.06,-86.37"/>
<polygon fill="#63b8ff" stroke="#63b8ff" points="231.01,-84.44 221.94,-78.96 225.61,-88.9 231.01,-84.44"/>
</a>
</g>
</g>
<!-- Node9 -->
<g id="Node000009" class="node">
<title>Node9</title>
<g id="a_Node000009"><a xlink:href="imgui__internal_8h.html" target="_top" xlink:title=" ">
<polygon fill="white" stroke="#666666" points="383.25,-134.25 287.75,-134.25 287.75,-113.5 383.25,-113.5 383.25,-134.25"/>
<text xml:space="preserve" text-anchor="middle" x="335.5" y="-120.75" font-family="Helvetica,sans-Serif" font-size="10.00">imgui_internal.h</text>
</a>
</g>
</g>
<!-- Node1&#45;&gt;Node9 -->
<g id="edge8_Node000001_Node000009" class="edge">
<title>Node1&#45;&gt;Node9</title>
<g id="a_edge8_Node000001_Node000009"><a xlink:title=" ">
<path fill="none" stroke="#63b8ff" d="M373.28,-169.84C367.06,-162.44 358.35,-152.07 350.86,-143.16"/>
<polygon fill="#63b8ff" stroke="#63b8ff" points="353.74,-141.14 344.63,-135.74 348.38,-145.65 353.74,-141.14"/>
</a>
</g>
</g>
<!-- Node14 -->
<g id="Node000014" class="node">
<title>Node14</title>
<g id="a_Node000014"><a xlink:title=" ">
<polygon fill="#e0e0e0" stroke="#999999" points="453.88,-134.25 401.12,-134.25 401.12,-113.5 453.88,-113.5 453.88,-134.25"/>
<text xml:space="preserve" text-anchor="middle" x="427.5" y="-120.75" font-family="Helvetica,sans-Serif" font-size="10.00">stdint.h</text>
</a>
</g>
</g>
<!-- Node1&#45;&gt;Node14 -->
<g id="edge14_Node000001_Node000014" class="edge">
<title>Node1&#45;&gt;Node14</title>
<g id="a_edge14_Node000001_Node000014"><a xlink:title=" ">
<path fill="none" stroke="#63b8ff" d="M389.72,-169.84C395.94,-162.44 404.65,-152.07 412.14,-143.16"/>
<polygon fill="#63b8ff" stroke="#63b8ff" points="414.62,-145.65 418.37,-135.74 409.26,-141.14 414.62,-145.65"/>
</a>
</g>
</g>
<!-- Node15 -->
<g id="Node000015" class="node">
<title>Node15</title>
<g id="a_Node000015"><a xlink:href="imstb__textedit_8h.html" target="_top" xlink:title=" ">
<polygon fill="white" stroke="#666666" points="568.62,-134.25 472.38,-134.25 472.38,-113.5 568.62,-113.5 568.62,-134.25"/>
<text xml:space="preserve" text-anchor="middle" x="520.5" y="-120.75" font-family="Helvetica,sans-Serif" font-size="10.00">imstb_textedit.h</text>
</a>
</g>
</g>
<!-- Node1&#45;&gt;Node15 -->
<g id="edge15_Node000001_Node000015" class="edge">
<title>Node1&#45;&gt;Node15</title>
<g id="a_edge15_Node000001_Node000015"><a xlink:title=" ">
<path fill="none" stroke="#63b8ff" d="M406.35,-169.84C428.39,-161.16 460.82,-148.38 485.48,-138.67"/>
<polygon fill="#63b8ff" stroke="#63b8ff" points="486.43,-142.05 494.46,-135.13 483.87,-135.54 486.43,-142.05"/>
</a>
</g>
</g>
<!-- Node3 -->
<g id="Node000003" class="node">
<title>Node3</title>
<g id="a_Node000003"><a xlink:href="imconfig_8h.html" target="_top" xlink:title=" ">
<polygon fill="white" stroke="#666666" points="67,-20.75 0,-20.75 0,0 67,0 67,-20.75"/>
<text xml:space="preserve" text-anchor="middle" x="33.5" y="-7.25" font-family="Helvetica,sans-Serif" font-size="10.00">imconfig.h</text>
</a>
</g>
</g>
<!-- Node2&#45;&gt;Node3 -->
<g id="edge2_Node000002_Node000003" class="edge">
<title>Node2&#45;&gt;Node3</title>
<g id="a_edge2_Node000002_Node000003"><a xlink:title=" ">
<path fill="none" stroke="#63b8ff" d="M186.94,-58.05C157.91,-49.22 110.96,-34.93 76.63,-24.49"/>
<polygon fill="#63b8ff" stroke="#63b8ff" points="78,-21.25 67.41,-21.69 75.96,-27.95 78,-21.25"/>
</a>
</g>
</g>
<!-- Node4 -->
<g id="Node000004" class="node">
<title>Node4</title>
<g id="a_Node000004"><a xlink:title=" ">
<polygon fill="#e0e0e0" stroke="#999999" points="131.88,-20.75 85.12,-20.75 85.12,0 131.88,0 131.88,-20.75"/>
<text xml:space="preserve" text-anchor="middle" x="108.5" y="-7.25" font-family="Helvetica,sans-Serif" font-size="10.00">float.h</text>
</a>
</g>
</g>
<!-- Node2&#45;&gt;Node4 -->
<g id="edge3_Node000002_Node000004" class="edge">
<title>Node2&#45;&gt;Node4</title>
<g id="a_edge3_Node000002_Node000004"><a xlink:title=" ">
<path fill="none" stroke="#63b8ff" d="M194.73,-56.34C178.75,-48.01 155.55,-35.91 137.24,-26.36"/>
<polygon fill="#63b8ff" stroke="#63b8ff" points="138.94,-23.3 128.45,-21.78 135.7,-29.51 138.94,-23.3"/>
</a>
</g>
</g>
<!-- Node5 -->
<g id="Node000005" class="node">
<title>Node5</title>
<g id="a_Node000005"><a xlink:title=" ">
<polygon fill="#e0e0e0" stroke="#999999" points="205.38,-20.75 149.62,-20.75 149.62,0 205.38,0 205.38,-20.75"/>
<text xml:space="preserve" text-anchor="middle" x="177.5" y="-7.25" font-family="Helvetica,sans-Serif" font-size="10.00">stdarg.h</text>
</a>
</g>
</g>
<!-- Node2&#45;&gt;Node5 -->
<g id="edge4_Node000002_Node000005" class="edge">
<title>Node2&#45;&gt;Node5</title>
<g id="a_edge4_Node000002_Node000005"><a xlink:title=" ">
<path fill="none" stroke="#63b8ff" d="M207.06,-56.34C202.35,-49.17 195.81,-39.23 190.08,-30.51"/>
<polygon fill="#63b8ff" stroke="#63b8ff" points="193.13,-28.78 184.71,-22.34 187.28,-32.62 193.13,-28.78"/>
</a>
</g>
</g>
<!-- Node6 -->
<g id="Node000006" class="node">
<title>Node6</title>
<g id="a_Node000006"><a xlink:title=" ">
<polygon fill="#e0e0e0" stroke="#999999" points="278,-20.75 223,-20.75 223,0 278,0 278,-20.75"/>
<text xml:space="preserve" text-anchor="middle" x="250.5" y="-7.25" font-family="Helvetica,sans-Serif" font-size="10.00">stddef.h</text>
</a>
</g>
</g>
<!-- Node2&#45;&gt;Node6 -->
<g id="edge5_Node000002_Node000006" class="edge">
<title>Node2&#45;&gt;Node6</title>
<g id="a_edge5_Node000002_Node000006"><a xlink:title=" ">
<path fill="none" stroke="#63b8ff" d="M220.11,-56.34C224.96,-49.17 231.68,-39.23 237.57,-30.51"/>
<polygon fill="#63b8ff" stroke="#63b8ff" points="240.4,-32.58 243.09,-22.33 234.6,-28.66 240.4,-32.58"/>
</a>
</g>
</g>
<!-- Node7 -->
<g id="Node000007" class="node">
<title>Node7</title>
<g id="a_Node000007"><a xlink:title=" ">
<polygon fill="#e0e0e0" stroke="#999999" points="348.88,-20.75 296.12,-20.75 296.12,0 348.88,0 348.88,-20.75"/>
<text xml:space="preserve" text-anchor="middle" x="322.5" y="-7.25" font-family="Helvetica,sans-Serif" font-size="10.00">string.h</text>
</a>
</g>
</g>
<!-- Node2&#45;&gt;Node7 -->
<g id="edge6_Node000002_Node000007" class="edge">
<title>Node2&#45;&gt;Node7</title>
<g id="a_edge6_Node000002_Node000007"><a xlink:title=" ">
<path fill="none" stroke="#63b8ff" d="M232.99,-56.34C249.65,-47.97 273.88,-35.79 292.94,-26.22"/>
<polygon fill="#63b8ff" stroke="#63b8ff" points="294.46,-29.37 301.83,-21.76 291.32,-23.12 294.46,-29.37"/>
</a>
</g>
</g>
<!-- Node8 -->
<g id="Node000008" class="node">
<title>Node8</title>
<g id="a_Node000008"><a xlink:title=" ">
<polygon fill="#e0e0e0" stroke="#999999" points="422,-20.75 367,-20.75 367,0 422,0 422,-20.75"/>
<text xml:space="preserve" text-anchor="middle" x="394.5" y="-7.25" font-family="Helvetica,sans-Serif" font-size="10.00">assert.h</text>
</a>
</g>
</g>
<!-- Node2&#45;&gt;Node8 -->
<g id="edge7_Node000002_Node000008" class="edge">
<title>Node2&#45;&gt;Node8</title>
<g id="a_edge7_Node000002_Node000008"><a xlink:title=" ">
<path fill="none" stroke="#63b8ff" d="M240.21,-58.05C270.82,-48.79 321.25,-33.53 356.08,-23"/>
<polygon fill="#63b8ff" stroke="#63b8ff" points="356.78,-26.44 365.34,-20.19 354.76,-19.74 356.78,-26.44"/>
</a>
</g>
</g>
<!-- Node9&#45;&gt;Node2 -->
<g id="edge9_Node000009_Node000002" class="edge">
<title>Node9&#45;&gt;Node2</title>
<g id="a_edge9_Node000009_Node000002"><a xlink:title=" ">
<path fill="none" stroke="#63b8ff" d="M313.69,-113.09C294.69,-104.56 266.9,-92.09 245.41,-82.44"/>
<polygon fill="#63b8ff" stroke="#63b8ff" points="247.06,-79.35 236.5,-78.45 244.19,-85.74 247.06,-79.35"/>
</a>
</g>
</g>
<!-- Node10 -->
<g id="Node000010" class="node">
<title>Node10</title>
<g id="a_Node000010"><a xlink:title=" ">
<polygon fill="#e0e0e0" stroke="#999999" points="307,-77.5 258,-77.5 258,-56.75 307,-56.75 307,-77.5"/>
<text xml:space="preserve" text-anchor="middle" x="282.5" y="-64" font-family="Helvetica,sans-Serif" font-size="10.00">stdio.h</text>
</a>
</g>
</g>
<!-- Node9&#45;&gt;Node10 -->
<g id="edge10_Node000009_Node000010" class="edge">
<title>Node9&#45;&gt;Node10</title>
<g id="a_edge10_Node000009_Node000010"><a xlink:title=" ">
<path fill="none" stroke="#63b8ff" d="M326.02,-113.09C318.71,-105.53 308.41,-94.89 299.66,-85.85"/>
<polygon fill="#63b8ff" stroke="#63b8ff" points="302.42,-83.67 292.95,-78.92 297.39,-88.54 302.42,-83.67"/>
</a>
</g>
</g>
<!-- Node11 -->
<g id="Node000011" class="node">
<title>Node11</title>
<g id="a_Node000011"><a xlink:title=" ">
<polygon fill="#e0e0e0" stroke="#999999" points="377.5,-77.5 325.5,-77.5 325.5,-56.75 377.5,-56.75 377.5,-77.5"/>
<text xml:space="preserve" text-anchor="middle" x="351.5" y="-64" font-family="Helvetica,sans-Serif" font-size="10.00">stdlib.h</text>
</a>
</g>
</g>
<!-- Node9&#45;&gt;Node11 -->
<g id="edge11_Node000009_Node000011" class="edge">
<title>Node9&#45;&gt;Node11</title>
<g id="a_edge11_Node000009_Node000011"><a xlink:title=" ">
<path fill="none" stroke="#63b8ff" d="M338.36,-113.09C340.34,-106.31 343.05,-97.05 345.49,-88.69"/>
<polygon fill="#63b8ff" stroke="#63b8ff" points="348.79,-89.86 348.24,-79.28 342.08,-87.9 348.79,-89.86"/>
</a>
</g>
</g>
<!-- Node12 -->
<g id="Node000012" class="node">
<title>Node12</title>
<g id="a_Node000012"><a xlink:title=" ">
<polygon fill="#e0e0e0" stroke="#999999" points="445.75,-77.5 395.25,-77.5 395.25,-56.75 445.75,-56.75 445.75,-77.5"/>
<text xml:space="preserve" text-anchor="middle" x="420.5" y="-64" font-family="Helvetica,sans-Serif" font-size="10.00">math.h</text>
</a>
</g>
</g>
<!-- Node9&#45;&gt;Node12 -->
<g id="edge12_Node000009_Node000012" class="edge">
<title>Node9&#45;&gt;Node12</title>
<g id="a_edge12_Node000009_Node000012"><a xlink:title=" ">
<path fill="none" stroke="#63b8ff" d="M350.7,-113.09C363.27,-104.99 381.36,-93.33 395.98,-83.92"/>
<polygon fill="#63b8ff" stroke="#63b8ff" points="397.65,-87.01 404.16,-78.65 393.86,-81.12 397.65,-87.01"/>
</a>
</g>
</g>
<!-- Node13 -->
<g id="Node000013" class="node">
<title>Node13</title>
<g id="a_Node000013"><a xlink:title=" ">
<polygon fill="#e0e0e0" stroke="#999999" points="516.88,-77.5 464.12,-77.5 464.12,-56.75 516.88,-56.75 516.88,-77.5"/>
<text xml:space="preserve" text-anchor="middle" x="490.5" y="-64" font-family="Helvetica,sans-Serif" font-size="10.00">limits.h</text>
</a>
</g>
</g>
<!-- Node9&#45;&gt;Node13 -->
<g id="edge13_Node000009_Node000013" class="edge">
<title>Node9&#45;&gt;Node13</title>
<g id="a_edge13_Node000009_Node000013"><a xlink:title=" ">
<path fill="none" stroke="#63b8ff" d="M363.21,-113.09C388.24,-104.25 425.28,-91.16 452.95,-81.39"/>
<polygon fill="#63b8ff" stroke="#63b8ff" points="454.12,-84.69 462.38,-78.06 451.78,-78.09 454.12,-84.69"/>
</a>
</g>
</g>
</g>
</svg>
