<?xml version="1.0" encoding="UTF-8" standalone="no"?>
<!DOCTYPE svg PUBLIC "-//W3C//DTD SVG 1.1//EN"
 "http://www.w3.org/Graphics/SVG/1.1/DTD/svg11.dtd">
<!-- Generated by graphviz version 13.0.0 (0)
 -->
<!-- Title: imgui_internal.h Pages: 1 -->
<svg width="425pt" height="86pt"
 viewBox="0.00 0.00 425.00 86.00" xmlns="http://www.w3.org/2000/svg" xmlns:xlink="http://www.w3.org/1999/xlink">
<g id="graph0" class="graph" transform="scale(1 1) rotate(0) translate(4 81.5)">
<title>imgui_internal.h</title>
<!-- Node1 -->
<g id="Node000001" class="node">
<title>Node1</title>
<g id="a_Node000001"><a xlink:title=" ">
<polygon fill="#999999" stroke="#666666" points="232.75,-77.5 137.25,-77.5 137.25,-56.75 232.75,-56.75 232.75,-77.5"/>
<text xml:space="preserve" text-anchor="middle" x="185" y="-64" font-family="Helvetica,sans-Serif" font-size="10.00">imgui_internal.h</text>
</a>
</g>
</g>
<!-- Node2 -->
<g id="Node000002" class="node">
<title>Node2</title>
<g id="a_Node000002"><a xlink:href="imgui_8cpp.html" target="_top" xlink:title=" ">
<polygon fill="white" stroke="#666666" points="64,-20.75 0,-20.75 0,0 64,0 64,-20.75"/>
<text xml:space="preserve" text-anchor="middle" x="32" y="-7.25" font-family="Helvetica,sans-Serif" font-size="10.00">imgui.cpp</text>
</a>
</g>
</g>
<!-- Node1&#45;&gt;Node2 -->
<g id="edge1_Node000001_Node000002" class="edge">
<title>Node1&#45;&gt;Node2</title>
<g id="a_edge1_Node000001_Node000002"><a xlink:title=" ">
<path fill="none" stroke="#63b8ff" d="M146.96,-52.51C119.75,-42.78 83.78,-29.9 59.37,-21.17"/>
<polygon fill="#63b8ff" stroke="#63b8ff" points="145.63,-55.75 156.22,-55.83 147.99,-49.16 145.63,-55.75"/>
</a>
</g>
</g>
<!-- Node3 -->
<g id="Node000003" class="node">
<title>Node3</title>
<g id="a_Node000003"><a xlink:href="imgui__draw_8cpp.html" target="_top" xlink:title=" ">
<polygon fill="white" stroke="#666666" points="174.25,-20.75 81.75,-20.75 81.75,0 174.25,0 174.25,-20.75"/>
<text xml:space="preserve" text-anchor="middle" x="128" y="-7.25" font-family="Helvetica,sans-Serif" font-size="10.00">imgui_draw.cpp</text>
</a>
</g>
</g>
<!-- Node1&#45;&gt;Node3 -->
<g id="edge2_Node000001_Node000003" class="edge">
<title>Node1&#45;&gt;Node3</title>
<g id="a_edge2_Node000001_Node000003"><a xlink:title=" ">
<path fill="none" stroke="#63b8ff" d="M166.73,-48.58C157.25,-39.47 146.02,-28.68 138.1,-21.08"/>
<polygon fill="#63b8ff" stroke="#63b8ff" points="164.08,-50.89 173.72,-55.29 168.93,-45.84 164.08,-50.89"/>
</a>
</g>
</g>
<!-- Node4 -->
<g id="Node000004" class="node">
<title>Node4</title>
<g id="a_Node000004"><a xlink:href="imgui__tables_8cpp.html" target="_top" xlink:title=" ">
<polygon fill="white" stroke="#666666" points="291.62,-20.75 192.38,-20.75 192.38,0 291.62,0 291.62,-20.75"/>
<text xml:space="preserve" text-anchor="middle" x="242" y="-7.25" font-family="Helvetica,sans-Serif" font-size="10.00">imgui_tables.cpp</text>
</a>
</g>
</g>
<!-- Node1&#45;&gt;Node4 -->
<g id="edge3_Node000001_Node000004" class="edge">
<title>Node1&#45;&gt;Node4</title>
<g id="a_edge3_Node000001_Node000004"><a xlink:title=" ">
<path fill="none" stroke="#63b8ff" d="M203.27,-48.58C212.75,-39.47 223.98,-28.68 231.9,-21.08"/>
<polygon fill="#63b8ff" stroke="#63b8ff" points="201.07,-45.84 196.28,-55.29 205.92,-50.89 201.07,-45.84"/>
</a>
</g>
</g>
<!-- Node5 -->
<g id="Node000005" class="node">
<title>Node5</title>
<g id="a_Node000005"><a xlink:href="imgui__widgets_8cpp.html" target="_top" xlink:title=" ">
<polygon fill="white" stroke="#666666" points="416.75,-20.75 309.25,-20.75 309.25,0 416.75,0 416.75,-20.75"/>
<text xml:space="preserve" text-anchor="middle" x="363" y="-7.25" font-family="Helvetica,sans-Serif" font-size="10.00">imgui_widgets.cpp</text>
</a>
</g>
</g>
<!-- Node1&#45;&gt;Node5 -->
<g id="edge4_Node000001_Node000005" class="edge">
<title>Node1&#45;&gt;Node5</title>
<g id="a_edge4_Node000001_Node000005"><a xlink:title=" ">
<path fill="none" stroke="#63b8ff" d="M227.58,-53.03C259.42,-43.24 302.25,-30.06 331.15,-21.17"/>
<polygon fill="#63b8ff" stroke="#63b8ff" points="226.8,-49.61 218.27,-55.89 228.86,-56.3 226.8,-49.61"/>
</a>
</g>
</g>
</g>
</svg>
