<?xml version="1.0" encoding="UTF-8" standalone="no"?>
<!DOCTYPE svg PUBLIC "-//W3C//DTD SVG 1.1//EN"
 "http://www.w3.org/Graphics/SVG/1.1/DTD/svg11.dtd">
<!-- Generated by graphviz version 13.0.0 (0)
 -->
<!-- Title: Graphical Class Hierarchy Pages: 1 -->
<svg width="172pt" height="68pt"
 viewBox="0.00 0.00 172.00 68.00" xmlns="http://www.w3.org/2000/svg" xmlns:xlink="http://www.w3.org/1999/xlink">
<g id="graph0" class="graph" transform="scale(1 1) rotate(0) translate(4 63.75)">
<title>Graphical Class Hierarchy</title>
<!-- Node0 -->
<g id="Node000000" class="node">
<title>Node0</title>
<g id="a_Node000000"><a xlink:href="classMesh.html" target="_top" xlink:title=" ">
<polygon fill="white" stroke="#666666" points="42.25,-39.75 0,-39.75 0,-19 42.25,-19 42.25,-39.75"/>
<text xml:space="preserve" text-anchor="middle" x="21.12" y="-26.25" font-family="Helvetica,sans-Serif" font-size="10.00">Mesh</text>
</a>
</g>
</g>
<!-- Node1 -->
<g id="Node000001" class="node">
<title>Node1</title>
<g id="a_Node000001"><a xlink:href="classDynamicMesh.html" target="_top" xlink:title=" ">
<polygon fill="white" stroke="#666666" points="164,-59.75 78.25,-59.75 78.25,-39 164,-39 164,-59.75"/>
<text xml:space="preserve" text-anchor="middle" x="121.12" y="-46.25" font-family="Helvetica,sans-Serif" font-size="10.00">DynamicMesh</text>
</a>
</g>
</g>
<!-- Node0&#45;&gt;Node1 -->
<g id="edge3_Node000000_Node000001" class="edge">
<title>Node0&#45;&gt;Node1</title>
<g id="a_edge3_Node000000_Node000001"><a xlink:title=" ">
<path fill="none" stroke="#63b8ff" d="M53.59,-35.8C61.37,-37.38 69.83,-39.11 78.02,-40.78"/>
<polygon fill="#63b8ff" stroke="#63b8ff" points="54.41,-32.39 43.91,-33.82 53.01,-39.25 54.41,-32.39"/>
</a>
</g>
</g>
<!-- Node2 -->
<g id="Node000002" class="node">
<title>Node2</title>
<g id="a_Node000002"><a xlink:href="classPlane.html" target="_top" xlink:title=" ">
<polygon fill="white" stroke="#666666" points="142.62,-20.75 99.62,-20.75 99.62,0 142.62,0 142.62,-20.75"/>
<text xml:space="preserve" text-anchor="middle" x="121.12" y="-7.25" font-family="Helvetica,sans-Serif" font-size="10.00">Plane</text>
</a>
</g>
</g>
<!-- Node0&#45;&gt;Node2 -->
<g id="edge4_Node000000_Node000002" class="edge">
<title>Node0&#45;&gt;Node2</title>
<g id="a_edge4_Node000000_Node000002"><a xlink:title=" ">
<path fill="none" stroke="#63b8ff" d="M53.71,-23.25C68.59,-20.37 85.94,-17 99.17,-14.44"/>
<polygon fill="#63b8ff" stroke="#63b8ff" points="53.07,-19.81 43.92,-25.15 54.4,-26.68 53.07,-19.81"/>
</a>
</g>
</g>
</g>
</svg>
