<?xml version="1.0" encoding="UTF-8" standalone="no"?>
<!DOCTYPE svg PUBLIC "-//W3C//DTD SVG 1.1//EN"
 "http://www.w3.org/Graphics/SVG/1.1/DTD/svg11.dtd">
<!-- Generated by graphviz version 13.0.0 (0)
 -->
<!-- Title: MemoryUtils.h Pages: 1 -->
<svg width="161pt" height="142pt"
 viewBox="0.00 0.00 161.00 142.00" xmlns="http://www.w3.org/2000/svg" xmlns:xlink="http://www.w3.org/1999/xlink">
<g id="graph0" class="graph" transform="scale(1 1) rotate(0) translate(4 138.25)">
<title>MemoryUtils.h</title>
<!-- Node1 -->
<g id="Node000001" class="node">
<title>Node1</title>
<g id="a_Node000001"><a xlink:title=" ">
<polygon fill="#999999" stroke="#666666" points="104.5,-134.25 16.5,-134.25 16.5,-113.5 104.5,-113.5 104.5,-134.25"/>
<text xml:space="preserve" text-anchor="middle" x="60.5" y="-120.75" font-family="Helvetica,sans-Serif" font-size="10.00">MemoryUtils.h</text>
</a>
</g>
</g>
<!-- Node2 -->
<g id="Node000002" class="node">
<title>Node2</title>
<g id="a_Node000002"><a xlink:href="GUI_8h.html" target="_top" xlink:title=" ">
<polygon fill="white" stroke="#666666" points="43,-77.5 0,-77.5 0,-56.75 43,-56.75 43,-77.5"/>
<text xml:space="preserve" text-anchor="middle" x="21.5" y="-64" font-family="Helvetica,sans-Serif" font-size="10.00">GUI.h</text>
</a>
</g>
</g>
<!-- Node1&#45;&gt;Node2 -->
<g id="edge1_Node000001_Node000002" class="edge">
<title>Node1&#45;&gt;Node2</title>
<g id="a_edge1_Node000001_Node000002"><a xlink:title=" ">
<path fill="none" stroke="#63b8ff" d="M47,-103.92C40.73,-95.13 33.55,-85.05 28.41,-77.83"/>
<polygon fill="#63b8ff" stroke="#63b8ff" points="44,-105.74 52.65,-111.85 49.7,-101.68 44,-105.74"/>
</a>
</g>
</g>
<!-- Node3 -->
<g id="Node000003" class="node">
<title>Node3</title>
<g id="a_Node000003"><a xlink:href="Swapchain_8h.html" target="_top" xlink:title=" ">
<polygon fill="white" stroke="#666666" points="138.25,-77.5 60.75,-77.5 60.75,-56.75 138.25,-56.75 138.25,-77.5"/>
<text xml:space="preserve" text-anchor="middle" x="99.5" y="-64" font-family="Helvetica,sans-Serif" font-size="10.00">Swapchain.h</text>
</a>
</g>
</g>
<!-- Node1&#45;&gt;Node3 -->
<g id="edge2_Node000001_Node000003" class="edge">
<title>Node1&#45;&gt;Node3</title>
<g id="a_edge2_Node000001_Node000003"><a xlink:title=" ">
<path fill="none" stroke="#63b8ff" d="M74,-103.92C80.27,-95.13 87.45,-85.05 92.59,-77.83"/>
<polygon fill="#63b8ff" stroke="#63b8ff" points="71.3,-101.68 68.35,-111.85 77,-105.74 71.3,-101.68"/>
</a>
</g>
</g>
<!-- Node4 -->
<g id="Node000004" class="node">
<title>Node4</title>
<g id="a_Node000004"><a xlink:href="GraphicsPipeline_8h.html" target="_top" xlink:title=" ">
<polygon fill="white" stroke="#666666" points="152.88,-20.75 46.12,-20.75 46.12,0 152.88,0 152.88,-20.75"/>
<text xml:space="preserve" text-anchor="middle" x="99.5" y="-7.25" font-family="Helvetica,sans-Serif" font-size="10.00">GraphicsPipeline.h</text>
</a>
</g>
</g>
<!-- Node3&#45;&gt;Node4 -->
<g id="edge3_Node000003_Node000004" class="edge">
<title>Node3&#45;&gt;Node4</title>
<g id="a_edge3_Node000003_Node000004"><a xlink:title=" ">
<path fill="none" stroke="#63b8ff" d="M99.5,-44.88C99.5,-36.66 99.5,-27.68 99.5,-21.08"/>
<polygon fill="#63b8ff" stroke="#63b8ff" points="96,-44.82 99.5,-54.82 103,-44.82 96,-44.82"/>
</a>
</g>
</g>
</g>
</svg>
