<?xml version="1.0" encoding="UTF-8" standalone="no"?>
<!DOCTYPE svg PUBLIC "-//W3C//DTD SVG 1.1//EN"
 "http://www.w3.org/Graphics/SVG/1.1/DTD/svg11.dtd">
<!-- Generated by graphviz version 13.0.0 (0)
 -->
<!-- Title: MeshManager.h Pages: 1 -->
<svg width="2625pt" height="382pt"
 viewBox="0.00 0.00 2625.00 382.00" xmlns="http://www.w3.org/2000/svg" xmlns:xlink="http://www.w3.org/1999/xlink">
<g id="graph0" class="graph" transform="scale(1 1) rotate(0) translate(4 378)">
<title>MeshManager.h</title>
<!-- Node1 -->
<g id="Node000001" class="node">
<title>Node1</title>
<g id="a_Node000001"><a xlink:title=" ">
<polygon fill="#999999" stroke="#666666" points="1745,-374 1651.75,-374 1651.75,-353.25 1745,-353.25 1745,-374"/>
<text xml:space="preserve" text-anchor="middle" x="1698.38" y="-360.5" font-family="Helvetica,sans-Serif" font-size="10.00">MeshManager.h</text>
</a>
</g>
</g>
<!-- Node2 -->
<g id="Node000002" class="node">
<title>Node2</title>
<g id="a_Node000002"><a xlink:href="config_8h.html" target="_top" xlink:title=" ">
<polygon fill="white" stroke="#666666" points="1627.25,-90.25 1547.5,-90.25 1547.5,-69.5 1627.25,-69.5 1627.25,-90.25"/>
<text xml:space="preserve" text-anchor="middle" x="1587.38" y="-76.75" font-family="Helvetica,sans-Serif" font-size="10.00">Utils/config.h</text>
</a>
</g>
</g>
<!-- Node1&#45;&gt;Node2 -->
<g id="edge1_Node000001_Node000002" class="edge">
<title>Node1&#45;&gt;Node2</title>
<g id="a_edge1_Node000001_Node000002"><a xlink:title=" ">
<path fill="none" stroke="#63b8ff" d="M1651.68,-362.2C1526.41,-359.81 1192.38,-344.68 1192.38,-251.12 1192.38,-251.12 1192.38,-251.12 1192.38,-192.38 1192.38,-161.8 1188.1,-146.08 1211.38,-126.25 1259.09,-85.61 1444.26,-80.33 1535.7,-80.29"/>
<polygon fill="#63b8ff" stroke="#63b8ff" points="1535.64,-83.79 1545.65,-80.31 1535.65,-76.79 1535.64,-83.79"/>
</a>
</g>
</g>
<!-- Node33 -->
<g id="Node000033" class="node">
<title>Node33</title>
<g id="a_Node000033"><a xlink:href="VulkanDevices_8h.html" target="_top" xlink:title=" ">
<polygon fill="white" stroke="#666666" points="1542.25,-317.25 1420.5,-317.25 1420.5,-296.5 1542.25,-296.5 1542.25,-317.25"/>
<text xml:space="preserve" text-anchor="middle" x="1481.38" y="-303.75" font-family="Helvetica,sans-Serif" font-size="10.00">Core/VulkanDevices.h</text>
</a>
</g>
</g>
<!-- Node1&#45;&gt;Node33 -->
<g id="edge32_Node000001_Node000033" class="edge">
<title>Node1&#45;&gt;Node33</title>
<g id="a_edge32_Node000001_Node000033"><a xlink:title=" ">
<path fill="none" stroke="#63b8ff" d="M1659.33,-352.77C1623.57,-343.75 1570.44,-330.35 1531.54,-320.53"/>
<polygon fill="#63b8ff" stroke="#63b8ff" points="1532.49,-317.16 1521.94,-318.11 1530.78,-323.95 1532.49,-317.16"/>
</a>
</g>
</g>
<!-- Node38 -->
<g id="Node000038" class="node">
<title>Node38</title>
<g id="a_Node000038"><a xlink:href="BufferManager_8h.html" target="_top" xlink:title=" ">
<polygon fill="white" stroke="#666666" points="1772,-260.5 1624.75,-260.5 1624.75,-239.75 1772,-239.75 1772,-260.5"/>
<text xml:space="preserve" text-anchor="middle" x="1698.38" y="-247" font-family="Helvetica,sans-Serif" font-size="10.00">Managers/BufferManager.h</text>
</a>
</g>
</g>
<!-- Node1&#45;&gt;Node38 -->
<g id="edge43_Node000001_Node000038" class="edge">
<title>Node1&#45;&gt;Node38</title>
<g id="a_edge43_Node000001_Node000038"><a xlink:title=" ">
<path fill="none" stroke="#63b8ff" d="M1698.38,-353.12C1698.38,-335.35 1698.38,-296.72 1698.38,-272.43"/>
<polygon fill="#63b8ff" stroke="#63b8ff" points="1701.88,-272.44 1698.38,-262.44 1694.88,-272.44 1701.88,-272.44"/>
</a>
</g>
</g>
<!-- Node40 -->
<g id="Node000040" class="node">
<title>Node40</title>
<g id="a_Node000040"><a xlink:href="Vertex_8h.html" target="_top" xlink:title=" ">
<polygon fill="white" stroke="#666666" points="1752.12,-147 1644.62,-147 1644.62,-126.25 1752.12,-126.25 1752.12,-147"/>
<text xml:space="preserve" text-anchor="middle" x="1698.38" y="-133.5" font-family="Helvetica,sans-Serif" font-size="10.00">Managers/Vertex.h</text>
</a>
</g>
</g>
<!-- Node1&#45;&gt;Node40 -->
<g id="edge55_Node000001_Node000040" class="edge">
<title>Node1&#45;&gt;Node40</title>
<g id="a_edge55_Node000001_Node000040"><a xlink:title=" ">
<path fill="none" stroke="#63b8ff" d="M1683.19,-352.78C1654.94,-333.11 1598.66,-286.81 1615.38,-239.75 1627.71,-205.02 1657.45,-173.51 1677.77,-154.96"/>
<polygon fill="#63b8ff" stroke="#63b8ff" points="1680.03,-157.62 1685.21,-148.38 1675.4,-152.38 1680.03,-157.62"/>
</a>
</g>
</g>
<!-- Node41 -->
<g id="Node000041" class="node">
<title>Node41</title>
<g id="a_Node000041"><a xlink:href="Image_8h.html" target="_top" xlink:title=" ">
<polygon fill="white" stroke="#666666" points="2061.75,-317.25 1955,-317.25 1955,-296.5 2061.75,-296.5 2061.75,-317.25"/>
<text xml:space="preserve" text-anchor="middle" x="2008.38" y="-303.75" font-family="Helvetica,sans-Serif" font-size="10.00">Managers/Image.h</text>
</a>
</g>
</g>
<!-- Node1&#45;&gt;Node41 -->
<g id="edge50_Node000001_Node000041" class="edge">
<title>Node1&#45;&gt;Node41</title>
<g id="a_edge50_Node000001_Node000041"><a xlink:title=" ">
<path fill="none" stroke="#63b8ff" d="M1745.46,-354.31C1798.29,-344.98 1884.32,-329.78 1943.5,-319.33"/>
<polygon fill="#63b8ff" stroke="#63b8ff" points="1943.86,-322.82 1953.1,-317.64 1942.64,-315.93 1943.86,-322.82"/>
</a>
</g>
</g>
<!-- Node45 -->
<g id="Node000045" class="node">
<title>Node45</title>
<g id="a_Node000045"><a xlink:href="Material_8h.html" target="_top" xlink:title=" ">
<polygon fill="white" stroke="#666666" points="1924.62,-317.25 1808.12,-317.25 1808.12,-296.5 1924.62,-296.5 1924.62,-317.25"/>
<text xml:space="preserve" text-anchor="middle" x="1866.38" y="-303.75" font-family="Helvetica,sans-Serif" font-size="10.00">Managers/Material.h</text>
</a>
</g>
</g>
<!-- Node1&#45;&gt;Node45 -->
<g id="edge56_Node000001_Node000045" class="edge">
<title>Node1&#45;&gt;Node45</title>
<g id="a_edge56_Node000001_Node000045"><a xlink:title=" ">
<path fill="none" stroke="#63b8ff" d="M1728.41,-352.84C1755.56,-343.99 1795.76,-330.89 1825.76,-321.11"/>
<polygon fill="#63b8ff" stroke="#63b8ff" points="1826.45,-324.57 1834.88,-318.14 1824.29,-317.91 1826.45,-324.57"/>
</a>
</g>
</g>
<!-- Node46 -->
<g id="Node000046" class="node">
<title>Node46</title>
<g id="a_Node000046"><a xlink:href="DescriptorBuilder_8h.html" target="_top" xlink:title=" ">
<polygon fill="white" stroke="#666666" points="1942.25,-260.5 1790.5,-260.5 1790.5,-239.75 1942.25,-239.75 1942.25,-260.5"/>
<text xml:space="preserve" text-anchor="middle" x="1866.38" y="-247" font-family="Helvetica,sans-Serif" font-size="10.00">Builders/DescriptorBuilder.h</text>
</a>
</g>
</g>
<!-- Node1&#45;&gt;Node46 -->
<g id="edge61_Node000001_Node000046" class="edge">
<title>Node1&#45;&gt;Node46</title>
<g id="a_edge61_Node000001_Node000046"><a xlink:title=" ">
<path fill="none" stroke="#63b8ff" d="M1712.99,-352.93C1741.91,-333.73 1806.69,-290.74 1842.11,-267.23"/>
<polygon fill="#63b8ff" stroke="#63b8ff" points="1844.02,-270.16 1850.41,-261.72 1840.15,-264.33 1844.02,-270.16"/>
</a>
</g>
</g>
<!-- Node3 -->
<g id="Node000003" class="node">
<title>Node3</title>
<g id="a_Node000003"><a xlink:title=" ">
<polygon fill="#e0e0e0" stroke="#999999" points="82.75,-27.12 0,-27.12 0,-6.38 82.75,-6.38 82.75,-27.12"/>
<text xml:space="preserve" text-anchor="middle" x="41.38" y="-13.62" font-family="Helvetica,sans-Serif" font-size="10.00">GLFW/glfw3.h</text>
</a>
</g>
</g>
<!-- Node2&#45;&gt;Node3 -->
<g id="edge2_Node000002_Node000003" class="edge">
<title>Node2&#45;&gt;Node3</title>
<g id="a_edge2_Node000002_Node000003"><a xlink:title=" ">
<path fill="none" stroke="#63b8ff" d="M1547.06,-79.15C1338.76,-80.32 382.96,-82.87 91.38,-33.5 87.23,-32.8 82.95,-31.84 78.72,-30.73"/>
<polygon fill="#63b8ff" stroke="#63b8ff" points="79.8,-27.4 69.22,-27.97 77.85,-34.12 79.8,-27.4"/>
</a>
</g>
</g>
<!-- Node4 -->
<g id="Node000004" class="node">
<title>Node4</title>
<g id="a_Node000004"><a xlink:title=" ">
<polygon fill="#e0e0e0" stroke="#999999" points="178.12,-27.12 100.62,-27.12 100.62,-6.38 178.12,-6.38 178.12,-27.12"/>
<text xml:space="preserve" text-anchor="middle" x="139.38" y="-13.62" font-family="Helvetica,sans-Serif" font-size="10.00">glm/glm.hpp</text>
</a>
</g>
</g>
<!-- Node2&#45;&gt;Node4 -->
<g id="edge3_Node000002_Node000004" class="edge">
<title>Node2&#45;&gt;Node4</title>
<g id="a_edge3_Node000002_Node000004"><a xlink:title=" ">
<path fill="none" stroke="#63b8ff" d="M1547.02,-79.11C1346.79,-80.05 458.74,-81.4 187.38,-33.5 183.5,-32.82 179.51,-31.89 175.56,-30.82"/>
<polygon fill="#63b8ff" stroke="#63b8ff" points="176.72,-27.52 166.14,-27.98 174.7,-34.22 176.72,-27.52"/>
</a>
</g>
</g>
<!-- Node5 -->
<g id="Node000005" class="node">
<title>Node5</title>
<g id="a_Node000005"><a xlink:title=" ">
<polygon fill="#e0e0e0" stroke="#999999" points="358.5,-27.12 196.25,-27.12 196.25,-6.38 358.5,-6.38 358.5,-27.12"/>
<text xml:space="preserve" text-anchor="middle" x="277.38" y="-13.62" font-family="Helvetica,sans-Serif" font-size="10.00">glm/gtc/matrix_transform.hpp</text>
</a>
</g>
</g>
<!-- Node2&#45;&gt;Node5 -->
<g id="edge4_Node000002_Node000005" class="edge">
<title>Node2&#45;&gt;Node5</title>
<g id="a_edge4_Node000002_Node000005"><a xlink:title=" ">
<path fill="none" stroke="#63b8ff" d="M1547.21,-79.36C1393.64,-80.8 828.98,-82.25 367.38,-33.5 357.63,-32.47 347.35,-31.02 337.36,-29.42"/>
<polygon fill="#63b8ff" stroke="#63b8ff" points="338.18,-26 327.74,-27.8 337.02,-32.91 338.18,-26"/>
</a>
</g>
</g>
<!-- Node6 -->
<g id="Node000006" class="node">
<title>Node6</title>
<g id="a_Node000006"><a xlink:title=" ">
<polygon fill="#e0e0e0" stroke="#999999" points="548,-27.12 376.75,-27.12 376.75,-6.38 548,-6.38 548,-27.12"/>
<text xml:space="preserve" text-anchor="middle" x="462.38" y="-13.62" font-family="Helvetica,sans-Serif" font-size="10.00">glm/gtx/matrix_decompose.hpp</text>
</a>
</g>
</g>
<!-- Node2&#45;&gt;Node6 -->
<g id="edge5_Node000002_Node000006" class="edge">
<title>Node2&#45;&gt;Node6</title>
<g id="a_edge5_Node000002_Node000006"><a xlink:title=" ">
<path fill="none" stroke="#63b8ff" d="M1547.44,-78.87C1409.54,-78.47 940.8,-74.01 556.38,-33.5 546.22,-32.43 535.51,-30.96 525.09,-29.35"/>
<polygon fill="#63b8ff" stroke="#63b8ff" points="525.86,-25.93 515.43,-27.79 524.75,-32.84 525.86,-25.93"/>
</a>
</g>
</g>
<!-- Node7 -->
<g id="Node000007" class="node">
<title>Node7</title>
<g id="a_Node000007"><a xlink:title=" ">
<polygon fill="#e0e0e0" stroke="#999999" points="679.12,-33.5 565.62,-33.5 565.62,0 679.12,0 679.12,-33.5"/>
<text xml:space="preserve" text-anchor="start" x="573.62" y="-20" font-family="Helvetica,sans-Serif" font-size="10.00">../src/External/imgui</text>
<text xml:space="preserve" text-anchor="middle" x="622.38" y="-7.25" font-family="Helvetica,sans-Serif" font-size="10.00">/imgui.h</text>
</a>
</g>
</g>
<!-- Node2&#45;&gt;Node7 -->
<g id="edge6_Node000002_Node000007" class="edge">
<title>Node2&#45;&gt;Node7</title>
<g id="a_edge6_Node000002_Node000007"><a xlink:title=" ">
<path fill="none" stroke="#63b8ff" d="M1547.25,-79.47C1421.84,-80.76 1026.11,-80.67 690.4,-33.61"/>
<polygon fill="#63b8ff" stroke="#63b8ff" points="691.38,-30.21 680.99,-32.27 690.4,-37.14 691.38,-30.21"/>
</a>
</g>
</g>
<!-- Node8 -->
<g id="Node000008" class="node">
<title>Node8</title>
<g id="a_Node000008"><a xlink:title=" ">
<polygon fill="#e0e0e0" stroke="#999999" points="817.5,-33.5 697.25,-33.5 697.25,0 817.5,0 817.5,-33.5"/>
<text xml:space="preserve" text-anchor="start" x="705.25" y="-20" font-family="Helvetica,sans-Serif" font-size="10.00">../src/External/imgui</text>
<text xml:space="preserve" text-anchor="middle" x="757.38" y="-7.25" font-family="Helvetica,sans-Serif" font-size="10.00">/imgui_impl_vulkan.h</text>
</a>
</g>
</g>
<!-- Node2&#45;&gt;Node8 -->
<g id="edge7_Node000002_Node000008" class="edge">
<title>Node2&#45;&gt;Node8</title>
<g id="a_edge7_Node000002_Node000008"><a xlink:title=" ">
<path fill="none" stroke="#63b8ff" d="M1547.12,-78.8C1434.85,-78.11 1108.64,-72.74 829.03,-33.73"/>
<polygon fill="#63b8ff" stroke="#63b8ff" points="829.74,-30.29 819.35,-32.36 828.76,-37.23 829.74,-30.29"/>
</a>
</g>
</g>
<!-- Node9 -->
<g id="Node000009" class="node">
<title>Node9</title>
<g id="a_Node000009"><a xlink:title=" ">
<polygon fill="#e0e0e0" stroke="#999999" points="949.12,-33.5 835.62,-33.5 835.62,0 949.12,0 949.12,-33.5"/>
<text xml:space="preserve" text-anchor="start" x="843.62" y="-20" font-family="Helvetica,sans-Serif" font-size="10.00">../src/External/imgui</text>
<text xml:space="preserve" text-anchor="middle" x="892.38" y="-7.25" font-family="Helvetica,sans-Serif" font-size="10.00">/imgui_impl_glfw.h</text>
</a>
</g>
</g>
<!-- Node2&#45;&gt;Node9 -->
<g id="edge8_Node000002_Node000009" class="edge">
<title>Node2&#45;&gt;Node9</title>
<g id="a_edge8_Node000002_Node000009"><a xlink:title=" ">
<path fill="none" stroke="#63b8ff" d="M1547.02,-78.23C1448.43,-76.17 1187.43,-67.8 960.62,-33.68"/>
<polygon fill="#63b8ff" stroke="#63b8ff" points="961.41,-30.26 951,-32.21 960.35,-37.18 961.41,-30.26"/>
</a>
</g>
</g>
<!-- Node10 -->
<g id="Node000010" class="node">
<title>Node10</title>
<g id="a_Node000010"><a xlink:title=" ">
<polygon fill="#e0e0e0" stroke="#999999" points="1015.12,-27.12 967.62,-27.12 967.62,-6.38 1015.12,-6.38 1015.12,-27.12"/>
<text xml:space="preserve" text-anchor="middle" x="991.38" y="-13.62" font-family="Helvetica,sans-Serif" font-size="10.00">thread</text>
</a>
</g>
</g>
<!-- Node2&#45;&gt;Node10 -->
<g id="edge9_Node000002_Node000010" class="edge">
<title>Node2&#45;&gt;Node10</title>
<g id="a_edge9_Node000002_Node000010"><a xlink:title=" ">
<path fill="none" stroke="#63b8ff" d="M1547.02,-77.53C1435.21,-73.49 1123.21,-60.1 1024.38,-33.5 1022.56,-33.01 1020.73,-32.43 1018.9,-31.77"/>
<polygon fill="#63b8ff" stroke="#63b8ff" points="1020.7,-28.73 1010.12,-28.07 1017.98,-35.18 1020.7,-28.73"/>
</a>
</g>
</g>
<!-- Node11 -->
<g id="Node000011" class="node">
<title>Node11</title>
<g id="a_Node000011"><a xlink:title=" ">
<polygon fill="#e0e0e0" stroke="#999999" points="1079.38,-27.12 1033.38,-27.12 1033.38,-6.38 1079.38,-6.38 1079.38,-27.12"/>
<text xml:space="preserve" text-anchor="middle" x="1056.38" y="-13.62" font-family="Helvetica,sans-Serif" font-size="10.00">queue</text>
</a>
</g>
</g>
<!-- Node2&#45;&gt;Node11 -->
<g id="edge10_Node000002_Node000011" class="edge">
<title>Node2&#45;&gt;Node11</title>
<g id="a_edge10_Node000002_Node000011"><a xlink:title=" ">
<path fill="none" stroke="#63b8ff" d="M1547.2,-77.12C1444.53,-72.32 1174.53,-57.72 1088.38,-33.5 1086.81,-33.06 1085.23,-32.54 1083.65,-31.97"/>
<polygon fill="#63b8ff" stroke="#63b8ff" points="1085.48,-28.95 1074.91,-28.22 1082.72,-35.38 1085.48,-28.95"/>
</a>
</g>
</g>
<!-- Node12 -->
<g id="Node000012" class="node">
<title>Node12</title>
<g id="a_Node000012"><a xlink:title=" ">
<polygon fill="#e0e0e0" stroke="#999999" points="1203.38,-27.12 1097.38,-27.12 1097.38,-6.38 1203.38,-6.38 1203.38,-27.12"/>
<text xml:space="preserve" text-anchor="middle" x="1150.38" y="-13.62" font-family="Helvetica,sans-Serif" font-size="10.00">condition_variable</text>
</a>
</g>
</g>
<!-- Node2&#45;&gt;Node12 -->
<g id="edge11_Node000002_Node000012" class="edge">
<title>Node2&#45;&gt;Node12</title>
<g id="a_edge11_Node000002_Node000012"><a xlink:title=" ">
<path fill="none" stroke="#63b8ff" d="M1547.16,-75.71C1478.23,-69.92 1333.25,-56.07 1212.38,-33.5 1207.39,-32.57 1202.21,-31.47 1197.06,-30.29"/>
<polygon fill="#63b8ff" stroke="#63b8ff" points="1197.95,-26.9 1187.41,-27.97 1196.31,-33.71 1197.95,-26.9"/>
</a>
</g>
</g>
<!-- Node13 -->
<g id="Node000013" class="node">
<title>Node13</title>
<g id="a_Node000013"><a xlink:title=" ">
<polygon fill="#e0e0e0" stroke="#999999" points="1271.25,-27.12 1221.5,-27.12 1221.5,-6.38 1271.25,-6.38 1271.25,-27.12"/>
<text xml:space="preserve" text-anchor="middle" x="1246.38" y="-13.62" font-family="Helvetica,sans-Serif" font-size="10.00">atomic</text>
</a>
</g>
</g>
<!-- Node2&#45;&gt;Node13 -->
<g id="edge12_Node000002_Node000013" class="edge">
<title>Node2&#45;&gt;Node13</title>
<g id="a_edge12_Node000002_Node000013"><a xlink:title=" ">
<path fill="none" stroke="#63b8ff" d="M1547.33,-76.63C1487.96,-72.48 1373.56,-61.33 1280.38,-33.5 1278.78,-33.02 1277.16,-32.48 1275.54,-31.9"/>
<polygon fill="#63b8ff" stroke="#63b8ff" points="1277.04,-28.73 1266.46,-28.15 1274.37,-35.2 1277.04,-28.73"/>
</a>
</g>
</g>
<!-- Node14 -->
<g id="Node000014" class="node">
<title>Node14</title>
<g id="a_Node000014"><a xlink:title=" ">
<polygon fill="#e0e0e0" stroke="#999999" points="1349.12,-27.12 1289.62,-27.12 1289.62,-6.38 1349.12,-6.38 1349.12,-27.12"/>
<text xml:space="preserve" text-anchor="middle" x="1319.38" y="-13.62" font-family="Helvetica,sans-Serif" font-size="10.00">iostream</text>
</a>
</g>
</g>
<!-- Node2&#45;&gt;Node14 -->
<g id="edge13_Node000002_Node000014" class="edge">
<title>Node2&#45;&gt;Node14</title>
<g id="a_edge13_Node000002_Node000014"><a xlink:title=" ">
<path fill="none" stroke="#63b8ff" d="M1547.11,-73.25C1500.93,-66.25 1423.24,-52.84 1358.38,-33.5 1356.28,-32.87 1354.13,-32.18 1351.99,-31.44"/>
<polygon fill="#63b8ff" stroke="#63b8ff" points="1353.4,-28.23 1342.81,-28.01 1350.95,-34.79 1353.4,-28.23"/>
</a>
</g>
</g>
<!-- Node15 -->
<g id="Node000015" class="node">
<title>Node15</title>
<g id="a_Node000015"><a xlink:title=" ">
<polygon fill="#e0e0e0" stroke="#999999" points="1431.38,-27.12 1367.38,-27.12 1367.38,-6.38 1431.38,-6.38 1431.38,-27.12"/>
<text xml:space="preserve" text-anchor="middle" x="1399.38" y="-13.62" font-family="Helvetica,sans-Serif" font-size="10.00">stdexcept</text>
</a>
</g>
</g>
<!-- Node2&#45;&gt;Node15 -->
<g id="edge14_Node000002_Node000015" class="edge">
<title>Node2&#45;&gt;Node15</title>
<g id="a_edge14_Node000002_Node000015"><a xlink:title=" ">
<path fill="none" stroke="#63b8ff" d="M1553.3,-69.07C1523.37,-60.28 1478.74,-46.77 1440.38,-33.5 1438.54,-32.87 1436.67,-32.2 1434.78,-31.52"/>
<polygon fill="#63b8ff" stroke="#63b8ff" points="1436,-28.24 1425.41,-28.04 1433.57,-34.8 1436,-28.24"/>
</a>
</g>
</g>
<!-- Node16 -->
<g id="Node000016" class="node">
<title>Node16</title>
<g id="a_Node000016"><a xlink:title=" ">
<polygon fill="#e0e0e0" stroke="#999999" points="1513,-27.12 1449.75,-27.12 1449.75,-6.38 1513,-6.38 1513,-27.12"/>
<text xml:space="preserve" text-anchor="middle" x="1481.38" y="-13.62" font-family="Helvetica,sans-Serif" font-size="10.00">algorithm</text>
</a>
</g>
</g>
<!-- Node2&#45;&gt;Node16 -->
<g id="edge15_Node000002_Node000016" class="edge">
<title>Node2&#45;&gt;Node16</title>
<g id="a_edge15_Node000002_Node000016"><a xlink:title=" ">
<path fill="none" stroke="#63b8ff" d="M1570.34,-69.05C1553.58,-59.39 1527.72,-44.47 1508.19,-33.21"/>
<polygon fill="#63b8ff" stroke="#63b8ff" points="1510.09,-30.27 1499.67,-28.3 1506.59,-36.33 1510.09,-30.27"/>
</a>
</g>
</g>
<!-- Node17 -->
<g id="Node000017" class="node">
<title>Node17</title>
<g id="a_Node000017"><a xlink:title=" ">
<polygon fill="#e0e0e0" stroke="#999999" points="1577.75,-27.12 1531,-27.12 1531,-6.38 1577.75,-6.38 1577.75,-27.12"/>
<text xml:space="preserve" text-anchor="middle" x="1554.38" y="-13.62" font-family="Helvetica,sans-Serif" font-size="10.00">vector</text>
</a>
</g>
</g>
<!-- Node2&#45;&gt;Node17 -->
<g id="edge16_Node000002_Node000017" class="edge">
<title>Node2&#45;&gt;Node17</title>
<g id="a_edge16_Node000002_Node000017"><a xlink:title=" ">
<path fill="none" stroke="#63b8ff" d="M1582.07,-69.05C1577.48,-60.54 1570.68,-47.95 1564.97,-37.38"/>
<polygon fill="#63b8ff" stroke="#63b8ff" points="1568.1,-35.81 1560.27,-28.68 1561.94,-39.14 1568.1,-35.81"/>
</a>
</g>
</g>
<!-- Node18 -->
<g id="Node000018" class="node">
<title>Node18</title>
<g id="a_Node000018"><a xlink:title=" ">
<polygon fill="#e0e0e0" stroke="#999999" points="1644.88,-27.12 1595.88,-27.12 1595.88,-6.38 1644.88,-6.38 1644.88,-27.12"/>
<text xml:space="preserve" text-anchor="middle" x="1620.38" y="-13.62" font-family="Helvetica,sans-Serif" font-size="10.00">cstring</text>
</a>
</g>
</g>
<!-- Node2&#45;&gt;Node18 -->
<g id="edge17_Node000002_Node000018" class="edge">
<title>Node2&#45;&gt;Node18</title>
<g id="a_edge17_Node000002_Node000018"><a xlink:title=" ">
<path fill="none" stroke="#63b8ff" d="M1592.68,-69.05C1597.27,-60.54 1604.07,-47.95 1609.78,-37.38"/>
<polygon fill="#63b8ff" stroke="#63b8ff" points="1612.81,-39.14 1614.48,-28.68 1606.65,-35.81 1612.81,-39.14"/>
</a>
</g>
</g>
<!-- Node19 -->
<g id="Node000019" class="node">
<title>Node19</title>
<g id="a_Node000019"><a xlink:title=" ">
<polygon fill="#e0e0e0" stroke="#999999" points="1711.5,-27.12 1663.25,-27.12 1663.25,-6.38 1711.5,-6.38 1711.5,-27.12"/>
<text xml:space="preserve" text-anchor="middle" x="1687.38" y="-13.62" font-family="Helvetica,sans-Serif" font-size="10.00">cstdlib</text>
</a>
</g>
</g>
<!-- Node2&#45;&gt;Node19 -->
<g id="edge18_Node000002_Node000019" class="edge">
<title>Node2&#45;&gt;Node19</title>
<g id="a_edge18_Node000002_Node000019"><a xlink:title=" ">
<path fill="none" stroke="#63b8ff" d="M1603.44,-69.05C1619.11,-59.47 1643.21,-44.75 1661.57,-33.52"/>
<polygon fill="#63b8ff" stroke="#63b8ff" points="1663.35,-36.54 1670.06,-28.34 1659.7,-30.56 1663.35,-36.54"/>
</a>
</g>
</g>
<!-- Node20 -->
<g id="Node000020" class="node">
<title>Node20</title>
<g id="a_Node000020"><a xlink:title=" ">
<polygon fill="#e0e0e0" stroke="#999999" points="1778.88,-27.12 1729.88,-27.12 1729.88,-6.38 1778.88,-6.38 1778.88,-27.12"/>
<text xml:space="preserve" text-anchor="middle" x="1754.38" y="-13.62" font-family="Helvetica,sans-Serif" font-size="10.00">cstdint</text>
</a>
</g>
</g>
<!-- Node2&#45;&gt;Node20 -->
<g id="edge19_Node000002_Node000020" class="edge">
<title>Node2&#45;&gt;Node20</title>
<g id="a_edge19_Node000002_Node000020"><a xlink:title=" ">
<path fill="none" stroke="#63b8ff" d="M1619.16,-69.07C1646.32,-60.44 1686.29,-47.16 1720.38,-33.5 1721.49,-33.05 1722.63,-32.59 1723.77,-32.11"/>
<polygon fill="#63b8ff" stroke="#63b8ff" points="1724.9,-35.43 1732.65,-28.21 1722.08,-29.03 1724.9,-35.43"/>
</a>
</g>
</g>
<!-- Node21 -->
<g id="Node000021" class="node">
<title>Node21</title>
<g id="a_Node000021"><a xlink:title=" ">
<polygon fill="#e0e0e0" stroke="#999999" points="1840.25,-27.12 1796.5,-27.12 1796.5,-6.38 1840.25,-6.38 1840.25,-27.12"/>
<text xml:space="preserve" text-anchor="middle" x="1818.38" y="-13.62" font-family="Helvetica,sans-Serif" font-size="10.00">limits</text>
</a>
</g>
</g>
<!-- Node2&#45;&gt;Node21 -->
<g id="edge20_Node000002_Node000021" class="edge">
<title>Node2&#45;&gt;Node21</title>
<g id="a_edge20_Node000002_Node000021"><a xlink:title=" ">
<path fill="none" stroke="#63b8ff" d="M1627.54,-72.99C1668.76,-66.21 1734.33,-53.4 1788.38,-33.5 1789.34,-33.14 1790.32,-32.76 1791.29,-32.36"/>
<polygon fill="#63b8ff" stroke="#63b8ff" points="1792.65,-35.59 1800.22,-28.18 1789.68,-29.25 1792.65,-35.59"/>
</a>
</g>
</g>
<!-- Node22 -->
<g id="Node000022" class="node">
<title>Node22</title>
<g id="a_Node000022"><a xlink:title=" ">
<polygon fill="#e0e0e0" stroke="#999999" points="1914.25,-27.12 1858.5,-27.12 1858.5,-6.38 1914.25,-6.38 1914.25,-27.12"/>
<text xml:space="preserve" text-anchor="middle" x="1886.38" y="-13.62" font-family="Helvetica,sans-Serif" font-size="10.00">optional</text>
</a>
</g>
</g>
<!-- Node2&#45;&gt;Node22 -->
<g id="edge21_Node000002_Node000022" class="edge">
<title>Node2&#45;&gt;Node22</title>
<g id="a_edge21_Node000002_Node000022"><a xlink:title=" ">
<path fill="none" stroke="#63b8ff" d="M1627.53,-74.84C1679.52,-68.95 1772.56,-56.17 1849.38,-33.5 1851.22,-32.96 1853.09,-32.35 1854.97,-31.7"/>
<polygon fill="#63b8ff" stroke="#63b8ff" points="1856.07,-35.02 1864.14,-28.15 1853.55,-28.49 1856.07,-35.02"/>
</a>
</g>
</g>
<!-- Node23 -->
<g id="Node000023" class="node">
<title>Node23</title>
<g id="a_Node000023"><a xlink:title=" ">
<polygon fill="#e0e0e0" stroke="#999999" points="1962.88,-27.12 1931.88,-27.12 1931.88,-6.38 1962.88,-6.38 1962.88,-27.12"/>
<text xml:space="preserve" text-anchor="middle" x="1947.38" y="-13.62" font-family="Helvetica,sans-Serif" font-size="10.00">set</text>
</a>
</g>
</g>
<!-- Node2&#45;&gt;Node23 -->
<g id="edge22_Node000002_Node000023" class="edge">
<title>Node2&#45;&gt;Node23</title>
<g id="a_edge22_Node000002_Node000023"><a xlink:title=" ">
<path fill="none" stroke="#63b8ff" d="M1627.56,-79.13C1692.02,-78.3 1821.64,-71.5 1923.38,-33.5 1923.87,-33.32 1924.36,-33.12 1924.85,-32.92"/>
<polygon fill="#63b8ff" stroke="#63b8ff" points="1926.3,-36.11 1933.41,-28.26 1922.95,-29.96 1926.3,-36.11"/>
</a>
</g>
</g>
<!-- Node24 -->
<g id="Node000024" class="node">
<title>Node24</title>
<g id="a_Node000024"><a xlink:title=" ">
<polygon fill="#e0e0e0" stroke="#999999" points="2022.12,-27.12 1980.62,-27.12 1980.62,-6.38 2022.12,-6.38 2022.12,-27.12"/>
<text xml:space="preserve" text-anchor="middle" x="2001.38" y="-13.62" font-family="Helvetica,sans-Serif" font-size="10.00">array</text>
</a>
</g>
</g>
<!-- Node2&#45;&gt;Node24 -->
<g id="edge23_Node000002_Node000024" class="edge">
<title>Node2&#45;&gt;Node24</title>
<g id="a_edge23_Node000002_Node000024"><a xlink:title=" ">
<path fill="none" stroke="#63b8ff" d="M1627.49,-79.09C1698.66,-78.4 1850.98,-72.04 1972.38,-33.5 1973.52,-33.14 1974.68,-32.73 1975.83,-32.28"/>
<polygon fill="#63b8ff" stroke="#63b8ff" points="1976.97,-35.61 1984.53,-28.2 1973.99,-29.27 1976.97,-35.61"/>
</a>
</g>
</g>
<!-- Node25 -->
<g id="Node000025" class="node">
<title>Node25</title>
<g id="a_Node000025"><a xlink:title=" ">
<polygon fill="#e0e0e0" stroke="#999999" points="2084.25,-27.12 2040.5,-27.12 2040.5,-6.38 2084.25,-6.38 2084.25,-27.12"/>
<text xml:space="preserve" text-anchor="middle" x="2062.38" y="-13.62" font-family="Helvetica,sans-Serif" font-size="10.00">string</text>
</a>
</g>
</g>
<!-- Node2&#45;&gt;Node25 -->
<g id="edge24_Node000002_Node000025" class="edge">
<title>Node2&#45;&gt;Node25</title>
<g id="a_edge24_Node000002_Node000025"><a xlink:title=" ">
<path fill="none" stroke="#63b8ff" d="M1627.51,-79.64C1706.54,-80.1 1887.16,-75.9 2031.38,-33.5 2032.74,-33.1 2034.12,-32.64 2035.5,-32.13"/>
<polygon fill="#63b8ff" stroke="#63b8ff" points="2036.67,-35.44 2044.4,-28.2 2033.84,-29.04 2036.67,-35.44"/>
</a>
</g>
</g>
<!-- Node26 -->
<g id="Node000026" class="node">
<title>Node26</title>
<g id="a_Node000026"><a xlink:title=" ">
<polygon fill="#e0e0e0" stroke="#999999" points="2166.75,-27.12 2102,-27.12 2102,-6.38 2166.75,-6.38 2166.75,-27.12"/>
<text xml:space="preserve" text-anchor="middle" x="2134.38" y="-13.62" font-family="Helvetica,sans-Serif" font-size="10.00">functional</text>
</a>
</g>
</g>
<!-- Node2&#45;&gt;Node26 -->
<g id="edge25_Node000002_Node000026" class="edge">
<title>Node2&#45;&gt;Node26</title>
<g id="a_edge25_Node000002_Node000026"><a xlink:title=" ">
<path fill="none" stroke="#63b8ff" d="M1627.66,-79.02C1714.13,-78.52 1923.48,-72.94 2093.38,-33.5 2096.01,-32.89 2098.7,-32.15 2101.38,-31.32"/>
<polygon fill="#63b8ff" stroke="#63b8ff" points="2102.45,-34.65 2110.74,-28.06 2100.15,-28.04 2102.45,-34.65"/>
</a>
</g>
</g>
<!-- Node27 -->
<g id="Node000027" class="node">
<title>Node27</title>
<g id="a_Node000027"><a xlink:title=" ">
<polygon fill="#e0e0e0" stroke="#999999" points="2277.62,-27.12 2185.12,-27.12 2185.12,-6.38 2277.62,-6.38 2277.62,-27.12"/>
<text xml:space="preserve" text-anchor="middle" x="2231.38" y="-13.62" font-family="Helvetica,sans-Serif" font-size="10.00">unordered_map</text>
</a>
</g>
</g>
<!-- Node2&#45;&gt;Node27 -->
<g id="edge26_Node000002_Node000027" class="edge">
<title>Node2&#45;&gt;Node27</title>
<g id="a_edge26_Node000002_Node000027"><a xlink:title=" ">
<path fill="none" stroke="#63b8ff" d="M1627.64,-78.49C1723.36,-76.99 1971.73,-69.63 2175.38,-33.5 2180.02,-32.68 2184.83,-31.63 2189.59,-30.47"/>
<polygon fill="#63b8ff" stroke="#63b8ff" points="2190.28,-33.91 2199.06,-27.98 2188.5,-27.14 2190.28,-33.91"/>
</a>
</g>
</g>
<!-- Node28 -->
<g id="Node000028" class="node">
<title>Node28</title>
<g id="a_Node000028"><a xlink:title=" ">
<polygon fill="#e0e0e0" stroke="#999999" points="2340.62,-27.12 2296.12,-27.12 2296.12,-6.38 2340.62,-6.38 2340.62,-27.12"/>
<text xml:space="preserve" text-anchor="middle" x="2318.38" y="-13.62" font-family="Helvetica,sans-Serif" font-size="10.00">utility</text>
</a>
</g>
</g>
<!-- Node2&#45;&gt;Node28 -->
<g id="edge27_Node000002_Node000028" class="edge">
<title>Node2&#45;&gt;Node28</title>
<g id="a_edge27_Node000002_Node000028"><a xlink:title=" ">
<path fill="none" stroke="#63b8ff" d="M1627.49,-78.32C1756.67,-76.23 2160.66,-67.09 2286.38,-33.5 2287.98,-33.07 2289.61,-32.56 2291.22,-31.98"/>
<polygon fill="#63b8ff" stroke="#63b8ff" points="2292.38,-35.29 2300.2,-28.14 2289.63,-28.86 2292.38,-35.29"/>
</a>
</g>
</g>
<!-- Node29 -->
<g id="Node000029" class="node">
<title>Node29</title>
<g id="a_Node000029"><a xlink:title=" ">
<polygon fill="#e0e0e0" stroke="#999999" points="2407.88,-27.12 2358.88,-27.12 2358.88,-6.38 2407.88,-6.38 2407.88,-27.12"/>
<text xml:space="preserve" text-anchor="middle" x="2383.38" y="-13.62" font-family="Helvetica,sans-Serif" font-size="10.00">chrono</text>
</a>
</g>
</g>
<!-- Node2&#45;&gt;Node29 -->
<g id="edge28_Node000002_Node000029" class="edge">
<title>Node2&#45;&gt;Node29</title>
<g id="a_edge28_Node000002_Node000029"><a xlink:title=" ">
<path fill="none" stroke="#63b8ff" d="M1627.68,-78.45C1764.56,-76.7 2210.74,-68.4 2349.38,-33.5 2351.24,-33.03 2353.13,-32.46 2355.01,-31.82"/>
<polygon fill="#63b8ff" stroke="#63b8ff" points="2356.14,-35.13 2364.08,-28.13 2353.5,-28.65 2356.14,-35.13"/>
</a>
</g>
</g>
<!-- Node30 -->
<g id="Node000030" class="node">
<title>Node30</title>
<g id="a_Node000030"><a xlink:title=" ">
<polygon fill="#e0e0e0" stroke="#999999" points="2480.5,-27.12 2426.25,-27.12 2426.25,-6.38 2480.5,-6.38 2480.5,-27.12"/>
<text xml:space="preserve" text-anchor="middle" x="2453.38" y="-13.62" font-family="Helvetica,sans-Serif" font-size="10.00">fstream</text>
</a>
</g>
</g>
<!-- Node2&#45;&gt;Node30 -->
<g id="edge29_Node000002_Node000030" class="edge">
<title>Node2&#45;&gt;Node30</title>
<g id="a_edge29_Node000002_Node000030"><a xlink:title=" ">
<path fill="none" stroke="#63b8ff" d="M1627.69,-78.57C1772.33,-77.18 2264.69,-69.82 2417.38,-33.5 2419.52,-32.99 2421.69,-32.36 2423.85,-31.65"/>
<polygon fill="#63b8ff" stroke="#63b8ff" points="2424.91,-34.99 2432.97,-28.11 2422.38,-28.46 2424.91,-34.99"/>
</a>
</g>
</g>
<!-- Node31 -->
<g id="Node000031" class="node">
<title>Node31</title>
<g id="a_Node000031"><a xlink:title=" ">
<polygon fill="#e0e0e0" stroke="#999999" points="2544,-27.12 2498.75,-27.12 2498.75,-6.38 2544,-6.38 2544,-27.12"/>
<text xml:space="preserve" text-anchor="middle" x="2521.38" y="-13.62" font-family="Helvetica,sans-Serif" font-size="10.00">future</text>
</a>
</g>
</g>
<!-- Node2&#45;&gt;Node31 -->
<g id="edge30_Node000002_Node000031" class="edge">
<title>Node2&#45;&gt;Node31</title>
<g id="a_edge30_Node000002_Node000031"><a xlink:title=" ">
<path fill="none" stroke="#63b8ff" d="M1627.52,-79.01C1779.99,-79.17 2323,-76.66 2489.38,-33.5 2490.99,-33.08 2492.61,-32.58 2494.23,-32.01"/>
<polygon fill="#63b8ff" stroke="#63b8ff" points="2495.38,-35.33 2503.21,-28.19 2492.64,-28.89 2495.38,-35.33"/>
</a>
</g>
</g>
<!-- Node32 -->
<g id="Node000032" class="node">
<title>Node32</title>
<g id="a_Node000032"><a xlink:title=" ">
<polygon fill="#e0e0e0" stroke="#999999" points="2616.88,-27.12 2561.88,-27.12 2561.88,-6.38 2616.88,-6.38 2616.88,-27.12"/>
<text xml:space="preserve" text-anchor="middle" x="2589.38" y="-13.62" font-family="Helvetica,sans-Serif" font-size="10.00">unistd.h</text>
</a>
</g>
</g>
<!-- Node2&#45;&gt;Node32 -->
<g id="edge31_Node000002_Node000032" class="edge">
<title>Node2&#45;&gt;Node32</title>
<g id="a_edge31_Node000002_Node000032"><a xlink:title=" ">
<path fill="none" stroke="#63b8ff" d="M1627.55,-78.93C1786.72,-78.85 2373.13,-75.64 2553.38,-33.5 2555.52,-33 2557.69,-32.37 2559.85,-31.67"/>
<polygon fill="#63b8ff" stroke="#63b8ff" points="2560.91,-35.01 2568.98,-28.14 2558.39,-28.48 2560.91,-35.01"/>
</a>
</g>
</g>
<!-- Node33&#45;&gt;Node2 -->
<g id="edge33_Node000033_Node000002" class="edge">
<title>Node33&#45;&gt;Node2</title>
<g id="a_edge33_Node000033_Node000002"><a xlink:title=" ">
<path fill="none" stroke="#63b8ff" d="M1487.46,-296.27C1498.59,-278.45 1522.63,-238.91 1539.38,-203.75 1556.13,-168.57 1571.82,-125.87 1580.46,-101.19"/>
<polygon fill="#63b8ff" stroke="#63b8ff" points="1583.65,-102.66 1583.61,-92.06 1577.03,-100.37 1583.65,-102.66"/>
</a>
</g>
</g>
<!-- Node34 -->
<g id="Node000034" class="node">
<title>Node34</title>
<g id="a_Node000034"><a xlink:href="cstm__types_8h.html" target="_top" xlink:title=" ">
<polygon fill="white" stroke="#666666" points="1326.75,-147 1220,-147 1220,-126.25 1326.75,-126.25 1326.75,-147"/>
<text xml:space="preserve" text-anchor="middle" x="1273.38" y="-133.5" font-family="Helvetica,sans-Serif" font-size="10.00">Utils/cstm_types.h</text>
</a>
</g>
</g>
<!-- Node33&#45;&gt;Node34 -->
<g id="edge34_Node000033_Node000034" class="edge">
<title>Node33&#45;&gt;Node34</title>
<g id="a_edge34_Node000033_Node000034"><a xlink:title=" ">
<path fill="none" stroke="#63b8ff" d="M1420.07,-296.98C1392.97,-290.52 1362.16,-279.44 1339.38,-260.5 1306.6,-233.25 1287.69,-185.37 1279.08,-158.12"/>
<polygon fill="#63b8ff" stroke="#63b8ff" points="1282.47,-157.24 1276.26,-148.65 1275.76,-159.24 1282.47,-157.24"/>
</a>
</g>
</g>
<!-- Node35 -->
<g id="Node000035" class="node">
<title>Node35</title>
<g id="a_Node000035"><a xlink:href="VulkanInstance_8h.html" target="_top" xlink:title=" ">
<polygon fill="white" stroke="#666666" points="1472.38,-260.5 1348.38,-260.5 1348.38,-239.75 1472.38,-239.75 1472.38,-260.5"/>
<text xml:space="preserve" text-anchor="middle" x="1410.38" y="-247" font-family="Helvetica,sans-Serif" font-size="10.00">Core/VulkanInstance.h</text>
</a>
</g>
</g>
<!-- Node33&#45;&gt;Node35 -->
<g id="edge36_Node000033_Node000035" class="edge">
<title>Node33&#45;&gt;Node35</title>
<g id="a_edge36_Node000033_Node000035"><a xlink:title=" ">
<path fill="none" stroke="#63b8ff" d="M1468.68,-296.09C1458.48,-288.22 1443.93,-277 1431.92,-267.74"/>
<polygon fill="#63b8ff" stroke="#63b8ff" points="1434.21,-265.09 1424.16,-261.75 1429.94,-270.63 1434.21,-265.09"/>
</a>
</g>
</g>
<!-- Node34&#45;&gt;Node2 -->
<g id="edge35_Node000034_Node000002" class="edge">
<title>Node34&#45;&gt;Node2</title>
<g id="a_edge35_Node000034_Node000002"><a xlink:title=" ">
<path fill="none" stroke="#63b8ff" d="M1327,-126.28C1385.62,-116.05 1478.86,-99.8 1536.41,-89.76"/>
<polygon fill="#63b8ff" stroke="#63b8ff" points="1536.69,-93.27 1545.94,-88.1 1535.48,-86.37 1536.69,-93.27"/>
</a>
</g>
</g>
<!-- Node35&#45;&gt;Node2 -->
<g id="edge37_Node000035_Node000002" class="edge">
<title>Node35&#45;&gt;Node2</title>
<g id="a_edge37_Node000035_Node000002"><a xlink:title=" ">
<path fill="none" stroke="#63b8ff" d="M1395.69,-239.56C1384.77,-231.49 1370.69,-218.86 1364.38,-203.75 1356.11,-183.98 1366.35,-134.56 1374.38,-126.25 1396.25,-103.58 1479.91,-91.2 1535.64,-85.32"/>
<polygon fill="#63b8ff" stroke="#63b8ff" points="1535.97,-88.8 1545.57,-84.31 1535.27,-81.83 1535.97,-88.8"/>
</a>
</g>
</g>
<!-- Node36 -->
<g id="Node000036" class="node">
<title>Node36</title>
<g id="a_Node000036"><a xlink:href="helperFuncs_8h.html" target="_top" xlink:title=" ">
<polygon fill="white" stroke="#666666" points="1491.88,-147 1382.88,-147 1382.88,-126.25 1491.88,-126.25 1491.88,-147"/>
<text xml:space="preserve" text-anchor="middle" x="1437.38" y="-133.5" font-family="Helvetica,sans-Serif" font-size="10.00">Utils/helperFuncs.h</text>
</a>
</g>
</g>
<!-- Node35&#45;&gt;Node36 -->
<g id="edge38_Node000035_Node000036" class="edge">
<title>Node35&#45;&gt;Node36</title>
<g id="a_edge38_Node000035_Node000036"><a xlink:title=" ">
<path fill="none" stroke="#63b8ff" d="M1397.61,-239.44C1382.48,-226.7 1360.58,-203.52 1371.38,-183 1378.15,-170.12 1390.42,-160.18 1402.56,-152.94"/>
<polygon fill="#63b8ff" stroke="#63b8ff" points="1404.16,-156.06 1411.27,-148.21 1400.82,-149.9 1404.16,-156.06"/>
</a>
</g>
</g>
<!-- Node37 -->
<g id="Node000037" class="node">
<title>Node37</title>
<g id="a_Node000037"><a xlink:href="DebugManager_8h.html" target="_top" xlink:title=" ">
<polygon fill="white" stroke="#666666" points="1530.12,-203.75 1380.62,-203.75 1380.62,-183 1530.12,-183 1530.12,-203.75"/>
<text xml:space="preserve" text-anchor="middle" x="1455.38" y="-190.25" font-family="Helvetica,sans-Serif" font-size="10.00">Managers/DebugManager.h</text>
</a>
</g>
</g>
<!-- Node35&#45;&gt;Node37 -->
<g id="edge40_Node000035_Node000037" class="edge">
<title>Node35&#45;&gt;Node37</title>
<g id="a_edge40_Node000035_Node000037"><a xlink:title=" ">
<path fill="none" stroke="#63b8ff" d="M1418.42,-239.34C1424.44,-232.02 1432.84,-221.79 1440.12,-212.94"/>
<polygon fill="#63b8ff" stroke="#63b8ff" points="1442.79,-215.2 1446.44,-205.25 1437.38,-210.75 1442.79,-215.2"/>
</a>
</g>
</g>
<!-- Node36&#45;&gt;Node2 -->
<g id="edge39_Node000036_Node000002" class="edge">
<title>Node36&#45;&gt;Node2</title>
<g id="a_edge39_Node000036_Node000002"><a xlink:title=" ">
<path fill="none" stroke="#63b8ff" d="M1464.19,-125.84C1488.11,-117.11 1523.38,-104.23 1550.05,-94.5"/>
<polygon fill="#63b8ff" stroke="#63b8ff" points="1550.92,-97.91 1559.12,-91.19 1548.52,-91.33 1550.92,-97.91"/>
</a>
</g>
</g>
<!-- Node37&#45;&gt;Node2 -->
<g id="edge41_Node000037_Node000002" class="edge">
<title>Node37&#45;&gt;Node2</title>
<g id="a_edge41_Node000037_Node000002"><a xlink:title=" ">
<path fill="none" stroke="#63b8ff" d="M1466.63,-182.87C1488.92,-164.04 1538.97,-121.76 1567.13,-97.97"/>
<polygon fill="#63b8ff" stroke="#63b8ff" points="1569.24,-100.78 1574.62,-91.65 1564.72,-95.43 1569.24,-100.78"/>
</a>
</g>
</g>
<!-- Node37&#45;&gt;Node36 -->
<g id="edge42_Node000037_Node000036" class="edge">
<title>Node37&#45;&gt;Node36</title>
<g id="a_edge42_Node000037_Node000036"><a xlink:title=" ">
<path fill="none" stroke="#63b8ff" d="M1452.16,-182.59C1449.93,-175.81 1446.88,-166.55 1444.14,-158.19"/>
<polygon fill="#63b8ff" stroke="#63b8ff" points="1447.49,-157.17 1441.04,-148.77 1440.84,-159.36 1447.49,-157.17"/>
</a>
</g>
</g>
<!-- Node38&#45;&gt;Node2 -->
<g id="edge44_Node000038_Node000002" class="edge">
<title>Node38&#45;&gt;Node2</title>
<g id="a_edge44_Node000038_Node000002"><a xlink:title=" ">
<path fill="none" stroke="#63b8ff" d="M1692.09,-239.6C1674.39,-212.77 1623.88,-136.21 1600.08,-100.13"/>
<polygon fill="#63b8ff" stroke="#63b8ff" points="1603.13,-98.4 1594.7,-91.98 1597.29,-102.26 1603.13,-98.4"/>
</a>
</g>
</g>
<!-- Node39 -->
<g id="Node000039" class="node">
<title>Node39</title>
<g id="a_Node000039"><a xlink:href="Buffer_8h.html" target="_top" xlink:title=" ">
<polygon fill="white" stroke="#666666" points="1831.62,-203.75 1727.12,-203.75 1727.12,-183 1831.62,-183 1831.62,-203.75"/>
<text xml:space="preserve" text-anchor="middle" x="1779.38" y="-190.25" font-family="Helvetica,sans-Serif" font-size="10.00">Managers/Buffer.h</text>
</a>
</g>
</g>
<!-- Node38&#45;&gt;Node39 -->
<g id="edge45_Node000038_Node000039" class="edge">
<title>Node38&#45;&gt;Node39</title>
<g id="a_edge45_Node000038_Node000039"><a xlink:title=" ">
<path fill="none" stroke="#63b8ff" d="M1712.86,-239.34C1724.72,-231.32 1741.75,-219.81 1755.61,-210.44"/>
<polygon fill="#63b8ff" stroke="#63b8ff" points="1757.44,-213.43 1763.77,-204.93 1753.52,-207.63 1757.44,-213.43"/>
</a>
</g>
</g>
<!-- Node38&#45;&gt;Node40 -->
<g id="edge49_Node000038_Node000040" class="edge">
<title>Node38&#45;&gt;Node40</title>
<g id="a_edge49_Node000038_Node000040"><a xlink:title=" ">
<path fill="none" stroke="#63b8ff" d="M1698.38,-239.62C1698.38,-221.85 1698.38,-183.22 1698.38,-158.93"/>
<polygon fill="#63b8ff" stroke="#63b8ff" points="1701.88,-158.94 1698.38,-148.94 1694.88,-158.94 1701.88,-158.94"/>
</a>
</g>
</g>
<!-- Node39&#45;&gt;Node2 -->
<g id="edge46_Node000039_Node000002" class="edge">
<title>Node39&#45;&gt;Node2</title>
<g id="a_edge46_Node000039_Node000002"><a xlink:title=" ">
<path fill="none" stroke="#63b8ff" d="M1779.59,-182.81C1779.37,-168.48 1776.77,-141.48 1761.38,-126.25 1729.06,-94.28 1677.2,-84 1638.5,-81.07"/>
<polygon fill="#63b8ff" stroke="#63b8ff" points="1639.15,-77.61 1628.96,-80.5 1638.73,-84.6 1639.15,-77.61"/>
</a>
</g>
</g>
<!-- Node39&#45;&gt;Node40 -->
<g id="edge47_Node000039_Node000040" class="edge">
<title>Node39&#45;&gt;Node40</title>
<g id="a_edge47_Node000039_Node000040"><a xlink:title=" ">
<path fill="none" stroke="#63b8ff" d="M1764.89,-182.59C1753.03,-174.57 1736,-163.06 1722.14,-153.69"/>
<polygon fill="#63b8ff" stroke="#63b8ff" points="1724.23,-150.88 1713.98,-148.18 1720.31,-156.68 1724.23,-150.88"/>
</a>
</g>
</g>
<!-- Node40&#45;&gt;Node2 -->
<g id="edge48_Node000040_Node000002" class="edge">
<title>Node40&#45;&gt;Node2</title>
<g id="a_edge48_Node000040_Node000002"><a xlink:title=" ">
<path fill="none" stroke="#63b8ff" d="M1678.53,-125.84C1661.48,-117.43 1636.65,-105.18 1617.21,-95.59"/>
<polygon fill="#63b8ff" stroke="#63b8ff" points="1618.92,-92.53 1608.41,-91.25 1615.83,-98.81 1618.92,-92.53"/>
</a>
</g>
</g>
<!-- Node41&#45;&gt;Node2 -->
<g id="edge51_Node000041_Node000002" class="edge">
<title>Node41&#45;&gt;Node2</title>
<g id="a_edge51_Node000041_Node000002"><a xlink:title=" ">
<path fill="none" stroke="#63b8ff" d="M2003.94,-296.1C1993.64,-274.13 1966.38,-219.88 1932.38,-183 1903.56,-151.74 1894.51,-142.86 1855.38,-126.25 1784.2,-96.04 1694.35,-85.91 1638.89,-82.54"/>
<polygon fill="#63b8ff" stroke="#63b8ff" points="1639.28,-79.05 1629.11,-82 1638.9,-86.04 1639.28,-79.05"/>
</a>
</g>
</g>
<!-- Node42 -->
<g id="Node000042" class="node">
<title>Node42</title>
<g id="a_Node000042"><a xlink:href="stb__image_8h.html" target="_top" xlink:title=" ">
<polygon fill="white" stroke="#666666" points="2156.12,-260.5 2036.62,-260.5 2036.62,-239.75 2156.12,-239.75 2156.12,-260.5"/>
<text xml:space="preserve" text-anchor="middle" x="2096.38" y="-247" font-family="Helvetica,sans-Serif" font-size="10.00">External/stb_image.h</text>
</a>
</g>
</g>
<!-- Node41&#45;&gt;Node42 -->
<g id="edge52_Node000041_Node000042" class="edge">
<title>Node41&#45;&gt;Node42</title>
<g id="a_edge52_Node000041_Node000042"><a xlink:title=" ">
<path fill="none" stroke="#63b8ff" d="M2024.11,-296.09C2037.25,-287.91 2056.22,-276.11 2071.43,-266.65"/>
<polygon fill="#63b8ff" stroke="#63b8ff" points="2072.85,-269.88 2079.49,-261.63 2069.15,-263.94 2072.85,-269.88"/>
</a>
</g>
</g>
<!-- Node43 -->
<g id="Node000043" class="node">
<title>Node43</title>
<g id="a_Node000043"><a xlink:title=" ">
<polygon fill="#e0e0e0" stroke="#999999" points="2102.88,-203.75 2053.88,-203.75 2053.88,-183 2102.88,-183 2102.88,-203.75"/>
<text xml:space="preserve" text-anchor="middle" x="2078.38" y="-190.25" font-family="Helvetica,sans-Serif" font-size="10.00">stdio.h</text>
</a>
</g>
</g>
<!-- Node42&#45;&gt;Node43 -->
<g id="edge53_Node000042_Node000043" class="edge">
<title>Node42&#45;&gt;Node43</title>
<g id="a_edge53_Node000042_Node000043"><a xlink:title=" ">
<path fill="none" stroke="#63b8ff" d="M2093.16,-239.34C2090.93,-232.56 2087.88,-223.3 2085.14,-214.94"/>
<polygon fill="#63b8ff" stroke="#63b8ff" points="2088.49,-213.92 2082.04,-205.52 2081.84,-216.11 2088.49,-213.92"/>
</a>
</g>
</g>
<!-- Node44 -->
<g id="Node000044" class="node">
<title>Node44</title>
<g id="a_Node000044"><a xlink:title=" ">
<polygon fill="#e0e0e0" stroke="#999999" points="2173.38,-203.75 2121.38,-203.75 2121.38,-183 2173.38,-183 2173.38,-203.75"/>
<text xml:space="preserve" text-anchor="middle" x="2147.38" y="-190.25" font-family="Helvetica,sans-Serif" font-size="10.00">stdlib.h</text>
</a>
</g>
</g>
<!-- Node42&#45;&gt;Node44 -->
<g id="edge54_Node000042_Node000044" class="edge">
<title>Node42&#45;&gt;Node44</title>
<g id="a_edge54_Node000042_Node000044"><a xlink:title=" ">
<path fill="none" stroke="#63b8ff" d="M2105.49,-239.34C2112.46,-231.86 2122.24,-221.36 2130.61,-212.38"/>
<polygon fill="#63b8ff" stroke="#63b8ff" points="2133.05,-214.89 2137.3,-205.19 2127.93,-210.12 2133.05,-214.89"/>
</a>
</g>
</g>
<!-- Node45&#45;&gt;Node2 -->
<g id="edge57_Node000045_Node000002" class="edge">
<title>Node45&#45;&gt;Node2</title>
<g id="a_edge57_Node000045_Node000002"><a xlink:title=" ">
<path fill="none" stroke="#63b8ff" d="M1899.54,-296.04C1928.54,-285.46 1964.17,-266.48 1951.38,-239.75 1895.44,-122.91 1725.57,-92 1639.12,-83.82"/>
<polygon fill="#63b8ff" stroke="#63b8ff" points="1639.52,-80.34 1629.25,-82.96 1638.91,-87.31 1639.52,-80.34"/>
</a>
</g>
</g>
<!-- Node45&#45;&gt;Node46 -->
<g id="edge58_Node000045_Node000046" class="edge">
<title>Node45&#45;&gt;Node46</title>
<g id="a_edge58_Node000045_Node000046"><a xlink:title=" ">
<path fill="none" stroke="#63b8ff" d="M1866.38,-296.09C1866.38,-289.47 1866.38,-280.47 1866.38,-272.27"/>
<polygon fill="#63b8ff" stroke="#63b8ff" points="1869.88,-272.34 1866.38,-262.34 1862.88,-272.34 1869.88,-272.34"/>
</a>
</g>
</g>
<!-- Node46&#45;&gt;Node2 -->
<g id="edge59_Node000046_Node000002" class="edge">
<title>Node46&#45;&gt;Node2</title>
<g id="a_edge59_Node000046_Node000002"><a xlink:title=" ">
<path fill="none" stroke="#63b8ff" d="M1864.01,-239.53C1860.39,-226.09 1852.59,-201.25 1840.38,-183 1820.14,-152.76 1813.34,-143.62 1781.38,-126.25 1736.75,-101.99 1679.48,-90.63 1638.76,-85.36"/>
<polygon fill="#63b8ff" stroke="#63b8ff" points="1639.33,-81.9 1628.98,-84.18 1638.49,-88.85 1639.33,-81.9"/>
</a>
</g>
</g>
<!-- Node46&#45;&gt;Node39 -->
<g id="edge60_Node000046_Node000039" class="edge">
<title>Node46&#45;&gt;Node39</title>
<g id="a_edge60_Node000046_Node000039"><a xlink:title=" ">
<path fill="none" stroke="#63b8ff" d="M1850.82,-239.34C1837.95,-231.24 1819.43,-219.58 1804.47,-210.17"/>
<polygon fill="#63b8ff" stroke="#63b8ff" points="1806.4,-207.25 1796.08,-204.88 1802.67,-213.17 1806.4,-207.25"/>
</a>
</g>
</g>
</g>
</svg>
