<?xml version="1.0" encoding="UTF-8" standalone="no"?>
<!DOCTYPE svg PUBLIC "-//W3C//DTD SVG 1.1//EN"
 "http://www.w3.org/Graphics/SVG/1.1/DTD/svg11.dtd">
<!-- Generated by graphviz version 13.0.0 (0)
 -->
<!-- Title: MeshManager.cpp Pages: 1 -->
<svg width="371pt" height="98pt"
 viewBox="0.00 0.00 371.00 98.00" xmlns="http://www.w3.org/2000/svg" xmlns:xlink="http://www.w3.org/1999/xlink">
<g id="graph0" class="graph" transform="scale(1 1) rotate(0) translate(4 94.25)">
<title>MeshManager.cpp</title>
<!-- Node1 -->
<g id="Node000001" class="node">
<title>Node1</title>
<g id="a_Node000001"><a xlink:title=" ">
<polygon fill="#999999" stroke="#666666" points="236.88,-90.25 132.38,-90.25 132.38,-69.5 236.88,-69.5 236.88,-90.25"/>
<text xml:space="preserve" text-anchor="middle" x="184.62" y="-76.75" font-family="Helvetica,sans-Serif" font-size="10.00">MeshManager.cpp</text>
</a>
</g>
</g>
<!-- Node2 -->
<g id="Node000002" class="node">
<title>Node2</title>
<g id="a_Node000002"><a xlink:title=" ">
<polygon fill="#e0e0e0" stroke="#999999" points="111.25,-33.5 0,-33.5 0,0 111.25,0 111.25,-33.5"/>
<text xml:space="preserve" text-anchor="start" x="8" y="-20" font-family="Helvetica,sans-Serif" font-size="10.00">../include/Managers</text>
<text xml:space="preserve" text-anchor="middle" x="55.62" y="-7.25" font-family="Helvetica,sans-Serif" font-size="10.00">/MeshManager.h</text>
</a>
</g>
</g>
<!-- Node1&#45;&gt;Node2 -->
<g id="edge1_Node000001_Node000002" class="edge">
<title>Node1&#45;&gt;Node2</title>
<g id="a_edge1_Node000001_Node000002"><a xlink:title=" ">
<path fill="none" stroke="#63b8ff" d="M163.9,-69.05C146.76,-60.93 121.82,-49.11 100.19,-38.87"/>
<polygon fill="#63b8ff" stroke="#63b8ff" points="101.79,-35.75 91.26,-34.63 98.79,-42.08 101.79,-35.75"/>
</a>
</g>
</g>
<!-- Node3 -->
<g id="Node000003" class="node">
<title>Node3</title>
<g id="a_Node000003"><a xlink:title=" ">
<polygon fill="#e0e0e0" stroke="#999999" points="240.25,-33.5 129,-33.5 129,0 240.25,0 240.25,-33.5"/>
<text xml:space="preserve" text-anchor="start" x="137" y="-20" font-family="Helvetica,sans-Serif" font-size="10.00">../include/Managers</text>
<text xml:space="preserve" text-anchor="middle" x="184.62" y="-7.25" font-family="Helvetica,sans-Serif" font-size="10.00">/Buffer.h</text>
</a>
</g>
</g>
<!-- Node1&#45;&gt;Node3 -->
<g id="edge2_Node000001_Node000003" class="edge">
<title>Node1&#45;&gt;Node3</title>
<g id="a_edge2_Node000001_Node000003"><a xlink:title=" ">
<path fill="none" stroke="#63b8ff" d="M184.62,-69.05C184.62,-62.63 184.62,-53.9 184.62,-45.45"/>
<polygon fill="#63b8ff" stroke="#63b8ff" points="188.13,-45.5 184.63,-35.5 181.13,-45.5 188.13,-45.5"/>
</a>
</g>
</g>
<!-- Node4 -->
<g id="Node000004" class="node">
<title>Node4</title>
<g id="a_Node000004"><a xlink:title=" ">
<polygon fill="#e0e0e0" stroke="#999999" points="362.5,-33.5 258.75,-33.5 258.75,0 362.5,0 362.5,-33.5"/>
<text xml:space="preserve" text-anchor="start" x="266.75" y="-20" font-family="Helvetica,sans-Serif" font-size="10.00">../include/External</text>
<text xml:space="preserve" text-anchor="middle" x="310.62" y="-7.25" font-family="Helvetica,sans-Serif" font-size="10.00">/tiny_obj_loader.h</text>
</a>
</g>
</g>
<!-- Node1&#45;&gt;Node4 -->
<g id="edge3_Node000001_Node000004" class="edge">
<title>Node1&#45;&gt;Node4</title>
<g id="a_edge3_Node000001_Node000004"><a xlink:title=" ">
<path fill="none" stroke="#63b8ff" d="M204.87,-69.05C221.53,-60.97 245.75,-49.22 266.81,-39.01"/>
<polygon fill="#63b8ff" stroke="#63b8ff" points="268.33,-42.16 275.8,-34.65 265.27,-35.86 268.33,-42.16"/>
</a>
</g>
</g>
</g>
</svg>
