<?xml version="1.0" encoding="UTF-8" standalone="no"?>
<!DOCTYPE svg PUBLIC "-//W3C//DTD SVG 1.1//EN"
 "http://www.w3.org/Graphics/SVG/1.1/DTD/svg11.dtd">
<!-- Generated by graphviz version 13.0.0 (0)
 -->
<!-- Title: Renderer.cpp Pages: 1 -->
<svg width="2982pt" height="98pt"
 viewBox="0.00 0.00 2982.00 98.00" xmlns="http://www.w3.org/2000/svg" xmlns:xlink="http://www.w3.org/1999/xlink">
<g id="graph0" class="graph" transform="scale(1 1) rotate(0) translate(4 94.25)">
<title>Renderer.cpp</title>
<!-- Node1 -->
<g id="Node000001" class="node">
<title>Node1</title>
<g id="a_Node000001"><a xlink:title=" ">
<polygon fill="#999999" stroke="#666666" points="1633.25,-90.25 1553.5,-90.25 1553.5,-69.5 1633.25,-69.5 1633.25,-90.25"/>
<text xml:space="preserve" text-anchor="middle" x="1593.38" y="-76.75" font-family="Helvetica,sans-Serif" font-size="10.00">Renderer.cpp</text>
</a>
</g>
</g>
<!-- Node2 -->
<g id="Node000002" class="node">
<title>Node2</title>
<g id="a_Node000002"><a xlink:title=" ">
<polygon fill="#e0e0e0" stroke="#999999" points="166.75,-33.5 0,-33.5 0,0 166.75,0 166.75,-33.5"/>
<text xml:space="preserve" text-anchor="start" x="8" y="-20" font-family="Helvetica,sans-Serif" font-size="10.00">../include/System_Components</text>
<text xml:space="preserve" text-anchor="middle" x="83.38" y="-7.25" font-family="Helvetica,sans-Serif" font-size="10.00">/Renderer.h</text>
</a>
</g>
</g>
<!-- Node1&#45;&gt;Node2 -->
<g id="edge1_Node000001_Node000002" class="edge">
<title>Node1&#45;&gt;Node2</title>
<g id="a_edge1_Node000001_Node000002"><a xlink:title=" ">
<path fill="none" stroke="#63b8ff" d="M1553.28,-78.34C1354.88,-75.57 476.07,-61.96 178.24,-33.67"/>
<polygon fill="#63b8ff" stroke="#63b8ff" points="178.85,-30.22 168.55,-32.72 178.16,-37.18 178.85,-30.22"/>
</a>
</g>
</g>
<!-- Node3 -->
<g id="Node000003" class="node">
<title>Node3</title>
<g id="a_Node000003"><a xlink:title=" ">
<polygon fill="#e0e0e0" stroke="#999999" points="288.25,-33.5 184.5,-33.5 184.5,0 288.25,0 288.25,-33.5"/>
<text xml:space="preserve" text-anchor="start" x="192.5" y="-20" font-family="Helvetica,sans-Serif" font-size="10.00">../include/External</text>
<text xml:space="preserve" text-anchor="middle" x="236.38" y="-7.25" font-family="Helvetica,sans-Serif" font-size="10.00">/tiny_obj_loader.h</text>
</a>
</g>
</g>
<!-- Node1&#45;&gt;Node3 -->
<g id="edge2_Node000001_Node000003" class="edge">
<title>Node1&#45;&gt;Node3</title>
<g id="a_edge2_Node000001_Node000003"><a xlink:title=" ">
<path fill="none" stroke="#63b8ff" d="M1553.27,-78.65C1365.52,-77.4 571.53,-70.1 299.85,-33.59"/>
<polygon fill="#63b8ff" stroke="#63b8ff" points="300.35,-30.12 289.97,-32.2 299.38,-37.06 300.35,-30.12"/>
</a>
</g>
</g>
<!-- Node4 -->
<g id="Node000004" class="node">
<title>Node4</title>
<g id="a_Node000004"><a xlink:title=" ">
<polygon fill="#e0e0e0" stroke="#999999" points="496,-27.12 306.75,-27.12 306.75,-6.38 496,-6.38 496,-27.12"/>
<text xml:space="preserve" text-anchor="middle" x="401.38" y="-13.62" font-family="Helvetica,sans-Serif" font-size="10.00">../include/System_Components/IO.h</text>
</a>
</g>
</g>
<!-- Node1&#45;&gt;Node4 -->
<g id="edge3_Node000001_Node000004" class="edge">
<title>Node1&#45;&gt;Node4</title>
<g id="a_edge3_Node000001_Node000004"><a xlink:title=" ">
<path fill="none" stroke="#63b8ff" d="M1553.26,-78.77C1410.4,-78.07 913.26,-72.77 505.38,-33.5 493.94,-32.4 481.85,-30.89 470.11,-29.24"/>
<polygon fill="#63b8ff" stroke="#63b8ff" points="470.89,-25.81 460.49,-27.83 469.89,-32.74 470.89,-25.81"/>
</a>
</g>
</g>
<!-- Node5 -->
<g id="Node000005" class="node">
<title>Node5</title>
<g id="a_Node000005"><a xlink:title=" ">
<polygon fill="#e0e0e0" stroke="#999999" points="680.75,-33.5 514,-33.5 514,0 680.75,0 680.75,-33.5"/>
<text xml:space="preserve" text-anchor="start" x="522" y="-20" font-family="Helvetica,sans-Serif" font-size="10.00">../include/System_Components</text>
<text xml:space="preserve" text-anchor="middle" x="597.38" y="-7.25" font-family="Helvetica,sans-Serif" font-size="10.00">/GUI.h</text>
</a>
</g>
</g>
<!-- Node1&#45;&gt;Node5 -->
<g id="edge4_Node000001_Node000005" class="edge">
<title>Node1&#45;&gt;Node5</title>
<g id="a_edge4_Node000001_Node000005"><a xlink:title=" ">
<path fill="none" stroke="#63b8ff" d="M1553.14,-78.57C1427.4,-77.24 1030.53,-70.31 692.3,-33.74"/>
<polygon fill="#63b8ff" stroke="#63b8ff" points="692.88,-30.28 682.56,-32.68 692.12,-37.24 692.88,-30.28"/>
</a>
</g>
</g>
<!-- Node6 -->
<g id="Node000006" class="node">
<title>Node6</title>
<g id="a_Node000006"><a xlink:title=" ">
<polygon fill="#e0e0e0" stroke="#999999" points="870,-27.12 698.75,-27.12 698.75,-6.38 870,-6.38 870,-27.12"/>
<text xml:space="preserve" text-anchor="middle" x="784.38" y="-13.62" font-family="Helvetica,sans-Serif" font-size="10.00">../include/Core/VulkanInstance.h</text>
</a>
</g>
</g>
<!-- Node1&#45;&gt;Node6 -->
<g id="edge5_Node000001_Node000006" class="edge">
<title>Node1&#45;&gt;Node6</title>
<g id="a_edge5_Node000001_Node000006"><a xlink:title=" ">
<path fill="none" stroke="#63b8ff" d="M1553.32,-77.77C1444.52,-74.47 1134.46,-63 878.38,-33.5 868.7,-32.39 858.51,-30.95 848.54,-29.4"/>
<polygon fill="#63b8ff" stroke="#63b8ff" points="849.36,-25.99 838.93,-27.86 848.24,-32.9 849.36,-25.99"/>
</a>
</g>
</g>
<!-- Node7 -->
<g id="Node000007" class="node">
<title>Node7</title>
<g id="a_Node000007"><a xlink:title=" ">
<polygon fill="#e0e0e0" stroke="#999999" points="1056.88,-27.12 887.88,-27.12 887.88,-6.38 1056.88,-6.38 1056.88,-27.12"/>
<text xml:space="preserve" text-anchor="middle" x="972.38" y="-13.62" font-family="Helvetica,sans-Serif" font-size="10.00">../include/Core/VulkanDevices.h</text>
</a>
</g>
</g>
<!-- Node1&#45;&gt;Node7 -->
<g id="edge6_Node000001_Node000007" class="edge">
<title>Node1&#45;&gt;Node7</title>
<g id="a_edge6_Node000001_Node000007"><a xlink:title=" ">
<path fill="none" stroke="#63b8ff" d="M1553.18,-76.55C1464.76,-71.19 1246.77,-56.61 1065.38,-33.5 1056.15,-32.32 1046.44,-30.9 1036.92,-29.38"/>
<polygon fill="#63b8ff" stroke="#63b8ff" points="1037.79,-25.98 1027.36,-27.82 1036.67,-32.89 1037.79,-25.98"/>
</a>
</g>
</g>
<!-- Node8 -->
<g id="Node000008" class="node">
<title>Node8</title>
<g id="a_Node000008"><a xlink:title=" ">
<polygon fill="#e0e0e0" stroke="#999999" points="1206.12,-33.5 1074.62,-33.5 1074.62,0 1206.12,0 1206.12,-33.5"/>
<text xml:space="preserve" text-anchor="start" x="1082.62" y="-20" font-family="Helvetica,sans-Serif" font-size="10.00">../include/Core/Graphics</text>
<text xml:space="preserve" text-anchor="middle" x="1140.38" y="-7.25" font-family="Helvetica,sans-Serif" font-size="10.00">Pipeline.h</text>
</a>
</g>
</g>
<!-- Node1&#45;&gt;Node8 -->
<g id="edge7_Node000001_Node000008" class="edge">
<title>Node1&#45;&gt;Node8</title>
<g id="a_edge7_Node000001_Node000008"><a xlink:title=" ">
<path fill="none" stroke="#63b8ff" d="M1553.21,-75.22C1485.94,-68.84 1346.04,-54.51 1217.75,-33.81"/>
<polygon fill="#63b8ff" stroke="#63b8ff" points="1218.5,-30.38 1208.06,-32.22 1217.37,-37.29 1218.5,-30.38"/>
</a>
</g>
</g>
<!-- Node9 -->
<g id="Node000009" class="node">
<title>Node9</title>
<g id="a_Node000009"><a xlink:title=" ">
<polygon fill="#e0e0e0" stroke="#999999" points="1374.5,-27.12 1224.25,-27.12 1224.25,-6.38 1374.5,-6.38 1374.5,-27.12"/>
<text xml:space="preserve" text-anchor="middle" x="1299.38" y="-13.62" font-family="Helvetica,sans-Serif" font-size="10.00">../include/Core/Swapchain.h</text>
</a>
</g>
</g>
<!-- Node1&#45;&gt;Node9 -->
<g id="edge8_Node000001_Node000009" class="edge">
<title>Node1&#45;&gt;Node9</title>
<g id="a_edge8_Node000001_Node000009"><a xlink:title=" ">
<path fill="none" stroke="#63b8ff" d="M1553.11,-70.5C1502.62,-60.01 1415.66,-41.93 1357.84,-29.9"/>
<polygon fill="#63b8ff" stroke="#63b8ff" points="1358.66,-26.5 1348.16,-27.89 1357.24,-33.36 1358.66,-26.5"/>
</a>
</g>
</g>
<!-- Node10 -->
<g id="Node000010" class="node">
<title>Node10</title>
<g id="a_Node000010"><a xlink:title=" ">
<polygon fill="#e0e0e0" stroke="#999999" points="1519.88,-33.5 1392.88,-33.5 1392.88,0 1519.88,0 1519.88,-33.5"/>
<text xml:space="preserve" text-anchor="start" x="1400.88" y="-20" font-family="Helvetica,sans-Serif" font-size="10.00">../include/Managers</text>
<text xml:space="preserve" text-anchor="middle" x="1456.38" y="-7.25" font-family="Helvetica,sans-Serif" font-size="10.00">/SwapchainRecreater.h</text>
</a>
</g>
</g>
<!-- Node1&#45;&gt;Node10 -->
<g id="edge9_Node000001_Node000010" class="edge">
<title>Node1&#45;&gt;Node10</title>
<g id="a_edge9_Node000001_Node000010"><a xlink:title=" ">
<path fill="none" stroke="#63b8ff" d="M1571.36,-69.05C1553,-60.86 1526.19,-48.9 1503.08,-38.59"/>
<polygon fill="#63b8ff" stroke="#63b8ff" points="1504.7,-35.48 1494.14,-34.6 1501.85,-41.87 1504.7,-35.48"/>
</a>
</g>
</g>
<!-- Node11 -->
<g id="Node000011" class="node">
<title>Node11</title>
<g id="a_Node000011"><a xlink:title=" ">
<polygon fill="#e0e0e0" stroke="#999999" points="1649,-33.5 1537.75,-33.5 1537.75,0 1649,0 1649,-33.5"/>
<text xml:space="preserve" text-anchor="start" x="1545.75" y="-20" font-family="Helvetica,sans-Serif" font-size="10.00">../include/Managers</text>
<text xml:space="preserve" text-anchor="middle" x="1593.38" y="-7.25" font-family="Helvetica,sans-Serif" font-size="10.00">/MeshManager.h</text>
</a>
</g>
</g>
<!-- Node1&#45;&gt;Node11 -->
<g id="edge10_Node000001_Node000011" class="edge">
<title>Node1&#45;&gt;Node11</title>
<g id="a_edge10_Node000001_Node000011"><a xlink:title=" ">
<path fill="none" stroke="#63b8ff" d="M1593.38,-69.05C1593.38,-62.63 1593.38,-53.9 1593.38,-45.45"/>
<polygon fill="#63b8ff" stroke="#63b8ff" points="1596.88,-45.5 1593.38,-35.5 1589.88,-45.5 1596.88,-45.5"/>
</a>
</g>
</g>
<!-- Node12 -->
<g id="Node000012" class="node">
<title>Node12</title>
<g id="a_Node000012"><a xlink:title=" ">
<polygon fill="#e0e0e0" stroke="#999999" points="1778,-33.5 1666.75,-33.5 1666.75,0 1778,0 1778,-33.5"/>
<text xml:space="preserve" text-anchor="start" x="1674.75" y="-20" font-family="Helvetica,sans-Serif" font-size="10.00">../include/Managers</text>
<text xml:space="preserve" text-anchor="middle" x="1722.38" y="-7.25" font-family="Helvetica,sans-Serif" font-size="10.00">/BufferManager.h</text>
</a>
</g>
</g>
<!-- Node1&#45;&gt;Node12 -->
<g id="edge11_Node000001_Node000012" class="edge">
<title>Node1&#45;&gt;Node12</title>
<g id="a_edge11_Node000001_Node000012"><a xlink:title=" ">
<path fill="none" stroke="#63b8ff" d="M1614.1,-69.05C1631.24,-60.93 1656.18,-49.11 1677.81,-38.87"/>
<polygon fill="#63b8ff" stroke="#63b8ff" points="1679.21,-42.08 1686.74,-34.63 1676.21,-35.75 1679.21,-42.08"/>
</a>
</g>
</g>
<!-- Node13 -->
<g id="Node000013" class="node">
<title>Node13</title>
<g id="a_Node000013"><a xlink:title=" ">
<polygon fill="#e0e0e0" stroke="#999999" points="1916.5,-33.5 1796.25,-33.5 1796.25,0 1916.5,0 1916.5,-33.5"/>
<text xml:space="preserve" text-anchor="start" x="1804.25" y="-20" font-family="Helvetica,sans-Serif" font-size="10.00">../include/Managers</text>
<text xml:space="preserve" text-anchor="middle" x="1856.38" y="-7.25" font-family="Helvetica,sans-Serif" font-size="10.00">/DescriptorManager.h</text>
</a>
</g>
</g>
<!-- Node1&#45;&gt;Node13 -->
<g id="edge12_Node000001_Node000013" class="edge">
<title>Node1&#45;&gt;Node13</title>
<g id="a_edge12_Node000001_Node000013"><a xlink:title=" ">
<path fill="none" stroke="#63b8ff" d="M1633.61,-69.52C1673.79,-60.19 1736.41,-45.63 1785.03,-34.33"/>
<polygon fill="#63b8ff" stroke="#63b8ff" points="1785.7,-37.77 1794.65,-32.1 1784.12,-30.95 1785.7,-37.77"/>
</a>
</g>
</g>
<!-- Node14 -->
<g id="Node000014" class="node">
<title>Node14</title>
<g id="a_Node000014"><a xlink:title=" ">
<polygon fill="#e0e0e0" stroke="#999999" points="2046,-33.5 1934.75,-33.5 1934.75,0 2046,0 2046,-33.5"/>
<text xml:space="preserve" text-anchor="start" x="1942.75" y="-20" font-family="Helvetica,sans-Serif" font-size="10.00">../include/Managers</text>
<text xml:space="preserve" text-anchor="middle" x="1990.38" y="-7.25" font-family="Helvetica,sans-Serif" font-size="10.00">/ImageManager.h</text>
</a>
</g>
</g>
<!-- Node1&#45;&gt;Node14 -->
<g id="edge13_Node000001_Node000014" class="edge">
<title>Node1&#45;&gt;Node14</title>
<g id="a_edge13_Node000001_Node000014"><a xlink:title=" ">
<path fill="none" stroke="#63b8ff" d="M1633.71,-74.71C1694.38,-68.14 1812.95,-54.18 1923.43,-33.75"/>
<polygon fill="#63b8ff" stroke="#63b8ff" points="1923.76,-37.25 1932.95,-31.97 1922.47,-30.37 1923.76,-37.25"/>
</a>
</g>
</g>
<!-- Node15 -->
<g id="Node000015" class="node">
<title>Node15</title>
<g id="a_Node000015"><a xlink:title=" ">
<polygon fill="#e0e0e0" stroke="#999999" points="2216.62,-27.12 2064.12,-27.12 2064.12,-6.38 2216.62,-6.38 2216.62,-27.12"/>
<text xml:space="preserve" text-anchor="middle" x="2140.38" y="-13.62" font-family="Helvetica,sans-Serif" font-size="10.00">../include/Utils/ThreadPool.h</text>
</a>
</g>
</g>
<!-- Node1&#45;&gt;Node15 -->
<g id="edge14_Node000001_Node000015" class="edge">
<title>Node1&#45;&gt;Node15</title>
<g id="a_edge14_Node000001_Node000015"><a xlink:title=" ">
<path fill="none" stroke="#63b8ff" d="M1633.68,-76.08C1714.11,-70.24 1900.17,-55.46 2055.38,-33.5 2063.45,-32.36 2071.92,-30.99 2080.26,-29.55"/>
<polygon fill="#63b8ff" stroke="#63b8ff" points="2080.78,-33.01 2090.01,-27.81 2079.55,-26.12 2080.78,-33.01"/>
</a>
</g>
</g>
<!-- Node16 -->
<g id="Node000016" class="node">
<title>Node16</title>
<g id="a_Node000016"><a xlink:title=" ">
<polygon fill="#e0e0e0" stroke="#999999" points="2346,-33.5 2234.75,-33.5 2234.75,0 2346,0 2346,-33.5"/>
<text xml:space="preserve" text-anchor="start" x="2242.75" y="-20" font-family="Helvetica,sans-Serif" font-size="10.00">../include/Managers</text>
<text xml:space="preserve" text-anchor="middle" x="2290.38" y="-7.25" font-family="Helvetica,sans-Serif" font-size="10.00">/DebugManager.h</text>
</a>
</g>
</g>
<!-- Node1&#45;&gt;Node16 -->
<g id="edge15_Node000001_Node000016" class="edge">
<title>Node1&#45;&gt;Node16</title>
<g id="a_edge15_Node000001_Node000016"><a xlink:title=" ">
<path fill="none" stroke="#63b8ff" d="M1633.56,-78.3C1732.35,-76.39 1995,-68.34 2223.29,-33.65"/>
<polygon fill="#63b8ff" stroke="#63b8ff" points="2223.63,-37.13 2232.98,-32.15 2222.56,-30.22 2223.63,-37.13"/>
</a>
</g>
</g>
<!-- Node17 -->
<g id="Node000017" class="node">
<title>Node17</title>
<g id="a_Node000017"><a xlink:title=" ">
<polygon fill="#e0e0e0" stroke="#999999" points="2475,-33.5 2363.75,-33.5 2363.75,0 2475,0 2475,-33.5"/>
<text xml:space="preserve" text-anchor="start" x="2371.75" y="-20" font-family="Helvetica,sans-Serif" font-size="10.00">../include/Managers</text>
<text xml:space="preserve" text-anchor="middle" x="2419.38" y="-7.25" font-family="Helvetica,sans-Serif" font-size="10.00">/Buffer.h</text>
</a>
</g>
</g>
<!-- Node1&#45;&gt;Node17 -->
<g id="edge16_Node000001_Node000017" class="edge">
<title>Node1&#45;&gt;Node17</title>
<g id="a_edge16_Node000001_Node000017"><a xlink:title=" ">
<path fill="none" stroke="#63b8ff" d="M1633.71,-79.04C1746.23,-78.97 2073.08,-75.05 2352.14,-33.83"/>
<polygon fill="#63b8ff" stroke="#63b8ff" points="2352.43,-37.33 2361.8,-32.39 2351.39,-30.41 2352.43,-37.33"/>
</a>
</g>
</g>
<!-- Node18 -->
<g id="Node000018" class="node">
<title>Node18</title>
<g id="a_Node000018"><a xlink:title=" ">
<polygon fill="#e0e0e0" stroke="#999999" points="2604,-33.5 2492.75,-33.5 2492.75,0 2604,0 2604,-33.5"/>
<text xml:space="preserve" text-anchor="start" x="2500.75" y="-20" font-family="Helvetica,sans-Serif" font-size="10.00">../include/Managers</text>
<text xml:space="preserve" text-anchor="middle" x="2548.38" y="-7.25" font-family="Helvetica,sans-Serif" font-size="10.00">/Image.h</text>
</a>
</g>
</g>
<!-- Node1&#45;&gt;Node18 -->
<g id="edge17_Node000001_Node000018" class="edge">
<title>Node1&#45;&gt;Node18</title>
<g id="a_edge17_Node000001_Node000018"><a xlink:title=" ">
<path fill="none" stroke="#63b8ff" d="M1633.57,-77.85C1781.33,-73.91 2295,-58.81 2481.05,-33.78"/>
<polygon fill="#63b8ff" stroke="#63b8ff" points="2481.39,-37.26 2490.8,-32.4 2480.41,-30.33 2481.39,-37.26"/>
</a>
</g>
</g>
<!-- Node19 -->
<g id="Node000019" class="node">
<title>Node19</title>
<g id="a_Node000019"><a xlink:title=" ">
<polygon fill="#e0e0e0" stroke="#999999" points="2788.75,-33.5 2622,-33.5 2622,0 2788.75,0 2788.75,-33.5"/>
<text xml:space="preserve" text-anchor="start" x="2630" y="-20" font-family="Helvetica,sans-Serif" font-size="10.00">../include/System_Components</text>
<text xml:space="preserve" text-anchor="middle" x="2705.38" y="-7.25" font-family="Helvetica,sans-Serif" font-size="10.00">/ECS.h</text>
</a>
</g>
</g>
<!-- Node1&#45;&gt;Node19 -->
<g id="edge18_Node000001_Node000019" class="edge">
<title>Node1&#45;&gt;Node19</title>
<g id="a_edge18_Node000001_Node000019"><a xlink:title=" ">
<path fill="none" stroke="#63b8ff" d="M1633.37,-78.89C1769.07,-78.57 2224.55,-74.38 2610.31,-33.74"/>
<polygon fill="#63b8ff" stroke="#63b8ff" points="2610.62,-37.23 2620.2,-32.69 2609.88,-30.27 2610.62,-37.23"/>
</a>
</g>
</g>
<!-- Node20 -->
<g id="Node000020" class="node">
<title>Node20</title>
<g id="a_Node000020"><a xlink:title=" ">
<polygon fill="#e0e0e0" stroke="#999999" points="2973.75,-33.5 2807,-33.5 2807,0 2973.75,0 2973.75,-33.5"/>
<text xml:space="preserve" text-anchor="start" x="2815" y="-20" font-family="Helvetica,sans-Serif" font-size="10.00">../include/System_Components</text>
<text xml:space="preserve" text-anchor="middle" x="2890.38" y="-7.25" font-family="Helvetica,sans-Serif" font-size="10.00">/Camera.h</text>
</a>
</g>
</g>
<!-- Node1&#45;&gt;Node20 -->
<g id="edge19_Node000001_Node000020" class="edge">
<title>Node1&#45;&gt;Node20</title>
<g id="a_edge19_Node000001_Node000020"><a xlink:title=" ">
<path fill="none" stroke="#63b8ff" d="M1633.52,-79.25C1784.58,-80.28 2333.27,-80.42 2795.3,-33.61"/>
<polygon fill="#63b8ff" stroke="#63b8ff" points="2795.45,-37.12 2805.04,-32.62 2794.73,-30.15 2795.45,-37.12"/>
</a>
</g>
</g>
</g>
</svg>
