<?xml version="1.0" encoding="UTF-8" standalone="no"?>
<!DOCTYPE svg PUBLIC "-//W3C//DTD SVG 1.1//EN"
 "http://www.w3.org/Graphics/SVG/1.1/DTD/svg11.dtd">
<!-- Generated by graphviz version 13.0.0 (0)
 -->
<!-- Title: ImGui_ImplVulkan_WindowRenderBuffers Pages: 1 -->
<svg width="205pt" height="218pt"
 viewBox="0.00 0.00 205.00 218.00" xmlns="http://www.w3.org/2000/svg" xmlns:xlink="http://www.w3.org/1999/xlink">
<g id="graph0" class="graph" transform="scale(1 1) rotate(0) translate(4 214)">
<title>ImGui_ImplVulkan_WindowRenderBuffers</title>
<!-- Node1 -->
<g id="Node000001" class="node">
<title>Node1</title>
<g id="a_Node000001"><a xlink:title=" ">
<polygon fill="#999999" stroke="#666666" points="183.25,-33.5 0,-33.5 0,0 183.25,0 183.25,-33.5"/>
<text xml:space="preserve" text-anchor="start" x="8" y="-20" font-family="Helvetica,sans-Serif" font-size="10.00">ImGui_ImplVulkan_WindowRender</text>
<text xml:space="preserve" text-anchor="middle" x="91.62" y="-7.25" font-family="Helvetica,sans-Serif" font-size="10.00">Buffers</text>
</a>
</g>
</g>
<!-- Node2 -->
<g id="Node000002" class="node">
<title>Node2</title>
<g id="a_Node000002"><a xlink:href="structImVector.html" target="_top" xlink:title=" ">
<polygon fill="white" stroke="#666666" points="171.25,-121.75 12,-121.75 12,-88.25 171.25,-88.25 171.25,-121.75"/>
<text xml:space="preserve" text-anchor="start" x="20" y="-108.25" font-family="Helvetica,sans-Serif" font-size="10.00">ImVector&lt; ImGui_ImplVulkan</text>
<text xml:space="preserve" text-anchor="middle" x="91.62" y="-95.5" font-family="Helvetica,sans-Serif" font-size="10.00">_FrameRenderBuffers &gt;</text>
</a>
</g>
</g>
<!-- Node2&#45;&gt;Node1 -->
<g id="edge1_Node000001_Node000002" class="edge">
<title>Node2&#45;&gt;Node1</title>
<g id="a_edge1_Node000001_Node000002"><a xlink:title=" ">
<path fill="none" stroke="#9a32cd" stroke-dasharray="5,2" d="M91.62,-76.3C91.62,-62.3 91.62,-45.81 91.62,-33.9"/>
<polygon fill="#9a32cd" stroke="#9a32cd" points="88.13,-76.26 91.63,-86.26 95.13,-76.26 88.13,-76.26"/>
</a>
</g>
<text xml:space="preserve" text-anchor="start" x="94.62" y="-57.75" font-family="Helvetica,sans-Serif" font-size="10.00" fill="grey">FrameRenderBuffers</text>
</g>
<!-- Node3 -->
<g id="Node000003" class="node">
<title>Node3</title>
<g id="a_Node000003"><a xlink:href="structImGui__ImplVulkan__FrameRenderBuffers.html" target="_top" xlink:title=" ">
<polygon fill="white" stroke="#666666" points="179.12,-210 4.12,-210 4.12,-176.5 179.12,-176.5 179.12,-210"/>
<text xml:space="preserve" text-anchor="start" x="12.12" y="-196.5" font-family="Helvetica,sans-Serif" font-size="10.00">ImGui_ImplVulkan_FrameRender</text>
<text xml:space="preserve" text-anchor="middle" x="91.62" y="-183.75" font-family="Helvetica,sans-Serif" font-size="10.00">Buffers</text>
</a>
</g>
</g>
<!-- Node3&#45;&gt;Node2 -->
<g id="edge2_Node000002_Node000003" class="edge">
<title>Node3&#45;&gt;Node2</title>
<g id="a_edge2_Node000002_Node000003"><a xlink:title=" ">
<path fill="none" stroke="#9a32cd" stroke-dasharray="5,2" d="M91.62,-164.55C91.62,-150.55 91.62,-134.06 91.62,-122.15"/>
<polygon fill="#9a32cd" stroke="#9a32cd" points="88.13,-164.51 91.63,-174.51 95.13,-164.51 88.13,-164.51"/>
</a>
</g>
<text xml:space="preserve" text-anchor="start" x="94.62" y="-146" font-family="Helvetica,sans-Serif" font-size="10.00" fill="grey">Data</text>
</g>
</g>
</svg>
