<?xml version="1.0" encoding="UTF-8" standalone="no"?>
<!DOCTYPE svg PUBLIC "-//W3C//DTD SVG 1.1//EN"
 "http://www.w3.org/Graphics/SVG/1.1/DTD/svg11.dtd">
<!-- Generated by graphviz version 13.0.0 (0)
 -->
<!-- Title: ImGuiComboPreviewData Pages: 1 -->
<svg width="227pt" height="228pt"
 viewBox="0.00 0.00 227.00 228.00" xmlns="http://www.w3.org/2000/svg" xmlns:xlink="http://www.w3.org/1999/xlink">
<g id="graph0" class="graph" transform="scale(1 1) rotate(0) translate(4 224)">
<title>ImGuiComboPreviewData</title>
<!-- Node1 -->
<g id="Node000001" class="node">
<title>Node1</title>
<g id="a_Node000001"><a xlink:title=" ">
<polygon fill="#999999" stroke="#666666" points="142,-20.75 0,-20.75 0,0 142,0 142,-20.75"/>
<text xml:space="preserve" text-anchor="middle" x="71" y="-7.25" font-family="Helvetica,sans-Serif" font-size="10.00">ImGuiComboPreviewData</text>
</a>
</g>
</g>
<!-- Node2 -->
<g id="Node000002" class="node">
<title>Node2</title>
<g id="a_Node000002"><a xlink:href="structImRect.html" target="_top" xlink:title=" ">
<polygon fill="white" stroke="#666666" points="219.25,-112 168.75,-112 168.75,-91.25 219.25,-91.25 219.25,-112"/>
<text xml:space="preserve" text-anchor="middle" x="194" y="-98.5" font-family="Helvetica,sans-Serif" font-size="10.00">ImRect</text>
</a>
</g>
</g>
<!-- Node2&#45;&gt;Node1 -->
<g id="edge1_Node000001_Node000002" class="edge">
<title>Node2&#45;&gt;Node1</title>
<g id="a_edge1_Node000001_Node000002"><a xlink:title=" ">
<path fill="none" stroke="#9a32cd" stroke-dasharray="5,2" d="M171.59,-84.36C146.13,-65.89 105.41,-36.34 84.44,-21.13"/>
<polygon fill="#9a32cd" stroke="#9a32cd" points="169.46,-87.14 179.61,-90.18 173.57,-81.48 169.46,-87.14"/>
</a>
</g>
<text xml:space="preserve" text-anchor="start" x="135.5" y="-45" font-family="Helvetica,sans-Serif" font-size="10.00" fill="grey">PreviewRect</text>
</g>
<!-- Node3 -->
<g id="Node000003" class="node">
<title>Node3</title>
<g id="a_Node000003"><a xlink:href="structImVec2.html" target="_top" xlink:title=" ">
<polygon fill="white" stroke="#666666" points="61,-220 9,-220 9,-199.25 61,-199.25 61,-220"/>
<text xml:space="preserve" text-anchor="middle" x="35" y="-206.5" font-family="Helvetica,sans-Serif" font-size="10.00">ImVec2</text>
</a>
</g>
</g>
<!-- Node3&#45;&gt;Node1 -->
<g id="edge3_Node000001_Node000003" class="edge">
<title>Node3&#45;&gt;Node1</title>
<g id="a_edge3_Node000001_Node000003"><a xlink:title=" ">
<path fill="none" stroke="#9a32cd" stroke-dasharray="5,2" d="M29.65,-188.04C23.68,-161.42 16.31,-113.92 28,-75.5 34.63,-53.7 51.42,-32.58 61.95,-20.84"/>
<polygon fill="#9a32cd" stroke="#9a32cd" points="26.19,-188.62 31.94,-197.52 32.99,-186.98 26.19,-188.62"/>
</a>
</g>
<text xml:space="preserve" text-anchor="start" x="31" y="-115.25" font-family="Helvetica,sans-Serif" font-size="10.00" fill="grey">BackupCursorMaxPos</text>
<text xml:space="preserve" text-anchor="start" x="31" y="-98.5" font-family="Helvetica,sans-Serif" font-size="10.00" fill="grey">BackupCursorPos</text>
<text xml:space="preserve" text-anchor="start" x="31" y="-81.75" font-family="Helvetica,sans-Serif" font-size="10.00" fill="grey">BackupCursorPosPrevLine</text>
</g>
<!-- Node3&#45;&gt;Node2 -->
<g id="edge2_Node000002_Node000003" class="edge">
<title>Node3&#45;&gt;Node2</title>
<g id="a_edge2_Node000002_Node000003"><a xlink:title=" ">
<path fill="none" stroke="#9a32cd" stroke-dasharray="5,2" d="M59.15,-192.52C92.59,-170.23 151.94,-130.67 179.36,-112.38"/>
<polygon fill="#9a32cd" stroke="#9a32cd" points="57.31,-189.54 50.93,-198 61.19,-195.37 57.31,-189.54"/>
</a>
</g>
<text xml:space="preserve" text-anchor="start" x="131.74" y="-168.75" font-family="Helvetica,sans-Serif" font-size="10.00" fill="grey">Max</text>
<text xml:space="preserve" text-anchor="start" x="131.74" y="-152" font-family="Helvetica,sans-Serif" font-size="10.00" fill="grey">Min</text>
</g>
</g>
</svg>
