<?xml version="1.0" encoding="UTF-8" standalone="no"?>
<!DOCTYPE svg PUBLIC "-//W3C//DTD SVG 1.1//EN"
 "http://www.w3.org/Graphics/SVG/1.1/DTD/svg11.dtd">
<!-- Generated by graphviz version 13.0.0 (0)
 -->
<!-- Title: ExampleAssetsBrowser Pages: 1 -->
<svg width="446pt" height="423pt"
 viewBox="0.00 0.00 446.00 423.00" xmlns="http://www.w3.org/2000/svg" xmlns:xlink="http://www.w3.org/1999/xlink">
<g id="graph0" class="graph" transform="scale(1 1) rotate(0) translate(4 419)">
<title>ExampleAssetsBrowser</title>
<!-- Node1 -->
<g id="Node000001" class="node">
<title>Node1</title>
<g id="a_Node000001"><a xlink:title=" ">
<polygon fill="#999999" stroke="#666666" points="322.5,-20.75 191.75,-20.75 191.75,0 322.5,0 322.5,-20.75"/>
<text xml:space="preserve" text-anchor="middle" x="257.12" y="-7.25" font-family="Helvetica,sans-Serif" font-size="10.00">ExampleAssetsBrowser</text>
</a>
</g>
</g>
<!-- Node2 -->
<g id="Node000002" class="node">
<title>Node2</title>
<g id="a_Node000002"><a xlink:href="structImVector.html" target="_top" xlink:title=" ">
<polygon fill="white" stroke="#666666" points="155,-113 3.25,-113 3.25,-92.25 155,-92.25 155,-113"/>
<text xml:space="preserve" text-anchor="middle" x="79.12" y="-99.5" font-family="Helvetica,sans-Serif" font-size="10.00">ImVector&lt; ExampleAsset &gt;</text>
</a>
</g>
</g>
<!-- Node2&#45;&gt;Node1 -->
<g id="edge1_Node000001_Node000002" class="edge">
<title>Node2&#45;&gt;Node1</title>
<g id="a_edge1_Node000001_Node000002"><a xlink:title=" ">
<path fill="none" stroke="#9a32cd" stroke-dasharray="5,2" d="M108.57,-86.69C145.18,-68.14 206.61,-36.99 237.76,-21.19"/>
<polygon fill="#9a32cd" stroke="#9a32cd" points="107.2,-83.47 99.86,-91.11 110.36,-89.71 107.2,-83.47"/>
</a>
</g>
<text xml:space="preserve" text-anchor="start" x="202.55" y="-53.38" font-family="Helvetica,sans-Serif" font-size="10.00" fill="grey">Items</text>
</g>
<!-- Node3 -->
<g id="Node000003" class="node">
<title>Node3</title>
<g id="a_Node000003"><a xlink:href="structExampleAsset.html" target="_top" xlink:title=" ">
<polygon fill="white" stroke="#666666" points="121,-188.5 35.25,-188.5 35.25,-167.75 121,-167.75 121,-188.5"/>
<text xml:space="preserve" text-anchor="middle" x="78.12" y="-175" font-family="Helvetica,sans-Serif" font-size="10.00">ExampleAsset</text>
</a>
</g>
</g>
<!-- Node3&#45;&gt;Node2 -->
<g id="edge2_Node000002_Node000003" class="edge">
<title>Node3&#45;&gt;Node2</title>
<g id="a_edge2_Node000002_Node000003"><a xlink:title=" ">
<path fill="none" stroke="#9a32cd" stroke-dasharray="5,2" d="M78.41,-156.01C78.6,-142.01 78.84,-124.3 78.99,-113.47"/>
<polygon fill="#9a32cd" stroke="#9a32cd" points="74.91,-155.96 78.28,-166 81.91,-156.05 74.91,-155.96"/>
</a>
</g>
<text xml:space="preserve" text-anchor="start" x="81.74" y="-137.25" font-family="Helvetica,sans-Serif" font-size="10.00" fill="grey">Data</text>
</g>
<!-- Node4 -->
<g id="Node000004" class="node">
<title>Node4</title>
<g id="a_Node000004"><a xlink:href="structImGuiTableSortSpecs.html" target="_top" xlink:title=" ">
<polygon fill="white" stroke="#666666" points="137.5,-264 18.75,-264 18.75,-243.25 137.5,-243.25 137.5,-264"/>
<text xml:space="preserve" text-anchor="middle" x="78.12" y="-250.5" font-family="Helvetica,sans-Serif" font-size="10.00">ImGuiTableSortSpecs</text>
</a>
</g>
</g>
<!-- Node4&#45;&gt;Node3 -->
<g id="edge3_Node000003_Node000004" class="edge">
<title>Node4&#45;&gt;Node3</title>
<g id="a_edge3_Node000003_Node000004"><a xlink:title=" ">
<path fill="none" stroke="#9a32cd" stroke-dasharray="5,2" d="M78.12,-231.51C78.12,-217.51 78.12,-199.8 78.12,-188.97"/>
<polygon fill="#9a32cd" stroke="#9a32cd" points="74.63,-231.5 78.13,-241.5 81.63,-231.5 74.63,-231.5"/>
</a>
</g>
<text xml:space="preserve" text-anchor="start" x="81.12" y="-212.75" font-family="Helvetica,sans-Serif" font-size="10.00" fill="grey">s_current_sort_specs</text>
</g>
<!-- Node5 -->
<g id="Node000005" class="node">
<title>Node5</title>
<g id="a_Node000005"><a xlink:href="structImGuiTableColumnSortSpecs.html" target="_top" xlink:title=" ">
<polygon fill="white" stroke="#666666" points="156.25,-339.5 0,-339.5 0,-318.75 156.25,-318.75 156.25,-339.5"/>
<text xml:space="preserve" text-anchor="middle" x="78.12" y="-326" font-family="Helvetica,sans-Serif" font-size="10.00">ImGuiTableColumnSortSpecs</text>
</a>
</g>
</g>
<!-- Node5&#45;&gt;Node4 -->
<g id="edge4_Node000004_Node000005" class="edge">
<title>Node5&#45;&gt;Node4</title>
<g id="a_edge4_Node000004_Node000005"><a xlink:title=" ">
<path fill="none" stroke="#9a32cd" stroke-dasharray="5,2" d="M78.12,-307.01C78.12,-293.01 78.12,-275.3 78.12,-264.47"/>
<polygon fill="#9a32cd" stroke="#9a32cd" points="74.63,-307 78.13,-317 81.63,-307 74.63,-307"/>
</a>
</g>
<text xml:space="preserve" text-anchor="start" x="81.12" y="-288.25" font-family="Helvetica,sans-Serif" font-size="10.00" fill="grey">Specs</text>
</g>
<!-- Node6 -->
<g id="Node000006" class="node">
<title>Node6</title>
<g id="a_Node000006"><a xlink:href="structExampleSelectionWithDeletion.html" target="_top" xlink:title=" ">
<polygon fill="white" stroke="#666666" points="340.88,-113 173.38,-113 173.38,-92.25 340.88,-92.25 340.88,-113"/>
<text xml:space="preserve" text-anchor="middle" x="257.12" y="-99.5" font-family="Helvetica,sans-Serif" font-size="10.00">ExampleSelectionWithDeletion</text>
</a>
</g>
</g>
<!-- Node6&#45;&gt;Node1 -->
<g id="edge5_Node000001_Node000006" class="edge">
<title>Node6&#45;&gt;Node1</title>
<g id="a_edge5_Node000001_Node000006"><a xlink:title=" ">
<path fill="none" stroke="#9a32cd" stroke-dasharray="5,2" d="M257.12,-80.52C257.12,-61.83 257.12,-35.4 257.12,-21.24"/>
<polygon fill="#9a32cd" stroke="#9a32cd" points="253.63,-80.45 257.13,-90.45 260.63,-80.45 253.63,-80.45"/>
</a>
</g>
<text xml:space="preserve" text-anchor="start" x="260.12" y="-53.38" font-family="Helvetica,sans-Serif" font-size="10.00" fill="grey">Selection</text>
</g>
<!-- Node7 -->
<g id="Node000007" class="node">
<title>Node7</title>
<g id="a_Node000007"><a xlink:href="structImGuiSelectionBasicStorage.html" target="_top" xlink:title=" ">
<polygon fill="white" stroke="#666666" points="334.12,-188.5 180.12,-188.5 180.12,-167.75 334.12,-167.75 334.12,-188.5"/>
<text xml:space="preserve" text-anchor="middle" x="257.12" y="-175" font-family="Helvetica,sans-Serif" font-size="10.00">ImGuiSelectionBasicStorage</text>
</a>
</g>
</g>
<!-- Node7&#45;&gt;Node6 -->
<g id="edge6_Node000006_Node000007" class="edge">
<title>Node7&#45;&gt;Node6</title>
<g id="a_edge6_Node000006_Node000007"><a xlink:title=" ">
<path fill="none" stroke="#63b8ff" d="M257.12,-156.01C257.12,-142.01 257.12,-124.3 257.12,-113.47"/>
<polygon fill="#63b8ff" stroke="#63b8ff" points="253.63,-156 257.13,-166 260.63,-156 253.63,-156"/>
</a>
</g>
</g>
<!-- Node8 -->
<g id="Node000008" class="node">
<title>Node8</title>
<g id="a_Node000008"><a xlink:href="structImGuiStorage.html" target="_top" xlink:title=" ">
<polygon fill="white" stroke="#666666" points="298.5,-264 215.75,-264 215.75,-243.25 298.5,-243.25 298.5,-264"/>
<text xml:space="preserve" text-anchor="middle" x="257.12" y="-250.5" font-family="Helvetica,sans-Serif" font-size="10.00">ImGuiStorage</text>
</a>
</g>
</g>
<!-- Node8&#45;&gt;Node7 -->
<g id="edge7_Node000007_Node000008" class="edge">
<title>Node8&#45;&gt;Node7</title>
<g id="a_edge7_Node000007_Node000008"><a xlink:title=" ">
<path fill="none" stroke="#9a32cd" stroke-dasharray="5,2" d="M257.12,-231.51C257.12,-217.51 257.12,-199.8 257.12,-188.97"/>
<polygon fill="#9a32cd" stroke="#9a32cd" points="253.63,-231.5 257.13,-241.5 260.63,-231.5 253.63,-231.5"/>
</a>
</g>
<text xml:space="preserve" text-anchor="start" x="260.12" y="-212.75" font-family="Helvetica,sans-Serif" font-size="10.00" fill="grey">_Storage</text>
</g>
<!-- Node9 -->
<g id="Node000009" class="node">
<title>Node9</title>
<g id="a_Node000009"><a xlink:href="structImVector.html" target="_top" xlink:title=" ">
<polygon fill="white" stroke="#666666" points="341.5,-339.5 174.75,-339.5 174.75,-318.75 341.5,-318.75 341.5,-339.5"/>
<text xml:space="preserve" text-anchor="middle" x="258.12" y="-326" font-family="Helvetica,sans-Serif" font-size="10.00">ImVector&lt; ImGuiStoragePair &gt;</text>
</a>
</g>
</g>
<!-- Node9&#45;&gt;Node8 -->
<g id="edge8_Node000008_Node000009" class="edge">
<title>Node9&#45;&gt;Node8</title>
<g id="a_edge8_Node000008_Node000009"><a xlink:title=" ">
<path fill="none" stroke="#9a32cd" stroke-dasharray="5,2" d="M257.84,-307.01C257.65,-293.01 257.41,-275.3 257.26,-264.47"/>
<polygon fill="#9a32cd" stroke="#9a32cd" points="254.34,-307.05 257.97,-317 261.34,-306.96 254.34,-307.05"/>
</a>
</g>
<text xml:space="preserve" text-anchor="start" x="260.74" y="-288.25" font-family="Helvetica,sans-Serif" font-size="10.00" fill="grey">Data</text>
</g>
<!-- Node10 -->
<g id="Node000010" class="node">
<title>Node10</title>
<g id="a_Node000010"><a xlink:href="structImGuiStoragePair.html" target="_top" xlink:title=" ">
<polygon fill="white" stroke="#666666" points="308.5,-415 207.75,-415 207.75,-394.25 308.5,-394.25 308.5,-415"/>
<text xml:space="preserve" text-anchor="middle" x="258.12" y="-401.5" font-family="Helvetica,sans-Serif" font-size="10.00">ImGuiStoragePair</text>
</a>
</g>
</g>
<!-- Node10&#45;&gt;Node9 -->
<g id="edge9_Node000009_Node000010" class="edge">
<title>Node10&#45;&gt;Node9</title>
<g id="a_edge9_Node000009_Node000010"><a xlink:title=" ">
<path fill="none" stroke="#9a32cd" stroke-dasharray="5,2" d="M258.12,-382.51C258.12,-368.51 258.12,-350.8 258.12,-339.97"/>
<polygon fill="#9a32cd" stroke="#9a32cd" points="254.63,-382.5 258.13,-392.5 261.63,-382.5 254.63,-382.5"/>
</a>
</g>
<text xml:space="preserve" text-anchor="start" x="261.12" y="-363.75" font-family="Helvetica,sans-Serif" font-size="10.00" fill="grey">Data</text>
</g>
<!-- Node11 -->
<g id="Node000011" class="node">
<title>Node11</title>
<g id="a_Node000011"><a xlink:href="structImVec2.html" target="_top" xlink:title=" ">
<polygon fill="white" stroke="#666666" points="411.12,-113 359.12,-113 359.12,-92.25 411.12,-92.25 411.12,-113"/>
<text xml:space="preserve" text-anchor="middle" x="385.12" y="-99.5" font-family="Helvetica,sans-Serif" font-size="10.00">ImVec2</text>
</a>
</g>
</g>
<!-- Node11&#45;&gt;Node1 -->
<g id="edge10_Node000001_Node000011" class="edge">
<title>Node11&#45;&gt;Node1</title>
<g id="a_edge10_Node000001_Node000011"><a xlink:title=" ">
<path fill="none" stroke="#9a32cd" stroke-dasharray="5,2" d="M367.47,-84.19C353.28,-70.75 332.43,-52.24 312.12,-38.75 302.09,-32.08 290.19,-25.96 280.04,-21.21"/>
<polygon fill="#9a32cd" stroke="#9a32cd" points="364.66,-86.35 374.29,-90.76 369.52,-81.31 364.66,-86.35"/>
</a>
</g>
<text xml:space="preserve" text-anchor="start" x="358.06" y="-61.75" font-family="Helvetica,sans-Serif" font-size="10.00" fill="grey">LayoutItemSize</text>
<text xml:space="preserve" text-anchor="start" x="358.06" y="-45" font-family="Helvetica,sans-Serif" font-size="10.00" fill="grey">LayoutItemStep</text>
</g>
</g>
</svg>
