<?xml version="1.0" encoding="UTF-8" standalone="no"?>
<!DOCTYPE svg PUBLIC "-//W3C//DTD SVG 1.1//EN"
 "http://www.w3.org/Graphics/SVG/1.1/DTD/svg11.dtd">
<!-- Generated by graphviz version 13.0.0 (0)
 -->
<!-- Title: ImTriangulatorNodeSpan Pages: 1 -->
<svg width="179pt" height="195pt"
 viewBox="0.00 0.00 179.00 195.00" xmlns="http://www.w3.org/2000/svg" xmlns:xlink="http://www.w3.org/1999/xlink">
<g id="graph0" class="graph" transform="scale(1 1) rotate(0) translate(4 190.5)">
<title>ImTriangulatorNodeSpan</title>
<!-- Node1 -->
<g id="Node000001" class="node">
<title>Node1</title>
<g id="a_Node000001"><a xlink:title=" ">
<polygon fill="#999999" stroke="#666666" points="136,-20.75 0,-20.75 0,0 136,0 136,-20.75"/>
<text xml:space="preserve" text-anchor="middle" x="68" y="-7.25" font-family="Helvetica,sans-Serif" font-size="10.00">ImTriangulatorNodeSpan</text>
</a>
</g>
</g>
<!-- Node2 -->
<g id="Node000002" class="node">
<title>Node2</title>
<g id="a_Node000002"><a xlink:href="structImTriangulatorNode.html" target="_top" xlink:title=" ">
<polygon fill="white" stroke="#666666" points="124,-103.62 12,-103.62 12,-82.88 124,-82.88 124,-103.62"/>
<text xml:space="preserve" text-anchor="middle" x="68" y="-90.12" font-family="Helvetica,sans-Serif" font-size="10.00">ImTriangulatorNode</text>
</a>
</g>
</g>
<!-- Node2&#45;&gt;Node1 -->
<g id="edge1_Node000001_Node000002" class="edge">
<title>Node2&#45;&gt;Node1</title>
<g id="a_edge1_Node000001_Node000002"><a xlink:title=" ">
<path fill="none" stroke="#9a32cd" stroke-dasharray="5,2" d="M68,-71.56C68,-55.29 68,-33.35 68,-20.96"/>
<polygon fill="#9a32cd" stroke="#9a32cd" points="64.5,-71.14 68,-81.14 71.5,-71.14 64.5,-71.14"/>
</a>
</g>
<text xml:space="preserve" text-anchor="start" x="71" y="-45" font-family="Helvetica,sans-Serif" font-size="10.00" fill="grey">Data</text>
</g>
<!-- Node2&#45;&gt;Node2 -->
<g id="edge3_Node000002_Node000002" class="edge">
<title>Node2&#45;&gt;Node2</title>
<g id="a_edge3_Node000002_Node000002"><a xlink:title=" ">
<path fill="none" stroke="#9a32cd" stroke-dasharray="5,2" d="M135.55,-99.08C139.58,-97.69 142,-95.75 142,-93.25 142,-88.93 134.77,-86.27 124.46,-85.25"/>
<polygon fill="#9a32cd" stroke="#9a32cd" points="135.09,-95.61 125.95,-100.96 136.43,-102.48 135.09,-95.61"/>
</a>
</g>
<text xml:space="preserve" text-anchor="start" x="145" y="-98.5" font-family="Helvetica,sans-Serif" font-size="10.00" fill="grey">Next</text>
<text xml:space="preserve" text-anchor="start" x="145" y="-81.75" font-family="Helvetica,sans-Serif" font-size="10.00" fill="grey">Prev</text>
</g>
<!-- Node3 -->
<g id="Node000003" class="node">
<title>Node3</title>
<g id="a_Node000003"><a xlink:href="structImVec2.html" target="_top" xlink:title=" ">
<polygon fill="white" stroke="#666666" points="94,-186.5 42,-186.5 42,-165.75 94,-165.75 94,-186.5"/>
<text xml:space="preserve" text-anchor="middle" x="68" y="-173" font-family="Helvetica,sans-Serif" font-size="10.00">ImVec2</text>
</a>
</g>
</g>
<!-- Node3&#45;&gt;Node2 -->
<g id="edge2_Node000002_Node000003" class="edge">
<title>Node3&#45;&gt;Node2</title>
<g id="a_edge2_Node000002_Node000003"><a xlink:title=" ">
<path fill="none" stroke="#9a32cd" stroke-dasharray="5,2" d="M68,-154.44C68,-138.16 68,-116.23 68,-103.83"/>
<polygon fill="#9a32cd" stroke="#9a32cd" points="64.5,-154.02 68,-164.02 71.5,-154.02 64.5,-154.02"/>
</a>
</g>
<text xml:space="preserve" text-anchor="start" x="71" y="-135.25" font-family="Helvetica,sans-Serif" font-size="10.00" fill="grey">Pos</text>
</g>
</g>
</svg>
