<?xml version="1.0" encoding="UTF-8" standalone="no"?>
<!DOCTYPE svg PUBLIC "-//W3C//DTD SVG 1.1//EN"
 "http://www.w3.org/Graphics/SVG/1.1/DTD/svg11.dtd">
<!-- Generated by graphviz version 13.0.0 (0)
 -->
<!-- Title: ImGuiTreeNodeStackData Pages: 1 -->
<svg width="149pt" height="197pt"
 viewBox="0.00 0.00 149.00 197.00" xmlns="http://www.w3.org/2000/svg" xmlns:xlink="http://www.w3.org/1999/xlink">
<g id="graph0" class="graph" transform="scale(1 1) rotate(0) translate(4 192.5)">
<title>ImGuiTreeNodeStackData</title>
<!-- Node1 -->
<g id="Node000001" class="node">
<title>Node1</title>
<g id="a_Node000001"><a xlink:title=" ">
<polygon fill="#999999" stroke="#666666" points="141.25,-20.75 0,-20.75 0,0 141.25,0 141.25,-20.75"/>
<text xml:space="preserve" text-anchor="middle" x="70.62" y="-7.25" font-family="Helvetica,sans-Serif" font-size="10.00">ImGuiTreeNodeStackData</text>
</a>
</g>
</g>
<!-- Node2 -->
<g id="Node000002" class="node">
<title>Node2</title>
<g id="a_Node000002"><a xlink:href="structImRect.html" target="_top" xlink:title=" ">
<polygon fill="white" stroke="#666666" points="95.88,-96.25 45.38,-96.25 45.38,-75.5 95.88,-75.5 95.88,-96.25"/>
<text xml:space="preserve" text-anchor="middle" x="70.62" y="-82.75" font-family="Helvetica,sans-Serif" font-size="10.00">ImRect</text>
</a>
</g>
</g>
<!-- Node2&#45;&gt;Node1 -->
<g id="edge1_Node000001_Node000002" class="edge">
<title>Node2&#45;&gt;Node1</title>
<g id="a_edge1_Node000001_Node000002"><a xlink:title=" ">
<path fill="none" stroke="#9a32cd" stroke-dasharray="5,2" d="M70.62,-63.76C70.62,-49.76 70.62,-32.05 70.62,-21.22"/>
<polygon fill="#9a32cd" stroke="#9a32cd" points="67.13,-63.75 70.63,-73.75 74.13,-63.75 67.13,-63.75"/>
</a>
</g>
<text xml:space="preserve" text-anchor="start" x="73.62" y="-45" font-family="Helvetica,sans-Serif" font-size="10.00" fill="grey">NavRect</text>
</g>
<!-- Node3 -->
<g id="Node000003" class="node">
<title>Node3</title>
<g id="a_Node000003"><a xlink:href="structImVec2.html" target="_top" xlink:title=" ">
<polygon fill="white" stroke="#666666" points="96.62,-188.5 44.62,-188.5 44.62,-167.75 96.62,-167.75 96.62,-188.5"/>
<text xml:space="preserve" text-anchor="middle" x="70.62" y="-175" font-family="Helvetica,sans-Serif" font-size="10.00">ImVec2</text>
</a>
</g>
</g>
<!-- Node3&#45;&gt;Node2 -->
<g id="edge2_Node000002_Node000003" class="edge">
<title>Node3&#45;&gt;Node2</title>
<g id="a_edge2_Node000002_Node000003"><a xlink:title=" ">
<path fill="none" stroke="#9a32cd" stroke-dasharray="5,2" d="M70.62,-156.02C70.62,-137.33 70.62,-110.9 70.62,-96.74"/>
<polygon fill="#9a32cd" stroke="#9a32cd" points="67.13,-155.95 70.63,-165.95 74.13,-155.95 67.13,-155.95"/>
</a>
</g>
<text xml:space="preserve" text-anchor="start" x="73.62" y="-137.25" font-family="Helvetica,sans-Serif" font-size="10.00" fill="grey">Max</text>
<text xml:space="preserve" text-anchor="start" x="73.62" y="-120.5" font-family="Helvetica,sans-Serif" font-size="10.00" fill="grey">Min</text>
</g>
</g>
</svg>
