<?xml version="1.0" encoding="UTF-8" standalone="no"?>
<!DOCTYPE svg PUBLIC "-//W3C//DTD SVG 1.1//EN"
 "http://www.w3.org/Graphics/SVG/1.1/DTD/svg11.dtd">
<!-- Generated by graphviz version 13.0.0 (0)
 -->
<!-- Title: tinyobj::shape_t Pages: 1 -->
<svg width="318pt" height="104pt"
 viewBox="0.00 0.00 318.00 104.00" xmlns="http://www.w3.org/2000/svg" xmlns:xlink="http://www.w3.org/1999/xlink">
<g id="graph0" class="graph" transform="scale(1 1) rotate(0) translate(4 100.25)">
<title>tinyobj::shape_t</title>
<!-- Node1 -->
<g id="Node000001" class="node">
<title>Node1</title>
<g id="a_Node000001"><a xlink:title=" ">
<polygon fill="#999999" stroke="#666666" points="200.88,-20.75 106.88,-20.75 106.88,0 200.88,0 200.88,-20.75"/>
<text xml:space="preserve" text-anchor="middle" x="153.88" y="-7.25" font-family="Helvetica,sans-Serif" font-size="10.00">tinyobj::shape_t</text>
</a>
</g>
</g>
<!-- Node2 -->
<g id="Node000002" class="node">
<title>Node2</title>
<g id="a_Node000002"><a xlink:href="structtinyobj_1_1mesh__t.html" target="_top" xlink:title=" ">
<polygon fill="white" stroke="#666666" points="91.75,-96.25 0,-96.25 0,-75.5 91.75,-75.5 91.75,-96.25"/>
<text xml:space="preserve" text-anchor="middle" x="45.88" y="-82.75" font-family="Helvetica,sans-Serif" font-size="10.00">tinyobj::mesh_t</text>
</a>
</g>
</g>
<!-- Node2&#45;&gt;Node1 -->
<g id="edge1_Node000001_Node000002" class="edge">
<title>Node2&#45;&gt;Node1</title>
<g id="a_edge1_Node000001_Node000002"><a xlink:title=" ">
<path fill="none" stroke="#9a32cd" stroke-dasharray="5,2" d="M69.33,-68.91C90.66,-54.4 121.47,-33.43 139.41,-21.22"/>
<polygon fill="#9a32cd" stroke="#9a32cd" points="67.54,-65.89 61.25,-74.41 71.48,-71.68 67.54,-65.89"/>
</a>
</g>
<text xml:space="preserve" text-anchor="start" x="115.72" y="-45" font-family="Helvetica,sans-Serif" font-size="10.00" fill="grey">mesh</text>
</g>
<!-- Node3 -->
<g id="Node000003" class="node">
<title>Node3</title>
<g id="a_Node000003"><a xlink:href="structtinyobj_1_1lines__t.html" target="_top" xlink:title=" ">
<polygon fill="white" stroke="#666666" points="197.88,-96.25 109.88,-96.25 109.88,-75.5 197.88,-75.5 197.88,-96.25"/>
<text xml:space="preserve" text-anchor="middle" x="153.88" y="-82.75" font-family="Helvetica,sans-Serif" font-size="10.00">tinyobj::lines_t</text>
</a>
</g>
</g>
<!-- Node3&#45;&gt;Node1 -->
<g id="edge2_Node000001_Node000003" class="edge">
<title>Node3&#45;&gt;Node1</title>
<g id="a_edge2_Node000001_Node000003"><a xlink:title=" ">
<path fill="none" stroke="#9a32cd" stroke-dasharray="5,2" d="M153.88,-63.76C153.88,-49.76 153.88,-32.05 153.88,-21.22"/>
<polygon fill="#9a32cd" stroke="#9a32cd" points="150.38,-63.75 153.88,-73.75 157.38,-63.75 150.38,-63.75"/>
</a>
</g>
<text xml:space="preserve" text-anchor="start" x="156.88" y="-45" font-family="Helvetica,sans-Serif" font-size="10.00" fill="grey">lines</text>
</g>
<!-- Node4 -->
<g id="Node000004" class="node">
<title>Node4</title>
<g id="a_Node000004"><a xlink:href="structtinyobj_1_1points__t.html" target="_top" xlink:title=" ">
<polygon fill="white" stroke="#666666" points="310.25,-96.25 215.5,-96.25 215.5,-75.5 310.25,-75.5 310.25,-96.25"/>
<text xml:space="preserve" text-anchor="middle" x="262.88" y="-82.75" font-family="Helvetica,sans-Serif" font-size="10.00">tinyobj::points_t</text>
</a>
</g>
</g>
<!-- Node4&#45;&gt;Node1 -->
<g id="edge3_Node000001_Node000004" class="edge">
<title>Node4&#45;&gt;Node1</title>
<g id="a_edge3_Node000001_Node000004"><a xlink:title=" ">
<path fill="none" stroke="#9a32cd" stroke-dasharray="5,2" d="M239.21,-68.91C217.68,-54.4 186.58,-33.43 168.48,-21.22"/>
<polygon fill="#9a32cd" stroke="#9a32cd" points="237.12,-71.73 247.37,-74.42 241.04,-65.93 237.12,-71.73"/>
</a>
</g>
<text xml:space="preserve" text-anchor="start" x="224.34" y="-45" font-family="Helvetica,sans-Serif" font-size="10.00" fill="grey">points</text>
</g>
</g>
</svg>
