<?xml version="1.0" encoding="UTF-8" standalone="no"?>
<!DOCTYPE svg PUBLIC "-//W3C//DTD SVG 1.1//EN"
 "http://www.w3.org/Graphics/SVG/1.1/DTD/svg11.dtd">
<!-- Generated by graphviz version 13.0.0 (0)
 -->
<!-- Title: ImGui_ImplVulkanH_Window Pages: 1 -->
<svg width="383pt" height="193pt"
 viewBox="0.00 0.00 383.00 193.00" xmlns="http://www.w3.org/2000/svg" xmlns:xlink="http://www.w3.org/1999/xlink">
<g id="graph0" class="graph" transform="scale(1 1) rotate(0) translate(4 188.5)">
<title>ImGui_ImplVulkanH_Window</title>
<!-- Node1 -->
<g id="Node000001" class="node">
<title>Node1</title>
<g id="a_Node000001"><a xlink:title=" ">
<polygon fill="#999999" stroke="#666666" points="245.75,-20.75 89.5,-20.75 89.5,0 245.75,0 245.75,-20.75"/>
<text xml:space="preserve" text-anchor="middle" x="167.62" y="-7.25" font-family="Helvetica,sans-Serif" font-size="10.00">ImGui_ImplVulkanH_Window</text>
</a>
</g>
</g>
<!-- Node2 -->
<g id="Node000002" class="node">
<title>Node2</title>
<g id="a_Node000002"><a xlink:href="structImVector.html" target="_top" xlink:title=" ">
<polygon fill="white" stroke="#666666" points="159.25,-109 0,-109 0,-75.5 159.25,-75.5 159.25,-109"/>
<text xml:space="preserve" text-anchor="start" x="8" y="-95.5" font-family="Helvetica,sans-Serif" font-size="10.00">ImVector&lt; ImGui_ImplVulkan</text>
<text xml:space="preserve" text-anchor="middle" x="79.62" y="-82.75" font-family="Helvetica,sans-Serif" font-size="10.00">H_Frame &gt;</text>
</a>
</g>
</g>
<!-- Node2&#45;&gt;Node1 -->
<g id="edge1_Node000001_Node000002" class="edge">
<title>Node2&#45;&gt;Node1</title>
<g id="a_edge1_Node000001_Node000002"><a xlink:title=" ">
<path fill="none" stroke="#9a32cd" stroke-dasharray="5,2" d="M105.93,-67.38C123.04,-51.84 144.45,-32.41 157.03,-20.99"/>
<polygon fill="#9a32cd" stroke="#9a32cd" points="103.61,-64.76 98.55,-74.07 108.31,-69.94 103.61,-64.76"/>
</a>
</g>
<text xml:space="preserve" text-anchor="start" x="139.65" y="-45" font-family="Helvetica,sans-Serif" font-size="10.00" fill="grey">Frames</text>
</g>
<!-- Node3 -->
<g id="Node000003" class="node">
<title>Node3</title>
<g id="a_Node000003"><a xlink:href="structImGui__ImplVulkanH__Frame.html" target="_top" xlink:title=" ">
<polygon fill="white" stroke="#666666" points="148.62,-184.5 0.62,-184.5 0.62,-163.75 148.62,-163.75 148.62,-184.5"/>
<text xml:space="preserve" text-anchor="middle" x="74.62" y="-171" font-family="Helvetica,sans-Serif" font-size="10.00">ImGui_ImplVulkanH_Frame</text>
</a>
</g>
</g>
<!-- Node3&#45;&gt;Node2 -->
<g id="edge2_Node000002_Node000003" class="edge">
<title>Node3&#45;&gt;Node2</title>
<g id="a_edge2_Node000002_Node000003"><a xlink:title=" ">
<path fill="none" stroke="#9a32cd" stroke-dasharray="5,2" d="M75.95,-151.95C76.78,-138.64 77.84,-121.74 78.61,-109.5"/>
<polygon fill="#9a32cd" stroke="#9a32cd" points="72.46,-151.62 75.33,-161.82 79.45,-152.06 72.46,-151.62"/>
</a>
</g>
<text xml:space="preserve" text-anchor="start" x="80.42" y="-133.25" font-family="Helvetica,sans-Serif" font-size="10.00" fill="grey">Data</text>
</g>
<!-- Node4 -->
<g id="Node000004" class="node">
<title>Node4</title>
<g id="a_Node000004"><a xlink:href="structImVector.html" target="_top" xlink:title=" ">
<polygon fill="white" stroke="#666666" points="345.25,-109 186,-109 186,-75.5 345.25,-75.5 345.25,-109"/>
<text xml:space="preserve" text-anchor="start" x="194" y="-95.5" font-family="Helvetica,sans-Serif" font-size="10.00">ImVector&lt; ImGui_ImplVulkan</text>
<text xml:space="preserve" text-anchor="middle" x="265.62" y="-82.75" font-family="Helvetica,sans-Serif" font-size="10.00">H_FrameSemaphores &gt;</text>
</a>
</g>
</g>
<!-- Node4&#45;&gt;Node1 -->
<g id="edge3_Node000001_Node000004" class="edge">
<title>Node4&#45;&gt;Node1</title>
<g id="a_edge3_Node000001_Node000004"><a xlink:title=" ">
<path fill="none" stroke="#9a32cd" stroke-dasharray="5,2" d="M236.91,-67.85C217.88,-52.33 193.89,-32.78 179.71,-21.22"/>
<polygon fill="#9a32cd" stroke="#9a32cd" points="234.66,-70.53 244.62,-74.13 239.08,-65.1 234.66,-70.53"/>
</a>
</g>
<text xml:space="preserve" text-anchor="start" x="225.49" y="-45" font-family="Helvetica,sans-Serif" font-size="10.00" fill="grey">FrameSemaphores</text>
</g>
<!-- Node5 -->
<g id="Node000005" class="node">
<title>Node5</title>
<g id="a_Node000005"><a xlink:href="structImGui__ImplVulkanH__FrameSemaphores.html" target="_top" xlink:title=" ">
<polygon fill="white" stroke="#666666" points="375,-184.5 166.25,-184.5 166.25,-163.75 375,-163.75 375,-184.5"/>
<text xml:space="preserve" text-anchor="middle" x="270.62" y="-171" font-family="Helvetica,sans-Serif" font-size="10.00">ImGui_ImplVulkanH_FrameSemaphores</text>
</a>
</g>
</g>
<!-- Node5&#45;&gt;Node4 -->
<g id="edge4_Node000004_Node000005" class="edge">
<title>Node5&#45;&gt;Node4</title>
<g id="a_edge4_Node000004_Node000005"><a xlink:title=" ">
<path fill="none" stroke="#9a32cd" stroke-dasharray="5,2" d="M269.3,-151.95C268.47,-138.64 267.41,-121.74 266.64,-109.5"/>
<polygon fill="#9a32cd" stroke="#9a32cd" points="265.8,-152.06 269.92,-161.82 272.79,-151.62 265.8,-152.06"/>
</a>
</g>
<text xml:space="preserve" text-anchor="start" x="271.87" y="-133.25" font-family="Helvetica,sans-Serif" font-size="10.00" fill="grey">Data</text>
</g>
</g>
</svg>
