<?xml version="1.0" encoding="UTF-8" standalone="no"?>
<!DOCTYPE svg PUBLIC "-//W3C//DTD SVG 1.1//EN"
 "http://www.w3.org/Graphics/SVG/1.1/DTD/svg11.dtd">
<!-- Generated by graphviz version 13.0.0 (0)
 -->
<!-- Title: ImFont Pages: 1 -->
<svg width="1208pt" height="356pt"
 viewBox="0.00 0.00 1208.00 356.00" xmlns="http://www.w3.org/2000/svg" xmlns:xlink="http://www.w3.org/1999/xlink">
<g id="graph0" class="graph" transform="scale(1 1) rotate(0) translate(4 351.94)">
<title>ImFont</title>
<!-- Node1 -->
<g id="Node000001" class="node">
<title>Node1</title>
<g id="a_Node000001"><a xlink:title=" ">
<polygon fill="#999999" stroke="#666666" points="456.38,-106.6 406.62,-106.6 406.62,-85.85 456.38,-85.85 456.38,-106.6"/>
<text xml:space="preserve" text-anchor="middle" x="431.5" y="-93.1" font-family="Helvetica,sans-Serif" font-size="10.00">ImFont</text>
</a>
</g>
</g>
<!-- Node8 -->
<g id="Node000008" class="node">
<title>Node8</title>
<g id="a_Node000008"><a xlink:href="structImVector.html" target="_top" xlink:title=" ">
<polygon fill="white" stroke="#666666" points="833,-66.6 709,-66.6 709,-45.85 833,-45.85 833,-66.6"/>
<text xml:space="preserve" text-anchor="middle" x="771" y="-53.1" font-family="Helvetica,sans-Serif" font-size="10.00">ImVector&lt; ImFont * &gt;</text>
</a>
</g>
</g>
<!-- Node1&#45;&gt;Node8 -->
<g id="edge9_Node000008_Node000001" class="edge">
<title>Node1&#45;&gt;Node8</title>
<g id="a_edge9_Node000008_Node000001"><a xlink:title=" ">
<path fill="none" stroke="#9a32cd" stroke-dasharray="5,2" d="M452.06,-78.55C458.98,-73.35 467.13,-68.3 475.5,-65.47 552.67,-39.38 647.79,-42.17 708.67,-48.01"/>
<polygon fill="#9a32cd" stroke="#9a32cd" points="450.2,-75.55 444.66,-84.58 454.62,-80.98 450.2,-75.55"/>
</a>
</g>
<text xml:space="preserve" text-anchor="start" x="495.75" y="-71.72" font-family="Helvetica,sans-Serif" font-size="10.00" fill="grey">Data</text>
</g>
<!-- Node10 -->
<g id="Node000010" class="node">
<title>Node10</title>
<g id="a_Node000010"><a xlink:href="structImFontAtlasCustomRect.html" target="_top" xlink:title=" ">
<polygon fill="white" stroke="#666666" points="691,-240.6 557.25,-240.6 557.25,-219.85 691,-219.85 691,-240.6"/>
<text xml:space="preserve" text-anchor="middle" x="624.12" y="-227.1" font-family="Helvetica,sans-Serif" font-size="10.00">ImFontAtlasCustomRect</text>
</a>
</g>
</g>
<!-- Node1&#45;&gt;Node10 -->
<g id="edge13_Node000010_Node000001" class="edge">
<title>Node1&#45;&gt;Node10</title>
<g id="a_edge13_Node000010_Node000001"><a xlink:title=" ">
<path fill="none" stroke="#9a32cd" stroke-dasharray="5,2" d="M442.75,-116.62C450.22,-129.61 461.48,-145.89 475.5,-156.22 499.54,-173.95 512.25,-164.71 539.25,-177.47 564.76,-189.53 592,-207.79 608.3,-219.35"/>
<polygon fill="#9a32cd" stroke="#9a32cd" points="445.93,-115.14 438.1,-108.01 439.77,-118.47 445.93,-115.14"/>
</a>
</g>
<text xml:space="preserve" text-anchor="start" x="496.88" y="-183.72" font-family="Helvetica,sans-Serif" font-size="10.00" fill="grey">Font</text>
</g>
<!-- Node12 -->
<g id="Node000012" class="node">
<title>Node12</title>
<g id="a_Node000012"><a xlink:href="structImFontConfig.html" target="_top" xlink:title=" ">
<polygon fill="white" stroke="#666666" points="664.38,-160.6 583.88,-160.6 583.88,-139.85 664.38,-139.85 664.38,-160.6"/>
<text xml:space="preserve" text-anchor="middle" x="624.12" y="-147.1" font-family="Helvetica,sans-Serif" font-size="10.00">ImFontConfig</text>
</a>
</g>
</g>
<!-- Node1&#45;&gt;Node12 -->
<g id="edge17_Node000012_Node000001" class="edge">
<title>Node1&#45;&gt;Node12</title>
<g id="a_edge17_Node000012_Node000001"><a xlink:title=" ">
<path fill="none" stroke="#9a32cd" stroke-dasharray="5,2" d="M464.02,-111.79C467.84,-113.41 471.73,-114.93 475.5,-116.22 511.32,-128.53 553.55,-137.75 583.65,-143.46"/>
<polygon fill="#9a32cd" stroke="#9a32cd" points="465.51,-108.62 454.95,-107.72 462.64,-115.01 465.51,-108.62"/>
</a>
</g>
<text xml:space="preserve" text-anchor="start" x="488.62" y="-139.46" font-family="Helvetica,sans-Serif" font-size="10.00" fill="grey">DstFont</text>
</g>
<!-- Node2 -->
<g id="Node000002" class="node">
<title>Node2</title>
<g id="a_Node000002"><a xlink:href="structImVector.html" target="_top" xlink:title=" ">
<polygon fill="white" stroke="#666666" points="267.5,-171.6 163.75,-171.6 163.75,-150.85 267.5,-150.85 267.5,-171.6"/>
<text xml:space="preserve" text-anchor="middle" x="215.62" y="-158.1" font-family="Helvetica,sans-Serif" font-size="10.00">ImVector&lt; float &gt;</text>
</a>
</g>
</g>
<!-- Node2&#45;&gt;Node1 -->
<g id="edge1_Node000001_Node000002" class="edge">
<title>Node2&#45;&gt;Node1</title>
<g id="a_edge1_Node000001_Node000002"><a xlink:title=" ">
<path fill="none" stroke="#9a32cd" stroke-dasharray="5,2" d="M278.77,-159.17C312.28,-156.09 353.6,-149.04 387.5,-133.22 400.89,-126.98 413.35,-115.35 421.37,-106.79"/>
<polygon fill="#9a32cd" stroke="#9a32cd" points="278.92,-155.65 269.24,-159.94 279.49,-162.62 278.92,-155.65"/>
</a>
</g>
<text xml:space="preserve" text-anchor="start" x="308.75" y="-162.14" font-family="Helvetica,sans-Serif" font-size="10.00" fill="grey">IndexAdvanceX</text>
</g>
<!-- Node3 -->
<g id="Node000003" class="node">
<title>Node3</title>
<g id="a_Node000003"><a xlink:href="structImVector.html" target="_top" xlink:title=" ">
<polygon fill="white" stroke="#666666" points="272.75,-131.6 158.5,-131.6 158.5,-110.85 272.75,-110.85 272.75,-131.6"/>
<text xml:space="preserve" text-anchor="middle" x="215.62" y="-118.1" font-family="Helvetica,sans-Serif" font-size="10.00">ImVector&lt; ImU16 &gt;</text>
</a>
</g>
</g>
<!-- Node3&#45;&gt;Node1 -->
<g id="edge2_Node000001_Node000003" class="edge">
<title>Node3&#45;&gt;Node1</title>
<g id="a_edge2_Node000001_Node000003"><a xlink:title=" ">
<path fill="none" stroke="#9a32cd" stroke-dasharray="5,2" d="M284.29,-113.32C325.92,-108.45 376.76,-102.51 406.21,-99.06"/>
<polygon fill="#9a32cd" stroke="#9a32cd" points="284.13,-109.81 274.6,-114.45 284.94,-116.76 284.13,-109.81"/>
</a>
</g>
<text xml:space="preserve" text-anchor="start" x="315.88" y="-116.47" font-family="Helvetica,sans-Serif" font-size="10.00" fill="grey">IndexLookup</text>
</g>
<!-- Node4 -->
<g id="Node000004" class="node">
<title>Node4</title>
<g id="a_Node000004"><a xlink:href="structImVector.html" target="_top" xlink:title=" ">
<polygon fill="white" stroke="#666666" points="287.75,-38.6 143.5,-38.6 143.5,-17.85 287.75,-17.85 287.75,-38.6"/>
<text xml:space="preserve" text-anchor="middle" x="215.62" y="-25.1" font-family="Helvetica,sans-Serif" font-size="10.00">ImVector&lt; ImFontGlyph &gt;</text>
</a>
</g>
</g>
<!-- Node4&#45;&gt;Node1 -->
<g id="edge3_Node000001_Node000004" class="edge">
<title>Node4&#45;&gt;Node1</title>
<g id="a_edge3_Node000001_Node000004"><a xlink:title=" ">
<path fill="none" stroke="#9a32cd" stroke-dasharray="5,2" d="M299.48,-21.32C328.76,-22.24 360.98,-27.29 387.5,-41.47 405.83,-51.28 418.94,-72.62 425.57,-85.58"/>
<polygon fill="#9a32cd" stroke="#9a32cd" points="299.56,-17.82 289.51,-21.19 299.46,-24.82 299.56,-17.82"/>
</a>
</g>
<text xml:space="preserve" text-anchor="start" x="329.75" y="-47.72" font-family="Helvetica,sans-Serif" font-size="10.00" fill="grey">Glyphs</text>
</g>
<!-- Node5 -->
<g id="Node000005" class="node">
<title>Node5</title>
<g id="a_Node000005"><a xlink:href="structImFontGlyph.html" target="_top" xlink:title=" ">
<polygon fill="white" stroke="#666666" points="78.25,-61.6 0,-61.6 0,-40.85 78.25,-40.85 78.25,-61.6"/>
<text xml:space="preserve" text-anchor="middle" x="39.12" y="-48.1" font-family="Helvetica,sans-Serif" font-size="10.00">ImFontGlyph</text>
</a>
</g>
</g>
<!-- Node5&#45;&gt;Node1 -->
<g id="edge5_Node000001_Node000005" class="edge">
<title>Node5&#45;&gt;Node1</title>
<g id="a_edge5_Node000001_Node000005"><a xlink:title=" ">
<path fill="none" stroke="#9a32cd" stroke-dasharray="5,2" d="M90.03,-59.36C92.13,-59.66 94.21,-59.95 96.25,-60.22 212.24,-75.76 351.57,-89.04 406.54,-94.07"/>
<polygon fill="#9a32cd" stroke="#9a32cd" points="90.63,-55.92 80.23,-57.91 89.61,-62.84 90.63,-55.92"/>
</a>
</g>
<text xml:space="preserve" text-anchor="start" x="181.5" y="-88.7" font-family="Helvetica,sans-Serif" font-size="10.00" fill="grey">FallbackGlyph</text>
</g>
<!-- Node5&#45;&gt;Node4 -->
<g id="edge4_Node000004_Node000005" class="edge">
<title>Node5&#45;&gt;Node4</title>
<g id="a_edge4_Node000004_Node000005"><a xlink:title=" ">
<path fill="none" stroke="#9a32cd" stroke-dasharray="5,2" d="M90.03,-42.4C92.13,-42.07 94.21,-41.77 96.25,-41.47 111.4,-39.31 127.68,-37.29 143.18,-35.52"/>
<polygon fill="#9a32cd" stroke="#9a32cd" points="89.54,-38.93 80.22,-43.96 90.64,-45.84 89.54,-38.93"/>
</a>
</g>
<text xml:space="preserve" text-anchor="start" x="99.25" y="-47.72" font-family="Helvetica,sans-Serif" font-size="10.00" fill="grey">Data</text>
</g>
<!-- Node6 -->
<g id="Node000006" class="node">
<title>Node6</title>
<g id="a_Node000006"><a xlink:href="structImFontAtlas.html" target="_top" xlink:title=" ">
<polygon fill="white" stroke="#666666" points="1200.25,-156.6 1125.75,-156.6 1125.75,-135.85 1200.25,-135.85 1200.25,-156.6"/>
<text xml:space="preserve" text-anchor="middle" x="1163" y="-143.1" font-family="Helvetica,sans-Serif" font-size="10.00">ImFontAtlas</text>
</a>
</g>
</g>
<!-- Node6&#45;&gt;Node1 -->
<g id="edge6_Node000001_Node000006" class="edge">
<title>Node6&#45;&gt;Node1</title>
<g id="a_edge6_Node000001_Node000006"><a xlink:title=" ">
<path fill="none" stroke="#9a32cd" stroke-dasharray="5,2" d="M1152.81,-125.15C1143.89,-107.23 1128.64,-82.24 1107.75,-68.22 1004.69,0.91 956.7,-28.37 833,-18.47 674.11,-5.76 616.41,27.3 475.5,-47.22 458.89,-56.01 445.74,-74 438.55,-85.57"/>
<polygon fill="#9a32cd" stroke="#9a32cd" points="1149.59,-126.53 1157,-134.11 1155.93,-123.57 1149.59,-126.53"/>
</a>
</g>
<text xml:space="preserve" text-anchor="start" x="735" y="-24.72" font-family="Helvetica,sans-Serif" font-size="10.00" fill="grey">ContainerAtlas</text>
</g>
<!-- Node7 -->
<g id="Node000007" class="node">
<title>Node7</title>
<g id="a_Node000007"><a xlink:href="structImVec2.html" target="_top" xlink:title=" ">
<polygon fill="white" stroke="#666666" points="457.5,-274.6 405.5,-274.6 405.5,-253.85 457.5,-253.85 457.5,-274.6"/>
<text xml:space="preserve" text-anchor="middle" x="431.5" y="-261.1" font-family="Helvetica,sans-Serif" font-size="10.00">ImVec2</text>
</a>
</g>
</g>
<!-- Node7&#45;&gt;Node6 -->
<g id="edge7_Node000006_Node000007" class="edge">
<title>Node7&#45;&gt;Node6</title>
<g id="a_edge7_Node000006_Node000007"><a xlink:title=" ">
<path fill="none" stroke="#9a32cd" stroke-dasharray="5,2" d="M468.47,-277.75C470.83,-278.33 473.19,-278.83 475.5,-279.22 503.44,-283.96 510.92,-279.91 539.25,-279.22 792.27,-273.15 897.75,-387.5 1107.75,-246.22 1139.71,-224.73 1154.46,-177.96 1159.67,-156.89"/>
<polygon fill="#9a32cd" stroke="#9a32cd" points="469.63,-274.44 459.05,-274.98 467.66,-281.16 469.63,-274.44"/>
</a>
</g>
<text xml:space="preserve" text-anchor="start" x="730.12" y="-335.44" font-family="Helvetica,sans-Serif" font-size="10.00" fill="grey">TexUvScale</text>
<text xml:space="preserve" text-anchor="start" x="730.12" y="-318.69" font-family="Helvetica,sans-Serif" font-size="10.00" fill="grey">TexUvWhitePixel</text>
</g>
<!-- Node7&#45;&gt;Node10 -->
<g id="edge12_Node000010_Node000007" class="edge">
<title>Node7&#45;&gt;Node10</title>
<g id="a_edge12_Node000010_Node000007"><a xlink:title=" ">
<path fill="none" stroke="#9a32cd" stroke-dasharray="5,2" d="M468.83,-257.75C495.23,-253.04 531.57,-246.55 562.35,-241.06"/>
<polygon fill="#9a32cd" stroke="#9a32cd" points="468.53,-254.24 459.3,-259.44 469.76,-261.13 468.53,-254.24"/>
</a>
</g>
<text xml:space="preserve" text-anchor="start" x="478.5" y="-262.26" font-family="Helvetica,sans-Serif" font-size="10.00" fill="grey">GlyphOffset</text>
</g>
<!-- Node7&#45;&gt;Node12 -->
<g id="edge16_Node000012_Node000007" class="edge">
<title>Node7&#45;&gt;Node12</title>
<g id="a_edge16_Node000012_Node000007"><a xlink:title=" ">
<path fill="none" stroke="#9a32cd" stroke-dasharray="5,2" d="M448.62,-245.25C456.13,-237.34 465.59,-228.59 475.5,-222.47 501.03,-206.71 512.06,-212.92 539.25,-200.22 563.98,-188.68 590.78,-171.88 607.26,-161"/>
<polygon fill="#9a32cd" stroke="#9a32cd" points="446.17,-242.74 442.06,-252.51 451.36,-247.43 446.17,-242.74"/>
</a>
</g>
<text xml:space="preserve" text-anchor="start" x="478.5" y="-228.72" font-family="Helvetica,sans-Serif" font-size="10.00" fill="grey">GlyphOffset</text>
</g>
<!-- Node8&#45;&gt;Node6 -->
<g id="edge8_Node000006_Node000008" class="edge">
<title>Node8&#45;&gt;Node6</title>
<g id="a_edge8_Node000006_Node000008"><a xlink:title=" ">
<path fill="none" stroke="#9a32cd" stroke-dasharray="5,2" d="M844.68,-52.59C894.12,-51.8 960.66,-54.06 1017.75,-67.47 1060.32,-77.48 1069.79,-85.51 1107.75,-107.22 1122.45,-115.63 1138.03,-127.14 1148.7,-135.47"/>
<polygon fill="#9a32cd" stroke="#9a32cd" points="844.89,-49.08 834.97,-52.79 845.04,-56.08 844.89,-49.08"/>
</a>
</g>
<text xml:space="preserve" text-anchor="start" x="921.25" y="-73.72" font-family="Helvetica,sans-Serif" font-size="10.00" fill="grey">Fonts</text>
</g>
<!-- Node9 -->
<g id="Node000009" class="node">
<title>Node9</title>
<g id="a_Node000009"><a xlink:href="structImVector.html" target="_top" xlink:title=" ">
<polygon fill="white" stroke="#666666" points="1017.75,-246.97 851,-246.97 851,-213.47 1017.75,-213.47 1017.75,-246.97"/>
<text xml:space="preserve" text-anchor="start" x="859" y="-233.47" font-family="Helvetica,sans-Serif" font-size="10.00">ImVector&lt; ImFontAtlasCustom</text>
<text xml:space="preserve" text-anchor="middle" x="934.38" y="-220.72" font-family="Helvetica,sans-Serif" font-size="10.00">Rect &gt;</text>
</a>
</g>
</g>
<!-- Node9&#45;&gt;Node6 -->
<g id="edge10_Node000006_Node000009" class="edge">
<title>Node9&#45;&gt;Node6</title>
<g id="a_edge10_Node000006_Node000009"><a xlink:title=" ">
<path fill="none" stroke="#9a32cd" stroke-dasharray="5,2" d="M1029.31,-225.18C1055.77,-220.95 1083.84,-213.66 1107.75,-201.22 1128.22,-190.58 1145.67,-169.41 1154.92,-156.67"/>
<polygon fill="#9a32cd" stroke="#9a32cd" points="1028.97,-221.69 1019.58,-226.59 1029.98,-228.62 1028.97,-221.69"/>
</a>
</g>
<text xml:space="preserve" text-anchor="start" x="1039.5" y="-229.54" font-family="Helvetica,sans-Serif" font-size="10.00" fill="grey">CustomRects</text>
</g>
<!-- Node10&#45;&gt;Node9 -->
<g id="edge11_Node000009_Node000010" class="edge">
<title>Node10&#45;&gt;Node9</title>
<g id="a_edge11_Node000009_Node000010"><a xlink:title=" ">
<path fill="none" stroke="#9a32cd" stroke-dasharray="5,2" d="M702.75,-230.22C747.84,-230.22 804.63,-230.22 850.57,-230.22"/>
<polygon fill="#9a32cd" stroke="#9a32cd" points="702.77,-226.72 692.77,-230.22 702.77,-233.72 702.77,-226.72"/>
</a>
</g>
<text xml:space="preserve" text-anchor="start" x="759.38" y="-236.47" font-family="Helvetica,sans-Serif" font-size="10.00" fill="grey">Data</text>
</g>
<!-- Node11 -->
<g id="Node000011" class="node">
<title>Node11</title>
<g id="a_Node000011"><a xlink:href="structImVector.html" target="_top" xlink:title=" ">
<polygon fill="white" stroke="#666666" points="1007.62,-195.6 861.12,-195.6 861.12,-174.85 1007.62,-174.85 1007.62,-195.6"/>
<text xml:space="preserve" text-anchor="middle" x="934.38" y="-182.1" font-family="Helvetica,sans-Serif" font-size="10.00">ImVector&lt; ImFontConfig &gt;</text>
</a>
</g>
</g>
<!-- Node11&#45;&gt;Node6 -->
<g id="edge14_Node000006_Node000011" class="edge">
<title>Node11&#45;&gt;Node6</title>
<g id="a_edge14_Node000006_Node000011"><a xlink:title=" ">
<path fill="none" stroke="#9a32cd" stroke-dasharray="5,2" d="M1018.88,-180.14C1047.33,-177.33 1079.16,-172.96 1107.75,-166.22 1117.32,-163.97 1127.52,-160.51 1136.46,-157.1"/>
<polygon fill="#9a32cd" stroke="#9a32cd" points="1018.88,-176.63 1009.25,-181.04 1019.54,-183.6 1018.88,-176.63"/>
</a>
</g>
<text xml:space="preserve" text-anchor="start" x="1052.62" y="-184.38" font-family="Helvetica,sans-Serif" font-size="10.00" fill="grey">Sources</text>
</g>
<!-- Node12&#45;&gt;Node1 -->
<g id="edge20_Node000001_Node000012" class="edge">
<title>Node12&#45;&gt;Node1</title>
<g id="a_edge20_Node000001_Node000012"><a xlink:title=" ">
<path fill="none" stroke="#9a32cd" stroke-dasharray="5,2" d="M603.66,-132.04C587.72,-118.47 563.84,-101.01 539.25,-93.47 511.95,-85.11 478.87,-87.8 456.84,-91.28"/>
<polygon fill="#9a32cd" stroke="#9a32cd" points="601.14,-134.48 610.95,-138.48 605.77,-129.24 601.14,-134.48"/>
</a>
</g>
<text xml:space="preserve" text-anchor="start" x="488.25" y="-99.72" font-family="Helvetica,sans-Serif" font-size="10.00" fill="grey">Sources</text>
</g>
<!-- Node12&#45;&gt;Node11 -->
<g id="edge15_Node000011_Node000012" class="edge">
<title>Node12&#45;&gt;Node11</title>
<g id="a_edge15_Node000011_Node000012"><a xlink:title=" ">
<path fill="none" stroke="#9a32cd" stroke-dasharray="5,2" d="M676.05,-156.01C726.44,-161.73 804.07,-170.54 860.88,-176.99"/>
<polygon fill="#9a32cd" stroke="#9a32cd" points="676.63,-152.55 666.3,-154.9 675.84,-159.51 676.63,-152.55"/>
</a>
</g>
<text xml:space="preserve" text-anchor="start" x="759.38" y="-179.15" font-family="Helvetica,sans-Serif" font-size="10.00" fill="grey">Data</text>
</g>
<!-- Node13 -->
<g id="Node000013" class="node">
<title>Node13</title>
<g id="a_Node000013"><a xlink:href="structImVec4.html" target="_top" xlink:title=" ">
<polygon fill="white" stroke="#666666" points="960.38,-156.6 908.38,-156.6 908.38,-135.85 960.38,-135.85 960.38,-156.6"/>
<text xml:space="preserve" text-anchor="middle" x="934.38" y="-143.1" font-family="Helvetica,sans-Serif" font-size="10.00">ImVec4</text>
</a>
</g>
</g>
<!-- Node13&#45;&gt;Node6 -->
<g id="edge18_Node000006_Node000013" class="edge">
<title>Node13&#45;&gt;Node6</title>
<g id="a_edge18_Node000006_Node000013"><a xlink:title=" ">
<path fill="none" stroke="#9a32cd" stroke-dasharray="5,2" d="M971.91,-146.22C1014.18,-146.22 1083.35,-146.22 1125.57,-146.22"/>
<polygon fill="#9a32cd" stroke="#9a32cd" points="972.01,-142.72 962.01,-146.22 972.01,-149.72 972.01,-142.72"/>
</a>
</g>
<text xml:space="preserve" text-anchor="start" x="1044" y="-152.47" font-family="Helvetica,sans-Serif" font-size="10.00" fill="grey">TexUvLines</text>
</g>
<!-- Node14 -->
<g id="Node000014" class="node">
<title>Node14</title>
<g id="a_Node000014"><a xlink:href="structImFontBuilderIO.html" target="_top" xlink:title=" ">
<polygon fill="white" stroke="#666666" points="981.75,-115.6 887,-115.6 887,-94.85 981.75,-94.85 981.75,-115.6"/>
<text xml:space="preserve" text-anchor="middle" x="934.38" y="-102.1" font-family="Helvetica,sans-Serif" font-size="10.00">ImFontBuilderIO</text>
</a>
</g>
</g>
<!-- Node14&#45;&gt;Node6 -->
<g id="edge19_Node000006_Node000014" class="edge">
<title>Node14&#45;&gt;Node6</title>
<g id="a_edge19_Node000006_Node000014"><a xlink:title=" ">
<path fill="none" stroke="#9a32cd" stroke-dasharray="5,2" d="M993.2,-107.14C1027.03,-109.3 1070.3,-113.86 1107.75,-123.47 1118.83,-126.32 1130.6,-131.03 1140.33,-135.43"/>
<polygon fill="#9a32cd" stroke="#9a32cd" points="993.81,-103.67 983.63,-106.59 993.41,-110.66 993.81,-103.67"/>
</a>
</g>
<text xml:space="preserve" text-anchor="start" x="1038.75" y="-129.72" font-family="Helvetica,sans-Serif" font-size="10.00" fill="grey">FontBuilderIO</text>
</g>
</g>
</svg>
