<?xml version="1.0" encoding="UTF-8" standalone="no"?>
<!DOCTYPE svg PUBLIC "-//W3C//DTD SVG 1.1//EN"
 "http://www.w3.org/Graphics/SVG/1.1/DTD/svg11.dtd">
<!-- Generated by graphviz version 13.0.0 (0)
 -->
<!-- Title: ImGuiLastItemData Pages: 1 -->
<svg width="128pt" height="247pt"
 viewBox="0.00 0.00 128.00 247.00" xmlns="http://www.w3.org/2000/svg" xmlns:xlink="http://www.w3.org/1999/xlink">
<g id="graph0" class="graph" transform="scale(1 1) rotate(0) translate(4 242.75)">
<title>ImGuiLastItemData</title>
<!-- Node1 -->
<g id="Node000001" class="node">
<title>Node1</title>
<g id="a_Node000001"><a xlink:title=" ">
<polygon fill="#999999" stroke="#666666" points="111.25,-20.75 0,-20.75 0,0 111.25,0 111.25,-20.75"/>
<text xml:space="preserve" text-anchor="middle" x="55.62" y="-7.25" font-family="Helvetica,sans-Serif" font-size="10.00">ImGuiLastItemData</text>
</a>
</g>
</g>
<!-- Node2 -->
<g id="Node000002" class="node">
<title>Node2</title>
<g id="a_Node000002"><a xlink:href="structImRect.html" target="_top" xlink:title=" ">
<polygon fill="white" stroke="#666666" points="80.88,-146.5 30.38,-146.5 30.38,-125.75 80.88,-125.75 80.88,-146.5"/>
<text xml:space="preserve" text-anchor="middle" x="55.62" y="-133" font-family="Helvetica,sans-Serif" font-size="10.00">ImRect</text>
</a>
</g>
</g>
<!-- Node2&#45;&gt;Node1 -->
<g id="edge1_Node000001_Node000002" class="edge">
<title>Node2&#45;&gt;Node1</title>
<g id="a_edge1_Node000001_Node000002"><a xlink:title=" ">
<path fill="none" stroke="#9a32cd" stroke-dasharray="5,2" d="M55.62,-114.14C55.62,-87.04 55.62,-40.97 55.62,-21.04"/>
<polygon fill="#9a32cd" stroke="#9a32cd" points="52.13,-113.9 55.63,-123.9 59.13,-113.9 52.13,-113.9"/>
</a>
</g>
<text xml:space="preserve" text-anchor="start" x="58.62" y="-95.25" font-family="Helvetica,sans-Serif" font-size="10.00" fill="grey">ClipRect</text>
<text xml:space="preserve" text-anchor="start" x="58.62" y="-78.5" font-family="Helvetica,sans-Serif" font-size="10.00" fill="grey">DisplayRect</text>
<text xml:space="preserve" text-anchor="start" x="58.62" y="-61.75" font-family="Helvetica,sans-Serif" font-size="10.00" fill="grey">NavRect</text>
<text xml:space="preserve" text-anchor="start" x="58.62" y="-45" font-family="Helvetica,sans-Serif" font-size="10.00" fill="grey">Rect</text>
</g>
<!-- Node3 -->
<g id="Node000003" class="node">
<title>Node3</title>
<g id="a_Node000003"><a xlink:href="structImVec2.html" target="_top" xlink:title=" ">
<polygon fill="white" stroke="#666666" points="81.62,-238.75 29.62,-238.75 29.62,-218 81.62,-218 81.62,-238.75"/>
<text xml:space="preserve" text-anchor="middle" x="55.62" y="-225.25" font-family="Helvetica,sans-Serif" font-size="10.00">ImVec2</text>
</a>
</g>
</g>
<!-- Node3&#45;&gt;Node2 -->
<g id="edge2_Node000002_Node000003" class="edge">
<title>Node3&#45;&gt;Node2</title>
<g id="a_edge2_Node000002_Node000003"><a xlink:title=" ">
<path fill="none" stroke="#9a32cd" stroke-dasharray="5,2" d="M55.62,-206.27C55.62,-187.58 55.62,-161.15 55.62,-146.99"/>
<polygon fill="#9a32cd" stroke="#9a32cd" points="52.13,-206.2 55.63,-216.2 59.13,-206.2 52.13,-206.2"/>
</a>
</g>
<text xml:space="preserve" text-anchor="start" x="58.62" y="-187.5" font-family="Helvetica,sans-Serif" font-size="10.00" fill="grey">Max</text>
<text xml:space="preserve" text-anchor="start" x="58.62" y="-170.75" font-family="Helvetica,sans-Serif" font-size="10.00" fill="grey">Min</text>
</g>
</g>
</svg>
