<?xml version="1.0" encoding="UTF-8" standalone="no"?>
<!DOCTYPE svg PUBLIC "-//W3C//DTD SVG 1.1//EN"
 "http://www.w3.org/Graphics/SVG/1.1/DTD/svg11.dtd">
<!-- Generated by graphviz version 13.0.0 (0)
 -->
<!-- Title: ImGuiNextWindowData Pages: 1 -->
<svg width="475pt" height="295pt"
 viewBox="0.00 0.00 475.00 295.00" xmlns="http://www.w3.org/2000/svg" xmlns:xlink="http://www.w3.org/1999/xlink">
<g id="graph0" class="graph" transform="scale(1 1) rotate(0) translate(4 291)">
<title>ImGuiNextWindowData</title>
<!-- Node1 -->
<g id="Node000001" class="node">
<title>Node1</title>
<g id="a_Node000001"><a xlink:title=" ">
<polygon fill="#999999" stroke="#666666" points="283.57,-20.75 152.82,-20.75 152.82,0 283.57,0 283.57,-20.75"/>
<text xml:space="preserve" text-anchor="middle" x="218.2" y="-7.25" font-family="Helvetica,sans-Serif" font-size="10.00">ImGuiNextWindowData</text>
</a>
</g>
</g>
<!-- Node2 -->
<g id="Node000002" class="node">
<title>Node2</title>
<g id="a_Node000002"><a xlink:href="structImVec2.html" target="_top" xlink:title=" ">
<polygon fill="white" stroke="#666666" points="190.2,-287 138.2,-287 138.2,-266.25 190.2,-266.25 190.2,-287"/>
<text xml:space="preserve" text-anchor="middle" x="164.2" y="-273.5" font-family="Helvetica,sans-Serif" font-size="10.00">ImVec2</text>
</a>
</g>
</g>
<!-- Node2&#45;&gt;Node1 -->
<g id="edge1_Node000001_Node000002" class="edge">
<title>Node2&#45;&gt;Node1</title>
<g id="a_edge1_Node000001_Node000002"><a xlink:title=" ">
<path fill="none" stroke="#9a32cd" stroke-dasharray="5,2" d="M127.43,-262.74C92.27,-248.2 41.32,-220.85 18.45,-178 -3.01,-137.81 -8.39,-112.31 18.45,-75.5 48.92,-33.71 107.05,-18.55 152.77,-13.34"/>
<polygon fill="#9a32cd" stroke="#9a32cd" points="125.79,-265.85 136.38,-266.28 128.37,-259.34 125.79,-265.85"/>
</a>
</g>
<text xml:space="preserve" text-anchor="start" x="21.45" y="-165.5" font-family="Helvetica,sans-Serif" font-size="10.00" fill="grey">ContentSizeVal</text>
<text xml:space="preserve" text-anchor="start" x="21.45" y="-148.75" font-family="Helvetica,sans-Serif" font-size="10.00" fill="grey">MenuBarOffsetMinVal</text>
<text xml:space="preserve" text-anchor="start" x="21.45" y="-132" font-family="Helvetica,sans-Serif" font-size="10.00" fill="grey">PosPivotVal</text>
<text xml:space="preserve" text-anchor="start" x="21.45" y="-115.25" font-family="Helvetica,sans-Serif" font-size="10.00" fill="grey">PosVal</text>
<text xml:space="preserve" text-anchor="start" x="21.45" y="-98.5" font-family="Helvetica,sans-Serif" font-size="10.00" fill="grey">ScrollVal</text>
<text xml:space="preserve" text-anchor="start" x="21.45" y="-81.75" font-family="Helvetica,sans-Serif" font-size="10.00" fill="grey">SizeVal</text>
</g>
<!-- Node3 -->
<g id="Node000003" class="node">
<title>Node3</title>
<g id="a_Node000003"><a xlink:href="structImRect.html" target="_top" xlink:title=" ">
<polygon fill="white" stroke="#666666" points="189.45,-137.12 138.95,-137.12 138.95,-116.38 189.45,-116.38 189.45,-137.12"/>
<text xml:space="preserve" text-anchor="middle" x="164.2" y="-123.62" font-family="Helvetica,sans-Serif" font-size="10.00">ImRect</text>
</a>
</g>
</g>
<!-- Node2&#45;&gt;Node3 -->
<g id="edge3_Node000003_Node000002" class="edge">
<title>Node2&#45;&gt;Node3</title>
<g id="a_edge3_Node000003_Node000002"><a xlink:title=" ">
<path fill="none" stroke="#9a32cd" stroke-dasharray="5,2" d="M164.2,-254.65C164.2,-222.13 164.2,-160.84 164.2,-137.3"/>
<polygon fill="#9a32cd" stroke="#9a32cd" points="160.7,-254.41 164.2,-264.41 167.7,-254.41 160.7,-254.41"/>
</a>
</g>
<text xml:space="preserve" text-anchor="start" x="167.2" y="-227.38" font-family="Helvetica,sans-Serif" font-size="10.00" fill="grey">Max</text>
<text xml:space="preserve" text-anchor="start" x="167.2" y="-210.62" font-family="Helvetica,sans-Serif" font-size="10.00" fill="grey">Min</text>
</g>
<!-- Node4 -->
<g id="Node000004" class="node">
<title>Node4</title>
<g id="a_Node000004"><a xlink:href="structImGuiSizeCallbackData.html" target="_top" xlink:title=" ">
<polygon fill="white" stroke="#666666" points="338.57,-137.12 207.82,-137.12 207.82,-116.38 338.57,-116.38 338.57,-137.12"/>
<text xml:space="preserve" text-anchor="middle" x="273.2" y="-123.62" font-family="Helvetica,sans-Serif" font-size="10.00">ImGuiSizeCallbackData</text>
</a>
</g>
</g>
<!-- Node2&#45;&gt;Node4 -->
<g id="edge5_Node000004_Node000002" class="edge">
<title>Node2&#45;&gt;Node4</title>
<g id="a_edge5_Node000004_Node000002"><a xlink:title=" ">
<path fill="none" stroke="#9a32cd" stroke-dasharray="5,2" d="M185.21,-258.48C188.7,-255.24 192.17,-251.76 195.2,-248.25 227.56,-210.67 256.74,-158.7 268.13,-137.42"/>
<polygon fill="#9a32cd" stroke="#9a32cd" points="183.05,-255.72 177.83,-264.94 187.66,-260.99 183.05,-255.72"/>
</a>
</g>
<text xml:space="preserve" text-anchor="start" x="235.53" y="-235.75" font-family="Helvetica,sans-Serif" font-size="10.00" fill="grey">CurrentSize</text>
<text xml:space="preserve" text-anchor="start" x="235.53" y="-219" font-family="Helvetica,sans-Serif" font-size="10.00" fill="grey">DesiredSize</text>
<text xml:space="preserve" text-anchor="start" x="235.53" y="-202.25" font-family="Helvetica,sans-Serif" font-size="10.00" fill="grey">Pos</text>
</g>
<!-- Node3&#45;&gt;Node1 -->
<g id="edge2_Node000001_Node000003" class="edge">
<title>Node3&#45;&gt;Node1</title>
<g id="a_edge2_Node000001_Node000003"><a xlink:title=" ">
<path fill="none" stroke="#9a32cd" stroke-dasharray="5,2" d="M156.49,-105.05C150.9,-86.25 146.31,-58.51 158.95,-38.75 164.01,-30.83 172.02,-25.16 180.54,-21.13"/>
<polygon fill="#9a32cd" stroke="#9a32cd" points="153.17,-106.14 159.66,-114.51 159.8,-103.91 153.17,-106.14"/>
</a>
</g>
<text xml:space="preserve" text-anchor="start" x="161.95" y="-45" font-family="Helvetica,sans-Serif" font-size="10.00" fill="grey">SizeConstraintRect</text>
</g>
<!-- Node4&#45;&gt;Node1 -->
<g id="edge4_Node000001_Node000004" class="edge">
<title>Node4&#45;&gt;Node1</title>
<g id="a_edge4_Node000001_Node000004"><a xlink:title=" ">
<path fill="none" stroke="#9a32cd" stroke-dasharray="5,2" d="M273.68,-104.64C273.14,-85.94 269.93,-58.6 257.2,-38.75 252.55,-31.51 245.24,-25.63 238.2,-21.21"/>
<polygon fill="#9a32cd" stroke="#9a32cd" points="270.18,-104.51 273.7,-114.5 277.18,-104.49 270.18,-104.51"/>
</a>
</g>
<text xml:space="preserve" text-anchor="start" x="268.48" y="-45" font-family="Helvetica,sans-Serif" font-size="10.00" fill="grey">SizeCallback</text>
</g>
<!-- Node5 -->
<g id="Node000005" class="node">
<title>Node5</title>
<g id="a_Node000005"><a xlink:href="structImGuiWindowClass.html" target="_top" xlink:title=" ">
<polygon fill="white" stroke="#666666" points="467.45,-137.12 356.95,-137.12 356.95,-116.38 467.45,-116.38 467.45,-137.12"/>
<text xml:space="preserve" text-anchor="middle" x="412.2" y="-123.62" font-family="Helvetica,sans-Serif" font-size="10.00">ImGuiWindowClass</text>
</a>
</g>
</g>
<!-- Node5&#45;&gt;Node1 -->
<g id="edge6_Node000001_Node000005" class="edge">
<title>Node5&#45;&gt;Node1</title>
<g id="a_edge6_Node000001_Node000005"><a xlink:title=" ">
<path fill="none" stroke="#9a32cd" stroke-dasharray="5,2" d="M401.08,-106.5C388.44,-86.42 365.93,-55.57 338.2,-38.75 321.94,-28.89 302.48,-22.58 284.01,-18.53"/>
<polygon fill="#9a32cd" stroke="#9a32cd" points="397.95,-108.1 406.12,-114.85 403.94,-104.48 397.95,-108.1"/>
</a>
</g>
<text xml:space="preserve" text-anchor="start" x="363.29" y="-45" font-family="Helvetica,sans-Serif" font-size="10.00" fill="grey">WindowClass</text>
</g>
</g>
</svg>
