<?xml version="1.0" encoding="UTF-8" standalone="no"?>
<!DOCTYPE svg PUBLIC "-//W3C//DTD SVG 1.1//EN"
 "http://www.w3.org/Graphics/SVG/1.1/DTD/svg11.dtd">
<!-- Generated by graphviz version 13.0.0 (0)
 -->
<!-- Title: ImGui_ImplVulkan_Data Pages: 1 -->
<svg width="1040pt" height="124pt"
 viewBox="0.00 0.00 1040.00 124.00" xmlns="http://www.w3.org/2000/svg" xmlns:xlink="http://www.w3.org/1999/xlink">
<g id="graph0" class="graph" transform="scale(1 1) rotate(0) translate(4 119.91)">
<title>ImGui_ImplVulkan_Data</title>
<!-- Node1 -->
<g id="Node000001" class="node">
<title>Node1</title>
<g id="a_Node000001"><a xlink:title=" ">
<polygon fill="#999999" stroke="#666666" points="1031.5,-72.12 898.5,-72.12 898.5,-51.38 1031.5,-51.38 1031.5,-72.12"/>
<text xml:space="preserve" text-anchor="middle" x="965" y="-58.62" font-family="Helvetica,sans-Serif" font-size="10.00">ImGui_ImplVulkan_Data</text>
</a>
</g>
</g>
<!-- Node2 -->
<g id="Node000002" class="node">
<title>Node2</title>
<g id="a_Node000002"><a xlink:href="structImGui__ImplVulkan__InitInfo.html" target="_top" xlink:title=" ">
<polygon fill="white" stroke="#666666" points="705,-114.12 560.75,-114.12 560.75,-93.38 705,-93.38 705,-114.12"/>
<text xml:space="preserve" text-anchor="middle" x="632.88" y="-100.62" font-family="Helvetica,sans-Serif" font-size="10.00">ImGui_ImplVulkan_InitInfo</text>
</a>
</g>
</g>
<!-- Node2&#45;&gt;Node1 -->
<g id="edge1_Node000001_Node000002" class="edge">
<title>Node2&#45;&gt;Node1</title>
<g id="a_edge1_Node000001_Node000002"><a xlink:title=" ">
<path fill="none" stroke="#9a32cd" stroke-dasharray="5,2" d="M716.73,-99.39C764.77,-96.11 826.3,-90.61 880.5,-81.75 894.77,-79.42 910.21,-75.98 923.89,-72.61"/>
<polygon fill="#9a32cd" stroke="#9a32cd" points="716.71,-95.88 706.96,-100.04 717.17,-102.87 716.71,-95.88"/>
</a>
</g>
<text xml:space="preserve" text-anchor="start" x="778.12" y="-103.41" font-family="Helvetica,sans-Serif" font-size="10.00" fill="grey">VulkanInitInfo</text>
</g>
<!-- Node3 -->
<g id="Node000003" class="node">
<title>Node3</title>
<g id="a_Node000003"><a xlink:href="structImGui__ImplVulkan__Texture.html" target="_top" xlink:title=" ">
<polygon fill="white" stroke="#666666" points="705.75,-72.12 560,-72.12 560,-51.38 705.75,-51.38 705.75,-72.12"/>
<text xml:space="preserve" text-anchor="middle" x="632.88" y="-58.62" font-family="Helvetica,sans-Serif" font-size="10.00">ImGui_ImplVulkan_Texture</text>
</a>
</g>
</g>
<!-- Node3&#45;&gt;Node1 -->
<g id="edge2_Node000001_Node000003" class="edge">
<title>Node3&#45;&gt;Node1</title>
<g id="a_edge2_Node000001_Node000003"><a xlink:title=" ">
<path fill="none" stroke="#9a32cd" stroke-dasharray="5,2" d="M717.24,-61.75C773.24,-61.75 846.02,-61.75 898,-61.75"/>
<polygon fill="#9a32cd" stroke="#9a32cd" points="717.43,-58.25 707.43,-61.75 717.43,-65.25 717.43,-58.25"/>
</a>
</g>
<text xml:space="preserve" text-anchor="start" x="783" y="-68" font-family="Helvetica,sans-Serif" font-size="10.00" fill="grey">FontTexture</text>
</g>
<!-- Node4 -->
<g id="Node000004" class="node">
<title>Node4</title>
<g id="a_Node000004"><a xlink:href="structImGui__ImplVulkan__WindowRenderBuffers.html" target="_top" xlink:title=" ">
<polygon fill="white" stroke="#666666" points="724.5,-33.5 541.25,-33.5 541.25,0 724.5,0 724.5,-33.5"/>
<text xml:space="preserve" text-anchor="start" x="549.25" y="-20" font-family="Helvetica,sans-Serif" font-size="10.00">ImGui_ImplVulkan_WindowRender</text>
<text xml:space="preserve" text-anchor="middle" x="632.88" y="-7.25" font-family="Helvetica,sans-Serif" font-size="10.00">Buffers</text>
</a>
</g>
</g>
<!-- Node4&#45;&gt;Node1 -->
<g id="edge3_Node000001_Node000004" class="edge">
<title>Node4&#45;&gt;Node1</title>
<g id="a_edge3_Node000001_Node000004"><a xlink:title=" ">
<path fill="none" stroke="#9a32cd" stroke-dasharray="5,2" d="M736.31,-21.94C780.85,-25.24 833.5,-30.55 880.5,-39 896.91,-41.95 914.79,-46.62 929.78,-50.96"/>
<polygon fill="#9a32cd" stroke="#9a32cd" points="736.6,-18.45 726.38,-21.23 736.11,-25.43 736.6,-18.45"/>
</a>
</g>
<text xml:space="preserve" text-anchor="start" x="745.5" y="-45.25" font-family="Helvetica,sans-Serif" font-size="10.00" fill="grey">MainWindowRenderBuffers</text>
</g>
<!-- Node5 -->
<g id="Node000005" class="node">
<title>Node5</title>
<g id="a_Node000005"><a xlink:href="structImVector.html" target="_top" xlink:title=" ">
<polygon fill="white" stroke="#666666" points="399.5,-33.5 240.25,-33.5 240.25,0 399.5,0 399.5,-33.5"/>
<text xml:space="preserve" text-anchor="start" x="248.25" y="-20" font-family="Helvetica,sans-Serif" font-size="10.00">ImVector&lt; ImGui_ImplVulkan</text>
<text xml:space="preserve" text-anchor="middle" x="319.88" y="-7.25" font-family="Helvetica,sans-Serif" font-size="10.00">_FrameRenderBuffers &gt;</text>
</a>
</g>
</g>
<!-- Node5&#45;&gt;Node4 -->
<g id="edge4_Node000004_Node000005" class="edge">
<title>Node5&#45;&gt;Node4</title>
<g id="a_edge4_Node000004_Node000005"><a xlink:title=" ">
<path fill="none" stroke="#9a32cd" stroke-dasharray="5,2" d="M411.06,-16.75C451.88,-16.75 500.05,-16.75 540.95,-16.75"/>
<polygon fill="#9a32cd" stroke="#9a32cd" points="411.27,-13.25 401.27,-16.75 411.27,-20.25 411.27,-13.25"/>
</a>
</g>
<text xml:space="preserve" text-anchor="start" x="420.5" y="-23" font-family="Helvetica,sans-Serif" font-size="10.00" fill="grey">FrameRenderBuffers</text>
</g>
<!-- Node6 -->
<g id="Node000006" class="node">
<title>Node6</title>
<g id="a_Node000006"><a xlink:href="structImGui__ImplVulkan__FrameRenderBuffers.html" target="_top" xlink:title=" ">
<polygon fill="white" stroke="#666666" points="175,-33.5 0,-33.5 0,0 175,0 175,-33.5"/>
<text xml:space="preserve" text-anchor="start" x="8" y="-20" font-family="Helvetica,sans-Serif" font-size="10.00">ImGui_ImplVulkan_FrameRender</text>
<text xml:space="preserve" text-anchor="middle" x="87.5" y="-7.25" font-family="Helvetica,sans-Serif" font-size="10.00">Buffers</text>
</a>
</g>
</g>
<!-- Node6&#45;&gt;Node5 -->
<g id="edge5_Node000005_Node000006" class="edge">
<title>Node6&#45;&gt;Node5</title>
<g id="a_edge5_Node000005_Node000006"><a xlink:title=" ">
<path fill="none" stroke="#9a32cd" stroke-dasharray="5,2" d="M186.54,-16.75C204.31,-16.75 222.63,-16.75 239.77,-16.75"/>
<polygon fill="#9a32cd" stroke="#9a32cd" points="186.78,-13.25 176.78,-16.75 186.78,-20.25 186.78,-13.25"/>
</a>
</g>
<text xml:space="preserve" text-anchor="start" x="196" y="-23" font-family="Helvetica,sans-Serif" font-size="10.00" fill="grey">Data</text>
</g>
</g>
</svg>
