<?xml version="1.0" encoding="UTF-8" standalone="no"?>
<!DOCTYPE svg PUBLIC "-//W3C//DTD SVG 1.1//EN"
 "http://www.w3.org/Graphics/SVG/1.1/DTD/svg11.dtd">
<!-- Generated by graphviz version 13.0.0 (0)
 -->
<!-- Title: ImDrawCmd Pages: 1 -->
<svg width="1641pt" height="912pt"
 viewBox="0.00 0.00 1641.00 912.00" xmlns="http://www.w3.org/2000/svg" xmlns:xlink="http://www.w3.org/1999/xlink">
<g id="graph0" class="graph" transform="scale(1 1) rotate(0) translate(4 907.95)">
<title>ImDrawCmd</title>
<!-- Node1 -->
<g id="Node000001" class="node">
<title>Node1</title>
<g id="a_Node000001"><a xlink:title=" ">
<polygon fill="#999999" stroke="#666666" points="211.25,-662.58 134.5,-662.58 134.5,-641.83 211.25,-641.83 211.25,-662.58"/>
<text xml:space="preserve" text-anchor="middle" x="172.88" y="-649.08" font-family="Helvetica,sans-Serif" font-size="10.00">ImDrawCmd</text>
</a>
</g>
</g>
<!-- Node4 -->
<g id="Node000004" class="node">
<title>Node4</title>
<g id="a_Node000004"><a xlink:href="structImVector.html" target="_top" xlink:title=" ">
<polygon fill="white" stroke="#666666" points="502,-662.58 359.25,-662.58 359.25,-641.83 502,-641.83 502,-662.58"/>
<text xml:space="preserve" text-anchor="middle" x="430.62" y="-649.08" font-family="Helvetica,sans-Serif" font-size="10.00">ImVector&lt; ImDrawCmd &gt;</text>
</a>
</g>
</g>
<!-- Node1&#45;&gt;Node4 -->
<g id="edge4_Node000004_Node000001" class="edge">
<title>Node1&#45;&gt;Node4</title>
<g id="a_edge4_Node000004_Node000001"><a xlink:title=" ">
<path fill="none" stroke="#9a32cd" stroke-dasharray="5,2" d="M223.04,-652.2C261.55,-652.2 315.66,-652.2 358.84,-652.2"/>
<polygon fill="#9a32cd" stroke="#9a32cd" points="223.13,-648.7 213.13,-652.2 223.13,-655.7 223.13,-648.7"/>
</a>
</g>
<text xml:space="preserve" text-anchor="start" x="273.62" y="-658.45" font-family="Helvetica,sans-Serif" font-size="10.00" fill="grey">Data</text>
</g>
<!-- Node2 -->
<g id="Node000002" class="node">
<title>Node2</title>
<g id="a_Node000002"><a xlink:href="structImVec4.html" target="_top" xlink:title=" ">
<polygon fill="white" stroke="#666666" points="52,-720.58 0,-720.58 0,-699.83 52,-699.83 52,-720.58"/>
<text xml:space="preserve" text-anchor="middle" x="26" y="-707.08" font-family="Helvetica,sans-Serif" font-size="10.00">ImVec4</text>
</a>
</g>
</g>
<!-- Node2&#45;&gt;Node1 -->
<g id="edge1_Node000001_Node000002" class="edge">
<title>Node2&#45;&gt;Node1</title>
<g id="a_edge1_Node000001_Node000002"><a xlink:title=" ">
<path fill="none" stroke="#9a32cd" stroke-dasharray="5,2" d="M46.82,-692.42C53.76,-686.95 61.86,-681.35 70,-677.45 90.21,-667.76 114.52,-661.56 134.32,-657.72"/>
<polygon fill="#9a32cd" stroke="#9a32cd" points="44.79,-689.56 39.35,-698.65 49.27,-694.93 44.79,-689.56"/>
</a>
</g>
<text xml:space="preserve" text-anchor="start" x="73" y="-683.7" font-family="Helvetica,sans-Serif" font-size="10.00" fill="grey">ClipRect</text>
</g>
<!-- Node9 -->
<g id="Node000009" class="node">
<title>Node9</title>
<g id="a_Node000009"><a xlink:href="structImDrawListSharedData.html" target="_top" xlink:title=" ">
<polygon fill="white" stroke="#666666" points="1325.38,-471.58 1196.88,-471.58 1196.88,-450.83 1325.38,-450.83 1325.38,-471.58"/>
<text xml:space="preserve" text-anchor="middle" x="1261.12" y="-458.08" font-family="Helvetica,sans-Serif" font-size="10.00">ImDrawListSharedData</text>
</a>
</g>
</g>
<!-- Node2&#45;&gt;Node9 -->
<g id="edge11_Node000009_Node000002" class="edge">
<title>Node2&#45;&gt;Node9</title>
<g id="a_edge11_Node000009_Node000002"><a xlink:title=" ">
<path fill="none" stroke="#9a32cd" stroke-dasharray="5,2" d="M63.81,-709.98C145.77,-709.49 349.47,-708.33 520,-707.7 522.27,-707.69 1170.83,-707.73 1172.5,-706.2 1204.31,-677.15 1169.43,-550.77 1190.5,-513.2 1200.91,-494.65 1220.97,-480.76 1236.9,-472.02"/>
<polygon fill="#9a32cd" stroke="#9a32cd" points="63.89,-706.48 53.91,-710.04 63.93,-713.48 63.89,-706.48"/>
</a>
</g>
<text xml:space="preserve" text-anchor="start" x="534" y="-730.7" font-family="Helvetica,sans-Serif" font-size="10.00" fill="grey">ClipRectFullscreen</text>
<text xml:space="preserve" text-anchor="start" x="534" y="-713.95" font-family="Helvetica,sans-Serif" font-size="10.00" fill="grey">TexUvLines</text>
</g>
<!-- Node15 -->
<g id="Node000015" class="node">
<title>Node15</title>
<g id="a_Node000015"><a xlink:href="structImFontAtlas.html" target="_top" xlink:title=" ">
<polygon fill="white" stroke="#666666" points="765.38,-113.58 690.88,-113.58 690.88,-92.83 765.38,-92.83 765.38,-113.58"/>
<text xml:space="preserve" text-anchor="middle" x="728.12" y="-100.08" font-family="Helvetica,sans-Serif" font-size="10.00">ImFontAtlas</text>
</a>
</g>
</g>
<!-- Node2&#45;&gt;Node15 -->
<g id="edge30_Node000015_Node000002" class="edge">
<title>Node2&#45;&gt;Node15</title>
<g id="a_edge30_Node000015_Node000002"><a xlink:title=" ">
<path fill="none" stroke="#9a32cd" stroke-dasharray="5,2" d="M30.57,-688.62C47.09,-596.77 125.56,-237.78 359.25,-120.2 469.05,-64.95 621.4,-83.1 690.48,-95.56"/>
<polygon fill="#9a32cd" stroke="#9a32cd" points="27.16,-687.81 28.9,-698.26 34.05,-689 27.16,-687.81"/>
</a>
</g>
<text xml:space="preserve" text-anchor="start" x="257.5" y="-229.16" font-family="Helvetica,sans-Serif" font-size="10.00" fill="grey">TexUvLines</text>
</g>
<!-- Node23 -->
<g id="Node000023" class="node">
<title>Node23</title>
<g id="a_Node000023"><a xlink:href="structImDrawCmdHeader.html" target="_top" xlink:title=" ">
<polygon fill="white" stroke="#666666" points="341.25,-889.58 229.25,-889.58 229.25,-868.83 341.25,-868.83 341.25,-889.58"/>
<text xml:space="preserve" text-anchor="middle" x="285.25" y="-876.08" font-family="Helvetica,sans-Serif" font-size="10.00">ImDrawCmdHeader</text>
</a>
</g>
</g>
<!-- Node2&#45;&gt;Node23 -->
<g id="edge38_Node000023_Node000002" class="edge">
<title>Node2&#45;&gt;Node23</title>
<g id="a_edge38_Node000023_Node000002"><a xlink:title=" ">
<path fill="none" stroke="#9a32cd" stroke-dasharray="5,2" d="M27.87,-731.96C30.26,-760.76 38.93,-811.07 70,-838.2 113.5,-876.19 181.2,-883.47 228.84,-883.14"/>
<polygon fill="#9a32cd" stroke="#9a32cd" points="31.38,-732 27.27,-722.24 24.39,-732.43 31.38,-732"/>
</a>
</g>
<text xml:space="preserve" text-anchor="start" x="73" y="-871.73" font-family="Helvetica,sans-Serif" font-size="10.00" fill="grey">ClipRect</text>
</g>
<!-- Node27 -->
<g id="Node000027" class="node">
<title>Node27</title>
<g id="a_Node000027"><a xlink:href="structImVector.html" target="_top" xlink:title=" ">
<polygon fill="white" stroke="#666666" points="638,-840.58 520,-840.58 520,-819.83 638,-819.83 638,-840.58"/>
<text xml:space="preserve" text-anchor="middle" x="579" y="-827.08" font-family="Helvetica,sans-Serif" font-size="10.00">ImVector&lt; ImVec4 &gt;</text>
</a>
</g>
</g>
<!-- Node2&#45;&gt;Node27 -->
<g id="edge45_Node000027_Node000002" class="edge">
<title>Node2&#45;&gt;Node27</title>
<g id="a_edge45_Node000027_Node000002"><a xlink:title=" ">
<path fill="none" stroke="#9a32cd" stroke-dasharray="5,2" d="M63.14,-722.18C65.46,-722.88 67.76,-723.56 70,-724.2 197.3,-760.49 229.51,-768.94 359.25,-795.2 413.34,-806.15 475.53,-815.82 519.73,-822.21"/>
<polygon fill="#9a32cd" stroke="#9a32cd" points="64.4,-718.91 53.81,-719.26 62.31,-725.59 64.4,-718.91"/>
</a>
</g>
<text xml:space="preserve" text-anchor="start" x="161.25" y="-768.63" font-family="Helvetica,sans-Serif" font-size="10.00" fill="grey">Data</text>
</g>
<!-- Node3 -->
<g id="Node000003" class="node">
<title>Node3</title>
<g id="a_Node000003"><a xlink:href="structImDrawList.html" target="_top" xlink:title=" ">
<polygon fill="white" stroke="#666666" points="1585.12,-675.58 1513.62,-675.58 1513.62,-654.83 1585.12,-654.83 1585.12,-675.58"/>
<text xml:space="preserve" text-anchor="middle" x="1549.38" y="-662.08" font-family="Helvetica,sans-Serif" font-size="10.00">ImDrawList</text>
</a>
</g>
</g>
<!-- Node3&#45;&gt;Node1 -->
<g id="edge2_Node000001_Node000003" class="edge">
<title>Node3&#45;&gt;Node1</title>
<g id="a_edge2_Node000001_Node000003"><a xlink:title=" ">
<path fill="none" stroke="#9a32cd" stroke-dasharray="5,2" d="M1545.29,-643.25C1537.7,-598.23 1513.74,-495.56 1448,-446.2 1320.7,-350.61 591.19,-306.38 520,-326.2 340.67,-376.11 208.71,-591.04 179.81,-641.55"/>
<polygon fill="#9a32cd" stroke="#9a32cd" points="1541.82,-643.72 1546.81,-653.06 1548.73,-642.64 1541.82,-643.72"/>
</a>
</g>
<text xml:space="preserve" text-anchor="start" x="829.88" y="-343.7" font-family="Helvetica,sans-Serif" font-size="10.00" fill="grey">UserCallback</text>
</g>
<!-- Node4&#45;&gt;Node3 -->
<g id="edge3_Node000003_Node000004" class="edge">
<title>Node4&#45;&gt;Node3</title>
<g id="a_edge3_Node000003_Node000004"><a xlink:title=" ">
<path fill="none" stroke="#9a32cd" stroke-dasharray="5,2" d="M513.33,-649.44C636.88,-645.66 878.65,-639.86 1084,-644.45 1244.35,-648.03 1435.62,-658.56 1513.15,-663.09"/>
<polygon fill="#9a32cd" stroke="#9a32cd" points="513.51,-645.93 503.62,-649.74 513.72,-652.93 513.51,-645.93"/>
</a>
</g>
<text xml:space="preserve" text-anchor="start" x="978.12" y="-650.7" font-family="Helvetica,sans-Serif" font-size="10.00" fill="grey">CmdBuffer</text>
</g>
<!-- Node26 -->
<g id="Node000026" class="node">
<title>Node26</title>
<g id="a_Node000026"><a xlink:href="structImDrawChannel.html" target="_top" xlink:title=" ">
<polygon fill="white" stroke="#666666" points="775.12,-692.58 681.12,-692.58 681.12,-671.83 775.12,-671.83 775.12,-692.58"/>
<text xml:space="preserve" text-anchor="middle" x="728.12" y="-679.08" font-family="Helvetica,sans-Serif" font-size="10.00">ImDrawChannel</text>
</a>
</g>
</g>
<!-- Node4&#45;&gt;Node26 -->
<g id="edge42_Node000026_Node000004" class="edge">
<title>Node4&#45;&gt;Node26</title>
<g id="a_edge42_Node000026_Node000004"><a xlink:title=" ">
<path fill="none" stroke="#9a32cd" stroke-dasharray="5,2" d="M513.41,-657.93C551.35,-660.87 597.03,-664.81 638,-669.45 651.98,-671.03 667.14,-673.08 680.93,-675.07"/>
<polygon fill="#9a32cd" stroke="#9a32cd" points="514.15,-654.47 503.92,-657.2 513.62,-661.45 514.15,-654.47"/>
</a>
</g>
<text xml:space="preserve" text-anchor="start" x="550.5" y="-675.7" font-family="Helvetica,sans-Serif" font-size="10.00" fill="grey">_CmdBuffer</text>
</g>
<!-- Node5 -->
<g id="Node000005" class="node">
<title>Node5</title>
<g id="a_Node000005"><a xlink:href="structImVector.html" target="_top" xlink:title=" ">
<polygon fill="white" stroke="#666666" points="498.25,-786.58 363,-786.58 363,-765.83 498.25,-765.83 498.25,-786.58"/>
<text xml:space="preserve" text-anchor="middle" x="430.62" y="-773.08" font-family="Helvetica,sans-Serif" font-size="10.00">ImVector&lt; ImDrawIdx &gt;</text>
</a>
</g>
</g>
<!-- Node5&#45;&gt;Node3 -->
<g id="edge5_Node000003_Node000005" class="edge">
<title>Node5&#45;&gt;Node3</title>
<g id="a_edge5_Node000003_Node000005"><a xlink:title=" ">
<path fill="none" stroke="#9a32cd" stroke-dasharray="5,2" d="M509.49,-788.29C513.04,-788.64 516.55,-788.95 520,-789.2 572.3,-793.03 585.62,-791.89 638,-789.2 818.82,-779.92 1271.78,-742.79 1448,-701.2 1474.31,-694.99 1503.25,-684.16 1523.28,-675.99"/>
<polygon fill="#9a32cd" stroke="#9a32cd" points="509.93,-784.82 499.61,-787.21 509.17,-791.78 509.93,-784.82"/>
</a>
</g>
<text xml:space="preserve" text-anchor="start" x="981.88" y="-774.38" font-family="Helvetica,sans-Serif" font-size="10.00" fill="grey">IdxBuffer</text>
</g>
<!-- Node5&#45;&gt;Node26 -->
<g id="edge43_Node000026_Node000005" class="edge">
<title>Node5&#45;&gt;Node26</title>
<g id="a_edge43_Node000026_Node000005"><a xlink:title=" ">
<path fill="none" stroke="#9a32cd" stroke-dasharray="5,2" d="M510.02,-769.16C558.3,-764.05 615.18,-756.44 638,-747.2 669.6,-734.4 700.34,-707.98 716.14,-693.06"/>
<polygon fill="#9a32cd" stroke="#9a32cd" points="509.69,-765.67 500.11,-770.18 510.41,-772.64 509.69,-765.67"/>
</a>
</g>
<text xml:space="preserve" text-anchor="start" x="554.25" y="-773.85" font-family="Helvetica,sans-Serif" font-size="10.00" fill="grey">_IdxBuffer</text>
</g>
<!-- Node6 -->
<g id="Node000006" class="node">
<title>Node6</title>
<g id="a_Node000006"><a xlink:href="structImVector.html" target="_top" xlink:title=" ">
<polygon fill="white" stroke="#666666" points="1331,-619.58 1191.25,-619.58 1191.25,-598.83 1331,-598.83 1331,-619.58"/>
<text xml:space="preserve" text-anchor="middle" x="1261.12" y="-606.08" font-family="Helvetica,sans-Serif" font-size="10.00">ImVector&lt; ImDrawVert &gt;</text>
</a>
</g>
</g>
<!-- Node6&#45;&gt;Node3 -->
<g id="edge6_Node000003_Node000006" class="edge">
<title>Node6&#45;&gt;Node3</title>
<g id="a_edge6_Node000003_Node000006"><a xlink:title=" ">
<path fill="none" stroke="#9a32cd" stroke-dasharray="5,2" d="M1342.56,-603.85C1375.67,-603.6 1414.13,-605.87 1448,-614.45 1479.99,-622.56 1513.49,-642.08 1532.56,-654.41"/>
<polygon fill="#9a32cd" stroke="#9a32cd" points="1342.54,-600.35 1332.6,-604.01 1342.66,-607.35 1342.54,-600.35"/>
</a>
</g>
<text xml:space="preserve" text-anchor="start" x="1376" y="-620.7" font-family="Helvetica,sans-Serif" font-size="10.00" fill="grey">VtxBuffer</text>
</g>
<!-- Node7 -->
<g id="Node000007" class="node">
<title>Node7</title>
<g id="a_Node000007"><a xlink:href="structImDrawVert.html" target="_top" xlink:title=" ">
<polygon fill="white" stroke="#666666" points="1040.88,-579.58 967.12,-579.58 967.12,-558.83 1040.88,-558.83 1040.88,-579.58"/>
<text xml:space="preserve" text-anchor="middle" x="1004" y="-566.08" font-family="Helvetica,sans-Serif" font-size="10.00">ImDrawVert</text>
</a>
</g>
</g>
<!-- Node7&#45;&gt;Node3 -->
<g id="edge35_Node000003_Node000007" class="edge">
<title>Node7&#45;&gt;Node3</title>
<g id="a_edge35_Node000003_Node000007"><a xlink:title=" ">
<path fill="none" stroke="#9a32cd" stroke-dasharray="5,2" d="M1052.53,-562.58C1136.35,-553.01 1314.2,-542.28 1448,-600.2 1481.53,-614.72 1516.4,-640 1534.92,-654.38"/>
<polygon fill="#9a32cd" stroke="#9a32cd" points="1052.36,-559.07 1042.84,-563.73 1053.19,-566.03 1052.36,-559.07"/>
</a>
</g>
<text xml:space="preserve" text-anchor="start" x="1230.38" y="-571.98" font-family="Helvetica,sans-Serif" font-size="10.00" fill="grey">_VtxWritePtr</text>
</g>
<!-- Node7&#45;&gt;Node6 -->
<g id="edge7_Node000006_Node000007" class="edge">
<title>Node7&#45;&gt;Node6</title>
<g id="a_edge7_Node000006_Node000007"><a xlink:title=" ">
<path fill="none" stroke="#9a32cd" stroke-dasharray="5,2" d="M1052.28,-576.61C1091.18,-582.71 1146.86,-591.44 1190.8,-598.33"/>
<polygon fill="#9a32cd" stroke="#9a32cd" points="1053.2,-573.21 1042.78,-575.12 1052.11,-580.13 1053.2,-573.21"/>
</a>
</g>
<text xml:space="preserve" text-anchor="start" x="1125.62" y="-601.37" font-family="Helvetica,sans-Serif" font-size="10.00" fill="grey">Data</text>
</g>
<!-- Node8 -->
<g id="Node000008" class="node">
<title>Node8</title>
<g id="a_Node000008"><a xlink:href="structImVec2.html" target="_top" xlink:title=" ">
<polygon fill="white" stroke="#666666" points="456.62,-452.58 404.62,-452.58 404.62,-431.83 456.62,-431.83 456.62,-452.58"/>
<text xml:space="preserve" text-anchor="middle" x="430.62" y="-439.08" font-family="Helvetica,sans-Serif" font-size="10.00">ImVec2</text>
</a>
</g>
</g>
<!-- Node8&#45;&gt;Node7 -->
<g id="edge8_Node000007_Node000008" class="edge">
<title>Node8&#45;&gt;Node7</title>
<g id="a_edge8_Node000007_Node000008"><a xlink:title=" ">
<path fill="none" stroke="#9a32cd" stroke-dasharray="5,2" d="M453.2,-459.76C470.36,-472.92 495.48,-490.45 520,-501.2 675.49,-569.4 883.69,-572.48 966.66,-570.61"/>
<polygon fill="#9a32cd" stroke="#9a32cd" points="455.76,-457.32 445.73,-453.91 451.44,-462.83 455.76,-457.32"/>
</a>
</g>
<text xml:space="preserve" text-anchor="start" x="719.5" y="-587.79" font-family="Helvetica,sans-Serif" font-size="10.00" fill="grey">pos</text>
<text xml:space="preserve" text-anchor="start" x="719.5" y="-571.04" font-family="Helvetica,sans-Serif" font-size="10.00" fill="grey">uv</text>
</g>
<!-- Node8&#45;&gt;Node9 -->
<g id="edge10_Node000009_Node000008" class="edge">
<title>Node8&#45;&gt;Node9</title>
<g id="a_edge10_Node000009_Node000008"><a xlink:title=" ">
<path fill="none" stroke="#9a32cd" stroke-dasharray="5,2" d="M468.03,-443.03C596.87,-445.99 1032.37,-455.98 1196.68,-459.75"/>
<polygon fill="#9a32cd" stroke="#9a32cd" points="468.46,-439.54 458.39,-442.81 468.3,-446.54 468.46,-439.54"/>
</a>
</g>
<text xml:space="preserve" text-anchor="start" x="821.25" y="-476.01" font-family="Helvetica,sans-Serif" font-size="10.00" fill="grey">ArcFastVtx</text>
<text xml:space="preserve" text-anchor="start" x="821.25" y="-459.26" font-family="Helvetica,sans-Serif" font-size="10.00" fill="grey">TexUvWhitePixel</text>
</g>
<!-- Node8&#45;&gt;Node15 -->
<g id="edge19_Node000015_Node000008" class="edge">
<title>Node8&#45;&gt;Node15</title>
<g id="a_edge19_Node000015_Node000008"><a xlink:title=" ">
<path fill="none" stroke="#9a32cd" stroke-dasharray="5,2" d="M448.75,-423.1C466.34,-403.62 494.66,-372.65 520,-346.7 571.06,-294.42 602.6,-296.13 638,-232.2 656.5,-198.8 634.16,-179.52 656,-148.2 666.78,-132.74 684.76,-121.43 699.94,-114.02"/>
<polygon fill="#9a32cd" stroke="#9a32cd" points="446.35,-420.53 442.26,-430.3 451.55,-425.21 446.35,-420.53"/>
</a>
</g>
<text xml:space="preserve" text-anchor="start" x="538.12" y="-369.7" font-family="Helvetica,sans-Serif" font-size="10.00" fill="grey">TexUvScale</text>
<text xml:space="preserve" text-anchor="start" x="538.12" y="-352.95" font-family="Helvetica,sans-Serif" font-size="10.00" fill="grey">TexUvWhitePixel</text>
</g>
<!-- Node18 -->
<g id="Node000018" class="node">
<title>Node18</title>
<g id="a_Node000018"><a xlink:href="structImFontAtlasCustomRect.html" target="_top" xlink:title=" ">
<polygon fill="white" stroke="#666666" points="1328,-272.58 1194.25,-272.58 1194.25,-251.83 1328,-251.83 1328,-272.58"/>
<text xml:space="preserve" text-anchor="middle" x="1261.12" y="-259.08" font-family="Helvetica,sans-Serif" font-size="10.00">ImFontAtlasCustomRect</text>
</a>
</g>
</g>
<!-- Node8&#45;&gt;Node18 -->
<g id="edge24_Node000018_Node000008" class="edge">
<title>Node8&#45;&gt;Node18</title>
<g id="a_edge24_Node000018_Node000008"><a xlink:title=" ">
<path fill="none" stroke="#9a32cd" stroke-dasharray="5,2" d="M468.06,-440.68C612.92,-434.54 1141.69,-410.99 1172.5,-393.2 1220.84,-365.29 1247.78,-298.67 1256.73,-272.76"/>
<polygon fill="#9a32cd" stroke="#9a32cd" points="468.13,-437.18 458.29,-441.1 468.42,-444.17 468.13,-437.18"/>
</a>
</g>
<text xml:space="preserve" text-anchor="start" x="833.25" y="-429.87" font-family="Helvetica,sans-Serif" font-size="10.00" fill="grey">GlyphOffset</text>
</g>
<!-- Node20 -->
<g id="Node000020" class="node">
<title>Node20</title>
<g id="a_Node000020"><a xlink:href="structImFontConfig.html" target="_top" xlink:title=" ">
<polygon fill="white" stroke="#666666" points="1301.38,-209.58 1220.88,-209.58 1220.88,-188.83 1301.38,-188.83 1301.38,-209.58"/>
<text xml:space="preserve" text-anchor="middle" x="1261.12" y="-196.08" font-family="Helvetica,sans-Serif" font-size="10.00">ImFontConfig</text>
</a>
</g>
</g>
<!-- Node8&#45;&gt;Node20 -->
<g id="edge28_Node000020_Node000008" class="edge">
<title>Node8&#45;&gt;Node20</title>
<g id="a_edge28_Node000020_Node000008"><a xlink:title=" ">
<path fill="none" stroke="#9a32cd" stroke-dasharray="5,2" d="M468.11,-436.53C484.03,-434.13 502.92,-431.39 520,-429.2 652.27,-412.22 685.55,-409.59 818.25,-396.45 896.89,-388.66 1115.01,-419.42 1172.5,-365.2 1212.37,-327.59 1160.61,-289.14 1190.5,-243.2 1200.33,-228.1 1217.35,-217.2 1232.1,-210.03"/>
<polygon fill="#9a32cd" stroke="#9a32cd" points="467.97,-433.01 458.61,-437.97 469.02,-439.93 467.97,-433.01"/>
</a>
</g>
<text xml:space="preserve" text-anchor="start" x="833.25" y="-402.7" font-family="Helvetica,sans-Serif" font-size="10.00" fill="grey">GlyphOffset</text>
</g>
<!-- Node22 -->
<g id="Node000022" class="node">
<title>Node22</title>
<g id="a_Node000022"><a xlink:href="structImVector.html" target="_top" xlink:title=" ">
<polygon fill="white" stroke="#666666" points="1063,-524.58 945,-524.58 945,-503.83 1063,-503.83 1063,-524.58"/>
<text xml:space="preserve" text-anchor="middle" x="1004" y="-511.08" font-family="Helvetica,sans-Serif" font-size="10.00">ImVector&lt; ImVec2 &gt;</text>
</a>
</g>
</g>
<!-- Node8&#45;&gt;Node22 -->
<g id="edge34_Node000022_Node000008" class="edge">
<title>Node8&#45;&gt;Node22</title>
<g id="a_edge34_Node000022_Node000008"><a xlink:title=" ">
<path fill="none" stroke="#9a32cd" stroke-dasharray="5,2" d="M463.71,-457.61C480.16,-464.81 500.74,-472.75 520,-477.2 670.16,-511.89 852.83,-515.87 944.53,-515.34"/>
<polygon fill="#9a32cd" stroke="#9a32cd" points="465.49,-454.57 454.93,-453.65 462.61,-460.95 465.49,-454.57"/>
</a>
</g>
<text xml:space="preserve" text-anchor="start" x="716.5" y="-518.16" font-family="Helvetica,sans-Serif" font-size="10.00" fill="grey">Data</text>
</g>
<!-- Node9&#45;&gt;Node3 -->
<g id="edge9_Node000003_Node000009" class="edge">
<title>Node9&#45;&gt;Node3</title>
<g id="a_edge9_Node000003_Node000009"><a xlink:title=" ">
<path fill="none" stroke="#9a32cd" stroke-dasharray="5,2" d="M1336.59,-450.45C1372.9,-449 1415.6,-453.28 1448,-474.45 1514.73,-518.05 1539.9,-621.15 1546.48,-654.55"/>
<polygon fill="#9a32cd" stroke="#9a32cd" points="1336.84,-446.93 1327.06,-450.99 1337.24,-453.92 1336.84,-446.93"/>
</a>
</g>
<text xml:space="preserve" text-anchor="start" x="1384.62" y="-480.7" font-family="Helvetica,sans-Serif" font-size="10.00" fill="grey">_Data</text>
</g>
<!-- Node10 -->
<g id="Node000010" class="node">
<title>Node10</title>
<g id="a_Node000010"><a xlink:href="structImFont.html" target="_top" xlink:title=" ">
<polygon fill="white" stroke="#666666" points="1028.88,-226.58 979.12,-226.58 979.12,-205.83 1028.88,-205.83 1028.88,-226.58"/>
<text xml:space="preserve" text-anchor="middle" x="1004" y="-213.08" font-family="Helvetica,sans-Serif" font-size="10.00">ImFont</text>
</a>
</g>
</g>
<!-- Node10&#45;&gt;Node9 -->
<g id="edge12_Node000009_Node000010" class="edge">
<title>Node10&#45;&gt;Node9</title>
<g id="a_edge12_Node000009_Node000010"><a xlink:title=" ">
<path fill="none" stroke="#9a32cd" stroke-dasharray="5,2" d="M1024.45,-234.88C1075,-283.42 1209.32,-412.42 1248.96,-450.48"/>
<polygon fill="#9a32cd" stroke="#9a32cd" points="1027.02,-232.49 1017.38,-228.09 1022.17,-237.54 1027.02,-232.49"/>
</a>
</g>
<text xml:space="preserve" text-anchor="start" x="1126.75" y="-381.21" font-family="Helvetica,sans-Serif" font-size="10.00" fill="grey">Font</text>
</g>
<!-- Node16 -->
<g id="Node000016" class="node">
<title>Node16</title>
<g id="a_Node000016"><a xlink:href="structImVector.html" target="_top" xlink:title=" ">
<polygon fill="white" stroke="#666666" points="1323.12,-130.58 1199.12,-130.58 1199.12,-109.83 1323.12,-109.83 1323.12,-130.58"/>
<text xml:space="preserve" text-anchor="middle" x="1261.12" y="-117.08" font-family="Helvetica,sans-Serif" font-size="10.00">ImVector&lt; ImFont * &gt;</text>
</a>
</g>
</g>
<!-- Node10&#45;&gt;Node16 -->
<g id="edge21_Node000016_Node000010" class="edge">
<title>Node10&#45;&gt;Node16</title>
<g id="a_edge21_Node000016_Node000010"><a xlink:title=" ">
<path fill="none" stroke="#9a32cd" stroke-dasharray="5,2" d="M1027.18,-198.45C1046.03,-184.23 1074.36,-164.83 1102,-153.45 1132.74,-140.79 1168.9,-132.73 1198.88,-127.72"/>
<polygon fill="#9a32cd" stroke="#9a32cd" points="1025.22,-195.54 1019.44,-204.42 1029.49,-201.08 1025.22,-195.54"/>
</a>
</g>
<text xml:space="preserve" text-anchor="start" x="1125.62" y="-159.7" font-family="Helvetica,sans-Serif" font-size="10.00" fill="grey">Data</text>
</g>
<!-- Node10&#45;&gt;Node18 -->
<g id="edge25_Node000018_Node000010" class="edge">
<title>Node10&#45;&gt;Node18</title>
<g id="a_edge25_Node000018_Node000010"><a xlink:title=" ">
<path fill="none" stroke="#9a32cd" stroke-dasharray="5,2" d="M1040.08,-222.53C1081.22,-229.94 1150.1,-242.36 1199.86,-251.33"/>
<polygon fill="#9a32cd" stroke="#9a32cd" points="1040.95,-219.13 1030.49,-220.8 1039.71,-226.02 1040.95,-219.13"/>
</a>
</g>
<text xml:space="preserve" text-anchor="start" x="1126.75" y="-252.26" font-family="Helvetica,sans-Serif" font-size="10.00" fill="grey">Font</text>
</g>
<!-- Node10&#45;&gt;Node20 -->
<g id="edge29_Node000020_Node000010" class="edge">
<title>Node10&#45;&gt;Node20</title>
<g id="a_edge29_Node000020_Node000010"><a xlink:title=" ">
<path fill="none" stroke="#9a32cd" stroke-dasharray="5,2" d="M1037.16,-200.65C1055.66,-192.57 1079.6,-183.55 1102,-179.45 1143.5,-171.85 1191.67,-180.32 1223.84,-188.4"/>
<polygon fill="#9a32cd" stroke="#9a32cd" points="1035.74,-197.45 1028.07,-204.75 1038.62,-203.83 1035.74,-197.45"/>
</a>
</g>
<text xml:space="preserve" text-anchor="start" x="1118.5" y="-185.7" font-family="Helvetica,sans-Serif" font-size="10.00" fill="grey">DstFont</text>
</g>
<!-- Node11 -->
<g id="Node000011" class="node">
<title>Node11</title>
<g id="a_Node000011"><a xlink:href="structImVector.html" target="_top" xlink:title=" ">
<polygon fill="white" stroke="#666666" points="780,-305.58 676.25,-305.58 676.25,-284.83 780,-284.83 780,-305.58"/>
<text xml:space="preserve" text-anchor="middle" x="728.12" y="-292.08" font-family="Helvetica,sans-Serif" font-size="10.00">ImVector&lt; float &gt;</text>
</a>
</g>
</g>
<!-- Node11&#45;&gt;Node10 -->
<g id="edge13_Node000010_Node000011" class="edge">
<title>Node11&#45;&gt;Node10</title>
<g id="a_edge13_Node000010_Node000011"><a xlink:title=" ">
<path fill="none" stroke="#9a32cd" stroke-dasharray="5,2" d="M791.76,-289.77C826.11,-285.59 869.1,-278.4 906,-266.2 935.68,-256.39 967.4,-238.45 986.2,-226.94"/>
<polygon fill="#9a32cd" stroke="#9a32cd" points="791.49,-286.28 781.96,-290.9 792.29,-293.23 791.49,-286.28"/>
</a>
</g>
<text xml:space="preserve" text-anchor="start" x="824.25" y="-292.08" font-family="Helvetica,sans-Serif" font-size="10.00" fill="grey">IndexAdvanceX</text>
</g>
<!-- Node12 -->
<g id="Node000012" class="node">
<title>Node12</title>
<g id="a_Node000012"><a xlink:href="structImVector.html" target="_top" xlink:title=" ">
<polygon fill="white" stroke="#666666" points="785.25,-266.58 671,-266.58 671,-245.83 785.25,-245.83 785.25,-266.58"/>
<text xml:space="preserve" text-anchor="middle" x="728.12" y="-253.08" font-family="Helvetica,sans-Serif" font-size="10.00">ImVector&lt; ImU16 &gt;</text>
</a>
</g>
</g>
<!-- Node12&#45;&gt;Node10 -->
<g id="edge14_Node000010_Node000012" class="edge">
<title>Node12&#45;&gt;Node10</title>
<g id="a_edge14_Node000010_Node000012"><a xlink:title=" ">
<path fill="none" stroke="#9a32cd" stroke-dasharray="5,2" d="M797.03,-246.81C829.95,-242.21 870.05,-236.52 906,-231.2 930.78,-227.53 959.08,-223.13 978.7,-220.05"/>
<polygon fill="#9a32cd" stroke="#9a32cd" points="796.63,-243.34 787.21,-248.18 797.6,-250.27 796.63,-243.34"/>
</a>
</g>
<text xml:space="preserve" text-anchor="start" x="831.38" y="-249.98" font-family="Helvetica,sans-Serif" font-size="10.00" fill="grey">IndexLookup</text>
</g>
<!-- Node13 -->
<g id="Node000013" class="node">
<title>Node13</title>
<g id="a_Node000013"><a xlink:href="structImVector.html" target="_top" xlink:title=" ">
<polygon fill="white" stroke="#666666" points="800.25,-227.58 656,-227.58 656,-206.83 800.25,-206.83 800.25,-227.58"/>
<text xml:space="preserve" text-anchor="middle" x="728.12" y="-214.08" font-family="Helvetica,sans-Serif" font-size="10.00">ImVector&lt; ImFontGlyph &gt;</text>
</a>
</g>
</g>
<!-- Node13&#45;&gt;Node10 -->
<g id="edge15_Node000010_Node000013" class="edge">
<title>Node13&#45;&gt;Node10</title>
<g id="a_edge15_Node000010_Node000013"><a xlink:title=" ">
<path fill="none" stroke="#9a32cd" stroke-dasharray="5,2" d="M812,-212.64C814.1,-212.57 816.19,-212.51 818.25,-212.45 857.24,-211.41 867.01,-211.7 906,-212.45 930.77,-212.93 959.08,-214.09 978.69,-215"/>
<polygon fill="#9a32cd" stroke="#9a32cd" points="812,-209.13 802.13,-213 812.25,-216.13 812,-209.13"/>
</a>
</g>
<text xml:space="preserve" text-anchor="start" x="845.25" y="-218.7" font-family="Helvetica,sans-Serif" font-size="10.00" fill="grey">Glyphs</text>
</g>
<!-- Node14 -->
<g id="Node000014" class="node">
<title>Node14</title>
<g id="a_Node000014"><a xlink:href="structImFontGlyph.html" target="_top" xlink:title=" ">
<polygon fill="white" stroke="#666666" points="469.75,-204.58 391.5,-204.58 391.5,-183.83 469.75,-183.83 469.75,-204.58"/>
<text xml:space="preserve" text-anchor="middle" x="430.62" y="-191.08" font-family="Helvetica,sans-Serif" font-size="10.00">ImFontGlyph</text>
</a>
</g>
</g>
<!-- Node14&#45;&gt;Node10 -->
<g id="edge17_Node000010_Node000014" class="edge">
<title>Node14&#45;&gt;Node10</title>
<g id="a_edge17_Node000010_Node000014"><a xlink:title=" ">
<path fill="none" stroke="#9a32cd" stroke-dasharray="5,2" d="M481.43,-188.13C552.36,-180.4 686.5,-169.22 800.25,-179.45 865.45,-185.31 941.04,-201.57 978.85,-210.37"/>
<polygon fill="#9a32cd" stroke="#9a32cd" points="481.24,-184.63 471.69,-189.21 482.01,-191.58 481.24,-184.63"/>
</a>
</g>
<text xml:space="preserve" text-anchor="start" x="694" y="-185.7" font-family="Helvetica,sans-Serif" font-size="10.00" fill="grey">FallbackGlyph</text>
</g>
<!-- Node14&#45;&gt;Node13 -->
<g id="edge16_Node000013_Node000014" class="edge">
<title>Node14&#45;&gt;Node13</title>
<g id="a_edge16_Node000013_Node000014"><a xlink:title=" ">
<path fill="none" stroke="#9a32cd" stroke-dasharray="5,2" d="M481.24,-198.06C529.01,-201.78 601.76,-207.44 655.75,-211.64"/>
<polygon fill="#9a32cd" stroke="#9a32cd" points="481.7,-194.59 471.46,-197.3 481.16,-201.57 481.7,-194.59"/>
</a>
</g>
<text xml:space="preserve" text-anchor="start" x="567.38" y="-216.01" font-family="Helvetica,sans-Serif" font-size="10.00" fill="grey">Data</text>
</g>
<!-- Node15&#45;&gt;Node10 -->
<g id="edge18_Node000010_Node000015" class="edge">
<title>Node15&#45;&gt;Node10</title>
<g id="a_edge18_Node000010_Node000015"><a xlink:title=" ">
<path fill="none" stroke="#9a32cd" stroke-dasharray="5,2" d="M776.62,-109.74C820.94,-116.31 883.51,-126.96 906,-137.45 942.56,-154.51 977.2,-188.35 993.41,-205.58"/>
<polygon fill="#9a32cd" stroke="#9a32cd" points="777.4,-106.31 767,-108.33 776.39,-113.24 777.4,-106.31"/>
</a>
</g>
<text xml:space="preserve" text-anchor="start" x="826.12" y="-143.7" font-family="Helvetica,sans-Serif" font-size="10.00" fill="grey">ContainerAtlas</text>
</g>
<!-- Node16&#45;&gt;Node15 -->
<g id="edge20_Node000015_Node000016" class="edge">
<title>Node16&#45;&gt;Node15</title>
<g id="a_edge20_Node000015_Node000016"><a xlink:title=" ">
<path fill="none" stroke="#9a32cd" stroke-dasharray="5,2" d="M1187.38,-117.87C1072.29,-114.19 852.38,-107.15 765.62,-104.37"/>
<polygon fill="#9a32cd" stroke="#9a32cd" points="1187.24,-121.37 1197.35,-118.19 1187.46,-114.37 1187.24,-121.37"/>
</a>
</g>
<text xml:space="preserve" text-anchor="start" x="990.88" y="-120.74" font-family="Helvetica,sans-Serif" font-size="10.00" fill="grey">Fonts</text>
</g>
<!-- Node17 -->
<g id="Node000017" class="node">
<title>Node17</title>
<g id="a_Node000017"><a xlink:href="structImVector.html" target="_top" xlink:title=" ">
<polygon fill="white" stroke="#666666" points="1632.75,-168.95 1466,-168.95 1466,-135.45 1632.75,-135.45 1632.75,-168.95"/>
<text xml:space="preserve" text-anchor="start" x="1474" y="-155.45" font-family="Helvetica,sans-Serif" font-size="10.00">ImVector&lt; ImFontAtlasCustom</text>
<text xml:space="preserve" text-anchor="middle" x="1549.38" y="-142.7" font-family="Helvetica,sans-Serif" font-size="10.00">Rect &gt;</text>
</a>
</g>
</g>
<!-- Node17&#45;&gt;Node15 -->
<g id="edge22_Node000015_Node000017" class="edge">
<title>Node17&#45;&gt;Node15</title>
<g id="a_edge22_Node000015_Node000017"><a xlink:title=" ">
<path fill="none" stroke="#9a32cd" stroke-dasharray="5,2" d="M1505.5,-130.07C1488.1,-122.1 1467.53,-113.91 1448,-109.2 1397.66,-97.05 1383.44,-104.4 1331.75,-101.2 1261,-96.82 1243.36,-94.4 1172.5,-92.45 1021.45,-88.3 841.43,-96.83 765.62,-101.04"/>
<polygon fill="#9a32cd" stroke="#9a32cd" points="1503.97,-133.22 1514.51,-134.32 1506.96,-126.89 1503.97,-133.22"/>
</a>
</g>
<text xml:space="preserve" text-anchor="start" x="1105" y="-98.7" font-family="Helvetica,sans-Serif" font-size="10.00" fill="grey">CustomRects</text>
</g>
<!-- Node18&#45;&gt;Node17 -->
<g id="edge23_Node000017_Node000018" class="edge">
<title>Node18&#45;&gt;Node17</title>
<g id="a_edge23_Node000017_Node000018"><a xlink:title=" ">
<path fill="none" stroke="#9a32cd" stroke-dasharray="5,2" d="M1302.03,-247.42C1339.72,-233.4 1397.81,-211.65 1448,-192.2 1467.07,-184.81 1488.09,-176.46 1505.95,-169.31"/>
<polygon fill="#9a32cd" stroke="#9a32cd" points="1301.06,-244.05 1292.91,-250.81 1303.5,-250.61 1301.06,-244.05"/>
</a>
</g>
<text xml:space="preserve" text-anchor="start" x="1387.25" y="-235.07" font-family="Helvetica,sans-Serif" font-size="10.00" fill="grey">Data</text>
</g>
<!-- Node19 -->
<g id="Node000019" class="node">
<title>Node19</title>
<g id="a_Node000019"><a xlink:href="structImVector.html" target="_top" xlink:title=" ">
<polygon fill="white" stroke="#666666" points="1622.62,-77.58 1476.12,-77.58 1476.12,-56.83 1622.62,-56.83 1622.62,-77.58"/>
<text xml:space="preserve" text-anchor="middle" x="1549.38" y="-64.08" font-family="Helvetica,sans-Serif" font-size="10.00">ImVector&lt; ImFontConfig &gt;</text>
</a>
</g>
</g>
<!-- Node19&#45;&gt;Node15 -->
<g id="edge26_Node000015_Node000019" class="edge">
<title>Node19&#45;&gt;Node15</title>
<g id="a_edge26_Node000015_Node000019"><a xlink:title=" ">
<path fill="none" stroke="#9a32cd" stroke-dasharray="5,2" d="M1498.97,-53.49C1378.35,-22.54 1060.92,43.53 818.25,-43.2 787.34,-54.25 756.8,-78.47 740.74,-92.52"/>
<polygon fill="#9a32cd" stroke="#9a32cd" points="1498,-56.85 1508.56,-55.98 1499.76,-50.08 1498,-56.85"/>
</a>
</g>
<text xml:space="preserve" text-anchor="start" x="1118.12" y="-8.28" font-family="Helvetica,sans-Serif" font-size="10.00" fill="grey">Sources</text>
</g>
<!-- Node20&#45;&gt;Node10 -->
<g id="edge32_Node000010_Node000020" class="edge">
<title>Node20&#45;&gt;Node10</title>
<g id="a_edge32_Node000010_Node000020"><a xlink:title=" ">
<path fill="none" stroke="#9a32cd" stroke-dasharray="5,2" d="M1209.5,-202.57C1154.84,-206.22 1070.11,-211.86 1029,-214.6"/>
<polygon fill="#9a32cd" stroke="#9a32cd" points="1209.42,-206.09 1219.17,-201.93 1208.96,-199.1 1209.42,-206.09"/>
</a>
</g>
<text xml:space="preserve" text-anchor="start" x="1118.12" y="-215.97" font-family="Helvetica,sans-Serif" font-size="10.00" fill="grey">Sources</text>
</g>
<!-- Node20&#45;&gt;Node19 -->
<g id="edge27_Node000019_Node000020" class="edge">
<title>Node20&#45;&gt;Node19</title>
<g id="a_edge27_Node000019_Node000020"><a xlink:title=" ">
<path fill="none" stroke="#9a32cd" stroke-dasharray="5,2" d="M1295.78,-183.68C1354.55,-156.58 1474.44,-101.29 1525.03,-77.97"/>
<polygon fill="#9a32cd" stroke="#9a32cd" points="1294.54,-180.4 1286.92,-187.76 1297.47,-186.76 1294.54,-180.4"/>
</a>
</g>
<text xml:space="preserve" text-anchor="start" x="1387.25" y="-162.75" font-family="Helvetica,sans-Serif" font-size="10.00" fill="grey">Data</text>
</g>
<!-- Node21 -->
<g id="Node000021" class="node">
<title>Node21</title>
<g id="a_Node000021"><a xlink:href="structImFontBuilderIO.html" target="_top" xlink:title=" ">
<polygon fill="white" stroke="#666666" points="478,-149.58 383.25,-149.58 383.25,-128.83 478,-128.83 478,-149.58"/>
<text xml:space="preserve" text-anchor="middle" x="430.62" y="-136.08" font-family="Helvetica,sans-Serif" font-size="10.00">ImFontBuilderIO</text>
</a>
</g>
</g>
<!-- Node21&#45;&gt;Node15 -->
<g id="edge31_Node000015_Node000021" class="edge">
<title>Node21&#45;&gt;Node15</title>
<g id="a_edge31_Node000015_Node000021"><a xlink:title=" ">
<path fill="none" stroke="#9a32cd" stroke-dasharray="5,2" d="M489.58,-132.21C530.95,-127.22 587.9,-120.33 638,-114.2 655.33,-112.08 674.56,-109.71 690.7,-107.71"/>
<polygon fill="#9a32cd" stroke="#9a32cd" points="489.36,-128.72 479.85,-133.39 490.2,-135.67 489.36,-128.72"/>
</a>
</g>
<text xml:space="preserve" text-anchor="start" x="546" y="-134.73" font-family="Helvetica,sans-Serif" font-size="10.00" fill="grey">FontBuilderIO</text>
</g>
<!-- Node22&#45;&gt;Node3 -->
<g id="edge36_Node000003_Node000022" class="edge">
<title>Node22&#45;&gt;Node3</title>
<g id="a_edge36_Node000003_Node000022"><a xlink:title=" ">
<path fill="none" stroke="#9a32cd" stroke-dasharray="5,2" d="M1074.45,-513.54C1140.95,-513.97 1243.87,-517.44 1331.75,-532.45 1384.78,-541.51 1401.6,-538.98 1448,-566.2 1488.75,-590.1 1525.11,-634.23 1540.53,-654.51"/>
<polygon fill="#9a32cd" stroke="#9a32cd" points="1074.82,-510.04 1064.8,-513.5 1074.79,-517.04 1074.82,-510.04"/>
</a>
</g>
<text xml:space="preserve" text-anchor="start" x="1248" y="-538.7" font-family="Helvetica,sans-Serif" font-size="10.00" fill="grey">_Path</text>
</g>
<!-- Node22&#45;&gt;Node9 -->
<g id="edge33_Node000009_Node000022" class="edge">
<title>Node22&#45;&gt;Node9</title>
<g id="a_edge33_Node000009_Node000022"><a xlink:title=" ">
<path fill="none" stroke="#9a32cd" stroke-dasharray="5,2" d="M1053.47,-500.43C1068.91,-496.28 1086.11,-491.92 1102,-488.45 1132.89,-481.7 1167.47,-475.58 1196.4,-470.86"/>
<polygon fill="#9a32cd" stroke="#9a32cd" points="1052.78,-496.99 1044.04,-502.99 1054.61,-503.74 1052.78,-496.99"/>
</a>
</g>
<text xml:space="preserve" text-anchor="start" x="1109.5" y="-494.7" font-family="Helvetica,sans-Serif" font-size="10.00" fill="grey">TempBuffer</text>
</g>
<!-- Node23&#45;&gt;Node3 -->
<g id="edge37_Node000003_Node000023" class="edge">
<title>Node23&#45;&gt;Node3</title>
<g id="a_edge37_Node000003_Node000023"><a xlink:title=" ">
<path fill="none" stroke="#9a32cd" stroke-dasharray="5,2" d="M353.05,-881.35C412.18,-883.08 500.82,-885.2 578,-885.2 578,-885.2 578,-885.2 1262.12,-885.2 1346.19,-885.2 1380.07,-899.72 1448,-850.2 1510.6,-804.57 1538.36,-707.64 1546.05,-675.67"/>
<polygon fill="#9a32cd" stroke="#9a32cd" points="353.24,-877.86 343.14,-881.06 353.04,-884.86 353.24,-877.86"/>
</a>
</g>
<text xml:space="preserve" text-anchor="start" x="830.62" y="-891.45" font-family="Helvetica,sans-Serif" font-size="10.00" fill="grey">_CmdHeader</text>
</g>
<!-- Node24 -->
<g id="Node000024" class="node">
<title>Node24</title>
<g id="a_Node000024"><a xlink:href="structImDrawListSplitter.html" target="_top" xlink:title=" ">
<polygon fill="white" stroke="#666666" points="1314.5,-695.58 1207.75,-695.58 1207.75,-674.83 1314.5,-674.83 1314.5,-695.58"/>
<text xml:space="preserve" text-anchor="middle" x="1261.12" y="-682.08" font-family="Helvetica,sans-Serif" font-size="10.00">ImDrawListSplitter</text>
</a>
</g>
</g>
<!-- Node24&#45;&gt;Node3 -->
<g id="edge39_Node000003_Node000024" class="edge">
<title>Node24&#45;&gt;Node3</title>
<g id="a_edge39_Node000003_Node000024"><a xlink:title=" ">
<path fill="none" stroke="#9a32cd" stroke-dasharray="5,2" d="M1326.18,-680.73C1384.02,-676.68 1466.97,-670.89 1513.42,-667.64"/>
<polygon fill="#9a32cd" stroke="#9a32cd" points="1326.2,-677.21 1316.47,-681.4 1326.69,-684.2 1326.2,-677.21"/>
</a>
</g>
<text xml:space="preserve" text-anchor="start" x="1378.62" y="-684.98" font-family="Helvetica,sans-Serif" font-size="10.00" fill="grey">_Splitter</text>
</g>
<!-- Node25 -->
<g id="Node000025" class="node">
<title>Node25</title>
<g id="a_Node000025"><a xlink:href="structImVector.html" target="_top" xlink:title=" ">
<polygon fill="white" stroke="#666666" points="1084,-692.58 924,-692.58 924,-671.83 1084,-671.83 1084,-692.58"/>
<text xml:space="preserve" text-anchor="middle" x="1004" y="-679.08" font-family="Helvetica,sans-Serif" font-size="10.00">ImVector&lt; ImDrawChannel &gt;</text>
</a>
</g>
</g>
<!-- Node25&#45;&gt;Node24 -->
<g id="edge40_Node000024_Node000025" class="edge">
<title>Node25&#45;&gt;Node24</title>
<g id="a_edge40_Node000024_Node000025"><a xlink:title=" ">
<path fill="none" stroke="#9a32cd" stroke-dasharray="5,2" d="M1095.78,-683.27C1133.21,-683.71 1175.26,-684.2 1207.46,-684.58"/>
<polygon fill="#9a32cd" stroke="#9a32cd" points="1095.88,-679.77 1085.84,-683.15 1095.8,-686.77 1095.88,-679.77"/>
</a>
</g>
<text xml:space="preserve" text-anchor="start" x="1112.12" y="-690.39" font-family="Helvetica,sans-Serif" font-size="10.00" fill="grey">_Channels</text>
</g>
<!-- Node26&#45;&gt;Node25 -->
<g id="edge41_Node000025_Node000026" class="edge">
<title>Node26&#45;&gt;Node25</title>
<g id="a_edge41_Node000025_Node000026"><a xlink:title=" ">
<path fill="none" stroke="#9a32cd" stroke-dasharray="5,2" d="M786.92,-682.2C826.63,-682.2 879.84,-682.2 923.52,-682.2"/>
<polygon fill="#9a32cd" stroke="#9a32cd" points="787.1,-678.7 777.1,-682.2 787.1,-685.7 787.1,-678.7"/>
</a>
</g>
<text xml:space="preserve" text-anchor="start" x="850.5" y="-688.45" font-family="Helvetica,sans-Serif" font-size="10.00" fill="grey">Data</text>
</g>
<!-- Node27&#45;&gt;Node3 -->
<g id="edge44_Node000003_Node000027" class="edge">
<title>Node27&#45;&gt;Node3</title>
<g id="a_edge44_Node000003_Node000027"><a xlink:title=" ">
<path fill="none" stroke="#9a32cd" stroke-dasharray="5,2" d="M649.78,-833.29C706.66,-835.54 789.07,-838.2 861.12,-838.2 861.12,-838.2 861.12,-838.2 1262.12,-838.2 1344.97,-838.2 1377,-866.9 1448,-824.2 1506.47,-789.04 1536.37,-705.31 1545.38,-675.75"/>
<polygon fill="#9a32cd" stroke="#9a32cd" points="650.05,-829.8 639.92,-832.89 649.77,-836.79 650.05,-829.8"/>
</a>
</g>
<text xml:space="preserve" text-anchor="start" x="967.62" y="-844.45" font-family="Helvetica,sans-Serif" font-size="10.00" fill="grey">_ClipRectStack</text>
</g>
<!-- Node28 -->
<g id="Node000028" class="node">
<title>Node28</title>
<g id="a_Node000028"><a xlink:href="structImVector.html" target="_top" xlink:title=" ">
<polygon fill="white" stroke="#666666" points="1331.75,-810.58 1190.5,-810.58 1190.5,-789.83 1331.75,-789.83 1331.75,-810.58"/>
<text xml:space="preserve" text-anchor="middle" x="1261.12" y="-797.08" font-family="Helvetica,sans-Serif" font-size="10.00">ImVector&lt; ImTextureID &gt;</text>
</a>
</g>
</g>
<!-- Node28&#45;&gt;Node3 -->
<g id="edge46_Node000003_Node000028" class="edge">
<title>Node28&#45;&gt;Node3</title>
<g id="a_edge46_Node000003_Node000028"><a xlink:title=" ">
<path fill="none" stroke="#9a32cd" stroke-dasharray="5,2" d="M1343.15,-803.06C1377.18,-801.19 1416.17,-794.82 1448,-778.2 1494.29,-754.03 1529.27,-699.16 1542.55,-675.92"/>
<polygon fill="#9a32cd" stroke="#9a32cd" points="1343.17,-799.56 1333.33,-803.47 1343.46,-806.55 1343.17,-799.56"/>
</a>
</g>
<text xml:space="preserve" text-anchor="start" x="1360.25" y="-808.83" font-family="Helvetica,sans-Serif" font-size="10.00" fill="grey">_TextureIdStack</text>
</g>
<!-- Node29 -->
<g id="Node000029" class="node">
<title>Node29</title>
<g id="a_Node000029"><a xlink:href="structImVector.html" target="_top" xlink:title=" ">
<polygon fill="white" stroke="#666666" points="1315.25,-771.58 1207,-771.58 1207,-750.83 1315.25,-750.83 1315.25,-771.58"/>
<text xml:space="preserve" text-anchor="middle" x="1261.12" y="-758.08" font-family="Helvetica,sans-Serif" font-size="10.00">ImVector&lt; ImU8 &gt;</text>
</a>
</g>
</g>
<!-- Node29&#45;&gt;Node3 -->
<g id="edge47_Node000003_Node000029" class="edge">
<title>Node29&#45;&gt;Node3</title>
<g id="a_edge47_Node000003_Node000029"><a xlink:title=" ">
<path fill="none" stroke="#9a32cd" stroke-dasharray="5,2" d="M1326.55,-760.1C1363.23,-757.64 1409.42,-751.37 1448,-736.2 1484.15,-721.98 1519.63,-692.1 1537.13,-676"/>
<polygon fill="#9a32cd" stroke="#9a32cd" points="1326.78,-756.58 1317,-760.66 1327.19,-763.57 1326.78,-756.58"/>
</a>
</g>
<text xml:space="preserve" text-anchor="start" x="1352.75" y="-763.9" font-family="Helvetica,sans-Serif" font-size="10.00" fill="grey">_CallbacksDataBuf</text>
</g>
</g>
</svg>
