<?xml version="1.0" encoding="UTF-8" standalone="no"?>
<!DOCTYPE svg PUBLIC "-//W3C//DTD SVG 1.1//EN"
 "http://www.w3.org/Graphics/SVG/1.1/DTD/svg11.dtd">
<!-- Generated by graphviz version 13.0.0 (0)
 -->
<!-- Title: tinygltf::PbrMetallicRoughness Pages: 1 -->
<svg width="276pt" height="197pt"
 viewBox="0.00 0.00 276.00 197.00" xmlns="http://www.w3.org/2000/svg" xmlns:xlink="http://www.w3.org/1999/xlink">
<g id="graph0" class="graph" transform="scale(1 1) rotate(0) translate(4 192.5)">
<title>tinygltf::PbrMetallicRoughness</title>
<!-- Node1 -->
<g id="Node000001" class="node">
<title>Node1</title>
<g id="a_Node000001"><a xlink:title=" ">
<polygon fill="#999999" stroke="#666666" points="164.5,-20.75 0,-20.75 0,0 164.5,0 164.5,-20.75"/>
<text xml:space="preserve" text-anchor="middle" x="82.25" y="-7.25" font-family="Helvetica,sans-Serif" font-size="10.00">tinygltf::PbrMetallicRoughness</text>
</a>
</g>
</g>
<!-- Node2 -->
<g id="Node000002" class="node">
<title>Node2</title>
<g id="a_Node000002"><a xlink:href="structtinygltf_1_1TextureInfo.html" target="_top" xlink:title=" ">
<polygon fill="white" stroke="#666666" points="212.88,-113 101.62,-113 101.62,-92.25 212.88,-92.25 212.88,-113"/>
<text xml:space="preserve" text-anchor="middle" x="157.25" y="-99.5" font-family="Helvetica,sans-Serif" font-size="10.00">tinygltf::TextureInfo</text>
</a>
</g>
</g>
<!-- Node2&#45;&gt;Node1 -->
<g id="edge1_Node000001_Node000002" class="edge">
<title>Node2&#45;&gt;Node1</title>
<g id="a_edge1_Node000001_Node000002"><a xlink:title=" ">
<path fill="none" stroke="#9a32cd" stroke-dasharray="5,2" d="M141.9,-83.15C126.32,-64.4 102.78,-36.08 90.45,-21.24"/>
<polygon fill="#9a32cd" stroke="#9a32cd" points="139.17,-85.35 148.26,-90.8 144.56,-80.87 139.17,-85.35"/>
</a>
</g>
<text xml:space="preserve" text-anchor="start" x="135.99" y="-61.75" font-family="Helvetica,sans-Serif" font-size="10.00" fill="grey">baseColorTexture</text>
<text xml:space="preserve" text-anchor="start" x="135.99" y="-45" font-family="Helvetica,sans-Serif" font-size="10.00" fill="grey">metallicRoughnessTexture</text>
</g>
<!-- Node3 -->
<g id="Node000003" class="node">
<title>Node3</title>
<g id="a_Node000003"><a xlink:href="classtinygltf_1_1Value.html" target="_top" xlink:title=" ">
<polygon fill="white" stroke="#666666" points="105,-188.5 21.5,-188.5 21.5,-167.75 105,-167.75 105,-188.5"/>
<text xml:space="preserve" text-anchor="middle" x="63.25" y="-175" font-family="Helvetica,sans-Serif" font-size="10.00">tinygltf::Value</text>
</a>
</g>
</g>
<!-- Node3&#45;&gt;Node1 -->
<g id="edge3_Node000001_Node000003" class="edge">
<title>Node3&#45;&gt;Node1</title>
<g id="a_edge3_Node000001_Node000003"><a xlink:title=" ">
<path fill="none" stroke="#9a32cd" stroke-dasharray="5,2" d="M60.12,-156.53C58.38,-143.99 56.38,-127.61 55.5,-113 54.95,-103.79 54.03,-101.35 55.5,-92.25 59.78,-65.68 71.5,-36.01 77.91,-21.08"/>
<polygon fill="#9a32cd" stroke="#9a32cd" points="56.61,-156.71 61.52,-166.1 63.54,-155.7 56.61,-156.71"/>
</a>
</g>
<text xml:space="preserve" text-anchor="start" x="58.5" y="-99.5" font-family="Helvetica,sans-Serif" font-size="10.00" fill="grey">extras</text>
</g>
<!-- Node3&#45;&gt;Node2 -->
<g id="edge2_Node000002_Node000003" class="edge">
<title>Node3&#45;&gt;Node2</title>
<g id="a_edge2_Node000002_Node000003"><a xlink:title=" ">
<path fill="none" stroke="#9a32cd" stroke-dasharray="5,2" d="M84.42,-160.57C102.96,-146.08 129.26,-125.51 144.66,-113.47"/>
<polygon fill="#9a32cd" stroke="#9a32cd" points="82.45,-157.67 76.73,-166.58 86.76,-163.18 82.45,-157.67"/>
</a>
</g>
<text xml:space="preserve" text-anchor="start" x="124.43" y="-137.25" font-family="Helvetica,sans-Serif" font-size="10.00" fill="grey">extras</text>
</g>
</g>
</svg>
