<?xml version="1.0" encoding="UTF-8" standalone="no"?>
<!DOCTYPE svg PUBLIC "-//W3C//DTD SVG 1.1//EN"
 "http://www.w3.org/Graphics/SVG/1.1/DTD/svg11.dtd">
<!-- Generated by graphviz version 13.0.0 (0)
 -->
<!-- Title: ImGuiDemoWindowData Pages: 1 -->
<svg width="342pt" height="180pt"
 viewBox="0.00 0.00 342.00 180.00" xmlns="http://www.w3.org/2000/svg" xmlns:xlink="http://www.w3.org/1999/xlink">
<g id="graph0" class="graph" transform="scale(1 1) rotate(0) translate(4 175.75)">
<title>ImGuiDemoWindowData</title>
<!-- Node1 -->
<g id="Node000001" class="node">
<title>Node1</title>
<g id="a_Node000001"><a xlink:title=" ">
<polygon fill="#999999" stroke="#666666" points="136.75,-20.75 0,-20.75 0,0 136.75,0 136.75,-20.75"/>
<text xml:space="preserve" text-anchor="middle" x="68.38" y="-7.25" font-family="Helvetica,sans-Serif" font-size="10.00">ImGuiDemoWindowData</text>
</a>
</g>
</g>
<!-- Node2 -->
<g id="Node000002" class="node">
<title>Node2</title>
<g id="a_Node000002"><a xlink:href="structExampleTreeNode.html" target="_top" xlink:title=" ">
<polygon fill="white" stroke="#666666" points="244.62,-96.25 140.12,-96.25 140.12,-75.5 244.62,-75.5 244.62,-96.25"/>
<text xml:space="preserve" text-anchor="middle" x="192.38" y="-82.75" font-family="Helvetica,sans-Serif" font-size="10.00">ExampleTreeNode</text>
</a>
</g>
</g>
<!-- Node2&#45;&gt;Node1 -->
<g id="edge1_Node000001_Node000002" class="edge">
<title>Node2&#45;&gt;Node1</title>
<g id="a_edge1_Node000001_Node000002"><a xlink:title=" ">
<path fill="none" stroke="#9a32cd" stroke-dasharray="5,2" d="M152.92,-70.81C143.79,-66.97 134.3,-62.47 125.88,-57.5 108.02,-46.96 89.74,-31.29 78.72,-21.2"/>
<polygon fill="#9a32cd" stroke="#9a32cd" points="151.38,-73.96 161.96,-74.44 153.99,-67.47 151.38,-73.96"/>
</a>
</g>
<text xml:space="preserve" text-anchor="start" x="128.88" y="-45" font-family="Helvetica,sans-Serif" font-size="10.00" fill="grey">DemoTree</text>
</g>
<!-- Node2&#45;&gt;Node2 -->
<g id="edge2_Node000002_Node000002" class="edge">
<title>Node2&#45;&gt;Node2</title>
<g id="a_edge2_Node000002_Node000002"><a xlink:title=" ">
<path fill="none" stroke="#9a32cd" stroke-dasharray="5,2" d="M256.15,-90.86C260.19,-89.69 262.62,-88.03 262.62,-85.88 262.62,-82.15 255.34,-79.9 245.07,-79.11"/>
<polygon fill="#9a32cd" stroke="#9a32cd" points="255.88,-87.36 246.56,-92.4 256.99,-94.27 255.88,-87.36"/>
</a>
</g>
<text xml:space="preserve" text-anchor="start" x="265.62" y="-82.75" font-family="Helvetica,sans-Serif" font-size="10.00" fill="grey">Parent</text>
</g>
<!-- Node3 -->
<g id="Node000003" class="node">
<title>Node3</title>
<g id="a_Node000003"><a xlink:href="structImVector.html" target="_top" xlink:title=" ">
<polygon fill="white" stroke="#666666" points="333.75,-20.75 155,-20.75 155,0 333.75,0 333.75,-20.75"/>
<text xml:space="preserve" text-anchor="middle" x="244.38" y="-7.25" font-family="Helvetica,sans-Serif" font-size="10.00">ImVector&lt; ExampleTreeNode * &gt;</text>
</a>
</g>
</g>
<!-- Node2&#45;&gt;Node3 -->
<g id="edge4_Node000003_Node000002" class="edge">
<title>Node2&#45;&gt;Node3</title>
<g id="a_edge4_Node000003_Node000002"><a xlink:title=" ">
<path fill="none" stroke="#9a32cd" stroke-dasharray="5,2" d="M185.87,-64.33C184.41,-55.84 184.46,-46.26 189.12,-38.75 193.98,-30.93 201.81,-25.27 210.06,-21.21"/>
<polygon fill="#9a32cd" stroke="#9a32cd" points="182.42,-64.94 188.24,-73.79 189.21,-63.24 182.42,-64.94"/>
</a>
</g>
<text xml:space="preserve" text-anchor="start" x="192.12" y="-45" font-family="Helvetica,sans-Serif" font-size="10.00" fill="grey">Data</text>
</g>
<!-- Node3&#45;&gt;Node2 -->
<g id="edge3_Node000002_Node000003" class="edge">
<title>Node3&#45;&gt;Node2</title>
<g id="a_edge3_Node000002_Node000003"><a xlink:title=" ">
<path fill="none" stroke="#9a32cd" stroke-dasharray="5,2" d="M236.74,-31.62C233.07,-40.04 228.19,-49.66 222.38,-57.5 217.5,-64.07 210.89,-70.31 205.11,-75.16"/>
<polygon fill="#9a32cd" stroke="#9a32cd" points="239.9,-33.14 240.41,-22.56 233.41,-30.52 239.9,-33.14"/>
</a>
</g>
<text xml:space="preserve" text-anchor="start" x="236.09" y="-45" font-family="Helvetica,sans-Serif" font-size="10.00" fill="grey">Childs</text>
</g>
<!-- Node4 -->
<g id="Node000004" class="node">
<title>Node4</title>
<g id="a_Node000004"><a xlink:href="structImVec2.html" target="_top" xlink:title=" ">
<polygon fill="white" stroke="#666666" points="218.38,-171.75 166.38,-171.75 166.38,-151 218.38,-151 218.38,-171.75"/>
<text xml:space="preserve" text-anchor="middle" x="192.38" y="-158.25" font-family="Helvetica,sans-Serif" font-size="10.00">ImVec2</text>
</a>
</g>
</g>
<!-- Node4&#45;&gt;Node2 -->
<g id="edge5_Node000002_Node000004" class="edge">
<title>Node4&#45;&gt;Node2</title>
<g id="a_edge5_Node000002_Node000004"><a xlink:title=" ">
<path fill="none" stroke="#9a32cd" stroke-dasharray="5,2" d="M192.38,-139.26C192.38,-125.26 192.38,-107.55 192.38,-96.72"/>
<polygon fill="#9a32cd" stroke="#9a32cd" points="188.88,-139.25 192.38,-149.25 195.88,-139.25 188.88,-139.25"/>
</a>
</g>
<text xml:space="preserve" text-anchor="start" x="195.38" y="-120.5" font-family="Helvetica,sans-Serif" font-size="10.00" fill="grey">DataMyVec2</text>
</g>
</g>
</svg>
