<?xml version="1.0" encoding="UTF-8" standalone="no"?>
<!DOCTYPE svg PUBLIC "-//W3C//DTD SVG 1.1//EN"
 "http://www.w3.org/Graphics/SVG/1.1/DTD/svg11.dtd">
<!-- Generated by graphviz version 13.0.0 (0)
 -->
<!-- Title: ImGuiInputEvent Pages: 1 -->
<svg width="397pt" height="291pt"
 viewBox="0.00 0.00 397.00 291.00" xmlns="http://www.w3.org/2000/svg" xmlns:xlink="http://www.w3.org/1999/xlink">
<g id="graph0" class="graph" transform="scale(1 1) rotate(0) translate(4 286.57)">
<title>ImGuiInputEvent</title>
<!-- Node1 -->
<g id="Node000001" class="node">
<title>Node1</title>
<g id="a_Node000001"><a xlink:title=" ">
<polygon fill="#999999" stroke="#666666" points="389,-146.75 291.25,-146.75 291.25,-126 389,-126 389,-146.75"/>
<text xml:space="preserve" text-anchor="middle" x="340.12" y="-133.25" font-family="Helvetica,sans-Serif" font-size="10.00">ImGuiInputEvent</text>
</a>
</g>
</g>
<!-- Node2 -->
<g id="Node000002" class="node">
<title>Node2</title>
<g id="a_Node000002"><a xlink:href="structImGuiInputEventMousePos.html" target="_top" xlink:title=" ">
<polygon fill="white" stroke="#666666" points="160.38,-272.75 13.12,-272.75 13.12,-252 160.38,-252 160.38,-272.75"/>
<text xml:space="preserve" text-anchor="middle" x="86.75" y="-259.25" font-family="Helvetica,sans-Serif" font-size="10.00">ImGuiInputEventMousePos</text>
</a>
</g>
</g>
<!-- Node2&#45;&gt;Node1 -->
<g id="edge1_Node000001_Node000002" class="edge">
<title>Node2&#45;&gt;Node1</title>
<g id="a_edge1_Node000001_Node000002"><a xlink:title=" ">
<path fill="none" stroke="#9a32cd" stroke-dasharray="5,2" d="M172.07,-265.78C205.75,-263.53 243.51,-256.16 273.25,-237.38 307.76,-215.57 327.92,-168.38 335.57,-147.13"/>
<polygon fill="#9a32cd" stroke="#9a32cd" points="172.14,-262.27 162.33,-266.28 172.5,-269.26 172.14,-262.27"/>
</a>
</g>
<text xml:space="preserve" text-anchor="start" x="207.62" y="-270.07" font-family="Helvetica,sans-Serif" font-size="10.00" fill="grey">MousePos</text>
</g>
<!-- Node3 -->
<g id="Node000003" class="node">
<title>Node3</title>
<g id="a_Node000003"><a xlink:href="structImGuiInputEventMouseWheel.html" target="_top" xlink:title=" ">
<polygon fill="white" stroke="#666666" points="167.12,-230.75 6.38,-230.75 6.38,-210 167.12,-210 167.12,-230.75"/>
<text xml:space="preserve" text-anchor="middle" x="86.75" y="-217.25" font-family="Helvetica,sans-Serif" font-size="10.00">ImGuiInputEventMouseWheel</text>
</a>
</g>
</g>
<!-- Node3&#45;&gt;Node1 -->
<g id="edge2_Node000001_Node000003" class="edge">
<title>Node3&#45;&gt;Node1</title>
<g id="a_edge2_Node000001_Node000003"><a xlink:title=" ">
<path fill="none" stroke="#9a32cd" stroke-dasharray="5,2" d="M178.5,-216.76C209.61,-212.93 243.95,-205.71 273.25,-192.38 296.75,-181.68 318.41,-160.08 330.09,-147.05"/>
<polygon fill="#9a32cd" stroke="#9a32cd" points="178.25,-213.26 168.71,-217.85 179.03,-220.22 178.25,-213.26"/>
</a>
</g>
<text xml:space="preserve" text-anchor="start" x="200.88" y="-220.73" font-family="Helvetica,sans-Serif" font-size="10.00" fill="grey">MouseWheel</text>
</g>
<!-- Node4 -->
<g id="Node000004" class="node">
<title>Node4</title>
<g id="a_Node000004"><a xlink:href="structImGuiInputEventMouseButton.html" target="_top" xlink:title=" ">
<polygon fill="white" stroke="#666666" points="167.88,-188.75 5.62,-188.75 5.62,-168 167.88,-168 167.88,-188.75"/>
<text xml:space="preserve" text-anchor="middle" x="86.75" y="-175.25" font-family="Helvetica,sans-Serif" font-size="10.00">ImGuiInputEventMouseButton</text>
</a>
</g>
</g>
<!-- Node4&#45;&gt;Node1 -->
<g id="edge3_Node000001_Node000004" class="edge">
<title>Node4&#45;&gt;Node1</title>
<g id="a_edge3_Node000001_Node000004"><a xlink:title=" ">
<path fill="none" stroke="#9a32cd" stroke-dasharray="5,2" d="M179.49,-170.74C209.55,-167.38 242.99,-162.71 273.25,-156.38 284.6,-154 296.8,-150.55 307.59,-147.19"/>
<polygon fill="#9a32cd" stroke="#9a32cd" points="179.22,-167.25 169.65,-171.8 179.97,-174.21 179.22,-167.25"/>
</a>
</g>
<text xml:space="preserve" text-anchor="start" x="200.12" y="-175.49" font-family="Helvetica,sans-Serif" font-size="10.00" fill="grey">MouseButton</text>
</g>
<!-- Node5 -->
<g id="Node000005" class="node">
<title>Node5</title>
<g id="a_Node000005"><a xlink:href="structImGuiInputEventMouseViewport.html" target="_top" xlink:title=" ">
<polygon fill="white" stroke="#666666" points="173.5,-146.75 0,-146.75 0,-126 173.5,-126 173.5,-146.75"/>
<text xml:space="preserve" text-anchor="middle" x="86.75" y="-133.25" font-family="Helvetica,sans-Serif" font-size="10.00">ImGuiInputEventMouseViewport</text>
</a>
</g>
</g>
<!-- Node5&#45;&gt;Node1 -->
<g id="edge4_Node000001_Node000005" class="edge">
<title>Node5&#45;&gt;Node1</title>
<g id="a_edge4_Node000001_Node000005"><a xlink:title=" ">
<path fill="none" stroke="#9a32cd" stroke-dasharray="5,2" d="M185.04,-136.38C221.28,-136.38 260.85,-136.38 290.82,-136.38"/>
<polygon fill="#9a32cd" stroke="#9a32cd" points="185.42,-132.88 175.42,-136.38 185.42,-139.88 185.42,-132.88"/>
</a>
</g>
<text xml:space="preserve" text-anchor="start" x="194.5" y="-142.62" font-family="Helvetica,sans-Serif" font-size="10.00" fill="grey">MouseViewport</text>
</g>
<!-- Node6 -->
<g id="Node000006" class="node">
<title>Node6</title>
<g id="a_Node000006"><a xlink:href="structImGuiInputEventKey.html" target="_top" xlink:title=" ">
<polygon fill="white" stroke="#666666" points="144.62,-104.75 28.88,-104.75 28.88,-84 144.62,-84 144.62,-104.75"/>
<text xml:space="preserve" text-anchor="middle" x="86.75" y="-91.25" font-family="Helvetica,sans-Serif" font-size="10.00">ImGuiInputEventKey</text>
</a>
</g>
</g>
<!-- Node6&#45;&gt;Node1 -->
<g id="edge5_Node000001_Node000006" class="edge">
<title>Node6&#45;&gt;Node1</title>
<g id="a_edge5_Node000001_Node000006"><a xlink:title=" ">
<path fill="none" stroke="#9a32cd" stroke-dasharray="5,2" d="M156.26,-97.73C191.53,-100.4 235.03,-105.16 273.25,-113.62 286.36,-116.53 300.49,-121.19 312.28,-125.54"/>
<polygon fill="#9a32cd" stroke="#9a32cd" points="156.86,-94.26 146.63,-97.04 156.36,-101.24 156.86,-94.26"/>
</a>
</g>
<text xml:space="preserve" text-anchor="start" x="223.38" y="-119.88" font-family="Helvetica,sans-Serif" font-size="10.00" fill="grey">Key</text>
</g>
<!-- Node7 -->
<g id="Node000007" class="node">
<title>Node7</title>
<g id="a_Node000007"><a xlink:href="structImGuiInputEventText.html" target="_top" xlink:title=" ">
<polygon fill="white" stroke="#666666" points="145.75,-62.75 27.75,-62.75 27.75,-42 145.75,-42 145.75,-62.75"/>
<text xml:space="preserve" text-anchor="middle" x="86.75" y="-49.25" font-family="Helvetica,sans-Serif" font-size="10.00">ImGuiInputEventText</text>
</a>
</g>
</g>
<!-- Node7&#45;&gt;Node1 -->
<g id="edge6_Node000001_Node000007" class="edge">
<title>Node7&#45;&gt;Node1</title>
<g id="a_edge6_Node000001_Node000007"><a xlink:title=" ">
<path fill="none" stroke="#9a32cd" stroke-dasharray="5,2" d="M157.53,-52.83C193.5,-55.36 237.24,-62.1 273.25,-78.62 297.3,-89.66 319.09,-112.37 330.58,-125.79"/>
<polygon fill="#9a32cd" stroke="#9a32cd" points="157.85,-49.34 147.66,-52.24 157.44,-56.33 157.85,-49.34"/>
</a>
</g>
<text xml:space="preserve" text-anchor="start" x="222.25" y="-84.88" font-family="Helvetica,sans-Serif" font-size="10.00" fill="grey">Text</text>
</g>
<!-- Node8 -->
<g id="Node000008" class="node">
<title>Node8</title>
<g id="a_Node000008"><a xlink:href="structImGuiInputEventAppFocused.html" target="_top" xlink:title=" ">
<polygon fill="white" stroke="#666666" points="164.88,-20.75 8.62,-20.75 8.62,0 164.88,0 164.88,-20.75"/>
<text xml:space="preserve" text-anchor="middle" x="86.75" y="-7.25" font-family="Helvetica,sans-Serif" font-size="10.00">ImGuiInputEventAppFocused</text>
</a>
</g>
</g>
<!-- Node8&#45;&gt;Node1 -->
<g id="edge7_Node000001_Node000008" class="edge">
<title>Node8&#45;&gt;Node1</title>
<g id="a_edge7_Node000001_Node000008"><a xlink:title=" ">
<path fill="none" stroke="#9a32cd" stroke-dasharray="5,2" d="M176.31,-6.2C208.89,-8.44 244.76,-15.66 273.25,-33.62 308.38,-55.78 328.33,-104.24 335.75,-125.74"/>
<polygon fill="#9a32cd" stroke="#9a32cd" points="176.61,-2.71 166.44,-5.69 176.25,-9.7 176.61,-2.71"/>
</a>
</g>
<text xml:space="preserve" text-anchor="start" x="203.12" y="-39.88" font-family="Helvetica,sans-Serif" font-size="10.00" fill="grey">AppFocused</text>
</g>
</g>
</svg>
