<?xml version="1.0" encoding="UTF-8" standalone="no"?>
<!DOCTYPE svg PUBLIC "-//W3C//DTD SVG 1.1//EN"
 "http://www.w3.org/Graphics/SVG/1.1/DTD/svg11.dtd">
<!-- Generated by graphviz version 13.0.0 (0)
 -->
<!-- Title: ImFontBuildDstData Pages: 1 -->
<svg width="122pt" height="180pt"
 viewBox="0.00 0.00 122.00 180.00" xmlns="http://www.w3.org/2000/svg" xmlns:xlink="http://www.w3.org/1999/xlink">
<g id="graph0" class="graph" transform="scale(1 1) rotate(0) translate(4 175.75)">
<title>ImFontBuildDstData</title>
<!-- Node1 -->
<g id="Node000001" class="node">
<title>Node1</title>
<g id="a_Node000001"><a xlink:title=" ">
<polygon fill="#999999" stroke="#666666" points="114.25,-20.75 0,-20.75 0,0 114.25,0 114.25,-20.75"/>
<text xml:space="preserve" text-anchor="middle" x="57.12" y="-7.25" font-family="Helvetica,sans-Serif" font-size="10.00">ImFontBuildDstData</text>
</a>
</g>
</g>
<!-- Node2 -->
<g id="Node000002" class="node">
<title>Node2</title>
<g id="a_Node000002"><a xlink:href="structImBitVector.html" target="_top" xlink:title=" ">
<polygon fill="white" stroke="#666666" points="93.62,-96.25 20.62,-96.25 20.62,-75.5 93.62,-75.5 93.62,-96.25"/>
<text xml:space="preserve" text-anchor="middle" x="57.12" y="-82.75" font-family="Helvetica,sans-Serif" font-size="10.00">ImBitVector</text>
</a>
</g>
</g>
<!-- Node2&#45;&gt;Node1 -->
<g id="edge1_Node000001_Node000002" class="edge">
<title>Node2&#45;&gt;Node1</title>
<g id="a_edge1_Node000001_Node000002"><a xlink:title=" ">
<path fill="none" stroke="#9a32cd" stroke-dasharray="5,2" d="M57.12,-63.76C57.12,-49.76 57.12,-32.05 57.12,-21.22"/>
<polygon fill="#9a32cd" stroke="#9a32cd" points="53.63,-63.75 57.13,-73.75 60.63,-63.75 53.63,-63.75"/>
</a>
</g>
<text xml:space="preserve" text-anchor="start" x="60.12" y="-45" font-family="Helvetica,sans-Serif" font-size="10.00" fill="grey">GlyphsSet</text>
</g>
<!-- Node3 -->
<g id="Node000003" class="node">
<title>Node3</title>
<g id="a_Node000003"><a xlink:href="structImVector.html" target="_top" xlink:title=" ">
<polygon fill="white" stroke="#666666" points="114.25,-171.75 0,-171.75 0,-151 114.25,-151 114.25,-171.75"/>
<text xml:space="preserve" text-anchor="middle" x="57.12" y="-158.25" font-family="Helvetica,sans-Serif" font-size="10.00">ImVector&lt; ImU32 &gt;</text>
</a>
</g>
</g>
<!-- Node3&#45;&gt;Node2 -->
<g id="edge2_Node000002_Node000003" class="edge">
<title>Node3&#45;&gt;Node2</title>
<g id="a_edge2_Node000002_Node000003"><a xlink:title=" ">
<path fill="none" stroke="#9a32cd" stroke-dasharray="5,2" d="M57.12,-139.26C57.12,-125.26 57.12,-107.55 57.12,-96.72"/>
<polygon fill="#9a32cd" stroke="#9a32cd" points="53.63,-139.25 57.13,-149.25 60.63,-139.25 53.63,-139.25"/>
</a>
</g>
<text xml:space="preserve" text-anchor="start" x="60.12" y="-120.5" font-family="Helvetica,sans-Serif" font-size="10.00" fill="grey">Storage</text>
</g>
</g>
</svg>
