<?xml version="1.0" encoding="UTF-8" standalone="no"?>
<!DOCTYPE svg PUBLIC "-//W3C//DTD SVG 1.1//EN"
 "http://www.w3.org/Graphics/SVG/1.1/DTD/svg11.dtd">
<!-- Generated by graphviz version 13.0.0 (0)
 -->
<!-- Title: ExampleAsset Pages: 1 -->
<svg width="194pt" height="180pt"
 viewBox="0.00 0.00 194.00 180.00" xmlns="http://www.w3.org/2000/svg" xmlns:xlink="http://www.w3.org/1999/xlink">
<g id="graph0" class="graph" transform="scale(1 1) rotate(0) translate(4 175.75)">
<title>ExampleAsset</title>
<!-- Node1 -->
<g id="Node000001" class="node">
<title>Node1</title>
<g id="a_Node000001"><a xlink:title=" ">
<polygon fill="#999999" stroke="#666666" points="121,-20.75 35.25,-20.75 35.25,0 121,0 121,-20.75"/>
<text xml:space="preserve" text-anchor="middle" x="78.12" y="-7.25" font-family="Helvetica,sans-Serif" font-size="10.00">ExampleAsset</text>
</a>
</g>
</g>
<!-- Node2 -->
<g id="Node000002" class="node">
<title>Node2</title>
<g id="a_Node000002"><a xlink:href="structImGuiTableSortSpecs.html" target="_top" xlink:title=" ">
<polygon fill="white" stroke="#666666" points="137.5,-96.25 18.75,-96.25 18.75,-75.5 137.5,-75.5 137.5,-96.25"/>
<text xml:space="preserve" text-anchor="middle" x="78.12" y="-82.75" font-family="Helvetica,sans-Serif" font-size="10.00">ImGuiTableSortSpecs</text>
</a>
</g>
</g>
<!-- Node2&#45;&gt;Node1 -->
<g id="edge1_Node000001_Node000002" class="edge">
<title>Node2&#45;&gt;Node1</title>
<g id="a_edge1_Node000001_Node000002"><a xlink:title=" ">
<path fill="none" stroke="#9a32cd" stroke-dasharray="5,2" d="M78.12,-63.76C78.12,-49.76 78.12,-32.05 78.12,-21.22"/>
<polygon fill="#9a32cd" stroke="#9a32cd" points="74.63,-63.75 78.13,-73.75 81.63,-63.75 74.63,-63.75"/>
</a>
</g>
<text xml:space="preserve" text-anchor="start" x="81.12" y="-45" font-family="Helvetica,sans-Serif" font-size="10.00" fill="grey">s_current_sort_specs</text>
</g>
<!-- Node3 -->
<g id="Node000003" class="node">
<title>Node3</title>
<g id="a_Node000003"><a xlink:href="structImGuiTableColumnSortSpecs.html" target="_top" xlink:title=" ">
<polygon fill="white" stroke="#666666" points="156.25,-171.75 0,-171.75 0,-151 156.25,-151 156.25,-171.75"/>
<text xml:space="preserve" text-anchor="middle" x="78.12" y="-158.25" font-family="Helvetica,sans-Serif" font-size="10.00">ImGuiTableColumnSortSpecs</text>
</a>
</g>
</g>
<!-- Node3&#45;&gt;Node2 -->
<g id="edge2_Node000002_Node000003" class="edge">
<title>Node3&#45;&gt;Node2</title>
<g id="a_edge2_Node000002_Node000003"><a xlink:title=" ">
<path fill="none" stroke="#9a32cd" stroke-dasharray="5,2" d="M78.12,-139.26C78.12,-125.26 78.12,-107.55 78.12,-96.72"/>
<polygon fill="#9a32cd" stroke="#9a32cd" points="74.63,-139.25 78.13,-149.25 81.63,-139.25 74.63,-139.25"/>
</a>
</g>
<text xml:space="preserve" text-anchor="start" x="81.12" y="-120.5" font-family="Helvetica,sans-Serif" font-size="10.00" fill="grey">Specs</text>
</g>
</g>
</svg>
