<?xml version="1.0" encoding="UTF-8" standalone="no"?>
<!DOCTYPE svg PUBLIC "-//W3C//DTD SVG 1.1//EN"
 "http://www.w3.org/Graphics/SVG/1.1/DTD/svg11.dtd">
<!-- Generated by graphviz version 13.0.0 (0)
 -->
<!-- Title: ExampleAppDocuments Pages: 1 -->
<svg width="419pt" height="255pt"
 viewBox="0.00 0.00 419.00 255.00" xmlns="http://www.w3.org/2000/svg" xmlns:xlink="http://www.w3.org/1999/xlink">
<g id="graph0" class="graph" transform="scale(1 1) rotate(0) translate(4 251.25)">
<title>ExampleAppDocuments</title>
<!-- Node1 -->
<g id="Node000001" class="node">
<title>Node1</title>
<g id="a_Node000001"><a xlink:title=" ">
<polygon fill="#999999" stroke="#666666" points="230.52,-20.75 97.52,-20.75 97.52,0 230.52,0 230.52,-20.75"/>
<text xml:space="preserve" text-anchor="middle" x="164.02" y="-7.25" font-family="Helvetica,sans-Serif" font-size="10.00">ExampleAppDocuments</text>
</a>
</g>
</g>
<!-- Node2 -->
<g id="Node000002" class="node">
<title>Node2</title>
<g id="a_Node000002"><a xlink:href="structImVector.html" target="_top" xlink:title=" ">
<polygon fill="white" stroke="#666666" points="237.64,-96.25 90.39,-96.25 90.39,-75.5 237.64,-75.5 237.64,-96.25"/>
<text xml:space="preserve" text-anchor="middle" x="164.02" y="-82.75" font-family="Helvetica,sans-Serif" font-size="10.00">ImVector&lt; MyDocument &gt;</text>
</a>
</g>
</g>
<!-- Node2&#45;&gt;Node1 -->
<g id="edge1_Node000001_Node000002" class="edge">
<title>Node2&#45;&gt;Node1</title>
<g id="a_edge1_Node000001_Node000002"><a xlink:title=" ">
<path fill="none" stroke="#9a32cd" stroke-dasharray="5,2" d="M164.02,-63.76C164.02,-49.76 164.02,-32.05 164.02,-21.22"/>
<polygon fill="#9a32cd" stroke="#9a32cd" points="160.52,-63.75 164.02,-73.75 167.52,-63.75 160.52,-63.75"/>
</a>
</g>
<text xml:space="preserve" text-anchor="start" x="167.02" y="-45" font-family="Helvetica,sans-Serif" font-size="10.00" fill="grey">Documents</text>
</g>
<!-- Node3 -->
<g id="Node000003" class="node">
<title>Node3</title>
<g id="a_Node000003"><a xlink:href="structMyDocument.html" target="_top" xlink:title=" ">
<polygon fill="white" stroke="#666666" points="204.64,-171.75 123.39,-171.75 123.39,-151 204.64,-151 204.64,-171.75"/>
<text xml:space="preserve" text-anchor="middle" x="164.02" y="-158.25" font-family="Helvetica,sans-Serif" font-size="10.00">MyDocument</text>
</a>
</g>
</g>
<!-- Node3&#45;&gt;Node1 -->
<g id="edge6_Node000001_Node000003" class="edge">
<title>Node3&#45;&gt;Node1</title>
<g id="a_edge6_Node000001_Node000003"><a xlink:title=" ">
<path fill="none" stroke="#9a32cd" stroke-dasharray="5,2" d="M112.35,-154.27C76.13,-146.99 30.17,-131.06 6.77,-96.25 -20.62,-55.5 45.94,-32.7 100.77,-21.23"/>
<polygon fill="#9a32cd" stroke="#9a32cd" points="111.28,-157.63 121.75,-155.99 112.54,-150.74 111.28,-157.63"/>
</a>
</g>
<text xml:space="preserve" text-anchor="start" x="9.77" y="-82.75" font-family="Helvetica,sans-Serif" font-size="10.00" fill="grey">RenamingDoc</text>
</g>
<!-- Node3&#45;&gt;Node2 -->
<g id="edge2_Node000002_Node000003" class="edge">
<title>Node3&#45;&gt;Node2</title>
<g id="a_edge2_Node000002_Node000003"><a xlink:title=" ">
<path fill="none" stroke="#9a32cd" stroke-dasharray="5,2" d="M164.02,-139.26C164.02,-125.26 164.02,-107.55 164.02,-96.72"/>
<polygon fill="#9a32cd" stroke="#9a32cd" points="160.52,-139.25 164.02,-149.25 167.52,-139.25 160.52,-139.25"/>
</a>
</g>
<text xml:space="preserve" text-anchor="start" x="167.02" y="-120.5" font-family="Helvetica,sans-Serif" font-size="10.00" fill="grey">Data</text>
</g>
<!-- Node5 -->
<g id="Node000005" class="node">
<title>Node5</title>
<g id="a_Node000005"><a xlink:href="structImVector.html" target="_top" xlink:title=" ">
<polygon fill="white" stroke="#666666" points="410.77,-96.25 255.27,-96.25 255.27,-75.5 410.77,-75.5 410.77,-96.25"/>
<text xml:space="preserve" text-anchor="middle" x="333.02" y="-82.75" font-family="Helvetica,sans-Serif" font-size="10.00">ImVector&lt; MyDocument * &gt;</text>
</a>
</g>
</g>
<!-- Node3&#45;&gt;Node5 -->
<g id="edge5_Node000005_Node000003" class="edge">
<title>Node3&#45;&gt;Node5</title>
<g id="a_edge5_Node000005_Node000003"><a xlink:title=" ">
<path fill="none" stroke="#9a32cd" stroke-dasharray="5,2" d="M196.65,-146.18C230.11,-131.63 281.27,-109.38 310.48,-96.68"/>
<polygon fill="#9a32cd" stroke="#9a32cd" points="195.62,-142.81 187.85,-150.01 198.41,-149.23 195.62,-142.81"/>
</a>
</g>
<text xml:space="preserve" text-anchor="start" x="271.62" y="-120.5" font-family="Helvetica,sans-Serif" font-size="10.00" fill="grey">Data</text>
</g>
<!-- Node4 -->
<g id="Node000004" class="node">
<title>Node4</title>
<g id="a_Node000004"><a xlink:href="structImVec4.html" target="_top" xlink:title=" ">
<polygon fill="white" stroke="#666666" points="190.02,-247.25 138.02,-247.25 138.02,-226.5 190.02,-226.5 190.02,-247.25"/>
<text xml:space="preserve" text-anchor="middle" x="164.02" y="-233.75" font-family="Helvetica,sans-Serif" font-size="10.00">ImVec4</text>
</a>
</g>
</g>
<!-- Node4&#45;&gt;Node3 -->
<g id="edge3_Node000003_Node000004" class="edge">
<title>Node4&#45;&gt;Node3</title>
<g id="a_edge3_Node000003_Node000004"><a xlink:title=" ">
<path fill="none" stroke="#9a32cd" stroke-dasharray="5,2" d="M164.02,-214.76C164.02,-200.76 164.02,-183.05 164.02,-172.22"/>
<polygon fill="#9a32cd" stroke="#9a32cd" points="160.52,-214.75 164.02,-224.75 167.52,-214.75 160.52,-214.75"/>
</a>
</g>
<text xml:space="preserve" text-anchor="start" x="167.02" y="-196" font-family="Helvetica,sans-Serif" font-size="10.00" fill="grey">Color</text>
</g>
<!-- Node5&#45;&gt;Node1 -->
<g id="edge4_Node000001_Node000005" class="edge">
<title>Node5&#45;&gt;Node1</title>
<g id="a_edge4_Node000001_Node000005"><a xlink:title=" ">
<path fill="none" stroke="#9a32cd" stroke-dasharray="5,2" d="M301.53,-70.5C281.19,-61.28 254.11,-49.14 230.02,-38.75 216.23,-32.81 200.74,-26.37 188.22,-21.23"/>
<polygon fill="#9a32cd" stroke="#9a32cd" points="299.86,-73.59 310.41,-74.53 302.75,-67.21 299.86,-73.59"/>
</a>
</g>
<text xml:space="preserve" text-anchor="start" x="275.58" y="-45" font-family="Helvetica,sans-Serif" font-size="10.00" fill="grey">CloseQueue</text>
</g>
</g>
</svg>
