<?xml version="1.0" encoding="UTF-8" standalone="no"?>
<!DOCTYPE svg PUBLIC "-//W3C//DTD SVG 1.1//EN"
 "http://www.w3.org/Graphics/SVG/1.1/DTD/svg11.dtd">
<!-- Generated by graphviz version 13.0.0 (0)
 -->
<!-- Title: ImDrawDataBuilder Pages: 1 -->
<svg width="2344pt" height="834pt"
 viewBox="0.00 0.00 2344.00 834.00" xmlns="http://www.w3.org/2000/svg" xmlns:xlink="http://www.w3.org/1999/xlink">
<g id="graph0" class="graph" transform="scale(1 1) rotate(0) translate(4 829.87)">
<title>ImDrawDataBuilder</title>
<!-- Node1 -->
<g id="Node000001" class="node">
<title>Node1</title>
<g id="a_Node000001"><a xlink:title=" ">
<polygon fill="#999999" stroke="#666666" points="1702.88,-613.5 1590.88,-613.5 1590.88,-592.75 1702.88,-592.75 1702.88,-613.5"/>
<text xml:space="preserve" text-anchor="middle" x="1646.88" y="-600" font-family="Helvetica,sans-Serif" font-size="10.00">ImDrawDataBuilder</text>
</a>
</g>
</g>
<!-- Node2 -->
<g id="Node000002" class="node">
<title>Node2</title>
<g id="a_Node000002"><a xlink:href="structImVector.html" target="_top" xlink:title=" ">
<polygon fill="white" stroke="#666666" points="1477.25,-625.5 1331.5,-625.5 1331.5,-604.75 1477.25,-604.75 1477.25,-625.5"/>
<text xml:space="preserve" text-anchor="middle" x="1404.38" y="-612" font-family="Helvetica,sans-Serif" font-size="10.00">ImVector&lt; ImDrawList * &gt;</text>
</a>
</g>
</g>
<!-- Node2&#45;&gt;Node1 -->
<g id="edge1_Node000001_Node000002" class="edge">
<title>Node2&#45;&gt;Node1</title>
<g id="a_edge1_Node000001_Node000002"><a xlink:title=" ">
<path fill="none" stroke="#9a32cd" stroke-dasharray="5,2" d="M1488.65,-605.08C1490.87,-604.91 1493.07,-604.76 1495.25,-604.62 1526.7,-602.63 1561.92,-602.18 1590.38,-602.27"/>
<polygon fill="#9a32cd" stroke="#9a32cd" points="1488.61,-601.57 1478.93,-605.89 1489.19,-608.55 1488.61,-601.57"/>
</a>
</g>
<text xml:space="preserve" text-anchor="start" x="1498.25" y="-627.62" font-family="Helvetica,sans-Serif" font-size="10.00" fill="grey">LayerData1</text>
<text xml:space="preserve" text-anchor="start" x="1498.25" y="-610.87" font-family="Helvetica,sans-Serif" font-size="10.00" fill="grey">Layers</text>
</g>
<!-- Node3 -->
<g id="Node000003" class="node">
<title>Node3</title>
<g id="a_Node000003"><a xlink:href="structImDrawList.html" target="_top" xlink:title=" ">
<polygon fill="white" stroke="#666666" points="1177.38,-605.5 1105.88,-605.5 1105.88,-584.75 1177.38,-584.75 1177.38,-605.5"/>
<text xml:space="preserve" text-anchor="middle" x="1141.62" y="-592" font-family="Helvetica,sans-Serif" font-size="10.00">ImDrawList</text>
</a>
</g>
</g>
<!-- Node3&#45;&gt;Node2 -->
<g id="edge2_Node000002_Node000003" class="edge">
<title>Node3&#45;&gt;Node2</title>
<g id="a_edge2_Node000002_Node000003"><a xlink:title=" ">
<path fill="none" stroke="#9a32cd" stroke-dasharray="5,2" d="M1189.17,-598.69C1228.61,-601.72 1285.8,-606.1 1331.17,-609.58"/>
<polygon fill="#9a32cd" stroke="#9a32cd" points="1189.54,-595.21 1179.3,-597.93 1189,-602.19 1189.54,-595.21"/>
</a>
</g>
<text xml:space="preserve" text-anchor="start" x="1266.62" y="-614.33" font-family="Helvetica,sans-Serif" font-size="10.00" fill="grey">Data</text>
</g>
<!-- Node5 -->
<g id="Node000005" class="node">
<title>Node5</title>
<g id="a_Node000005"><a xlink:href="structImDrawCmd.html" target="_top" xlink:title=" ">
<polygon fill="white" stroke="#666666" points="1442.75,-585.5 1366,-585.5 1366,-564.75 1442.75,-564.75 1442.75,-585.5"/>
<text xml:space="preserve" text-anchor="middle" x="1404.38" y="-572" font-family="Helvetica,sans-Serif" font-size="10.00">ImDrawCmd</text>
</a>
</g>
</g>
<!-- Node3&#45;&gt;Node5 -->
<g id="edge6_Node000005_Node000003" class="edge">
<title>Node3&#45;&gt;Node5</title>
<g id="a_edge6_Node000005_Node000003"><a xlink:title=" ">
<path fill="none" stroke="#9a32cd" stroke-dasharray="5,2" d="M1189.1,-587.17C1206.02,-584.57 1225.33,-581.95 1243,-580.37 1284.9,-576.62 1333.17,-575.47 1365.71,-575.15"/>
<polygon fill="#9a32cd" stroke="#9a32cd" points="1188.64,-583.7 1179.31,-588.72 1189.73,-590.61 1188.64,-583.7"/>
</a>
</g>
<text xml:space="preserve" text-anchor="start" x="1246" y="-586.62" font-family="Helvetica,sans-Serif" font-size="10.00" fill="grey">UserCallback</text>
</g>
<!-- Node4 -->
<g id="Node000004" class="node">
<title>Node4</title>
<g id="a_Node000004"><a xlink:href="structImVector.html" target="_top" xlink:title=" ">
<polygon fill="white" stroke="#666666" points="1718.25,-555.5 1575.5,-555.5 1575.5,-534.75 1718.25,-534.75 1718.25,-555.5"/>
<text xml:space="preserve" text-anchor="middle" x="1646.88" y="-542" font-family="Helvetica,sans-Serif" font-size="10.00">ImVector&lt; ImDrawCmd &gt;</text>
</a>
</g>
</g>
<!-- Node4&#45;&gt;Node3 -->
<g id="edge3_Node000003_Node000004" class="edge">
<title>Node4&#45;&gt;Node3</title>
<g id="a_edge3_Node000003_Node000004"><a xlink:title=" ">
<path fill="none" stroke="#9a32cd" stroke-dasharray="5,2" d="M1564.03,-535.42C1500.3,-529.71 1409.82,-525.66 1331.5,-537.37 1271.81,-546.29 1204.92,-570.24 1168.95,-584.34"/>
<polygon fill="#9a32cd" stroke="#9a32cd" points="1563.42,-538.88 1573.71,-536.32 1564.07,-531.91 1563.42,-538.88"/>
</a>
</g>
<text xml:space="preserve" text-anchor="start" x="1378.5" y="-543.62" font-family="Helvetica,sans-Serif" font-size="10.00" fill="grey">CmdBuffer</text>
</g>
<!-- Node28 -->
<g id="Node000028" class="node">
<title>Node28</title>
<g id="a_Node000028"><a xlink:href="structImDrawChannel.html" target="_top" xlink:title=" ">
<polygon fill="white" stroke="#666666" points="1911.25,-555.5 1817.25,-555.5 1817.25,-534.75 1911.25,-534.75 1911.25,-555.5"/>
<text xml:space="preserve" text-anchor="middle" x="1864.25" y="-542" font-family="Helvetica,sans-Serif" font-size="10.00">ImDrawChannel</text>
</a>
</g>
</g>
<!-- Node4&#45;&gt;Node28 -->
<g id="edge44_Node000028_Node000004" class="edge">
<title>Node4&#45;&gt;Node28</title>
<g id="a_edge44_Node000028_Node000004"><a xlink:title=" ">
<path fill="none" stroke="#9a32cd" stroke-dasharray="5,2" d="M1729.83,-545.12C1759.27,-545.12 1791.44,-545.12 1816.82,-545.12"/>
<polygon fill="#9a32cd" stroke="#9a32cd" points="1730.21,-541.62 1720.21,-545.12 1730.21,-548.62 1730.21,-541.62"/>
</a>
</g>
<text xml:space="preserve" text-anchor="start" x="1739.25" y="-551.37" font-family="Helvetica,sans-Serif" font-size="10.00" fill="grey">_CmdBuffer</text>
</g>
<!-- Node5&#45;&gt;Node4 -->
<g id="edge4_Node000004_Node000005" class="edge">
<title>Node5&#45;&gt;Node4</title>
<g id="a_edge4_Node000004_Node000005"><a xlink:title=" ">
<path fill="none" stroke="#9a32cd" stroke-dasharray="5,2" d="M1454.51,-568.99C1489.32,-564.65 1536.52,-558.76 1575.34,-553.92"/>
<polygon fill="#9a32cd" stroke="#9a32cd" points="1454.21,-565.5 1444.72,-570.21 1455.08,-572.45 1454.21,-565.5"/>
</a>
</g>
<text xml:space="preserve" text-anchor="start" x="1514.75" y="-569.94" font-family="Helvetica,sans-Serif" font-size="10.00" fill="grey">Data</text>
</g>
<!-- Node6 -->
<g id="Node000006" class="node">
<title>Node6</title>
<g id="a_Node000006"><a xlink:href="structImVec4.html" target="_top" xlink:title=" ">
<polygon fill="white" stroke="#666666" points="73.38,-728.5 21.38,-728.5 21.38,-707.75 73.38,-707.75 73.38,-728.5"/>
<text xml:space="preserve" text-anchor="middle" x="47.38" y="-715" font-family="Helvetica,sans-Serif" font-size="10.00">ImVec4</text>
</a>
</g>
</g>
<!-- Node6&#45;&gt;Node5 -->
<g id="edge5_Node000005_Node000006" class="edge">
<title>Node6&#45;&gt;Node5</title>
<g id="a_edge5_Node000005_Node000006"><a xlink:title=" ">
<path fill="none" stroke="#9a32cd" stroke-dasharray="5,2" d="M68.11,-736.23C80.19,-746.41 96.42,-758.55 112.75,-766.12 185.96,-800.07 208.93,-807.12 289.62,-807.12 289.62,-807.12 289.62,-807.12 1142.62,-807.12 1251.65,-807.12 1249.9,-719.67 1313.5,-631.12 1323.7,-616.91 1318.01,-607.25 1331.5,-596.12 1341.12,-588.18 1353.64,-583.24 1365.52,-580.17"/>
<polygon fill="#9a32cd" stroke="#9a32cd" points="70.73,-733.87 60.89,-729.93 66.13,-739.14 70.73,-733.87"/>
</a>
</g>
<text xml:space="preserve" text-anchor="start" x="685.5" y="-813.37" font-family="Helvetica,sans-Serif" font-size="10.00" fill="grey">ClipRect</text>
</g>
<!-- Node11 -->
<g id="Node000011" class="node">
<title>Node11</title>
<g id="a_Node000011"><a xlink:href="structImDrawListSharedData.html" target="_top" xlink:title=" ">
<polygon fill="white" stroke="#666666" points="917.62,-605.5 789.12,-605.5 789.12,-584.75 917.62,-584.75 917.62,-605.5"/>
<text xml:space="preserve" text-anchor="middle" x="853.38" y="-592" font-family="Helvetica,sans-Serif" font-size="10.00">ImDrawListSharedData</text>
</a>
</g>
</g>
<!-- Node6&#45;&gt;Node11 -->
<g id="edge13_Node000011_Node000006" class="edge">
<title>Node6&#45;&gt;Node11</title>
<g id="a_edge13_Node000011_Node000006"><a xlink:title=" ">
<path fill="none" stroke="#9a32cd" stroke-dasharray="5,2" d="M85.13,-712.49C146.38,-703.17 273.2,-684.12 380.75,-669.62 551.18,-646.65 600.13,-671.85 764.75,-622.12 773.31,-619.53 774.37,-616.26 782.75,-613.12 789.88,-610.45 797.57,-608.03 805.14,-605.89"/>
<polygon fill="#9a32cd" stroke="#9a32cd" points="84.64,-709.02 75.28,-713.99 85.69,-715.94 84.64,-709.02"/>
</a>
</g>
<text xml:space="preserve" text-anchor="start" x="391.75" y="-692.62" font-family="Helvetica,sans-Serif" font-size="10.00" fill="grey">ClipRectFullscreen</text>
<text xml:space="preserve" text-anchor="start" x="391.75" y="-675.87" font-family="Helvetica,sans-Serif" font-size="10.00" fill="grey">TexUvLines</text>
</g>
<!-- Node17 -->
<g id="Node000017" class="node">
<title>Node17</title>
<g id="a_Node000017"><a xlink:href="structImFontAtlas.html" target="_top" xlink:title=" ">
<polygon fill="white" stroke="#666666" points="327.88,-352.5 253.38,-352.5 253.38,-331.75 327.88,-331.75 327.88,-352.5"/>
<text xml:space="preserve" text-anchor="middle" x="290.62" y="-339" font-family="Helvetica,sans-Serif" font-size="10.00">ImFontAtlas</text>
</a>
</g>
</g>
<!-- Node6&#45;&gt;Node17 -->
<g id="edge32_Node000017_Node000006" class="edge">
<title>Node6&#45;&gt;Node17</title>
<g id="a_edge32_Node000017_Node000006"><a xlink:title=" ">
<path fill="none" stroke="#9a32cd" stroke-dasharray="5,2" d="M60.23,-697.52C87.2,-650.94 155.69,-534.24 218.5,-440.12 240.21,-407.6 267.92,-370.6 281.45,-352.8"/>
<polygon fill="#9a32cd" stroke="#9a32cd" points="57.3,-695.61 55.33,-706.02 63.36,-699.11 57.3,-695.61"/>
</a>
</g>
<text xml:space="preserve" text-anchor="start" x="128.88" y="-610.35" font-family="Helvetica,sans-Serif" font-size="10.00" fill="grey">TexUvLines</text>
</g>
<!-- Node25 -->
<g id="Node000025" class="node">
<title>Node25</title>
<g id="a_Node000025"><a xlink:href="structImDrawCmdHeader.html" target="_top" xlink:title=" ">
<polygon fill="white" stroke="#666666" points="492.75,-775.5 380.75,-775.5 380.75,-754.75 492.75,-754.75 492.75,-775.5"/>
<text xml:space="preserve" text-anchor="middle" x="436.75" y="-762" font-family="Helvetica,sans-Serif" font-size="10.00">ImDrawCmdHeader</text>
</a>
</g>
</g>
<!-- Node6&#45;&gt;Node25 -->
<g id="edge40_Node000025_Node000006" class="edge">
<title>Node6&#45;&gt;Node25</title>
<g id="a_edge40_Node000025_Node000006"><a xlink:title=" ">
<path fill="none" stroke="#9a32cd" stroke-dasharray="5,2" d="M84.72,-726.77C93.83,-728.73 103.62,-730.67 112.75,-732.12 206.13,-747 315.82,-756.55 380.35,-761.36"/>
<polygon fill="#9a32cd" stroke="#9a32cd" points="85.63,-723.39 75.11,-724.63 84.11,-730.22 85.63,-723.39"/>
</a>
</g>
<text xml:space="preserve" text-anchor="start" x="136.38" y="-749.75" font-family="Helvetica,sans-Serif" font-size="10.00" fill="grey">ClipRect</text>
</g>
<!-- Node29 -->
<g id="Node000029" class="node">
<title>Node29</title>
<g id="a_Node000029"><a xlink:href="structImVector.html" target="_top" xlink:title=" ">
<polygon fill="white" stroke="#666666" points="764.75,-715.5 646.75,-715.5 646.75,-694.75 764.75,-694.75 764.75,-715.5"/>
<text xml:space="preserve" text-anchor="middle" x="705.75" y="-702" font-family="Helvetica,sans-Serif" font-size="10.00">ImVector&lt; ImVec4 &gt;</text>
</a>
</g>
</g>
<!-- Node6&#45;&gt;Node29 -->
<g id="edge47_Node000029_Node000006" class="edge">
<title>Node6&#45;&gt;Node29</title>
<g id="a_edge47_Node000029_Node000006"><a xlink:title=" ">
<path fill="none" stroke="#9a32cd" stroke-dasharray="5,2" d="M84.99,-717.4C193.46,-715.25 513.82,-708.9 646.34,-706.28"/>
<polygon fill="#9a32cd" stroke="#9a32cd" points="85.15,-713.89 75.22,-717.59 85.28,-720.89 85.15,-713.89"/>
</a>
</g>
<text xml:space="preserve" text-anchor="start" x="279" y="-720.95" font-family="Helvetica,sans-Serif" font-size="10.00" fill="grey">Data</text>
</g>
<!-- Node7 -->
<g id="Node000007" class="node">
<title>Node7</title>
<g id="a_Node000007"><a xlink:href="structImVector.html" target="_top" xlink:title=" ">
<polygon fill="white" stroke="#666666" points="921,-418.5 785.75,-418.5 785.75,-397.75 921,-397.75 921,-418.5"/>
<text xml:space="preserve" text-anchor="middle" x="853.38" y="-405" font-family="Helvetica,sans-Serif" font-size="10.00">ImVector&lt; ImDrawIdx &gt;</text>
</a>
</g>
</g>
<!-- Node7&#45;&gt;Node3 -->
<g id="edge7_Node000003_Node000007" class="edge">
<title>Node7&#45;&gt;Node3</title>
<g id="a_edge7_Node000003_Node000007"><a xlink:title=" ">
<path fill="none" stroke="#9a32cd" stroke-dasharray="5,2" d="M932.32,-410.22C974.9,-412.68 1022.49,-417.99 1040.25,-429.37 1099.44,-467.32 1128.89,-553.78 1137.7,-584.25"/>
<polygon fill="#9a32cd" stroke="#9a32cd" points="932.74,-406.74 922.57,-409.71 932.37,-413.73 932.74,-406.74"/>
</a>
</g>
<text xml:space="preserve" text-anchor="start" x="969" y="-435.62" font-family="Helvetica,sans-Serif" font-size="10.00" fill="grey">IdxBuffer</text>
</g>
<!-- Node7&#45;&gt;Node28 -->
<g id="edge45_Node000028_Node000007" class="edge">
<title>Node7&#45;&gt;Node28</title>
<g id="a_edge45_Node000028_Node000007"><a xlink:title=" ">
<path fill="none" stroke="#9a32cd" stroke-dasharray="5,2" d="M932.62,-402.65C990.13,-399.1 1070.2,-395.12 1140.62,-395.12 1140.62,-395.12 1140.62,-395.12 1647.88,-395.12 1745.39,-395.12 1830.37,-499.94 1855.63,-534.33"/>
<polygon fill="#9a32cd" stroke="#9a32cd" points="932.7,-399.14 922.94,-403.26 933.14,-406.12 932.7,-399.14"/>
</a>
</g>
<text xml:space="preserve" text-anchor="start" x="1379.62" y="-401.37" font-family="Helvetica,sans-Serif" font-size="10.00" fill="grey">_IdxBuffer</text>
</g>
<!-- Node8 -->
<g id="Node000008" class="node">
<title>Node8</title>
<g id="a_Node000008"><a xlink:href="structImVector.html" target="_top" xlink:title=" ">
<polygon fill="white" stroke="#666666" points="923.25,-457.5 783.5,-457.5 783.5,-436.75 923.25,-436.75 923.25,-457.5"/>
<text xml:space="preserve" text-anchor="middle" x="853.38" y="-444" font-family="Helvetica,sans-Serif" font-size="10.00">ImVector&lt; ImDrawVert &gt;</text>
</a>
</g>
</g>
<!-- Node8&#45;&gt;Node3 -->
<g id="edge8_Node000003_Node000008" class="edge">
<title>Node8&#45;&gt;Node3</title>
<g id="a_edge8_Node000003_Node000008"><a xlink:title=" ">
<path fill="none" stroke="#9a32cd" stroke-dasharray="5,2" d="M934.79,-451.72C976.42,-455.26 1022.23,-461.3 1040.25,-471.37 1089.03,-498.63 1123.33,-559.92 1135.62,-584.56"/>
<polygon fill="#9a32cd" stroke="#9a32cd" points="935.23,-448.24 924.98,-450.93 934.66,-455.22 935.23,-448.24"/>
</a>
</g>
<text xml:space="preserve" text-anchor="start" x="968.25" y="-477.62" font-family="Helvetica,sans-Serif" font-size="10.00" fill="grey">VtxBuffer</text>
</g>
<!-- Node9 -->
<g id="Node000009" class="node">
<title>Node9</title>
<g id="a_Node000009"><a xlink:href="structImDrawVert.html" target="_top" xlink:title=" ">
<polygon fill="white" stroke="#666666" points="606.62,-472.5 532.88,-472.5 532.88,-451.75 606.62,-451.75 606.62,-472.5"/>
<text xml:space="preserve" text-anchor="middle" x="569.75" y="-459" font-family="Helvetica,sans-Serif" font-size="10.00">ImDrawVert</text>
</a>
</g>
</g>
<!-- Node9&#45;&gt;Node3 -->
<g id="edge37_Node000003_Node000009" class="edge">
<title>Node9&#45;&gt;Node3</title>
<g id="a_edge37_Node000003_Node000009"><a xlink:title=" ">
<path fill="none" stroke="#9a32cd" stroke-dasharray="5,2" d="M618.22,-473.21C627.65,-475.28 637.5,-477.35 646.75,-479.12 821.78,-512.63 871.24,-499.62 1040.25,-556.12 1065.96,-564.71 1094.75,-576.08 1114.88,-584.33"/>
<polygon fill="#9a32cd" stroke="#9a32cd" points="618.99,-469.8 608.47,-471.04 617.47,-476.63 618.99,-469.8"/>
</a>
</g>
<text xml:space="preserve" text-anchor="start" x="822.62" y="-528.89" font-family="Helvetica,sans-Serif" font-size="10.00" fill="grey">_VtxWritePtr</text>
</g>
<!-- Node9&#45;&gt;Node8 -->
<g id="edge9_Node000008_Node000009" class="edge">
<title>Node9&#45;&gt;Node8</title>
<g id="a_edge9_Node000008_Node000009"><a xlink:title=" ">
<path fill="none" stroke="#9a32cd" stroke-dasharray="5,2" d="M618.23,-459.59C663.38,-457.19 731.84,-453.54 783.09,-450.81"/>
<polygon fill="#9a32cd" stroke="#9a32cd" points="618.3,-456.08 608.5,-460.11 618.67,-463.07 618.3,-456.08"/>
</a>
</g>
<text xml:space="preserve" text-anchor="start" x="694.12" y="-463.94" font-family="Helvetica,sans-Serif" font-size="10.00" fill="grey">Data</text>
</g>
<!-- Node10 -->
<g id="Node000010" class="node">
<title>Node10</title>
<g id="a_Node000010"><a xlink:href="structImVec2.html" target="_top" xlink:title=" ">
<polygon fill="white" stroke="#666666" points="73.38,-426.5 21.38,-426.5 21.38,-405.75 73.38,-405.75 73.38,-426.5"/>
<text xml:space="preserve" text-anchor="middle" x="47.38" y="-413" font-family="Helvetica,sans-Serif" font-size="10.00">ImVec2</text>
</a>
</g>
</g>
<!-- Node10&#45;&gt;Node9 -->
<g id="edge10_Node000009_Node000010" class="edge">
<title>Node10&#45;&gt;Node9</title>
<g id="a_edge10_Node000009_Node000010"><a xlink:title=" ">
<path fill="none" stroke="#9a32cd" stroke-dasharray="5,2" d="M75.06,-432.61C86.27,-438.67 99.72,-444.85 112.75,-448.12 264.85,-486.31 454.45,-473.8 532.56,-466.17"/>
<polygon fill="#9a32cd" stroke="#9a32cd" points="76.82,-429.59 66.39,-427.69 73.36,-435.67 76.82,-429.59"/>
</a>
</g>
<text xml:space="preserve" text-anchor="start" x="282" y="-497.38" font-family="Helvetica,sans-Serif" font-size="10.00" fill="grey">pos</text>
<text xml:space="preserve" text-anchor="start" x="282" y="-480.63" font-family="Helvetica,sans-Serif" font-size="10.00" fill="grey">uv</text>
</g>
<!-- Node10&#45;&gt;Node11 -->
<g id="edge12_Node000011_Node000010" class="edge">
<title>Node10&#45;&gt;Node11</title>
<g id="a_edge12_Node000011_Node000010"><a xlink:title=" ">
<path fill="none" stroke="#9a32cd" stroke-dasharray="5,2" d="M59.68,-436.72C71.08,-456.03 90.19,-484.76 112.75,-504.12 152.95,-538.63 167.59,-544.45 218.5,-559.12 420.27,-617.26 672.75,-608.81 788.75,-600.68"/>
<polygon fill="#9a32cd" stroke="#9a32cd" points="62.78,-435.09 54.78,-428.14 56.7,-438.56 62.78,-435.09"/>
</a>
</g>
<text xml:space="preserve" text-anchor="start" x="395.88" y="-625.25" font-family="Helvetica,sans-Serif" font-size="10.00" fill="grey">ArcFastVtx</text>
<text xml:space="preserve" text-anchor="start" x="395.88" y="-608.5" font-family="Helvetica,sans-Serif" font-size="10.00" fill="grey">TexUvWhitePixel</text>
</g>
<!-- Node10&#45;&gt;Node17 -->
<g id="edge21_Node000017_Node000010" class="edge">
<title>Node10&#45;&gt;Node17</title>
<g id="a_edge21_Node000017_Node000010"><a xlink:title=" ">
<path fill="none" stroke="#9a32cd" stroke-dasharray="5,2" d="M68.45,-398.3C80.48,-388.58 96.55,-377.23 112.75,-370.62 158.83,-351.81 216.4,-345.38 253.1,-343.2"/>
<polygon fill="#9a32cd" stroke="#9a32cd" points="66.3,-395.53 60.9,-404.64 70.8,-400.89 66.3,-395.53"/>
</a>
</g>
<text xml:space="preserve" text-anchor="start" x="115.75" y="-393.62" font-family="Helvetica,sans-Serif" font-size="10.00" fill="grey">TexUvScale</text>
<text xml:space="preserve" text-anchor="start" x="115.75" y="-376.87" font-family="Helvetica,sans-Serif" font-size="10.00" fill="grey">TexUvWhitePixel</text>
</g>
<!-- Node20 -->
<g id="Node000020" class="node">
<title>Node20</title>
<g id="a_Node000020"><a xlink:href="structImFontAtlasCustomRect.html" target="_top" xlink:title=" ">
<polygon fill="white" stroke="#666666" points="920.25,-150.5 786.5,-150.5 786.5,-129.75 920.25,-129.75 920.25,-150.5"/>
<text xml:space="preserve" text-anchor="middle" x="853.38" y="-137" font-family="Helvetica,sans-Serif" font-size="10.00">ImFontAtlasCustomRect</text>
</a>
</g>
</g>
<!-- Node10&#45;&gt;Node20 -->
<g id="edge26_Node000020_Node000010" class="edge">
<title>Node10&#45;&gt;Node20</title>
<g id="a_edge26_Node000020_Node000010"><a xlink:title=" ">
<path fill="none" stroke="#9a32cd" stroke-dasharray="5,2" d="M64.61,-396.86C74.97,-383.49 87.73,-364.79 94.75,-346.12 115.75,-290.29 90.31,-268.39 112.75,-213.12 142.48,-139.88 149.84,-109.29 218.5,-70.12 429.46,50.24 535.45,-6.03 764.75,-86.12 793.43,-96.14 822.66,-116.66 839.06,-129.32"/>
<polygon fill="#9a32cd" stroke="#9a32cd" points="62.09,-394.41 58.55,-404.4 67.54,-398.8 62.09,-394.41"/>
</a>
</g>
<text xml:space="preserve" text-anchor="start" x="407.88" y="-12.28" font-family="Helvetica,sans-Serif" font-size="10.00" fill="grey">GlyphOffset</text>
</g>
<!-- Node22 -->
<g id="Node000022" class="node">
<title>Node22</title>
<g id="a_Node000022"><a xlink:href="structImFontConfig.html" target="_top" xlink:title=" ">
<polygon fill="white" stroke="#666666" points="893.62,-255.5 813.12,-255.5 813.12,-234.75 893.62,-234.75 893.62,-255.5"/>
<text xml:space="preserve" text-anchor="middle" x="853.38" y="-242" font-family="Helvetica,sans-Serif" font-size="10.00">ImFontConfig</text>
</a>
</g>
</g>
<!-- Node10&#45;&gt;Node22 -->
<g id="edge30_Node000022_Node000010" class="edge">
<title>Node10&#45;&gt;Node22</title>
<g id="a_edge30_Node000022_Node000010"><a xlink:title=" ">
<path fill="none" stroke="#9a32cd" stroke-dasharray="5,2" d="M61.54,-395.97C77.1,-372.27 102.22,-334.48 112.75,-321.12 155.93,-266.32 158.48,-240.68 218.5,-205.12 275.26,-171.5 316.66,-217.32 362.75,-170.12 389.04,-143.19 351.44,-110.99 380.75,-87.37 411.71,-62.42 714.97,-83.89 764.75,-120.12 780.19,-131.35 772.67,-142.91 782.75,-159.12 800.91,-188.32 827.72,-218.73 842.2,-234.38"/>
<polygon fill="#9a32cd" stroke="#9a32cd" points="58.72,-393.89 56.16,-404.17 64.57,-397.73 58.72,-393.89"/>
</a>
</g>
<text xml:space="preserve" text-anchor="start" x="407.88" y="-93.62" font-family="Helvetica,sans-Serif" font-size="10.00" fill="grey">GlyphOffset</text>
</g>
<!-- Node24 -->
<g id="Node000024" class="node">
<title>Node24</title>
<g id="a_Node000024"><a xlink:href="structImVector.html" target="_top" xlink:title=" ">
<polygon fill="white" stroke="#666666" points="628.75,-551.5 510.75,-551.5 510.75,-530.75 628.75,-530.75 628.75,-551.5"/>
<text xml:space="preserve" text-anchor="middle" x="569.75" y="-538" font-family="Helvetica,sans-Serif" font-size="10.00">ImVector&lt; ImVec2 &gt;</text>
</a>
</g>
</g>
<!-- Node10&#45;&gt;Node24 -->
<g id="edge36_Node000024_Node000010" class="edge">
<title>Node10&#45;&gt;Node24</title>
<g id="a_edge36_Node000024_Node000010"><a xlink:title=" ">
<path fill="none" stroke="#9a32cd" stroke-dasharray="5,2" d="M67.04,-434.41C79.3,-445.74 96.1,-460 112.75,-470.12 156.25,-496.56 169,-502.24 218.5,-514.12 319.17,-538.29 440.33,-542.28 510.55,-542.22"/>
<polygon fill="#9a32cd" stroke="#9a32cd" points="69.75,-432.16 60.08,-427.83 64.93,-437.24 69.75,-432.16"/>
</a>
</g>
<text xml:space="preserve" text-anchor="start" x="279" y="-542.28" font-family="Helvetica,sans-Serif" font-size="10.00" fill="grey">Data</text>
</g>
<!-- Node11&#45;&gt;Node3 -->
<g id="edge11_Node000003_Node000011" class="edge">
<title>Node11&#45;&gt;Node3</title>
<g id="a_edge11_Node000003_Node000011"><a xlink:title=" ">
<path fill="none" stroke="#9a32cd" stroke-dasharray="5,2" d="M929.38,-595.12C986.29,-595.12 1061.94,-595.12 1105.56,-595.12"/>
<polygon fill="#9a32cd" stroke="#9a32cd" points="929.42,-591.62 919.42,-595.12 929.42,-598.62 929.42,-591.62"/>
</a>
</g>
<text xml:space="preserve" text-anchor="start" x="976.88" y="-601.37" font-family="Helvetica,sans-Serif" font-size="10.00" fill="grey">_Data</text>
</g>
<!-- Node12 -->
<g id="Node000012" class="node">
<title>Node12</title>
<g id="a_Node000012"><a xlink:href="structImFont.html" target="_top" xlink:title=" ">
<polygon fill="white" stroke="#666666" points="594.62,-237.5 544.88,-237.5 544.88,-216.75 594.62,-216.75 594.62,-237.5"/>
<text xml:space="preserve" text-anchor="middle" x="569.75" y="-224" font-family="Helvetica,sans-Serif" font-size="10.00">ImFont</text>
</a>
</g>
</g>
<!-- Node12&#45;&gt;Node11 -->
<g id="edge14_Node000011_Node000012" class="edge">
<title>Node12&#45;&gt;Node11</title>
<g id="a_edge14_Node000011_Node000012"><a xlink:title=" ">
<path fill="none" stroke="#9a32cd" stroke-dasharray="5,2" d="M581.66,-247.6C594.55,-270.07 617.93,-305.89 646.75,-328.12 691.62,-362.72 731.03,-330.84 764.75,-376.37 790.61,-411.3 755.91,-536.93 782.75,-571.12 787.17,-576.75 792.99,-581.07 799.38,-584.38"/>
<polygon fill="#9a32cd" stroke="#9a32cd" points="584.85,-246.13 576.93,-239.08 578.73,-249.53 584.85,-246.13"/>
</a>
</g>
<text xml:space="preserve" text-anchor="start" x="695.25" y="-382.62" font-family="Helvetica,sans-Serif" font-size="10.00" fill="grey">Font</text>
</g>
<!-- Node18 -->
<g id="Node000018" class="node">
<title>Node18</title>
<g id="a_Node000018"><a xlink:href="structImVector.html" target="_top" xlink:title=" ">
<polygon fill="white" stroke="#666666" points="915.38,-330.5 791.38,-330.5 791.38,-309.75 915.38,-309.75 915.38,-330.5"/>
<text xml:space="preserve" text-anchor="middle" x="853.38" y="-317" font-family="Helvetica,sans-Serif" font-size="10.00">ImVector&lt; ImFont * &gt;</text>
</a>
</g>
</g>
<!-- Node12&#45;&gt;Node18 -->
<g id="edge23_Node000018_Node000012" class="edge">
<title>Node12&#45;&gt;Node18</title>
<g id="a_edge23_Node000018_Node000012"><a xlink:title=" ">
<path fill="none" stroke="#9a32cd" stroke-dasharray="5,2" d="M594.96,-244.05C609.43,-253.49 628.48,-264.78 646.75,-272.12 693.52,-290.91 749.37,-303.36 791.05,-310.86"/>
<polygon fill="#9a32cd" stroke="#9a32cd" points="597.27,-241.38 587.01,-238.73 593.37,-247.2 597.27,-241.38"/>
</a>
</g>
<text xml:space="preserve" text-anchor="start" x="694.12" y="-311.49" font-family="Helvetica,sans-Serif" font-size="10.00" fill="grey">Data</text>
</g>
<!-- Node12&#45;&gt;Node20 -->
<g id="edge27_Node000020_Node000012" class="edge">
<title>Node12&#45;&gt;Node20</title>
<g id="a_edge27_Node000020_Node000012"><a xlink:title=" ">
<path fill="none" stroke="#9a32cd" stroke-dasharray="5,2" d="M581.94,-206.56C594.58,-185.73 617.28,-154.74 646.75,-141.37 695.68,-119.18 758.15,-122.65 801.32,-129.27"/>
<polygon fill="#9a32cd" stroke="#9a32cd" points="579,-204.66 577.03,-215.07 585.06,-208.16 579,-204.66"/>
</a>
</g>
<text xml:space="preserve" text-anchor="start" x="695.25" y="-147.62" font-family="Helvetica,sans-Serif" font-size="10.00" fill="grey">Font</text>
</g>
<!-- Node12&#45;&gt;Node22 -->
<g id="edge31_Node000022_Node000012" class="edge">
<title>Node12&#45;&gt;Node22</title>
<g id="a_edge31_Node000022_Node000012"><a xlink:title=" ">
<path fill="none" stroke="#9a32cd" stroke-dasharray="5,2" d="M605.94,-236.65C618.69,-239.66 633.28,-242.6 646.75,-244.12 704.22,-250.61 771.3,-249.29 812.81,-247.44"/>
<polygon fill="#9a32cd" stroke="#9a32cd" points="606.84,-233.27 596.3,-234.26 605.16,-240.06 606.84,-233.27"/>
</a>
</g>
<text xml:space="preserve" text-anchor="start" x="687" y="-255.2" font-family="Helvetica,sans-Serif" font-size="10.00" fill="grey">DstFont</text>
</g>
<!-- Node13 -->
<g id="Node000013" class="node">
<title>Node13</title>
<g id="a_Node000013"><a xlink:href="structImVector.html" target="_top" xlink:title=" ">
<polygon fill="white" stroke="#666666" points="342.5,-276.5 238.75,-276.5 238.75,-255.75 342.5,-255.75 342.5,-276.5"/>
<text xml:space="preserve" text-anchor="middle" x="290.62" y="-263" font-family="Helvetica,sans-Serif" font-size="10.00">ImVector&lt; float &gt;</text>
</a>
</g>
</g>
<!-- Node13&#45;&gt;Node12 -->
<g id="edge15_Node000012_Node000013" class="edge">
<title>Node13&#45;&gt;Node12</title>
<g id="a_edge15_Node000012_Node000013"><a xlink:title=" ">
<path fill="none" stroke="#9a32cd" stroke-dasharray="5,2" d="M354.08,-261.09C393.91,-257.44 446.55,-251.79 492.75,-244.12 510.22,-241.22 529.71,-236.84 544.58,-233.25"/>
<polygon fill="#9a32cd" stroke="#9a32cd" points="353.83,-257.6 344.18,-261.98 354.45,-264.57 353.83,-257.6"/>
</a>
</g>
<text xml:space="preserve" text-anchor="start" x="398.88" y="-264.48" font-family="Helvetica,sans-Serif" font-size="10.00" fill="grey">IndexAdvanceX</text>
</g>
<!-- Node14 -->
<g id="Node000014" class="node">
<title>Node14</title>
<g id="a_Node000014"><a xlink:href="structImVector.html" target="_top" xlink:title=" ">
<polygon fill="white" stroke="#666666" points="347.75,-234.5 233.5,-234.5 233.5,-213.75 347.75,-213.75 347.75,-234.5"/>
<text xml:space="preserve" text-anchor="middle" x="290.62" y="-221" font-family="Helvetica,sans-Serif" font-size="10.00">ImVector&lt; ImU16 &gt;</text>
</a>
</g>
</g>
<!-- Node14&#45;&gt;Node12 -->
<g id="edge16_Node000012_Node000014" class="edge">
<title>Node14&#45;&gt;Node12</title>
<g id="a_edge16_Node000012_Node000014"><a xlink:title=" ">
<path fill="none" stroke="#9a32cd" stroke-dasharray="5,2" d="M359.45,-224.26C398.45,-224.41 448.36,-224.72 492.75,-225.37 510.04,-225.62 529.53,-226.08 544.45,-226.46"/>
<polygon fill="#9a32cd" stroke="#9a32cd" points="359.5,-220.76 349.49,-224.22 359.48,-227.76 359.5,-220.76"/>
</a>
</g>
<text xml:space="preserve" text-anchor="start" x="406" y="-231.62" font-family="Helvetica,sans-Serif" font-size="10.00" fill="grey">IndexLookup</text>
</g>
<!-- Node15 -->
<g id="Node000015" class="node">
<title>Node15</title>
<g id="a_Node000015"><a xlink:href="structImVector.html" target="_top" xlink:title=" ">
<polygon fill="white" stroke="#666666" points="362.75,-99.5 218.5,-99.5 218.5,-78.75 362.75,-78.75 362.75,-99.5"/>
<text xml:space="preserve" text-anchor="middle" x="290.62" y="-86" font-family="Helvetica,sans-Serif" font-size="10.00">ImVector&lt; ImFontGlyph &gt;</text>
</a>
</g>
</g>
<!-- Node15&#45;&gt;Node12 -->
<g id="edge17_Node000012_Node000015" class="edge">
<title>Node15&#45;&gt;Node12</title>
<g id="a_edge17_Node000012_Node000015"><a xlink:title=" ">
<path fill="none" stroke="#9a32cd" stroke-dasharray="5,2" d="M347.32,-102.48C358.38,-105.07 369.92,-107.72 380.75,-110.12 430.39,-121.12 449.33,-106.92 492.75,-133.37 527.11,-154.3 552.68,-196.57 563.32,-216.4"/>
<polygon fill="#9a32cd" stroke="#9a32cd" points="348.46,-99.16 337.93,-100.28 346.86,-105.97 348.46,-99.16"/>
</a>
</g>
<text xml:space="preserve" text-anchor="start" x="419.88" y="-139.62" font-family="Helvetica,sans-Serif" font-size="10.00" fill="grey">Glyphs</text>
</g>
<!-- Node16 -->
<g id="Node000016" class="node">
<title>Node16</title>
<g id="a_Node000016"><a xlink:href="structImFontGlyph.html" target="_top" xlink:title=" ">
<polygon fill="white" stroke="#666666" points="86.5,-86.5 8.25,-86.5 8.25,-65.75 86.5,-65.75 86.5,-86.5"/>
<text xml:space="preserve" text-anchor="middle" x="47.38" y="-73" font-family="Helvetica,sans-Serif" font-size="10.00">ImFontGlyph</text>
</a>
</g>
</g>
<!-- Node16&#45;&gt;Node12 -->
<g id="edge19_Node000012_Node000016" class="edge">
<title>Node16&#45;&gt;Node12</title>
<g id="a_edge19_Node000012_Node000016"><a xlink:title=" ">
<path fill="none" stroke="#9a32cd" stroke-dasharray="5,2" d="M78.31,-92.01C88.99,-97.28 101.23,-102.87 112.75,-107.12 273.29,-166.28 475.63,-208.82 544.52,-222.45"/>
<polygon fill="#9a32cd" stroke="#9a32cd" points="80.09,-88.99 69.59,-87.59 76.93,-95.23 80.09,-88.99"/>
</a>
</g>
<text xml:space="preserve" text-anchor="start" x="256.5" y="-186.91" font-family="Helvetica,sans-Serif" font-size="10.00" fill="grey">FallbackGlyph</text>
</g>
<!-- Node16&#45;&gt;Node15 -->
<g id="edge18_Node000015_Node000016" class="edge">
<title>Node16&#45;&gt;Node15</title>
<g id="a_edge18_Node000015_Node000016"><a xlink:title=" ">
<path fill="none" stroke="#9a32cd" stroke-dasharray="5,2" d="M98.13,-78.8C132.8,-80.67 179.57,-83.19 218.2,-85.27"/>
<polygon fill="#9a32cd" stroke="#9a32cd" points="98.55,-75.32 88.38,-78.28 98.18,-82.31 98.55,-75.32"/>
</a>
</g>
<text xml:space="preserve" text-anchor="start" x="145" y="-90.42" font-family="Helvetica,sans-Serif" font-size="10.00" fill="grey">Data</text>
</g>
<!-- Node17&#45;&gt;Node12 -->
<g id="edge20_Node000012_Node000017" class="edge">
<title>Node17&#45;&gt;Node12</title>
<g id="a_edge20_Node000012_Node000017"><a xlink:title=" ">
<path fill="none" stroke="#9a32cd" stroke-dasharray="5,2" d="M329.11,-327.35C344.92,-321.38 363.6,-314.67 380.75,-309.37 429.8,-294.22 446.14,-302.63 492.75,-281.12 517.44,-269.72 542.45,-250.03 556.73,-237.84"/>
<polygon fill="#9a32cd" stroke="#9a32cd" points="328.18,-323.96 320.09,-330.8 330.68,-330.5 328.18,-323.96"/>
</a>
</g>
<text xml:space="preserve" text-anchor="start" x="400.75" y="-315.62" font-family="Helvetica,sans-Serif" font-size="10.00" fill="grey">ContainerAtlas</text>
</g>
<!-- Node18&#45;&gt;Node17 -->
<g id="edge22_Node000017_Node000018" class="edge">
<title>Node18&#45;&gt;Node17</title>
<g id="a_edge22_Node000017_Node000018"><a xlink:title=" ">
<path fill="none" stroke="#9a32cd" stroke-dasharray="5,2" d="M779.9,-327.09C774.78,-327.47 769.69,-327.82 764.75,-328.12 602.13,-337.94 407.64,-340.95 328.17,-341.8"/>
<polygon fill="#9a32cd" stroke="#9a32cd" points="779.93,-330.6 789.62,-326.31 779.38,-323.62 779.93,-330.6"/>
</a>
</g>
<text xml:space="preserve" text-anchor="start" x="556.62" y="-344.6" font-family="Helvetica,sans-Serif" font-size="10.00" fill="grey">Fonts</text>
</g>
<!-- Node19 -->
<g id="Node000019" class="node">
<title>Node19</title>
<g id="a_Node000019"><a xlink:href="structImVector.html" target="_top" xlink:title=" ">
<polygon fill="white" stroke="#666666" points="1225,-179.87 1058.25,-179.87 1058.25,-146.37 1225,-146.37 1225,-179.87"/>
<text xml:space="preserve" text-anchor="start" x="1066.25" y="-166.37" font-family="Helvetica,sans-Serif" font-size="10.00">ImVector&lt; ImFontAtlasCustom</text>
<text xml:space="preserve" text-anchor="middle" x="1141.62" y="-153.62" font-family="Helvetica,sans-Serif" font-size="10.00">Rect &gt;</text>
</a>
</g>
</g>
<!-- Node19&#45;&gt;Node17 -->
<g id="edge24_Node000017_Node000019" class="edge">
<title>Node19&#45;&gt;Node17</title>
<g id="a_edge24_Node000017_Node000019"><a xlink:title=" ">
<path fill="none" stroke="#9a32cd" stroke-dasharray="5,2" d="M1046.78,-168.13C947.38,-173.65 785.9,-183.24 646.75,-194.37 528.35,-203.84 471.7,-143.73 380.75,-220.12 357.8,-239.4 379.24,-260.09 362.75,-285.12 349.6,-305.07 327.22,-321.32 311.07,-331.29"/>
<polygon fill="#9a32cd" stroke="#9a32cd" points="1046.68,-171.64 1056.48,-167.59 1046.3,-164.65 1046.68,-171.64"/>
</a>
</g>
<text xml:space="preserve" text-anchor="start" x="673.5" y="-200.62" font-family="Helvetica,sans-Serif" font-size="10.00" fill="grey">CustomRects</text>
</g>
<!-- Node20&#45;&gt;Node19 -->
<g id="edge25_Node000019_Node000020" class="edge">
<title>Node20&#45;&gt;Node19</title>
<g id="a_edge25_Node000019_Node000020"><a xlink:title=" ">
<path fill="none" stroke="#9a32cd" stroke-dasharray="5,2" d="M931.8,-142.48C965.2,-143.88 1004.7,-146.06 1040.25,-149.37 1046.03,-149.91 1051.99,-150.54 1057.98,-151.22"/>
<polygon fill="#9a32cd" stroke="#9a32cd" points="932.36,-139 922.23,-142.09 932.08,-145.99 932.36,-139"/>
</a>
</g>
<text xml:space="preserve" text-anchor="start" x="979.5" y="-155.62" font-family="Helvetica,sans-Serif" font-size="10.00" fill="grey">Data</text>
</g>
<!-- Node21 -->
<g id="Node000021" class="node">
<title>Node21</title>
<g id="a_Node000021"><a xlink:href="structImVector.html" target="_top" xlink:title=" ">
<polygon fill="white" stroke="#666666" points="1214.88,-339.5 1068.38,-339.5 1068.38,-318.75 1214.88,-318.75 1214.88,-339.5"/>
<text xml:space="preserve" text-anchor="middle" x="1141.62" y="-326" font-family="Helvetica,sans-Serif" font-size="10.00">ImVector&lt; ImFontConfig &gt;</text>
</a>
</g>
</g>
<!-- Node21&#45;&gt;Node17 -->
<g id="edge28_Node000017_Node000021" class="edge">
<title>Node21&#45;&gt;Node17</title>
<g id="a_edge28_Node000017_Node000021"><a xlink:title=" ">
<path fill="none" stroke="#9a32cd" stroke-dasharray="5,2" d="M1056.57,-339.45C983.56,-349.31 875.31,-366.08 782.75,-389.12 774.57,-391.16 773.07,-393.77 764.75,-395.12 712.98,-403.52 699.05,-399 646.75,-395.12 529.57,-386.42 392.41,-361.8 328.23,-349.42"/>
<polygon fill="#9a32cd" stroke="#9a32cd" points="1057.02,-342.92 1066.47,-338.12 1056.1,-335.98 1057.02,-342.92"/>
</a>
</g>
<text xml:space="preserve" text-anchor="start" x="686.62" y="-406.12" font-family="Helvetica,sans-Serif" font-size="10.00" fill="grey">Sources</text>
</g>
<!-- Node22&#45;&gt;Node12 -->
<g id="edge34_Node000012_Node000022" class="edge">
<title>Node22&#45;&gt;Node12</title>
<g id="a_edge34_Node000012_Node000022"><a xlink:title=" ">
<path fill="none" stroke="#9a32cd" stroke-dasharray="5,2" d="M809.47,-231.06C795.38,-227.1 779.54,-223.34 764.75,-221.37 704.13,-213.3 631.95,-219.56 595.07,-223.89"/>
<polygon fill="#9a32cd" stroke="#9a32cd" points="808.3,-234.37 818.88,-233.82 810.27,-227.65 808.3,-234.37"/>
</a>
</g>
<text xml:space="preserve" text-anchor="start" x="686.62" y="-227.62" font-family="Helvetica,sans-Serif" font-size="10.00" fill="grey">Sources</text>
</g>
<!-- Node22&#45;&gt;Node21 -->
<g id="edge29_Node000021_Node000022" class="edge">
<title>Node22&#45;&gt;Node21</title>
<g id="a_edge29_Node000021_Node000022"><a xlink:title=" ">
<path fill="none" stroke="#9a32cd" stroke-dasharray="5,2" d="M902.05,-259.11C958.85,-275.78 1052.48,-303.25 1103.93,-318.35"/>
<polygon fill="#9a32cd" stroke="#9a32cd" points="903.24,-255.81 892.66,-256.36 901.27,-262.53 903.24,-255.81"/>
</a>
</g>
<text xml:space="preserve" text-anchor="start" x="979.5" y="-305.8" font-family="Helvetica,sans-Serif" font-size="10.00" fill="grey">Data</text>
</g>
<!-- Node23 -->
<g id="Node000023" class="node">
<title>Node23</title>
<g id="a_Node000023"><a xlink:href="structImFontBuilderIO.html" target="_top" xlink:title=" ">
<polygon fill="white" stroke="#666666" points="94.75,-337.5 0,-337.5 0,-316.75 94.75,-316.75 94.75,-337.5"/>
<text xml:space="preserve" text-anchor="middle" x="47.38" y="-324" font-family="Helvetica,sans-Serif" font-size="10.00">ImFontBuilderIO</text>
</a>
</g>
</g>
<!-- Node23&#45;&gt;Node17 -->
<g id="edge33_Node000017_Node000023" class="edge">
<title>Node23&#45;&gt;Node17</title>
<g id="a_edge33_Node000017_Node000023"><a xlink:title=" ">
<path fill="none" stroke="#9a32cd" stroke-dasharray="5,2" d="M106.42,-325.63C134.82,-325.4 169.5,-325.86 200.5,-328.37 217.82,-329.77 236.88,-332.54 252.91,-335.23"/>
<polygon fill="#9a32cd" stroke="#9a32cd" points="106.53,-322.13 96.57,-325.74 106.61,-329.13 106.53,-322.13"/>
</a>
</g>
<text xml:space="preserve" text-anchor="start" x="123.62" y="-334.62" font-family="Helvetica,sans-Serif" font-size="10.00" fill="grey">FontBuilderIO</text>
</g>
<!-- Node24&#45;&gt;Node3 -->
<g id="edge38_Node000003_Node000024" class="edge">
<title>Node24&#45;&gt;Node3</title>
<g id="a_edge38_Node000003_Node000024"><a xlink:title=" ">
<path fill="none" stroke="#9a32cd" stroke-dasharray="5,2" d="M640.14,-541.72C711.51,-542.95 825.81,-546.6 924,-557.37 988.51,-564.45 1062.87,-578.77 1105.55,-587.6"/>
<polygon fill="#9a32cd" stroke="#9a32cd" points="640.63,-538.23 630.57,-541.57 640.51,-545.23 640.63,-538.23"/>
</a>
</g>
<text xml:space="preserve" text-anchor="start" x="840.25" y="-563.62" font-family="Helvetica,sans-Serif" font-size="10.00" fill="grey">_Path</text>
</g>
<!-- Node24&#45;&gt;Node11 -->
<g id="edge35_Node000011_Node000024" class="edge">
<title>Node24&#45;&gt;Node11</title>
<g id="a_edge35_Node000011_Node000024"><a xlink:title=" ">
<path fill="none" stroke="#9a32cd" stroke-dasharray="5,2" d="M640.22,-552.57C677.26,-558.88 723.57,-567.1 764.75,-575.37 778.2,-578.07 792.76,-581.25 806.08,-584.26"/>
<polygon fill="#9a32cd" stroke="#9a32cd" points="640.97,-549.15 630.53,-550.93 639.8,-556.05 640.97,-549.15"/>
</a>
</g>
<text xml:space="preserve" text-anchor="start" x="678" y="-581.62" font-family="Helvetica,sans-Serif" font-size="10.00" fill="grey">TempBuffer</text>
</g>
<!-- Node25&#45;&gt;Node3 -->
<g id="edge39_Node000003_Node000025" class="edge">
<title>Node25&#45;&gt;Node3</title>
<g id="a_edge39_Node000003_Node000025"><a xlink:title=" ">
<path fill="none" stroke="#9a32cd" stroke-dasharray="5,2" d="M504.64,-765C656.74,-764.51 1017.23,-761.99 1040.25,-749.12 1098.19,-716.72 1128.24,-635.31 1137.47,-605.92"/>
<polygon fill="#9a32cd" stroke="#9a32cd" points="504.69,-761.5 494.7,-765.03 504.71,-768.5 504.69,-761.5"/>
</a>
</g>
<text xml:space="preserve" text-anchor="start" x="674.25" y="-770.38" font-family="Helvetica,sans-Serif" font-size="10.00" fill="grey">_CmdHeader</text>
</g>
<!-- Node26 -->
<g id="Node000026" class="node">
<title>Node26</title>
<g id="a_Node000026"><a xlink:href="structImDrawListSplitter.html" target="_top" xlink:title=" ">
<polygon fill="white" stroke="#666666" points="2335.5,-645.5 2228.75,-645.5 2228.75,-624.75 2335.5,-624.75 2335.5,-645.5"/>
<text xml:space="preserve" text-anchor="middle" x="2282.12" y="-632" font-family="Helvetica,sans-Serif" font-size="10.00">ImDrawListSplitter</text>
</a>
</g>
</g>
<!-- Node26&#45;&gt;Node3 -->
<g id="edge41_Node000003_Node000026" class="edge">
<title>Node26&#45;&gt;Node3</title>
<g id="a_edge41_Node000003_Node000026"><a xlink:title=" ">
<path fill="none" stroke="#9a32cd" stroke-dasharray="5,2" d="M2217.1,-643.46C2172.45,-648.56 2111.44,-654.12 2057.5,-654.12 1403.38,-654.12 1403.38,-654.12 1403.38,-654.12 1331.37,-654.12 1312.88,-648.47 1243,-631.12 1216.95,-624.65 1188.21,-613.96 1168.18,-605.91"/>
<polygon fill="#9a32cd" stroke="#9a32cd" points="2217.34,-646.96 2226.86,-642.32 2216.53,-640 2217.34,-646.96"/>
</a>
</g>
<text xml:space="preserve" text-anchor="start" x="1747.5" y="-660.37" font-family="Helvetica,sans-Serif" font-size="10.00" fill="grey">_Splitter</text>
</g>
<!-- Node27 -->
<g id="Node000027" class="node">
<title>Node27</title>
<g id="a_Node000027"><a xlink:href="structImVector.html" target="_top" xlink:title=" ">
<polygon fill="white" stroke="#666666" points="2136.5,-612.5 1976.5,-612.5 1976.5,-591.75 2136.5,-591.75 2136.5,-612.5"/>
<text xml:space="preserve" text-anchor="middle" x="2056.5" y="-599" font-family="Helvetica,sans-Serif" font-size="10.00">ImVector&lt; ImDrawChannel &gt;</text>
</a>
</g>
</g>
<!-- Node27&#45;&gt;Node26 -->
<g id="edge42_Node000026_Node000027" class="edge">
<title>Node27&#45;&gt;Node26</title>
<g id="a_edge42_Node000026_Node000027"><a xlink:title=" ">
<path fill="none" stroke="#9a32cd" stroke-dasharray="5,2" d="M2148.11,-612.47C2168.74,-615.11 2190.53,-618.13 2210.75,-621.37 2216.53,-622.3 2222.56,-623.35 2228.55,-624.44"/>
<polygon fill="#9a32cd" stroke="#9a32cd" points="2148.65,-609.01 2138.29,-611.23 2147.78,-615.95 2148.65,-609.01"/>
</a>
</g>
<text xml:space="preserve" text-anchor="start" x="2157.5" y="-627.62" font-family="Helvetica,sans-Serif" font-size="10.00" fill="grey">_Channels</text>
</g>
<!-- Node28&#45;&gt;Node27 -->
<g id="edge43_Node000027_Node000028" class="edge">
<title>Node28&#45;&gt;Node27</title>
<g id="a_edge43_Node000027_Node000028"><a xlink:title=" ">
<path fill="none" stroke="#9a32cd" stroke-dasharray="5,2" d="M1912.27,-559.21C1945.37,-569.13 1989.03,-582.2 2019.4,-591.31"/>
<polygon fill="#9a32cd" stroke="#9a32cd" points="1913.52,-555.93 1902.93,-556.41 1911.51,-562.63 1913.52,-555.93"/>
</a>
</g>
<text xml:space="preserve" text-anchor="start" x="1932.25" y="-578.16" font-family="Helvetica,sans-Serif" font-size="10.00" fill="grey">Data</text>
</g>
<!-- Node29&#45;&gt;Node3 -->
<g id="edge46_Node000003_Node000029" class="edge">
<title>Node29&#45;&gt;Node3</title>
<g id="a_edge46_Node000003_Node000029"><a xlink:title=" ">
<path fill="none" stroke="#9a32cd" stroke-dasharray="5,2" d="M753.13,-689.28C757.28,-686.89 761.24,-684.18 764.75,-681.12 776.69,-670.72 769.53,-659.09 782.75,-650.37 879.04,-586.88 926.67,-638.19 1040.25,-618.12 1062.08,-614.26 1086.31,-608.75 1105.5,-604.08"/>
<polygon fill="#9a32cd" stroke="#9a32cd" points="751.9,-685.98 744.54,-693.6 755.05,-692.23 751.9,-685.98"/>
</a>
</g>
<text xml:space="preserve" text-anchor="start" x="817" y="-656.62" font-family="Helvetica,sans-Serif" font-size="10.00" fill="grey">_ClipRectStack</text>
</g>
<!-- Node30 -->
<g id="Node000030" class="node">
<title>Node30</title>
<g id="a_Node000030"><a xlink:href="structImVector.html" target="_top" xlink:title=" ">
<polygon fill="white" stroke="#666666" points="924,-737.5 782.75,-737.5 782.75,-716.75 924,-716.75 924,-737.5"/>
<text xml:space="preserve" text-anchor="middle" x="853.38" y="-724" font-family="Helvetica,sans-Serif" font-size="10.00">ImVector&lt; ImTextureID &gt;</text>
</a>
</g>
</g>
<!-- Node30&#45;&gt;Node3 -->
<g id="edge48_Node000003_Node000030" class="edge">
<title>Node30&#45;&gt;Node3</title>
<g id="a_edge48_Node000003_Node000030"><a xlink:title=" ">
<path fill="none" stroke="#9a32cd" stroke-dasharray="5,2" d="M935.64,-727.42C969.55,-724.66 1008.37,-717.55 1040.25,-701.12 1084.63,-678.25 1120.15,-627.81 1134.16,-605.77"/>
<polygon fill="#9a32cd" stroke="#9a32cd" points="935.6,-723.92 925.86,-728.1 936.08,-730.9 935.6,-723.92"/>
</a>
</g>
<text xml:space="preserve" text-anchor="start" x="952.5" y="-733.03" font-family="Helvetica,sans-Serif" font-size="10.00" fill="grey">_TextureIdStack</text>
</g>
<!-- Node31 -->
<g id="Node000031" class="node">
<title>Node31</title>
<g id="a_Node000031"><a xlink:href="structImVector.html" target="_top" xlink:title=" ">
<polygon fill="white" stroke="#666666" points="907.5,-698.5 799.25,-698.5 799.25,-677.75 907.5,-677.75 907.5,-698.5"/>
<text xml:space="preserve" text-anchor="middle" x="853.38" y="-685" font-family="Helvetica,sans-Serif" font-size="10.00">ImVector&lt; ImU8 &gt;</text>
</a>
</g>
</g>
<!-- Node31&#45;&gt;Node3 -->
<g id="edge49_Node000003_Node000031" class="edge">
<title>Node31&#45;&gt;Node3</title>
<g id="a_edge49_Node000003_Node000031"><a xlink:title=" ">
<path fill="none" stroke="#9a32cd" stroke-dasharray="5,2" d="M918.8,-682.5C955.29,-677.89 1001.29,-669.66 1040.25,-655.12 1073.35,-642.77 1107.82,-619.49 1126.51,-605.84"/>
<polygon fill="#9a32cd" stroke="#9a32cd" points="918.82,-678.97 909.31,-683.64 919.65,-685.92 918.82,-678.97"/>
</a>
</g>
<text xml:space="preserve" text-anchor="start" x="945" y="-684.9" font-family="Helvetica,sans-Serif" font-size="10.00" fill="grey">_CallbacksDataBuf</text>
</g>
</g>
</svg>
