<?xml version="1.0" encoding="UTF-8" standalone="no"?>
<!DOCTYPE svg PUBLIC "-//W3C//DTD SVG 1.1//EN"
 "http://www.w3.org/Graphics/SVG/1.1/DTD/svg11.dtd">
<!-- Generated by graphviz version 13.0.0 (0)
 -->
<!-- Title: ExampleAppPropertyEditor Pages: 1 -->
<svg width="360pt" height="281pt"
 viewBox="0.00 0.00 360.00 281.00" xmlns="http://www.w3.org/2000/svg" xmlns:xlink="http://www.w3.org/1999/xlink">
<g id="graph0" class="graph" transform="scale(1 1) rotate(0) translate(4 276.75)">
<title>ExampleAppPropertyEditor</title>
<!-- Node1 -->
<g id="Node000001" class="node">
<title>Node1</title>
<g id="a_Node000001"><a xlink:title=" ">
<polygon fill="#999999" stroke="#666666" points="152.5,-20.75 5.25,-20.75 5.25,0 152.5,0 152.5,-20.75"/>
<text xml:space="preserve" text-anchor="middle" x="78.88" y="-7.25" font-family="Helvetica,sans-Serif" font-size="10.00">ExampleAppPropertyEditor</text>
</a>
</g>
</g>
<!-- Node2 -->
<g id="Node000002" class="node">
<title>Node2</title>
<g id="a_Node000002"><a xlink:href="structImGuiTextFilter.html" target="_top" xlink:title=" ">
<polygon fill="white" stroke="#666666" points="118,-96.25 27.75,-96.25 27.75,-75.5 118,-75.5 118,-96.25"/>
<text xml:space="preserve" text-anchor="middle" x="72.88" y="-82.75" font-family="Helvetica,sans-Serif" font-size="10.00">ImGuiTextFilter</text>
</a>
</g>
</g>
<!-- Node2&#45;&gt;Node1 -->
<g id="edge1_Node000001_Node000002" class="edge">
<title>Node2&#45;&gt;Node1</title>
<g id="a_edge1_Node000001_Node000002"><a xlink:title=" ">
<path fill="none" stroke="#9a32cd" stroke-dasharray="5,2" d="M72.81,-63.81C72.95,-55.93 73.31,-46.92 74.12,-38.75 74.71,-32.89 75.82,-26.4 76.81,-21.21"/>
<polygon fill="#9a32cd" stroke="#9a32cd" points="69.31,-63.77 72.74,-73.8 76.31,-63.82 69.31,-63.77"/>
</a>
</g>
<text xml:space="preserve" text-anchor="start" x="77.12" y="-45" font-family="Helvetica,sans-Serif" font-size="10.00" fill="grey">Filter</text>
</g>
<!-- Node3 -->
<g id="Node000003" class="node">
<title>Node3</title>
<g id="a_Node000003"><a xlink:href="structImVector.html" target="_top" xlink:title=" ">
<polygon fill="white" stroke="#666666" points="145.38,-184.5 0.38,-184.5 0.38,-151 145.38,-151 145.38,-184.5"/>
<text xml:space="preserve" text-anchor="start" x="8.38" y="-171" font-family="Helvetica,sans-Serif" font-size="10.00">ImVector&lt; ImGuiTextFilter</text>
<text xml:space="preserve" text-anchor="middle" x="72.88" y="-158.25" font-family="Helvetica,sans-Serif" font-size="10.00">::ImGuiTextRange &gt;</text>
</a>
</g>
</g>
<!-- Node3&#45;&gt;Node2 -->
<g id="edge2_Node000002_Node000003" class="edge">
<title>Node3&#45;&gt;Node2</title>
<g id="a_edge2_Node000002_Node000003"><a xlink:title=" ">
<path fill="none" stroke="#9a32cd" stroke-dasharray="5,2" d="M72.88,-139.4C72.88,-124.53 72.88,-107.07 72.88,-96.49"/>
<polygon fill="#9a32cd" stroke="#9a32cd" points="69.38,-139.07 72.88,-149.07 76.38,-139.07 69.38,-139.07"/>
</a>
</g>
<text xml:space="preserve" text-anchor="start" x="75.88" y="-120.5" font-family="Helvetica,sans-Serif" font-size="10.00" fill="grey">Filters</text>
</g>
<!-- Node4 -->
<g id="Node000004" class="node">
<title>Node4</title>
<g id="a_Node000004"><a xlink:href="structImGuiTextFilter_1_1ImGuiTextRange.html" target="_top" xlink:title=" ">
<polygon fill="white" stroke="#666666" points="145.75,-272.75 0,-272.75 0,-239.25 145.75,-239.25 145.75,-272.75"/>
<text xml:space="preserve" text-anchor="start" x="8" y="-259.25" font-family="Helvetica,sans-Serif" font-size="10.00">ImGuiTextFilter::ImGuiText</text>
<text xml:space="preserve" text-anchor="middle" x="72.88" y="-246.5" font-family="Helvetica,sans-Serif" font-size="10.00">Range</text>
</a>
</g>
</g>
<!-- Node4&#45;&gt;Node3 -->
<g id="edge3_Node000003_Node000004" class="edge">
<title>Node4&#45;&gt;Node3</title>
<g id="a_edge3_Node000003_Node000004"><a xlink:title=" ">
<path fill="none" stroke="#9a32cd" stroke-dasharray="5,2" d="M72.88,-227.3C72.88,-213.3 72.88,-196.81 72.88,-184.9"/>
<polygon fill="#9a32cd" stroke="#9a32cd" points="69.38,-227.26 72.88,-237.26 76.38,-227.26 69.38,-227.26"/>
</a>
</g>
<text xml:space="preserve" text-anchor="start" x="75.88" y="-208.75" font-family="Helvetica,sans-Serif" font-size="10.00" fill="grey">Data</text>
</g>
<!-- Node5 -->
<g id="Node000005" class="node">
<title>Node5</title>
<g id="a_Node000005"><a xlink:href="structExampleTreeNode.html" target="_top" xlink:title=" ">
<polygon fill="white" stroke="#666666" points="267.12,-96.25 162.62,-96.25 162.62,-75.5 267.12,-75.5 267.12,-96.25"/>
<text xml:space="preserve" text-anchor="middle" x="214.88" y="-82.75" font-family="Helvetica,sans-Serif" font-size="10.00">ExampleTreeNode</text>
</a>
</g>
</g>
<!-- Node5&#45;&gt;Node1 -->
<g id="edge4_Node000001_Node000005" class="edge">
<title>Node5&#45;&gt;Node1</title>
<g id="a_edge4_Node000001_Node000005"><a xlink:title=" ">
<path fill="none" stroke="#9a32cd" stroke-dasharray="5,2" d="M170.54,-71.34C160.05,-67.45 149.09,-62.8 139.38,-57.5 120.36,-47.12 100.88,-31.11 89.33,-20.94"/>
<polygon fill="#9a32cd" stroke="#9a32cd" points="169.2,-74.58 179.8,-74.61 171.53,-67.98 169.2,-74.58"/>
</a>
</g>
<text xml:space="preserve" text-anchor="start" x="142.38" y="-45" font-family="Helvetica,sans-Serif" font-size="10.00" fill="grey">VisibleNode</text>
</g>
<!-- Node5&#45;&gt;Node5 -->
<g id="edge5_Node000005_Node000005" class="edge">
<title>Node5&#45;&gt;Node5</title>
<g id="a_edge5_Node000005_Node000005"><a xlink:title=" ">
<path fill="none" stroke="#9a32cd" stroke-dasharray="5,2" d="M278.65,-90.86C282.69,-89.69 285.12,-88.03 285.12,-85.88 285.12,-82.15 277.84,-79.9 267.57,-79.11"/>
<polygon fill="#9a32cd" stroke="#9a32cd" points="278.38,-87.36 269.06,-92.4 279.49,-94.27 278.38,-87.36"/>
</a>
</g>
<text xml:space="preserve" text-anchor="start" x="288.12" y="-82.75" font-family="Helvetica,sans-Serif" font-size="10.00" fill="grey">Parent</text>
</g>
<!-- Node6 -->
<g id="Node000006" class="node">
<title>Node6</title>
<g id="a_Node000006"><a xlink:href="structImVector.html" target="_top" xlink:title=" ">
<polygon fill="white" stroke="#666666" points="352.25,-20.75 173.5,-20.75 173.5,0 352.25,0 352.25,-20.75"/>
<text xml:space="preserve" text-anchor="middle" x="262.88" y="-7.25" font-family="Helvetica,sans-Serif" font-size="10.00">ImVector&lt; ExampleTreeNode * &gt;</text>
</a>
</g>
</g>
<!-- Node5&#45;&gt;Node6 -->
<g id="edge7_Node000006_Node000005" class="edge">
<title>Node5&#45;&gt;Node6</title>
<g id="a_edge7_Node000006_Node000005"><a xlink:title=" ">
<path fill="none" stroke="#9a32cd" stroke-dasharray="5,2" d="M208.48,-64.4C207.05,-55.92 207.08,-46.33 211.62,-38.75 216.29,-30.96 224.01,-25.27 232.06,-21.16"/>
<polygon fill="#9a32cd" stroke="#9a32cd" points="205.02,-64.96 210.81,-73.83 211.81,-63.28 205.02,-64.96"/>
</a>
</g>
<text xml:space="preserve" text-anchor="start" x="214.62" y="-45" font-family="Helvetica,sans-Serif" font-size="10.00" fill="grey">Data</text>
</g>
<!-- Node6&#45;&gt;Node5 -->
<g id="edge6_Node000005_Node000006" class="edge">
<title>Node6&#45;&gt;Node5</title>
<g id="a_edge6_Node000005_Node000006"><a xlink:title=" ">
<path fill="none" stroke="#9a32cd" stroke-dasharray="5,2" d="M257.11,-31.95C254.21,-40.31 250.17,-49.79 244.88,-57.5 240.33,-64.13 233.88,-70.28 228.13,-75.07"/>
<polygon fill="#9a32cd" stroke="#9a32cd" points="260.38,-33.22 260.01,-22.63 253.7,-31.14 260.38,-33.22"/>
</a>
</g>
<text xml:space="preserve" text-anchor="start" x="257.26" y="-45" font-family="Helvetica,sans-Serif" font-size="10.00" fill="grey">Childs</text>
</g>
<!-- Node7 -->
<g id="Node000007" class="node">
<title>Node7</title>
<g id="a_Node000007"><a xlink:href="structImVec2.html" target="_top" xlink:title=" ">
<polygon fill="white" stroke="#666666" points="240.88,-178.12 188.88,-178.12 188.88,-157.38 240.88,-157.38 240.88,-178.12"/>
<text xml:space="preserve" text-anchor="middle" x="214.88" y="-164.62" font-family="Helvetica,sans-Serif" font-size="10.00">ImVec2</text>
</a>
</g>
</g>
<!-- Node7&#45;&gt;Node5 -->
<g id="edge8_Node000005_Node000007" class="edge">
<title>Node7&#45;&gt;Node5</title>
<g id="a_edge8_Node000005_Node000007"><a xlink:title=" ">
<path fill="none" stroke="#9a32cd" stroke-dasharray="5,2" d="M214.88,-145.63C214.88,-129.81 214.88,-108.88 214.88,-96.75"/>
<polygon fill="#9a32cd" stroke="#9a32cd" points="211.38,-145.44 214.88,-155.44 218.38,-145.44 211.38,-145.44"/>
</a>
</g>
<text xml:space="preserve" text-anchor="start" x="217.88" y="-120.5" font-family="Helvetica,sans-Serif" font-size="10.00" fill="grey">DataMyVec2</text>
</g>
</g>
</svg>
