<?xml version="1.0" encoding="UTF-8" standalone="no"?>
<!DOCTYPE svg PUBLIC "-//W3C//DTD SVG 1.1//EN"
 "http://www.w3.org/Graphics/SVG/1.1/DTD/svg11.dtd">
<!-- Generated by graphviz version 13.0.0 (0)
 -->
<!-- Title: ImGui_ImplVulkan_ViewportData Pages: 1 -->
<svg width="1054pt" height="148pt"
 viewBox="0.00 0.00 1054.00 148.00" xmlns="http://www.w3.org/2000/svg" xmlns:xlink="http://www.w3.org/1999/xlink">
<g id="graph0" class="graph" transform="scale(1 1) rotate(0) translate(4 143.5)">
<title>ImGui_ImplVulkan_ViewportData</title>
<!-- Node1 -->
<g id="Node000001" class="node">
<title>Node1</title>
<g id="a_Node000001"><a xlink:title=" ">
<polygon fill="#999999" stroke="#666666" points="1045.75,-54.12 869.25,-54.12 869.25,-33.38 1045.75,-33.38 1045.75,-54.12"/>
<text xml:space="preserve" text-anchor="middle" x="957.5" y="-40.62" font-family="Helvetica,sans-Serif" font-size="10.00">ImGui_ImplVulkan_ViewportData</text>
</a>
</g>
</g>
<!-- Node2 -->
<g id="Node000002" class="node">
<title>Node2</title>
<g id="a_Node000002"><a xlink:href="structImGui__ImplVulkanH__Window.html" target="_top" xlink:title=" ">
<polygon fill="white" stroke="#666666" points="744.75,-79.12 588.5,-79.12 588.5,-58.38 744.75,-58.38 744.75,-79.12"/>
<text xml:space="preserve" text-anchor="middle" x="666.62" y="-65.62" font-family="Helvetica,sans-Serif" font-size="10.00">ImGui_ImplVulkanH_Window</text>
</a>
</g>
</g>
<!-- Node2&#45;&gt;Node1 -->
<g id="edge1_Node000001_Node000002" class="edge">
<title>Node2&#45;&gt;Node1</title>
<g id="a_edge1_Node000001_Node000002"><a xlink:title=" ">
<path fill="none" stroke="#9a32cd" stroke-dasharray="5,2" d="M756.44,-61.06C792.19,-57.97 833.3,-54.41 868.92,-51.33"/>
<polygon fill="#9a32cd" stroke="#9a32cd" points="756.21,-57.57 746.55,-61.92 756.81,-64.54 756.21,-57.57"/>
</a>
</g>
<text xml:space="preserve" text-anchor="start" x="794.25" y="-65.47" font-family="Helvetica,sans-Serif" font-size="10.00" fill="grey">Window</text>
</g>
<!-- Node3 -->
<g id="Node000003" class="node">
<title>Node3</title>
<g id="a_Node000003"><a xlink:href="structImVector.html" target="_top" xlink:title=" ">
<polygon fill="white" stroke="#666666" points="433.25,-137.5 274,-137.5 274,-104 433.25,-104 433.25,-137.5"/>
<text xml:space="preserve" text-anchor="start" x="282" y="-124" font-family="Helvetica,sans-Serif" font-size="10.00">ImVector&lt; ImGui_ImplVulkan</text>
<text xml:space="preserve" text-anchor="middle" x="353.62" y="-111.25" font-family="Helvetica,sans-Serif" font-size="10.00">H_Frame &gt;</text>
</a>
</g>
</g>
<!-- Node3&#45;&gt;Node2 -->
<g id="edge2_Node000002_Node000003" class="edge">
<title>Node3&#45;&gt;Node2</title>
<g id="a_edge2_Node000002_Node000003"><a xlink:title=" ">
<path fill="none" stroke="#9a32cd" stroke-dasharray="5,2" d="M444.82,-109.13C479.92,-104.27 520.42,-98.24 557,-91.75 577.02,-88.2 598.99,-83.67 617.9,-79.57"/>
<polygon fill="#9a32cd" stroke="#9a32cd" points="444.56,-105.63 435.13,-110.46 445.51,-112.57 444.56,-105.63"/>
</a>
</g>
<text xml:space="preserve" text-anchor="start" x="486.12" y="-114.33" font-family="Helvetica,sans-Serif" font-size="10.00" fill="grey">Frames</text>
</g>
<!-- Node4 -->
<g id="Node000004" class="node">
<title>Node4</title>
<g id="a_Node000004"><a xlink:href="structImGui__ImplVulkanH__Frame.html" target="_top" xlink:title=" ">
<polygon fill="white" stroke="#666666" points="178.38,-131.12 30.38,-131.12 30.38,-110.38 178.38,-110.38 178.38,-131.12"/>
<text xml:space="preserve" text-anchor="middle" x="104.38" y="-117.62" font-family="Helvetica,sans-Serif" font-size="10.00">ImGui_ImplVulkanH_Frame</text>
</a>
</g>
</g>
<!-- Node4&#45;&gt;Node3 -->
<g id="edge3_Node000003_Node000004" class="edge">
<title>Node4&#45;&gt;Node3</title>
<g id="a_edge3_Node000003_Node000004"><a xlink:title=" ">
<path fill="none" stroke="#9a32cd" stroke-dasharray="5,2" d="M189.97,-120.75C217.06,-120.75 246.93,-120.75 273.6,-120.75"/>
<polygon fill="#9a32cd" stroke="#9a32cd" points="190.07,-117.25 180.07,-120.75 190.07,-124.25 190.07,-117.25"/>
</a>
</g>
<text xml:space="preserve" text-anchor="start" x="229.75" y="-127" font-family="Helvetica,sans-Serif" font-size="10.00" fill="grey">Data</text>
</g>
<!-- Node5 -->
<g id="Node000005" class="node">
<title>Node5</title>
<g id="a_Node000005"><a xlink:href="structImVector.html" target="_top" xlink:title=" ">
<polygon fill="white" stroke="#666666" points="433.25,-85.5 274,-85.5 274,-52 433.25,-52 433.25,-85.5"/>
<text xml:space="preserve" text-anchor="start" x="282" y="-72" font-family="Helvetica,sans-Serif" font-size="10.00">ImVector&lt; ImGui_ImplVulkan</text>
<text xml:space="preserve" text-anchor="middle" x="353.62" y="-59.25" font-family="Helvetica,sans-Serif" font-size="10.00">H_FrameSemaphores &gt;</text>
</a>
</g>
</g>
<!-- Node5&#45;&gt;Node2 -->
<g id="edge4_Node000002_Node000005" class="edge">
<title>Node5&#45;&gt;Node2</title>
<g id="a_edge4_Node000002_Node000005"><a xlink:title=" ">
<path fill="none" stroke="#9a32cd" stroke-dasharray="5,2" d="M444.84,-68.75C490.23,-68.75 544.7,-68.75 588.17,-68.75"/>
<polygon fill="#9a32cd" stroke="#9a32cd" points="445.02,-65.25 435.02,-68.75 445.02,-72.25 445.02,-65.25"/>
</a>
</g>
<text xml:space="preserve" text-anchor="start" x="458.38" y="-75" font-family="Helvetica,sans-Serif" font-size="10.00" fill="grey">FrameSemaphores</text>
</g>
<!-- Node6 -->
<g id="Node000006" class="node">
<title>Node6</title>
<g id="a_Node000006"><a xlink:href="structImGui__ImplVulkanH__FrameSemaphores.html" target="_top" xlink:title=" ">
<polygon fill="white" stroke="#666666" points="208.75,-79.12 0,-79.12 0,-58.38 208.75,-58.38 208.75,-79.12"/>
<text xml:space="preserve" text-anchor="middle" x="104.38" y="-65.62" font-family="Helvetica,sans-Serif" font-size="10.00">ImGui_ImplVulkanH_FrameSemaphores</text>
</a>
</g>
</g>
<!-- Node6&#45;&gt;Node5 -->
<g id="edge5_Node000005_Node000006" class="edge">
<title>Node6&#45;&gt;Node5</title>
<g id="a_edge5_Node000005_Node000006"><a xlink:title=" ">
<path fill="none" stroke="#9a32cd" stroke-dasharray="5,2" d="M220.58,-68.75C238.5,-68.75 256.66,-68.75 273.55,-68.75"/>
<polygon fill="#9a32cd" stroke="#9a32cd" points="220.67,-65.25 210.67,-68.75 220.67,-72.25 220.67,-65.25"/>
</a>
</g>
<text xml:space="preserve" text-anchor="start" x="229.75" y="-75" font-family="Helvetica,sans-Serif" font-size="10.00" fill="grey">Data</text>
</g>
<!-- Node7 -->
<g id="Node000007" class="node">
<title>Node7</title>
<g id="a_Node000007"><a xlink:href="structImGui__ImplVulkan__WindowRenderBuffers.html" target="_top" xlink:title=" ">
<polygon fill="white" stroke="#666666" points="758.25,-38.5 575,-38.5 575,-5 758.25,-5 758.25,-38.5"/>
<text xml:space="preserve" text-anchor="start" x="583" y="-25" font-family="Helvetica,sans-Serif" font-size="10.00">ImGui_ImplVulkan_WindowRender</text>
<text xml:space="preserve" text-anchor="middle" x="666.62" y="-12.25" font-family="Helvetica,sans-Serif" font-size="10.00">Buffers</text>
</a>
</g>
</g>
<!-- Node7&#45;&gt;Node1 -->
<g id="edge6_Node000001_Node000007" class="edge">
<title>Node7&#45;&gt;Node1</title>
<g id="a_edge6_Node000001_Node000007"><a xlink:title=" ">
<path fill="none" stroke="#9a32cd" stroke-dasharray="5,2" d="M769.65,-20.68C796.26,-21.19 824.87,-22.43 851.25,-25 868.89,-26.72 888.02,-29.76 905.07,-32.91"/>
<polygon fill="#9a32cd" stroke="#9a32cd" points="769.95,-17.19 759.9,-20.53 769.84,-24.19 769.95,-17.19"/>
</a>
</g>
<text xml:space="preserve" text-anchor="start" x="779.25" y="-31.25" font-family="Helvetica,sans-Serif" font-size="10.00" fill="grey">RenderBuffers</text>
</g>
<!-- Node8 -->
<g id="Node000008" class="node">
<title>Node8</title>
<g id="a_Node000008"><a xlink:href="structImVector.html" target="_top" xlink:title=" ">
<polygon fill="white" stroke="#666666" points="433.25,-33.5 274,-33.5 274,0 433.25,0 433.25,-33.5"/>
<text xml:space="preserve" text-anchor="start" x="282" y="-20" font-family="Helvetica,sans-Serif" font-size="10.00">ImVector&lt; ImGui_ImplVulkan</text>
<text xml:space="preserve" text-anchor="middle" x="353.62" y="-7.25" font-family="Helvetica,sans-Serif" font-size="10.00">_FrameRenderBuffers &gt;</text>
</a>
</g>
</g>
<!-- Node8&#45;&gt;Node7 -->
<g id="edge7_Node000007_Node000008" class="edge">
<title>Node8&#45;&gt;Node7</title>
<g id="a_edge7_Node000007_Node000008"><a xlink:title=" ">
<path fill="none" stroke="#9a32cd" stroke-dasharray="5,2" d="M444.81,-18.2C485.63,-18.86 533.8,-19.63 574.7,-20.29"/>
<polygon fill="#9a32cd" stroke="#9a32cd" points="445.07,-14.7 435.02,-18.04 444.96,-21.7 445.07,-14.7"/>
</a>
</g>
<text xml:space="preserve" text-anchor="start" x="454.25" y="-26.24" font-family="Helvetica,sans-Serif" font-size="10.00" fill="grey">FrameRenderBuffers</text>
</g>
<!-- Node9 -->
<g id="Node000009" class="node">
<title>Node9</title>
<g id="a_Node000009"><a xlink:href="structImGui__ImplVulkan__FrameRenderBuffers.html" target="_top" xlink:title=" ">
<polygon fill="white" stroke="#666666" points="191.88,-33.5 16.88,-33.5 16.88,0 191.88,0 191.88,-33.5"/>
<text xml:space="preserve" text-anchor="start" x="24.88" y="-20" font-family="Helvetica,sans-Serif" font-size="10.00">ImGui_ImplVulkan_FrameRender</text>
<text xml:space="preserve" text-anchor="middle" x="104.38" y="-7.25" font-family="Helvetica,sans-Serif" font-size="10.00">Buffers</text>
</a>
</g>
</g>
<!-- Node9&#45;&gt;Node8 -->
<g id="edge8_Node000008_Node000009" class="edge">
<title>Node9&#45;&gt;Node8</title>
<g id="a_edge8_Node000008_Node000009"><a xlink:title=" ">
<path fill="none" stroke="#9a32cd" stroke-dasharray="5,2" d="M203.54,-16.75C226.89,-16.75 251.51,-16.75 273.86,-16.75"/>
<polygon fill="#9a32cd" stroke="#9a32cd" points="203.71,-13.25 193.71,-16.75 203.71,-20.25 203.71,-13.25"/>
</a>
</g>
<text xml:space="preserve" text-anchor="start" x="229.75" y="-23" font-family="Helvetica,sans-Serif" font-size="10.00" fill="grey">Data</text>
</g>
</g>
</svg>
