<?xml version="1.0" encoding="UTF-8" standalone="no"?>
<!DOCTYPE svg PUBLIC "-//W3C//DTD SVG 1.1//EN"
 "http://www.w3.org/Graphics/SVG/1.1/DTD/svg11.dtd">
<!-- Generated by graphviz version 13.0.0 (0)
 -->
<!-- Title: ImDrawList Pages: 1 -->
<svg width="2242pt" height="810pt"
 viewBox="0.00 0.00 2242.00 810.00" xmlns="http://www.w3.org/2000/svg" xmlns:xlink="http://www.w3.org/1999/xlink">
<g id="graph0" class="graph" transform="scale(1 1) rotate(0) translate(4 805.6)">
<title>ImDrawList</title>
<!-- Node1 -->
<g id="Node000001" class="node">
<title>Node1</title>
<g id="a_Node000001"><a xlink:title=" ">
<polygon fill="#999999" stroke="#666666" points="1177.38,-218.38 1105.88,-218.38 1105.88,-197.62 1177.38,-197.62 1177.38,-218.38"/>
<text xml:space="preserve" text-anchor="middle" x="1141.62" y="-204.88" font-family="Helvetica,sans-Serif" font-size="10.00">ImDrawList</text>
</a>
</g>
</g>
<!-- Node3 -->
<g id="Node000003" class="node">
<title>Node3</title>
<g id="a_Node000003"><a xlink:href="structImDrawCmd.html" target="_top" xlink:title=" ">
<polygon fill="white" stroke="#666666" points="1408.25,-218.38 1331.5,-218.38 1331.5,-197.62 1408.25,-197.62 1408.25,-218.38"/>
<text xml:space="preserve" text-anchor="middle" x="1369.88" y="-204.88" font-family="Helvetica,sans-Serif" font-size="10.00">ImDrawCmd</text>
</a>
</g>
</g>
<!-- Node1&#45;&gt;Node3 -->
<g id="edge4_Node000003_Node000001" class="edge">
<title>Node1&#45;&gt;Node3</title>
<g id="a_edge4_Node000003_Node000001"><a xlink:title=" ">
<path fill="none" stroke="#9a32cd" stroke-dasharray="5,2" d="M1188.8,-208C1230.86,-208 1292.22,-208 1331.34,-208"/>
<polygon fill="#9a32cd" stroke="#9a32cd" points="1188.99,-204.5 1178.99,-208 1188.99,-211.5 1188.99,-204.5"/>
</a>
</g>
<text xml:space="preserve" text-anchor="start" x="1246" y="-214.25" font-family="Helvetica,sans-Serif" font-size="10.00" fill="grey">UserCallback</text>
</g>
<!-- Node2 -->
<g id="Node000002" class="node">
<title>Node2</title>
<g id="a_Node000002"><a xlink:href="structImVector.html" target="_top" xlink:title=" ">
<polygon fill="white" stroke="#666666" points="1616.25,-215.38 1473.5,-215.38 1473.5,-194.62 1616.25,-194.62 1616.25,-215.38"/>
<text xml:space="preserve" text-anchor="middle" x="1544.88" y="-201.88" font-family="Helvetica,sans-Serif" font-size="10.00">ImVector&lt; ImDrawCmd &gt;</text>
</a>
</g>
</g>
<!-- Node2&#45;&gt;Node1 -->
<g id="edge1_Node000001_Node000002" class="edge">
<title>Node2&#45;&gt;Node1</title>
<g id="a_edge1_Node000001_Node000002"><a xlink:title=" ">
<path fill="none" stroke="#9a32cd" stroke-dasharray="5,2" d="M1500.4,-190.89C1474.05,-183.09 1439.59,-174.2 1408.25,-170.25 1325.07,-159.76 1227.54,-182.69 1176.96,-197.22"/>
<polygon fill="#9a32cd" stroke="#9a32cd" points="1499.12,-194.16 1509.71,-193.71 1501.15,-187.47 1499.12,-194.16"/>
</a>
</g>
<text xml:space="preserve" text-anchor="start" x="1344" y="-176.5" font-family="Helvetica,sans-Serif" font-size="10.00" fill="grey">CmdBuffer</text>
</g>
<!-- Node26 -->
<g id="Node000026" class="node">
<title>Node26</title>
<g id="a_Node000026"><a xlink:href="structImDrawChannel.html" target="_top" xlink:title=" ">
<polygon fill="white" stroke="#666666" points="1809.25,-219.38 1715.25,-219.38 1715.25,-198.62 1809.25,-198.62 1809.25,-219.38"/>
<text xml:space="preserve" text-anchor="middle" x="1762.25" y="-205.88" font-family="Helvetica,sans-Serif" font-size="10.00">ImDrawChannel</text>
</a>
</g>
</g>
<!-- Node2&#45;&gt;Node26 -->
<g id="edge42_Node000026_Node000002" class="edge">
<title>Node2&#45;&gt;Node26</title>
<g id="a_edge42_Node000026_Node000002"><a xlink:title=" ">
<path fill="none" stroke="#9a32cd" stroke-dasharray="5,2" d="M1627.94,-205.16C1650.42,-205.34 1674.77,-205.67 1697.25,-206.25 1702.92,-206.4 1708.87,-206.59 1714.77,-206.81"/>
<polygon fill="#9a32cd" stroke="#9a32cd" points="1628.27,-201.66 1618.25,-205.09 1628.22,-208.66 1628.27,-201.66"/>
</a>
</g>
<text xml:space="preserve" text-anchor="start" x="1637.25" y="-212.5" font-family="Helvetica,sans-Serif" font-size="10.00" fill="grey">_CmdBuffer</text>
</g>
<!-- Node3&#45;&gt;Node2 -->
<g id="edge2_Node000002_Node000003" class="edge">
<title>Node3&#45;&gt;Node2</title>
<g id="a_edge2_Node000002_Node000003"><a xlink:title=" ">
<path fill="none" stroke="#9a32cd" stroke-dasharray="5,2" d="M1419.54,-207.16C1436.22,-206.87 1455.23,-206.54 1473.29,-206.22"/>
<polygon fill="#9a32cd" stroke="#9a32cd" points="1419.86,-203.65 1409.93,-207.32 1419.99,-210.65 1419.86,-203.65"/>
</a>
</g>
<text xml:space="preserve" text-anchor="start" x="1429.25" y="-213.28" font-family="Helvetica,sans-Serif" font-size="10.00" fill="grey">Data</text>
</g>
<!-- Node4 -->
<g id="Node000004" class="node">
<title>Node4</title>
<g id="a_Node000004"><a xlink:href="structImVec4.html" target="_top" xlink:title=" ">
<polygon fill="white" stroke="#666666" points="73.38,-160.38 21.38,-160.38 21.38,-139.62 73.38,-139.62 73.38,-160.38"/>
<text xml:space="preserve" text-anchor="middle" x="47.38" y="-146.88" font-family="Helvetica,sans-Serif" font-size="10.00">ImVec4</text>
</a>
</g>
</g>
<!-- Node4&#45;&gt;Node3 -->
<g id="edge3_Node000003_Node000004" class="edge">
<title>Node4&#45;&gt;Node3</title>
<g id="a_edge3_Node000003_Node000004"><a xlink:title=" ">
<path fill="none" stroke="#9a32cd" stroke-dasharray="5,2" d="M64.58,-130.72C100.57,-90.22 191.71,0 289.62,0 289.62,0 289.62,0 1142.62,0 1262.64,0 1231.7,-126.33 1331.5,-193 1333.83,-194.55 1336.34,-195.99 1338.92,-197.3"/>
<polygon fill="#9a32cd" stroke="#9a32cd" points="62.11,-128.23 58.2,-138.07 67.4,-132.82 62.11,-128.23"/>
</a>
</g>
<text xml:space="preserve" text-anchor="start" x="685.5" y="-6.25" font-family="Helvetica,sans-Serif" font-size="10.00" fill="grey">ClipRect</text>
</g>
<!-- Node9 -->
<g id="Node000009" class="node">
<title>Node9</title>
<g id="a_Node000009"><a xlink:href="structImDrawListSharedData.html" target="_top" xlink:title=" ">
<polygon fill="white" stroke="#666666" points="917.62,-218.38 789.12,-218.38 789.12,-197.62 917.62,-197.62 917.62,-218.38"/>
<text xml:space="preserve" text-anchor="middle" x="853.38" y="-204.88" font-family="Helvetica,sans-Serif" font-size="10.00">ImDrawListSharedData</text>
</a>
</g>
</g>
<!-- Node4&#45;&gt;Node9 -->
<g id="edge11_Node000009_Node000004" class="edge">
<title>Node4&#45;&gt;Node9</title>
<g id="a_edge11_Node000009_Node000004"><a xlink:title=" ">
<path fill="none" stroke="#9a32cd" stroke-dasharray="5,2" d="M84.01,-164.87C93.22,-168.12 103.23,-171.14 112.75,-173 278.65,-205.47 323.87,-181.95 492.75,-189.5 613.65,-194.9 643.93,-195.09 764.75,-202 772.51,-202.44 780.66,-202.95 788.73,-203.47"/>
<polygon fill="#9a32cd" stroke="#9a32cd" points="85.27,-161.6 74.68,-161.39 82.82,-168.16 85.27,-161.6"/>
</a>
</g>
<text xml:space="preserve" text-anchor="start" x="391.75" y="-212.5" font-family="Helvetica,sans-Serif" font-size="10.00" fill="grey">ClipRectFullscreen</text>
<text xml:space="preserve" text-anchor="start" x="391.75" y="-195.75" font-family="Helvetica,sans-Serif" font-size="10.00" fill="grey">TexUvLines</text>
</g>
<!-- Node15 -->
<g id="Node000015" class="node">
<title>Node15</title>
<g id="a_Node000015"><a xlink:href="structImFontAtlas.html" target="_top" xlink:title=" ">
<polygon fill="white" stroke="#666666" points="327.88,-506.38 253.38,-506.38 253.38,-485.62 327.88,-485.62 327.88,-506.38"/>
<text xml:space="preserve" text-anchor="middle" x="290.62" y="-492.88" font-family="Helvetica,sans-Serif" font-size="10.00">ImFontAtlas</text>
</a>
</g>
</g>
<!-- Node4&#45;&gt;Node15 -->
<g id="edge30_Node000015_Node000004" class="edge">
<title>Node4&#45;&gt;Node15</title>
<g id="a_edge30_Node000015_Node000004"><a xlink:title=" ">
<path fill="none" stroke="#9a32cd" stroke-dasharray="5,2" d="M62.22,-169.86C107.21,-234.38 248.29,-436.71 282.23,-485.39"/>
<polygon fill="#9a32cd" stroke="#9a32cd" points="65.32,-168.18 56.73,-161.98 59.57,-172.18 65.32,-168.18"/>
</a>
</g>
<text xml:space="preserve" text-anchor="start" x="128.88" y="-370.42" font-family="Helvetica,sans-Serif" font-size="10.00" fill="grey">TexUvLines</text>
</g>
<!-- Node23 -->
<g id="Node000023" class="node">
<title>Node23</title>
<g id="a_Node000023"><a xlink:href="structImDrawCmdHeader.html" target="_top" xlink:title=" ">
<polygon fill="white" stroke="#666666" points="492.75,-160.38 380.75,-160.38 380.75,-139.62 492.75,-139.62 492.75,-160.38"/>
<text xml:space="preserve" text-anchor="middle" x="436.75" y="-146.88" font-family="Helvetica,sans-Serif" font-size="10.00">ImDrawCmdHeader</text>
</a>
</g>
</g>
<!-- Node4&#45;&gt;Node23 -->
<g id="edge38_Node000023_Node000004" class="edge">
<title>Node4&#45;&gt;Node23</title>
<g id="a_edge38_Node000023_Node000004"><a xlink:title=" ">
<path fill="none" stroke="#9a32cd" stroke-dasharray="5,2" d="M85.21,-150C153.48,-150 300.01,-150 380.31,-150"/>
<polygon fill="#9a32cd" stroke="#9a32cd" points="85.31,-146.5 75.31,-150 85.31,-153.5 85.31,-146.5"/>
</a>
</g>
<text xml:space="preserve" text-anchor="start" x="136.38" y="-156.25" font-family="Helvetica,sans-Serif" font-size="10.00" fill="grey">ClipRect</text>
</g>
<!-- Node27 -->
<g id="Node000027" class="node">
<title>Node27</title>
<g id="a_Node000027"><a xlink:href="structImVector.html" target="_top" xlink:title=" ">
<polygon fill="white" stroke="#666666" points="764.75,-122.38 646.75,-122.38 646.75,-101.62 764.75,-101.62 764.75,-122.38"/>
<text xml:space="preserve" text-anchor="middle" x="705.75" y="-108.88" font-family="Helvetica,sans-Serif" font-size="10.00">ImVector&lt; ImVec4 &gt;</text>
</a>
</g>
</g>
<!-- Node4&#45;&gt;Node27 -->
<g id="edge45_Node000027_Node000004" class="edge">
<title>Node4&#45;&gt;Node27</title>
<g id="a_edge45_Node000027_Node000004"><a xlink:title=" ">
<path fill="none" stroke="#9a32cd" stroke-dasharray="5,2" d="M85,-144.01C119.37,-138.64 172.28,-131.06 218.5,-127.25 372.54,-114.57 554.83,-112.22 646.26,-111.92"/>
<polygon fill="#9a32cd" stroke="#9a32cd" points="84.48,-140.55 75.15,-145.57 85.57,-147.46 84.48,-140.55"/>
</a>
</g>
<text xml:space="preserve" text-anchor="start" x="279" y="-133.5" font-family="Helvetica,sans-Serif" font-size="10.00" fill="grey">Data</text>
</g>
<!-- Node5 -->
<g id="Node000005" class="node">
<title>Node5</title>
<g id="a_Node000005"><a xlink:href="structImVector.html" target="_top" xlink:title=" ">
<polygon fill="white" stroke="#666666" points="921,-404.38 785.75,-404.38 785.75,-383.62 921,-383.62 921,-404.38"/>
<text xml:space="preserve" text-anchor="middle" x="853.38" y="-390.88" font-family="Helvetica,sans-Serif" font-size="10.00">ImVector&lt; ImDrawIdx &gt;</text>
</a>
</g>
</g>
<!-- Node5&#45;&gt;Node1 -->
<g id="edge5_Node000001_Node000005" class="edge">
<title>Node5&#45;&gt;Node1</title>
<g id="a_edge5_Node000001_Node000005"><a xlink:title=" ">
<path fill="none" stroke="#9a32cd" stroke-dasharray="5,2" d="M913.44,-380.6C967.35,-368.32 1038.88,-351.92 1040.25,-351 1091.81,-316.25 1125.16,-245.45 1136.4,-218.63"/>
<polygon fill="#9a32cd" stroke="#9a32cd" points="912.69,-377.18 903.71,-382.81 914.24,-384 912.69,-377.18"/>
</a>
</g>
<text xml:space="preserve" text-anchor="start" x="969" y="-379.31" font-family="Helvetica,sans-Serif" font-size="10.00" fill="grey">IdxBuffer</text>
</g>
<!-- Node5&#45;&gt;Node26 -->
<g id="edge43_Node000026_Node000005" class="edge">
<title>Node5&#45;&gt;Node26</title>
<g id="a_edge43_Node000026_Node000005"><a xlink:title=" ">
<path fill="none" stroke="#9a32cd" stroke-dasharray="5,2" d="M932.62,-399.47C990.13,-403.02 1070.2,-407 1140.62,-407 1140.62,-407 1140.62,-407 1545.88,-407 1657.62,-407 1736.36,-260.77 1756.3,-219.65"/>
<polygon fill="#9a32cd" stroke="#9a32cd" points="933.14,-396 922.94,-398.86 932.7,-402.98 933.14,-396"/>
</a>
</g>
<text xml:space="preserve" text-anchor="start" x="1345.12" y="-413.25" font-family="Helvetica,sans-Serif" font-size="10.00" fill="grey">_IdxBuffer</text>
</g>
<!-- Node6 -->
<g id="Node000006" class="node">
<title>Node6</title>
<g id="a_Node000006"><a xlink:href="structImVector.html" target="_top" xlink:title=" ">
<polygon fill="white" stroke="#666666" points="923.25,-311.38 783.5,-311.38 783.5,-290.62 923.25,-290.62 923.25,-311.38"/>
<text xml:space="preserve" text-anchor="middle" x="853.38" y="-297.88" font-family="Helvetica,sans-Serif" font-size="10.00">ImVector&lt; ImDrawVert &gt;</text>
</a>
</g>
</g>
<!-- Node6&#45;&gt;Node1 -->
<g id="edge6_Node000001_Node000006" class="edge">
<title>Node6&#45;&gt;Node1</title>
<g id="a_edge6_Node000001_Node000006"><a xlink:title=" ">
<path fill="none" stroke="#9a32cd" stroke-dasharray="5,2" d="M934.6,-293.23C968,-288.35 1006.73,-280.51 1040.25,-268 1073.35,-255.65 1107.82,-232.37 1126.51,-218.72"/>
<polygon fill="#9a32cd" stroke="#9a32cd" points="934.41,-289.72 924.99,-294.57 935.38,-296.66 934.41,-289.72"/>
</a>
</g>
<text xml:space="preserve" text-anchor="start" x="968.25" y="-297.78" font-family="Helvetica,sans-Serif" font-size="10.00" fill="grey">VtxBuffer</text>
</g>
<!-- Node7 -->
<g id="Node000007" class="node">
<title>Node7</title>
<g id="a_Node000007"><a xlink:href="structImDrawVert.html" target="_top" xlink:title=" ">
<polygon fill="white" stroke="#666666" points="606.62,-357.38 532.88,-357.38 532.88,-336.62 606.62,-336.62 606.62,-357.38"/>
<text xml:space="preserve" text-anchor="middle" x="569.75" y="-343.88" font-family="Helvetica,sans-Serif" font-size="10.00">ImDrawVert</text>
</a>
</g>
</g>
<!-- Node7&#45;&gt;Node1 -->
<g id="edge35_Node000001_Node000007" class="edge">
<title>Node7&#45;&gt;Node1</title>
<g id="a_edge35_Node000001_Node000007"><a xlink:title=" ">
<path fill="none" stroke="#9a32cd" stroke-dasharray="5,2" d="M618.4,-347.97C722.45,-349.41 966.53,-348.83 1040.25,-314 1085.62,-292.56 1120.85,-240.88 1134.49,-218.56"/>
<polygon fill="#9a32cd" stroke="#9a32cd" points="618.58,-344.48 608.53,-347.82 618.47,-351.48 618.58,-344.48"/>
</a>
</g>
<text xml:space="preserve" text-anchor="start" x="822.62" y="-353.12" font-family="Helvetica,sans-Serif" font-size="10.00" fill="grey">_VtxWritePtr</text>
</g>
<!-- Node7&#45;&gt;Node6 -->
<g id="edge7_Node000006_Node000007" class="edge">
<title>Node7&#45;&gt;Node6</title>
<g id="a_edge7_Node000006_Node000007"><a xlink:title=" ">
<path fill="none" stroke="#9a32cd" stroke-dasharray="5,2" d="M600.97,-331.14C614.59,-324.75 631.1,-318.01 646.75,-314.25 691.45,-303.52 743.08,-300.22 783.43,-299.6"/>
<polygon fill="#9a32cd" stroke="#9a32cd" points="599.55,-327.94 592.1,-335.47 602.62,-334.23 599.55,-327.94"/>
</a>
</g>
<text xml:space="preserve" text-anchor="start" x="694.12" y="-320.5" font-family="Helvetica,sans-Serif" font-size="10.00" fill="grey">Data</text>
</g>
<!-- Node8 -->
<g id="Node000008" class="node">
<title>Node8</title>
<g id="a_Node000008"><a xlink:href="structImVec2.html" target="_top" xlink:title=" ">
<polygon fill="white" stroke="#666666" points="73.38,-396.38 21.38,-396.38 21.38,-375.62 73.38,-375.62 73.38,-396.38"/>
<text xml:space="preserve" text-anchor="middle" x="47.38" y="-382.88" font-family="Helvetica,sans-Serif" font-size="10.00">ImVec2</text>
</a>
</g>
</g>
<!-- Node8&#45;&gt;Node7 -->
<g id="edge8_Node000007_Node000008" class="edge">
<title>Node8&#45;&gt;Node7</title>
<g id="a_edge8_Node000007_Node000008"><a xlink:title=" ">
<path fill="none" stroke="#9a32cd" stroke-dasharray="5,2" d="M84.73,-373.6C93.78,-370.98 103.54,-368.54 112.75,-367 267.12,-341.23 454.71,-343.32 532.38,-345.62"/>
<polygon fill="#9a32cd" stroke="#9a32cd" points="83.71,-370.25 75.17,-376.52 85.76,-376.94 83.71,-370.25"/>
</a>
</g>
<text xml:space="preserve" text-anchor="start" x="282" y="-376.28" font-family="Helvetica,sans-Serif" font-size="10.00" fill="grey">pos</text>
<text xml:space="preserve" text-anchor="start" x="282" y="-359.53" font-family="Helvetica,sans-Serif" font-size="10.00" fill="grey">uv</text>
</g>
<!-- Node8&#45;&gt;Node9 -->
<g id="edge10_Node000009_Node000008" class="edge">
<title>Node8&#45;&gt;Node9</title>
<g id="a_edge10_Node000009_Node000008"><a xlink:title=" ">
<path fill="none" stroke="#9a32cd" stroke-dasharray="5,2" d="M63.62,-366.56C75.58,-352.55 93.4,-334.2 112.75,-323 219.86,-261.02 258.98,-269.54 380.75,-247.5 525.27,-221.34 697.91,-212.45 788.94,-209.47"/>
<polygon fill="#9a32cd" stroke="#9a32cd" points="60.93,-364.31 57.29,-374.26 66.34,-368.76 60.93,-364.31"/>
</a>
</g>
<text xml:space="preserve" text-anchor="start" x="395.88" y="-270.5" font-family="Helvetica,sans-Serif" font-size="10.00" fill="grey">ArcFastVtx</text>
<text xml:space="preserve" text-anchor="start" x="395.88" y="-253.75" font-family="Helvetica,sans-Serif" font-size="10.00" fill="grey">TexUvWhitePixel</text>
</g>
<!-- Node8&#45;&gt;Node15 -->
<g id="edge19_Node000015_Node000008" class="edge">
<title>Node8&#45;&gt;Node15</title>
<g id="a_edge19_Node000015_Node000008"><a xlink:title=" ">
<path fill="none" stroke="#9a32cd" stroke-dasharray="5,2" d="M70.36,-403.56C82.39,-412.59 97.84,-423.29 112.75,-431 149.55,-450.04 161.61,-448.21 200.5,-462.5 220.83,-469.97 243.69,-478.56 261.17,-485.18"/>
<polygon fill="#9a32cd" stroke="#9a32cd" points="72.78,-401.01 62.72,-397.68 68.51,-406.55 72.78,-401.01"/>
</a>
</g>
<text xml:space="preserve" text-anchor="start" x="115.75" y="-485.5" font-family="Helvetica,sans-Serif" font-size="10.00" fill="grey">TexUvScale</text>
<text xml:space="preserve" text-anchor="start" x="115.75" y="-468.75" font-family="Helvetica,sans-Serif" font-size="10.00" fill="grey">TexUvWhitePixel</text>
</g>
<!-- Node18 -->
<g id="Node000018" class="node">
<title>Node18</title>
<g id="a_Node000018"><a xlink:href="structImFontAtlasCustomRect.html" target="_top" xlink:title=" ">
<polygon fill="white" stroke="#666666" points="920.25,-480.38 786.5,-480.38 786.5,-459.62 920.25,-459.62 920.25,-480.38"/>
<text xml:space="preserve" text-anchor="middle" x="853.38" y="-466.88" font-family="Helvetica,sans-Serif" font-size="10.00">ImFontAtlasCustomRect</text>
</a>
</g>
</g>
<!-- Node8&#45;&gt;Node18 -->
<g id="edge24_Node000018_Node000008" class="edge">
<title>Node8&#45;&gt;Node18</title>
<g id="a_edge24_Node000018_Node000008"><a xlink:title=" ">
<path fill="none" stroke="#9a32cd" stroke-dasharray="5,2" d="M85.17,-388.29C212.18,-396.34 631.74,-424.06 764.75,-447 782.11,-449.99 801.05,-454.77 816.87,-459.2"/>
<polygon fill="#9a32cd" stroke="#9a32cd" points="85.52,-384.81 75.32,-387.67 85.08,-391.79 85.52,-384.81"/>
</a>
</g>
<text xml:space="preserve" text-anchor="start" x="407.88" y="-423.7" font-family="Helvetica,sans-Serif" font-size="10.00" fill="grey">GlyphOffset</text>
</g>
<!-- Node20 -->
<g id="Node000020" class="node">
<title>Node20</title>
<g id="a_Node000020"><a xlink:href="structImFontConfig.html" target="_top" xlink:title=" ">
<polygon fill="white" stroke="#666666" points="893.62,-690.38 813.12,-690.38 813.12,-669.62 893.62,-669.62 893.62,-690.38"/>
<text xml:space="preserve" text-anchor="middle" x="853.38" y="-676.88" font-family="Helvetica,sans-Serif" font-size="10.00">ImFontConfig</text>
</a>
</g>
</g>
<!-- Node8&#45;&gt;Node20 -->
<g id="edge28_Node000020_Node000008" class="edge">
<title>Node8&#45;&gt;Node20</title>
<g id="a_edge28_Node000020_Node000008"><a xlink:title=" ">
<path fill="none" stroke="#9a32cd" stroke-dasharray="5,2" d="M57.53,-407.16C88.36,-477.96 188.22,-703.16 218.5,-721 229.45,-727.45 686.75,-728 764.75,-713 787.9,-708.55 812.93,-698.55 830.29,-690.72"/>
<polygon fill="#9a32cd" stroke="#9a32cd" points="60.84,-406 53.65,-398.22 54.42,-408.79 60.84,-406"/>
</a>
</g>
<text xml:space="preserve" text-anchor="start" x="407.88" y="-731.55" font-family="Helvetica,sans-Serif" font-size="10.00" fill="grey">GlyphOffset</text>
</g>
<!-- Node22 -->
<g id="Node000022" class="node">
<title>Node22</title>
<g id="a_Node000022"><a xlink:href="structImVector.html" target="_top" xlink:title=" ">
<polygon fill="white" stroke="#666666" points="628.75,-290.38 510.75,-290.38 510.75,-269.62 628.75,-269.62 628.75,-290.38"/>
<text xml:space="preserve" text-anchor="middle" x="569.75" y="-276.88" font-family="Helvetica,sans-Serif" font-size="10.00">ImVector&lt; ImVec2 &gt;</text>
</a>
</g>
</g>
<!-- Node8&#45;&gt;Node22 -->
<g id="edge34_Node000022_Node000008" class="edge">
<title>Node8&#45;&gt;Node22</title>
<g id="a_edge34_Node000022_Node000008"><a xlink:title=" ">
<path fill="none" stroke="#9a32cd" stroke-dasharray="5,2" d="M76.15,-369.61C87.27,-363.51 100.36,-356.88 112.75,-352 158.06,-334.13 170.71,-332.65 218.5,-323.25 320.25,-303.24 440.55,-290.79 510.4,-284.64"/>
<polygon fill="#9a32cd" stroke="#9a32cd" points="74.5,-366.52 67.5,-374.48 77.93,-372.62 74.5,-366.52"/>
</a>
</g>
<text xml:space="preserve" text-anchor="start" x="279" y="-329.5" font-family="Helvetica,sans-Serif" font-size="10.00" fill="grey">Data</text>
</g>
<!-- Node9&#45;&gt;Node1 -->
<g id="edge9_Node000001_Node000009" class="edge">
<title>Node9&#45;&gt;Node1</title>
<g id="a_edge9_Node000001_Node000009"><a xlink:title=" ">
<path fill="none" stroke="#9a32cd" stroke-dasharray="5,2" d="M929.38,-208C986.29,-208 1061.94,-208 1105.56,-208"/>
<polygon fill="#9a32cd" stroke="#9a32cd" points="929.42,-204.5 919.42,-208 929.42,-211.5 929.42,-204.5"/>
</a>
</g>
<text xml:space="preserve" text-anchor="start" x="976.88" y="-214.25" font-family="Helvetica,sans-Serif" font-size="10.00" fill="grey">_Data</text>
</g>
<!-- Node10 -->
<g id="Node000010" class="node">
<title>Node10</title>
<g id="a_Node000010"><a xlink:href="structImFont.html" target="_top" xlink:title=" ">
<polygon fill="white" stroke="#666666" points="594.62,-641.38 544.88,-641.38 544.88,-620.62 594.62,-620.62 594.62,-641.38"/>
<text xml:space="preserve" text-anchor="middle" x="569.75" y="-627.88" font-family="Helvetica,sans-Serif" font-size="10.00">ImFont</text>
</a>
</g>
</g>
<!-- Node10&#45;&gt;Node9 -->
<g id="edge12_Node000009_Node000010" class="edge">
<title>Node10&#45;&gt;Node9</title>
<g id="a_edge12_Node000009_Node000010"><a xlink:title=" ">
<path fill="none" stroke="#9a32cd" stroke-dasharray="5,2" d="M591.85,-612.64C604.53,-600.42 619.88,-583.29 628.75,-565 648.03,-525.25 618.52,-501.23 646.75,-467.25 682.65,-424.05 730.78,-466.73 764.75,-422 816.05,-354.45 730.3,-298.66 782.75,-232 787.18,-226.37 793,-222.06 799.39,-218.75"/>
<polygon fill="#9a32cd" stroke="#9a32cd" points="589.68,-609.88 584.72,-619.25 594.43,-615.02 589.68,-609.88"/>
</a>
</g>
<text xml:space="preserve" text-anchor="start" x="695.25" y="-473.5" font-family="Helvetica,sans-Serif" font-size="10.00" fill="grey">Font</text>
</g>
<!-- Node16 -->
<g id="Node000016" class="node">
<title>Node16</title>
<g id="a_Node000016"><a xlink:href="structImVector.html" target="_top" xlink:title=" ">
<polygon fill="white" stroke="#666666" points="915.38,-591.38 791.38,-591.38 791.38,-570.62 915.38,-570.62 915.38,-591.38"/>
<text xml:space="preserve" text-anchor="middle" x="853.38" y="-577.88" font-family="Helvetica,sans-Serif" font-size="10.00">ImVector&lt; ImFont * &gt;</text>
</a>
</g>
</g>
<!-- Node10&#45;&gt;Node16 -->
<g id="edge21_Node000016_Node000010" class="edge">
<title>Node10&#45;&gt;Node16</title>
<g id="a_edge21_Node000016_Node000010"><a xlink:title=" ">
<path fill="none" stroke="#9a32cd" stroke-dasharray="5,2" d="M606.18,-623.96C618.95,-621.46 633.49,-618.67 646.75,-616.25 695.21,-607.4 750.21,-598 791.13,-591.14"/>
<polygon fill="#9a32cd" stroke="#9a32cd" points="605.65,-620.49 596.51,-625.86 607,-627.36 605.65,-620.49"/>
</a>
</g>
<text xml:space="preserve" text-anchor="start" x="694.12" y="-622.5" font-family="Helvetica,sans-Serif" font-size="10.00" fill="grey">Data</text>
</g>
<!-- Node10&#45;&gt;Node18 -->
<g id="edge25_Node000018_Node000010" class="edge">
<title>Node10&#45;&gt;Node18</title>
<g id="a_edge25_Node000018_Node000010"><a xlink:title=" ">
<path fill="none" stroke="#9a32cd" stroke-dasharray="5,2" d="M591.03,-612.84C605.7,-600.42 626.43,-584.26 646.75,-573.25 695.72,-546.7 715.24,-556.52 764.75,-531 793.09,-516.39 822.9,-493.88 839.42,-480.67"/>
<polygon fill="#9a32cd" stroke="#9a32cd" points="588.74,-610.19 583.48,-619.38 593.33,-615.48 588.74,-610.19"/>
</a>
</g>
<text xml:space="preserve" text-anchor="start" x="695.25" y="-579.5" font-family="Helvetica,sans-Serif" font-size="10.00" fill="grey">Font</text>
</g>
<!-- Node10&#45;&gt;Node20 -->
<g id="edge29_Node000020_Node000010" class="edge">
<title>Node10&#45;&gt;Node20</title>
<g id="a_edge29_Node000020_Node000010"><a xlink:title=" ">
<path fill="none" stroke="#9a32cd" stroke-dasharray="5,2" d="M591.45,-648.59C605.91,-659.68 626.23,-673.01 646.75,-679 702.61,-695.31 770.7,-691.26 812.8,-686.16"/>
<polygon fill="#9a32cd" stroke="#9a32cd" points="594.03,-646.17 584.03,-642.67 589.66,-651.64 594.03,-646.17"/>
</a>
</g>
<text xml:space="preserve" text-anchor="start" x="687" y="-696.9" font-family="Helvetica,sans-Serif" font-size="10.00" fill="grey">DstFont</text>
</g>
<!-- Node11 -->
<g id="Node000011" class="node">
<title>Node11</title>
<g id="a_Node000011"><a xlink:href="structImVector.html" target="_top" xlink:title=" ">
<polygon fill="white" stroke="#666666" points="342.5,-613.38 238.75,-613.38 238.75,-592.62 342.5,-592.62 342.5,-613.38"/>
<text xml:space="preserve" text-anchor="middle" x="290.62" y="-599.88" font-family="Helvetica,sans-Serif" font-size="10.00">ImVector&lt; float &gt;</text>
</a>
</g>
</g>
<!-- Node11&#45;&gt;Node10 -->
<g id="edge13_Node000010_Node000011" class="edge">
<title>Node11&#45;&gt;Node10</title>
<g id="a_edge13_Node000010_Node000011"><a xlink:title=" ">
<path fill="none" stroke="#9a32cd" stroke-dasharray="5,2" d="M354.16,-602.15C394.02,-602.44 446.66,-604.4 492.75,-611.25 510.28,-613.86 529.6,-618.91 544.38,-623.25"/>
<polygon fill="#9a32cd" stroke="#9a32cd" points="354.27,-598.65 344.26,-602.11 354.24,-605.65 354.27,-598.65"/>
</a>
</g>
<text xml:space="preserve" text-anchor="start" x="398.88" y="-617.5" font-family="Helvetica,sans-Serif" font-size="10.00" fill="grey">IndexAdvanceX</text>
</g>
<!-- Node12 -->
<g id="Node000012" class="node">
<title>Node12</title>
<g id="a_Node000012"><a xlink:href="structImVector.html" target="_top" xlink:title=" ">
<polygon fill="white" stroke="#666666" points="347.75,-652.38 233.5,-652.38 233.5,-631.62 347.75,-631.62 347.75,-652.38"/>
<text xml:space="preserve" text-anchor="middle" x="290.62" y="-638.88" font-family="Helvetica,sans-Serif" font-size="10.00">ImVector&lt; ImU16 &gt;</text>
</a>
</g>
</g>
<!-- Node12&#45;&gt;Node10 -->
<g id="edge14_Node000010_Node000012" class="edge">
<title>Node12&#45;&gt;Node10</title>
<g id="a_edge14_Node000010_Node000012"><a xlink:title=" ">
<path fill="none" stroke="#9a32cd" stroke-dasharray="5,2" d="M359.33,-639.31C419.39,-636.93 503.75,-633.58 544.64,-631.96"/>
<polygon fill="#9a32cd" stroke="#9a32cd" points="359.41,-635.81 349.55,-639.7 359.68,-642.8 359.41,-635.81"/>
</a>
</g>
<text xml:space="preserve" text-anchor="start" x="406" y="-644.69" font-family="Helvetica,sans-Serif" font-size="10.00" fill="grey">IndexLookup</text>
</g>
<!-- Node13 -->
<g id="Node000013" class="node">
<title>Node13</title>
<g id="a_Node000013"><a xlink:href="structImVector.html" target="_top" xlink:title=" ">
<polygon fill="white" stroke="#666666" points="362.75,-785.38 218.5,-785.38 218.5,-764.62 362.75,-764.62 362.75,-785.38"/>
<text xml:space="preserve" text-anchor="middle" x="290.62" y="-771.88" font-family="Helvetica,sans-Serif" font-size="10.00">ImVector&lt; ImFontGlyph &gt;</text>
</a>
</g>
</g>
<!-- Node13&#45;&gt;Node10 -->
<g id="edge15_Node000010_Node000013" class="edge">
<title>Node13&#45;&gt;Node10</title>
<g id="a_edge15_Node000010_Node000013"><a xlink:title=" ">
<path fill="none" stroke="#9a32cd" stroke-dasharray="5,2" d="M374.4,-783C413,-782.86 457.98,-776.8 492.75,-755 535.96,-727.91 558.3,-666.36 565.8,-641.61"/>
<polygon fill="#9a32cd" stroke="#9a32cd" points="374.72,-779.51 364.68,-782.9 374.65,-786.51 374.72,-779.51"/>
</a>
</g>
<text xml:space="preserve" text-anchor="start" x="419.88" y="-789.1" font-family="Helvetica,sans-Serif" font-size="10.00" fill="grey">Glyphs</text>
</g>
<!-- Node14 -->
<g id="Node000014" class="node">
<title>Node14</title>
<g id="a_Node000014"><a xlink:href="structImFontGlyph.html" target="_top" xlink:title=" ">
<polygon fill="white" stroke="#666666" points="86.5,-740.38 8.25,-740.38 8.25,-719.62 86.5,-719.62 86.5,-740.38"/>
<text xml:space="preserve" text-anchor="middle" x="47.38" y="-726.88" font-family="Helvetica,sans-Serif" font-size="10.00">ImFontGlyph</text>
</a>
</g>
</g>
<!-- Node14&#45;&gt;Node10 -->
<g id="edge17_Node000010_Node000014" class="edge">
<title>Node14&#45;&gt;Node10</title>
<g id="a_edge17_Node000010_Node000014"><a xlink:title=" ">
<path fill="none" stroke="#9a32cd" stroke-dasharray="5,2" d="M98.06,-725.91C180.99,-718.28 352.39,-699.09 492.75,-661 510.82,-656.1 530.46,-648.27 545.25,-641.85"/>
<polygon fill="#9a32cd" stroke="#9a32cd" points="97.87,-722.41 88.22,-726.8 98.5,-729.39 97.87,-722.41"/>
</a>
</g>
<text xml:space="preserve" text-anchor="start" x="256.5" y="-718.37" font-family="Helvetica,sans-Serif" font-size="10.00" fill="grey">FallbackGlyph</text>
</g>
<!-- Node14&#45;&gt;Node13 -->
<g id="edge16_Node000013_Node000014" class="edge">
<title>Node14&#45;&gt;Node13</title>
<g id="a_edge16_Node000013_Node000014"><a xlink:title=" ">
<path fill="none" stroke="#9a32cd" stroke-dasharray="5,2" d="M92.83,-744.01C99.47,-745.84 106.26,-747.57 112.75,-749 147.16,-756.57 185.82,-762.53 218.21,-766.83"/>
<polygon fill="#9a32cd" stroke="#9a32cd" points="93.92,-740.68 83.34,-741.28 91.99,-747.4 93.92,-740.68"/>
</a>
</g>
<text xml:space="preserve" text-anchor="start" x="145" y="-770.48" font-family="Helvetica,sans-Serif" font-size="10.00" fill="grey">Data</text>
</g>
<!-- Node15&#45;&gt;Node10 -->
<g id="edge18_Node000010_Node000015" class="edge">
<title>Node15&#45;&gt;Node10</title>
<g id="a_edge18_Node000010_Node000015"><a xlink:title=" ">
<path fill="none" stroke="#9a32cd" stroke-dasharray="5,2" d="M322.54,-511.83C339.54,-520.3 361.1,-530.67 380.75,-539 429.58,-559.72 445.48,-556.19 492.75,-580.25 515.66,-591.91 540.01,-609.14 554.8,-620.21"/>
<polygon fill="#9a32cd" stroke="#9a32cd" points="324.47,-508.88 313.96,-507.51 321.33,-515.13 324.47,-508.88"/>
</a>
</g>
<text xml:space="preserve" text-anchor="start" x="400.75" y="-586.5" font-family="Helvetica,sans-Serif" font-size="10.00" fill="grey">ContainerAtlas</text>
</g>
<!-- Node16&#45;&gt;Node15 -->
<g id="edge20_Node000015_Node000016" class="edge">
<title>Node16&#45;&gt;Node15</title>
<g id="a_edge20_Node000015_Node000016"><a xlink:title=" ">
<path fill="none" stroke="#9a32cd" stroke-dasharray="5,2" d="M808.63,-567.04C794.72,-563 779.19,-558.91 764.75,-556 596.24,-522.09 551.01,-533.56 380.75,-510 363.37,-507.6 344.14,-504.61 328.01,-502.02"/>
<polygon fill="#9a32cd" stroke="#9a32cd" points="807.36,-570.32 817.94,-569.82 809.36,-563.61 807.36,-570.32"/>
</a>
</g>
<text xml:space="preserve" text-anchor="start" x="556.62" y="-540.49" font-family="Helvetica,sans-Serif" font-size="10.00" fill="grey">Fonts</text>
</g>
<!-- Node17 -->
<g id="Node000017" class="node">
<title>Node17</title>
<g id="a_Node000017"><a xlink:href="structImVector.html" target="_top" xlink:title=" ">
<polygon fill="white" stroke="#666666" points="1225,-479.75 1058.25,-479.75 1058.25,-446.25 1225,-446.25 1225,-479.75"/>
<text xml:space="preserve" text-anchor="start" x="1066.25" y="-466.25" font-family="Helvetica,sans-Serif" font-size="10.00">ImVector&lt; ImFontAtlasCustom</text>
<text xml:space="preserve" text-anchor="middle" x="1141.62" y="-453.5" font-family="Helvetica,sans-Serif" font-size="10.00">Rect &gt;</text>
</a>
</g>
</g>
<!-- Node17&#45;&gt;Node15 -->
<g id="edge22_Node000015_Node000017" class="edge">
<title>Node17&#45;&gt;Node15</title>
<g id="a_edge22_Node000015_Node000017"><a xlink:title=" ">
<path fill="none" stroke="#9a32cd" stroke-dasharray="5,2" d="M1046.78,-455.32C957.14,-447.02 829.04,-432.33 782.75,-413 773.46,-409.12 774.29,-402.48 764.75,-399.25 715.07,-382.45 698.69,-392.01 646.75,-399.25 576.28,-409.07 561.38,-424.21 492.75,-443 435.28,-458.73 368.34,-476.2 328.01,-486.63"/>
<polygon fill="#9a32cd" stroke="#9a32cd" points="1046.28,-458.79 1056.55,-456.22 1046.91,-451.82 1046.28,-458.79"/>
</a>
</g>
<text xml:space="preserve" text-anchor="start" x="673.5" y="-405.5" font-family="Helvetica,sans-Serif" font-size="10.00" fill="grey">CustomRects</text>
</g>
<!-- Node18&#45;&gt;Node17 -->
<g id="edge23_Node000017_Node000018" class="edge">
<title>Node18&#45;&gt;Node17</title>
<g id="a_edge23_Node000017_Node000018"><a xlink:title=" ">
<path fill="none" stroke="#9a32cd" stroke-dasharray="5,2" d="M931.69,-468.11C970.69,-467.16 1018.01,-466 1057.75,-465.03"/>
<polygon fill="#9a32cd" stroke="#9a32cd" points="931.83,-464.6 921.92,-468.35 932,-471.6 931.83,-464.6"/>
</a>
</g>
<text xml:space="preserve" text-anchor="start" x="979.5" y="-473.99" font-family="Helvetica,sans-Serif" font-size="10.00" fill="grey">Data</text>
</g>
<!-- Node19 -->
<g id="Node000019" class="node">
<title>Node19</title>
<g id="a_Node000019"><a xlink:href="structImVector.html" target="_top" xlink:title=" ">
<polygon fill="white" stroke="#666666" points="1214.88,-523.38 1068.38,-523.38 1068.38,-502.62 1214.88,-502.62 1214.88,-523.38"/>
<text xml:space="preserve" text-anchor="middle" x="1141.62" y="-509.88" font-family="Helvetica,sans-Serif" font-size="10.00">ImVector&lt; ImFontConfig &gt;</text>
</a>
</g>
</g>
<!-- Node19&#45;&gt;Node15 -->
<g id="edge26_Node000015_Node000019" class="edge">
<title>Node19&#45;&gt;Node15</title>
<g id="a_edge26_Node000015_Node000019"><a xlink:title=" ">
<path fill="none" stroke="#9a32cd" stroke-dasharray="5,2" d="M1056.79,-511.32C875.78,-507.7 454.49,-499.26 328.11,-496.73"/>
<polygon fill="#9a32cd" stroke="#9a32cd" points="1056.52,-514.82 1066.59,-511.52 1056.66,-507.82 1056.52,-514.82"/>
</a>
</g>
<text xml:space="preserve" text-anchor="start" x="686.62" y="-511.53" font-family="Helvetica,sans-Serif" font-size="10.00" fill="grey">Sources</text>
</g>
<!-- Node20&#45;&gt;Node10 -->
<g id="edge32_Node000010_Node000020" class="edge">
<title>Node20&#45;&gt;Node10</title>
<g id="a_edge32_Node000010_Node000020"><a xlink:title=" ">
<path fill="none" stroke="#9a32cd" stroke-dasharray="5,2" d="M806.04,-666.19C792.79,-662.58 778.27,-658.95 764.75,-656.25 704.3,-644.18 632.05,-636.53 595.12,-633.1"/>
<polygon fill="#9a32cd" stroke="#9a32cd" points="804.79,-669.47 815.36,-668.78 806.67,-662.73 804.79,-669.47"/>
</a>
</g>
<text xml:space="preserve" text-anchor="start" x="686.62" y="-662.5" font-family="Helvetica,sans-Serif" font-size="10.00" fill="grey">Sources</text>
</g>
<!-- Node20&#45;&gt;Node19 -->
<g id="edge27_Node000019_Node000020" class="edge">
<title>Node20&#45;&gt;Node19</title>
<g id="a_edge27_Node000019_Node000020"><a xlink:title=" ">
<path fill="none" stroke="#9a32cd" stroke-dasharray="5,2" d="M882.35,-663.68C940.52,-629.74 1073.16,-552.36 1122.07,-523.83"/>
<polygon fill="#9a32cd" stroke="#9a32cd" points="880.9,-660.47 874.02,-668.54 884.43,-666.52 880.9,-660.47"/>
</a>
</g>
<text xml:space="preserve" text-anchor="start" x="979.5" y="-632.23" font-family="Helvetica,sans-Serif" font-size="10.00" fill="grey">Data</text>
</g>
<!-- Node21 -->
<g id="Node000021" class="node">
<title>Node21</title>
<g id="a_Node000021"><a xlink:href="structImFontBuilderIO.html" target="_top" xlink:title=" ">
<polygon fill="white" stroke="#666666" points="94.75,-522.38 0,-522.38 0,-501.62 94.75,-501.62 94.75,-522.38"/>
<text xml:space="preserve" text-anchor="middle" x="47.38" y="-508.88" font-family="Helvetica,sans-Serif" font-size="10.00">ImFontBuilderIO</text>
</a>
</g>
</g>
<!-- Node21&#45;&gt;Node15 -->
<g id="edge31_Node000015_Node000021" class="edge">
<title>Node21&#45;&gt;Node15</title>
<g id="a_edge31_Node000015_Node000021"><a xlink:title=" ">
<path fill="none" stroke="#9a32cd" stroke-dasharray="5,2" d="M106.4,-508.15C152.07,-505.12 214.28,-501 253.19,-498.42"/>
<polygon fill="#9a32cd" stroke="#9a32cd" points="106.43,-504.64 96.69,-508.8 106.9,-511.63 106.43,-504.64"/>
</a>
</g>
<text xml:space="preserve" text-anchor="start" x="123.62" y="-513.96" font-family="Helvetica,sans-Serif" font-size="10.00" fill="grey">FontBuilderIO</text>
</g>
<!-- Node22&#45;&gt;Node1 -->
<g id="edge36_Node000001_Node000022" class="edge">
<title>Node22&#45;&gt;Node1</title>
<g id="a_edge36_Node000001_Node000022"><a xlink:title=" ">
<path fill="none" stroke="#9a32cd" stroke-dasharray="5,2" d="M640.19,-276.33C677.23,-274.04 723.54,-270.63 764.75,-266 772.79,-265.1 774.73,-264.36 782.75,-263.25 896.99,-247.37 926.67,-251.07 1040.25,-231 1062.08,-227.14 1086.31,-221.63 1105.5,-216.96"/>
<polygon fill="#9a32cd" stroke="#9a32cd" points="640.29,-272.82 630.52,-276.92 640.72,-279.81 640.29,-272.82"/>
</a>
</g>
<text xml:space="preserve" text-anchor="start" x="840.25" y="-269.5" font-family="Helvetica,sans-Serif" font-size="10.00" fill="grey">_Path</text>
</g>
<!-- Node22&#45;&gt;Node9 -->
<g id="edge33_Node000009_Node000022" class="edge">
<title>Node22&#45;&gt;Node9</title>
<g id="a_edge33_Node000009_Node000022"><a xlink:title=" ">
<path fill="none" stroke="#9a32cd" stroke-dasharray="5,2" d="M602.38,-264.53C615.81,-258.45 631.79,-251.84 646.75,-247.25 653.84,-245.07 735.51,-229.71 793.75,-218.87"/>
<polygon fill="#9a32cd" stroke="#9a32cd" points="601.19,-261.22 593.6,-268.61 604.14,-267.57 601.19,-261.22"/>
</a>
</g>
<text xml:space="preserve" text-anchor="start" x="678" y="-253.5" font-family="Helvetica,sans-Serif" font-size="10.00" fill="grey">TempBuffer</text>
</g>
<!-- Node23&#45;&gt;Node1 -->
<g id="edge37_Node000001_Node000023" class="edge">
<title>Node23&#45;&gt;Node1</title>
<g id="a_edge37_Node000001_Node000023"><a xlink:title=" ">
<path fill="none" stroke="#9a32cd" stroke-dasharray="5,2" d="M504.6,-148.67C570.77,-147.91 674.9,-148.25 764.75,-155.25 890.89,-165.08 1039.25,-189.83 1105.55,-201.6"/>
<polygon fill="#9a32cd" stroke="#9a32cd" points="504.57,-145.17 494.62,-148.79 504.66,-152.17 504.57,-145.17"/>
</a>
</g>
<text xml:space="preserve" text-anchor="start" x="674.25" y="-161.5" font-family="Helvetica,sans-Serif" font-size="10.00" fill="grey">_CmdHeader</text>
</g>
<!-- Node24 -->
<g id="Node000024" class="node">
<title>Node24</title>
<g id="a_Node000024"><a xlink:href="structImDrawListSplitter.html" target="_top" xlink:title=" ">
<polygon fill="white" stroke="#666666" points="2233.5,-238.38 2126.75,-238.38 2126.75,-217.62 2233.5,-217.62 2233.5,-238.38"/>
<text xml:space="preserve" text-anchor="middle" x="2180.12" y="-224.88" font-family="Helvetica,sans-Serif" font-size="10.00">ImDrawListSplitter</text>
</a>
</g>
</g>
<!-- Node24&#45;&gt;Node1 -->
<g id="edge39_Node000001_Node000024" class="edge">
<title>Node24&#45;&gt;Node1</title>
<g id="a_edge39_Node000001_Node000024"><a xlink:title=" ">
<path fill="none" stroke="#9a32cd" stroke-dasharray="5,2" d="M2115.1,-236.34C2070.45,-241.44 2009.44,-247 1955.5,-247 1368.88,-247 1368.88,-247 1368.88,-247 1300.32,-247 1221.75,-229.39 1177.57,-217.84"/>
<polygon fill="#9a32cd" stroke="#9a32cd" points="2115.34,-239.83 2124.86,-235.2 2114.53,-232.88 2115.34,-239.83"/>
</a>
</g>
<text xml:space="preserve" text-anchor="start" x="1645.5" y="-253.25" font-family="Helvetica,sans-Serif" font-size="10.00" fill="grey">_Splitter</text>
</g>
<!-- Node25 -->
<g id="Node000025" class="node">
<title>Node25</title>
<g id="a_Node000025"><a xlink:href="structImVector.html" target="_top" xlink:title=" ">
<polygon fill="white" stroke="#666666" points="2034.5,-219.38 1874.5,-219.38 1874.5,-198.62 2034.5,-198.62 2034.5,-219.38"/>
<text xml:space="preserve" text-anchor="middle" x="1954.5" y="-205.88" font-family="Helvetica,sans-Serif" font-size="10.00">ImVector&lt; ImDrawChannel &gt;</text>
</a>
</g>
</g>
<!-- Node25&#45;&gt;Node24 -->
<g id="edge40_Node000024_Node000025" class="edge">
<title>Node25&#45;&gt;Node24</title>
<g id="a_edge40_Node000024_Node000025"><a xlink:title=" ">
<path fill="none" stroke="#9a32cd" stroke-dasharray="5,2" d="M2046.14,-209.72C2066.77,-210.55 2088.55,-211.95 2108.75,-214.25 2115.31,-215 2122.16,-216.03 2128.92,-217.18"/>
<polygon fill="#9a32cd" stroke="#9a32cd" points="2046.45,-206.23 2036.33,-209.38 2046.2,-213.23 2046.45,-206.23"/>
</a>
</g>
<text xml:space="preserve" text-anchor="start" x="2055.5" y="-220.5" font-family="Helvetica,sans-Serif" font-size="10.00" fill="grey">_Channels</text>
</g>
<!-- Node26&#45;&gt;Node25 -->
<g id="edge41_Node000025_Node000026" class="edge">
<title>Node26&#45;&gt;Node25</title>
<g id="a_edge41_Node000025_Node000026"><a xlink:title=" ">
<path fill="none" stroke="#9a32cd" stroke-dasharray="5,2" d="M1820.62,-209C1837.44,-209 1856.15,-209 1874.09,-209"/>
<polygon fill="#9a32cd" stroke="#9a32cd" points="1820.82,-205.5 1810.82,-209 1820.82,-212.5 1820.82,-205.5"/>
</a>
</g>
<text xml:space="preserve" text-anchor="start" x="1830.25" y="-215.25" font-family="Helvetica,sans-Serif" font-size="10.00" fill="grey">Data</text>
</g>
<!-- Node27&#45;&gt;Node1 -->
<g id="edge44_Node000001_Node000027" class="edge">
<title>Node27&#45;&gt;Node1</title>
<g id="a_edge44_Node000001_Node000027"><a xlink:title=" ">
<path fill="none" stroke="#9a32cd" stroke-dasharray="5,2" d="M776.25,-113.63C844.91,-116.97 952.13,-126.9 1040.25,-156 1071.37,-166.28 1104.6,-185.27 1123.95,-197.24"/>
<polygon fill="#9a32cd" stroke="#9a32cd" points="776.82,-110.15 766.67,-113.2 776.5,-117.14 776.82,-110.15"/>
</a>
</g>
<text xml:space="preserve" text-anchor="start" x="817" y="-134.02" font-family="Helvetica,sans-Serif" font-size="10.00" fill="grey">_ClipRectStack</text>
</g>
<!-- Node28 -->
<g id="Node000028" class="node">
<title>Node28</title>
<g id="a_Node000028"><a xlink:href="structImVector.html" target="_top" xlink:title=" ">
<polygon fill="white" stroke="#666666" points="924,-87.38 782.75,-87.38 782.75,-66.62 924,-66.62 924,-87.38"/>
<text xml:space="preserve" text-anchor="middle" x="853.38" y="-73.88" font-family="Helvetica,sans-Serif" font-size="10.00">ImVector&lt; ImTextureID &gt;</text>
</a>
</g>
</g>
<!-- Node28&#45;&gt;Node1 -->
<g id="edge46_Node000001_Node000028" class="edge">
<title>Node28&#45;&gt;Node1</title>
<g id="a_edge46_Node000001_Node000028"><a xlink:title=" ">
<path fill="none" stroke="#9a32cd" stroke-dasharray="5,2" d="M935.74,-69.35C969.66,-69.49 1008.47,-74.19 1040.25,-90.25 1088.44,-114.61 1122.83,-173.31 1135.39,-197.4"/>
<polygon fill="#9a32cd" stroke="#9a32cd" points="935.92,-65.85 925.96,-69.45 935.99,-72.85 935.92,-65.85"/>
</a>
</g>
<text xml:space="preserve" text-anchor="start" x="952.5" y="-96.5" font-family="Helvetica,sans-Serif" font-size="10.00" fill="grey">_TextureIdStack</text>
</g>
<!-- Node29 -->
<g id="Node000029" class="node">
<title>Node29</title>
<g id="a_Node000029"><a xlink:href="structImVector.html" target="_top" xlink:title=" ">
<polygon fill="white" stroke="#666666" points="907.5,-48.38 799.25,-48.38 799.25,-27.62 907.5,-27.62 907.5,-48.38"/>
<text xml:space="preserve" text-anchor="middle" x="853.38" y="-34.88" font-family="Helvetica,sans-Serif" font-size="10.00">ImVector&lt; ImU8 &gt;</text>
</a>
</g>
</g>
<!-- Node29&#45;&gt;Node1 -->
<g id="edge47_Node000001_Node000029" class="edge">
<title>Node29&#45;&gt;Node1</title>
<g id="a_edge47_Node000001_Node000029"><a xlink:title=" ">
<path fill="none" stroke="#9a32cd" stroke-dasharray="5,2" d="M919.16,-26.57C956.95,-23.24 1004.13,-25.09 1040.25,-46.25 1099.85,-81.16 1129.04,-166.88 1137.74,-197.18"/>
<polygon fill="#9a32cd" stroke="#9a32cd" points="918.84,-23.09 909.26,-27.6 919.57,-30.05 918.84,-23.09"/>
</a>
</g>
<text xml:space="preserve" text-anchor="start" x="945" y="-52.5" font-family="Helvetica,sans-Serif" font-size="10.00" fill="grey">_CallbacksDataBuf</text>
</g>
</g>
</svg>
