<?xml version="1.0" encoding="UTF-8" standalone="no"?>
<!DOCTYPE svg PUBLIC "-//W3C//DTD SVG 1.1//EN"
 "http://www.w3.org/Graphics/SVG/1.1/DTD/svg11.dtd">
<!-- Generated by graphviz version 13.0.0 (0)
 -->
<!-- Title: ImFontConfig Pages: 1 -->
<svg width="1323pt" height="383pt"
 viewBox="0.00 0.00 1323.00 383.00" xmlns="http://www.w3.org/2000/svg" xmlns:xlink="http://www.w3.org/1999/xlink">
<g id="graph0" class="graph" transform="scale(1 1) rotate(0) translate(4 379.07)">
<title>ImFontConfig</title>
<!-- Node1 -->
<g id="Node000001" class="node">
<title>Node1</title>
<g id="a_Node000001"><a xlink:title=" ">
<polygon fill="#999999" stroke="#666666" points="290.38,-248.95 209.88,-248.95 209.88,-228.2 290.38,-228.2 290.38,-248.95"/>
<text xml:space="preserve" text-anchor="middle" x="250.12" y="-235.45" font-family="Helvetica,sans-Serif" font-size="10.00">ImFontConfig</text>
</a>
</g>
</g>
<!-- Node3 -->
<g id="Node000003" class="node">
<title>Node3</title>
<g id="a_Node000003"><a xlink:href="structImFont.html" target="_top" xlink:title=" ">
<polygon fill="white" stroke="#666666" points="489.75,-155.95 440,-155.95 440,-135.2 489.75,-135.2 489.75,-155.95"/>
<text xml:space="preserve" text-anchor="middle" x="464.88" y="-142.45" font-family="Helvetica,sans-Serif" font-size="10.00">ImFont</text>
</a>
</g>
</g>
<!-- Node1&#45;&gt;Node3 -->
<g id="edge20_Node000003_Node000001" class="edge">
<title>Node1&#45;&gt;Node3</title>
<g id="a_edge20_Node000003_Node000001"><a xlink:title=" ">
<path fill="none" stroke="#9a32cd" stroke-dasharray="5,2" d="M301.78,-227.49C348.36,-217.04 411.7,-202.03 422,-195.57 437.92,-185.59 450.8,-167.53 457.89,-156.06"/>
<polygon fill="#9a32cd" stroke="#9a32cd" points="301.12,-224.05 292.12,-229.65 302.64,-230.89 301.12,-224.05"/>
</a>
</g>
<text xml:space="preserve" text-anchor="start" x="362" y="-223.78" font-family="Helvetica,sans-Serif" font-size="10.00" fill="grey">Sources</text>
</g>
<!-- Node12 -->
<g id="Node000012" class="node">
<title>Node12</title>
<g id="a_Node000012"><a xlink:href="structImVector.html" target="_top" xlink:title=" ">
<polygon fill="white" stroke="#666666" points="654.25,-269.95 507.75,-269.95 507.75,-249.2 654.25,-249.2 654.25,-269.95"/>
<text xml:space="preserve" text-anchor="middle" x="581" y="-256.45" font-family="Helvetica,sans-Serif" font-size="10.00">ImVector&lt; ImFontConfig &gt;</text>
</a>
</g>
</g>
<!-- Node1&#45;&gt;Node12 -->
<g id="edge17_Node000012_Node000001" class="edge">
<title>Node1&#45;&gt;Node12</title>
<g id="a_edge17_Node000012_Node000001"><a xlink:title=" ">
<path fill="none" stroke="#9a32cd" stroke-dasharray="5,2" d="M302.01,-241.82C357.03,-245.33 445.18,-250.96 507.45,-254.94"/>
<polygon fill="#9a32cd" stroke="#9a32cd" points="302.51,-238.35 292.31,-241.2 302.06,-245.33 302.51,-238.35"/>
</a>
</g>
<text xml:space="preserve" text-anchor="start" x="369.5" y="-255.32" font-family="Helvetica,sans-Serif" font-size="10.00" fill="grey">Data</text>
</g>
<!-- Node2 -->
<g id="Node000002" class="node">
<title>Node2</title>
<g id="a_Node000002"><a xlink:href="structImVec2.html" target="_top" xlink:title=" ">
<polygon fill="white" stroke="#666666" points="65.12,-311.95 13.12,-311.95 13.12,-291.2 65.12,-291.2 65.12,-311.95"/>
<text xml:space="preserve" text-anchor="middle" x="39.12" y="-298.45" font-family="Helvetica,sans-Serif" font-size="10.00">ImVec2</text>
</a>
</g>
</g>
<!-- Node2&#45;&gt;Node1 -->
<g id="edge1_Node000001_Node000002" class="edge">
<title>Node2&#45;&gt;Node1</title>
<g id="a_edge1_Node000001_Node000002"><a xlink:title=" ">
<path fill="none" stroke="#9a32cd" stroke-dasharray="5,2" d="M64.71,-284.84C74.21,-279.02 85.4,-272.93 96.25,-268.82 133.32,-254.79 178.03,-246.91 209.49,-242.74"/>
<polygon fill="#9a32cd" stroke="#9a32cd" points="62.98,-281.79 56.43,-290.12 66.74,-287.69 62.98,-281.79"/>
</a>
</g>
<text xml:space="preserve" text-anchor="start" x="99.25" y="-275.07" font-family="Helvetica,sans-Serif" font-size="10.00" fill="grey">GlyphOffset</text>
</g>
<!-- Node8 -->
<g id="Node000008" class="node">
<title>Node8</title>
<g id="a_Node000008"><a xlink:href="structImFontAtlas.html" target="_top" xlink:title=" ">
<polygon fill="white" stroke="#666666" points="1315.25,-201.95 1240.75,-201.95 1240.75,-181.2 1315.25,-181.2 1315.25,-201.95"/>
<text xml:space="preserve" text-anchor="middle" x="1278" y="-188.45" font-family="Helvetica,sans-Serif" font-size="10.00">ImFontAtlas</text>
</a>
</g>
</g>
<!-- Node2&#45;&gt;Node8 -->
<g id="edge9_Node000008_Node000002" class="edge">
<title>Node2&#45;&gt;Node8</title>
<g id="a_edge9_Node000008_Node000002"><a xlink:title=" ">
<path fill="none" stroke="#9a32cd" stroke-dasharray="5,2" d="M76.49,-312.29C117.9,-323.53 187.77,-339.57 249.12,-339.57 249.12,-339.57 249.12,-339.57 1050.38,-339.57 1129.02,-339.57 1160.94,-348.2 1222.75,-299.57 1255.07,-274.14 1269.7,-224.34 1274.78,-202.4"/>
<polygon fill="#9a32cd" stroke="#9a32cd" points="77.62,-308.97 67.05,-309.67 75.75,-315.72 77.62,-308.97"/>
</a>
</g>
<text xml:space="preserve" text-anchor="start" x="540.12" y="-362.57" font-family="Helvetica,sans-Serif" font-size="10.00" fill="grey">TexUvScale</text>
<text xml:space="preserve" text-anchor="start" x="540.12" y="-345.82" font-family="Helvetica,sans-Serif" font-size="10.00" fill="grey">TexUvWhitePixel</text>
</g>
<!-- Node11 -->
<g id="Node000011" class="node">
<title>Node11</title>
<g id="a_Node000011"><a xlink:href="structImFontAtlasCustomRect.html" target="_top" xlink:title=" ">
<polygon fill="white" stroke="#666666" points="806,-293.95 672.25,-293.95 672.25,-273.2 806,-273.2 806,-293.95"/>
<text xml:space="preserve" text-anchor="middle" x="739.12" y="-280.45" font-family="Helvetica,sans-Serif" font-size="10.00">ImFontAtlasCustomRect</text>
</a>
</g>
</g>
<!-- Node2&#45;&gt;Node11 -->
<g id="edge14_Node000011_Node000002" class="edge">
<title>Node2&#45;&gt;Node11</title>
<g id="a_edge14_Node000011_Node000002"><a xlink:title=" ">
<path fill="none" stroke="#9a32cd" stroke-dasharray="5,2" d="M76.69,-300.63C188.59,-297.74 527.58,-289 671.92,-285.28"/>
<polygon fill="#9a32cd" stroke="#9a32cd" points="76.8,-297.13 66.89,-300.88 76.98,-304.12 76.8,-297.13"/>
</a>
</g>
<text xml:space="preserve" text-anchor="start" x="352.25" y="-300.07" font-family="Helvetica,sans-Serif" font-size="10.00" fill="grey">GlyphOffset</text>
</g>
<!-- Node3&#45;&gt;Node1 -->
<g id="edge2_Node000001_Node000003" class="edge">
<title>Node3&#45;&gt;Node1</title>
<g id="a_edge2_Node000001_Node000003"><a xlink:title=" ">
<path fill="none" stroke="#9a32cd" stroke-dasharray="5,2" d="M428.46,-153.05C397.75,-159.8 355.84,-169.73 340.25,-176.82 310.43,-190.38 279.98,-214.03 263.52,-227.8"/>
<polygon fill="#9a32cd" stroke="#9a32cd" points="429.1,-156.49 438.13,-150.95 427.62,-149.65 429.1,-156.49"/>
</a>
</g>
<text xml:space="preserve" text-anchor="start" x="362.38" y="-183.07" font-family="Helvetica,sans-Serif" font-size="10.00" fill="grey">DstFont</text>
</g>
<!-- Node9 -->
<g id="Node000009" class="node">
<title>Node9</title>
<g id="a_Node000009"><a xlink:href="structImVector.html" target="_top" xlink:title=" ">
<polygon fill="white" stroke="#666666" points="948,-197.95 824,-197.95 824,-177.2 948,-177.2 948,-197.95"/>
<text xml:space="preserve" text-anchor="middle" x="886" y="-184.45" font-family="Helvetica,sans-Serif" font-size="10.00">ImVector&lt; ImFont * &gt;</text>
</a>
</g>
</g>
<!-- Node3&#45;&gt;Node9 -->
<g id="edge11_Node000009_Node000003" class="edge">
<title>Node3&#45;&gt;Node9</title>
<g id="a_edge11_Node000009_Node000003"><a xlink:title=" ">
<path fill="none" stroke="#9a32cd" stroke-dasharray="5,2" d="M500.78,-157.95C503.12,-158.56 505.46,-159.11 507.75,-159.57 617.53,-181.64 748.42,-186.73 823.6,-187.67"/>
<polygon fill="#9a32cd" stroke="#9a32cd" points="501.99,-154.66 491.41,-155.19 500.01,-161.37 501.99,-154.66"/>
</a>
</g>
<text xml:space="preserve" text-anchor="start" x="569.38" y="-185.21" font-family="Helvetica,sans-Serif" font-size="10.00" fill="grey">Data</text>
</g>
<!-- Node3&#45;&gt;Node11 -->
<g id="edge15_Node000011_Node000003" class="edge">
<title>Node3&#45;&gt;Node11</title>
<g id="a_edge15_Node000011_Node000003"><a xlink:title=" ">
<path fill="none" stroke="#9a32cd" stroke-dasharray="5,2" d="M475.28,-166.2C482.32,-179.15 493.22,-194.97 507.75,-203.57 564.21,-237.01 593.3,-197.53 654.25,-221.82 683.81,-233.61 712.37,-258.37 727.33,-272.7"/>
<polygon fill="#9a32cd" stroke="#9a32cd" points="478.57,-164.95 470.97,-157.58 472.31,-168.09 478.57,-164.95"/>
</a>
</g>
<text xml:space="preserve" text-anchor="start" x="570.5" y="-228.07" font-family="Helvetica,sans-Serif" font-size="10.00" fill="grey">Font</text>
</g>
<!-- Node4 -->
<g id="Node000004" class="node">
<title>Node4</title>
<g id="a_Node000004"><a xlink:href="structImVector.html" target="_top" xlink:title=" ">
<polygon fill="white" stroke="#666666" points="302,-24.95 198.25,-24.95 198.25,-4.2 302,-4.2 302,-24.95"/>
<text xml:space="preserve" text-anchor="middle" x="250.12" y="-11.45" font-family="Helvetica,sans-Serif" font-size="10.00">ImVector&lt; float &gt;</text>
</a>
</g>
</g>
<!-- Node4&#45;&gt;Node3 -->
<g id="edge3_Node000003_Node000004" class="edge">
<title>Node4&#45;&gt;Node3</title>
<g id="a_edge3_Node000003_Node000004"><a xlink:title=" ">
<path fill="none" stroke="#9a32cd" stroke-dasharray="5,2" d="M308.53,-2.15C344.57,2.25 390.09,1.19 422,-22.82 458.16,-50.04 463.35,-110.19 463.91,-134.78"/>
<polygon fill="#9a32cd" stroke="#9a32cd" points="308.11,1.33 298.69,-3.53 309.08,-5.6 308.11,1.33"/>
</a>
</g>
<text xml:space="preserve" text-anchor="start" x="343.25" y="-29.07" font-family="Helvetica,sans-Serif" font-size="10.00" fill="grey">IndexAdvanceX</text>
</g>
<!-- Node5 -->
<g id="Node000005" class="node">
<title>Node5</title>
<g id="a_Node000005"><a xlink:href="structImVector.html" target="_top" xlink:title=" ">
<polygon fill="white" stroke="#666666" points="307.25,-64.95 193,-64.95 193,-44.2 307.25,-44.2 307.25,-64.95"/>
<text xml:space="preserve" text-anchor="middle" x="250.12" y="-51.45" font-family="Helvetica,sans-Serif" font-size="10.00">ImVector&lt; ImU16 &gt;</text>
</a>
</g>
</g>
<!-- Node5&#45;&gt;Node3 -->
<g id="edge4_Node000003_Node000005" class="edge">
<title>Node5&#45;&gt;Node3</title>
<g id="a_edge4_Node000003_Node000005"><a xlink:title=" ">
<path fill="none" stroke="#9a32cd" stroke-dasharray="5,2" d="M318.52,-45.35C352.11,-44.16 391.87,-48.21 422,-67.82 445.9,-83.38 457.18,-117.37 461.56,-134.8"/>
<polygon fill="#9a32cd" stroke="#9a32cd" points="318.71,-41.83 308.91,-45.86 319.08,-48.82 318.71,-41.83"/>
</a>
</g>
<text xml:space="preserve" text-anchor="start" x="350.38" y="-74.07" font-family="Helvetica,sans-Serif" font-size="10.00" fill="grey">IndexLookup</text>
</g>
<!-- Node6 -->
<g id="Node000006" class="node">
<title>Node6</title>
<g id="a_Node000006"><a xlink:href="structImVector.html" target="_top" xlink:title=" ">
<polygon fill="white" stroke="#666666" points="322.25,-157.95 178,-157.95 178,-137.2 322.25,-137.2 322.25,-157.95"/>
<text xml:space="preserve" text-anchor="middle" x="250.12" y="-144.45" font-family="Helvetica,sans-Serif" font-size="10.00">ImVector&lt; ImFontGlyph &gt;</text>
</a>
</g>
</g>
<!-- Node6&#45;&gt;Node3 -->
<g id="edge5_Node000003_Node000006" class="edge">
<title>Node6&#45;&gt;Node3</title>
<g id="a_edge5_Node000003_Node000006"><a xlink:title=" ">
<path fill="none" stroke="#9a32cd" stroke-dasharray="5,2" d="M326.56,-135.46C356.36,-132.36 390.86,-130.89 422,-134.82 427.81,-135.56 433.96,-136.84 439.72,-138.27"/>
<polygon fill="#9a32cd" stroke="#9a32cd" points="326.43,-131.95 316.89,-136.55 327.22,-138.91 326.43,-131.95"/>
</a>
</g>
<text xml:space="preserve" text-anchor="start" x="364.25" y="-141.07" font-family="Helvetica,sans-Serif" font-size="10.00" fill="grey">Glyphs</text>
</g>
<!-- Node7 -->
<g id="Node000007" class="node">
<title>Node7</title>
<g id="a_Node000007"><a xlink:href="structImFontGlyph.html" target="_top" xlink:title=" ">
<polygon fill="white" stroke="#666666" points="78.25,-134.95 0,-134.95 0,-114.2 78.25,-114.2 78.25,-134.95"/>
<text xml:space="preserve" text-anchor="middle" x="39.12" y="-121.45" font-family="Helvetica,sans-Serif" font-size="10.00">ImFontGlyph</text>
</a>
</g>
</g>
<!-- Node7&#45;&gt;Node3 -->
<g id="edge7_Node000003_Node000007" class="edge">
<title>Node7&#45;&gt;Node3</title>
<g id="a_edge7_Node000003_Node000007"><a xlink:title=" ">
<path fill="none" stroke="#9a32cd" stroke-dasharray="5,2" d="M89.62,-117.65C146.02,-110.77 240.93,-102.25 322.25,-109.82 367.17,-114.01 378.72,-115.86 422,-128.57 427.87,-130.3 434.05,-132.55 439.81,-134.85"/>
<polygon fill="#9a32cd" stroke="#9a32cd" points="89.52,-114.14 80.03,-118.85 90.39,-121.08 89.52,-114.14"/>
</a>
</g>
<text xml:space="preserve" text-anchor="start" x="216" y="-116.07" font-family="Helvetica,sans-Serif" font-size="10.00" fill="grey">FallbackGlyph</text>
</g>
<!-- Node7&#45;&gt;Node6 -->
<g id="edge6_Node000006_Node000007" class="edge">
<title>Node7&#45;&gt;Node6</title>
<g id="a_edge6_Node000006_Node000007"><a xlink:title=" ">
<path fill="none" stroke="#9a32cd" stroke-dasharray="5,2" d="M89.66,-130.02C115.92,-132.91 148.66,-136.52 177.63,-139.71"/>
<polygon fill="#9a32cd" stroke="#9a32cd" points="90.29,-126.57 79.96,-128.96 89.52,-133.53 90.29,-126.57"/>
</a>
</g>
<text xml:space="preserve" text-anchor="start" x="116.5" y="-143.7" font-family="Helvetica,sans-Serif" font-size="10.00" fill="grey">Data</text>
</g>
<!-- Node8&#45;&gt;Node3 -->
<g id="edge8_Node000003_Node000008" class="edge">
<title>Node8&#45;&gt;Node3</title>
<g id="a_edge8_Node000003_Node000008"><a xlink:title=" ">
<path fill="none" stroke="#9a32cd" stroke-dasharray="5,2" d="M1229.34,-183.74C1165.49,-173.65 1048.59,-156.62 948,-149.82 772.83,-137.98 561.05,-142.69 490.25,-144.78"/>
<polygon fill="#9a32cd" stroke="#9a32cd" points="1228.7,-187.18 1239.13,-185.3 1229.8,-180.27 1228.7,-187.18"/>
</a>
</g>
<text xml:space="preserve" text-anchor="start" x="850" y="-156.07" font-family="Helvetica,sans-Serif" font-size="10.00" fill="grey">ContainerAtlas</text>
</g>
<!-- Node9&#45;&gt;Node8 -->
<g id="edge10_Node000008_Node000009" class="edge">
<title>Node9&#45;&gt;Node8</title>
<g id="a_edge10_Node000008_Node000009"><a xlink:title=" ">
<path fill="none" stroke="#9a32cd" stroke-dasharray="5,2" d="M959.78,-188.32C1043.1,-189.17 1176.3,-190.54 1240.31,-191.2"/>
<polygon fill="#9a32cd" stroke="#9a32cd" points="959.92,-184.82 949.88,-188.22 959.84,-191.82 959.92,-184.82"/>
</a>
</g>
<text xml:space="preserve" text-anchor="start" x="1036.25" y="-196.33" font-family="Helvetica,sans-Serif" font-size="10.00" fill="grey">Fonts</text>
</g>
<!-- Node10 -->
<g id="Node000010" class="node">
<title>Node10</title>
<g id="a_Node000010"><a xlink:href="structImVector.html" target="_top" xlink:title=" ">
<polygon fill="white" stroke="#666666" points="1132.75,-300.32 966,-300.32 966,-266.82 1132.75,-266.82 1132.75,-300.32"/>
<text xml:space="preserve" text-anchor="start" x="974" y="-286.82" font-family="Helvetica,sans-Serif" font-size="10.00">ImVector&lt; ImFontAtlasCustom</text>
<text xml:space="preserve" text-anchor="middle" x="1049.38" y="-274.07" font-family="Helvetica,sans-Serif" font-size="10.00">Rect &gt;</text>
</a>
</g>
</g>
<!-- Node10&#45;&gt;Node8 -->
<g id="edge12_Node000008_Node000010" class="edge">
<title>Node10&#45;&gt;Node8</title>
<g id="a_edge12_Node000008_Node000010"><a xlink:title=" ">
<path fill="none" stroke="#9a32cd" stroke-dasharray="5,2" d="M1144.37,-278.14C1170.96,-273.63 1199.08,-265.84 1222.75,-252.57 1244.51,-240.38 1261.99,-216.12 1270.79,-202.15"/>
<polygon fill="#9a32cd" stroke="#9a32cd" points="1143.94,-274.67 1134.59,-279.65 1145,-281.58 1143.94,-274.67"/>
</a>
</g>
<text xml:space="preserve" text-anchor="start" x="1154.5" y="-283.21" font-family="Helvetica,sans-Serif" font-size="10.00" fill="grey">CustomRects</text>
</g>
<!-- Node11&#45;&gt;Node10 -->
<g id="edge13_Node000010_Node000011" class="edge">
<title>Node11&#45;&gt;Node10</title>
<g id="a_edge13_Node000010_Node000011"><a xlink:title=" ">
<path fill="none" stroke="#9a32cd" stroke-dasharray="5,2" d="M817.75,-283.57C862.84,-283.57 919.63,-283.57 965.57,-283.57"/>
<polygon fill="#9a32cd" stroke="#9a32cd" points="817.77,-280.07 807.77,-283.57 817.77,-287.07 817.77,-280.07"/>
</a>
</g>
<text xml:space="preserve" text-anchor="start" x="874.38" y="-289.82" font-family="Helvetica,sans-Serif" font-size="10.00" fill="grey">Data</text>
</g>
<!-- Node12&#45;&gt;Node8 -->
<g id="edge16_Node000008_Node000012" class="edge">
<title>Node12&#45;&gt;Node8</title>
<g id="a_edge16_Node000008_Node000012"><a xlink:title=" ">
<path fill="none" stroke="#9a32cd" stroke-dasharray="5,2" d="M666.08,-252.49C774.1,-243.37 967.41,-226.98 1132.75,-212.57 1172.76,-209.09 1183.12,-211.05 1222.75,-204.57 1228.49,-203.64 1234.51,-202.42 1240.38,-201.12"/>
<polygon fill="#9a32cd" stroke="#9a32cd" points="665.8,-249 656.13,-253.33 666.38,-255.98 665.8,-249"/>
</a>
</g>
<text xml:space="preserve" text-anchor="start" x="866.88" y="-245.12" font-family="Helvetica,sans-Serif" font-size="10.00" fill="grey">Sources</text>
</g>
<!-- Node13 -->
<g id="Node000013" class="node">
<title>Node13</title>
<g id="a_Node000013"><a xlink:href="structImVec4.html" target="_top" xlink:title=" ">
<polygon fill="white" stroke="#666666" points="1075.38,-117.95 1023.38,-117.95 1023.38,-97.2 1075.38,-97.2 1075.38,-117.95"/>
<text xml:space="preserve" text-anchor="middle" x="1049.38" y="-104.45" font-family="Helvetica,sans-Serif" font-size="10.00">ImVec4</text>
</a>
</g>
</g>
<!-- Node13&#45;&gt;Node8 -->
<g id="edge18_Node000008_Node000013" class="edge">
<title>Node13&#45;&gt;Node8</title>
<g id="a_edge18_Node000008_Node000013"><a xlink:title=" ">
<path fill="none" stroke="#9a32cd" stroke-dasharray="5,2" d="M1086.75,-99.63C1123.43,-93.61 1180.53,-89.81 1222.75,-112.82 1250.01,-127.68 1266.39,-162.85 1273.24,-180.73"/>
<polygon fill="#9a32cd" stroke="#9a32cd" points="1086.31,-96.15 1077.09,-101.37 1087.55,-103.04 1086.31,-96.15"/>
</a>
</g>
<text xml:space="preserve" text-anchor="start" x="1159" y="-119.07" font-family="Helvetica,sans-Serif" font-size="10.00" fill="grey">TexUvLines</text>
</g>
<!-- Node14 -->
<g id="Node000014" class="node">
<title>Node14</title>
<g id="a_Node000014"><a xlink:href="structImFontBuilderIO.html" target="_top" xlink:title=" ">
<polygon fill="white" stroke="#666666" points="1096.75,-77.95 1002,-77.95 1002,-57.2 1096.75,-57.2 1096.75,-77.95"/>
<text xml:space="preserve" text-anchor="middle" x="1049.38" y="-64.45" font-family="Helvetica,sans-Serif" font-size="10.00">ImFontBuilderIO</text>
</a>
</g>
</g>
<!-- Node14&#45;&gt;Node8 -->
<g id="edge19_Node000008_Node000014" class="edge">
<title>Node14&#45;&gt;Node8</title>
<g id="a_edge19_Node000008_Node000014"><a xlink:title=" ">
<path fill="none" stroke="#9a32cd" stroke-dasharray="5,2" d="M1106.65,-55.03C1142.75,-50.22 1188.99,-50.4 1222.75,-72.82 1260.7,-98.03 1272.5,-156.86 1275.82,-180.97"/>
<polygon fill="#9a32cd" stroke="#9a32cd" points="1106.18,-51.56 1096.82,-56.52 1107.23,-58.48 1106.18,-51.56"/>
</a>
</g>
<text xml:space="preserve" text-anchor="start" x="1153.75" y="-79.07" font-family="Helvetica,sans-Serif" font-size="10.00" fill="grey">FontBuilderIO</text>
</g>
</g>
</svg>
