<?xml version="1.0" encoding="UTF-8" standalone="no"?>
<!DOCTYPE svg PUBLIC "-//W3C//DTD SVG 1.1//EN"
 "http://www.w3.org/Graphics/SVG/1.1/DTD/svg11.dtd">
<!-- Generated by graphviz version 13.0.0 (0)
 -->
<!-- Title: STB_TexteditState Pages: 1 -->
<svg width="115pt" height="180pt"
 viewBox="0.00 0.00 115.00 180.00" xmlns="http://www.w3.org/2000/svg" xmlns:xlink="http://www.w3.org/1999/xlink">
<g id="graph0" class="graph" transform="scale(1 1) rotate(0) translate(4 175.75)">
<title>STB_TexteditState</title>
<!-- Node1 -->
<g id="Node000001" class="node">
<title>Node1</title>
<g id="a_Node000001"><a xlink:title=" ">
<polygon fill="#999999" stroke="#666666" points="104.5,-20.75 0,-20.75 0,0 104.5,0 104.5,-20.75"/>
<text xml:space="preserve" text-anchor="middle" x="52.25" y="-7.25" font-family="Helvetica,sans-Serif" font-size="10.00">STB_TexteditState</text>
</a>
</g>
</g>
<!-- Node2 -->
<g id="Node000002" class="node">
<title>Node2</title>
<g id="a_Node000002"><a xlink:href="structStbUndoState.html" target="_top" xlink:title=" ">
<polygon fill="white" stroke="#666666" points="93.62,-96.25 10.88,-96.25 10.88,-75.5 93.62,-75.5 93.62,-96.25"/>
<text xml:space="preserve" text-anchor="middle" x="52.25" y="-82.75" font-family="Helvetica,sans-Serif" font-size="10.00">StbUndoState</text>
</a>
</g>
</g>
<!-- Node2&#45;&gt;Node1 -->
<g id="edge1_Node000001_Node000002" class="edge">
<title>Node2&#45;&gt;Node1</title>
<g id="a_edge1_Node000001_Node000002"><a xlink:title=" ">
<path fill="none" stroke="#9a32cd" stroke-dasharray="5,2" d="M52.25,-63.76C52.25,-49.76 52.25,-32.05 52.25,-21.22"/>
<polygon fill="#9a32cd" stroke="#9a32cd" points="48.75,-63.75 52.25,-73.75 55.75,-63.75 48.75,-63.75"/>
</a>
</g>
<text xml:space="preserve" text-anchor="start" x="55.25" y="-45" font-family="Helvetica,sans-Serif" font-size="10.00" fill="grey">undostate</text>
</g>
<!-- Node3 -->
<g id="Node000003" class="node">
<title>Node3</title>
<g id="a_Node000003"><a xlink:href="structStbUndoRecord.html" target="_top" xlink:title=" ">
<polygon fill="white" stroke="#666666" points="97.75,-171.75 6.75,-171.75 6.75,-151 97.75,-151 97.75,-171.75"/>
<text xml:space="preserve" text-anchor="middle" x="52.25" y="-158.25" font-family="Helvetica,sans-Serif" font-size="10.00">StbUndoRecord</text>
</a>
</g>
</g>
<!-- Node3&#45;&gt;Node2 -->
<g id="edge2_Node000002_Node000003" class="edge">
<title>Node3&#45;&gt;Node2</title>
<g id="a_edge2_Node000002_Node000003"><a xlink:title=" ">
<path fill="none" stroke="#9a32cd" stroke-dasharray="5,2" d="M52.25,-139.26C52.25,-125.26 52.25,-107.55 52.25,-96.72"/>
<polygon fill="#9a32cd" stroke="#9a32cd" points="48.75,-139.25 52.25,-149.25 55.75,-139.25 48.75,-139.25"/>
</a>
</g>
<text xml:space="preserve" text-anchor="start" x="55.25" y="-120.5" font-family="Helvetica,sans-Serif" font-size="10.00" fill="grey">undo_rec</text>
</g>
</g>
</svg>
