<?xml version="1.0" encoding="UTF-8" standalone="no"?>
<!DOCTYPE svg PUBLIC "-//W3C//DTD SVG 1.1//EN"
 "http://www.w3.org/Graphics/SVG/1.1/DTD/svg11.dtd">
<!-- Generated by graphviz version 13.0.0 (0)
 -->
<!-- Title: ExampleTreeNode Pages: 1 -->
<svg width="204pt" height="180pt"
 viewBox="0.00 0.00 204.00 180.00" xmlns="http://www.w3.org/2000/svg" xmlns:xlink="http://www.w3.org/1999/xlink">
<g id="graph0" class="graph" transform="scale(1 1) rotate(0) translate(4 175.75)">
<title>ExampleTreeNode</title>
<!-- Node1 -->
<g id="Node000001" class="node">
<title>Node1</title>
<g id="a_Node000001"><a xlink:title=" ">
<polygon fill="#999999" stroke="#666666" points="141.62,-96.25 37.12,-96.25 37.12,-75.5 141.62,-75.5 141.62,-96.25"/>
<text xml:space="preserve" text-anchor="middle" x="89.38" y="-82.75" font-family="Helvetica,sans-Serif" font-size="10.00">ExampleTreeNode</text>
</a>
</g>
</g>
<!-- Node1&#45;&gt;Node1 -->
<g id="edge1_Node000001_Node000001" class="edge">
<title>Node1&#45;&gt;Node1</title>
<g id="a_edge1_Node000001_Node000001"><a xlink:title=" ">
<path fill="none" stroke="#9a32cd" stroke-dasharray="5,2" d="M153.15,-90.86C157.19,-89.69 159.62,-88.03 159.62,-85.88 159.62,-82.15 152.34,-79.9 142.07,-79.11"/>
<polygon fill="#9a32cd" stroke="#9a32cd" points="152.88,-87.36 143.56,-92.4 153.99,-94.27 152.88,-87.36"/>
</a>
</g>
<text xml:space="preserve" text-anchor="start" x="162.62" y="-82.75" font-family="Helvetica,sans-Serif" font-size="10.00" fill="grey">Parent</text>
</g>
<!-- Node2 -->
<g id="Node000002" class="node">
<title>Node2</title>
<g id="a_Node000002"><a xlink:href="structImVector.html" target="_top" xlink:title=" ">
<polygon fill="white" stroke="#666666" points="178.75,-20.75 0,-20.75 0,0 178.75,0 178.75,-20.75"/>
<text xml:space="preserve" text-anchor="middle" x="89.38" y="-7.25" font-family="Helvetica,sans-Serif" font-size="10.00">ImVector&lt; ExampleTreeNode * &gt;</text>
</a>
</g>
</g>
<!-- Node1&#45;&gt;Node2 -->
<g id="edge3_Node000002_Node000001" class="edge">
<title>Node1&#45;&gt;Node2</title>
<g id="a_edge3_Node000002_Node000001"><a xlink:title=" ">
<path fill="none" stroke="#9a32cd" stroke-dasharray="5,2" d="M66.41,-67.24C63.87,-64.27 61.65,-61.01 60.12,-57.5 56.81,-49.85 56.81,-46.4 60.12,-38.75 63.17,-31.73 69,-25.69 74.66,-21.08"/>
<polygon fill="#9a32cd" stroke="#9a32cd" points="63.93,-69.71 73.57,-74.12 68.78,-64.66 63.93,-69.71"/>
</a>
</g>
<text xml:space="preserve" text-anchor="start" x="63.12" y="-45" font-family="Helvetica,sans-Serif" font-size="10.00" fill="grey">Data</text>
</g>
<!-- Node2&#45;&gt;Node1 -->
<g id="edge2_Node000001_Node000002" class="edge">
<title>Node2&#45;&gt;Node1</title>
<g id="a_edge2_Node000001_Node000002"><a xlink:title=" ">
<path fill="none" stroke="#9a32cd" stroke-dasharray="5,2" d="M92.78,-32.57C93.02,-34.66 93.23,-36.74 93.38,-38.75 93.98,-47.06 93.98,-49.19 93.38,-57.5 92.95,-63.34 92.02,-69.84 91.17,-75.03"/>
<polygon fill="#9a32cd" stroke="#9a32cd" points="96.25,-32.13 91.38,-22.72 89.32,-33.11 96.25,-32.13"/>
</a>
</g>
<text xml:space="preserve" text-anchor="start" x="96.83" y="-45" font-family="Helvetica,sans-Serif" font-size="10.00" fill="grey">Childs</text>
</g>
<!-- Node3 -->
<g id="Node000003" class="node">
<title>Node3</title>
<g id="a_Node000003"><a xlink:href="structImVec2.html" target="_top" xlink:title=" ">
<polygon fill="white" stroke="#666666" points="115.38,-171.75 63.38,-171.75 63.38,-151 115.38,-151 115.38,-171.75"/>
<text xml:space="preserve" text-anchor="middle" x="89.38" y="-158.25" font-family="Helvetica,sans-Serif" font-size="10.00">ImVec2</text>
</a>
</g>
</g>
<!-- Node3&#45;&gt;Node1 -->
<g id="edge4_Node000001_Node000003" class="edge">
<title>Node3&#45;&gt;Node1</title>
<g id="a_edge4_Node000001_Node000003"><a xlink:title=" ">
<path fill="none" stroke="#9a32cd" stroke-dasharray="5,2" d="M89.38,-139.26C89.38,-125.26 89.38,-107.55 89.38,-96.72"/>
<polygon fill="#9a32cd" stroke="#9a32cd" points="85.88,-139.25 89.38,-149.25 92.88,-139.25 85.88,-139.25"/>
</a>
</g>
<text xml:space="preserve" text-anchor="start" x="92.38" y="-120.5" font-family="Helvetica,sans-Serif" font-size="10.00" fill="grey">DataMyVec2</text>
</g>
</g>
</svg>
