<?xml version="1.0" encoding="UTF-8" standalone="no"?>
<!DOCTYPE svg PUBLIC "-//W3C//DTD SVG 1.1//EN"
 "http://www.w3.org/Graphics/SVG/1.1/DTD/svg11.dtd">
<!-- Generated by graphviz version 13.0.0 (0)
 -->
<!-- Title: ImGuiMultiSelectIO Pages: 1 -->
<svg width="153pt" height="193pt"
 viewBox="0.00 0.00 153.00 193.00" xmlns="http://www.w3.org/2000/svg" xmlns:xlink="http://www.w3.org/1999/xlink">
<g id="graph0" class="graph" transform="scale(1 1) rotate(0) translate(4 188.5)">
<title>ImGuiMultiSelectIO</title>
<!-- Node1 -->
<g id="Node000001" class="node">
<title>Node1</title>
<g id="a_Node000001"><a xlink:title=" ">
<polygon fill="#999999" stroke="#666666" points="127.75,-20.75 17.25,-20.75 17.25,0 127.75,0 127.75,-20.75"/>
<text xml:space="preserve" text-anchor="middle" x="72.5" y="-7.25" font-family="Helvetica,sans-Serif" font-size="10.00">ImGuiMultiSelectIO</text>
</a>
</g>
</g>
<!-- Node2 -->
<g id="Node000002" class="node">
<title>Node2</title>
<g id="a_Node000002"><a xlink:href="structImVector.html" target="_top" xlink:title=" ">
<polygon fill="white" stroke="#666666" points="145,-109 0,-109 0,-75.5 145,-75.5 145,-109"/>
<text xml:space="preserve" text-anchor="start" x="8" y="-95.5" font-family="Helvetica,sans-Serif" font-size="10.00">ImVector&lt; ImGuiSelection</text>
<text xml:space="preserve" text-anchor="middle" x="72.5" y="-82.75" font-family="Helvetica,sans-Serif" font-size="10.00">Request &gt;</text>
</a>
</g>
</g>
<!-- Node2&#45;&gt;Node1 -->
<g id="edge1_Node000001_Node000002" class="edge">
<title>Node2&#45;&gt;Node1</title>
<g id="a_edge1_Node000001_Node000002"><a xlink:title=" ">
<path fill="none" stroke="#9a32cd" stroke-dasharray="5,2" d="M72.5,-63.9C72.5,-49.03 72.5,-31.57 72.5,-20.99"/>
<polygon fill="#9a32cd" stroke="#9a32cd" points="69,-63.57 72.5,-73.57 76,-63.57 69,-63.57"/>
</a>
</g>
<text xml:space="preserve" text-anchor="start" x="75.5" y="-45" font-family="Helvetica,sans-Serif" font-size="10.00" fill="grey">Requests</text>
</g>
<!-- Node3 -->
<g id="Node000003" class="node">
<title>Node3</title>
<g id="a_Node000003"><a xlink:href="structImGuiSelectionRequest.html" target="_top" xlink:title=" ">
<polygon fill="white" stroke="#666666" points="137.5,-184.5 7.5,-184.5 7.5,-163.75 137.5,-163.75 137.5,-184.5"/>
<text xml:space="preserve" text-anchor="middle" x="72.5" y="-171" font-family="Helvetica,sans-Serif" font-size="10.00">ImGuiSelectionRequest</text>
</a>
</g>
</g>
<!-- Node3&#45;&gt;Node2 -->
<g id="edge2_Node000002_Node000003" class="edge">
<title>Node3&#45;&gt;Node2</title>
<g id="a_edge2_Node000002_Node000003"><a xlink:title=" ">
<path fill="none" stroke="#9a32cd" stroke-dasharray="5,2" d="M72.5,-151.95C72.5,-138.64 72.5,-121.74 72.5,-109.5"/>
<polygon fill="#9a32cd" stroke="#9a32cd" points="69,-151.82 72.5,-161.82 76,-151.82 69,-151.82"/>
</a>
</g>
<text xml:space="preserve" text-anchor="start" x="75.5" y="-133.25" font-family="Helvetica,sans-Serif" font-size="10.00" fill="grey">Data</text>
</g>
</g>
</svg>
