<?xml version="1.0" encoding="UTF-8" standalone="no"?>
<!DOCTYPE svg PUBLIC "-//W3C//DTD SVG 1.1//EN"
 "http://www.w3.org/Graphics/SVG/1.1/DTD/svg11.dtd">
<!-- Generated by graphviz version 13.0.0 (0)
 -->
<!-- Title: stbrp_context Pages: 1 -->
<svg width="130pt" height="138pt"
 viewBox="0.00 0.00 130.00 138.00" xmlns="http://www.w3.org/2000/svg" xmlns:xlink="http://www.w3.org/1999/xlink">
<g id="graph0" class="graph" transform="scale(1 1) rotate(0) translate(4 133.75)">
<title>stbrp_context</title>
<!-- Node1 -->
<g id="Node000001" class="node">
<title>Node1</title>
<g id="a_Node000001"><a xlink:title=" ">
<polygon fill="#999999" stroke="#666666" points="82.75,-20.75 0,-20.75 0,0 82.75,0 82.75,-20.75"/>
<text xml:space="preserve" text-anchor="middle" x="41.38" y="-7.25" font-family="Helvetica,sans-Serif" font-size="10.00">stbrp_context</text>
</a>
</g>
</g>
<!-- Node2 -->
<g id="Node000002" class="node">
<title>Node2</title>
<g id="a_Node000002"><a xlink:href="structstbrp__node.html" target="_top" xlink:title=" ">
<polygon fill="white" stroke="#666666" points="76.38,-129.75 6.38,-129.75 6.38,-109 76.38,-109 76.38,-129.75"/>
<text xml:space="preserve" text-anchor="middle" x="41.38" y="-116.25" font-family="Helvetica,sans-Serif" font-size="10.00">stbrp_node</text>
</a>
</g>
</g>
<!-- Node2&#45;&gt;Node1 -->
<g id="edge1_Node000001_Node000002" class="edge">
<title>Node2&#45;&gt;Node1</title>
<g id="a_edge1_Node000001_Node000002"><a xlink:title=" ">
<path fill="none" stroke="#9a32cd" stroke-dasharray="5,2" d="M41.38,-97.23C41.38,-74.22 41.38,-38.41 41.38,-21.23"/>
<polygon fill="#9a32cd" stroke="#9a32cd" points="37.88,-96.99 41.38,-106.99 44.88,-96.99 37.88,-96.99"/>
</a>
</g>
<text xml:space="preserve" text-anchor="start" x="44.38" y="-78.5" font-family="Helvetica,sans-Serif" font-size="10.00" fill="grey">active_head</text>
<text xml:space="preserve" text-anchor="start" x="44.38" y="-61.75" font-family="Helvetica,sans-Serif" font-size="10.00" fill="grey">extra</text>
<text xml:space="preserve" text-anchor="start" x="44.38" y="-45" font-family="Helvetica,sans-Serif" font-size="10.00" fill="grey">free_head</text>
</g>
<!-- Node2&#45;&gt;Node2 -->
<g id="edge2_Node000002_Node000002" class="edge">
<title>Node2&#45;&gt;Node2</title>
<g id="a_edge2_Node000002_Node000002"><a xlink:title=" ">
<path fill="none" stroke="#9a32cd" stroke-dasharray="5,2" d="M87.65,-127.45C91.78,-125.76 94.38,-123.07 94.38,-119.38 94.38,-112.99 86.61,-109.6 76.54,-109.2"/>
<polygon fill="#9a32cd" stroke="#9a32cd" points="87.2,-123.97 78.03,-129.27 88.51,-130.85 87.2,-123.97"/>
</a>
</g>
<text xml:space="preserve" text-anchor="start" x="97.38" y="-116.25" font-family="Helvetica,sans-Serif" font-size="10.00" fill="grey">next</text>
</g>
</g>
</svg>
