<?xml version="1.0" encoding="UTF-8" standalone="no"?>
<!DOCTYPE svg PUBLIC "-//W3C//DTD SVG 1.1//EN"
 "http://www.w3.org/Graphics/SVG/1.1/DTD/svg11.dtd">
<!-- Generated by graphviz version 13.0.0 (0)
 -->
<!-- Title: ImFontAtlasCustomRect Pages: 1 -->
<svg width="1420pt" height="345pt"
 viewBox="0.00 0.00 1420.00 345.00" xmlns="http://www.w3.org/2000/svg" xmlns:xlink="http://www.w3.org/1999/xlink">
<g id="graph0" class="graph" transform="scale(1 1) rotate(0) translate(4 341.12)">
<title>ImFontAtlasCustomRect</title>
<!-- Node1 -->
<g id="Node000001" class="node">
<title>Node1</title>
<g id="a_Node000001"><a xlink:title=" ">
<polygon fill="#999999" stroke="#666666" points="285.5,-227.75 151.75,-227.75 151.75,-207 285.5,-207 285.5,-227.75"/>
<text xml:space="preserve" text-anchor="middle" x="218.62" y="-214.25" font-family="Helvetica,sans-Serif" font-size="10.00">ImFontAtlasCustomRect</text>
</a>
</g>
</g>
<!-- Node10 -->
<g id="Node000010" class="node">
<title>Node10</title>
<g id="a_Node000010"><a xlink:href="structImVector.html" target="_top" xlink:title=" ">
<polygon fill="white" stroke="#666666" points="576,-160.12 409.25,-160.12 409.25,-126.62 576,-126.62 576,-160.12"/>
<text xml:space="preserve" text-anchor="start" x="417.25" y="-146.62" font-family="Helvetica,sans-Serif" font-size="10.00">ImVector&lt; ImFontAtlasCustom</text>
<text xml:space="preserve" text-anchor="middle" x="492.62" y="-133.88" font-family="Helvetica,sans-Serif" font-size="10.00">Rect &gt;</text>
</a>
</g>
</g>
<!-- Node1&#45;&gt;Node10 -->
<g id="edge13_Node000010_Node000001" class="edge">
<title>Node1&#45;&gt;Node10</title>
<g id="a_edge13_Node000010_Node000001"><a xlink:title=" ">
<path fill="none" stroke="#9a32cd" stroke-dasharray="5,2" d="M270.37,-203.57C315.08,-191.41 380.39,-173.64 428.47,-160.56"/>
<polygon fill="#9a32cd" stroke="#9a32cd" points="269.66,-200.14 260.93,-206.14 271.5,-206.89 269.66,-200.14"/>
</a>
</g>
<text xml:space="preserve" text-anchor="start" x="335.75" y="-199.69" font-family="Helvetica,sans-Serif" font-size="10.00" fill="grey">Data</text>
</g>
<!-- Node2 -->
<g id="Node000002" class="node">
<title>Node2</title>
<g id="a_Node000002"><a xlink:href="structImVec2.html" target="_top" xlink:title=" ">
<polygon fill="white" stroke="#666666" points="52,-227.75 0,-227.75 0,-207 52,-207 52,-227.75"/>
<text xml:space="preserve" text-anchor="middle" x="26" y="-214.25" font-family="Helvetica,sans-Serif" font-size="10.00">ImVec2</text>
</a>
</g>
</g>
<!-- Node2&#45;&gt;Node1 -->
<g id="edge1_Node000001_Node000002" class="edge">
<title>Node2&#45;&gt;Node1</title>
<g id="a_edge1_Node000001_Node000002"><a xlink:title=" ">
<path fill="none" stroke="#9a32cd" stroke-dasharray="5,2" d="M63.76,-217.38C88.61,-217.38 122.13,-217.38 151.54,-217.38"/>
<polygon fill="#9a32cd" stroke="#9a32cd" points="63.83,-213.88 53.83,-217.38 63.83,-220.88 63.83,-213.88"/>
</a>
</g>
<text xml:space="preserve" text-anchor="start" x="73" y="-223.62" font-family="Helvetica,sans-Serif" font-size="10.00" fill="grey">GlyphOffset</text>
</g>
<!-- Node8 -->
<g id="Node000008" class="node">
<title>Node8</title>
<g id="a_Node000008"><a xlink:href="structImFontAtlas.html" target="_top" xlink:title=" ">
<polygon fill="white" stroke="#666666" points="793.38,-58.75 718.88,-58.75 718.88,-38 793.38,-38 793.38,-58.75"/>
<text xml:space="preserve" text-anchor="middle" x="756.12" y="-45.25" font-family="Helvetica,sans-Serif" font-size="10.00">ImFontAtlas</text>
</a>
</g>
</g>
<!-- Node2&#45;&gt;Node8 -->
<g id="edge9_Node000008_Node000002" class="edge">
<title>Node2&#45;&gt;Node8</title>
<g id="a_edge9_Node000008_Node000002"><a xlink:title=" ">
<path fill="none" stroke="#9a32cd" stroke-dasharray="5,2" d="M57.5,-201.49C120.95,-169.35 272.62,-97.13 409.25,-67.38 519.87,-43.29 654.83,-44.35 718.52,-46.6"/>
<polygon fill="#9a32cd" stroke="#9a32cd" points="56.06,-198.3 48.75,-205.96 59.24,-204.53 56.06,-198.3"/>
</a>
</g>
<text xml:space="preserve" text-anchor="start" x="306.5" y="-119.5" font-family="Helvetica,sans-Serif" font-size="10.00" fill="grey">TexUvScale</text>
<text xml:space="preserve" text-anchor="start" x="306.5" y="-102.75" font-family="Helvetica,sans-Serif" font-size="10.00" fill="grey">TexUvWhitePixel</text>
</g>
<!-- Node12 -->
<g id="Node000012" class="node">
<title>Node12</title>
<g id="a_Node000012"><a xlink:href="structImFontConfig.html" target="_top" xlink:title=" ">
<polygon fill="white" stroke="#666666" points="1178.25,-179.75 1097.75,-179.75 1097.75,-159 1178.25,-159 1178.25,-179.75"/>
<text xml:space="preserve" text-anchor="middle" x="1138" y="-166.25" font-family="Helvetica,sans-Serif" font-size="10.00">ImFontConfig</text>
</a>
</g>
</g>
<!-- Node2&#45;&gt;Node12 -->
<g id="edge16_Node000012_Node000002" class="edge">
<title>Node2&#45;&gt;Node12</title>
<g id="a_edge16_Node000012_Node000002"><a xlink:title=" ">
<path fill="none" stroke="#9a32cd" stroke-dasharray="5,2" d="M46.09,-235.68C78.55,-264.79 147.79,-318.38 217.62,-318.38 217.62,-318.38 217.62,-318.38 971.88,-318.38 1054.51,-318.38 1114.38,-214.26 1131.8,-180.09"/>
<polygon fill="#9a32cd" stroke="#9a32cd" points="48.79,-233.4 39.06,-229.21 44.05,-238.55 48.79,-233.4"/>
</a>
</g>
<text xml:space="preserve" text-anchor="start" x="601.12" y="-324.62" font-family="Helvetica,sans-Serif" font-size="10.00" fill="grey">GlyphOffset</text>
</g>
<!-- Node3 -->
<g id="Node000003" class="node">
<title>Node3</title>
<g id="a_Node000003"><a xlink:href="structImFont.html" target="_top" xlink:title=" ">
<polygon fill="white" stroke="#666666" points="995.75,-167.75 946,-167.75 946,-147 995.75,-147 995.75,-167.75"/>
<text xml:space="preserve" text-anchor="middle" x="970.88" y="-154.25" font-family="Helvetica,sans-Serif" font-size="10.00">ImFont</text>
</a>
</g>
</g>
<!-- Node3&#45;&gt;Node1 -->
<g id="edge2_Node000001_Node000003" class="edge">
<title>Node3&#45;&gt;Node1</title>
<g id="a_edge2_Node000001_Node000003"><a xlink:title=" ">
<path fill="none" stroke="#9a32cd" stroke-dasharray="5,2" d="M959.21,-178.17C952.03,-189.93 941.43,-203.76 928,-211.38 889.15,-233.39 872.82,-220.7 828.25,-223.38 631.27,-235.18 397.79,-226.57 285.9,-221.05"/>
<polygon fill="#9a32cd" stroke="#9a32cd" points="962.22,-179.95 964.07,-169.52 956.12,-176.52 962.22,-179.95"/>
</a>
</g>
<text xml:space="preserve" text-anchor="start" x="619.5" y="-235.54" font-family="Helvetica,sans-Serif" font-size="10.00" fill="grey">Font</text>
</g>
<!-- Node9 -->
<g id="Node000009" class="node">
<title>Node9</title>
<g id="a_Node000009"><a xlink:href="structImVector.html" target="_top" xlink:title=" ">
<polygon fill="white" stroke="#666666" points="1200,-83.75 1076,-83.75 1076,-63 1200,-63 1200,-83.75"/>
<text xml:space="preserve" text-anchor="middle" x="1138" y="-70.25" font-family="Helvetica,sans-Serif" font-size="10.00">ImVector&lt; ImFont * &gt;</text>
</a>
</g>
</g>
<!-- Node3&#45;&gt;Node9 -->
<g id="edge11_Node000009_Node000003" class="edge">
<title>Node3&#45;&gt;Node9</title>
<g id="a_edge11_Node000009_Node000003"><a xlink:title=" ">
<path fill="none" stroke="#9a32cd" stroke-dasharray="5,2" d="M990.09,-138.87C997.06,-132.49 1005.37,-125.69 1013.75,-120.62 1040.43,-104.52 1073.55,-92.19 1098.73,-84.17"/>
<polygon fill="#9a32cd" stroke="#9a32cd" points="987.96,-136.07 983.15,-145.51 992.8,-141.13 987.96,-136.07"/>
</a>
</g>
<text xml:space="preserve" text-anchor="start" x="1024.25" y="-126.88" font-family="Helvetica,sans-Serif" font-size="10.00" fill="grey">Data</text>
</g>
<!-- Node3&#45;&gt;Node12 -->
<g id="edge17_Node000012_Node000003" class="edge">
<title>Node3&#45;&gt;Node12</title>
<g id="a_edge17_Node000012_Node000003"><a xlink:title=" ">
<path fill="none" stroke="#9a32cd" stroke-dasharray="5,2" d="M1007.11,-167.29C1009.34,-167.72 1011.57,-168.08 1013.75,-168.38 1041.54,-172.08 1073.16,-172.25 1097.42,-171.54"/>
<polygon fill="#9a32cd" stroke="#9a32cd" points="1008.03,-163.91 997.5,-165.14 1006.5,-170.74 1008.03,-163.91"/>
</a>
</g>
<text xml:space="preserve" text-anchor="start" x="1017.12" y="-177.88" font-family="Helvetica,sans-Serif" font-size="10.00" fill="grey">DstFont</text>
</g>
<!-- Node4 -->
<g id="Node000004" class="node">
<title>Node4</title>
<g id="a_Node000004"><a xlink:href="structImVector.html" target="_top" xlink:title=" ">
<polygon fill="white" stroke="#666666" points="808,-121.75 704.25,-121.75 704.25,-101 808,-101 808,-121.75"/>
<text xml:space="preserve" text-anchor="middle" x="756.12" y="-108.25" font-family="Helvetica,sans-Serif" font-size="10.00">ImVector&lt; float &gt;</text>
</a>
</g>
</g>
<!-- Node4&#45;&gt;Node3 -->
<g id="edge3_Node000003_Node000004" class="edge">
<title>Node4&#45;&gt;Node3</title>
<g id="a_edge3_Node000003_Node000004"><a xlink:title=" ">
<path fill="none" stroke="#9a32cd" stroke-dasharray="5,2" d="M819.58,-107.65C852.81,-107.77 893.76,-111.32 928,-124.62 940.39,-129.44 952.09,-139.2 959.96,-146.82"/>
<polygon fill="#9a32cd" stroke="#9a32cd" points="819.66,-104.15 809.69,-107.74 819.72,-111.15 819.66,-104.15"/>
</a>
</g>
<text xml:space="preserve" text-anchor="start" x="849.25" y="-130.88" font-family="Helvetica,sans-Serif" font-size="10.00" fill="grey">IndexAdvanceX</text>
</g>
<!-- Node5 -->
<g id="Node000005" class="node">
<title>Node5</title>
<g id="a_Node000005"><a xlink:href="structImVector.html" target="_top" xlink:title=" ">
<polygon fill="white" stroke="#666666" points="813.25,-290.75 699,-290.75 699,-270 813.25,-270 813.25,-290.75"/>
<text xml:space="preserve" text-anchor="middle" x="756.12" y="-277.25" font-family="Helvetica,sans-Serif" font-size="10.00">ImVector&lt; ImU16 &gt;</text>
</a>
</g>
</g>
<!-- Node5&#45;&gt;Node3 -->
<g id="edge4_Node000003_Node000005" class="edge">
<title>Node5&#45;&gt;Node3</title>
<g id="a_edge4_Node000003_Node000005"><a xlink:title=" ">
<path fill="none" stroke="#9a32cd" stroke-dasharray="5,2" d="M824.96,-285.83C859.02,-285.11 899.08,-278.59 928,-256.38 956.71,-234.32 965.95,-188.84 968.75,-168.1"/>
<polygon fill="#9a32cd" stroke="#9a32cd" points="825.17,-282.33 815.18,-285.86 825.19,-289.33 825.17,-282.33"/>
</a>
</g>
<text xml:space="preserve" text-anchor="start" x="856.38" y="-290.38" font-family="Helvetica,sans-Serif" font-size="10.00" fill="grey">IndexLookup</text>
</g>
<!-- Node6 -->
<g id="Node000006" class="node">
<title>Node6</title>
<g id="a_Node000006"><a xlink:href="structImVector.html" target="_top" xlink:title=" ">
<polygon fill="white" stroke="#666666" points="828.25,-214.75 684,-214.75 684,-194 828.25,-194 828.25,-214.75"/>
<text xml:space="preserve" text-anchor="middle" x="756.12" y="-201.25" font-family="Helvetica,sans-Serif" font-size="10.00">ImVector&lt; ImFontGlyph &gt;</text>
</a>
</g>
</g>
<!-- Node6&#45;&gt;Node3 -->
<g id="edge5_Node000003_Node000006" class="edge">
<title>Node6&#45;&gt;Node3</title>
<g id="a_edge5_Node000003_Node000006"><a xlink:title=" ">
<path fill="none" stroke="#9a32cd" stroke-dasharray="5,2" d="M835.14,-191.55C864.45,-186.14 897.94,-179.27 928,-171.38 933.78,-169.86 939.93,-167.96 945.68,-166.07"/>
<polygon fill="#9a32cd" stroke="#9a32cd" points="834.83,-188.05 825.62,-193.28 836.08,-194.93 834.83,-188.05"/>
</a>
</g>
<text xml:space="preserve" text-anchor="start" x="870.25" y="-195.2" font-family="Helvetica,sans-Serif" font-size="10.00" fill="grey">Glyphs</text>
</g>
<!-- Node7 -->
<g id="Node000007" class="node">
<title>Node7</title>
<g id="a_Node000007"><a xlink:href="structImFontGlyph.html" target="_top" xlink:title=" ">
<polygon fill="white" stroke="#666666" points="531.75,-204.75 453.5,-204.75 453.5,-184 531.75,-184 531.75,-204.75"/>
<text xml:space="preserve" text-anchor="middle" x="492.62" y="-191.25" font-family="Helvetica,sans-Serif" font-size="10.00">ImFontGlyph</text>
</a>
</g>
</g>
<!-- Node7&#45;&gt;Node3 -->
<g id="edge7_Node000003_Node000007" class="edge">
<title>Node7&#45;&gt;Node3</title>
<g id="a_edge7_Node000003_Node000007"><a xlink:title=" ">
<path fill="none" stroke="#9a32cd" stroke-dasharray="5,2" d="M543.47,-185.54C581.77,-179.14 636.06,-170.88 684,-166.62 780.7,-158.04 896.43,-157.17 945.72,-157.24"/>
<polygon fill="#9a32cd" stroke="#9a32cd" points="542.89,-182.09 533.62,-187.21 544.06,-188.99 542.89,-182.09"/>
</a>
</g>
<text xml:space="preserve" text-anchor="start" x="722" y="-172.88" font-family="Helvetica,sans-Serif" font-size="10.00" fill="grey">FallbackGlyph</text>
</g>
<!-- Node7&#45;&gt;Node6 -->
<g id="edge6_Node000006_Node000007" class="edge">
<title>Node7&#45;&gt;Node6</title>
<g id="a_edge6_Node000006_Node000007"><a xlink:title=" ">
<path fill="none" stroke="#9a32cd" stroke-dasharray="5,2" d="M543.7,-196.29C583.33,-197.81 639.19,-199.94 683.54,-201.64"/>
<polygon fill="#9a32cd" stroke="#9a32cd" points="543.85,-192.79 533.72,-195.91 543.58,-199.79 543.85,-192.79"/>
</a>
</g>
<text xml:space="preserve" text-anchor="start" x="618.38" y="-207.1" font-family="Helvetica,sans-Serif" font-size="10.00" fill="grey">Data</text>
</g>
<!-- Node8&#45;&gt;Node3 -->
<g id="edge8_Node000003_Node000008" class="edge">
<title>Node8&#45;&gt;Node3</title>
<g id="a_edge8_Node000003_Node000008"><a xlink:title=" ">
<path fill="none" stroke="#9a32cd" stroke-dasharray="5,2" d="M805.02,-54.44C848.49,-60.72 908.67,-71.57 928,-85.62 949.23,-101.06 961.44,-130.81 966.72,-146.72"/>
<polygon fill="#9a32cd" stroke="#9a32cd" points="805.69,-51 795.3,-53.08 804.72,-57.93 805.69,-51"/>
</a>
</g>
<text xml:space="preserve" text-anchor="start" x="851.12" y="-91.88" font-family="Helvetica,sans-Serif" font-size="10.00" fill="grey">ContainerAtlas</text>
</g>
<!-- Node9&#45;&gt;Node8 -->
<g id="edge10_Node000008_Node000009" class="edge">
<title>Node9&#45;&gt;Node8</title>
<g id="a_edge10_Node000008_Node000009"><a xlink:title=" ">
<path fill="none" stroke="#9a32cd" stroke-dasharray="5,2" d="M1064.71,-68.62C983.77,-63.29 855.8,-54.87 793.55,-50.77"/>
<polygon fill="#9a32cd" stroke="#9a32cd" points="1064.09,-72.08 1074.3,-69.25 1064.55,-65.1 1064.09,-72.08"/>
</a>
</g>
<text xml:space="preserve" text-anchor="start" x="957.75" y="-70.02" font-family="Helvetica,sans-Serif" font-size="10.00" fill="grey">Fonts</text>
</g>
<!-- Node10&#45;&gt;Node8 -->
<g id="edge12_Node000008_Node000010" class="edge">
<title>Node10&#45;&gt;Node8</title>
<g id="a_edge12_Node000008_Node000010"><a xlink:title=" ">
<path fill="none" stroke="#9a32cd" stroke-dasharray="5,2" d="M574.78,-123.17C603.94,-115.04 636.82,-104.86 666,-93.38 691.16,-83.47 718.75,-68.93 736.47,-59.08"/>
<polygon fill="#9a32cd" stroke="#9a32cd" points="573.98,-119.76 565.26,-125.78 575.83,-126.51 573.98,-119.76"/>
</a>
</g>
<text xml:space="preserve" text-anchor="start" x="597.75" y="-123.31" font-family="Helvetica,sans-Serif" font-size="10.00" fill="grey">CustomRects</text>
</g>
<!-- Node11 -->
<g id="Node000011" class="node">
<title>Node11</title>
<g id="a_Node000011"><a xlink:href="structImVector.html" target="_top" xlink:title=" ">
<polygon fill="white" stroke="#666666" points="1411.75,-28.75 1265.25,-28.75 1265.25,-8 1411.75,-8 1411.75,-28.75"/>
<text xml:space="preserve" text-anchor="middle" x="1338.5" y="-15.25" font-family="Helvetica,sans-Serif" font-size="10.00">ImVector&lt; ImFontConfig &gt;</text>
</a>
</g>
</g>
<!-- Node11&#45;&gt;Node8 -->
<g id="edge14_Node000008_Node000011" class="edge">
<title>Node11&#45;&gt;Node8</title>
<g id="a_edge14_Node000008_Node000011"><a xlink:title=" ">
<path fill="none" stroke="#9a32cd" stroke-dasharray="5,2" d="M1253.83,-22.7C1125.52,-29.33 885.42,-41.74 793.87,-46.48"/>
<polygon fill="#9a32cd" stroke="#9a32cd" points="1253.81,-26.21 1263.62,-22.19 1253.45,-19.21 1253.81,-26.21"/>
</a>
</g>
<text xml:space="preserve" text-anchor="start" x="1016.75" y="-41.35" font-family="Helvetica,sans-Serif" font-size="10.00" fill="grey">Sources</text>
</g>
<!-- Node12&#45;&gt;Node3 -->
<g id="edge20_Node000003_Node000012" class="edge">
<title>Node12&#45;&gt;Node3</title>
<g id="a_edge20_Node000003_Node000012"><a xlink:title=" ">
<path fill="none" stroke="#9a32cd" stroke-dasharray="5,2" d="M1097.27,-154.97C1084.87,-151.14 1071.02,-147.54 1058,-145.62 1038.54,-142.76 1033.23,-142.94 1013.75,-145.62 1007.92,-146.43 1001.75,-147.83 995.99,-149.4"/>
<polygon fill="#9a32cd" stroke="#9a32cd" points="1096.17,-158.29 1106.76,-158.04 1098.32,-151.63 1096.17,-158.29"/>
</a>
</g>
<text xml:space="preserve" text-anchor="start" x="1016.75" y="-151.88" font-family="Helvetica,sans-Serif" font-size="10.00" fill="grey">Sources</text>
</g>
<!-- Node12&#45;&gt;Node11 -->
<g id="edge15_Node000011_Node000012" class="edge">
<title>Node12&#45;&gt;Node11</title>
<g id="a_edge15_Node000011_Node000012"><a xlink:title=" ">
<path fill="none" stroke="#9a32cd" stroke-dasharray="5,2" d="M1162.38,-151.59C1203.96,-119.96 1289.58,-54.83 1323.35,-29.14"/>
<polygon fill="#9a32cd" stroke="#9a32cd" points="1160.32,-148.76 1154.48,-157.6 1164.56,-154.33 1160.32,-148.76"/>
</a>
</g>
<text xml:space="preserve" text-anchor="start" x="1221" y="-113.65" font-family="Helvetica,sans-Serif" font-size="10.00" fill="grey">Data</text>
</g>
<!-- Node13 -->
<g id="Node000013" class="node">
<title>Node13</title>
<g id="a_Node000013"><a xlink:href="structImVec4.html" target="_top" xlink:title=" ">
<polygon fill="white" stroke="#666666" points="518.62,-96.75 466.62,-96.75 466.62,-76 518.62,-76 518.62,-96.75"/>
<text xml:space="preserve" text-anchor="middle" x="492.62" y="-83.25" font-family="Helvetica,sans-Serif" font-size="10.00">ImVec4</text>
</a>
</g>
</g>
<!-- Node13&#45;&gt;Node8 -->
<g id="edge18_Node000008_Node000013" class="edge">
<title>Node13&#45;&gt;Node8</title>
<g id="a_edge18_Node000008_Node000013"><a xlink:title=" ">
<path fill="none" stroke="#9a32cd" stroke-dasharray="5,2" d="M529.87,-81.11C579.61,-73.88 668.55,-60.96 718.5,-53.7"/>
<polygon fill="#9a32cd" stroke="#9a32cd" points="529.59,-77.61 520.2,-82.51 530.6,-84.54 529.59,-77.61"/>
</a>
</g>
<text xml:space="preserve" text-anchor="start" x="602.25" y="-77.03" font-family="Helvetica,sans-Serif" font-size="10.00" fill="grey">TexUvLines</text>
</g>
<!-- Node14 -->
<g id="Node000014" class="node">
<title>Node14</title>
<g id="a_Node000014"><a xlink:href="structImFontBuilderIO.html" target="_top" xlink:title=" ">
<polygon fill="white" stroke="#666666" points="540,-20.75 445.25,-20.75 445.25,0 540,0 540,-20.75"/>
<text xml:space="preserve" text-anchor="middle" x="492.62" y="-7.25" font-family="Helvetica,sans-Serif" font-size="10.00">ImFontBuilderIO</text>
</a>
</g>
</g>
<!-- Node14&#45;&gt;Node8 -->
<g id="edge19_Node000008_Node000014" class="edge">
<title>Node14&#45;&gt;Node8</title>
<g id="a_edge19_Node000008_Node000014"><a xlink:title=" ">
<path fill="none" stroke="#9a32cd" stroke-dasharray="5,2" d="M551.66,-7.53C585.34,-7.03 628.4,-8.34 666,-15.62 689.3,-20.14 714.59,-29.94 732.26,-37.65"/>
<polygon fill="#9a32cd" stroke="#9a32cd" points="551.6,-4.03 541.68,-7.75 551.75,-11.03 551.6,-4.03"/>
</a>
</g>
<text xml:space="preserve" text-anchor="start" x="597" y="-21.88" font-family="Helvetica,sans-Serif" font-size="10.00" fill="grey">FontBuilderIO</text>
</g>
</g>
</svg>
