<?xml version="1.0" encoding="UTF-8" standalone="no"?>
<!DOCTYPE svg PUBLIC "-//W3C//DTD SVG 1.1//EN"
 "http://www.w3.org/Graphics/SVG/1.1/DTD/svg11.dtd">
<!-- Generated by graphviz version 13.0.0 (0)
 -->
<!-- Title: ImDrawChannel Pages: 1 -->
<svg width="1707pt" height="973pt"
 viewBox="0.00 0.00 1707.00 973.00" xmlns="http://www.w3.org/2000/svg" xmlns:xlink="http://www.w3.org/1999/xlink">
<g id="graph0" class="graph" transform="scale(1 1) rotate(0) translate(4 968.8)">
<title>ImDrawChannel</title>
<!-- Node1 -->
<g id="Node000001" class="node">
<title>Node1</title>
<g id="a_Node000001"><a xlink:title=" ">
<polygon fill="#999999" stroke="#666666" points="378.12,-918.42 284.12,-918.42 284.12,-897.67 378.12,-897.67 378.12,-918.42"/>
<text xml:space="preserve" text-anchor="middle" x="331.12" y="-904.92" font-family="Helvetica,sans-Serif" font-size="10.00">ImDrawChannel</text>
</a>
</g>
</g>
<!-- Node26 -->
<g id="Node000026" class="node">
<title>Node26</title>
<g id="a_Node000026"><a xlink:href="structImVector.html" target="_top" xlink:title=" ">
<polygon fill="white" stroke="#666666" points="711.25,-918.42 551.25,-918.42 551.25,-897.67 711.25,-897.67 711.25,-918.42"/>
<text xml:space="preserve" text-anchor="middle" x="631.25" y="-904.92" font-family="Helvetica,sans-Serif" font-size="10.00">ImVector&lt; ImDrawChannel &gt;</text>
</a>
</g>
</g>
<!-- Node1&#45;&gt;Node26 -->
<g id="edge42_Node000026_Node000001" class="edge">
<title>Node1&#45;&gt;Node26</title>
<g id="a_edge42_Node000026_Node000001"><a xlink:title=" ">
<path fill="none" stroke="#9a32cd" stroke-dasharray="5,2" d="M389.89,-908.05C435.66,-908.05 500.12,-908.05 550.77,-908.05"/>
<polygon fill="#9a32cd" stroke="#9a32cd" points="389.89,-904.55 379.89,-908.05 389.89,-911.55 389.89,-904.55"/>
</a>
</g>
<text xml:space="preserve" text-anchor="start" x="465.62" y="-914.3" font-family="Helvetica,sans-Serif" font-size="10.00" fill="grey">Data</text>
</g>
<!-- Node2 -->
<g id="Node000002" class="node">
<title>Node2</title>
<g id="a_Node000002"><a xlink:href="structImVector.html" target="_top" xlink:title=" ">
<polygon fill="white" stroke="#666666" points="1698.75,-838.42 1556,-838.42 1556,-817.67 1698.75,-817.67 1698.75,-838.42"/>
<text xml:space="preserve" text-anchor="middle" x="1627.38" y="-824.92" font-family="Helvetica,sans-Serif" font-size="10.00">ImVector&lt; ImDrawCmd &gt;</text>
</a>
</g>
</g>
<!-- Node2&#45;&gt;Node1 -->
<g id="edge1_Node000001_Node000002" class="edge">
<title>Node2&#45;&gt;Node1</title>
<g id="a_edge1_Node000001_Node000002"><a xlink:title=" ">
<path fill="none" stroke="#9a32cd" stroke-dasharray="5,2" d="M1611.68,-847.41C1584.43,-880.89 1522.53,-946.05 1453.38,-946.05 630.25,-946.05 630.25,-946.05 630.25,-946.05 537.12,-946.05 513.16,-946.08 421.25,-931.05 403.43,-928.13 383.98,-923.31 367.8,-918.83"/>
<polygon fill="#9a32cd" stroke="#9a32cd" points="1614.31,-849.72 1617.77,-839.71 1608.82,-845.38 1614.31,-849.72"/>
</a>
</g>
<text xml:space="preserve" text-anchor="start" x="1045.12" y="-952.3" font-family="Helvetica,sans-Serif" font-size="10.00" fill="grey">_CmdBuffer</text>
</g>
<!-- Node5 -->
<g id="Node000005" class="node">
<title>Node5</title>
<g id="a_Node000005"><a xlink:href="structImDrawList.html" target="_top" xlink:title=" ">
<polygon fill="white" stroke="#666666" points="1259.88,-720.42 1188.38,-720.42 1188.38,-699.67 1259.88,-699.67 1259.88,-720.42"/>
<text xml:space="preserve" text-anchor="middle" x="1224.12" y="-706.92" font-family="Helvetica,sans-Serif" font-size="10.00">ImDrawList</text>
</a>
</g>
</g>
<!-- Node2&#45;&gt;Node5 -->
<g id="edge5_Node000005_Node000002" class="edge">
<title>Node2&#45;&gt;Node5</title>
<g id="a_edge5_Node000005_Node000002"><a xlink:title=" ">
<path fill="none" stroke="#9a32cd" stroke-dasharray="5,2" d="M1578.56,-813.98C1496.79,-789.94 1331.96,-741.47 1260.03,-720.31"/>
<polygon fill="#9a32cd" stroke="#9a32cd" points="1577.49,-817.32 1588.07,-816.78 1579.47,-810.6 1577.49,-817.32"/>
</a>
</g>
<text xml:space="preserve" text-anchor="start" x="1426.5" y="-792.76" font-family="Helvetica,sans-Serif" font-size="10.00" fill="grey">CmdBuffer</text>
</g>
<!-- Node3 -->
<g id="Node000003" class="node">
<title>Node3</title>
<g id="a_Node000003"><a xlink:href="structImDrawCmd.html" target="_top" xlink:title=" ">
<polygon fill="white" stroke="#666666" points="1490.75,-838.42 1414,-838.42 1414,-817.67 1490.75,-817.67 1490.75,-838.42"/>
<text xml:space="preserve" text-anchor="middle" x="1452.38" y="-824.92" font-family="Helvetica,sans-Serif" font-size="10.00">ImDrawCmd</text>
</a>
</g>
</g>
<!-- Node3&#45;&gt;Node2 -->
<g id="edge2_Node000002_Node000003" class="edge">
<title>Node3&#45;&gt;Node2</title>
<g id="a_edge2_Node000002_Node000003"><a xlink:title=" ">
<path fill="none" stroke="#9a32cd" stroke-dasharray="5,2" d="M1502.04,-828.05C1518.72,-828.05 1537.73,-828.05 1555.79,-828.05"/>
<polygon fill="#9a32cd" stroke="#9a32cd" points="1502.43,-824.55 1492.43,-828.05 1502.43,-831.55 1502.43,-824.55"/>
</a>
</g>
<text xml:space="preserve" text-anchor="start" x="1511.75" y="-834.3" font-family="Helvetica,sans-Serif" font-size="10.00" fill="grey">Data</text>
</g>
<!-- Node4 -->
<g id="Node000004" class="node">
<title>Node4</title>
<g id="a_Node000004"><a xlink:href="structImVec4.html" target="_top" xlink:title=" ">
<polygon fill="white" stroke="#666666" points="93.62,-740.42 41.62,-740.42 41.62,-719.67 93.62,-719.67 93.62,-740.42"/>
<text xml:space="preserve" text-anchor="middle" x="67.62" y="-726.92" font-family="Helvetica,sans-Serif" font-size="10.00">ImVec4</text>
</a>
</g>
</g>
<!-- Node4&#45;&gt;Node3 -->
<g id="edge3_Node000003_Node000004" class="edge">
<title>Node4&#45;&gt;Node3</title>
<g id="a_edge3_Node000003_Node000004"><a xlink:title=" ">
<path fill="none" stroke="#9a32cd" stroke-dasharray="5,2" d="M92.64,-746.96C108.95,-757.52 131.43,-770.34 153.25,-777.05 176.48,-784.18 1000.23,-853.96 1024.5,-855.05 1068.12,-857 1079.12,-856.84 1122.75,-855.05 1228.56,-850.71 1353.06,-838.54 1413.98,-832.12"/>
<polygon fill="#9a32cd" stroke="#9a32cd" points="94.87,-744.24 84.61,-741.6 90.98,-750.06 94.87,-744.24"/>
</a>
</g>
<text xml:space="preserve" text-anchor="start" x="768" y="-846.61" font-family="Helvetica,sans-Serif" font-size="10.00" fill="grey">ClipRect</text>
</g>
<!-- Node10 -->
<g id="Node000010" class="node">
<title>Node10</title>
<g id="a_Node000010"><a xlink:href="structImDrawListSharedData.html" target="_top" xlink:title=" ">
<polygon fill="white" stroke="#666666" points="1000.12,-601.42 871.62,-601.42 871.62,-580.67 1000.12,-580.67 1000.12,-601.42"/>
<text xml:space="preserve" text-anchor="middle" x="935.88" y="-587.92" font-family="Helvetica,sans-Serif" font-size="10.00">ImDrawListSharedData</text>
</a>
</g>
</g>
<!-- Node4&#45;&gt;Node10 -->
<g id="edge12_Node000010_Node000004" class="edge">
<title>Node4&#45;&gt;Node10</title>
<g id="a_edge12_Node000010_Node000004"><a xlink:title=" ">
<path fill="none" stroke="#9a32cd" stroke-dasharray="5,2" d="M104.96,-724.28C166.55,-714.34 295.29,-692.83 403.25,-670.05 469.49,-656.07 484.59,-645.84 551.25,-634.05 663.11,-614.26 795.02,-601.82 871.39,-595.68"/>
<polygon fill="#9a32cd" stroke="#9a32cd" points="104.73,-720.77 95.41,-725.81 105.84,-727.68 104.73,-720.77"/>
</a>
</g>
<text xml:space="preserve" text-anchor="start" x="432.25" y="-688.96" font-family="Helvetica,sans-Serif" font-size="10.00" fill="grey">ClipRectFullscreen</text>
<text xml:space="preserve" text-anchor="start" x="432.25" y="-672.21" font-family="Helvetica,sans-Serif" font-size="10.00" fill="grey">TexUvLines</text>
</g>
<!-- Node16 -->
<g id="Node000016" class="node">
<title>Node16</title>
<g id="a_Node000016"><a xlink:href="structImFontAtlas.html" target="_top" xlink:title=" ">
<polygon fill="white" stroke="#666666" points="368.38,-393.42 293.88,-393.42 293.88,-372.67 368.38,-372.67 368.38,-393.42"/>
<text xml:space="preserve" text-anchor="middle" x="331.12" y="-379.92" font-family="Helvetica,sans-Serif" font-size="10.00">ImFontAtlas</text>
</a>
</g>
</g>
<!-- Node4&#45;&gt;Node16 -->
<g id="edge31_Node000016_Node000004" class="edge">
<title>Node4&#45;&gt;Node16</title>
<g id="a_edge31_Node000016_Node000004"><a xlink:title=" ">
<path fill="none" stroke="#9a32cd" stroke-dasharray="5,2" d="M83.64,-710.13C132.4,-645.42 285.32,-442.5 322.11,-393.69"/>
<polygon fill="#9a32cd" stroke="#9a32cd" points="80.87,-707.98 77.65,-718.07 86.46,-712.19 80.87,-707.98"/>
</a>
</g>
<text xml:space="preserve" text-anchor="start" x="169.38" y="-614.15" font-family="Helvetica,sans-Serif" font-size="10.00" fill="grey">TexUvLines</text>
</g>
<!-- Node24 -->
<g id="Node000024" class="node">
<title>Node24</title>
<g id="a_Node000024"><a xlink:href="structImDrawCmdHeader.html" target="_top" xlink:title=" ">
<polygon fill="white" stroke="#666666" points="533.25,-787.42 421.25,-787.42 421.25,-766.67 533.25,-766.67 533.25,-787.42"/>
<text xml:space="preserve" text-anchor="middle" x="477.25" y="-773.92" font-family="Helvetica,sans-Serif" font-size="10.00">ImDrawCmdHeader</text>
</a>
</g>
</g>
<!-- Node4&#45;&gt;Node24 -->
<g id="edge39_Node000024_Node000004" class="edge">
<title>Node4&#45;&gt;Node24</title>
<g id="a_edge39_Node000024_Node000004"><a xlink:title=" ">
<path fill="none" stroke="#9a32cd" stroke-dasharray="5,2" d="M105.41,-736.64C120.24,-739.17 137.53,-741.94 153.25,-744.05 246.97,-756.57 356.56,-766.85 420.98,-772.45"/>
<polygon fill="#9a32cd" stroke="#9a32cd" points="106.06,-733.2 95.61,-734.95 104.86,-740.1 106.06,-733.2"/>
</a>
</g>
<text xml:space="preserve" text-anchor="start" x="176.88" y="-760.35" font-family="Helvetica,sans-Serif" font-size="10.00" fill="grey">ClipRect</text>
</g>
<!-- Node27 -->
<g id="Node000027" class="node">
<title>Node27</title>
<g id="a_Node000027"><a xlink:href="structImVector.html" target="_top" xlink:title=" ">
<polygon fill="white" stroke="#666666" points="847.25,-740.42 729.25,-740.42 729.25,-719.67 847.25,-719.67 847.25,-740.42"/>
<text xml:space="preserve" text-anchor="middle" x="788.25" y="-726.92" font-family="Helvetica,sans-Serif" font-size="10.00">ImVector&lt; ImVec4 &gt;</text>
</a>
</g>
</g>
<!-- Node4&#45;&gt;Node27 -->
<g id="edge44_Node000027_Node000004" class="edge">
<title>Node4&#45;&gt;Node27</title>
<g id="a_edge44_Node000027_Node000004"><a xlink:title=" ">
<path fill="none" stroke="#9a32cd" stroke-dasharray="5,2" d="M105.22,-730.05C221.93,-730.05 585.98,-730.05 728.86,-730.05"/>
<polygon fill="#9a32cd" stroke="#9a32cd" points="105.29,-726.55 95.29,-730.05 105.29,-733.55 105.29,-726.55"/>
</a>
</g>
<text xml:space="preserve" text-anchor="start" x="319.5" y="-736.3" font-family="Helvetica,sans-Serif" font-size="10.00" fill="grey">Data</text>
</g>
<!-- Node5&#45;&gt;Node3 -->
<g id="edge4_Node000003_Node000005" class="edge">
<title>Node5&#45;&gt;Node3</title>
<g id="a_edge4_Node000003_Node000005"><a xlink:title=" ">
<path fill="none" stroke="#9a32cd" stroke-dasharray="5,2" d="M1255.76,-726.02C1302.61,-750.46 1390.83,-796.47 1430.78,-817.31"/>
<polygon fill="#9a32cd" stroke="#9a32cd" points="1257.43,-722.95 1246.94,-721.43 1254.19,-729.15 1257.43,-722.95"/>
</a>
</g>
<text xml:space="preserve" text-anchor="start" x="1328.5" y="-802.65" font-family="Helvetica,sans-Serif" font-size="10.00" fill="grey">UserCallback</text>
</g>
<!-- Node6 -->
<g id="Node000006" class="node">
<title>Node6</title>
<g id="a_Node000006"><a xlink:href="structImVector.html" target="_top" xlink:title=" ">
<polygon fill="white" stroke="#666666" points="135.25,-891.42 0,-891.42 0,-870.67 135.25,-870.67 135.25,-891.42"/>
<text xml:space="preserve" text-anchor="middle" x="67.62" y="-877.92" font-family="Helvetica,sans-Serif" font-size="10.00">ImVector&lt; ImDrawIdx &gt;</text>
</a>
</g>
</g>
<!-- Node6&#45;&gt;Node1 -->
<g id="edge47_Node000001_Node000006" class="edge">
<title>Node6&#45;&gt;Node1</title>
<g id="a_edge47_Node000001_Node000006"><a xlink:title=" ">
<path fill="none" stroke="#9a32cd" stroke-dasharray="5,2" d="M147.04,-889.14C191.68,-893.75 246.05,-899.37 283.9,-903.27"/>
<polygon fill="#9a32cd" stroke="#9a32cd" points="147.44,-885.67 137.13,-888.12 146.72,-892.63 147.44,-885.67"/>
</a>
</g>
<text xml:space="preserve" text-anchor="start" x="172.38" y="-904.79" font-family="Helvetica,sans-Serif" font-size="10.00" fill="grey">_IdxBuffer</text>
</g>
<!-- Node6&#45;&gt;Node5 -->
<g id="edge6_Node000005_Node000006" class="edge">
<title>Node6&#45;&gt;Node5</title>
<g id="a_edge6_Node000005_Node000006"><a xlink:title=" ">
<path fill="none" stroke="#9a32cd" stroke-dasharray="5,2" d="M146.64,-872.74C286.95,-857.66 591.13,-824.34 847.25,-792.05 969.88,-776.58 1003.79,-787.62 1122.75,-754.05 1151.68,-745.88 1183.14,-731.03 1202.98,-720.86"/>
<polygon fill="#9a32cd" stroke="#9a32cd" points="146.68,-869.21 137.11,-873.76 147.43,-876.17 146.68,-869.21"/>
</a>
</g>
<text xml:space="preserve" text-anchor="start" x="609.12" y="-833.86" font-family="Helvetica,sans-Serif" font-size="10.00" fill="grey">IdxBuffer</text>
</g>
<!-- Node7 -->
<g id="Node000007" class="node">
<title>Node7</title>
<g id="a_Node000007"><a xlink:href="structImVector.html" target="_top" xlink:title=" ">
<polygon fill="white" stroke="#666666" points="1005.75,-694.42 866,-694.42 866,-673.67 1005.75,-673.67 1005.75,-694.42"/>
<text xml:space="preserve" text-anchor="middle" x="935.88" y="-680.92" font-family="Helvetica,sans-Serif" font-size="10.00">ImVector&lt; ImDrawVert &gt;</text>
</a>
</g>
</g>
<!-- Node7&#45;&gt;Node5 -->
<g id="edge7_Node000005_Node000007" class="edge">
<title>Node7&#45;&gt;Node5</title>
<g id="a_edge7_Node000005_Node000007"><a xlink:title=" ">
<path fill="none" stroke="#9a32cd" stroke-dasharray="5,2" d="M1017.56,-688.83C1050.25,-691.01 1088.34,-693.89 1122.75,-697.3 1144.6,-699.46 1169.04,-702.55 1188.34,-705.15"/>
<polygon fill="#9a32cd" stroke="#9a32cd" points="1017.96,-685.34 1007.75,-688.18 1017.5,-692.33 1017.96,-685.34"/>
</a>
</g>
<text xml:space="preserve" text-anchor="start" x="1050.75" y="-703.55" font-family="Helvetica,sans-Serif" font-size="10.00" fill="grey">VtxBuffer</text>
</g>
<!-- Node8 -->
<g id="Node000008" class="node">
<title>Node8</title>
<g id="a_Node000008"><a xlink:href="structImDrawVert.html" target="_top" xlink:title=" ">
<polygon fill="white" stroke="#666666" points="668.12,-663.42 594.38,-663.42 594.38,-642.67 668.12,-642.67 668.12,-663.42"/>
<text xml:space="preserve" text-anchor="middle" x="631.25" y="-649.92" font-family="Helvetica,sans-Serif" font-size="10.00">ImDrawVert</text>
</a>
</g>
</g>
<!-- Node8&#45;&gt;Node5 -->
<g id="edge36_Node000005_Node000008" class="edge">
<title>Node8&#45;&gt;Node5</title>
<g id="a_edge36_Node000005_Node000008"><a xlink:title=" ">
<path fill="none" stroke="#9a32cd" stroke-dasharray="5,2" d="M679.9,-647.32C751.31,-639.83 890.13,-629.53 1006.5,-646.3 1076.34,-656.36 1155.07,-683.79 1195.65,-699.19"/>
<polygon fill="#9a32cd" stroke="#9a32cd" points="679.69,-643.82 670.12,-648.38 680.44,-650.78 679.69,-643.82"/>
</a>
</g>
<text xml:space="preserve" text-anchor="start" x="905.12" y="-652.55" font-family="Helvetica,sans-Serif" font-size="10.00" fill="grey">_VtxWritePtr</text>
</g>
<!-- Node8&#45;&gt;Node7 -->
<g id="edge8_Node000007_Node000008" class="edge">
<title>Node8&#45;&gt;Node7</title>
<g id="a_edge8_Node000007_Node000008"><a xlink:title=" ">
<path fill="none" stroke="#9a32cd" stroke-dasharray="5,2" d="M679.88,-657.93C729.81,-663.04 808.77,-671.13 865.6,-676.95"/>
<polygon fill="#9a32cd" stroke="#9a32cd" points="680.26,-654.45 669.96,-656.91 679.55,-661.41 680.26,-654.45"/>
</a>
</g>
<text xml:space="preserve" text-anchor="start" x="776.62" y="-681.14" font-family="Helvetica,sans-Serif" font-size="10.00" fill="grey">Data</text>
</g>
<!-- Node9 -->
<g id="Node000009" class="node">
<title>Node9</title>
<g id="a_Node000009"><a xlink:href="structImVec2.html" target="_top" xlink:title=" ">
<polygon fill="white" stroke="#666666" points="93.62,-509.42 41.62,-509.42 41.62,-488.67 93.62,-488.67 93.62,-509.42"/>
<text xml:space="preserve" text-anchor="middle" x="67.62" y="-495.92" font-family="Helvetica,sans-Serif" font-size="10.00">ImVec2</text>
</a>
</g>
</g>
<!-- Node9&#45;&gt;Node8 -->
<g id="edge9_Node000008_Node000009" class="edge">
<title>Node9&#45;&gt;Node8</title>
<g id="a_edge9_Node000008_Node000009"><a xlink:title=" ">
<path fill="none" stroke="#9a32cd" stroke-dasharray="5,2" d="M78.52,-519.91C91.71,-545.12 117.58,-586.56 153.25,-606.05 158.1,-608.7 483.57,-639.33 594.03,-649.67"/>
<polygon fill="#9a32cd" stroke="#9a32cd" points="81.8,-518.64 74.19,-511.27 75.54,-521.78 81.8,-518.64"/>
</a>
</g>
<text xml:space="preserve" text-anchor="start" x="322.5" y="-654.5" font-family="Helvetica,sans-Serif" font-size="10.00" fill="grey">pos</text>
<text xml:space="preserve" text-anchor="start" x="322.5" y="-637.75" font-family="Helvetica,sans-Serif" font-size="10.00" fill="grey">uv</text>
</g>
<!-- Node9&#45;&gt;Node10 -->
<g id="edge11_Node000010_Node000009" class="edge">
<title>Node9&#45;&gt;Node10</title>
<g id="a_edge11_Node000010_Node000009"><a xlink:title=" ">
<path fill="none" stroke="#9a32cd" stroke-dasharray="5,2" d="M104.91,-508.23C119.83,-511.85 137.32,-515.89 153.25,-519.05 199.94,-528.3 211.75,-530.25 259,-536.05 483.35,-563.58 751.36,-580.75 871.34,-587.62"/>
<polygon fill="#9a32cd" stroke="#9a32cd" points="106.09,-504.92 95.54,-505.93 104.42,-511.72 106.09,-504.92"/>
</a>
</g>
<text xml:space="preserve" text-anchor="start" x="436.38" y="-586.52" font-family="Helvetica,sans-Serif" font-size="10.00" fill="grey">ArcFastVtx</text>
<text xml:space="preserve" text-anchor="start" x="436.38" y="-569.77" font-family="Helvetica,sans-Serif" font-size="10.00" fill="grey">TexUvWhitePixel</text>
</g>
<!-- Node9&#45;&gt;Node16 -->
<g id="edge20_Node000016_Node000009" class="edge">
<title>Node9&#45;&gt;Node16</title>
<g id="a_edge20_Node000016_Node000009"><a xlink:title=" ">
<path fill="none" stroke="#9a32cd" stroke-dasharray="5,2" d="M85.74,-480.03C101.65,-463.5 126.83,-440.13 153.25,-426.55 165.7,-420.15 245.48,-401.8 293.54,-391.09"/>
<polygon fill="#9a32cd" stroke="#9a32cd" points="83.21,-477.61 78.93,-487.3 88.32,-482.4 83.21,-477.61"/>
</a>
</g>
<text xml:space="preserve" text-anchor="start" x="156.25" y="-449.55" font-family="Helvetica,sans-Serif" font-size="10.00" fill="grey">TexUvScale</text>
<text xml:space="preserve" text-anchor="start" x="156.25" y="-432.8" font-family="Helvetica,sans-Serif" font-size="10.00" fill="grey">TexUvWhitePixel</text>
</g>
<!-- Node19 -->
<g id="Node000019" class="node">
<title>Node19</title>
<g id="a_Node000019"><a xlink:href="structImFontAtlasCustomRect.html" target="_top" xlink:title=" ">
<polygon fill="white" stroke="#666666" points="1002.75,-393.42 869,-393.42 869,-372.67 1002.75,-372.67 1002.75,-393.42"/>
<text xml:space="preserve" text-anchor="middle" x="935.88" y="-379.92" font-family="Helvetica,sans-Serif" font-size="10.00">ImFontAtlasCustomRect</text>
</a>
</g>
</g>
<!-- Node9&#45;&gt;Node19 -->
<g id="edge25_Node000019_Node000009" class="edge">
<title>Node9&#45;&gt;Node19</title>
<g id="a_edge25_Node000019_Node000009"><a xlink:title=" ">
<path fill="none" stroke="#9a32cd" stroke-dasharray="5,2" d="M105.36,-498.03C240,-493.97 705.94,-477 847.25,-433.05 875.18,-424.36 903.96,-405.73 920.59,-393.82"/>
<polygon fill="#9a32cd" stroke="#9a32cd" points="105.5,-494.52 95.6,-498.32 105.7,-501.52 105.5,-494.52"/>
</a>
</g>
<text xml:space="preserve" text-anchor="start" x="448.38" y="-489.71" font-family="Helvetica,sans-Serif" font-size="10.00" fill="grey">GlyphOffset</text>
</g>
<!-- Node21 -->
<g id="Node000021" class="node">
<title>Node21</title>
<g id="a_Node000021"><a xlink:href="structImFontConfig.html" target="_top" xlink:title=" ">
<polygon fill="white" stroke="#666666" points="976.12,-175.42 895.62,-175.42 895.62,-154.67 976.12,-154.67 976.12,-175.42"/>
<text xml:space="preserve" text-anchor="middle" x="935.88" y="-161.92" font-family="Helvetica,sans-Serif" font-size="10.00">ImFontConfig</text>
</a>
</g>
</g>
<!-- Node9&#45;&gt;Node21 -->
<g id="edge29_Node000021_Node000009" class="edge">
<title>Node9&#45;&gt;Node21</title>
<g id="a_edge29_Node000021_Node000009"><a xlink:title=" ">
<path fill="none" stroke="#9a32cd" stroke-dasharray="5,2" d="M83.6,-479.1C97.72,-459.87 119.08,-429.7 135.25,-402.05 198.24,-294.34 154.16,-217.71 259,-150.05 434.7,-36.66 520.17,-138.38 729.25,-135.05 781.69,-134.21 795.52,-126.44 847.25,-135.05 869.3,-138.72 893.24,-147.25 910.51,-154.27"/>
<polygon fill="#9a32cd" stroke="#9a32cd" points="80.8,-477 77.66,-487.11 86.42,-481.17 80.8,-477"/>
</a>
</g>
<text xml:space="preserve" text-anchor="start" x="448.38" y="-116.74" font-family="Helvetica,sans-Serif" font-size="10.00" fill="grey">GlyphOffset</text>
</g>
<!-- Node23 -->
<g id="Node000023" class="node">
<title>Node23</title>
<g id="a_Node000023"><a xlink:href="structImVector.html" target="_top" xlink:title=" ">
<polygon fill="white" stroke="#666666" points="690.25,-533.42 572.25,-533.42 572.25,-512.67 690.25,-512.67 690.25,-533.42"/>
<text xml:space="preserve" text-anchor="middle" x="631.25" y="-519.92" font-family="Helvetica,sans-Serif" font-size="10.00">ImVector&lt; ImVec2 &gt;</text>
</a>
</g>
</g>
<!-- Node9&#45;&gt;Node23 -->
<g id="edge35_Node000023_Node000009" class="edge">
<title>Node9&#45;&gt;Node23</title>
<g id="a_edge35_Node000023_Node000009"><a xlink:title=" ">
<path fill="none" stroke="#9a32cd" stroke-dasharray="5,2" d="M105.14,-500.61C200.18,-504.67 455.9,-515.6 571.77,-520.55"/>
<polygon fill="#9a32cd" stroke="#9a32cd" points="105.5,-497.12 95.36,-500.19 105.2,-504.11 105.5,-497.12"/>
</a>
</g>
<text xml:space="preserve" text-anchor="start" x="319.5" y="-519.29" font-family="Helvetica,sans-Serif" font-size="10.00" fill="grey">Data</text>
</g>
<!-- Node10&#45;&gt;Node5 -->
<g id="edge10_Node000005_Node000010" class="edge">
<title>Node10&#45;&gt;Node5</title>
<g id="a_edge10_Node000005_Node000010"><a xlink:title=" ">
<path fill="none" stroke="#9a32cd" stroke-dasharray="5,2" d="M1011.63,-584.22C1046.86,-583.98 1088.57,-588.15 1122.75,-604.3 1167.84,-625.6 1202.97,-676.74 1216.77,-699.18"/>
<polygon fill="#9a32cd" stroke="#9a32cd" points="1011.87,-580.72 1001.94,-584.42 1012.01,-587.72 1011.87,-580.72"/>
</a>
</g>
<text xml:space="preserve" text-anchor="start" x="1059.38" y="-610.55" font-family="Helvetica,sans-Serif" font-size="10.00" fill="grey">_Data</text>
</g>
<!-- Node11 -->
<g id="Node000011" class="node">
<title>Node11</title>
<g id="a_Node000011"><a xlink:href="structImFont.html" target="_top" xlink:title=" ">
<polygon fill="white" stroke="#666666" points="656.12,-208.42 606.38,-208.42 606.38,-187.67 656.12,-187.67 656.12,-208.42"/>
<text xml:space="preserve" text-anchor="middle" x="631.25" y="-194.92" font-family="Helvetica,sans-Serif" font-size="10.00">ImFont</text>
</a>
</g>
</g>
<!-- Node11&#45;&gt;Node10 -->
<g id="edge13_Node000010_Node000011" class="edge">
<title>Node11&#45;&gt;Node10</title>
<g id="a_edge13_Node000010_Node000011"><a xlink:title=" ">
<path fill="none" stroke="#9a32cd" stroke-dasharray="5,2" d="M648.47,-217.19C666.5,-237.48 697.3,-269.4 729.25,-290.05 776.84,-320.79 813.84,-292.53 847.25,-338.3 877.31,-379.48 834.04,-526.72 865.25,-567.05 869.55,-572.61 875.22,-576.89 881.47,-580.18"/>
<polygon fill="#9a32cd" stroke="#9a32cd" points="651.34,-215.14 642.13,-209.9 646.06,-219.74 651.34,-215.14"/>
</a>
</g>
<text xml:space="preserve" text-anchor="start" x="777.75" y="-344.55" font-family="Helvetica,sans-Serif" font-size="10.00" fill="grey">Font</text>
</g>
<!-- Node17 -->
<g id="Node000017" class="node">
<title>Node17</title>
<g id="a_Node000017"><a xlink:href="structImVector.html" target="_top" xlink:title=" ">
<polygon fill="white" stroke="#666666" points="997.88,-277.42 873.88,-277.42 873.88,-256.67 997.88,-256.67 997.88,-277.42"/>
<text xml:space="preserve" text-anchor="middle" x="935.88" y="-263.92" font-family="Helvetica,sans-Serif" font-size="10.00">ImVector&lt; ImFont * &gt;</text>
</a>
</g>
</g>
<!-- Node11&#45;&gt;Node17 -->
<g id="edge22_Node000017_Node000011" class="edge">
<title>Node11&#45;&gt;Node17</title>
<g id="a_edge22_Node000017_Node000011"><a xlink:title=" ">
<path fill="none" stroke="#9a32cd" stroke-dasharray="5,2" d="M667.84,-200.35C710.97,-203.79 785.54,-211.85 847.25,-229.3 871,-236.01 896.79,-247.7 914.19,-256.29"/>
<polygon fill="#9a32cd" stroke="#9a32cd" points="668.29,-196.87 658.05,-199.61 667.76,-203.85 668.29,-196.87"/>
</a>
</g>
<text xml:space="preserve" text-anchor="start" x="776.62" y="-235.55" font-family="Helvetica,sans-Serif" font-size="10.00" fill="grey">Data</text>
</g>
<!-- Node11&#45;&gt;Node19 -->
<g id="edge26_Node000019_Node000011" class="edge">
<title>Node11&#45;&gt;Node19</title>
<g id="a_edge26_Node000019_Node000011"><a xlink:title=" ">
<path fill="none" stroke="#9a32cd" stroke-dasharray="5,2" d="M659.19,-214.55C678.16,-225.51 704.49,-239.42 729.25,-248.05 779.73,-265.63 801.69,-243.35 847.25,-271.3 868.58,-284.38 911.18,-346.98 927.91,-372.34"/>
<polygon fill="#9a32cd" stroke="#9a32cd" points="661.16,-211.65 650.76,-209.59 657.6,-217.68 661.16,-211.65"/>
</a>
</g>
<text xml:space="preserve" text-anchor="start" x="777.75" y="-277.55" font-family="Helvetica,sans-Serif" font-size="10.00" fill="grey">Font</text>
</g>
<!-- Node11&#45;&gt;Node21 -->
<g id="edge30_Node000021_Node000011" class="edge">
<title>Node11&#45;&gt;Node21</title>
<g id="a_edge30_Node000021_Node000011"><a xlink:title=" ">
<path fill="none" stroke="#9a32cd" stroke-dasharray="5,2" d="M655.64,-180.97C674.47,-168.34 702.16,-152.19 729.25,-145.3 787.29,-130.53 857.11,-143.44 898.64,-154.19"/>
<polygon fill="#9a32cd" stroke="#9a32cd" points="653.88,-177.93 647.65,-186.5 657.86,-183.68 653.88,-177.93"/>
</a>
</g>
<text xml:space="preserve" text-anchor="start" x="769.5" y="-151.55" font-family="Helvetica,sans-Serif" font-size="10.00" fill="grey">DstFont</text>
</g>
<!-- Node12 -->
<g id="Node000012" class="node">
<title>Node12</title>
<g id="a_Node000012"><a xlink:href="structImVector.html" target="_top" xlink:title=" ">
<polygon fill="white" stroke="#666666" points="383,-221.42 279.25,-221.42 279.25,-200.67 383,-200.67 383,-221.42"/>
<text xml:space="preserve" text-anchor="middle" x="331.12" y="-207.92" font-family="Helvetica,sans-Serif" font-size="10.00">ImVector&lt; float &gt;</text>
</a>
</g>
</g>
<!-- Node12&#45;&gt;Node11 -->
<g id="edge14_Node000011_Node000012" class="edge">
<title>Node12&#45;&gt;Node11</title>
<g id="a_edge14_Node000011_Node000012"><a xlink:title=" ">
<path fill="none" stroke="#9a32cd" stroke-dasharray="5,2" d="M394.81,-208.31C460.48,-205.45 560.3,-201.1 605.94,-199.11"/>
<polygon fill="#9a32cd" stroke="#9a32cd" points="394.72,-204.81 384.89,-208.75 395.03,-211.81 394.72,-204.81"/>
</a>
</g>
<text xml:space="preserve" text-anchor="start" x="439.38" y="-213.09" font-family="Helvetica,sans-Serif" font-size="10.00" fill="grey">IndexAdvanceX</text>
</g>
<!-- Node13 -->
<g id="Node000013" class="node">
<title>Node13</title>
<g id="a_Node000013"><a xlink:href="structImVector.html" target="_top" xlink:title=" ">
<polygon fill="white" stroke="#666666" points="388.25,-179.42 274,-179.42 274,-158.67 388.25,-158.67 388.25,-179.42"/>
<text xml:space="preserve" text-anchor="middle" x="331.12" y="-165.92" font-family="Helvetica,sans-Serif" font-size="10.00">ImVector&lt; ImU16 &gt;</text>
</a>
</g>
</g>
<!-- Node13&#45;&gt;Node11 -->
<g id="edge15_Node000011_Node000013" class="edge">
<title>Node13&#45;&gt;Node11</title>
<g id="a_edge15_Node000011_Node000013"><a xlink:title=" ">
<path fill="none" stroke="#9a32cd" stroke-dasharray="5,2" d="M400.13,-170.73C439.19,-172.23 489.09,-175.04 533.25,-180.3 558.24,-183.27 586.51,-188.68 606.06,-192.75"/>
<polygon fill="#9a32cd" stroke="#9a32cd" points="400.27,-167.24 390.15,-170.37 400.02,-174.23 400.27,-167.24"/>
</a>
</g>
<text xml:space="preserve" text-anchor="start" x="446.5" y="-186.55" font-family="Helvetica,sans-Serif" font-size="10.00" fill="grey">IndexLookup</text>
</g>
<!-- Node14 -->
<g id="Node000014" class="node">
<title>Node14</title>
<g id="a_Node000014"><a xlink:href="structImVector.html" target="_top" xlink:title=" ">
<polygon fill="white" stroke="#666666" points="403.25,-81.42 259,-81.42 259,-60.67 403.25,-60.67 403.25,-81.42"/>
<text xml:space="preserve" text-anchor="middle" x="331.12" y="-67.92" font-family="Helvetica,sans-Serif" font-size="10.00">ImVector&lt; ImFontGlyph &gt;</text>
</a>
</g>
</g>
<!-- Node14&#45;&gt;Node11 -->
<g id="edge16_Node000011_Node000014" class="edge">
<title>Node14&#45;&gt;Node11</title>
<g id="a_edge16_Node000011_Node000014"><a xlink:title=" ">
<path fill="none" stroke="#9a32cd" stroke-dasharray="5,2" d="M386.63,-58.15C428.87,-51.05 487.7,-47.69 533.25,-70.3 584.14,-95.55 615.52,-161.68 626.17,-187.5"/>
<polygon fill="#9a32cd" stroke="#9a32cd" points="386.15,-54.67 376.94,-59.9 387.4,-61.56 386.15,-54.67"/>
</a>
</g>
<text xml:space="preserve" text-anchor="start" x="460.38" y="-76.55" font-family="Helvetica,sans-Serif" font-size="10.00" fill="grey">Glyphs</text>
</g>
<!-- Node15 -->
<g id="Node000015" class="node">
<title>Node15</title>
<g id="a_Node000015"><a xlink:href="structImFontGlyph.html" target="_top" xlink:title=" ">
<polygon fill="white" stroke="#666666" points="106.75,-58.42 28.5,-58.42 28.5,-37.67 106.75,-37.67 106.75,-58.42"/>
<text xml:space="preserve" text-anchor="middle" x="67.62" y="-44.92" font-family="Helvetica,sans-Serif" font-size="10.00">ImFontGlyph</text>
</a>
</g>
</g>
<!-- Node15&#45;&gt;Node11 -->
<g id="edge18_Node000011_Node000015" class="edge">
<title>Node15&#45;&gt;Node11</title>
<g id="a_edge18_Node000011_Node000015"><a xlink:title=" ">
<path fill="none" stroke="#9a32cd" stroke-dasharray="5,2" d="M112.51,-34.01C200.14,-8.81 399.77,34.11 533.25,-49.05 587.48,-82.83 617.43,-159.4 626.91,-187.47"/>
<polygon fill="#9a32cd" stroke="#9a32cd" points="111.71,-30.59 103.11,-36.78 113.69,-37.31 111.71,-30.59"/>
</a>
</g>
<text xml:space="preserve" text-anchor="start" x="297" y="-10.63" font-family="Helvetica,sans-Serif" font-size="10.00" fill="grey">FallbackGlyph</text>
</g>
<!-- Node15&#45;&gt;Node14 -->
<g id="edge17_Node000014_Node000015" class="edge">
<title>Node15&#45;&gt;Node14</title>
<g id="a_edge17_Node000014_Node000015"><a xlink:title=" ">
<path fill="none" stroke="#9a32cd" stroke-dasharray="5,2" d="M118.44,-52.43C158.09,-55.92 214.09,-60.84 258.54,-64.75"/>
<polygon fill="#9a32cd" stroke="#9a32cd" points="118.99,-48.96 108.72,-51.57 118.37,-55.94 118.99,-48.96"/>
</a>
</g>
<text xml:space="preserve" text-anchor="start" x="185.5" y="-69.2" font-family="Helvetica,sans-Serif" font-size="10.00" fill="grey">Data</text>
</g>
<!-- Node16&#45;&gt;Node11 -->
<g id="edge19_Node000011_Node000016" class="edge">
<title>Node16&#45;&gt;Node11</title>
<g id="a_edge19_Node000011_Node000016"><a xlink:title=" ">
<path fill="none" stroke="#9a32cd" stroke-dasharray="5,2" d="M350.38,-364.06C367.6,-346.83 394.66,-321.42 421.25,-303.3 483.69,-260.74 565.73,-224.46 605.92,-207.81"/>
<polygon fill="#9a32cd" stroke="#9a32cd" points="347.91,-361.58 343.39,-371.16 352.9,-366.49 347.91,-361.58"/>
</a>
</g>
<text xml:space="preserve" text-anchor="start" x="441.25" y="-309.55" font-family="Helvetica,sans-Serif" font-size="10.00" fill="grey">ContainerAtlas</text>
</g>
<!-- Node17&#45;&gt;Node16 -->
<g id="edge21_Node000016_Node000017" class="edge">
<title>Node17&#45;&gt;Node16</title>
<g id="a_edge21_Node000016_Node000017"><a xlink:title=" ">
<path fill="none" stroke="#9a32cd" stroke-dasharray="5,2" d="M916.59,-285.66C900.07,-301.15 874.27,-322.19 847.25,-332.05 785.34,-354.64 616.81,-343.56 551.25,-350.3 493.18,-356.26 478.97,-360.35 421.25,-369.05 403.9,-371.66 384.68,-374.67 368.53,-377.22"/>
<polygon fill="#9a32cd" stroke="#9a32cd" points="918.93,-288.27 923.67,-278.79 914.06,-283.24 918.93,-288.27"/>
</a>
</g>
<text xml:space="preserve" text-anchor="start" x="618.12" y="-356.55" font-family="Helvetica,sans-Serif" font-size="10.00" fill="grey">Fonts</text>
</g>
<!-- Node18 -->
<g id="Node000018" class="node">
<title>Node18</title>
<g id="a_Node000018"><a xlink:href="structImVector.html" target="_top" xlink:title=" ">
<polygon fill="white" stroke="#666666" points="1307.5,-422.8 1140.75,-422.8 1140.75,-389.3 1307.5,-389.3 1307.5,-422.8"/>
<text xml:space="preserve" text-anchor="start" x="1148.75" y="-409.3" font-family="Helvetica,sans-Serif" font-size="10.00">ImVector&lt; ImFontAtlasCustom</text>
<text xml:space="preserve" text-anchor="middle" x="1224.12" y="-396.55" font-family="Helvetica,sans-Serif" font-size="10.00">Rect &gt;</text>
</a>
</g>
</g>
<!-- Node18&#45;&gt;Node16 -->
<g id="edge23_Node000016_Node000018" class="edge">
<title>Node18&#45;&gt;Node16</title>
<g id="a_edge23_Node000016_Node000018"><a xlink:title=" ">
<path fill="none" stroke="#9a32cd" stroke-dasharray="5,2" d="M1129,-407.03C1095.96,-407.24 1058.58,-407.33 1024.5,-407.05 756.36,-404.82 688.4,-420.13 421.25,-397.05 403.93,-395.55 384.87,-392.72 368.84,-389.99"/>
<polygon fill="#9a32cd" stroke="#9a32cd" points="1129.01,-410.53 1138.99,-406.97 1128.96,-403.53 1129.01,-410.53"/>
</a>
</g>
<text xml:space="preserve" text-anchor="start" x="756" y="-416.05" font-family="Helvetica,sans-Serif" font-size="10.00" fill="grey">CustomRects</text>
</g>
<!-- Node19&#45;&gt;Node18 -->
<g id="edge24_Node000018_Node000019" class="edge">
<title>Node19&#45;&gt;Node18</title>
<g id="a_edge24_Node000018_Node000019"><a xlink:title=" ">
<path fill="none" stroke="#9a32cd" stroke-dasharray="5,2" d="M1013.95,-382.69C1047.45,-383.19 1087.11,-384.66 1122.75,-388.3 1128.47,-388.88 1134.36,-389.6 1140.28,-390.42"/>
<polygon fill="#9a32cd" stroke="#9a32cd" points="1014.39,-379.2 1004.35,-382.58 1014.31,-386.2 1014.39,-379.2"/>
</a>
</g>
<text xml:space="preserve" text-anchor="start" x="1062" y="-394.55" font-family="Helvetica,sans-Serif" font-size="10.00" fill="grey">Data</text>
</g>
<!-- Node20 -->
<g id="Node000020" class="node">
<title>Node20</title>
<g id="a_Node000020"><a xlink:href="structImVector.html" target="_top" xlink:title=" ">
<polygon fill="white" stroke="#666666" points="1297.38,-307.42 1150.88,-307.42 1150.88,-286.67 1297.38,-286.67 1297.38,-307.42"/>
<text xml:space="preserve" text-anchor="middle" x="1224.12" y="-293.92" font-family="Helvetica,sans-Serif" font-size="10.00">ImVector&lt; ImFontConfig &gt;</text>
</a>
</g>
</g>
<!-- Node20&#45;&gt;Node16 -->
<g id="edge27_Node000016_Node000020" class="edge">
<title>Node20&#45;&gt;Node16</title>
<g id="a_edge27_Node000016_Node000020"><a xlink:title=" ">
<path fill="none" stroke="#9a32cd" stroke-dasharray="5,2" d="M1152.21,-309.9C1053.68,-327.09 869.62,-356.83 711.25,-369.05 585.82,-378.73 436.51,-381.75 368.78,-382.67"/>
<polygon fill="#9a32cd" stroke="#9a32cd" points="1152.76,-313.35 1162.01,-308.18 1151.55,-306.46 1152.76,-313.35"/>
</a>
</g>
<text xml:space="preserve" text-anchor="start" x="769.12" y="-373.56" font-family="Helvetica,sans-Serif" font-size="10.00" fill="grey">Sources</text>
</g>
<!-- Node21&#45;&gt;Node11 -->
<g id="edge33_Node000011_Node000021" class="edge">
<title>Node21&#45;&gt;Node11</title>
<g id="a_edge33_Node000011_Node000021"><a xlink:title=" ">
<path fill="none" stroke="#9a32cd" stroke-dasharray="5,2" d="M884.24,-170.49C842.61,-174.97 782.1,-181.51 729.25,-187.3 704.49,-190.01 676.18,-193.15 656.56,-195.33"/>
<polygon fill="#9a32cd" stroke="#9a32cd" points="884.38,-173.99 893.95,-169.44 883.63,-167.03 884.38,-173.99"/>
</a>
</g>
<text xml:space="preserve" text-anchor="start" x="769.12" y="-193.55" font-family="Helvetica,sans-Serif" font-size="10.00" fill="grey">Sources</text>
</g>
<!-- Node21&#45;&gt;Node20 -->
<g id="edge28_Node000020_Node000021" class="edge">
<title>Node21&#45;&gt;Node20</title>
<g id="a_edge28_Node000020_Node000021"><a xlink:title=" ">
<path fill="none" stroke="#9a32cd" stroke-dasharray="5,2" d="M970.53,-180.57C1029.3,-207.67 1149.19,-262.95 1199.78,-286.28"/>
<polygon fill="#9a32cd" stroke="#9a32cd" points="972.22,-177.49 961.67,-176.48 969.29,-183.85 972.22,-177.49"/>
</a>
</g>
<text xml:space="preserve" text-anchor="start" x="1062" y="-256.83" font-family="Helvetica,sans-Serif" font-size="10.00" fill="grey">Data</text>
</g>
<!-- Node22 -->
<g id="Node000022" class="node">
<title>Node22</title>
<g id="a_Node000022"><a xlink:href="structImFontBuilderIO.html" target="_top" xlink:title=" ">
<polygon fill="white" stroke="#666666" points="115,-393.42 20.25,-393.42 20.25,-372.67 115,-372.67 115,-393.42"/>
<text xml:space="preserve" text-anchor="middle" x="67.62" y="-379.92" font-family="Helvetica,sans-Serif" font-size="10.00">ImFontBuilderIO</text>
</a>
</g>
</g>
<!-- Node22&#45;&gt;Node16 -->
<g id="edge32_Node000016_Node000022" class="edge">
<title>Node22&#45;&gt;Node16</title>
<g id="a_edge32_Node000016_Node000022"><a xlink:title=" ">
<path fill="none" stroke="#9a32cd" stroke-dasharray="5,2" d="M126.87,-383.05C177.81,-383.05 250.24,-383.05 293.47,-383.05"/>
<polygon fill="#9a32cd" stroke="#9a32cd" points="126.89,-379.55 116.89,-383.05 126.89,-386.55 126.89,-379.55"/>
</a>
</g>
<text xml:space="preserve" text-anchor="start" x="164.12" y="-389.3" font-family="Helvetica,sans-Serif" font-size="10.00" fill="grey">FontBuilderIO</text>
</g>
<!-- Node23&#45;&gt;Node5 -->
<g id="edge37_Node000005_Node000023" class="edge">
<title>Node23&#45;&gt;Node5</title>
<g id="a_edge37_Node000005_Node000023"><a xlink:title=" ">
<path fill="none" stroke="#9a32cd" stroke-dasharray="5,2" d="M701.97,-523.75C820.4,-526.14 1054.63,-536.41 1122.75,-580.05 1171.25,-611.12 1205.71,-674.09 1218.08,-699.28"/>
<polygon fill="#9a32cd" stroke="#9a32cd" points="702.11,-520.25 692.05,-523.56 701.98,-527.25 702.11,-520.25"/>
</a>
</g>
<text xml:space="preserve" text-anchor="start" x="922.75" y="-551.88" font-family="Helvetica,sans-Serif" font-size="10.00" fill="grey">_Path</text>
</g>
<!-- Node23&#45;&gt;Node10 -->
<g id="edge34_Node000010_Node000023" class="edge">
<title>Node23&#45;&gt;Node10</title>
<g id="a_edge34_Node000010_Node000023"><a xlink:title=" ">
<path fill="none" stroke="#9a32cd" stroke-dasharray="5,2" d="M701.97,-531.57C754.2,-538.44 820.99,-548.38 847.25,-557.3 855.87,-560.22 856.92,-563.39 865.25,-567.05 876.25,-571.88 888.56,-576.4 899.74,-580.19"/>
<polygon fill="#9a32cd" stroke="#9a32cd" points="702.6,-528.12 692.23,-530.3 701.69,-535.06 702.6,-528.12"/>
</a>
</g>
<text xml:space="preserve" text-anchor="start" x="760.5" y="-563.55" font-family="Helvetica,sans-Serif" font-size="10.00" fill="grey">TempBuffer</text>
</g>
<!-- Node24&#45;&gt;Node5 -->
<g id="edge38_Node000005_Node000024" class="edge">
<title>Node24&#45;&gt;Node5</title>
<g id="a_edge38_Node000005_Node000024"><a xlink:title=" ">
<path fill="none" stroke="#9a32cd" stroke-dasharray="5,2" d="M545,-775.83C645.38,-773.5 841.08,-767.04 1006.5,-750.05 1071.18,-743.4 1145.48,-727.94 1188.11,-718.31"/>
<polygon fill="#9a32cd" stroke="#9a32cd" points="544.96,-772.33 535.04,-776.05 545.12,-779.33 544.96,-772.33"/>
</a>
</g>
<text xml:space="preserve" text-anchor="start" x="756.75" y="-775.61" font-family="Helvetica,sans-Serif" font-size="10.00" fill="grey">_CmdHeader</text>
</g>
<!-- Node25 -->
<g id="Node000025" class="node">
<title>Node25</title>
<g id="a_Node000025"><a xlink:href="structImDrawListSplitter.html" target="_top" xlink:title=" ">
<polygon fill="white" stroke="#666666" points="989.25,-915.42 882.5,-915.42 882.5,-894.67 989.25,-894.67 989.25,-915.42"/>
<text xml:space="preserve" text-anchor="middle" x="935.88" y="-901.92" font-family="Helvetica,sans-Serif" font-size="10.00">ImDrawListSplitter</text>
</a>
</g>
</g>
<!-- Node25&#45;&gt;Node5 -->
<g id="edge40_Node000005_Node000025" class="edge">
<title>Node25&#45;&gt;Node5</title>
<g id="a_edge40_Node000005_Node000025"><a xlink:title=" ">
<path fill="none" stroke="#9a32cd" stroke-dasharray="5,2" d="M976.4,-890.09C1015.58,-874.23 1076.31,-846.83 1122.75,-813.05 1161.52,-784.84 1198.59,-741.01 1214.71,-720.85"/>
<polygon fill="#9a32cd" stroke="#9a32cd" points="975.35,-886.74 967.35,-893.69 977.94,-893.24 975.35,-886.74"/>
</a>
</g>
<text xml:space="preserve" text-anchor="start" x="1053.38" y="-875.11" font-family="Helvetica,sans-Serif" font-size="10.00" fill="grey">_Splitter</text>
</g>
<!-- Node26&#45;&gt;Node25 -->
<g id="edge41_Node000025_Node000026" class="edge">
<title>Node26&#45;&gt;Node25</title>
<g id="a_edge41_Node000025_Node000026"><a xlink:title=" ">
<path fill="none" stroke="#9a32cd" stroke-dasharray="5,2" d="M722.64,-907.15C774.76,-906.63 838.46,-906 882.39,-905.57"/>
<polygon fill="#9a32cd" stroke="#9a32cd" points="722.84,-903.65 712.88,-907.25 722.91,-910.65 722.84,-903.65"/>
</a>
</g>
<text xml:space="preserve" text-anchor="start" x="763.12" y="-913.33" font-family="Helvetica,sans-Serif" font-size="10.00" fill="grey">_Channels</text>
</g>
<!-- Node27&#45;&gt;Node5 -->
<g id="edge43_Node000005_Node000027" class="edge">
<title>Node27&#45;&gt;Node5</title>
<g id="a_edge43_Node000005_Node000027"><a xlink:title=" ">
<path fill="none" stroke="#9a32cd" stroke-dasharray="5,2" d="M859.03,-727.48C926.51,-724.91 1031.66,-720.68 1122.75,-716.05 1144.54,-714.94 1168.99,-713.48 1188.29,-712.28"/>
<polygon fill="#9a32cd" stroke="#9a32cd" points="859.07,-723.97 849.21,-727.85 859.34,-730.97 859.07,-723.97"/>
</a>
</g>
<text xml:space="preserve" text-anchor="start" x="899.5" y="-733.35" font-family="Helvetica,sans-Serif" font-size="10.00" fill="grey">_ClipRectStack</text>
</g>
<!-- Node28 -->
<g id="Node000028" class="node">
<title>Node28</title>
<g id="a_Node000028"><a xlink:href="structImVector.html" target="_top" xlink:title=" ">
<polygon fill="white" stroke="#666666" points="1006.5,-508.42 865.25,-508.42 865.25,-487.67 1006.5,-487.67 1006.5,-508.42"/>
<text xml:space="preserve" text-anchor="middle" x="935.88" y="-494.92" font-family="Helvetica,sans-Serif" font-size="10.00">ImVector&lt; ImTextureID &gt;</text>
</a>
</g>
</g>
<!-- Node28&#45;&gt;Node5 -->
<g id="edge45_Node000005_Node000028" class="edge">
<title>Node28&#45;&gt;Node5</title>
<g id="a_edge45_Node000005_Node000028"><a xlink:title=" ">
<path fill="none" stroke="#9a32cd" stroke-dasharray="5,2" d="M1017.78,-486.87C1052.68,-486.11 1092.37,-491.08 1122.75,-511.3 1191.62,-557.12 1215.49,-665.22 1221.47,-699.45"/>
<polygon fill="#9a32cd" stroke="#9a32cd" points="1018,-483.36 1008.14,-487.25 1018.27,-490.35 1018,-483.36"/>
</a>
</g>
<text xml:space="preserve" text-anchor="start" x="1035" y="-517.55" font-family="Helvetica,sans-Serif" font-size="10.00" fill="grey">_TextureIdStack</text>
</g>
<!-- Node29 -->
<g id="Node000029" class="node">
<title>Node29</title>
<g id="a_Node000029"><a xlink:href="structImVector.html" target="_top" xlink:title=" ">
<polygon fill="white" stroke="#666666" points="990,-469.42 881.75,-469.42 881.75,-448.67 990,-448.67 990,-469.42"/>
<text xml:space="preserve" text-anchor="middle" x="935.88" y="-455.92" font-family="Helvetica,sans-Serif" font-size="10.00">ImVector&lt; ImU8 &gt;</text>
</a>
</g>
</g>
<!-- Node29&#45;&gt;Node5 -->
<g id="edge46_Node000005_Node000029" class="edge">
<title>Node29&#45;&gt;Node5</title>
<g id="a_edge46_Node000005_Node000029"><a xlink:title=" ">
<path fill="none" stroke="#9a32cd" stroke-dasharray="5,2" d="M989.3,-446.19C1029.38,-439.52 1084.14,-437.56 1122.75,-464.3 1205.35,-521.49 1220.06,-659.48 1222.61,-699.19"/>
<polygon fill="#9a32cd" stroke="#9a32cd" points="988.85,-442.71 979.64,-447.95 990.11,-449.6 988.85,-442.71"/>
</a>
</g>
<text xml:space="preserve" text-anchor="start" x="1027.5" y="-470.55" font-family="Helvetica,sans-Serif" font-size="10.00" fill="grey">_CallbacksDataBuf</text>
</g>
</g>
</svg>
