<?xml version="1.0" encoding="UTF-8" standalone="no"?>
<!DOCTYPE svg PUBLIC "-//W3C//DTD SVG 1.1//EN"
 "http://www.w3.org/Graphics/SVG/1.1/DTD/svg11.dtd">
<!-- Generated by graphviz version 13.0.0 (0)
 -->
<!-- Title: ImTriangulatorNode Pages: 1 -->
<svg width="167pt" height="119pt"
 viewBox="0.00 0.00 167.00 119.00" xmlns="http://www.w3.org/2000/svg" xmlns:xlink="http://www.w3.org/1999/xlink">
<g id="graph0" class="graph" transform="scale(1 1) rotate(0) translate(4 115)">
<title>ImTriangulatorNode</title>
<!-- Node1 -->
<g id="Node000001" class="node">
<title>Node1</title>
<g id="a_Node000001"><a xlink:title=" ">
<polygon fill="#999999" stroke="#666666" points="112,-28.12 0,-28.12 0,-7.38 112,-7.38 112,-28.12"/>
<text xml:space="preserve" text-anchor="middle" x="56" y="-14.62" font-family="Helvetica,sans-Serif" font-size="10.00">ImTriangulatorNode</text>
</a>
</g>
</g>
<!-- Node1&#45;&gt;Node1 -->
<g id="edge2_Node000001_Node000001" class="edge">
<title>Node1&#45;&gt;Node1</title>
<g id="a_edge2_Node000001_Node000001"><a xlink:title=" ">
<path fill="none" stroke="#9a32cd" stroke-dasharray="5,2" d="M123.55,-23.58C127.58,-22.19 130,-20.25 130,-17.75 130,-13.43 122.77,-10.77 112.46,-9.75"/>
<polygon fill="#9a32cd" stroke="#9a32cd" points="123.09,-20.11 113.95,-25.46 124.43,-26.98 123.09,-20.11"/>
</a>
</g>
<text xml:space="preserve" text-anchor="start" x="133" y="-23" font-family="Helvetica,sans-Serif" font-size="10.00" fill="grey">Next</text>
<text xml:space="preserve" text-anchor="start" x="133" y="-6.25" font-family="Helvetica,sans-Serif" font-size="10.00" fill="grey">Prev</text>
</g>
<!-- Node2 -->
<g id="Node000002" class="node">
<title>Node2</title>
<g id="a_Node000002"><a xlink:href="structImVec2.html" target="_top" xlink:title=" ">
<polygon fill="white" stroke="#666666" points="82,-111 30,-111 30,-90.25 82,-90.25 82,-111"/>
<text xml:space="preserve" text-anchor="middle" x="56" y="-97.5" font-family="Helvetica,sans-Serif" font-size="10.00">ImVec2</text>
</a>
</g>
</g>
<!-- Node2&#45;&gt;Node1 -->
<g id="edge1_Node000001_Node000002" class="edge">
<title>Node2&#45;&gt;Node1</title>
<g id="a_edge1_Node000001_Node000002"><a xlink:title=" ">
<path fill="none" stroke="#9a32cd" stroke-dasharray="5,2" d="M56,-78.94C56,-62.66 56,-40.73 56,-28.33"/>
<polygon fill="#9a32cd" stroke="#9a32cd" points="52.5,-78.52 56,-88.52 59.5,-78.52 52.5,-78.52"/>
</a>
</g>
<text xml:space="preserve" text-anchor="start" x="59" y="-59.75" font-family="Helvetica,sans-Serif" font-size="10.00" fill="grey">Pos</text>
</g>
</g>
</svg>
