<?xml version="1.0" encoding="UTF-8" standalone="no"?>
<!DOCTYPE svg PUBLIC "-//W3C//DTD SVG 1.1//EN"
 "http://www.w3.org/Graphics/SVG/1.1/DTD/svg11.dtd">
<!-- Generated by graphviz version 13.0.0 (0)
 -->
<!-- Title: ImDrawListSharedData Pages: 1 -->
<svg width="1059pt" height="539pt"
 viewBox="0.00 0.00 1059.00 539.00" xmlns="http://www.w3.org/2000/svg" xmlns:xlink="http://www.w3.org/1999/xlink">
<g id="graph0" class="graph" transform="scale(1 1) rotate(0) translate(4 535.12)">
<title>ImDrawListSharedData</title>
<!-- Node1 -->
<g id="Node000001" class="node">
<title>Node1</title>
<g id="a_Node000001"><a xlink:title=" ">
<polygon fill="#999999" stroke="#666666" points="815.88,-442.75 687.38,-442.75 687.38,-422 815.88,-422 815.88,-442.75"/>
<text xml:space="preserve" text-anchor="middle" x="751.62" y="-429.25" font-family="Helvetica,sans-Serif" font-size="10.00">ImDrawListSharedData</text>
</a>
</g>
</g>
<!-- Node2 -->
<g id="Node000002" class="node">
<title>Node2</title>
<g id="a_Node000002"><a xlink:href="structImVec2.html" target="_top" xlink:title=" ">
<polygon fill="white" stroke="#666666" points="73.38,-427.75 21.38,-427.75 21.38,-407 73.38,-407 73.38,-427.75"/>
<text xml:space="preserve" text-anchor="middle" x="47.38" y="-414.25" font-family="Helvetica,sans-Serif" font-size="10.00">ImVec2</text>
</a>
</g>
</g>
<!-- Node2&#45;&gt;Node1 -->
<g id="edge1_Node000001_Node000002" class="edge">
<title>Node2&#45;&gt;Node1</title>
<g id="a_edge1_Node000001_Node000002"><a xlink:title=" ">
<path fill="none" stroke="#9a32cd" stroke-dasharray="5,2" d="M67.76,-435.39C79.75,-445.33 96.02,-456.76 112.75,-462.38 308.92,-528.19 372.41,-491.45 578.25,-470.38 625.5,-465.54 678.73,-452.63 713.37,-443.19"/>
<polygon fill="#9a32cd" stroke="#9a32cd" points="70.11,-432.79 60.27,-428.87 65.52,-438.07 70.11,-432.79"/>
</a>
</g>
<text xml:space="preserve" text-anchor="start" x="398.88" y="-518.62" font-family="Helvetica,sans-Serif" font-size="10.00" fill="grey">ArcFastVtx</text>
<text xml:space="preserve" text-anchor="start" x="398.88" y="-501.87" font-family="Helvetica,sans-Serif" font-size="10.00" fill="grey">TexUvWhitePixel</text>
</g>
<!-- Node9 -->
<g id="Node000009" class="node">
<title>Node9</title>
<g id="a_Node000009"><a xlink:href="structImFontAtlas.html" target="_top" xlink:title=" ">
<polygon fill="white" stroke="#666666" points="327.88,-114.75 253.38,-114.75 253.38,-94 327.88,-94 327.88,-114.75"/>
<text xml:space="preserve" text-anchor="middle" x="290.62" y="-101.25" font-family="Helvetica,sans-Serif" font-size="10.00">ImFontAtlas</text>
</a>
</g>
</g>
<!-- Node2&#45;&gt;Node9 -->
<g id="edge10_Node000009_Node000002" class="edge">
<title>Node2&#45;&gt;Node9</title>
<g id="a_edge10_Node000009_Node000002"><a xlink:title=" ">
<path fill="none" stroke="#9a32cd" stroke-dasharray="5,2" d="M62.33,-397.64C74.39,-381.54 92.96,-358.93 112.75,-342.88 147.36,-314.8 175.71,-331.4 200.5,-294.38 239.58,-236.01 177.39,-194.32 218.5,-137.38 226.79,-125.9 240.08,-118.3 252.94,-113.32"/>
<polygon fill="#9a32cd" stroke="#9a32cd" points="59.68,-395.34 56.6,-405.48 65.33,-399.47 59.68,-395.34"/>
</a>
</g>
<text xml:space="preserve" text-anchor="start" x="115.75" y="-365.88" font-family="Helvetica,sans-Serif" font-size="10.00" fill="grey">TexUvScale</text>
<text xml:space="preserve" text-anchor="start" x="115.75" y="-349.12" font-family="Helvetica,sans-Serif" font-size="10.00" fill="grey">TexUvWhitePixel</text>
</g>
<!-- Node12 -->
<g id="Node000012" class="node">
<title>Node12</title>
<g id="a_Node000012"><a xlink:href="structImFontAtlasCustomRect.html" target="_top" xlink:title=" ">
<polygon fill="white" stroke="#666666" points="818.5,-270.75 684.75,-270.75 684.75,-250 818.5,-250 818.5,-270.75"/>
<text xml:space="preserve" text-anchor="middle" x="751.62" y="-257.25" font-family="Helvetica,sans-Serif" font-size="10.00">ImFontAtlasCustomRect</text>
</a>
</g>
</g>
<!-- Node2&#45;&gt;Node12 -->
<g id="edge15_Node000012_Node000002" class="edge">
<title>Node2&#45;&gt;Node12</title>
<g id="a_edge15_Node000012_Node000002"><a xlink:title=" ">
<path fill="none" stroke="#9a32cd" stroke-dasharray="5,2" d="M84.91,-415.41C115.83,-413.41 161.26,-409.69 200.5,-403.38 281.69,-390.3 299.63,-375.11 380.75,-361.62 506.79,-340.67 549.34,-382.8 666.75,-332.38 699.02,-318.52 728.01,-287.68 741.93,-271.22"/>
<polygon fill="#9a32cd" stroke="#9a32cd" points="85.09,-411.89 75.32,-416 85.52,-418.88 85.09,-411.89"/>
</a>
</g>
<text xml:space="preserve" text-anchor="start" x="410.88" y="-367.88" font-family="Helvetica,sans-Serif" font-size="10.00" fill="grey">GlyphOffset</text>
</g>
<!-- Node14 -->
<g id="Node000014" class="node">
<title>Node14</title>
<g id="a_Node000014"><a xlink:href="structImFontConfig.html" target="_top" xlink:title=" ">
<polygon fill="white" stroke="#666666" points="791.88,-207.75 711.38,-207.75 711.38,-187 791.88,-187 791.88,-207.75"/>
<text xml:space="preserve" text-anchor="middle" x="751.62" y="-194.25" font-family="Helvetica,sans-Serif" font-size="10.00">ImFontConfig</text>
</a>
</g>
</g>
<!-- Node2&#45;&gt;Node14 -->
<g id="edge19_Node000014_Node000002" class="edge">
<title>Node2&#45;&gt;Node14</title>
<g id="a_edge19_Node000014_Node000002"><a xlink:title=" ">
<path fill="none" stroke="#9a32cd" stroke-dasharray="5,2" d="M84.95,-410.2C123.34,-402.29 180.81,-389.23 200.5,-378.38 210.14,-373.06 208.73,-366.44 218.5,-361.38 398.95,-267.76 499.87,-386.46 666.75,-270.38 679.2,-261.71 674.2,-252.28 684.75,-241.38 697.94,-227.73 716.06,-216.01 729.95,-208.11"/>
<polygon fill="#9a32cd" stroke="#9a32cd" points="84.3,-406.76 75.2,-412.18 85.69,-413.62 84.3,-406.76"/>
</a>
</g>
<text xml:space="preserve" text-anchor="start" x="410.88" y="-331.85" font-family="Helvetica,sans-Serif" font-size="10.00" fill="grey">GlyphOffset</text>
</g>
<!-- Node16 -->
<g id="Node000016" class="node">
<title>Node16</title>
<g id="a_Node000016"><a xlink:href="structImVector.html" target="_top" xlink:title=" ">
<polygon fill="white" stroke="#666666" points="498.75,-463.75 380.75,-463.75 380.75,-443 498.75,-443 498.75,-463.75"/>
<text xml:space="preserve" text-anchor="middle" x="439.75" y="-450.25" font-family="Helvetica,sans-Serif" font-size="10.00">ImVector&lt; ImVec2 &gt;</text>
</a>
</g>
</g>
<!-- Node2&#45;&gt;Node16 -->
<g id="edge25_Node000016_Node000002" class="edge">
<title>Node2&#45;&gt;Node16</title>
<g id="a_edge25_Node000016_Node000002"><a xlink:title=" ">
<path fill="none" stroke="#9a32cd" stroke-dasharray="5,2" d="M84.71,-425.56C93.83,-427.38 103.61,-429.14 112.75,-430.38 205.94,-443.02 315.12,-448.93 380.51,-451.53"/>
<polygon fill="#9a32cd" stroke="#9a32cd" points="85.61,-422.17 75.11,-423.57 84.18,-429.03 85.61,-422.17"/>
</a>
</g>
<text xml:space="preserve" text-anchor="start" x="145" y="-445.92" font-family="Helvetica,sans-Serif" font-size="10.00" fill="grey">Data</text>
</g>
<!-- Node3 -->
<g id="Node000003" class="node">
<title>Node3</title>
<g id="a_Node000003"><a xlink:href="structImVec4.html" target="_top" xlink:title=" ">
<polygon fill="white" stroke="#666666" points="73.38,-215.75 21.38,-215.75 21.38,-195 73.38,-195 73.38,-215.75"/>
<text xml:space="preserve" text-anchor="middle" x="47.38" y="-202.25" font-family="Helvetica,sans-Serif" font-size="10.00">ImVec4</text>
</a>
</g>
</g>
<!-- Node3&#45;&gt;Node1 -->
<g id="edge2_Node000001_Node000003" class="edge">
<title>Node3&#45;&gt;Node1</title>
<g id="a_edge2_Node000001_Node000003"><a xlink:title=" ">
<path fill="none" stroke="#9a32cd" stroke-dasharray="5,2" d="M78.92,-222.45C85.02,-227.18 90.77,-232.85 94.75,-239.38 121.45,-283.17 75.77,-317.82 112.75,-353.38 175.01,-413.24 413.05,-388.13 498.75,-398.88 562.87,-406.92 636.09,-416.73 687,-423.65"/>
<polygon fill="#9a32cd" stroke="#9a32cd" points="81.34,-219.87 71.13,-217.05 77.35,-225.62 81.34,-219.87"/>
</a>
</g>
<text xml:space="preserve" text-anchor="start" x="394.75" y="-421.88" font-family="Helvetica,sans-Serif" font-size="10.00" fill="grey">ClipRectFullscreen</text>
<text xml:space="preserve" text-anchor="start" x="394.75" y="-405.12" font-family="Helvetica,sans-Serif" font-size="10.00" fill="grey">TexUvLines</text>
</g>
<!-- Node3&#45;&gt;Node9 -->
<g id="edge21_Node000009_Node000003" class="edge">
<title>Node3&#45;&gt;Node9</title>
<g id="a_edge21_Node000009_Node000003"><a xlink:title=" ">
<path fill="none" stroke="#9a32cd" stroke-dasharray="5,2" d="M84.21,-190.37C133.4,-169.78 220.65,-133.25 263.88,-115.15"/>
<polygon fill="#9a32cd" stroke="#9a32cd" points="83.01,-187.08 75.13,-194.17 85.71,-193.54 83.01,-187.08"/>
</a>
</g>
<text xml:space="preserve" text-anchor="start" x="128.88" y="-184.54" font-family="Helvetica,sans-Serif" font-size="10.00" fill="grey">TexUvLines</text>
</g>
<!-- Node4 -->
<g id="Node000004" class="node">
<title>Node4</title>
<g id="a_Node000004"><a xlink:href="structImFont.html" target="_top" xlink:title=" ">
<polygon fill="white" stroke="#666666" points="572.38,-223.75 522.62,-223.75 522.62,-203 572.38,-203 572.38,-223.75"/>
<text xml:space="preserve" text-anchor="middle" x="547.5" y="-210.25" font-family="Helvetica,sans-Serif" font-size="10.00">ImFont</text>
</a>
</g>
</g>
<!-- Node4&#45;&gt;Node1 -->
<g id="edge3_Node000001_Node000004" class="edge">
<title>Node4&#45;&gt;Node1</title>
<g id="a_edge3_Node000001_Node000004"><a xlink:title=" ">
<path fill="none" stroke="#9a32cd" stroke-dasharray="5,2" d="M564.37,-232.94C573.52,-244.06 585.34,-258.17 596.25,-270.38 648.54,-328.89 714.43,-395.93 739.9,-421.6"/>
<polygon fill="#9a32cd" stroke="#9a32cd" points="567.1,-230.75 558.06,-225.22 561.68,-235.18 567.1,-230.75"/>
</a>
</g>
<text xml:space="preserve" text-anchor="start" x="621" y="-348.69" font-family="Helvetica,sans-Serif" font-size="10.00" fill="grey">Font</text>
</g>
<!-- Node10 -->
<g id="Node000010" class="node">
<title>Node10</title>
<g id="a_Node000010"><a xlink:href="structImVector.html" target="_top" xlink:title=" ">
<polygon fill="white" stroke="#666666" points="813.62,-128.75 689.62,-128.75 689.62,-108 813.62,-108 813.62,-128.75"/>
<text xml:space="preserve" text-anchor="middle" x="751.62" y="-115.25" font-family="Helvetica,sans-Serif" font-size="10.00">ImVector&lt; ImFont * &gt;</text>
</a>
</g>
</g>
<!-- Node4&#45;&gt;Node10 -->
<g id="edge12_Node000010_Node000004" class="edge">
<title>Node4&#45;&gt;Node10</title>
<g id="a_edge12_Node000010_Node000004"><a xlink:title=" ">
<path fill="none" stroke="#9a32cd" stroke-dasharray="5,2" d="M558.53,-192.55C566.66,-177.96 579.51,-159.22 596.25,-148.62 623.82,-131.17 659.29,-123.42 689.28,-120.11"/>
<polygon fill="#9a32cd" stroke="#9a32cd" points="555.46,-190.88 553.95,-201.37 561.67,-194.11 555.46,-190.88"/>
</a>
</g>
<text xml:space="preserve" text-anchor="start" x="619.88" y="-154.88" font-family="Helvetica,sans-Serif" font-size="10.00" fill="grey">Data</text>
</g>
<!-- Node4&#45;&gt;Node12 -->
<g id="edge16_Node000012_Node000004" class="edge">
<title>Node4&#45;&gt;Node12</title>
<g id="a_edge16_Node000012_Node000004"><a xlink:title=" ">
<path fill="none" stroke="#9a32cd" stroke-dasharray="5,2" d="M583.08,-228.07C587.47,-229.65 591.93,-231.14 596.25,-232.38 624.79,-240.55 657.01,-246.84 684.61,-251.37"/>
<polygon fill="#9a32cd" stroke="#9a32cd" points="584.47,-224.85 573.88,-224.54 581.96,-231.39 584.47,-224.85"/>
</a>
</g>
<text xml:space="preserve" text-anchor="start" x="621" y="-253.92" font-family="Helvetica,sans-Serif" font-size="10.00" fill="grey">Font</text>
</g>
<!-- Node4&#45;&gt;Node14 -->
<g id="edge20_Node000014_Node000004" class="edge">
<title>Node4&#45;&gt;Node14</title>
<g id="a_edge20_Node000014_Node000004"><a xlink:title=" ">
<path fill="none" stroke="#9a32cd" stroke-dasharray="5,2" d="M567.06,-195.07C575.3,-188.2 585.54,-181.19 596.25,-177.62 638.81,-163.46 691.08,-175.97 722.58,-186.52"/>
<polygon fill="#9a32cd" stroke="#9a32cd" points="564.92,-192.29 559.83,-201.57 569.6,-197.49 564.92,-192.29"/>
</a>
</g>
<text xml:space="preserve" text-anchor="start" x="612.75" y="-183.88" font-family="Helvetica,sans-Serif" font-size="10.00" fill="grey">DstFont</text>
</g>
<!-- Node5 -->
<g id="Node000005" class="node">
<title>Node5</title>
<g id="a_Node000005"><a xlink:href="structImVector.html" target="_top" xlink:title=" ">
<polygon fill="white" stroke="#666666" points="342.5,-205.75 238.75,-205.75 238.75,-185 342.5,-185 342.5,-205.75"/>
<text xml:space="preserve" text-anchor="middle" x="290.62" y="-192.25" font-family="Helvetica,sans-Serif" font-size="10.00">ImVector&lt; float &gt;</text>
</a>
</g>
</g>
<!-- Node5&#45;&gt;Node4 -->
<g id="edge4_Node000004_Node000005" class="edge">
<title>Node5&#45;&gt;Node4</title>
<g id="a_edge4_Node000004_Node000005"><a xlink:title=" ">
<path fill="none" stroke="#9a32cd" stroke-dasharray="5,2" d="M354.21,-198.8C395.33,-201.2 450.27,-204.66 498.75,-208.62 506.39,-209.25 514.7,-210.04 522.22,-210.79"/>
<polygon fill="#9a32cd" stroke="#9a32cd" points="354.43,-195.31 344.24,-198.23 354.03,-202.3 354.43,-195.31"/>
</a>
</g>
<text xml:space="preserve" text-anchor="start" x="401.88" y="-214.88" font-family="Helvetica,sans-Serif" font-size="10.00" fill="grey">IndexAdvanceX</text>
</g>
<!-- Node6 -->
<g id="Node000006" class="node">
<title>Node6</title>
<g id="a_Node000006"><a xlink:href="structImVector.html" target="_top" xlink:title=" ">
<polygon fill="white" stroke="#666666" points="347.75,-166.75 233.5,-166.75 233.5,-146 347.75,-146 347.75,-166.75"/>
<text xml:space="preserve" text-anchor="middle" x="290.62" y="-153.25" font-family="Helvetica,sans-Serif" font-size="10.00">ImVector&lt; ImU16 &gt;</text>
</a>
</g>
</g>
<!-- Node6&#45;&gt;Node4 -->
<g id="edge5_Node000004_Node000006" class="edge">
<title>Node6&#45;&gt;Node4</title>
<g id="a_edge5_Node000004_Node000006"><a xlink:title=" ">
<path fill="none" stroke="#9a32cd" stroke-dasharray="5,2" d="M359.41,-154.29C400.93,-155.18 454.43,-160.31 498.75,-177.62 513.03,-183.2 526.75,-194.28 535.8,-202.63"/>
<polygon fill="#9a32cd" stroke="#9a32cd" points="359.59,-150.79 349.54,-154.16 359.5,-157.79 359.59,-150.79"/>
</a>
</g>
<text xml:space="preserve" text-anchor="start" x="409" y="-183.88" font-family="Helvetica,sans-Serif" font-size="10.00" fill="grey">IndexLookup</text>
</g>
<!-- Node7 -->
<g id="Node000007" class="node">
<title>Node7</title>
<g id="a_Node000007"><a xlink:href="structImVector.html" target="_top" xlink:title=" ">
<polygon fill="white" stroke="#666666" points="362.75,-298.75 218.5,-298.75 218.5,-278 362.75,-278 362.75,-298.75"/>
<text xml:space="preserve" text-anchor="middle" x="290.62" y="-285.25" font-family="Helvetica,sans-Serif" font-size="10.00">ImVector&lt; ImFontGlyph &gt;</text>
</a>
</g>
</g>
<!-- Node7&#45;&gt;Node4 -->
<g id="edge6_Node000004_Node000007" class="edge">
<title>Node7&#45;&gt;Node4</title>
<g id="a_edge6_Node000004_Node000007"><a xlink:title=" ">
<path fill="none" stroke="#9a32cd" stroke-dasharray="5,2" d="M374.28,-276.51C426.88,-268.6 487.22,-258.7 498.75,-253.38 513.87,-246.4 528.08,-233.34 537,-224.04"/>
<polygon fill="#9a32cd" stroke="#9a32cd" points="374.06,-273 364.69,-277.94 375.09,-279.93 374.06,-273"/>
</a>
</g>
<text xml:space="preserve" text-anchor="start" x="422.88" y="-281.69" font-family="Helvetica,sans-Serif" font-size="10.00" fill="grey">Glyphs</text>
</g>
<!-- Node8 -->
<g id="Node000008" class="node">
<title>Node8</title>
<g id="a_Node000008"><a xlink:href="structImFontGlyph.html" target="_top" xlink:title=" ">
<polygon fill="white" stroke="#666666" points="86.5,-268.75 8.25,-268.75 8.25,-248 86.5,-248 86.5,-268.75"/>
<text xml:space="preserve" text-anchor="middle" x="47.38" y="-255.25" font-family="Helvetica,sans-Serif" font-size="10.00">ImFontGlyph</text>
</a>
</g>
</g>
<!-- Node8&#45;&gt;Node4 -->
<g id="edge8_Node000004_Node000008" class="edge">
<title>Node8&#45;&gt;Node4</title>
<g id="a_edge8_Node000004_Node000008"><a xlink:title=" ">
<path fill="none" stroke="#9a32cd" stroke-dasharray="5,2" d="M98.18,-256.31C198.78,-251.91 423.05,-240.91 498.75,-227.38 506.57,-225.98 514.94,-223.77 522.45,-221.53"/>
<polygon fill="#9a32cd" stroke="#9a32cd" points="98.18,-252.8 88.34,-256.73 98.49,-259.8 98.18,-252.8"/>
</a>
</g>
<text xml:space="preserve" text-anchor="start" x="256.5" y="-256.47" font-family="Helvetica,sans-Serif" font-size="10.00" fill="grey">FallbackGlyph</text>
</g>
<!-- Node8&#45;&gt;Node7 -->
<g id="edge7_Node000007_Node000008" class="edge">
<title>Node8&#45;&gt;Node7</title>
<g id="a_edge7_Node000007_Node000008"><a xlink:title=" ">
<path fill="none" stroke="#9a32cd" stroke-dasharray="5,2" d="M98.21,-263.65C127.93,-266.9 166.4,-271.25 200.5,-275.62 206.24,-276.36 212.18,-277.15 218.14,-277.96"/>
<polygon fill="#9a32cd" stroke="#9a32cd" points="98.69,-260.19 88.37,-262.59 97.93,-267.15 98.69,-260.19"/>
</a>
</g>
<text xml:space="preserve" text-anchor="start" x="145" y="-281.88" font-family="Helvetica,sans-Serif" font-size="10.00" fill="grey">Data</text>
</g>
<!-- Node9&#45;&gt;Node4 -->
<g id="edge9_Node000004_Node000009" class="edge">
<title>Node9&#45;&gt;Node4</title>
<g id="a_edge9_Node000004_Node000009"><a xlink:title=" ">
<path fill="none" stroke="#9a32cd" stroke-dasharray="5,2" d="M339.84,-106.15C392.72,-108.92 473.45,-115.83 498.75,-132.62 524.12,-149.47 537.91,-184.79 543.49,-202.61"/>
<polygon fill="#9a32cd" stroke="#9a32cd" points="340.03,-102.65 329.87,-105.66 339.69,-109.65 340.03,-102.65"/>
</a>
</g>
<text xml:space="preserve" text-anchor="start" x="403.75" y="-138.88" font-family="Helvetica,sans-Serif" font-size="10.00" fill="grey">ContainerAtlas</text>
</g>
<!-- Node10&#45;&gt;Node9 -->
<g id="edge11_Node000009_Node000010" class="edge">
<title>Node10&#45;&gt;Node9</title>
<g id="a_edge11_Node000009_Node000010"><a xlink:title=" ">
<path fill="none" stroke="#9a32cd" stroke-dasharray="5,2" d="M677.92,-113.72C627.62,-110.72 559.15,-107.08 498.75,-105.38 439.08,-103.69 369.7,-103.77 328.3,-104.03"/>
<polygon fill="#9a32cd" stroke="#9a32cd" points="677.62,-117.21 687.81,-114.32 678.04,-110.22 677.62,-117.21"/>
</a>
</g>
<text xml:space="preserve" text-anchor="start" x="534.38" y="-114.54" font-family="Helvetica,sans-Serif" font-size="10.00" fill="grey">Fonts</text>
</g>
<!-- Node11 -->
<g id="Node000011" class="node">
<title>Node11</title>
<g id="a_Node000011"><a xlink:href="structImVector.html" target="_top" xlink:title=" ">
<polygon fill="white" stroke="#666666" points="1050.5,-83.12 883.75,-83.12 883.75,-49.62 1050.5,-49.62 1050.5,-83.12"/>
<text xml:space="preserve" text-anchor="start" x="891.75" y="-69.62" font-family="Helvetica,sans-Serif" font-size="10.00">ImVector&lt; ImFontAtlasCustom</text>
<text xml:space="preserve" text-anchor="middle" x="967.12" y="-56.88" font-family="Helvetica,sans-Serif" font-size="10.00">Rect &gt;</text>
</a>
</g>
</g>
<!-- Node11&#45;&gt;Node9 -->
<g id="edge13_Node000009_Node000011" class="edge">
<title>Node11&#45;&gt;Node9</title>
<g id="a_edge13_Node000009_Node000011"><a xlink:title=" ">
<path fill="none" stroke="#9a32cd" stroke-dasharray="5,2" d="M872.24,-71.42C797.47,-75.47 690.15,-81.32 596.25,-86.62 499.46,-92.09 385.38,-98.81 328.2,-102.2"/>
<polygon fill="#9a32cd" stroke="#9a32cd" points="872.18,-74.93 881.98,-70.9 871.8,-67.94 872.18,-74.93"/>
</a>
</g>
<text xml:space="preserve" text-anchor="start" x="599.25" y="-92.88" font-family="Helvetica,sans-Serif" font-size="10.00" fill="grey">CustomRects</text>
</g>
<!-- Node12&#45;&gt;Node11 -->
<g id="edge14_Node000011_Node000012" class="edge">
<title>Node12&#45;&gt;Node11</title>
<g id="a_edge14_Node000011_Node000012"><a xlink:title=" ">
<path fill="none" stroke="#9a32cd" stroke-dasharray="5,2" d="M780.53,-243.53C792.61,-235.79 806.66,-226.17 818.5,-216.38 871.43,-172.59 926.23,-112.22 951.61,-83.24"/>
<polygon fill="#9a32cd" stroke="#9a32cd" points="778.83,-240.47 772.22,-248.75 782.55,-246.4 778.83,-240.47"/>
</a>
</g>
<text xml:space="preserve" text-anchor="start" x="839.5" y="-203.94" font-family="Helvetica,sans-Serif" font-size="10.00" fill="grey">Data</text>
</g>
<!-- Node13 -->
<g id="Node000013" class="node">
<title>Node13</title>
<g id="a_Node000013"><a xlink:href="structImVector.html" target="_top" xlink:title=" ">
<polygon fill="white" stroke="#666666" points="1040.38,-20.75 893.88,-20.75 893.88,0 1040.38,0 1040.38,-20.75"/>
<text xml:space="preserve" text-anchor="middle" x="967.12" y="-7.25" font-family="Helvetica,sans-Serif" font-size="10.00">ImVector&lt; ImFontConfig &gt;</text>
</a>
</g>
</g>
<!-- Node13&#45;&gt;Node9 -->
<g id="edge17_Node000009_Node000013" class="edge">
<title>Node13&#45;&gt;Node9</title>
<g id="a_edge17_Node000009_Node000013"><a xlink:title=" ">
<path fill="none" stroke="#9a32cd" stroke-dasharray="5,2" d="M882.03,-20.36C768.18,-34.17 558.74,-60.54 380.75,-88.38 363.35,-91.1 344.12,-94.5 327.99,-97.47"/>
<polygon fill="#9a32cd" stroke="#9a32cd" points="882.41,-23.84 891.92,-19.17 881.57,-16.9 882.41,-23.84"/>
</a>
</g>
<text xml:space="preserve" text-anchor="start" x="612.38" y="-63.22" font-family="Helvetica,sans-Serif" font-size="10.00" fill="grey">Sources</text>
</g>
<!-- Node14&#45;&gt;Node4 -->
<g id="edge23_Node000004_Node000014" class="edge">
<title>Node14&#45;&gt;Node4</title>
<g id="a_edge23_Node000004_Node000014"><a xlink:title=" ">
<path fill="none" stroke="#9a32cd" stroke-dasharray="5,2" d="M699.71,-201.41C658.97,-204.63 603.67,-209.01 572.48,-211.48"/>
<polygon fill="#9a32cd" stroke="#9a32cd" points="699.85,-204.91 709.54,-200.63 699.3,-197.93 699.85,-204.91"/>
</a>
</g>
<text xml:space="preserve" text-anchor="start" x="612.38" y="-215.76" font-family="Helvetica,sans-Serif" font-size="10.00" fill="grey">Sources</text>
</g>
<!-- Node14&#45;&gt;Node13 -->
<g id="edge18_Node000013_Node000014" class="edge">
<title>Node14&#45;&gt;Node13</title>
<g id="a_edge18_Node000013_Node000014"><a xlink:title=" ">
<path fill="none" stroke="#9a32cd" stroke-dasharray="5,2" d="M774.99,-179.35C788.37,-168.02 805.28,-152.69 818.5,-137.38 852.45,-98.04 842.83,-72.39 883.75,-40.38 894.54,-31.93 907.92,-25.72 920.74,-21.21"/>
<polygon fill="#9a32cd" stroke="#9a32cd" points="773,-176.46 767.55,-185.54 777.48,-181.84 773,-176.46"/>
</a>
</g>
<text xml:space="preserve" text-anchor="start" x="839.5" y="-117.39" font-family="Helvetica,sans-Serif" font-size="10.00" fill="grey">Data</text>
</g>
<!-- Node15 -->
<g id="Node000015" class="node">
<title>Node15</title>
<g id="a_Node000015"><a xlink:href="structImFontBuilderIO.html" target="_top" xlink:title=" ">
<polygon fill="white" stroke="#666666" points="94.75,-114.75 0,-114.75 0,-94 94.75,-94 94.75,-114.75"/>
<text xml:space="preserve" text-anchor="middle" x="47.38" y="-101.25" font-family="Helvetica,sans-Serif" font-size="10.00">ImFontBuilderIO</text>
</a>
</g>
</g>
<!-- Node15&#45;&gt;Node9 -->
<g id="edge22_Node000009_Node000015" class="edge">
<title>Node15&#45;&gt;Node9</title>
<g id="a_edge22_Node000009_Node000015"><a xlink:title=" ">
<path fill="none" stroke="#9a32cd" stroke-dasharray="5,2" d="M106.4,-104.38C152.07,-104.38 214.28,-104.38 253.19,-104.38"/>
<polygon fill="#9a32cd" stroke="#9a32cd" points="106.69,-100.88 96.69,-104.38 106.69,-107.88 106.69,-100.88"/>
</a>
</g>
<text xml:space="preserve" text-anchor="start" x="123.62" y="-110.62" font-family="Helvetica,sans-Serif" font-size="10.00" fill="grey">FontBuilderIO</text>
</g>
<!-- Node16&#45;&gt;Node1 -->
<g id="edge24_Node000001_Node000016" class="edge">
<title>Node16&#45;&gt;Node1</title>
<g id="a_edge24_Node000001_Node000016"><a xlink:title=" ">
<path fill="none" stroke="#9a32cd" stroke-dasharray="5,2" d="M510.36,-448.66C563.31,-445.07 635.58,-440.17 687,-436.69"/>
<polygon fill="#9a32cd" stroke="#9a32cd" points="510.29,-445.15 500.55,-449.32 510.76,-452.14 510.29,-445.15"/>
</a>
</g>
<text xml:space="preserve" text-anchor="start" x="519.75" y="-454.31" font-family="Helvetica,sans-Serif" font-size="10.00" fill="grey">TempBuffer</text>
</g>
</g>
</svg>
