<?xml version="1.0" encoding="UTF-8" standalone="no"?>
<!DOCTYPE svg PUBLIC "-//W3C//DTD SVG 1.1//EN"
 "http://www.w3.org/Graphics/SVG/1.1/DTD/svg11.dtd">
<!-- Generated by graphviz version 13.0.0 (0)
 -->
<!-- Title: ImStb::STB_TexteditState Pages: 1 -->
<svg width="147pt" height="180pt"
 viewBox="0.00 0.00 147.00 180.00" xmlns="http://www.w3.org/2000/svg" xmlns:xlink="http://www.w3.org/1999/xlink">
<g id="graph0" class="graph" transform="scale(1 1) rotate(0) translate(4 175.75)">
<title>ImStb::STB_TexteditState</title>
<!-- Node1 -->
<g id="Node000001" class="node">
<title>Node1</title>
<g id="a_Node000001"><a xlink:title=" ">
<polygon fill="#999999" stroke="#666666" points="139,-20.75 0,-20.75 0,0 139,0 139,-20.75"/>
<text xml:space="preserve" text-anchor="middle" x="69.5" y="-7.25" font-family="Helvetica,sans-Serif" font-size="10.00">ImStb::STB_TexteditState</text>
</a>
</g>
</g>
<!-- Node2 -->
<g id="Node000002" class="node">
<title>Node2</title>
<g id="a_Node000002"><a xlink:href="structImStb_1_1StbUndoState.html" target="_top" xlink:title=" ">
<polygon fill="white" stroke="#666666" points="128.12,-96.25 10.88,-96.25 10.88,-75.5 128.12,-75.5 128.12,-96.25"/>
<text xml:space="preserve" text-anchor="middle" x="69.5" y="-82.75" font-family="Helvetica,sans-Serif" font-size="10.00">ImStb::StbUndoState</text>
</a>
</g>
</g>
<!-- Node2&#45;&gt;Node1 -->
<g id="edge1_Node000001_Node000002" class="edge">
<title>Node2&#45;&gt;Node1</title>
<g id="a_edge1_Node000001_Node000002"><a xlink:title=" ">
<path fill="none" stroke="#9a32cd" stroke-dasharray="5,2" d="M69.5,-63.76C69.5,-49.76 69.5,-32.05 69.5,-21.22"/>
<polygon fill="#9a32cd" stroke="#9a32cd" points="66,-63.75 69.5,-73.75 73,-63.75 66,-63.75"/>
</a>
</g>
<text xml:space="preserve" text-anchor="start" x="72.5" y="-45" font-family="Helvetica,sans-Serif" font-size="10.00" fill="grey">undostate</text>
</g>
<!-- Node3 -->
<g id="Node000003" class="node">
<title>Node3</title>
<g id="a_Node000003"><a xlink:href="structImStb_1_1StbUndoRecord.html" target="_top" xlink:title=" ">
<polygon fill="white" stroke="#666666" points="132.25,-171.75 6.75,-171.75 6.75,-151 132.25,-151 132.25,-171.75"/>
<text xml:space="preserve" text-anchor="middle" x="69.5" y="-158.25" font-family="Helvetica,sans-Serif" font-size="10.00">ImStb::StbUndoRecord</text>
</a>
</g>
</g>
<!-- Node3&#45;&gt;Node2 -->
<g id="edge2_Node000002_Node000003" class="edge">
<title>Node3&#45;&gt;Node2</title>
<g id="a_edge2_Node000002_Node000003"><a xlink:title=" ">
<path fill="none" stroke="#9a32cd" stroke-dasharray="5,2" d="M69.5,-139.26C69.5,-125.26 69.5,-107.55 69.5,-96.72"/>
<polygon fill="#9a32cd" stroke="#9a32cd" points="66,-139.25 69.5,-149.25 73,-139.25 66,-139.25"/>
</a>
</g>
<text xml:space="preserve" text-anchor="start" x="72.5" y="-120.5" font-family="Helvetica,sans-Serif" font-size="10.00" fill="grey">undo_rec</text>
</g>
</g>
</svg>
