<?xml version="1.0" encoding="UTF-8" standalone="no"?>
<!DOCTYPE svg PUBLIC "-//W3C//DTD SVG 1.1//EN"
 "http://www.w3.org/Graphics/SVG/1.1/DTD/svg11.dtd">
<!-- Generated by graphviz version 13.0.0 (0)
 -->
<!-- Title: ExampleAppLog Pages: 1 -->
<svg width="352pt" height="281pt"
 viewBox="0.00 0.00 352.00 281.00" xmlns="http://www.w3.org/2000/svg" xmlns:xlink="http://www.w3.org/1999/xlink">
<g id="graph0" class="graph" transform="scale(1 1) rotate(0) translate(4 276.75)">
<title>ExampleAppLog</title>
<!-- Node1 -->
<g id="Node000001" class="node">
<title>Node1</title>
<g id="a_Node000001"><a xlink:title=" ">
<polygon fill="#999999" stroke="#666666" points="232.88,-20.75 138.12,-20.75 138.12,0 232.88,0 232.88,-20.75"/>
<text xml:space="preserve" text-anchor="middle" x="185.5" y="-7.25" font-family="Helvetica,sans-Serif" font-size="10.00">ExampleAppLog</text>
</a>
</g>
</g>
<!-- Node2 -->
<g id="Node000002" class="node">
<title>Node2</title>
<g id="a_Node000002"><a xlink:href="structImGuiTextBuffer.html" target="_top" xlink:title=" ">
<polygon fill="white" stroke="#666666" points="113.88,-96.25 19.12,-96.25 19.12,-75.5 113.88,-75.5 113.88,-96.25"/>
<text xml:space="preserve" text-anchor="middle" x="66.5" y="-82.75" font-family="Helvetica,sans-Serif" font-size="10.00">ImGuiTextBuffer</text>
</a>
</g>
</g>
<!-- Node2&#45;&gt;Node1 -->
<g id="edge1_Node000001_Node000002" class="edge">
<title>Node2&#45;&gt;Node1</title>
<g id="a_edge1_Node000001_Node000002"><a xlink:title=" ">
<path fill="none" stroke="#9a32cd" stroke-dasharray="5,2" d="M91.71,-69.31C115.23,-54.78 149.62,-33.54 169.56,-21.22"/>
<polygon fill="#9a32cd" stroke="#9a32cd" points="90.01,-66.24 83.34,-74.47 93.69,-72.19 90.01,-66.24"/>
</a>
</g>
<text xml:space="preserve" text-anchor="start" x="143.16" y="-45" font-family="Helvetica,sans-Serif" font-size="10.00" fill="grey">Buf</text>
</g>
<!-- Node3 -->
<g id="Node000003" class="node">
<title>Node3</title>
<g id="a_Node000003"><a xlink:href="structImVector.html" target="_top" xlink:title=" ">
<polygon fill="white" stroke="#666666" points="103,-178.12 0,-178.12 0,-157.38 103,-157.38 103,-178.12"/>
<text xml:space="preserve" text-anchor="middle" x="51.5" y="-164.62" font-family="Helvetica,sans-Serif" font-size="10.00">ImVector&lt; char &gt;</text>
</a>
</g>
</g>
<!-- Node3&#45;&gt;Node2 -->
<g id="edge2_Node000002_Node000003" class="edge">
<title>Node3&#45;&gt;Node2</title>
<g id="a_edge2_Node000002_Node000003"><a xlink:title=" ">
<path fill="none" stroke="#9a32cd" stroke-dasharray="5,2" d="M55.38,-146.1C58.36,-130.22 62.34,-109 64.65,-96.75"/>
<polygon fill="#9a32cd" stroke="#9a32cd" points="52.02,-144.99 53.62,-155.47 58.9,-146.29 52.02,-144.99"/>
</a>
</g>
<text xml:space="preserve" text-anchor="start" x="64.22" y="-120.5" font-family="Helvetica,sans-Serif" font-size="10.00" fill="grey">Buf</text>
</g>
<!-- Node4 -->
<g id="Node000004" class="node">
<title>Node4</title>
<g id="a_Node000004"><a xlink:href="structImGuiTextFilter.html" target="_top" xlink:title=" ">
<polygon fill="white" stroke="#666666" points="230.62,-96.25 140.38,-96.25 140.38,-75.5 230.62,-75.5 230.62,-96.25"/>
<text xml:space="preserve" text-anchor="middle" x="185.5" y="-82.75" font-family="Helvetica,sans-Serif" font-size="10.00">ImGuiTextFilter</text>
</a>
</g>
</g>
<!-- Node4&#45;&gt;Node1 -->
<g id="edge3_Node000001_Node000004" class="edge">
<title>Node4&#45;&gt;Node1</title>
<g id="a_edge3_Node000001_Node000004"><a xlink:title=" ">
<path fill="none" stroke="#9a32cd" stroke-dasharray="5,2" d="M185.5,-63.76C185.5,-49.76 185.5,-32.05 185.5,-21.22"/>
<polygon fill="#9a32cd" stroke="#9a32cd" points="182,-63.75 185.5,-73.75 189,-63.75 182,-63.75"/>
</a>
</g>
<text xml:space="preserve" text-anchor="start" x="188.5" y="-45" font-family="Helvetica,sans-Serif" font-size="10.00" fill="grey">Filter</text>
</g>
<!-- Node5 -->
<g id="Node000005" class="node">
<title>Node5</title>
<g id="a_Node000005"><a xlink:href="structImVector.html" target="_top" xlink:title=" ">
<polygon fill="white" stroke="#666666" points="266,-184.5 121,-184.5 121,-151 266,-151 266,-184.5"/>
<text xml:space="preserve" text-anchor="start" x="129" y="-171" font-family="Helvetica,sans-Serif" font-size="10.00">ImVector&lt; ImGuiTextFilter</text>
<text xml:space="preserve" text-anchor="middle" x="193.5" y="-158.25" font-family="Helvetica,sans-Serif" font-size="10.00">::ImGuiTextRange &gt;</text>
</a>
</g>
</g>
<!-- Node5&#45;&gt;Node4 -->
<g id="edge4_Node000004_Node000005" class="edge">
<title>Node5&#45;&gt;Node4</title>
<g id="a_edge4_Node000004_Node000005"><a xlink:title=" ">
<path fill="none" stroke="#9a32cd" stroke-dasharray="5,2" d="M190.76,-139.4C189.27,-124.53 187.52,-107.07 186.46,-96.49"/>
<polygon fill="#9a32cd" stroke="#9a32cd" points="187.25,-139.48 191.73,-149.08 194.22,-138.78 187.25,-139.48"/>
</a>
</g>
<text xml:space="preserve" text-anchor="start" x="192.98" y="-120.5" font-family="Helvetica,sans-Serif" font-size="10.00" fill="grey">Filters</text>
</g>
<!-- Node6 -->
<g id="Node000006" class="node">
<title>Node6</title>
<g id="a_Node000006"><a xlink:href="structImGuiTextFilter_1_1ImGuiTextRange.html" target="_top" xlink:title=" ">
<polygon fill="white" stroke="#666666" points="266.38,-272.75 120.62,-272.75 120.62,-239.25 266.38,-239.25 266.38,-272.75"/>
<text xml:space="preserve" text-anchor="start" x="128.62" y="-259.25" font-family="Helvetica,sans-Serif" font-size="10.00">ImGuiTextFilter::ImGuiText</text>
<text xml:space="preserve" text-anchor="middle" x="193.5" y="-246.5" font-family="Helvetica,sans-Serif" font-size="10.00">Range</text>
</a>
</g>
</g>
<!-- Node6&#45;&gt;Node5 -->
<g id="edge5_Node000005_Node000006" class="edge">
<title>Node6&#45;&gt;Node5</title>
<g id="a_edge5_Node000005_Node000006"><a xlink:title=" ">
<path fill="none" stroke="#9a32cd" stroke-dasharray="5,2" d="M193.5,-227.3C193.5,-213.3 193.5,-196.81 193.5,-184.9"/>
<polygon fill="#9a32cd" stroke="#9a32cd" points="190,-227.26 193.5,-237.26 197,-227.26 190,-227.26"/>
</a>
</g>
<text xml:space="preserve" text-anchor="start" x="196.5" y="-208.75" font-family="Helvetica,sans-Serif" font-size="10.00" fill="grey">Data</text>
</g>
<!-- Node7 -->
<g id="Node000007" class="node">
<title>Node7</title>
<g id="a_Node000007"><a xlink:href="structImVector.html" target="_top" xlink:title=" ">
<polygon fill="white" stroke="#666666" points="343.88,-96.25 249.12,-96.25 249.12,-75.5 343.88,-75.5 343.88,-96.25"/>
<text xml:space="preserve" text-anchor="middle" x="296.5" y="-82.75" font-family="Helvetica,sans-Serif" font-size="10.00">ImVector&lt; int &gt;</text>
</a>
</g>
</g>
<!-- Node7&#45;&gt;Node1 -->
<g id="edge6_Node000001_Node000007" class="edge">
<title>Node7&#45;&gt;Node1</title>
<g id="a_edge6_Node000001_Node000007"><a xlink:title=" ">
<path fill="none" stroke="#9a32cd" stroke-dasharray="5,2" d="M272.4,-68.91C250.47,-54.4 218.81,-33.43 200.37,-21.22"/>
<polygon fill="#9a32cd" stroke="#9a32cd" points="270.46,-71.83 280.73,-74.43 274.32,-65.99 270.46,-71.83"/>
</a>
</g>
<text xml:space="preserve" text-anchor="start" x="257.21" y="-45" font-family="Helvetica,sans-Serif" font-size="10.00" fill="grey">LineOffsets</text>
</g>
</g>
</svg>
