<?xml version="1.0" encoding="UTF-8" standalone="no"?>
<!DOCTYPE svg PUBLIC "-//W3C//DTD SVG 1.1//EN"
 "http://www.w3.org/Graphics/SVG/1.1/DTD/svg11.dtd">
<!-- Generated by graphviz version 13.0.0 (0)
 -->
<!-- Title: ImFontAtlas Pages: 1 -->
<svg width="1011pt" height="466pt"
 viewBox="0.00 0.00 1011.00 466.00" xmlns="http://www.w3.org/2000/svg" xmlns:xlink="http://www.w3.org/1999/xlink">
<g id="graph0" class="graph" transform="scale(1 1) rotate(0) translate(4 461.8)">
<title>ImFontAtlas</title>
<!-- Node1 -->
<g id="Node000001" class="node">
<title>Node1</title>
<g id="a_Node000001"><a xlink:title=" ">
<polygon fill="#999999" stroke="#666666" points="327.88,-358.54 253.38,-358.54 253.38,-337.79 327.88,-337.79 327.88,-358.54"/>
<text xml:space="preserve" text-anchor="middle" x="290.62" y="-345.04" font-family="Helvetica,sans-Serif" font-size="10.00">ImFontAtlas</text>
</a>
</g>
</g>
<!-- Node4 -->
<g id="Node000004" class="node">
<title>Node4</title>
<g id="a_Node000004"><a xlink:href="structImFont.html" target="_top" xlink:title=" ">
<polygon fill="white" stroke="#666666" points="530.25,-240.54 480.5,-240.54 480.5,-219.79 530.25,-219.79 530.25,-240.54"/>
<text xml:space="preserve" text-anchor="middle" x="505.38" y="-227.04" font-family="Helvetica,sans-Serif" font-size="10.00">ImFont</text>
</a>
</g>
</g>
<!-- Node1&#45;&gt;Node4 -->
<g id="edge9_Node000004_Node000001" class="edge">
<title>Node1&#45;&gt;Node4</title>
<g id="a_edge9_Node000004_Node000001"><a xlink:title=" ">
<path fill="none" stroke="#9a32cd" stroke-dasharray="5,2" d="M329.9,-333.39C345.57,-327.52 363.94,-320.89 380.75,-315.42 416.67,-303.73 431.91,-314.33 462.5,-292.17 481.01,-278.76 493.86,-254.48 500.09,-240.62"/>
<polygon fill="#9a32cd" stroke="#9a32cd" points="329.07,-329.96 320.95,-336.77 331.54,-336.51 329.07,-329.96"/>
</a>
</g>
<text xml:space="preserve" text-anchor="start" x="385.62" y="-321.67" font-family="Helvetica,sans-Serif" font-size="10.00" fill="grey">ContainerAtlas</text>
</g>
<!-- Node2 -->
<g id="Node000002" class="node">
<title>Node2</title>
<g id="a_Node000002"><a xlink:href="structImVec2.html" target="_top" xlink:title=" ">
<polygon fill="white" stroke="#666666" points="73.38,-81.54 21.38,-81.54 21.38,-60.79 73.38,-60.79 73.38,-81.54"/>
<text xml:space="preserve" text-anchor="middle" x="47.38" y="-68.04" font-family="Helvetica,sans-Serif" font-size="10.00">ImVec2</text>
</a>
</g>
</g>
<!-- Node2&#45;&gt;Node1 -->
<g id="edge1_Node000001_Node000002" class="edge">
<title>Node2&#45;&gt;Node1</title>
<g id="a_edge1_Node000001_Node000002"><a xlink:title=" ">
<path fill="none" stroke="#9a32cd" stroke-dasharray="5,2" d="M84.78,-77.02C124.91,-84.27 185.77,-97.87 200.5,-115.67 227.04,-147.75 196.86,-266.59 218.5,-302.17 228.36,-318.38 246.34,-329.93 261.76,-337.4"/>
<polygon fill="#9a32cd" stroke="#9a32cd" points="85.5,-73.6 75.05,-75.33 84.3,-80.49 85.5,-73.6"/>
</a>
</g>
<text xml:space="preserve" text-anchor="start" x="115.75" y="-138.67" font-family="Helvetica,sans-Serif" font-size="10.00" fill="grey">TexUvScale</text>
<text xml:space="preserve" text-anchor="start" x="115.75" y="-121.92" font-family="Helvetica,sans-Serif" font-size="10.00" fill="grey">TexUvWhitePixel</text>
</g>
<!-- Node9 -->
<g id="Node000009" class="node">
<title>Node9</title>
<g id="a_Node000009"><a xlink:href="structImFontConfig.html" target="_top" xlink:title=" ">
<polygon fill="white" stroke="#666666" points="743.88,-250.54 663.38,-250.54 663.38,-229.79 743.88,-229.79 743.88,-250.54"/>
<text xml:space="preserve" text-anchor="middle" x="703.62" y="-237.04" font-family="Helvetica,sans-Serif" font-size="10.00">ImFontConfig</text>
</a>
</g>
</g>
<!-- Node2&#45;&gt;Node9 -->
<g id="edge11_Node000009_Node000002" class="edge">
<title>Node2&#45;&gt;Node9</title>
<g id="a_edge11_Node000009_Node000002"><a xlink:title=" ">
<path fill="none" stroke="#9a32cd" stroke-dasharray="5,2" d="M84.78,-74.09C115.62,-76.66 161.01,-80.7 200.5,-85.17 389.34,-106.55 462.78,-65.58 618.75,-174.17 629.12,-181.39 627.39,-187.68 636.75,-196.17 651.11,-209.2 669.64,-221.22 683.38,-229.4"/>
<polygon fill="#9a32cd" stroke="#9a32cd" points="85.47,-70.63 75.22,-73.3 84.9,-77.61 85.47,-70.63"/>
</a>
</g>
<text xml:space="preserve" text-anchor="start" x="392.75" y="-108.88" font-family="Helvetica,sans-Serif" font-size="10.00" fill="grey">GlyphOffset</text>
</g>
<!-- Node11 -->
<g id="Node000011" class="node">
<title>Node11</title>
<g id="a_Node000011"><a xlink:href="structImFontAtlasCustomRect.html" target="_top" xlink:title=" ">
<polygon fill="white" stroke="#666666" points="770.5,-187.54 636.75,-187.54 636.75,-166.79 770.5,-166.79 770.5,-187.54"/>
<text xml:space="preserve" text-anchor="middle" x="703.62" y="-174.04" font-family="Helvetica,sans-Serif" font-size="10.00">ImFontAtlasCustomRect</text>
</a>
</g>
</g>
<!-- Node2&#45;&gt;Node11 -->
<g id="edge15_Node000011_Node000002" class="edge">
<title>Node2&#45;&gt;Node11</title>
<g id="a_edge15_Node000011_Node000002"><a xlink:title=" ">
<path fill="none" stroke="#9a32cd" stroke-dasharray="5,2" d="M84.29,-57.66C180.02,-24.14 445.75,52.54 618.75,-57.17 661.68,-84.39 688.73,-142.32 698.5,-166.36"/>
<polygon fill="#9a32cd" stroke="#9a32cd" points="83.41,-54.26 75.17,-60.92 85.76,-60.86 83.41,-54.26"/>
</a>
</g>
<text xml:space="preserve" text-anchor="start" x="392.75" y="-10.34" font-family="Helvetica,sans-Serif" font-size="10.00" fill="grey">GlyphOffset</text>
</g>
<!-- Node3 -->
<g id="Node000003" class="node">
<title>Node3</title>
<g id="a_Node000003"><a xlink:href="structImVector.html" target="_top" xlink:title=" ">
<polygon fill="white" stroke="#666666" points="765.62,-330.54 641.62,-330.54 641.62,-309.79 765.62,-309.79 765.62,-330.54"/>
<text xml:space="preserve" text-anchor="middle" x="703.62" y="-317.04" font-family="Helvetica,sans-Serif" font-size="10.00">ImVector&lt; ImFont * &gt;</text>
</a>
</g>
</g>
<!-- Node3&#45;&gt;Node1 -->
<g id="edge2_Node000001_Node000003" class="edge">
<title>Node3&#45;&gt;Node1</title>
<g id="a_edge2_Node000001_Node000003"><a xlink:title=" ">
<path fill="none" stroke="#9a32cd" stroke-dasharray="5,2" d="M629.89,-325.12C541.45,-331.15 395.67,-341.08 328.1,-345.68"/>
<polygon fill="#9a32cd" stroke="#9a32cd" points="629.92,-328.63 639.66,-324.46 629.45,-321.64 629.92,-328.63"/>
</a>
</g>
<text xml:space="preserve" text-anchor="start" x="492.25" y="-341.35" font-family="Helvetica,sans-Serif" font-size="10.00" fill="grey">Fonts</text>
</g>
<!-- Node4&#45;&gt;Node3 -->
<g id="edge3_Node000003_Node000004" class="edge">
<title>Node4&#45;&gt;Node3</title>
<g id="a_edge3_Node000003_Node000004"><a xlink:title=" ">
<path fill="none" stroke="#9a32cd" stroke-dasharray="5,2" d="M525.4,-248.51C532.22,-254.4 540.22,-260.58 548.25,-265.17 583.7,-285.43 627.91,-300.26 659.93,-309.38"/>
<polygon fill="#9a32cd" stroke="#9a32cd" points="527.82,-245.98 518.06,-241.85 523.12,-251.16 527.82,-245.98"/>
</a>
</g>
<text xml:space="preserve" text-anchor="start" x="571.88" y="-302.23" font-family="Helvetica,sans-Serif" font-size="10.00" fill="grey">Data</text>
</g>
<!-- Node4&#45;&gt;Node9 -->
<g id="edge12_Node000009_Node000004" class="edge">
<title>Node4&#45;&gt;Node9</title>
<g id="a_edge12_Node000009_Node000004"><a xlink:title=" ">
<path fill="none" stroke="#9a32cd" stroke-dasharray="5,2" d="M541.65,-238.28C543.87,-238.63 546.09,-238.93 548.25,-239.17 587.15,-243.43 631.89,-243.15 663.16,-242.13"/>
<polygon fill="#9a32cd" stroke="#9a32cd" points="542.55,-234.89 532.08,-236.53 541.29,-241.78 542.55,-234.89"/>
</a>
</g>
<text xml:space="preserve" text-anchor="start" x="564.75" y="-248.98" font-family="Helvetica,sans-Serif" font-size="10.00" fill="grey">DstFont</text>
</g>
<!-- Node4&#45;&gt;Node11 -->
<g id="edge16_Node000011_Node000004" class="edge">
<title>Node4&#45;&gt;Node11</title>
<g id="a_edge16_Node000011_Node000004"><a xlink:title=" ">
<path fill="none" stroke="#9a32cd" stroke-dasharray="5,2" d="M523.86,-211.81C530.84,-205.59 539.34,-199.24 548.25,-195.42 575.66,-183.66 608.17,-178.66 636.27,-176.76"/>
<polygon fill="#9a32cd" stroke="#9a32cd" points="521.79,-208.95 517,-218.4 526.63,-214 521.79,-208.95"/>
</a>
</g>
<text xml:space="preserve" text-anchor="start" x="573" y="-201.67" font-family="Helvetica,sans-Serif" font-size="10.00" fill="grey">Font</text>
</g>
<!-- Node5 -->
<g id="Node000005" class="node">
<title>Node5</title>
<g id="a_Node000005"><a xlink:href="structImVector.html" target="_top" xlink:title=" ">
<polygon fill="white" stroke="#666666" points="342.5,-293.54 238.75,-293.54 238.75,-272.79 342.5,-272.79 342.5,-293.54"/>
<text xml:space="preserve" text-anchor="middle" x="290.62" y="-280.04" font-family="Helvetica,sans-Serif" font-size="10.00">ImVector&lt; float &gt;</text>
</a>
</g>
</g>
<!-- Node5&#45;&gt;Node4 -->
<g id="edge4_Node000004_Node000005" class="edge">
<title>Node5&#45;&gt;Node4</title>
<g id="a_edge4_Node000004_Node000005"><a xlink:title=" ">
<path fill="none" stroke="#9a32cd" stroke-dasharray="5,2" d="M354.2,-275C386.97,-269.75 427.46,-261.71 462.5,-250.17 469.85,-247.75 477.57,-244.33 484.36,-241"/>
<polygon fill="#9a32cd" stroke="#9a32cd" points="353.8,-271.52 344.45,-276.51 354.87,-278.44 353.8,-271.52"/>
</a>
</g>
<text xml:space="preserve" text-anchor="start" x="383.75" y="-276.02" font-family="Helvetica,sans-Serif" font-size="10.00" fill="grey">IndexAdvanceX</text>
</g>
<!-- Node6 -->
<g id="Node000006" class="node">
<title>Node6</title>
<g id="a_Node000006"><a xlink:href="structImVector.html" target="_top" xlink:title=" ">
<polygon fill="white" stroke="#666666" points="347.75,-254.54 233.5,-254.54 233.5,-233.79 347.75,-233.79 347.75,-254.54"/>
<text xml:space="preserve" text-anchor="middle" x="290.62" y="-241.04" font-family="Helvetica,sans-Serif" font-size="10.00">ImVector&lt; ImU16 &gt;</text>
</a>
</g>
</g>
<!-- Node6&#45;&gt;Node4 -->
<g id="edge5_Node000004_Node000006" class="edge">
<title>Node6&#45;&gt;Node4</title>
<g id="a_edge5_Node000004_Node000006"><a xlink:title=" ">
<path fill="none" stroke="#9a32cd" stroke-dasharray="5,2" d="M359.34,-233.53C366.56,-232.68 373.8,-231.95 380.75,-231.42 415.21,-228.79 455.22,-228.97 480.17,-229.47"/>
<polygon fill="#9a32cd" stroke="#9a32cd" points="359.07,-230.04 349.58,-234.76 359.94,-236.98 359.07,-230.04"/>
</a>
</g>
<text xml:space="preserve" text-anchor="start" x="390.88" y="-237.67" font-family="Helvetica,sans-Serif" font-size="10.00" fill="grey">IndexLookup</text>
</g>
<!-- Node7 -->
<g id="Node000007" class="node">
<title>Node7</title>
<g id="a_Node000007"><a xlink:href="structImVector.html" target="_top" xlink:title=" ">
<polygon fill="white" stroke="#666666" points="362.75,-161.54 218.5,-161.54 218.5,-140.79 362.75,-140.79 362.75,-161.54"/>
<text xml:space="preserve" text-anchor="middle" x="290.62" y="-148.04" font-family="Helvetica,sans-Serif" font-size="10.00">ImVector&lt; ImFontGlyph &gt;</text>
</a>
</g>
</g>
<!-- Node7&#45;&gt;Node4 -->
<g id="edge6_Node000004_Node000007" class="edge">
<title>Node7&#45;&gt;Node4</title>
<g id="a_edge6_Node000004_Node000007"><a xlink:title=" ">
<path fill="none" stroke="#9a32cd" stroke-dasharray="5,2" d="M374.12,-142.82C403.8,-143.48 436.37,-148.74 462.5,-164.42 483.39,-176.95 495.6,-204.37 501.02,-219.54"/>
<polygon fill="#9a32cd" stroke="#9a32cd" points="374.44,-139.32 364.42,-142.78 374.41,-146.32 374.44,-139.32"/>
</a>
</g>
<text xml:space="preserve" text-anchor="start" x="404.75" y="-170.67" font-family="Helvetica,sans-Serif" font-size="10.00" fill="grey">Glyphs</text>
</g>
<!-- Node8 -->
<g id="Node000008" class="node">
<title>Node8</title>
<g id="a_Node000008"><a xlink:href="structImFontGlyph.html" target="_top" xlink:title=" ">
<polygon fill="white" stroke="#666666" points="86.5,-190.54 8.25,-190.54 8.25,-169.79 86.5,-169.79 86.5,-190.54"/>
<text xml:space="preserve" text-anchor="middle" x="47.38" y="-177.04" font-family="Helvetica,sans-Serif" font-size="10.00">ImFontGlyph</text>
</a>
</g>
</g>
<!-- Node8&#45;&gt;Node4 -->
<g id="edge8_Node000004_Node000008" class="edge">
<title>Node8&#45;&gt;Node4</title>
<g id="a_edge8_Node000004_Node000008"><a xlink:title=" ">
<path fill="none" stroke="#9a32cd" stroke-dasharray="5,2" d="M98.11,-183.04C160.2,-186.93 269.58,-194.74 362.75,-206.42 404.19,-211.61 452.03,-220.18 480.16,-225.48"/>
<polygon fill="#9a32cd" stroke="#9a32cd" points="98.42,-179.56 88.22,-182.43 97.99,-186.54 98.42,-179.56"/>
</a>
</g>
<text xml:space="preserve" text-anchor="start" x="256.5" y="-212.67" font-family="Helvetica,sans-Serif" font-size="10.00" fill="grey">FallbackGlyph</text>
</g>
<!-- Node8&#45;&gt;Node7 -->
<g id="edge7_Node000007_Node000008" class="edge">
<title>Node8&#45;&gt;Node7</title>
<g id="a_edge7_Node000007_Node000008"><a xlink:title=" ">
<path fill="none" stroke="#9a32cd" stroke-dasharray="5,2" d="M97.84,-167.2C102.85,-166.14 107.89,-165.19 112.75,-164.42 147.27,-158.94 185.95,-155.72 218.31,-153.82"/>
<polygon fill="#9a32cd" stroke="#9a32cd" points="97.44,-163.7 88.45,-169.3 98.97,-170.53 97.44,-163.7"/>
</a>
</g>
<text xml:space="preserve" text-anchor="start" x="145" y="-170.67" font-family="Helvetica,sans-Serif" font-size="10.00" fill="grey">Data</text>
</g>
<!-- Node9&#45;&gt;Node4 -->
<g id="edge10_Node000004_Node000009" class="edge">
<title>Node9&#45;&gt;Node4</title>
<g id="a_edge10_Node000004_Node000009"><a xlink:title=" ">
<path fill="none" stroke="#9a32cd" stroke-dasharray="5,2" d="M653.84,-226.68C642.42,-224.08 630.23,-221.75 618.75,-220.42 587.63,-216.8 579.38,-216.84 548.25,-220.42 542.47,-221.08 536.32,-222.25 530.57,-223.55"/>
<polygon fill="#9a32cd" stroke="#9a32cd" points="652.95,-230.06 663.49,-228.99 654.58,-223.25 652.95,-230.06"/>
</a>
</g>
<text xml:space="preserve" text-anchor="start" x="564.38" y="-226.67" font-family="Helvetica,sans-Serif" font-size="10.00" fill="grey">Sources</text>
</g>
<!-- Node12 -->
<g id="Node000012" class="node">
<title>Node12</title>
<g id="a_Node000012"><a xlink:href="structImVector.html" target="_top" xlink:title=" ">
<polygon fill="white" stroke="#666666" points="992.38,-345.54 845.88,-345.54 845.88,-324.79 992.38,-324.79 992.38,-345.54"/>
<text xml:space="preserve" text-anchor="middle" x="919.12" y="-332.04" font-family="Helvetica,sans-Serif" font-size="10.00">ImVector&lt; ImFontConfig &gt;</text>
</a>
</g>
</g>
<!-- Node9&#45;&gt;Node12 -->
<g id="edge18_Node000012_Node000009" class="edge">
<title>Node9&#45;&gt;Node12</title>
<g id="a_edge18_Node000012_Node000009"><a xlink:title=" ">
<path fill="none" stroke="#9a32cd" stroke-dasharray="5,2" d="M739.04,-255.48C782.41,-274.78 855.86,-307.46 893.81,-324.35"/>
<polygon fill="#9a32cd" stroke="#9a32cd" points="740.64,-252.36 730.08,-251.5 737.8,-258.76 740.64,-252.36"/>
</a>
</g>
<text xml:space="preserve" text-anchor="start" x="791.5" y="-293.92" font-family="Helvetica,sans-Serif" font-size="10.00" fill="grey">Data</text>
</g>
<!-- Node10 -->
<g id="Node000010" class="node">
<title>Node10</title>
<g id="a_Node000010"><a xlink:href="structImVector.html" target="_top" xlink:title=" ">
<polygon fill="white" stroke="#666666" points="1002.5,-288.92 835.75,-288.92 835.75,-255.42 1002.5,-255.42 1002.5,-288.92"/>
<text xml:space="preserve" text-anchor="start" x="843.75" y="-275.42" font-family="Helvetica,sans-Serif" font-size="10.00">ImVector&lt; ImFontAtlasCustom</text>
<text xml:space="preserve" text-anchor="middle" x="919.12" y="-262.67" font-family="Helvetica,sans-Serif" font-size="10.00">Rect &gt;</text>
</a>
</g>
</g>
<!-- Node10&#45;&gt;Node1 -->
<g id="edge13_Node000001_Node000010" class="edge">
<title>Node10&#45;&gt;Node1</title>
<g id="a_edge13_Node000001_Node000010"><a xlink:title=" ">
<path fill="none" stroke="#9a32cd" stroke-dasharray="5,2" d="M878.33,-294.82C849.39,-310.13 808.73,-329.31 770.5,-339.17 610.07,-380.56 409.28,-362.97 328.14,-353.14"/>
<polygon fill="#9a32cd" stroke="#9a32cd" points="879.96,-297.91 887.11,-290.09 876.65,-291.75 879.96,-297.91"/>
</a>
</g>
<text xml:space="preserve" text-anchor="start" x="551.25" y="-371.44" font-family="Helvetica,sans-Serif" font-size="10.00" fill="grey">CustomRects</text>
</g>
<!-- Node11&#45;&gt;Node10 -->
<g id="edge14_Node000010_Node000011" class="edge">
<title>Node11&#45;&gt;Node10</title>
<g id="a_edge14_Node000010_Node000011"><a xlink:title=" ">
<path fill="none" stroke="#9a32cd" stroke-dasharray="5,2" d="M738.88,-192.41C777.36,-209.53 839.66,-237.25 879.74,-255.09"/>
<polygon fill="#9a32cd" stroke="#9a32cd" points="740.64,-189.36 730.08,-188.5 737.8,-195.76 740.64,-189.36"/>
</a>
</g>
<text xml:space="preserve" text-anchor="start" x="791.5" y="-230.92" font-family="Helvetica,sans-Serif" font-size="10.00" fill="grey">Data</text>
</g>
<!-- Node12&#45;&gt;Node1 -->
<g id="edge17_Node000001_Node000012" class="edge">
<title>Node12&#45;&gt;Node1</title>
<g id="a_edge17_Node000001_Node000012"><a xlink:title=" ">
<path fill="none" stroke="#9a32cd" stroke-dasharray="5,2" d="M897.13,-353.07C877.89,-368.26 847.89,-389 817.75,-398.17 631.94,-454.7 567.75,-450.63 380.75,-398.17 352.05,-390.12 322.64,-371.1 305.81,-358.98"/>
<polygon fill="#9a32cd" stroke="#9a32cd" points="899.18,-355.91 904.73,-346.88 894.77,-350.48 899.18,-355.91"/>
</a>
</g>
<text xml:space="preserve" text-anchor="start" x="564.38" y="-445.3" font-family="Helvetica,sans-Serif" font-size="10.00" fill="grey">Sources</text>
</g>
<!-- Node13 -->
<g id="Node000013" class="node">
<title>Node13</title>
<g id="a_Node000013"><a xlink:href="structImVec4.html" target="_top" xlink:title=" ">
<polygon fill="white" stroke="#666666" points="73.38,-379.54 21.38,-379.54 21.38,-358.79 73.38,-358.79 73.38,-379.54"/>
<text xml:space="preserve" text-anchor="middle" x="47.38" y="-366.04" font-family="Helvetica,sans-Serif" font-size="10.00">ImVec4</text>
</a>
</g>
</g>
<!-- Node13&#45;&gt;Node1 -->
<g id="edge19_Node000001_Node000013" class="edge">
<title>Node13&#45;&gt;Node1</title>
<g id="a_edge19_Node000001_Node000013"><a xlink:title=" ">
<path fill="none" stroke="#9a32cd" stroke-dasharray="5,2" d="M85.15,-365.97C130.73,-362 207.92,-355.28 253.29,-351.33"/>
<polygon fill="#9a32cd" stroke="#9a32cd" points="84.9,-362.47 75.24,-366.83 85.51,-369.45 84.9,-362.47"/>
</a>
</g>
<text xml:space="preserve" text-anchor="start" x="128.88" y="-369.79" font-family="Helvetica,sans-Serif" font-size="10.00" fill="grey">TexUvLines</text>
</g>
<!-- Node14 -->
<g id="Node000014" class="node">
<title>Node14</title>
<g id="a_Node000014"><a xlink:href="structImFontBuilderIO.html" target="_top" xlink:title=" ">
<polygon fill="white" stroke="#666666" points="94.75,-337.54 0,-337.54 0,-316.79 94.75,-316.79 94.75,-337.54"/>
<text xml:space="preserve" text-anchor="middle" x="47.38" y="-324.04" font-family="Helvetica,sans-Serif" font-size="10.00">ImFontBuilderIO</text>
</a>
</g>
</g>
<!-- Node14&#45;&gt;Node1 -->
<g id="edge20_Node000001_Node000014" class="edge">
<title>Node14&#45;&gt;Node1</title>
<g id="a_edge20_Node000001_Node000014"><a xlink:title=" ">
<path fill="none" stroke="#9a32cd" stroke-dasharray="5,2" d="M106.45,-327.88C134.86,-328.65 169.53,-330.23 200.5,-333.42 217.82,-335.2 236.87,-338.21 252.9,-341.05"/>
<polygon fill="#9a32cd" stroke="#9a32cd" points="106.68,-324.38 96.6,-327.64 106.51,-331.38 106.68,-324.38"/>
</a>
</g>
<text xml:space="preserve" text-anchor="start" x="123.62" y="-339.67" font-family="Helvetica,sans-Serif" font-size="10.00" fill="grey">FontBuilderIO</text>
</g>
</g>
</svg>
