<?xml version="1.0" encoding="UTF-8" standalone="no"?>
<!DOCTYPE svg PUBLIC "-//W3C//DTD SVG 1.1//EN"
 "http://www.w3.org/Graphics/SVG/1.1/DTD/svg11.dtd">
<!-- Generated by graphviz version 13.0.0 (0)
 -->
<!-- Title: tinygltf::Material Pages: 1 -->
<svg width="882pt" height="232pt"
 viewBox="0.00 0.00 882.00 232.00" xmlns="http://www.w3.org/2000/svg" xmlns:xlink="http://www.w3.org/1999/xlink">
<g id="graph0" class="graph" transform="scale(1 1) rotate(0) translate(4 227.74)">
<title>tinygltf::Material</title>
<!-- Node1 -->
<g id="Node000001" class="node">
<title>Node1</title>
<g id="a_Node000001"><a xlink:title=" ">
<polygon fill="#999999" stroke="#666666" points="873.5,-110.75 776.5,-110.75 776.5,-90 873.5,-90 873.5,-110.75"/>
<text xml:space="preserve" text-anchor="middle" x="825" y="-97.25" font-family="Helvetica,sans-Serif" font-size="10.00">tinygltf::Material</text>
</a>
</g>
</g>
<!-- Node2 -->
<g id="Node000002" class="node">
<title>Node2</title>
<g id="a_Node000002"><a xlink:href="structtinygltf_1_1PbrMetallicRoughness.html" target="_top" xlink:title=" ">
<polygon fill="white" stroke="#666666" points="626.5,-157.75 462,-157.75 462,-137 626.5,-137 626.5,-157.75"/>
<text xml:space="preserve" text-anchor="middle" x="544.25" y="-144.25" font-family="Helvetica,sans-Serif" font-size="10.00">tinygltf::PbrMetallicRoughness</text>
</a>
</g>
</g>
<!-- Node2&#45;&gt;Node1 -->
<g id="edge1_Node000001_Node000002" class="edge">
<title>Node2&#45;&gt;Node1</title>
<g id="a_edge1_Node000001_Node000002"><a xlink:title=" ">
<path fill="none" stroke="#9a32cd" stroke-dasharray="5,2" d="M633.59,-134.86C672.05,-129.11 717.59,-121.91 758.5,-114.38 764.22,-113.32 770.2,-112.15 776.13,-110.94"/>
<polygon fill="#9a32cd" stroke="#9a32cd" points="633.29,-131.36 623.92,-136.3 634.32,-138.29 633.29,-131.36"/>
</a>
</g>
<text xml:space="preserve" text-anchor="start" x="647.5" y="-138.91" font-family="Helvetica,sans-Serif" font-size="10.00" fill="grey">pbrMetallicRoughness</text>
</g>
<!-- Node3 -->
<g id="Node000003" class="node">
<title>Node3</title>
<g id="a_Node000003"><a xlink:href="structtinygltf_1_1TextureInfo.html" target="_top" xlink:title=" ">
<polygon fill="white" stroke="#666666" points="267.5,-132.75 156.25,-132.75 156.25,-112 267.5,-112 267.5,-132.75"/>
<text xml:space="preserve" text-anchor="middle" x="211.88" y="-119.25" font-family="Helvetica,sans-Serif" font-size="10.00">tinygltf::TextureInfo</text>
</a>
</g>
</g>
<!-- Node3&#45;&gt;Node1 -->
<g id="edge9_Node000001_Node000003" class="edge">
<title>Node3&#45;&gt;Node1</title>
<g id="a_edge9_Node000001_Node000003"><a xlink:title=" ">
<path fill="none" stroke="#9a32cd" stroke-dasharray="5,2" d="M279.12,-118.52C329.3,-115.72 399.97,-112 462,-109.62 574.61,-105.31 707,-102.5 776.26,-101.21"/>
<polygon fill="#9a32cd" stroke="#9a32cd" points="279.07,-115.02 269.29,-119.08 279.47,-122.01 279.07,-115.02"/>
</a>
</g>
<text xml:space="preserve" text-anchor="start" x="504.12" y="-115.88" font-family="Helvetica,sans-Serif" font-size="10.00" fill="grey">emissiveTexture</text>
</g>
<!-- Node3&#45;&gt;Node2 -->
<g id="edge2_Node000002_Node000003" class="edge">
<title>Node3&#45;&gt;Node2</title>
<g id="a_edge2_Node000002_Node000003"><a xlink:title=" ">
<path fill="none" stroke="#9a32cd" stroke-dasharray="5,2" d="M278.97,-124.7C325.24,-126.63 388.47,-129.88 444,-134.88 449.71,-135.39 455.59,-135.98 461.52,-136.61"/>
<polygon fill="#9a32cd" stroke="#9a32cd" points="279.24,-121.21 269.1,-124.3 278.95,-128.2 279.24,-121.21"/>
</a>
</g>
<text xml:space="preserve" text-anchor="start" x="300.25" y="-157.88" font-family="Helvetica,sans-Serif" font-size="10.00" fill="grey">baseColorTexture</text>
<text xml:space="preserve" text-anchor="start" x="300.25" y="-141.12" font-family="Helvetica,sans-Serif" font-size="10.00" fill="grey">metallicRoughnessTexture</text>
</g>
<!-- Node4 -->
<g id="Node000004" class="node">
<title>Node4</title>
<g id="a_Node000004"><a xlink:href="classtinygltf_1_1Value.html" target="_top" xlink:title=" ">
<polygon fill="white" stroke="#666666" points="83.5,-132.75 0,-132.75 0,-112 83.5,-112 83.5,-132.75"/>
<text xml:space="preserve" text-anchor="middle" x="41.75" y="-119.25" font-family="Helvetica,sans-Serif" font-size="10.00">tinygltf::Value</text>
</a>
</g>
</g>
<!-- Node4&#45;&gt;Node1 -->
<g id="edge10_Node000001_Node000004" class="edge">
<title>Node4&#45;&gt;Node1</title>
<g id="a_edge10_Node000001_Node000004"><a xlink:title=" ">
<path fill="none" stroke="#9a32cd" stroke-dasharray="5,2" d="M61.39,-140.87C82.38,-160.27 118.53,-189.57 156.25,-201.38 203.44,-216.15 218.08,-203.05 267.5,-201.38 486.55,-193.94 556.89,-241.35 758.5,-155.38 781.99,-145.36 803.49,-123.97 815.06,-111.02"/>
<polygon fill="#9a32cd" stroke="#9a32cd" points="63.86,-138.39 54.2,-134.03 59.04,-143.46 63.86,-138.39"/>
</a>
</g>
<text xml:space="preserve" text-anchor="start" x="349.38" y="-211.24" font-family="Helvetica,sans-Serif" font-size="10.00" fill="grey">extras</text>
</g>
<!-- Node4&#45;&gt;Node2 -->
<g id="edge4_Node000002_Node000004" class="edge">
<title>Node4&#45;&gt;Node2</title>
<g id="a_edge4_Node000002_Node000004"><a xlink:title=" ">
<path fill="none" stroke="#9a32cd" stroke-dasharray="5,2" d="M77.26,-137.46C85.11,-140.45 93.5,-143.3 101.5,-145.38 249.23,-183.74 292.36,-187.72 444,-170.38 464.74,-168 487.44,-162.93 505.9,-158.15"/>
<polygon fill="#9a32cd" stroke="#9a32cd" points="78.61,-134.23 68.02,-133.77 76.01,-140.73 78.61,-134.23"/>
</a>
</g>
<text xml:space="preserve" text-anchor="start" x="196.5" y="-184.49" font-family="Helvetica,sans-Serif" font-size="10.00" fill="grey">extras</text>
</g>
<!-- Node4&#45;&gt;Node3 -->
<g id="edge3_Node000003_Node000004" class="edge">
<title>Node4&#45;&gt;Node3</title>
<g id="a_edge3_Node000003_Node000004"><a xlink:title=" ">
<path fill="none" stroke="#9a32cd" stroke-dasharray="5,2" d="M95.2,-122.38C114.49,-122.38 136.38,-122.38 155.89,-122.38"/>
<polygon fill="#9a32cd" stroke="#9a32cd" points="95.39,-118.88 85.39,-122.38 95.39,-125.88 95.39,-118.88"/>
</a>
</g>
<text xml:space="preserve" text-anchor="start" x="104.5" y="-128.62" font-family="Helvetica,sans-Serif" font-size="10.00" fill="grey">extras</text>
</g>
<!-- Node5 -->
<g id="Node000005" class="node">
<title>Node5</title>
<g id="a_Node000005"><a xlink:href="structtinygltf_1_1NormalTextureInfo.html" target="_top" xlink:title=" ">
<polygon fill="white" stroke="#666666" points="438.38,-60.75 291.12,-60.75 291.12,-40 438.38,-40 438.38,-60.75"/>
<text xml:space="preserve" text-anchor="middle" x="364.75" y="-47.25" font-family="Helvetica,sans-Serif" font-size="10.00">tinygltf::NormalTextureInfo</text>
</a>
</g>
</g>
<!-- Node4&#45;&gt;Node5 -->
<g id="edge6_Node000005_Node000004" class="edge">
<title>Node4&#45;&gt;Node5</title>
<g id="a_edge6_Node000005_Node000004"><a xlink:title=" ">
<path fill="none" stroke="#9a32cd" stroke-dasharray="5,2" d="M78.26,-107.42C85.84,-104.57 93.87,-101.8 101.5,-99.62 164.43,-81.7 237.75,-68.56 290.84,-60.38"/>
<polygon fill="#9a32cd" stroke="#9a32cd" points="77.01,-104.15 68.97,-111.05 79.56,-110.67 77.01,-104.15"/>
</a>
</g>
<text xml:space="preserve" text-anchor="start" x="104.5" y="-105.88" font-family="Helvetica,sans-Serif" font-size="10.00" fill="grey">extras</text>
</g>
<!-- Node6 -->
<g id="Node000006" class="node">
<title>Node6</title>
<g id="a_Node000006"><a xlink:href="structtinygltf_1_1OcclusionTextureInfo.html" target="_top" xlink:title=" ">
<polygon fill="white" stroke="#666666" points="444,-20.75 285.5,-20.75 285.5,0 444,0 444,-20.75"/>
<text xml:space="preserve" text-anchor="middle" x="364.75" y="-7.25" font-family="Helvetica,sans-Serif" font-size="10.00">tinygltf::OcclusionTextureInfo</text>
</a>
</g>
</g>
<!-- Node4&#45;&gt;Node6 -->
<g id="edge8_Node000006_Node000004" class="edge">
<title>Node4&#45;&gt;Node6</title>
<g id="a_edge8_Node000006_Node000004"><a xlink:title=" ">
<path fill="none" stroke="#9a32cd" stroke-dasharray="5,2" d="M58.43,-103.22C69.29,-91.21 84.77,-76.39 101.5,-67.62 158.78,-37.62 231,-23.32 285.15,-16.52"/>
<polygon fill="#9a32cd" stroke="#9a32cd" points="55.97,-100.72 52.07,-110.57 61.26,-105.3 55.97,-100.72"/>
</a>
</g>
<text xml:space="preserve" text-anchor="start" x="104.5" y="-73.88" font-family="Helvetica,sans-Serif" font-size="10.00" fill="grey">extras</text>
</g>
<!-- Node5&#45;&gt;Node1 -->
<g id="edge5_Node000001_Node000005" class="edge">
<title>Node5&#45;&gt;Node1</title>
<g id="a_edge5_Node000001_Node000005"><a xlink:title=" ">
<path fill="none" stroke="#9a32cd" stroke-dasharray="5,2" d="M450.11,-49.86C501.3,-50.42 567.85,-52.69 626.5,-59.62 685.95,-66.65 699.9,-74.17 758.5,-86.38 764.19,-87.56 770.16,-88.82 776.08,-90.07"/>
<polygon fill="#9a32cd" stroke="#9a32cd" points="450.32,-46.36 440.29,-49.78 450.25,-53.36 450.32,-46.36"/>
</a>
</g>
<text xml:space="preserve" text-anchor="start" x="509" y="-65.88" font-family="Helvetica,sans-Serif" font-size="10.00" fill="grey">normalTexture</text>
</g>
<!-- Node6&#45;&gt;Node1 -->
<g id="edge7_Node000001_Node000006" class="edge">
<title>Node6&#45;&gt;Node1</title>
<g id="a_edge7_Node000001_Node000006"><a xlink:title=" ">
<path fill="none" stroke="#9a32cd" stroke-dasharray="5,2" d="M455.55,-7.56C537.56,-8.13 660.59,-17.03 758.5,-58.38 777.66,-66.47 797.47,-80.02 810.22,-89.54"/>
<polygon fill="#9a32cd" stroke="#9a32cd" points="455.78,-4.06 445.77,-7.53 455.76,-11.06 455.78,-4.06"/>
</a>
</g>
<text xml:space="preserve" text-anchor="start" x="503.38" y="-27.62" font-family="Helvetica,sans-Serif" font-size="10.00" fill="grey">occlusionTexture</text>
</g>
</g>
</svg>
