<?xml version="1.0" encoding="UTF-8" standalone="no"?>
<!DOCTYPE svg PUBLIC "-//W3C//DTD SVG 1.1//EN"
 "http://www.w3.org/Graphics/SVG/1.1/DTD/svg11.dtd">
<!-- Generated by graphviz version 13.0.0 (0)
 -->
<!-- Title: tinygltf::AudioEmitter Pages: 1 -->
<svg width="229pt" height="180pt"
 viewBox="0.00 0.00 229.00 180.00" xmlns="http://www.w3.org/2000/svg" xmlns:xlink="http://www.w3.org/1999/xlink">
<g id="graph0" class="graph" transform="scale(1 1) rotate(0) translate(4 175.75)">
<title>tinygltf::AudioEmitter</title>
<!-- Node1 -->
<g id="Node000001" class="node">
<title>Node1</title>
<g id="a_Node000001"><a xlink:title=" ">
<polygon fill="#999999" stroke="#666666" points="124.88,-20.75 4.62,-20.75 4.62,0 124.88,0 124.88,-20.75"/>
<text xml:space="preserve" text-anchor="middle" x="64.75" y="-7.25" font-family="Helvetica,sans-Serif" font-size="10.00">tinygltf::AudioEmitter</text>
</a>
</g>
</g>
<!-- Node2 -->
<g id="Node000002" class="node">
<title>Node2</title>
<g id="a_Node000002"><a xlink:href="structtinygltf_1_1PositionalEmitter.html" target="_top" xlink:title=" ">
<polygon fill="white" stroke="#666666" points="221,-96.25 80.5,-96.25 80.5,-75.5 221,-75.5 221,-96.25"/>
<text xml:space="preserve" text-anchor="middle" x="150.75" y="-82.75" font-family="Helvetica,sans-Serif" font-size="10.00">tinygltf::PositionalEmitter</text>
</a>
</g>
</g>
<!-- Node2&#45;&gt;Node1 -->
<g id="edge1_Node000001_Node000002" class="edge">
<title>Node2&#45;&gt;Node1</title>
<g id="a_edge1_Node000001_Node000002"><a xlink:title=" ">
<path fill="none" stroke="#9a32cd" stroke-dasharray="5,2" d="M130.91,-67.92C113.98,-53.45 90.23,-33.15 76.27,-21.22"/>
<polygon fill="#9a32cd" stroke="#9a32cd" points="128.48,-70.45 138.36,-74.28 133.03,-65.13 128.48,-70.45"/>
</a>
</g>
<text xml:space="preserve" text-anchor="start" x="120.98" y="-45" font-family="Helvetica,sans-Serif" font-size="10.00" fill="grey">positional</text>
</g>
<!-- Node3 -->
<g id="Node000003" class="node">
<title>Node3</title>
<g id="a_Node000003"><a xlink:href="classtinygltf_1_1Value.html" target="_top" xlink:title=" ">
<polygon fill="white" stroke="#666666" points="83.5,-171.75 0,-171.75 0,-151 83.5,-151 83.5,-171.75"/>
<text xml:space="preserve" text-anchor="middle" x="41.75" y="-158.25" font-family="Helvetica,sans-Serif" font-size="10.00">tinygltf::Value</text>
</a>
</g>
</g>
<!-- Node3&#45;&gt;Node1 -->
<g id="edge3_Node000001_Node000003" class="edge">
<title>Node3&#45;&gt;Node1</title>
<g id="a_edge3_Node000001_Node000003"><a xlink:title=" ">
<path fill="none" stroke="#9a32cd" stroke-dasharray="5,2" d="M36.7,-139.51C33.31,-122.19 30.26,-96.99 35,-75.5 39.55,-54.89 51.41,-33.03 58.71,-20.9"/>
<polygon fill="#9a32cd" stroke="#9a32cd" points="33.24,-140.07 38.8,-149.09 40.08,-138.58 33.24,-140.07"/>
</a>
</g>
<text xml:space="preserve" text-anchor="start" x="38" y="-82.75" font-family="Helvetica,sans-Serif" font-size="10.00" fill="grey">extras</text>
</g>
<!-- Node3&#45;&gt;Node2 -->
<g id="edge2_Node000002_Node000003" class="edge">
<title>Node3&#45;&gt;Node2</title>
<g id="a_edge2_Node000002_Node000003"><a xlink:title=" ">
<path fill="none" stroke="#9a32cd" stroke-dasharray="5,2" d="M65.42,-144.41C86.95,-129.9 118.04,-108.93 136.15,-96.72"/>
<polygon fill="#9a32cd" stroke="#9a32cd" points="63.59,-141.43 57.25,-149.92 67.5,-147.23 63.59,-141.43"/>
</a>
</g>
<text xml:space="preserve" text-anchor="start" x="112.22" y="-120.5" font-family="Helvetica,sans-Serif" font-size="10.00" fill="grey">extras</text>
</g>
</g>
</svg>
