<?xml version="1.0" encoding="UTF-8" standalone="no"?>
<!DOCTYPE svg PUBLIC "-//W3C//DTD SVG 1.1//EN"
 "http://www.w3.org/Graphics/SVG/1.1/DTD/svg11.dtd">
<!-- Generated by graphviz version 13.0.0 (0)
 -->
<!-- Title: ExampleDualListBox Pages: 1 -->
<svg width="308pt" height="331pt"
 viewBox="0.00 0.00 308.00 331.00" xmlns="http://www.w3.org/2000/svg" xmlns:xlink="http://www.w3.org/1999/xlink">
<g id="graph0" class="graph" transform="scale(1 1) rotate(0) translate(4 326.75)">
<title>ExampleDualListBox</title>
<!-- Node1 -->
<g id="Node000001" class="node">
<title>Node1</title>
<g id="a_Node000001"><a xlink:title=" ">
<polygon fill="#999999" stroke="#666666" points="147.5,-20.75 30.25,-20.75 30.25,0 147.5,0 147.5,-20.75"/>
<text xml:space="preserve" text-anchor="middle" x="88.88" y="-7.25" font-family="Helvetica,sans-Serif" font-size="10.00">ExampleDualListBox</text>
</a>
</g>
</g>
<!-- Node2 -->
<g id="Node000002" class="node">
<title>Node2</title>
<g id="a_Node000002"><a xlink:href="structImVector.html" target="_top" xlink:title=" ">
<polygon fill="white" stroke="#666666" points="121.75,-96.25 0,-96.25 0,-75.5 121.75,-75.5 121.75,-96.25"/>
<text xml:space="preserve" text-anchor="middle" x="60.88" y="-82.75" font-family="Helvetica,sans-Serif" font-size="10.00">ImVector&lt; ImGuiID &gt;</text>
</a>
</g>
</g>
<!-- Node2&#45;&gt;Node1 -->
<g id="edge1_Node000001_Node000002" class="edge">
<title>Node2&#45;&gt;Node1</title>
<g id="a_edge1_Node000001_Node000002"><a xlink:title=" ">
<path fill="none" stroke="#9a32cd" stroke-dasharray="5,2" d="M68.59,-64.61C73.97,-50.49 80.92,-32.27 85.12,-21.22"/>
<polygon fill="#9a32cd" stroke="#9a32cd" points="65.36,-63.26 65.07,-73.85 71.91,-65.75 65.36,-63.26"/>
</a>
</g>
<text xml:space="preserve" text-anchor="start" x="81.21" y="-45" font-family="Helvetica,sans-Serif" font-size="10.00" fill="grey">Items</text>
</g>
<!-- Node3 -->
<g id="Node000003" class="node">
<title>Node3</title>
<g id="a_Node000003"><a xlink:href="structImGuiSelectionBasicStorage.html" target="_top" xlink:title=" ">
<polygon fill="white" stroke="#666666" points="293.88,-96.25 139.88,-96.25 139.88,-75.5 293.88,-75.5 293.88,-96.25"/>
<text xml:space="preserve" text-anchor="middle" x="216.88" y="-82.75" font-family="Helvetica,sans-Serif" font-size="10.00">ImGuiSelectionBasicStorage</text>
</a>
</g>
</g>
<!-- Node3&#45;&gt;Node1 -->
<g id="edge2_Node000001_Node000003" class="edge">
<title>Node3&#45;&gt;Node1</title>
<g id="a_edge2_Node000001_Node000003"><a xlink:title=" ">
<path fill="none" stroke="#9a32cd" stroke-dasharray="5,2" d="M190.16,-69.53C164.81,-54.98 127.49,-33.55 105.94,-21.18"/>
<polygon fill="#9a32cd" stroke="#9a32cd" points="188.15,-72.42 198.57,-74.36 191.64,-66.35 188.15,-72.42"/>
</a>
</g>
<text xml:space="preserve" text-anchor="start" x="171.1" y="-45" font-family="Helvetica,sans-Serif" font-size="10.00" fill="grey">Selections</text>
</g>
<!-- Node4 -->
<g id="Node000004" class="node">
<title>Node4</title>
<g id="a_Node000004"><a xlink:href="structImGuiStorage.html" target="_top" xlink:title=" ">
<polygon fill="white" stroke="#666666" points="258.25,-171.75 175.5,-171.75 175.5,-151 258.25,-151 258.25,-171.75"/>
<text xml:space="preserve" text-anchor="middle" x="216.88" y="-158.25" font-family="Helvetica,sans-Serif" font-size="10.00">ImGuiStorage</text>
</a>
</g>
</g>
<!-- Node4&#45;&gt;Node3 -->
<g id="edge3_Node000003_Node000004" class="edge">
<title>Node4&#45;&gt;Node3</title>
<g id="a_edge3_Node000003_Node000004"><a xlink:title=" ">
<path fill="none" stroke="#9a32cd" stroke-dasharray="5,2" d="M216.88,-139.26C216.88,-125.26 216.88,-107.55 216.88,-96.72"/>
<polygon fill="#9a32cd" stroke="#9a32cd" points="213.38,-139.25 216.88,-149.25 220.38,-139.25 213.38,-139.25"/>
</a>
</g>
<text xml:space="preserve" text-anchor="start" x="219.88" y="-120.5" font-family="Helvetica,sans-Serif" font-size="10.00" fill="grey">_Storage</text>
</g>
<!-- Node5 -->
<g id="Node000005" class="node">
<title>Node5</title>
<g id="a_Node000005"><a xlink:href="structImVector.html" target="_top" xlink:title=" ">
<polygon fill="white" stroke="#666666" points="300.25,-247.25 133.5,-247.25 133.5,-226.5 300.25,-226.5 300.25,-247.25"/>
<text xml:space="preserve" text-anchor="middle" x="216.88" y="-233.75" font-family="Helvetica,sans-Serif" font-size="10.00">ImVector&lt; ImGuiStoragePair &gt;</text>
</a>
</g>
</g>
<!-- Node5&#45;&gt;Node4 -->
<g id="edge4_Node000004_Node000005" class="edge">
<title>Node5&#45;&gt;Node4</title>
<g id="a_edge4_Node000004_Node000005"><a xlink:title=" ">
<path fill="none" stroke="#9a32cd" stroke-dasharray="5,2" d="M216.88,-214.76C216.88,-200.76 216.88,-183.05 216.88,-172.22"/>
<polygon fill="#9a32cd" stroke="#9a32cd" points="213.38,-214.75 216.88,-224.75 220.38,-214.75 213.38,-214.75"/>
</a>
</g>
<text xml:space="preserve" text-anchor="start" x="219.88" y="-196" font-family="Helvetica,sans-Serif" font-size="10.00" fill="grey">Data</text>
</g>
<!-- Node6 -->
<g id="Node000006" class="node">
<title>Node6</title>
<g id="a_Node000006"><a xlink:href="structImGuiStoragePair.html" target="_top" xlink:title=" ">
<polygon fill="white" stroke="#666666" points="267.25,-322.75 166.5,-322.75 166.5,-302 267.25,-302 267.25,-322.75"/>
<text xml:space="preserve" text-anchor="middle" x="216.88" y="-309.25" font-family="Helvetica,sans-Serif" font-size="10.00">ImGuiStoragePair</text>
</a>
</g>
</g>
<!-- Node6&#45;&gt;Node5 -->
<g id="edge5_Node000005_Node000006" class="edge">
<title>Node6&#45;&gt;Node5</title>
<g id="a_edge5_Node000005_Node000006"><a xlink:title=" ">
<path fill="none" stroke="#9a32cd" stroke-dasharray="5,2" d="M216.88,-290.26C216.88,-276.26 216.88,-258.55 216.88,-247.72"/>
<polygon fill="#9a32cd" stroke="#9a32cd" points="213.38,-290.25 216.88,-300.25 220.38,-290.25 213.38,-290.25"/>
</a>
</g>
<text xml:space="preserve" text-anchor="start" x="219.88" y="-271.5" font-family="Helvetica,sans-Serif" font-size="10.00" fill="grey">Data</text>
</g>
</g>
</svg>
