<?xml version="1.0" encoding="UTF-8" standalone="no"?>
<!DOCTYPE svg PUBLIC "-//W3C//DTD SVG 1.1//EN"
 "http://www.w3.org/Graphics/SVG/1.1/DTD/svg11.dtd">
<!-- Generated by graphviz version 13.0.0 (0)
 -->
<!-- Title: ImGuiIDStackTool Pages: 1 -->
<svg width="278pt" height="193pt"
 viewBox="0.00 0.00 278.00 193.00" xmlns="http://www.w3.org/2000/svg" xmlns:xlink="http://www.w3.org/1999/xlink">
<g id="graph0" class="graph" transform="scale(1 1) rotate(0) translate(4 188.5)">
<title>ImGuiIDStackTool</title>
<!-- Node1 -->
<g id="Node000001" class="node">
<title>Node1</title>
<g id="a_Node000001"><a xlink:title=" ">
<polygon fill="#999999" stroke="#666666" points="197.75,-20.75 95.5,-20.75 95.5,0 197.75,0 197.75,-20.75"/>
<text xml:space="preserve" text-anchor="middle" x="146.62" y="-7.25" font-family="Helvetica,sans-Serif" font-size="10.00">ImGuiIDStackTool</text>
</a>
</g>
</g>
<!-- Node2 -->
<g id="Node000002" class="node">
<title>Node2</title>
<g id="a_Node000002"><a xlink:href="structImVector.html" target="_top" xlink:title=" ">
<polygon fill="white" stroke="#666666" points="153.25,-109 0,-109 0,-75.5 153.25,-75.5 153.25,-109"/>
<text xml:space="preserve" text-anchor="start" x="8" y="-95.5" font-family="Helvetica,sans-Serif" font-size="10.00">ImVector&lt; ImGuiStackLevel</text>
<text xml:space="preserve" text-anchor="middle" x="76.62" y="-82.75" font-family="Helvetica,sans-Serif" font-size="10.00">Info &gt;</text>
</a>
</g>
</g>
<!-- Node2&#45;&gt;Node1 -->
<g id="edge1_Node000001_Node000002" class="edge">
<title>Node2&#45;&gt;Node1</title>
<g id="a_edge1_Node000001_Node000002"><a xlink:title=" ">
<path fill="none" stroke="#9a32cd" stroke-dasharray="5,2" d="M98.3,-66.52C111.79,-51.13 128.38,-32.2 138.19,-20.99"/>
<polygon fill="#9a32cd" stroke="#9a32cd" points="95.75,-64.12 91.79,-73.95 101.01,-68.73 95.75,-64.12"/>
</a>
</g>
<text xml:space="preserve" text-anchor="start" x="124.99" y="-45" font-family="Helvetica,sans-Serif" font-size="10.00" fill="grey">Results</text>
</g>
<!-- Node3 -->
<g id="Node000003" class="node">
<title>Node3</title>
<g id="a_Node000003"><a xlink:href="structImGuiStackLevelInfo.html" target="_top" xlink:title=" ">
<polygon fill="white" stroke="#666666" points="135.25,-184.5 18,-184.5 18,-163.75 135.25,-163.75 135.25,-184.5"/>
<text xml:space="preserve" text-anchor="middle" x="76.62" y="-171" font-family="Helvetica,sans-Serif" font-size="10.00">ImGuiStackLevelInfo</text>
</a>
</g>
</g>
<!-- Node3&#45;&gt;Node2 -->
<g id="edge2_Node000002_Node000003" class="edge">
<title>Node3&#45;&gt;Node2</title>
<g id="a_edge2_Node000002_Node000003"><a xlink:title=" ">
<path fill="none" stroke="#9a32cd" stroke-dasharray="5,2" d="M76.62,-151.95C76.62,-138.64 76.62,-121.74 76.62,-109.5"/>
<polygon fill="#9a32cd" stroke="#9a32cd" points="73.13,-151.82 76.63,-161.82 80.13,-151.82 73.13,-151.82"/>
</a>
</g>
<text xml:space="preserve" text-anchor="start" x="79.62" y="-133.25" font-family="Helvetica,sans-Serif" font-size="10.00" fill="grey">Data</text>
</g>
<!-- Node4 -->
<g id="Node000004" class="node">
<title>Node4</title>
<g id="a_Node000004"><a xlink:href="structImGuiTextBuffer.html" target="_top" xlink:title=" ">
<polygon fill="white" stroke="#666666" points="266,-102.62 171.25,-102.62 171.25,-81.88 266,-81.88 266,-102.62"/>
<text xml:space="preserve" text-anchor="middle" x="218.62" y="-89.12" font-family="Helvetica,sans-Serif" font-size="10.00">ImGuiTextBuffer</text>
</a>
</g>
</g>
<!-- Node4&#45;&gt;Node1 -->
<g id="edge3_Node000001_Node000004" class="edge">
<title>Node4&#45;&gt;Node1</title>
<g id="a_edge3_Node000001_Node000004"><a xlink:title=" ">
<path fill="none" stroke="#9a32cd" stroke-dasharray="5,2" d="M202.48,-73.34C187.98,-57.25 167.22,-34.23 155.53,-21.25"/>
<polygon fill="#9a32cd" stroke="#9a32cd" points="199.49,-75.25 208.78,-80.33 204.69,-70.56 199.49,-75.25"/>
</a>
</g>
<text xml:space="preserve" text-anchor="start" x="189.94" y="-45" font-family="Helvetica,sans-Serif" font-size="10.00" fill="grey">ResultPathBuf</text>
</g>
<!-- Node5 -->
<g id="Node000005" class="node">
<title>Node5</title>
<g id="a_Node000005"><a xlink:href="structImVector.html" target="_top" xlink:title=" ">
<polygon fill="white" stroke="#666666" points="270.12,-184.5 167.12,-184.5 167.12,-163.75 270.12,-163.75 270.12,-184.5"/>
<text xml:space="preserve" text-anchor="middle" x="218.62" y="-171" font-family="Helvetica,sans-Serif" font-size="10.00">ImVector&lt; char &gt;</text>
</a>
</g>
</g>
<!-- Node5&#45;&gt;Node4 -->
<g id="edge4_Node000004_Node000005" class="edge">
<title>Node5&#45;&gt;Node4</title>
<g id="a_edge4_Node000004_Node000005"><a xlink:title=" ">
<path fill="none" stroke="#9a32cd" stroke-dasharray="5,2" d="M218.62,-152C218.62,-136.18 218.62,-115.26 218.62,-103.12"/>
<polygon fill="#9a32cd" stroke="#9a32cd" points="215.13,-151.82 218.63,-161.82 222.13,-151.82 215.13,-151.82"/>
</a>
</g>
<text xml:space="preserve" text-anchor="start" x="221.62" y="-133.25" font-family="Helvetica,sans-Serif" font-size="10.00" fill="grey">Buf</text>
</g>
</g>
</svg>
