<?xml version="1.0" encoding="UTF-8" standalone="no"?>
<!DOCTYPE svg PUBLIC "-//W3C//DTD SVG 1.1//EN"
 "http://www.w3.org/Graphics/SVG/1.1/DTD/svg11.dtd">
<!-- Generated by graphviz version 13.0.0 (0)
 -->
<!-- Title: ImFontBuildSrcData Pages: 1 -->
<svg width="567pt" height="337pt"
 viewBox="0.00 0.00 567.00 337.00" xmlns="http://www.w3.org/2000/svg" xmlns:xlink="http://www.w3.org/1999/xlink">
<g id="graph0" class="graph" transform="scale(1 1) rotate(0) translate(4 332.88)">
<title>ImFontBuildSrcData</title>
<!-- Node1 -->
<g id="Node000001" class="node">
<title>Node1</title>
<g id="a_Node000001"><a xlink:title=" ">
<polygon fill="#999999" stroke="#666666" points="558.75,-125.75 446,-125.75 446,-105 558.75,-105 558.75,-125.75"/>
<text xml:space="preserve" text-anchor="middle" x="502.38" y="-112.25" font-family="Helvetica,sans-Serif" font-size="10.00">ImFontBuildSrcData</text>
</a>
</g>
</g>
<!-- Node2 -->
<g id="Node000002" class="node">
<title>Node2</title>
<g id="a_Node000002"><a xlink:href="structstbtt__fontinfo.html" target="_top" xlink:title=" ">
<polygon fill="white" stroke="#666666" points="341.75,-236.75 259.75,-236.75 259.75,-216 341.75,-216 341.75,-236.75"/>
<text xml:space="preserve" text-anchor="middle" x="300.75" y="-223.25" font-family="Helvetica,sans-Serif" font-size="10.00">stbtt_fontinfo</text>
</a>
</g>
</g>
<!-- Node2&#45;&gt;Node1 -->
<g id="edge1_Node000001_Node000002" class="edge">
<title>Node2&#45;&gt;Node1</title>
<g id="a_edge1_Node000001_Node000002"><a xlink:title=" ">
<path fill="none" stroke="#9a32cd" stroke-dasharray="5,2" d="M353.12,-219.67C377.1,-214.9 405.3,-206.85 428,-193.38 457.57,-175.82 482.72,-142.9 494.4,-125.99"/>
<polygon fill="#9a32cd" stroke="#9a32cd" points="352.77,-216.17 343.57,-221.42 354.03,-223.06 352.77,-216.17"/>
</a>
</g>
<text xml:space="preserve" text-anchor="start" x="378.5" y="-221.63" font-family="Helvetica,sans-Serif" font-size="10.00" fill="grey">FontInfo</text>
</g>
<!-- Node3 -->
<g id="Node000003" class="node">
<title>Node3</title>
<g id="a_Node000003"><a xlink:href="structstbtt____buf.html" target="_top" xlink:title=" ">
<polygon fill="white" stroke="#666666" points="89.5,-236.75 24.75,-236.75 24.75,-216 89.5,-216 89.5,-236.75"/>
<text xml:space="preserve" text-anchor="middle" x="57.12" y="-223.25" font-family="Helvetica,sans-Serif" font-size="10.00">stbtt__buf</text>
</a>
</g>
</g>
<!-- Node3&#45;&gt;Node2 -->
<g id="edge2_Node000002_Node000003" class="edge">
<title>Node3&#45;&gt;Node2</title>
<g id="a_edge2_Node000002_Node000003"><a xlink:title=" ">
<path fill="none" stroke="#9a32cd" stroke-dasharray="5,2" d="M101.35,-226.38C146.16,-226.38 215.66,-226.38 259.38,-226.38"/>
<polygon fill="#9a32cd" stroke="#9a32cd" points="101.48,-222.88 91.48,-226.38 101.48,-229.88 101.48,-222.88"/>
</a>
</g>
<text xml:space="preserve" text-anchor="start" x="155.5" y="-316.38" font-family="Helvetica,sans-Serif" font-size="10.00" fill="grey">cff</text>
<text xml:space="preserve" text-anchor="start" x="155.5" y="-299.62" font-family="Helvetica,sans-Serif" font-size="10.00" fill="grey">charstrings</text>
<text xml:space="preserve" text-anchor="start" x="155.5" y="-282.88" font-family="Helvetica,sans-Serif" font-size="10.00" fill="grey">fdselect</text>
<text xml:space="preserve" text-anchor="start" x="155.5" y="-266.12" font-family="Helvetica,sans-Serif" font-size="10.00" fill="grey">fontdicts</text>
<text xml:space="preserve" text-anchor="start" x="155.5" y="-249.38" font-family="Helvetica,sans-Serif" font-size="10.00" fill="grey">gsubrs</text>
<text xml:space="preserve" text-anchor="start" x="155.5" y="-232.62" font-family="Helvetica,sans-Serif" font-size="10.00" fill="grey">subrs</text>
</g>
<!-- Node4 -->
<g id="Node000004" class="node">
<title>Node4</title>
<g id="a_Node000004"><a xlink:href="structstbtt__pack__range.html" target="_top" xlink:title=" ">
<polygon fill="white" stroke="#666666" points="350.75,-143.75 250.75,-143.75 250.75,-123 350.75,-123 350.75,-143.75"/>
<text xml:space="preserve" text-anchor="middle" x="300.75" y="-130.25" font-family="Helvetica,sans-Serif" font-size="10.00">stbtt_pack_range</text>
</a>
</g>
</g>
<!-- Node4&#45;&gt;Node1 -->
<g id="edge3_Node000001_Node000004" class="edge">
<title>Node4&#45;&gt;Node1</title>
<g id="a_edge3_Node000001_Node000004"><a xlink:title=" ">
<path fill="none" stroke="#9a32cd" stroke-dasharray="5,2" d="M362.51,-127.9C388.94,-125.51 419.71,-122.74 445.55,-120.41"/>
<polygon fill="#9a32cd" stroke="#9a32cd" points="362.25,-124.41 352.6,-128.79 362.88,-131.38 362.25,-124.41"/>
</a>
</g>
<text xml:space="preserve" text-anchor="start" x="371.75" y="-133.29" font-family="Helvetica,sans-Serif" font-size="10.00" fill="grey">PackRange</text>
</g>
<!-- Node5 -->
<g id="Node000005" class="node">
<title>Node5</title>
<g id="a_Node000005"><a xlink:href="structstbtt__packedchar.html" target="_top" xlink:title=" ">
<polygon fill="white" stroke="#666666" points="106.75,-169.75 7.5,-169.75 7.5,-149 106.75,-149 106.75,-169.75"/>
<text xml:space="preserve" text-anchor="middle" x="57.12" y="-156.25" font-family="Helvetica,sans-Serif" font-size="10.00">stbtt_packedchar</text>
</a>
</g>
</g>
<!-- Node5&#45;&gt;Node1 -->
<g id="edge6_Node000001_Node000005" class="edge">
<title>Node5&#45;&gt;Node1</title>
<g id="a_edge6_Node000001_Node000005"><a xlink:title=" ">
<path fill="none" stroke="#9a32cd" stroke-dasharray="5,2" d="M118.43,-166.08C192.65,-172.45 321.87,-177.36 428,-149.38 447.55,-144.22 468.32,-134.11 482.76,-126.24"/>
<polygon fill="#9a32cd" stroke="#9a32cd" points="118.79,-162.6 108.51,-165.19 118.16,-169.57 118.79,-162.6"/>
</a>
</g>
<text xml:space="preserve" text-anchor="start" x="270" y="-176.99" font-family="Helvetica,sans-Serif" font-size="10.00" fill="grey">PackedChars</text>
</g>
<!-- Node5&#45;&gt;Node4 -->
<g id="edge4_Node000004_Node000005" class="edge">
<title>Node5&#45;&gt;Node4</title>
<g id="a_edge4_Node000004_Node000005"><a xlink:title=" ">
<path fill="none" stroke="#9a32cd" stroke-dasharray="5,2" d="M118.16,-148.57C122.92,-147.86 127.66,-147.2 132.25,-146.62 171.9,-141.66 217.09,-138.21 250.52,-136.08"/>
<polygon fill="#9a32cd" stroke="#9a32cd" points="117.91,-145.07 108.57,-150.07 118.99,-151.98 117.91,-145.07"/>
</a>
</g>
<text xml:space="preserve" text-anchor="start" x="135.25" y="-152.88" font-family="Helvetica,sans-Serif" font-size="10.00" fill="grey">chardata_for_range</text>
</g>
<!-- Node6 -->
<g id="Node000006" class="node">
<title>Node6</title>
<g id="a_Node000006"><a xlink:href="structstbrp__rect.html" target="_top" xlink:title=" ">
<polygon fill="white" stroke="#666666" points="333.12,-104.75 268.38,-104.75 268.38,-84 333.12,-84 333.12,-104.75"/>
<text xml:space="preserve" text-anchor="middle" x="300.75" y="-91.25" font-family="Helvetica,sans-Serif" font-size="10.00">stbrp_rect</text>
</a>
</g>
</g>
<!-- Node6&#45;&gt;Node1 -->
<g id="edge5_Node000001_Node000006" class="edge">
<title>Node6&#45;&gt;Node1</title>
<g id="a_edge5_Node000001_Node000006"><a xlink:title=" ">
<path fill="none" stroke="#9a32cd" stroke-dasharray="5,2" d="M344.95,-94.36C369.41,-94.8 400.51,-96.13 428,-99.62 437.44,-100.82 447.46,-102.62 456.96,-104.58"/>
<polygon fill="#9a32cd" stroke="#9a32cd" points="345.08,-90.86 335.04,-94.23 344.99,-97.86 345.08,-90.86"/>
</a>
</g>
<text xml:space="preserve" text-anchor="start" x="384.88" y="-105.88" font-family="Helvetica,sans-Serif" font-size="10.00" fill="grey">Rects</text>
</g>
<!-- Node7 -->
<g id="Node000007" class="node">
<title>Node7</title>
<g id="a_Node000007"><a xlink:href="structImBitVector.html" target="_top" xlink:title=" ">
<polygon fill="white" stroke="#666666" points="337.25,-62.75 264.25,-62.75 264.25,-42 337.25,-42 337.25,-62.75"/>
<text xml:space="preserve" text-anchor="middle" x="300.75" y="-49.25" font-family="Helvetica,sans-Serif" font-size="10.00">ImBitVector</text>
</a>
</g>
</g>
<!-- Node7&#45;&gt;Node1 -->
<g id="edge7_Node000001_Node000007" class="edge">
<title>Node7&#45;&gt;Node1</title>
<g id="a_edge7_Node000001_Node000007"><a xlink:title=" ">
<path fill="none" stroke="#9a32cd" stroke-dasharray="5,2" d="M349.1,-55.8C373.25,-58.59 402.76,-63.6 428,-72.62 449.8,-80.42 472.46,-94.73 486.72,-104.64"/>
<polygon fill="#9a32cd" stroke="#9a32cd" points="349.54,-52.33 339.23,-54.77 348.81,-59.29 349.54,-52.33"/>
</a>
</g>
<text xml:space="preserve" text-anchor="start" x="373.62" y="-78.88" font-family="Helvetica,sans-Serif" font-size="10.00" fill="grey">GlyphsSet</text>
</g>
<!-- Node8 -->
<g id="Node000008" class="node">
<title>Node8</title>
<g id="a_Node000008"><a xlink:href="structImVector.html" target="_top" xlink:title=" ">
<polygon fill="white" stroke="#666666" points="114.25,-62.75 0,-62.75 0,-42 114.25,-42 114.25,-62.75"/>
<text xml:space="preserve" text-anchor="middle" x="57.12" y="-49.25" font-family="Helvetica,sans-Serif" font-size="10.00">ImVector&lt; ImU32 &gt;</text>
</a>
</g>
</g>
<!-- Node8&#45;&gt;Node7 -->
<g id="edge8_Node000007_Node000008" class="edge">
<title>Node8&#45;&gt;Node7</title>
<g id="a_edge8_Node000007_Node000008"><a xlink:title=" ">
<path fill="none" stroke="#9a32cd" stroke-dasharray="5,2" d="M125.88,-52.38C170.71,-52.38 227.7,-52.38 263.96,-52.38"/>
<polygon fill="#9a32cd" stroke="#9a32cd" points="125.98,-48.88 115.98,-52.38 125.98,-55.88 125.98,-48.88"/>
</a>
</g>
<text xml:space="preserve" text-anchor="start" x="163.75" y="-58.62" font-family="Helvetica,sans-Serif" font-size="10.00" fill="grey">Storage</text>
</g>
<!-- Node9 -->
<g id="Node000009" class="node">
<title>Node9</title>
<g id="a_Node000009"><a xlink:href="structImVector.html" target="_top" xlink:title=" ">
<polygon fill="white" stroke="#666666" points="348.12,-20.75 253.38,-20.75 253.38,0 348.12,0 348.12,-20.75"/>
<text xml:space="preserve" text-anchor="middle" x="300.75" y="-7.25" font-family="Helvetica,sans-Serif" font-size="10.00">ImVector&lt; int &gt;</text>
</a>
</g>
</g>
<!-- Node9&#45;&gt;Node1 -->
<g id="edge9_Node000001_Node000009" class="edge">
<title>Node9&#45;&gt;Node1</title>
<g id="a_edge9_Node000001_Node000009"><a xlink:title=" ">
<path fill="none" stroke="#9a32cd" stroke-dasharray="5,2" d="M359.67,-14.26C382.11,-17.68 407.33,-24 428,-35.62 458.5,-52.78 483.42,-87.1 494.76,-104.59"/>
<polygon fill="#9a32cd" stroke="#9a32cd" points="360.44,-10.83 350.06,-12.96 359.5,-17.76 360.44,-10.83"/>
</a>
</g>
<text xml:space="preserve" text-anchor="start" x="372.88" y="-41.88" font-family="Helvetica,sans-Serif" font-size="10.00" fill="grey">GlyphsList</text>
</g>
</g>
</svg>
