<?xml version="1.0" encoding="UTF-8" standalone="no"?>
<!DOCTYPE svg PUBLIC "-//W3C//DTD SVG 1.1//EN"
 "http://www.w3.org/Graphics/SVG/1.1/DTD/svg11.dtd">
<!-- Generated by graphviz version 13.0.0 (0)
 -->
<!-- Title: tinygltf::Accessor Pages: 1 -->
<svg width="197pt" height="193pt"
 viewBox="0.00 0.00 197.00 193.00" xmlns="http://www.w3.org/2000/svg" xmlns:xlink="http://www.w3.org/1999/xlink">
<g id="graph0" class="graph" transform="scale(1 1) rotate(0) translate(4 188.5)">
<title>tinygltf::Accessor</title>
<!-- Node1 -->
<g id="Node000001" class="node">
<title>Node1</title>
<g id="a_Node000001"><a xlink:title=" ">
<polygon fill="#999999" stroke="#666666" points="100,-20.75 0,-20.75 0,0 100,0 100,-20.75"/>
<text xml:space="preserve" text-anchor="middle" x="50" y="-7.25" font-family="Helvetica,sans-Serif" font-size="10.00">tinygltf::Accessor</text>
</a>
</g>
</g>
<!-- Node2 -->
<g id="Node000002" class="node">
<title>Node2</title>
<g id="a_Node000002"><a xlink:href="classtinygltf_1_1Value.html" target="_top" xlink:title=" ">
<polygon fill="white" stroke="#666666" points="91.75,-184.5 8.25,-184.5 8.25,-163.75 91.75,-163.75 91.75,-184.5"/>
<text xml:space="preserve" text-anchor="middle" x="50" y="-171" font-family="Helvetica,sans-Serif" font-size="10.00">tinygltf::Value</text>
</a>
</g>
</g>
<!-- Node2&#45;&gt;Node1 -->
<g id="edge1_Node000001_Node000002" class="edge">
<title>Node2&#45;&gt;Node1</title>
<g id="a_edge1_Node000001_Node000002"><a xlink:title=" ">
<path fill="none" stroke="#9a32cd" stroke-dasharray="5,2" d="M47.28,-152.52C45.75,-139.97 44.02,-123.59 43.25,-109 42.47,-94.13 42.47,-90.37 43.25,-75.5 44.27,-56.05 47.02,-33.41 48.68,-20.91"/>
<polygon fill="#9a32cd" stroke="#9a32cd" points="43.76,-152.61 48.49,-162.09 50.7,-151.73 43.76,-152.61"/>
</a>
</g>
<text xml:space="preserve" text-anchor="start" x="46.25" y="-89.12" font-family="Helvetica,sans-Serif" font-size="10.00" fill="grey">extras</text>
</g>
<!-- Node3 -->
<g id="Node000003" class="node">
<title>Node3</title>
<g id="a_Node000003"><a xlink:href="structtinygltf_1_1Accessor_1_1Sparse.html" target="_top" xlink:title=" ">
<polygon fill="white" stroke="#666666" points="189,-109 89,-109 89,-75.5 189,-75.5 189,-109"/>
<text xml:space="preserve" text-anchor="start" x="97" y="-95.5" font-family="Helvetica,sans-Serif" font-size="10.00">tinygltf::Accessor</text>
<text xml:space="preserve" text-anchor="middle" x="139" y="-82.75" font-family="Helvetica,sans-Serif" font-size="10.00">::Sparse</text>
</a>
</g>
</g>
<!-- Node2&#45;&gt;Node3 -->
<g id="edge3_Node000003_Node000002" class="edge">
<title>Node2&#45;&gt;Node3</title>
<g id="a_edge3_Node000003_Node000002"><a xlink:title=" ">
<path fill="none" stroke="#9a32cd" stroke-dasharray="5,2" d="M69.15,-155.94C84.49,-142.17 105.85,-123.01 120.9,-109.5"/>
<polygon fill="#9a32cd" stroke="#9a32cd" points="67.14,-153.04 62.04,-162.32 71.82,-158.25 67.14,-153.04"/>
</a>
</g>
<text xml:space="preserve" text-anchor="start" x="102.83" y="-133.25" font-family="Helvetica,sans-Serif" font-size="10.00" fill="grey">extras</text>
</g>
<!-- Node3&#45;&gt;Node1 -->
<g id="edge2_Node000001_Node000003" class="edge">
<title>Node3&#45;&gt;Node1</title>
<g id="a_edge2_Node000001_Node000003"><a xlink:title=" ">
<path fill="none" stroke="#9a32cd" stroke-dasharray="5,2" d="M112.88,-67.8C95.48,-52.2 73.55,-32.51 60.72,-20.99"/>
<polygon fill="#9a32cd" stroke="#9a32cd" points="110.08,-70 119.86,-74.08 114.76,-64.79 110.08,-70"/>
</a>
</g>
<text xml:space="preserve" text-anchor="start" x="102.83" y="-45" font-family="Helvetica,sans-Serif" font-size="10.00" fill="grey">sparse</text>
</g>
</g>
</svg>
