<?xml version="1.0" encoding="UTF-8" standalone="no"?>
<!DOCTYPE svg PUBLIC "-//W3C//DTD SVG 1.1//EN"
 "http://www.w3.org/Graphics/SVG/1.1/DTD/svg11.dtd">
<!-- Generated by graphviz version 13.0.0 (0)
 -->
<!-- Title: ImDrawListSplitter Pages: 1 -->
<svg width="2070pt" height="930pt"
 viewBox="0.00 0.00 2070.00 930.00" xmlns="http://www.w3.org/2000/svg" xmlns:xlink="http://www.w3.org/1999/xlink">
<g id="graph0" class="graph" transform="scale(1 1) rotate(0) translate(4 926.12)">
<title>ImDrawListSplitter</title>
<!-- Node1 -->
<g id="Node000001" class="node">
<title>Node1</title>
<g id="a_Node000001"><a xlink:title=" ">
<polygon fill="#999999" stroke="#666666" points="906.75,-873.75 800,-873.75 800,-853 906.75,-853 906.75,-873.75"/>
<text xml:space="preserve" text-anchor="middle" x="853.38" y="-860.25" font-family="Helvetica,sans-Serif" font-size="10.00">ImDrawListSplitter</text>
</a>
</g>
</g>
<!-- Node7 -->
<g id="Node000007" class="node">
<title>Node7</title>
<g id="a_Node000007"><a xlink:href="structImDrawList.html" target="_top" xlink:title=" ">
<polygon fill="white" stroke="#666666" points="1177.38,-701.75 1105.88,-701.75 1105.88,-681 1177.38,-681 1177.38,-701.75"/>
<text xml:space="preserve" text-anchor="middle" x="1141.62" y="-688.25" font-family="Helvetica,sans-Serif" font-size="10.00">ImDrawList</text>
</a>
</g>
</g>
<!-- Node1&#45;&gt;Node7 -->
<g id="edge42_Node000007_Node000001" class="edge">
<title>Node1&#45;&gt;Node7</title>
<g id="a_edge42_Node000007_Node000001"><a xlink:title=" ">
<path fill="none" stroke="#9a32cd" stroke-dasharray="5,2" d="M893.08,-848.81C908.23,-843.37 925.81,-837.37 942,-832.62 985.06,-820.01 1001.98,-832.8 1040.25,-809.38 1085.9,-781.44 1121.23,-725.63 1134.7,-702.16"/>
<polygon fill="#9a32cd" stroke="#9a32cd" points="892.17,-845.42 883.97,-852.12 894.56,-851.99 892.17,-845.42"/>
</a>
</g>
<text xml:space="preserve" text-anchor="start" x="970.88" y="-838.88" font-family="Helvetica,sans-Serif" font-size="10.00" fill="grey">_Splitter</text>
</g>
<!-- Node2 -->
<g id="Node000002" class="node">
<title>Node2</title>
<g id="a_Node000002"><a xlink:href="structImVector.html" target="_top" xlink:title=" ">
<polygon fill="white" stroke="#666666" points="2061.5,-788.75 1901.5,-788.75 1901.5,-768 2061.5,-768 2061.5,-788.75"/>
<text xml:space="preserve" text-anchor="middle" x="1981.5" y="-775.25" font-family="Helvetica,sans-Serif" font-size="10.00">ImVector&lt; ImDrawChannel &gt;</text>
</a>
</g>
</g>
<!-- Node2&#45;&gt;Node1 -->
<g id="edge1_Node000001_Node000002" class="edge">
<title>Node2&#45;&gt;Node1</title>
<g id="a_edge1_Node000001_Node000002"><a xlink:title=" ">
<path fill="none" stroke="#9a32cd" stroke-dasharray="5,2" d="M1958.59,-795.97C1924.65,-821.39 1856.36,-865.38 1790.25,-865.38 1140.62,-865.38 1140.62,-865.38 1140.62,-865.38 1059.12,-865.38 964.57,-864.55 907.13,-863.96"/>
<polygon fill="#9a32cd" stroke="#9a32cd" points="1960.6,-798.83 1966.4,-789.97 1956.34,-793.28 1960.6,-798.83"/>
</a>
</g>
<text xml:space="preserve" text-anchor="start" x="1429.25" y="-871.62" font-family="Helvetica,sans-Serif" font-size="10.00" fill="grey">_Channels</text>
</g>
<!-- Node3 -->
<g id="Node000003" class="node">
<title>Node3</title>
<g id="a_Node000003"><a xlink:href="structImDrawChannel.html" target="_top" xlink:title=" ">
<polygon fill="white" stroke="#666666" points="1836.25,-724.75 1742.25,-724.75 1742.25,-704 1836.25,-704 1836.25,-724.75"/>
<text xml:space="preserve" text-anchor="middle" x="1789.25" y="-711.25" font-family="Helvetica,sans-Serif" font-size="10.00">ImDrawChannel</text>
</a>
</g>
</g>
<!-- Node3&#45;&gt;Node2 -->
<g id="edge2_Node000002_Node000003" class="edge">
<title>Node3&#45;&gt;Node2</title>
<g id="a_edge2_Node000002_Node000003"><a xlink:title=" ">
<path fill="none" stroke="#9a32cd" stroke-dasharray="5,2" d="M1833.36,-728.88C1868.3,-740.63 1916.78,-756.94 1948.39,-767.57"/>
<polygon fill="#9a32cd" stroke="#9a32cd" points="1834.55,-725.59 1823.96,-725.71 1832.32,-732.22 1834.55,-725.59"/>
</a>
</g>
<text xml:space="preserve" text-anchor="start" x="1857.25" y="-750.71" font-family="Helvetica,sans-Serif" font-size="10.00" fill="grey">Data</text>
</g>
<!-- Node4 -->
<g id="Node000004" class="node">
<title>Node4</title>
<g id="a_Node000004"><a xlink:href="structImVector.html" target="_top" xlink:title=" ">
<polygon fill="white" stroke="#666666" points="1643.25,-724.75 1500.5,-724.75 1500.5,-704 1643.25,-704 1643.25,-724.75"/>
<text xml:space="preserve" text-anchor="middle" x="1571.88" y="-711.25" font-family="Helvetica,sans-Serif" font-size="10.00">ImVector&lt; ImDrawCmd &gt;</text>
</a>
</g>
</g>
<!-- Node4&#45;&gt;Node3 -->
<g id="edge3_Node000003_Node000004" class="edge">
<title>Node4&#45;&gt;Node3</title>
<g id="a_edge3_Node000003_Node000004"><a xlink:title=" ">
<path fill="none" stroke="#9a32cd" stroke-dasharray="5,2" d="M1654.83,-714.38C1684.27,-714.38 1716.44,-714.38 1741.82,-714.38"/>
<polygon fill="#9a32cd" stroke="#9a32cd" points="1655.21,-710.88 1645.21,-714.38 1655.21,-717.88 1655.21,-710.88"/>
</a>
</g>
<text xml:space="preserve" text-anchor="start" x="1664.25" y="-720.62" font-family="Helvetica,sans-Serif" font-size="10.00" fill="grey">_CmdBuffer</text>
</g>
<!-- Node4&#45;&gt;Node7 -->
<g id="edge7_Node000007_Node000004" class="edge">
<title>Node4&#45;&gt;Node7</title>
<g id="a_edge7_Node000007_Node000004"><a xlink:title=" ">
<path fill="none" stroke="#9a32cd" stroke-dasharray="5,2" d="M1488.84,-706.64C1463.07,-704.43 1434.49,-702.19 1408.25,-700.62 1325.57,-695.69 1228.24,-693.13 1177.46,-692.04"/>
<polygon fill="#9a32cd" stroke="#9a32cd" points="1488.31,-710.11 1498.58,-707.49 1488.92,-703.14 1488.31,-710.11"/>
</a>
</g>
<text xml:space="preserve" text-anchor="start" x="1344" y="-706.88" font-family="Helvetica,sans-Serif" font-size="10.00" fill="grey">CmdBuffer</text>
</g>
<!-- Node5 -->
<g id="Node000005" class="node">
<title>Node5</title>
<g id="a_Node000005"><a xlink:href="structImDrawCmd.html" target="_top" xlink:title=" ">
<polygon fill="white" stroke="#666666" points="1408.25,-748.75 1331.5,-748.75 1331.5,-728 1408.25,-728 1408.25,-748.75"/>
<text xml:space="preserve" text-anchor="middle" x="1369.88" y="-735.25" font-family="Helvetica,sans-Serif" font-size="10.00">ImDrawCmd</text>
</a>
</g>
</g>
<!-- Node5&#45;&gt;Node4 -->
<g id="edge4_Node000004_Node000005" class="edge">
<title>Node5&#45;&gt;Node4</title>
<g id="a_edge4_Node000004_Node000005"><a xlink:title=" ">
<path fill="none" stroke="#9a32cd" stroke-dasharray="5,2" d="M1419.89,-732.49C1444.06,-729.59 1473.66,-726.04 1500.23,-722.85"/>
<polygon fill="#9a32cd" stroke="#9a32cd" points="1419.51,-729.01 1410,-733.68 1420.34,-735.96 1419.51,-729.01"/>
</a>
</g>
<text xml:space="preserve" text-anchor="start" x="1442.75" y="-737.53" font-family="Helvetica,sans-Serif" font-size="10.00" fill="grey">Data</text>
</g>
<!-- Node6 -->
<g id="Node000006" class="node">
<title>Node6</title>
<g id="a_Node000006"><a xlink:href="structImVec4.html" target="_top" xlink:title=" ">
<polygon fill="white" stroke="#666666" points="73.38,-739.75 21.38,-739.75 21.38,-719 73.38,-719 73.38,-739.75"/>
<text xml:space="preserve" text-anchor="middle" x="47.38" y="-726.25" font-family="Helvetica,sans-Serif" font-size="10.00">ImVec4</text>
</a>
</g>
</g>
<!-- Node6&#45;&gt;Node5 -->
<g id="edge5_Node000005_Node000006" class="edge">
<title>Node6&#45;&gt;Node5</title>
<g id="a_edge5_Node000005_Node000006"><a xlink:title=" ">
<path fill="none" stroke="#9a32cd" stroke-dasharray="5,2" d="M62.02,-749.19C95.23,-794.82 185.2,-903.38 289.62,-903.38 289.62,-903.38 289.62,-903.38 992.12,-903.38 1146.36,-903.38 1308.54,-785.91 1355.45,-749.2"/>
<polygon fill="#9a32cd" stroke="#9a32cd" points="65.01,-747.35 56.36,-741.23 59.3,-751.41 65.01,-747.35"/>
</a>
</g>
<text xml:space="preserve" text-anchor="start" x="685.5" y="-909.62" font-family="Helvetica,sans-Serif" font-size="10.00" fill="grey">ClipRect</text>
</g>
<!-- Node12 -->
<g id="Node000012" class="node">
<title>Node12</title>
<g id="a_Node000012"><a xlink:href="structImDrawListSharedData.html" target="_top" xlink:title=" ">
<polygon fill="white" stroke="#666666" points="917.62,-503.75 789.12,-503.75 789.12,-483 917.62,-483 917.62,-503.75"/>
<text xml:space="preserve" text-anchor="middle" x="853.38" y="-490.25" font-family="Helvetica,sans-Serif" font-size="10.00">ImDrawListSharedData</text>
</a>
</g>
</g>
<!-- Node6&#45;&gt;Node12 -->
<g id="edge14_Node000012_Node000006" class="edge">
<title>Node6&#45;&gt;Node12</title>
<g id="a_edge14_Node000012_Node000006"><a xlink:title=" ">
<path fill="none" stroke="#9a32cd" stroke-dasharray="5,2" d="M61.96,-709.51C87.72,-673.69 147.48,-598.98 218.5,-566.38 273.92,-540.93 704.55,-523.12 764.75,-513.38 779.54,-510.98 795.56,-507.57 809.8,-504.24"/>
<polygon fill="#9a32cd" stroke="#9a32cd" points="59.39,-707.09 56.49,-717.28 65.11,-711.12 59.39,-707.09"/>
</a>
</g>
<text xml:space="preserve" text-anchor="start" x="391.75" y="-565.25" font-family="Helvetica,sans-Serif" font-size="10.00" fill="grey">ClipRectFullscreen</text>
<text xml:space="preserve" text-anchor="start" x="391.75" y="-548.5" font-family="Helvetica,sans-Serif" font-size="10.00" fill="grey">TexUvLines</text>
</g>
<!-- Node18 -->
<g id="Node000018" class="node">
<title>Node18</title>
<g id="a_Node000018"><a xlink:href="structImFontAtlas.html" target="_top" xlink:title=" ">
<polygon fill="white" stroke="#666666" points="327.88,-371.75 253.38,-371.75 253.38,-351 327.88,-351 327.88,-371.75"/>
<text xml:space="preserve" text-anchor="middle" x="290.62" y="-358.25" font-family="Helvetica,sans-Serif" font-size="10.00">ImFontAtlas</text>
</a>
</g>
</g>
<!-- Node6&#45;&gt;Node18 -->
<g id="edge33_Node000018_Node000006" class="edge">
<title>Node6&#45;&gt;Node18</title>
<g id="a_edge33_Node000018_Node000006"><a xlink:title=" ">
<path fill="none" stroke="#9a32cd" stroke-dasharray="5,2" d="M53.6,-707.71C62.4,-673.78 82.24,-606.8 112.75,-556.62 161.47,-476.51 245.58,-399.5 277.16,-372"/>
<polygon fill="#9a32cd" stroke="#9a32cd" points="50.27,-706.61 51.23,-717.16 57.06,-708.31 50.27,-706.61"/>
</a>
</g>
<text xml:space="preserve" text-anchor="start" x="128.88" y="-562.88" font-family="Helvetica,sans-Serif" font-size="10.00" fill="grey">TexUvLines</text>
</g>
<!-- Node26 -->
<g id="Node000026" class="node">
<title>Node26</title>
<g id="a_Node000026"><a xlink:href="structImDrawCmdHeader.html" target="_top" xlink:title=" ">
<polygon fill="white" stroke="#666666" points="492.75,-739.75 380.75,-739.75 380.75,-719 492.75,-719 492.75,-739.75"/>
<text xml:space="preserve" text-anchor="middle" x="436.75" y="-726.25" font-family="Helvetica,sans-Serif" font-size="10.00">ImDrawCmdHeader</text>
</a>
</g>
</g>
<!-- Node6&#45;&gt;Node26 -->
<g id="edge41_Node000026_Node000006" class="edge">
<title>Node6&#45;&gt;Node26</title>
<g id="a_edge41_Node000026_Node000006"><a xlink:title=" ">
<path fill="none" stroke="#9a32cd" stroke-dasharray="5,2" d="M85.21,-729.38C153.48,-729.38 300.01,-729.38 380.31,-729.38"/>
<polygon fill="#9a32cd" stroke="#9a32cd" points="85.31,-725.88 75.31,-729.38 85.31,-732.88 85.31,-725.88"/>
</a>
</g>
<text xml:space="preserve" text-anchor="start" x="136.38" y="-735.62" font-family="Helvetica,sans-Serif" font-size="10.00" fill="grey">ClipRect</text>
</g>
<!-- Node27 -->
<g id="Node000027" class="node">
<title>Node27</title>
<g id="a_Node000027"><a xlink:href="structImVector.html" target="_top" xlink:title=" ">
<polygon fill="white" stroke="#666666" points="764.75,-814.75 646.75,-814.75 646.75,-794 764.75,-794 764.75,-814.75"/>
<text xml:space="preserve" text-anchor="middle" x="705.75" y="-801.25" font-family="Helvetica,sans-Serif" font-size="10.00">ImVector&lt; ImVec4 &gt;</text>
</a>
</g>
</g>
<!-- Node6&#45;&gt;Node27 -->
<g id="edge44_Node000027_Node000006" class="edge">
<title>Node6&#45;&gt;Node27</title>
<g id="a_edge44_Node000027_Node000006"><a xlink:title=" ">
<path fill="none" stroke="#9a32cd" stroke-dasharray="5,2" d="M84.31,-744.04C93.45,-747.26 103.35,-750.32 112.75,-752.38 305.01,-794.44 539.43,-802.69 646.45,-804.16"/>
<polygon fill="#9a32cd" stroke="#9a32cd" points="85.64,-740.8 75.04,-740.61 83.21,-747.36 85.64,-740.8"/>
</a>
</g>
<text xml:space="preserve" text-anchor="start" x="279" y="-795.44" font-family="Helvetica,sans-Serif" font-size="10.00" fill="grey">Data</text>
</g>
<!-- Node7&#45;&gt;Node5 -->
<g id="edge6_Node000005_Node000007" class="edge">
<title>Node7&#45;&gt;Node5</title>
<g id="a_edge6_Node000005_Node000007"><a xlink:title=" ">
<path fill="none" stroke="#9a32cd" stroke-dasharray="5,2" d="M1188.53,-700.91C1230.6,-709.65 1292.14,-722.43 1331.34,-730.58"/>
<polygon fill="#9a32cd" stroke="#9a32cd" points="1189.47,-697.53 1178.96,-698.92 1188.04,-704.38 1189.47,-697.53"/>
</a>
</g>
<text xml:space="preserve" text-anchor="start" x="1246" y="-732.02" font-family="Helvetica,sans-Serif" font-size="10.00" fill="grey">UserCallback</text>
</g>
<!-- Node8 -->
<g id="Node000008" class="node">
<title>Node8</title>
<g id="a_Node000008"><a xlink:href="structImVector.html" target="_top" xlink:title=" ">
<polygon fill="white" stroke="#666666" points="921,-464.75 785.75,-464.75 785.75,-444 921,-444 921,-464.75"/>
<text xml:space="preserve" text-anchor="middle" x="853.38" y="-451.25" font-family="Helvetica,sans-Serif" font-size="10.00">ImVector&lt; ImDrawIdx &gt;</text>
</a>
</g>
</g>
<!-- Node8&#45;&gt;Node3 -->
<g id="edge47_Node000003_Node000008" class="edge">
<title>Node8&#45;&gt;Node3</title>
<g id="a_edge47_Node000003_Node000008"><a xlink:title=" ">
<path fill="none" stroke="#9a32cd" stroke-dasharray="5,2" d="M932.63,-449.33C990.14,-446.04 1070.21,-442.38 1140.62,-442.38 1140.62,-442.38 1140.62,-442.38 1572.88,-442.38 1708.7,-442.38 1772.35,-653.42 1785.59,-703.71"/>
<polygon fill="#9a32cd" stroke="#9a32cd" points="932.72,-445.81 922.94,-449.89 933.13,-452.8 932.72,-445.81"/>
</a>
</g>
<text xml:space="preserve" text-anchor="start" x="1345.12" y="-448.62" font-family="Helvetica,sans-Serif" font-size="10.00" fill="grey">_IdxBuffer</text>
</g>
<!-- Node8&#45;&gt;Node7 -->
<g id="edge8_Node000007_Node000008" class="edge">
<title>Node8&#45;&gt;Node7</title>
<g id="a_edge8_Node000007_Node000008"><a xlink:title=" ">
<path fill="none" stroke="#9a32cd" stroke-dasharray="5,2" d="M932.79,-455.78C975.54,-458 1023.14,-463.29 1040.25,-475.62 1112.3,-527.56 1134.13,-644.44 1139.27,-680.54"/>
<polygon fill="#9a32cd" stroke="#9a32cd" points="933.14,-452.3 922.99,-455.33 932.82,-459.29 933.14,-452.3"/>
</a>
</g>
<text xml:space="preserve" text-anchor="start" x="969" y="-481.88" font-family="Helvetica,sans-Serif" font-size="10.00" fill="grey">IdxBuffer</text>
</g>
<!-- Node9 -->
<g id="Node000009" class="node">
<title>Node9</title>
<g id="a_Node000009"><a xlink:href="structImVector.html" target="_top" xlink:title=" ">
<polygon fill="white" stroke="#666666" points="923.25,-608.75 783.5,-608.75 783.5,-588 923.25,-588 923.25,-608.75"/>
<text xml:space="preserve" text-anchor="middle" x="853.38" y="-595.25" font-family="Helvetica,sans-Serif" font-size="10.00">ImVector&lt; ImDrawVert &gt;</text>
</a>
</g>
</g>
<!-- Node9&#45;&gt;Node7 -->
<g id="edge9_Node000007_Node000009" class="edge">
<title>Node9&#45;&gt;Node7</title>
<g id="a_edge9_Node000007_Node000009"><a xlink:title=" ">
<path fill="none" stroke="#9a32cd" stroke-dasharray="5,2" d="M934.79,-593.8C968.38,-594.48 1007.21,-598.76 1040.25,-611.62 1079.24,-626.81 1115.1,-662.7 1131.39,-680.7"/>
<polygon fill="#9a32cd" stroke="#9a32cd" points="935.16,-590.3 925.12,-593.71 935.09,-597.3 935.16,-590.3"/>
</a>
</g>
<text xml:space="preserve" text-anchor="start" x="968.25" y="-617.88" font-family="Helvetica,sans-Serif" font-size="10.00" fill="grey">VtxBuffer</text>
</g>
<!-- Node10 -->
<g id="Node000010" class="node">
<title>Node10</title>
<g id="a_Node000010"><a xlink:href="structImDrawVert.html" target="_top" xlink:title=" ">
<polygon fill="white" stroke="#666666" points="606.62,-608.75 532.88,-608.75 532.88,-588 606.62,-588 606.62,-608.75"/>
<text xml:space="preserve" text-anchor="middle" x="569.75" y="-595.25" font-family="Helvetica,sans-Serif" font-size="10.00">ImDrawVert</text>
</a>
</g>
</g>
<!-- Node10&#45;&gt;Node7 -->
<g id="edge38_Node000007_Node000010" class="edge">
<title>Node10&#45;&gt;Node7</title>
<g id="a_edge38_Node000007_Node000010"><a xlink:title=" ">
<path fill="none" stroke="#9a32cd" stroke-dasharray="5,2" d="M612.52,-612.47C623.55,-615.79 635.51,-619.04 646.75,-621.38 768.21,-646.61 801.23,-635.8 924,-653.62 988.22,-662.95 1062.68,-676.54 1105.45,-684.61"/>
<polygon fill="#9a32cd" stroke="#9a32cd" points="613.89,-609.23 603.3,-609.61 611.81,-615.92 613.89,-609.23"/>
</a>
</g>
<text xml:space="preserve" text-anchor="start" x="822.62" y="-659.88" font-family="Helvetica,sans-Serif" font-size="10.00" fill="grey">_VtxWritePtr</text>
</g>
<!-- Node10&#45;&gt;Node9 -->
<g id="edge10_Node000009_Node000010" class="edge">
<title>Node10&#45;&gt;Node9</title>
<g id="a_edge10_Node000009_Node000010"><a xlink:title=" ">
<path fill="none" stroke="#9a32cd" stroke-dasharray="5,2" d="M618.23,-598.38C663.38,-598.38 731.84,-598.38 783.09,-598.38"/>
<polygon fill="#9a32cd" stroke="#9a32cd" points="618.5,-594.88 608.5,-598.38 618.5,-601.88 618.5,-594.88"/>
</a>
</g>
<text xml:space="preserve" text-anchor="start" x="694.12" y="-604.62" font-family="Helvetica,sans-Serif" font-size="10.00" fill="grey">Data</text>
</g>
<!-- Node11 -->
<g id="Node000011" class="node">
<title>Node11</title>
<g id="a_Node000011"><a xlink:href="structImVec2.html" target="_top" xlink:title=" ">
<polygon fill="white" stroke="#666666" points="73.38,-417.75 21.38,-417.75 21.38,-397 73.38,-397 73.38,-417.75"/>
<text xml:space="preserve" text-anchor="middle" x="47.38" y="-404.25" font-family="Helvetica,sans-Serif" font-size="10.00">ImVec2</text>
</a>
</g>
</g>
<!-- Node11&#45;&gt;Node10 -->
<g id="edge11_Node000010_Node000011" class="edge">
<title>Node11&#45;&gt;Node10</title>
<g id="a_edge11_Node000010_Node000011"><a xlink:title=" ">
<path fill="none" stroke="#9a32cd" stroke-dasharray="5,2" d="M58.94,-428.06C69.99,-447.92 89.03,-477.6 112.75,-496.38 240.77,-597.69 449.32,-602.75 532.67,-600.28"/>
<polygon fill="#9a32cd" stroke="#9a32cd" points="62.16,-426.67 54.35,-419.5 55.99,-429.97 62.16,-426.67"/>
</a>
</g>
<text xml:space="preserve" text-anchor="start" x="282" y="-613.06" font-family="Helvetica,sans-Serif" font-size="10.00" fill="grey">pos</text>
<text xml:space="preserve" text-anchor="start" x="282" y="-596.31" font-family="Helvetica,sans-Serif" font-size="10.00" fill="grey">uv</text>
</g>
<!-- Node11&#45;&gt;Node12 -->
<g id="edge13_Node000012_Node000011" class="edge">
<title>Node11&#45;&gt;Node12</title>
<g id="a_edge13_Node000012_Node000011"><a xlink:title=" ">
<path fill="none" stroke="#9a32cd" stroke-dasharray="5,2" d="M74.48,-423.79C85.82,-430.1 99.51,-436.67 112.75,-440.38 120.87,-442.64 611.03,-476.69 788.84,-488.99"/>
<polygon fill="#9a32cd" stroke="#9a32cd" points="76.53,-420.93 66.13,-418.92 73.01,-426.98 76.53,-420.93"/>
</a>
</g>
<text xml:space="preserve" text-anchor="start" x="395.88" y="-490.91" font-family="Helvetica,sans-Serif" font-size="10.00" fill="grey">ArcFastVtx</text>
<text xml:space="preserve" text-anchor="start" x="395.88" y="-474.16" font-family="Helvetica,sans-Serif" font-size="10.00" fill="grey">TexUvWhitePixel</text>
</g>
<!-- Node11&#45;&gt;Node18 -->
<g id="edge22_Node000018_Node000011" class="edge">
<title>Node11&#45;&gt;Node18</title>
<g id="a_edge22_Node000018_Node000011"><a xlink:title=" ">
<path fill="none" stroke="#9a32cd" stroke-dasharray="5,2" d="M67.74,-389.39C79.72,-379.49 95.99,-368.18 112.75,-362.88 159.45,-348.09 216.61,-351.15 253.08,-355.55"/>
<polygon fill="#9a32cd" stroke="#9a32cd" points="65.51,-386.68 60.25,-395.88 70.1,-391.97 65.51,-386.68"/>
</a>
</g>
<text xml:space="preserve" text-anchor="start" x="115.75" y="-385.88" font-family="Helvetica,sans-Serif" font-size="10.00" fill="grey">TexUvScale</text>
<text xml:space="preserve" text-anchor="start" x="115.75" y="-369.12" font-family="Helvetica,sans-Serif" font-size="10.00" fill="grey">TexUvWhitePixel</text>
</g>
<!-- Node21 -->
<g id="Node000021" class="node">
<title>Node21</title>
<g id="a_Node000021"><a xlink:href="structImFontAtlasCustomRect.html" target="_top" xlink:title=" ">
<polygon fill="white" stroke="#666666" points="920.25,-242.75 786.5,-242.75 786.5,-222 920.25,-222 920.25,-242.75"/>
<text xml:space="preserve" text-anchor="middle" x="853.38" y="-229.25" font-family="Helvetica,sans-Serif" font-size="10.00">ImFontAtlasCustomRect</text>
</a>
</g>
</g>
<!-- Node11&#45;&gt;Node21 -->
<g id="edge27_Node000021_Node000011" class="edge">
<title>Node11&#45;&gt;Node21</title>
<g id="a_edge27_Node000021_Node000011"><a xlink:title=" ">
<path fill="none" stroke="#9a32cd" stroke-dasharray="5,2" d="M62.15,-387.29C71.48,-373.59 84.01,-354.99 94.75,-338.38 102.98,-325.63 99.95,-317.51 112.75,-309.38 168.96,-273.64 615.21,-245.48 786.11,-235.9"/>
<polygon fill="#9a32cd" stroke="#9a32cd" points="59.33,-385.22 56.58,-395.45 65.11,-389.17 59.33,-385.22"/>
</a>
</g>
<text xml:space="preserve" text-anchor="start" x="407.88" y="-270.84" font-family="Helvetica,sans-Serif" font-size="10.00" fill="grey">GlyphOffset</text>
</g>
<!-- Node23 -->
<g id="Node000023" class="node">
<title>Node23</title>
<g id="a_Node000023"><a xlink:href="structImFontConfig.html" target="_top" xlink:title=" ">
<polygon fill="white" stroke="#666666" points="893.62,-145.75 813.12,-145.75 813.12,-125 893.62,-125 893.62,-145.75"/>
<text xml:space="preserve" text-anchor="middle" x="853.38" y="-132.25" font-family="Helvetica,sans-Serif" font-size="10.00">ImFontConfig</text>
</a>
</g>
</g>
<!-- Node11&#45;&gt;Node23 -->
<g id="edge31_Node000023_Node000011" class="edge">
<title>Node11&#45;&gt;Node23</title>
<g id="a_edge31_Node000023_Node000011"><a xlink:title=" ">
<path fill="none" stroke="#9a32cd" stroke-dasharray="5,2" d="M63.83,-387.58C73.69,-374.24 86.17,-355.95 94.75,-338.38 106.03,-315.26 102.89,-307.13 112.75,-283.38 152.5,-187.59 138.74,-141.65 218.5,-75.38 276.31,-27.33 306.35,-38.35 380.75,-27.62 552.93,-2.82 599.13,-50.16 764.75,-103.38 784.95,-109.86 807.42,-118.09 824.55,-124.58"/>
<polygon fill="#9a32cd" stroke="#9a32cd" points="61.08,-385.42 57.83,-395.5 66.66,-389.65 61.08,-385.42"/>
</a>
</g>
<text xml:space="preserve" text-anchor="start" x="407.88" y="-33.88" font-family="Helvetica,sans-Serif" font-size="10.00" fill="grey">GlyphOffset</text>
</g>
<!-- Node25 -->
<g id="Node000025" class="node">
<title>Node25</title>
<g id="a_Node000025"><a xlink:href="structImVector.html" target="_top" xlink:title=" ">
<polygon fill="white" stroke="#666666" points="628.75,-515.75 510.75,-515.75 510.75,-495 628.75,-495 628.75,-515.75"/>
<text xml:space="preserve" text-anchor="middle" x="569.75" y="-502.25" font-family="Helvetica,sans-Serif" font-size="10.00">ImVector&lt; ImVec2 &gt;</text>
</a>
</g>
</g>
<!-- Node11&#45;&gt;Node25 -->
<g id="edge37_Node000025_Node000011" class="edge">
<title>Node11&#45;&gt;Node25</title>
<g id="a_edge37_Node000025_Node000011"><a xlink:title=" ">
<path fill="none" stroke="#9a32cd" stroke-dasharray="5,2" d="M62.79,-426.79C74.53,-440.97 92.44,-459.25 112.75,-468.38 244.98,-527.75 420.43,-521.27 510.27,-512.66"/>
<polygon fill="#9a32cd" stroke="#9a32cd" points="65.57,-424.66 56.64,-418.98 60.08,-429 65.57,-424.66"/>
</a>
</g>
<text xml:space="preserve" text-anchor="start" x="279" y="-523.87" font-family="Helvetica,sans-Serif" font-size="10.00" fill="grey">Data</text>
</g>
<!-- Node12&#45;&gt;Node7 -->
<g id="edge12_Node000007_Node000012" class="edge">
<title>Node12&#45;&gt;Node7</title>
<g id="a_edge12_Node000007_Node000012"><a xlink:title=" ">
<path fill="none" stroke="#9a32cd" stroke-dasharray="5,2" d="M929.3,-496.91C972.71,-500.23 1022.24,-506.57 1040.25,-518.62 1100.79,-559.13 1129.55,-649.43 1137.93,-680.57"/>
<polygon fill="#9a32cd" stroke="#9a32cd" points="929.57,-493.42 919.35,-496.2 929.07,-500.4 929.57,-493.42"/>
</a>
</g>
<text xml:space="preserve" text-anchor="start" x="976.88" y="-524.88" font-family="Helvetica,sans-Serif" font-size="10.00" fill="grey">_Data</text>
</g>
<!-- Node13 -->
<g id="Node000013" class="node">
<title>Node13</title>
<g id="a_Node000013"><a xlink:href="structImFont.html" target="_top" xlink:title=" ">
<polygon fill="white" stroke="#666666" points="594.62,-178.75 544.88,-178.75 544.88,-158 594.62,-158 594.62,-178.75"/>
<text xml:space="preserve" text-anchor="middle" x="569.75" y="-165.25" font-family="Helvetica,sans-Serif" font-size="10.00">ImFont</text>
</a>
</g>
</g>
<!-- Node13&#45;&gt;Node12 -->
<g id="edge15_Node000012_Node000013" class="edge">
<title>Node13&#45;&gt;Node12</title>
<g id="a_edge15_Node000012_Node000013"><a xlink:title=" ">
<path fill="none" stroke="#9a32cd" stroke-dasharray="5,2" d="M579.31,-189.54C590.94,-215.84 614.09,-260.53 646.75,-287.38 690.27,-323.14 730.09,-289.22 764.75,-333.62 803.28,-382.99 741.95,-425.87 782.75,-473.38 785.95,-477.1 789.78,-480.15 793.99,-482.65"/>
<polygon fill="#9a32cd" stroke="#9a32cd" points="582.64,-188.41 575.5,-180.58 576.19,-191.15 582.64,-188.41"/>
</a>
</g>
<text xml:space="preserve" text-anchor="start" x="695.25" y="-339.88" font-family="Helvetica,sans-Serif" font-size="10.00" fill="grey">Font</text>
</g>
<!-- Node19 -->
<g id="Node000019" class="node">
<title>Node19</title>
<g id="a_Node000019"><a xlink:href="structImVector.html" target="_top" xlink:title=" ">
<polygon fill="white" stroke="#666666" points="915.38,-295.75 791.38,-295.75 791.38,-275 915.38,-275 915.38,-295.75"/>
<text xml:space="preserve" text-anchor="middle" x="853.38" y="-282.25" font-family="Helvetica,sans-Serif" font-size="10.00">ImVector&lt; ImFont * &gt;</text>
</a>
</g>
</g>
<!-- Node13&#45;&gt;Node19 -->
<g id="edge24_Node000019_Node000013" class="edge">
<title>Node13&#45;&gt;Node19</title>
<g id="a_edge24_Node000019_Node000013"><a xlink:title=" ">
<path fill="none" stroke="#9a32cd" stroke-dasharray="5,2" d="M591.86,-186.18C606.49,-197.8 626.86,-212.58 646.75,-222.38 696.83,-247.03 758.54,-264.38 801.22,-274.54"/>
<polygon fill="#9a32cd" stroke="#9a32cd" points="594.27,-183.64 584.3,-180.04 589.85,-189.07 594.27,-183.64"/>
</a>
</g>
<text xml:space="preserve" text-anchor="start" x="694.12" y="-270.53" font-family="Helvetica,sans-Serif" font-size="10.00" fill="grey">Data</text>
</g>
<!-- Node13&#45;&gt;Node21 -->
<g id="edge28_Node000021_Node000013" class="edge">
<title>Node13&#45;&gt;Node21</title>
<g id="a_edge28_Node000021_Node000013"><a xlink:title=" ">
<path fill="none" stroke="#9a32cd" stroke-dasharray="5,2" d="M606.28,-171.96C645.52,-176.41 710.35,-185.23 764.75,-199.62 786.42,-205.36 810.19,-214.43 827.5,-221.57"/>
<polygon fill="#9a32cd" stroke="#9a32cd" points="606.79,-168.5 596.47,-170.88 606.03,-175.45 606.79,-168.5"/>
</a>
</g>
<text xml:space="preserve" text-anchor="start" x="695.25" y="-205.88" font-family="Helvetica,sans-Serif" font-size="10.00" fill="grey">Font</text>
</g>
<!-- Node13&#45;&gt;Node23 -->
<g id="edge32_Node000023_Node000013" class="edge">
<title>Node13&#45;&gt;Node23</title>
<g id="a_edge32_Node000023_Node000013"><a xlink:title=" ">
<path fill="none" stroke="#9a32cd" stroke-dasharray="5,2" d="M589.87,-150.12C604.25,-137.73 625.12,-122.39 646.75,-115.62 705.79,-97.14 778.63,-112.54 819.86,-124.54"/>
<polygon fill="#9a32cd" stroke="#9a32cd" points="587.63,-147.43 582.54,-156.72 592.31,-152.63 587.63,-147.43"/>
</a>
</g>
<text xml:space="preserve" text-anchor="start" x="687" y="-121.88" font-family="Helvetica,sans-Serif" font-size="10.00" fill="grey">DstFont</text>
</g>
<!-- Node14 -->
<g id="Node000014" class="node">
<title>Node14</title>
<g id="a_Node000014"><a xlink:href="structImVector.html" target="_top" xlink:title=" ">
<polygon fill="white" stroke="#666666" points="342.5,-191.75 238.75,-191.75 238.75,-171 342.5,-171 342.5,-191.75"/>
<text xml:space="preserve" text-anchor="middle" x="290.62" y="-178.25" font-family="Helvetica,sans-Serif" font-size="10.00">ImVector&lt; float &gt;</text>
</a>
</g>
</g>
<!-- Node14&#45;&gt;Node13 -->
<g id="edge16_Node000013_Node000014" class="edge">
<title>Node14&#45;&gt;Node13</title>
<g id="a_edge16_Node000013_Node000014"><a xlink:title=" ">
<path fill="none" stroke="#9a32cd" stroke-dasharray="5,2" d="M354.07,-178.45C414.4,-175.62 502.63,-171.48 544.7,-169.5"/>
<polygon fill="#9a32cd" stroke="#9a32cd" points="354.11,-174.94 344.29,-178.9 354.44,-181.93 354.11,-174.94"/>
</a>
</g>
<text xml:space="preserve" text-anchor="start" x="398.88" y="-183.42" font-family="Helvetica,sans-Serif" font-size="10.00" fill="grey">IndexAdvanceX</text>
</g>
<!-- Node15 -->
<g id="Node000015" class="node">
<title>Node15</title>
<g id="a_Node000015"><a xlink:href="structImVector.html" target="_top" xlink:title=" ">
<polygon fill="white" stroke="#666666" points="347.75,-151.75 233.5,-151.75 233.5,-131 347.75,-131 347.75,-151.75"/>
<text xml:space="preserve" text-anchor="middle" x="290.62" y="-138.25" font-family="Helvetica,sans-Serif" font-size="10.00">ImVector&lt; ImU16 &gt;</text>
</a>
</g>
</g>
<!-- Node15&#45;&gt;Node13 -->
<g id="edge17_Node000013_Node000015" class="edge">
<title>Node15&#45;&gt;Node13</title>
<g id="a_edge17_Node000013_Node000015"><a xlink:title=" ">
<path fill="none" stroke="#9a32cd" stroke-dasharray="5,2" d="M359.09,-140.77C398.28,-141.26 448.51,-143.33 492.75,-149.62 510.38,-152.13 529.86,-156.99 544.69,-161.12"/>
<polygon fill="#9a32cd" stroke="#9a32cd" points="359.36,-137.27 349.33,-140.68 359.3,-144.27 359.36,-137.27"/>
</a>
</g>
<text xml:space="preserve" text-anchor="start" x="406" y="-155.88" font-family="Helvetica,sans-Serif" font-size="10.00" fill="grey">IndexLookup</text>
</g>
<!-- Node16 -->
<g id="Node000016" class="node">
<title>Node16</title>
<g id="a_Node000016"><a xlink:href="structImVector.html" target="_top" xlink:title=" ">
<polygon fill="white" stroke="#666666" points="362.75,-20.75 218.5,-20.75 218.5,0 362.75,0 362.75,-20.75"/>
<text xml:space="preserve" text-anchor="middle" x="290.62" y="-7.25" font-family="Helvetica,sans-Serif" font-size="10.00">ImVector&lt; ImFontGlyph &gt;</text>
</a>
</g>
</g>
<!-- Node16&#45;&gt;Node13 -->
<g id="edge18_Node000013_Node000016" class="edge">
<title>Node16&#45;&gt;Node13</title>
<g id="a_edge18_Node000013_Node000016"><a xlink:title=" ">
<path fill="none" stroke="#9a32cd" stroke-dasharray="5,2" d="M322.23,-26.1C339.13,-34.27 360.71,-43.88 380.75,-50.38 429.11,-66.04 449.4,-47.06 492.75,-73.62 527.27,-94.78 552.76,-137.5 563.35,-157.54"/>
<polygon fill="#9a32cd" stroke="#9a32cd" points="324.24,-23.19 313.72,-21.91 321.14,-29.47 324.24,-23.19"/>
</a>
</g>
<text xml:space="preserve" text-anchor="start" x="419.88" y="-79.88" font-family="Helvetica,sans-Serif" font-size="10.00" fill="grey">Glyphs</text>
</g>
<!-- Node17 -->
<g id="Node000017" class="node">
<title>Node17</title>
<g id="a_Node000017"><a xlink:href="structImFontGlyph.html" target="_top" xlink:title=" ">
<polygon fill="white" stroke="#666666" points="86.5,-63.75 8.25,-63.75 8.25,-43 86.5,-43 86.5,-63.75"/>
<text xml:space="preserve" text-anchor="middle" x="47.38" y="-50.25" font-family="Helvetica,sans-Serif" font-size="10.00">ImFontGlyph</text>
</a>
</g>
</g>
<!-- Node17&#45;&gt;Node13 -->
<g id="edge20_Node000013_Node000017" class="edge">
<title>Node17&#45;&gt;Node13</title>
<g id="a_edge20_Node000013_Node000017"><a xlink:title=" ">
<path fill="none" stroke="#9a32cd" stroke-dasharray="5,2" d="M97.79,-61.89C102.84,-62.74 107.9,-63.58 112.75,-64.38 282.46,-92.2 329.54,-83.17 492.75,-137.38 510.47,-143.26 529.95,-151.24 544.76,-157.63"/>
<polygon fill="#9a32cd" stroke="#9a32cd" points="98.76,-58.5 88.32,-60.29 97.59,-65.41 98.76,-58.5"/>
</a>
</g>
<text xml:space="preserve" text-anchor="start" x="256.5" y="-106.79" font-family="Helvetica,sans-Serif" font-size="10.00" fill="grey">FallbackGlyph</text>
</g>
<!-- Node17&#45;&gt;Node16 -->
<g id="edge19_Node000016_Node000017" class="edge">
<title>Node17&#45;&gt;Node16</title>
<g id="a_edge19_Node000016_Node000017"><a xlink:title=" ">
<path fill="none" stroke="#9a32cd" stroke-dasharray="5,2" d="M98.13,-44.51C136,-37.76 188.31,-28.43 228.69,-21.24"/>
<polygon fill="#9a32cd" stroke="#9a32cd" points="97.59,-41.05 88.36,-46.25 98.82,-47.94 97.59,-41.05"/>
</a>
</g>
<text xml:space="preserve" text-anchor="start" x="145" y="-48.09" font-family="Helvetica,sans-Serif" font-size="10.00" fill="grey">Data</text>
</g>
<!-- Node18&#45;&gt;Node13 -->
<g id="edge21_Node000013_Node000018" class="edge">
<title>Node18&#45;&gt;Node13</title>
<g id="a_edge21_Node000013_Node000018"><a xlink:title=" ">
<path fill="none" stroke="#9a32cd" stroke-dasharray="5,2" d="M299.4,-340.07C311.72,-309.47 338.72,-253.58 380.75,-224.62 422.69,-195.73 444.18,-215.71 492.75,-200.38 511.18,-194.56 531.31,-185.97 546.22,-179.16"/>
<polygon fill="#9a32cd" stroke="#9a32cd" points="296.14,-338.8 295.81,-349.39 302.67,-341.31 296.14,-338.8"/>
</a>
</g>
<text xml:space="preserve" text-anchor="start" x="400.75" y="-230.88" font-family="Helvetica,sans-Serif" font-size="10.00" fill="grey">ContainerAtlas</text>
</g>
<!-- Node19&#45;&gt;Node18 -->
<g id="edge23_Node000018_Node000019" class="edge">
<title>Node19&#45;&gt;Node18</title>
<g id="a_edge23_Node000018_Node000019"><a xlink:title=" ">
<path fill="none" stroke="#9a32cd" stroke-dasharray="5,2" d="M779.76,-295.22C658.49,-311.65 419.09,-344.1 327.99,-356.45"/>
<polygon fill="#9a32cd" stroke="#9a32cd" points="780.18,-298.69 789.62,-293.88 779.24,-291.76 780.18,-298.69"/>
</a>
</g>
<text xml:space="preserve" text-anchor="start" x="556.62" y="-337.18" font-family="Helvetica,sans-Serif" font-size="10.00" fill="grey">Fonts</text>
</g>
<!-- Node20 -->
<g id="Node000020" class="node">
<title>Node20</title>
<g id="a_Node000020"><a xlink:href="structImVector.html" target="_top" xlink:title=" ">
<polygon fill="white" stroke="#666666" points="1225,-406.12 1058.25,-406.12 1058.25,-372.62 1225,-372.62 1225,-406.12"/>
<text xml:space="preserve" text-anchor="start" x="1066.25" y="-392.62" font-family="Helvetica,sans-Serif" font-size="10.00">ImVector&lt; ImFontAtlasCustom</text>
<text xml:space="preserve" text-anchor="middle" x="1141.62" y="-379.88" font-family="Helvetica,sans-Serif" font-size="10.00">Rect &gt;</text>
</a>
</g>
</g>
<!-- Node20&#45;&gt;Node18 -->
<g id="edge25_Node000018_Node000020" class="edge">
<title>Node20&#45;&gt;Node18</title>
<g id="a_edge25_Node000018_Node000020"><a xlink:title=" ">
<path fill="none" stroke="#9a32cd" stroke-dasharray="5,2" d="M1046.45,-398.65C902.1,-410.76 617.94,-426.25 380.75,-388.38 360,-385.06 337.34,-378.15 320.06,-372.15"/>
<polygon fill="#9a32cd" stroke="#9a32cd" points="1046.69,-402.14 1056.36,-397.8 1046.1,-395.17 1046.69,-402.14"/>
</a>
</g>
<text xml:space="preserve" text-anchor="start" x="673.5" y="-418.56" font-family="Helvetica,sans-Serif" font-size="10.00" fill="grey">CustomRects</text>
</g>
<!-- Node21&#45;&gt;Node20 -->
<g id="edge26_Node000020_Node000021" class="edge">
<title>Node21&#45;&gt;Node20</title>
<g id="a_edge26_Node000020_Node000021"><a xlink:title=" ">
<path fill="none" stroke="#9a32cd" stroke-dasharray="5,2" d="M888.34,-247.99C899.81,-253.52 912.6,-259.97 924,-266.38 985.77,-301.09 995.93,-318.66 1058.25,-352.38 1071.35,-359.46 1086.07,-366.38 1099.41,-372.29"/>
<polygon fill="#9a32cd" stroke="#9a32cd" points="890.15,-244.98 879.62,-243.85 887.15,-251.3 890.15,-244.98"/>
</a>
</g>
<text xml:space="preserve" text-anchor="start" x="979.5" y="-347.13" font-family="Helvetica,sans-Serif" font-size="10.00" fill="grey">Data</text>
</g>
<!-- Node22 -->
<g id="Node000022" class="node">
<title>Node22</title>
<g id="a_Node000022"><a xlink:href="structImVector.html" target="_top" xlink:title=" ">
<polygon fill="white" stroke="#666666" points="1214.88,-343.75 1068.38,-343.75 1068.38,-323 1214.88,-323 1214.88,-343.75"/>
<text xml:space="preserve" text-anchor="middle" x="1141.62" y="-330.25" font-family="Helvetica,sans-Serif" font-size="10.00">ImVector&lt; ImFontConfig &gt;</text>
</a>
</g>
</g>
<!-- Node22&#45;&gt;Node18 -->
<g id="edge29_Node000018_Node000022" class="edge">
<title>Node22&#45;&gt;Node18</title>
<g id="a_edge29_Node000018_Node000022"><a xlink:title=" ">
<path fill="none" stroke="#9a32cd" stroke-dasharray="5,2" d="M1056.48,-338.39C980.33,-342.74 865.06,-348.89 764.75,-352.38 601.98,-358.04 407.57,-360.33 328.14,-361.07"/>
<polygon fill="#9a32cd" stroke="#9a32cd" points="1056.6,-341.89 1066.38,-337.82 1056.2,-334.9 1056.6,-341.89"/>
</a>
</g>
<text xml:space="preserve" text-anchor="start" x="686.62" y="-362" font-family="Helvetica,sans-Serif" font-size="10.00" fill="grey">Sources</text>
</g>
<!-- Node23&#45;&gt;Node13 -->
<g id="edge35_Node000013_Node000023" class="edge">
<title>Node23&#45;&gt;Node13</title>
<g id="a_edge35_Node000013_Node000023"><a xlink:title=" ">
<path fill="none" stroke="#9a32cd" stroke-dasharray="5,2" d="M801.69,-140.39C760.03,-144.63 699.51,-151.04 646.75,-157.62 629.43,-159.79 609.93,-162.55 595.02,-164.74"/>
<polygon fill="#9a32cd" stroke="#9a32cd" points="801.81,-143.9 811.4,-139.41 801.1,-136.93 801.81,-143.9"/>
</a>
</g>
<text xml:space="preserve" text-anchor="start" x="686.62" y="-163.88" font-family="Helvetica,sans-Serif" font-size="10.00" fill="grey">Sources</text>
</g>
<!-- Node23&#45;&gt;Node22 -->
<g id="edge30_Node000022_Node000023" class="edge">
<title>Node23&#45;&gt;Node22</title>
<g id="a_edge30_Node000022_Node000023"><a xlink:title=" ">
<path fill="none" stroke="#9a32cd" stroke-dasharray="5,2" d="M879.19,-152.54C936.79,-192.38 1078.17,-290.17 1125.16,-322.68"/>
<polygon fill="#9a32cd" stroke="#9a32cd" points="881.23,-149.69 871.01,-146.88 877.24,-155.45 881.23,-149.69"/>
</a>
</g>
<text xml:space="preserve" text-anchor="start" x="979.5" y="-269.93" font-family="Helvetica,sans-Serif" font-size="10.00" fill="grey">Data</text>
</g>
<!-- Node24 -->
<g id="Node000024" class="node">
<title>Node24</title>
<g id="a_Node000024"><a xlink:href="structImFontBuilderIO.html" target="_top" xlink:title=" ">
<polygon fill="white" stroke="#666666" points="94.75,-329.75 0,-329.75 0,-309 94.75,-309 94.75,-329.75"/>
<text xml:space="preserve" text-anchor="middle" x="47.38" y="-316.25" font-family="Helvetica,sans-Serif" font-size="10.00">ImFontBuilderIO</text>
</a>
</g>
</g>
<!-- Node24&#45;&gt;Node18 -->
<g id="edge34_Node000018_Node000024" class="edge">
<title>Node24&#45;&gt;Node18</title>
<g id="a_edge34_Node000018_Node000024"><a xlink:title=" ">
<path fill="none" stroke="#9a32cd" stroke-dasharray="5,2" d="M106.66,-314.19C135.25,-313.07 170.02,-313.86 200.5,-320.62 226.74,-326.45 254.54,-340.61 271.98,-350.59"/>
<polygon fill="#9a32cd" stroke="#9a32cd" points="106.54,-310.69 96.73,-314.67 106.88,-317.68 106.54,-310.69"/>
</a>
</g>
<text xml:space="preserve" text-anchor="start" x="123.62" y="-326.88" font-family="Helvetica,sans-Serif" font-size="10.00" fill="grey">FontBuilderIO</text>
</g>
<!-- Node25&#45;&gt;Node7 -->
<g id="edge39_Node000007_Node000025" class="edge">
<title>Node25&#45;&gt;Node7</title>
<g id="a_edge39_Node000007_Node000025"><a xlink:title=" ">
<path fill="none" stroke="#9a32cd" stroke-dasharray="5,2" d="M640.13,-516.33C642.36,-516.69 644.57,-517.03 646.75,-517.38 822.47,-544.95 885.85,-502.07 1040.25,-590.38 1081.88,-614.18 1118.06,-659.91 1133.14,-680.66"/>
<polygon fill="#9a32cd" stroke="#9a32cd" points="640.76,-512.89 630.34,-514.79 639.67,-519.81 640.76,-512.89"/>
</a>
</g>
<text xml:space="preserve" text-anchor="start" x="840.25" y="-547.13" font-family="Helvetica,sans-Serif" font-size="10.00" fill="grey">_Path</text>
</g>
<!-- Node25&#45;&gt;Node12 -->
<g id="edge36_Node000012_Node000025" class="edge">
<title>Node25&#45;&gt;Node12</title>
<g id="a_edge36_Node000012_Node000025"><a xlink:title=" ">
<path fill="none" stroke="#9a32cd" stroke-dasharray="5,2" d="M640.51,-495.14C642.61,-494.95 644.7,-494.78 646.75,-494.62 694.28,-491.13 748.16,-490.94 788.84,-491.56"/>
<polygon fill="#9a32cd" stroke="#9a32cd" points="640.26,-491.64 630.67,-496.15 640.98,-498.61 640.26,-491.64"/>
</a>
</g>
<text xml:space="preserve" text-anchor="start" x="678" y="-500.88" font-family="Helvetica,sans-Serif" font-size="10.00" fill="grey">TempBuffer</text>
</g>
<!-- Node26&#45;&gt;Node7 -->
<g id="edge40_Node000007_Node000026" class="edge">
<title>Node26&#45;&gt;Node7</title>
<g id="a_edge40_Node000007_Node000026"><a xlink:title=" ">
<path fill="none" stroke="#9a32cd" stroke-dasharray="5,2" d="M504.22,-732.05C615.59,-735.56 846.73,-738.71 1040.25,-714.38 1062.25,-711.61 1086.48,-706.13 1105.63,-701.21"/>
<polygon fill="#9a32cd" stroke="#9a32cd" points="504.48,-728.55 494.37,-731.72 504.25,-735.55 504.48,-728.55"/>
</a>
</g>
<text xml:space="preserve" text-anchor="start" x="674.25" y="-740.69" font-family="Helvetica,sans-Serif" font-size="10.00" fill="grey">_CmdHeader</text>
</g>
<!-- Node27&#45;&gt;Node7 -->
<g id="edge43_Node000007_Node000027" class="edge">
<title>Node27&#45;&gt;Node7</title>
<g id="a_edge43_Node000007_Node000027"><a xlink:title=" ">
<path fill="none" stroke="#9a32cd" stroke-dasharray="5,2" d="M776.46,-813.44C846.17,-819.52 954.98,-820.79 1040.25,-784.38 1082.42,-766.37 1118.05,-722.65 1133.04,-702.23"/>
<polygon fill="#9a32cd" stroke="#9a32cd" points="776.98,-809.97 766.7,-812.53 776.33,-816.94 776.98,-809.97"/>
</a>
</g>
<text xml:space="preserve" text-anchor="start" x="817" y="-822.98" font-family="Helvetica,sans-Serif" font-size="10.00" fill="grey">_ClipRectStack</text>
</g>
<!-- Node28 -->
<g id="Node000028" class="node">
<title>Node28</title>
<g id="a_Node000028"><a xlink:href="structImVector.html" target="_top" xlink:title=" ">
<polygon fill="white" stroke="#666666" points="924,-777.75 782.75,-777.75 782.75,-757 924,-757 924,-777.75"/>
<text xml:space="preserve" text-anchor="middle" x="853.38" y="-764.25" font-family="Helvetica,sans-Serif" font-size="10.00">ImVector&lt; ImTextureID &gt;</text>
</a>
</g>
</g>
<!-- Node28&#45;&gt;Node7 -->
<g id="edge45_Node000007_Node000028" class="edge">
<title>Node28&#45;&gt;Node7</title>
<g id="a_edge45_Node000007_Node000028"><a xlink:title=" ">
<path fill="none" stroke="#9a32cd" stroke-dasharray="5,2" d="M935.86,-762.39C968.81,-758.84 1006.88,-752.77 1040.25,-742.38 1071.42,-732.67 1104.64,-713.92 1123.97,-702.06"/>
<polygon fill="#9a32cd" stroke="#9a32cd" points="935.53,-758.9 925.93,-763.39 936.23,-765.87 935.53,-758.9"/>
</a>
</g>
<text xml:space="preserve" text-anchor="start" x="952.5" y="-767.57" font-family="Helvetica,sans-Serif" font-size="10.00" fill="grey">_TextureIdStack</text>
</g>
<!-- Node29 -->
<g id="Node000029" class="node">
<title>Node29</title>
<g id="a_Node000029"><a xlink:href="structImVector.html" target="_top" xlink:title=" ">
<polygon fill="white" stroke="#666666" points="907.5,-701.75 799.25,-701.75 799.25,-681 907.5,-681 907.5,-701.75"/>
<text xml:space="preserve" text-anchor="middle" x="853.38" y="-688.25" font-family="Helvetica,sans-Serif" font-size="10.00">ImVector&lt; ImU8 &gt;</text>
</a>
</g>
</g>
<!-- Node29&#45;&gt;Node7 -->
<g id="edge46_Node000007_Node000029" class="edge">
<title>Node29&#45;&gt;Node7</title>
<g id="a_edge46_Node000007_Node000029"><a xlink:title=" ">
<path fill="none" stroke="#9a32cd" stroke-dasharray="5,2" d="M919.08,-691.38C976.79,-691.38 1059.1,-691.38 1105.43,-691.38"/>
<polygon fill="#9a32cd" stroke="#9a32cd" points="919.39,-687.88 909.39,-691.38 919.39,-694.88 919.39,-687.88"/>
</a>
</g>
<text xml:space="preserve" text-anchor="start" x="945" y="-697.62" font-family="Helvetica,sans-Serif" font-size="10.00" fill="grey">_CallbacksDataBuf</text>
</g>
</g>
</svg>
