<?xml version="1.0" encoding="UTF-8" standalone="no"?>
<!DOCTYPE svg PUBLIC "-//W3C//DTD SVG 1.1//EN"
 "http://www.w3.org/Graphics/SVG/1.1/DTD/svg11.dtd">
<!-- Generated by graphviz version 13.0.0 (0)
 -->
<!-- Title: ImTriangulator Pages: 1 -->
<svg width="244pt" height="287pt"
 viewBox="0.00 0.00 244.00 287.00" xmlns="http://www.w3.org/2000/svg" xmlns:xlink="http://www.w3.org/1999/xlink">
<g id="graph0" class="graph" transform="scale(1 1) rotate(0) translate(4 282.75)">
<title>ImTriangulator</title>
<!-- Node1 -->
<g id="Node000001" class="node">
<title>Node1</title>
<g id="a_Node000001"><a xlink:title=" ">
<polygon fill="#999999" stroke="#666666" points="99.25,-20.75 12.75,-20.75 12.75,0 99.25,0 99.25,-20.75"/>
<text xml:space="preserve" text-anchor="middle" x="56" y="-7.25" font-family="Helvetica,sans-Serif" font-size="10.00">ImTriangulator</text>
</a>
</g>
</g>
<!-- Node2 -->
<g id="Node000002" class="node">
<title>Node2</title>
<g id="a_Node000002"><a xlink:href="structImTriangulatorNode.html" target="_top" xlink:title=" ">
<polygon fill="white" stroke="#666666" points="112,-195.88 0,-195.88 0,-175.12 112,-175.12 112,-195.88"/>
<text xml:space="preserve" text-anchor="middle" x="56" y="-182.38" font-family="Helvetica,sans-Serif" font-size="10.00">ImTriangulatorNode</text>
</a>
</g>
</g>
<!-- Node2&#45;&gt;Node1 -->
<g id="edge1_Node000001_Node000002" class="edge">
<title>Node2&#45;&gt;Node1</title>
<g id="a_edge1_Node000001_Node000002"><a xlink:title=" ">
<path fill="none" stroke="#9a32cd" stroke-dasharray="5,2" d="M53.43,-163.79C51.8,-149.53 49.84,-130.15 49,-113 47.35,-79.26 52.06,-39.3 54.56,-21.18"/>
<polygon fill="#9a32cd" stroke="#9a32cd" points="49.91,-163.79 54.57,-173.3 56.86,-162.96 49.91,-163.79"/>
</a>
</g>
<text xml:space="preserve" text-anchor="start" x="52" y="-99.5" font-family="Helvetica,sans-Serif" font-size="10.00" fill="grey">_Nodes</text>
</g>
<!-- Node2&#45;&gt;Node2 -->
<g id="edge3_Node000002_Node000002" class="edge">
<title>Node2&#45;&gt;Node2</title>
<g id="a_edge3_Node000002_Node000002"><a xlink:title=" ">
<path fill="none" stroke="#9a32cd" stroke-dasharray="5,2" d="M123.55,-191.33C127.58,-189.94 130,-188 130,-185.5 130,-181.18 122.77,-178.52 112.46,-177.5"/>
<polygon fill="#9a32cd" stroke="#9a32cd" points="123.09,-187.86 113.95,-193.21 124.43,-194.73 123.09,-187.86"/>
</a>
</g>
<text xml:space="preserve" text-anchor="start" x="133" y="-190.75" font-family="Helvetica,sans-Serif" font-size="10.00" fill="grey">Next</text>
<text xml:space="preserve" text-anchor="start" x="133" y="-174" font-family="Helvetica,sans-Serif" font-size="10.00" fill="grey">Prev</text>
</g>
<!-- Node4 -->
<g id="Node000004" class="node">
<title>Node4</title>
<g id="a_Node000004"><a xlink:href="structImTriangulatorNodeSpan.html" target="_top" xlink:title=" ">
<polygon fill="white" stroke="#666666" points="236,-113 100,-113 100,-92.25 236,-92.25 236,-113"/>
<text xml:space="preserve" text-anchor="middle" x="168" y="-99.5" font-family="Helvetica,sans-Serif" font-size="10.00">ImTriangulatorNodeSpan</text>
</a>
</g>
</g>
<!-- Node2&#45;&gt;Node4 -->
<g id="edge5_Node000004_Node000002" class="edge">
<title>Node2&#45;&gt;Node4</title>
<g id="a_edge5_Node000004_Node000002"><a xlink:title=" ">
<path fill="none" stroke="#9a32cd" stroke-dasharray="5,2" d="M78.52,-168.24C101.22,-151.85 135.52,-127.08 154.38,-113.46"/>
<polygon fill="#9a32cd" stroke="#9a32cd" points="76.57,-165.33 70.51,-174.02 80.67,-171 76.57,-165.33"/>
</a>
</g>
<text xml:space="preserve" text-anchor="start" x="131.58" y="-137.25" font-family="Helvetica,sans-Serif" font-size="10.00" fill="grey">Data</text>
</g>
<!-- Node3 -->
<g id="Node000003" class="node">
<title>Node3</title>
<g id="a_Node000003"><a xlink:href="structImVec2.html" target="_top" xlink:title=" ">
<polygon fill="white" stroke="#666666" points="82,-278.75 30,-278.75 30,-258 82,-258 82,-278.75"/>
<text xml:space="preserve" text-anchor="middle" x="56" y="-265.25" font-family="Helvetica,sans-Serif" font-size="10.00">ImVec2</text>
</a>
</g>
</g>
<!-- Node3&#45;&gt;Node2 -->
<g id="edge2_Node000002_Node000003" class="edge">
<title>Node3&#45;&gt;Node2</title>
<g id="a_edge2_Node000002_Node000003"><a xlink:title=" ">
<path fill="none" stroke="#9a32cd" stroke-dasharray="5,2" d="M56,-246.69C56,-230.41 56,-208.48 56,-196.08"/>
<polygon fill="#9a32cd" stroke="#9a32cd" points="52.5,-246.27 56,-256.27 59.5,-246.27 52.5,-246.27"/>
</a>
</g>
<text xml:space="preserve" text-anchor="start" x="59" y="-227.5" font-family="Helvetica,sans-Serif" font-size="10.00" fill="grey">Pos</text>
</g>
<!-- Node4&#45;&gt;Node1 -->
<g id="edge4_Node000001_Node000004" class="edge">
<title>Node4&#45;&gt;Node1</title>
<g id="a_edge4_Node000001_Node000004"><a xlink:title=" ">
<path fill="none" stroke="#9a32cd" stroke-dasharray="5,2" d="M147.28,-84.93C124.08,-66.24 87.25,-36.55 68.24,-21.24"/>
<polygon fill="#9a32cd" stroke="#9a32cd" points="144.85,-87.47 154.84,-91.02 149.24,-82.02 144.85,-87.47"/>
</a>
</g>
<text xml:space="preserve" text-anchor="start" x="134.77" y="-61.75" font-family="Helvetica,sans-Serif" font-size="10.00" fill="grey">_Ears</text>
<text xml:space="preserve" text-anchor="start" x="134.77" y="-45" font-family="Helvetica,sans-Serif" font-size="10.00" fill="grey">_Reflexes</text>
</g>
</g>
</svg>
