<?xml version="1.0" encoding="UTF-8" standalone="no"?>
<!DOCTYPE svg PUBLIC "-//W3C//DTD SVG 1.1//EN"
 "http://www.w3.org/Graphics/SVG/1.1/DTD/svg11.dtd">
<!-- Generated by graphviz version 13.0.0 (0)
 -->
<!-- Title: ImGuiKeyRoutingTable Pages: 1 -->
<svg width="164pt" height="209pt"
 viewBox="0.00 0.00 164.00 209.00" xmlns="http://www.w3.org/2000/svg" xmlns:xlink="http://www.w3.org/1999/xlink">
<g id="graph0" class="graph" transform="scale(1 1) rotate(0) translate(4 205.25)">
<title>ImGuiKeyRoutingTable</title>
<!-- Node1 -->
<g id="Node000001" class="node">
<title>Node1</title>
<g id="a_Node000001"><a xlink:title=" ">
<polygon fill="#999999" stroke="#666666" points="140.88,-20.75 14.62,-20.75 14.62,0 140.88,0 140.88,-20.75"/>
<text xml:space="preserve" text-anchor="middle" x="77.75" y="-7.25" font-family="Helvetica,sans-Serif" font-size="10.00">ImGuiKeyRoutingTable</text>
</a>
</g>
</g>
<!-- Node2 -->
<g id="Node000002" class="node">
<title>Node2</title>
<g id="a_Node000002"><a xlink:href="structImVector.html" target="_top" xlink:title=" ">
<polygon fill="white" stroke="#666666" points="155.5,-125.75 0,-125.75 0,-92.25 155.5,-92.25 155.5,-125.75"/>
<text xml:space="preserve" text-anchor="start" x="8" y="-112.25" font-family="Helvetica,sans-Serif" font-size="10.00">ImVector&lt; ImGuiKeyRouting</text>
<text xml:space="preserve" text-anchor="middle" x="77.75" y="-99.5" font-family="Helvetica,sans-Serif" font-size="10.00">Data &gt;</text>
</a>
</g>
</g>
<!-- Node2&#45;&gt;Node1 -->
<g id="edge1_Node000001_Node000002" class="edge">
<title>Node2&#45;&gt;Node1</title>
<g id="a_edge1_Node000001_Node000002"><a xlink:title=" ">
<path fill="none" stroke="#9a32cd" stroke-dasharray="5,2" d="M77.75,-80.58C77.75,-60.7 77.75,-34.97 77.75,-21.16"/>
<polygon fill="#9a32cd" stroke="#9a32cd" points="74.25,-80.53 77.75,-90.53 81.25,-80.53 74.25,-80.53"/>
</a>
</g>
<text xml:space="preserve" text-anchor="start" x="80.75" y="-61.75" font-family="Helvetica,sans-Serif" font-size="10.00" fill="grey">Entries</text>
<text xml:space="preserve" text-anchor="start" x="80.75" y="-45" font-family="Helvetica,sans-Serif" font-size="10.00" fill="grey">EntriesNext</text>
</g>
<!-- Node3 -->
<g id="Node000003" class="node">
<title>Node3</title>
<g id="a_Node000003"><a xlink:href="structImGuiKeyRoutingData.html" target="_top" xlink:title=" ">
<polygon fill="white" stroke="#666666" points="139.75,-201.25 15.75,-201.25 15.75,-180.5 139.75,-180.5 139.75,-201.25"/>
<text xml:space="preserve" text-anchor="middle" x="77.75" y="-187.75" font-family="Helvetica,sans-Serif" font-size="10.00">ImGuiKeyRoutingData</text>
</a>
</g>
</g>
<!-- Node3&#45;&gt;Node2 -->
<g id="edge2_Node000002_Node000003" class="edge">
<title>Node3&#45;&gt;Node2</title>
<g id="a_edge2_Node000002_Node000003"><a xlink:title=" ">
<path fill="none" stroke="#9a32cd" stroke-dasharray="5,2" d="M77.75,-168.7C77.75,-155.39 77.75,-138.49 77.75,-126.25"/>
<polygon fill="#9a32cd" stroke="#9a32cd" points="74.25,-168.57 77.75,-178.57 81.25,-168.57 74.25,-168.57"/>
</a>
</g>
<text xml:space="preserve" text-anchor="start" x="80.75" y="-150" font-family="Helvetica,sans-Serif" font-size="10.00" fill="grey">Data</text>
</g>
</g>
</svg>
