<?xml version="1.0" encoding="UTF-8" standalone="no"?>
<!DOCTYPE svg PUBLIC "-//W3C//DTD SVG 1.1//EN"
 "http://www.w3.org/Graphics/SVG/1.1/DTD/svg11.dtd">
<!-- Generated by graphviz version 13.0.0 (0)
 -->
<!-- Title: ImGuiOldColumns Pages: 1 -->
<svg width="2580pt" height="894pt"
 viewBox="0.00 0.00 2580.00 894.00" xmlns="http://www.w3.org/2000/svg" xmlns:xlink="http://www.w3.org/1999/xlink">
<g id="graph0" class="graph" transform="scale(1 1) rotate(0) translate(4 889.53)">
<title>ImGuiOldColumns</title>
<!-- Node1 -->
<g id="Node000001" class="node">
<title>Node1</title>
<g id="a_Node000001"><a xlink:title=" ">
<polygon fill="#999999" stroke="#666666" points="2572,-638.4 2467.5,-638.4 2467.5,-617.65 2572,-617.65 2572,-638.4"/>
<text xml:space="preserve" text-anchor="middle" x="2519.75" y="-624.9" font-family="Helvetica,sans-Serif" font-size="10.00">ImGuiOldColumns</text>
</a>
</g>
</g>
<!-- Node2 -->
<g id="Node000002" class="node">
<title>Node2</title>
<g id="a_Node000002"><a xlink:href="structImRect.html" target="_top" xlink:title=" ">
<polygon fill="white" stroke="#666666" points="1787.5,-683.4 1737,-683.4 1737,-662.65 1787.5,-662.65 1787.5,-683.4"/>
<text xml:space="preserve" text-anchor="middle" x="1762.25" y="-669.9" font-family="Helvetica,sans-Serif" font-size="10.00">ImRect</text>
</a>
</g>
</g>
<!-- Node2&#45;&gt;Node1 -->
<g id="edge1_Node000001_Node000002" class="edge">
<title>Node2&#45;&gt;Node1</title>
<g id="a_edge1_Node000001_Node000002"><a xlink:title=" ">
<path fill="none" stroke="#9a32cd" stroke-dasharray="5,2" d="M1798.98,-672.11C1894,-669.63 2160.79,-662.42 2382.75,-654.03 2412.43,-652.91 2420.3,-656.43 2449.5,-651.03 2463.83,-648.38 2479.26,-643.47 2491.91,-638.87"/>
<polygon fill="#9a32cd" stroke="#9a32cd" points="1799.17,-668.61 1789.26,-672.36 1799.35,-675.6 1799.17,-668.61"/>
</a>
</g>
<text xml:space="preserve" text-anchor="start" x="2072.75" y="-704.22" font-family="Helvetica,sans-Serif" font-size="10.00" fill="grey">HostBackupClipRect</text>
<text xml:space="preserve" text-anchor="start" x="2072.75" y="-687.47" font-family="Helvetica,sans-Serif" font-size="10.00" fill="grey">HostBackupParentWorkRect</text>
<text xml:space="preserve" text-anchor="start" x="2072.75" y="-670.72" font-family="Helvetica,sans-Serif" font-size="10.00" fill="grey">HostInitialClipRect</text>
</g>
<!-- Node5 -->
<g id="Node000005" class="node">
<title>Node5</title>
<g id="a_Node000005"><a xlink:href="structImGuiOldColumnData.html" target="_top" xlink:title=" ">
<polygon fill="white" stroke="#666666" points="2033,-643.4 1910.5,-643.4 1910.5,-622.65 2033,-622.65 2033,-643.4"/>
<text xml:space="preserve" text-anchor="middle" x="1971.75" y="-629.9" font-family="Helvetica,sans-Serif" font-size="10.00">ImGuiOldColumnData</text>
</a>
</g>
</g>
<!-- Node2&#45;&gt;Node5 -->
<g id="edge5_Node000005_Node000002" class="edge">
<title>Node2&#45;&gt;Node5</title>
<g id="a_edge5_Node000005_Node000002"><a xlink:title=" ">
<path fill="none" stroke="#9a32cd" stroke-dasharray="5,2" d="M1789.17,-656.6C1800.43,-650.32 1814.05,-643.82 1827.25,-640.28 1853.88,-633.15 1884.25,-630.82 1910.18,-630.48"/>
<polygon fill="#9a32cd" stroke="#9a32cd" points="1787.74,-653.38 1780.88,-661.46 1791.28,-659.43 1787.74,-653.38"/>
</a>
</g>
<text xml:space="preserve" text-anchor="start" x="1830.25" y="-646.53" font-family="Helvetica,sans-Serif" font-size="10.00" fill="grey">ClipRect</text>
</g>
<!-- Node3 -->
<g id="Node000003" class="node">
<title>Node3</title>
<g id="a_Node000003"><a xlink:href="structImVec2.html" target="_top" xlink:title=" ">
<polygon fill="white" stroke="#666666" points="73.38,-492.4 21.38,-492.4 21.38,-471.65 73.38,-471.65 73.38,-492.4"/>
<text xml:space="preserve" text-anchor="middle" x="47.38" y="-478.9" font-family="Helvetica,sans-Serif" font-size="10.00">ImVec2</text>
</a>
</g>
</g>
<!-- Node3&#45;&gt;Node2 -->
<g id="edge2_Node000002_Node000003" class="edge">
<title>Node3&#45;&gt;Node2</title>
<g id="a_edge2_Node000002_Node000003"><a xlink:title=" ">
<path fill="none" stroke="#9a32cd" stroke-dasharray="5,2" d="M52.7,-503.84C60.35,-538.53 78.78,-607.32 112.75,-656.03 142.1,-698.11 175.16,-686.42 200.5,-731.03 223.89,-772.2 183.3,-804.36 218.5,-836.03 290.43,-900.75 338.99,-850.03 435.75,-850.03 435.75,-850.03 435.75,-850.03 1545.88,-850.03 1651.14,-850.03 1733,-722.26 1755.24,-683.84"/>
<polygon fill="#9a32cd" stroke="#9a32cd" points="56.15,-503.25 50.67,-494.18 49.3,-504.69 56.15,-503.25"/>
</a>
</g>
<text xml:space="preserve" text-anchor="start" x="980.62" y="-873.03" font-family="Helvetica,sans-Serif" font-size="10.00" fill="grey">Max</text>
<text xml:space="preserve" text-anchor="start" x="980.62" y="-856.28" font-family="Helvetica,sans-Serif" font-size="10.00" fill="grey">Min</text>
</g>
<!-- Node15 -->
<g id="Node000015" class="node">
<title>Node15</title>
<g id="a_Node000015"><a xlink:href="structImDrawVert.html" target="_top" xlink:title=" ">
<polygon fill="white" stroke="#666666" points="606.62,-369.4 532.88,-369.4 532.88,-348.65 606.62,-348.65 606.62,-369.4"/>
<text xml:space="preserve" text-anchor="middle" x="569.75" y="-355.9" font-family="Helvetica,sans-Serif" font-size="10.00">ImDrawVert</text>
</a>
</g>
</g>
<!-- Node3&#45;&gt;Node15 -->
<g id="edge17_Node000015_Node000003" class="edge">
<title>Node3&#45;&gt;Node15</title>
<g id="a_edge17_Node000015_Node000003"><a xlink:title=" ">
<path fill="none" stroke="#9a32cd" stroke-dasharray="5,2" d="M84.6,-469.06C118.8,-457.15 171.68,-439.56 218.5,-427.53 331.77,-398.42 468.41,-375 532.39,-364.7"/>
<polygon fill="#9a32cd" stroke="#9a32cd" points="83.46,-465.76 75.18,-472.37 85.78,-472.36 83.46,-465.76"/>
</a>
</g>
<text xml:space="preserve" text-anchor="start" x="282" y="-450.53" font-family="Helvetica,sans-Serif" font-size="10.00" fill="grey">pos</text>
<text xml:space="preserve" text-anchor="start" x="282" y="-433.78" font-family="Helvetica,sans-Serif" font-size="10.00" fill="grey">uv</text>
</g>
<!-- Node16 -->
<g id="Node000016" class="node">
<title>Node16</title>
<g id="a_Node000016"><a xlink:href="structImDrawListSharedData.html" target="_top" xlink:title=" ">
<polygon fill="white" stroke="#666666" points="917.62,-183.4 789.12,-183.4 789.12,-162.65 917.62,-162.65 917.62,-183.4"/>
<text xml:space="preserve" text-anchor="middle" x="853.38" y="-169.9" font-family="Helvetica,sans-Serif" font-size="10.00">ImDrawListSharedData</text>
</a>
</g>
</g>
<!-- Node3&#45;&gt;Node16 -->
<g id="edge19_Node000016_Node000003" class="edge">
<title>Node3&#45;&gt;Node16</title>
<g id="a_edge19_Node000016_Node000003"><a xlink:title=" ">
<path fill="none" stroke="#9a32cd" stroke-dasharray="5,2" d="M50.99,-459.98C57.91,-405.53 78.59,-267.04 112.75,-238.03 163.78,-194.69 619.08,-178.89 788.9,-174.47"/>
<polygon fill="#9a32cd" stroke="#9a32cd" points="47.52,-459.5 49.77,-469.85 54.47,-460.35 47.52,-459.5"/>
</a>
</g>
<text xml:space="preserve" text-anchor="start" x="395.88" y="-216.25" font-family="Helvetica,sans-Serif" font-size="10.00" fill="grey">ArcFastVtx</text>
<text xml:space="preserve" text-anchor="start" x="395.88" y="-199.5" font-family="Helvetica,sans-Serif" font-size="10.00" fill="grey">TexUvWhitePixel</text>
</g>
<!-- Node22 -->
<g id="Node000022" class="node">
<title>Node22</title>
<g id="a_Node000022"><a xlink:href="structImFontAtlas.html" target="_top" xlink:title=" ">
<polygon fill="white" stroke="#666666" points="327.88,-492.4 253.38,-492.4 253.38,-471.65 327.88,-471.65 327.88,-492.4"/>
<text xml:space="preserve" text-anchor="middle" x="290.62" y="-478.9" font-family="Helvetica,sans-Serif" font-size="10.00">ImFontAtlas</text>
</a>
</g>
</g>
<!-- Node3&#45;&gt;Node22 -->
<g id="edge28_Node000022_Node000003" class="edge">
<title>Node3&#45;&gt;Node22</title>
<g id="a_edge28_Node000022_Node000003"><a xlink:title=" ">
<path fill="none" stroke="#9a32cd" stroke-dasharray="5,2" d="M85.15,-482.03C130.73,-482.03 207.92,-482.03 253.29,-482.03"/>
<polygon fill="#9a32cd" stroke="#9a32cd" points="85.25,-478.53 75.25,-482.03 85.25,-485.53 85.25,-478.53"/>
</a>
</g>
<text xml:space="preserve" text-anchor="start" x="115.75" y="-505.03" font-family="Helvetica,sans-Serif" font-size="10.00" fill="grey">TexUvScale</text>
<text xml:space="preserve" text-anchor="start" x="115.75" y="-488.28" font-family="Helvetica,sans-Serif" font-size="10.00" fill="grey">TexUvWhitePixel</text>
</g>
<!-- Node25 -->
<g id="Node000025" class="node">
<title>Node25</title>
<g id="a_Node000025"><a xlink:href="structImFontAtlasCustomRect.html" target="_top" xlink:title=" ">
<polygon fill="white" stroke="#666666" points="920.25,-694.4 786.5,-694.4 786.5,-673.65 920.25,-673.65 920.25,-694.4"/>
<text xml:space="preserve" text-anchor="middle" x="853.38" y="-680.9" font-family="Helvetica,sans-Serif" font-size="10.00">ImFontAtlasCustomRect</text>
</a>
</g>
</g>
<!-- Node3&#45;&gt;Node25 -->
<g id="edge33_Node000025_Node000003" class="edge">
<title>Node3&#45;&gt;Node25</title>
<g id="a_edge33_Node000025_Node000003"><a xlink:title=" ">
<path fill="none" stroke="#9a32cd" stroke-dasharray="5,2" d="M57.43,-503.05C78.2,-548.19 134.05,-653.67 218.5,-695.03 303.98,-736.89 551.58,-700.36 646.75,-701.03 699.19,-701.4 712.55,-706.05 764.75,-701.03 778.02,-699.75 792.26,-697.42 805.32,-694.88"/>
<polygon fill="#9a32cd" stroke="#9a32cd" points="60.71,-501.79 53.43,-494.09 54.32,-504.65 60.71,-501.79"/>
</a>
</g>
<text xml:space="preserve" text-anchor="start" x="407.88" y="-721.22" font-family="Helvetica,sans-Serif" font-size="10.00" fill="grey">GlyphOffset</text>
</g>
<!-- Node27 -->
<g id="Node000027" class="node">
<title>Node27</title>
<g id="a_Node000027"><a xlink:href="structImFontConfig.html" target="_top" xlink:title=" ">
<polygon fill="white" stroke="#666666" points="893.62,-594.4 813.12,-594.4 813.12,-573.65 893.62,-573.65 893.62,-594.4"/>
<text xml:space="preserve" text-anchor="middle" x="853.38" y="-580.9" font-family="Helvetica,sans-Serif" font-size="10.00">ImFontConfig</text>
</a>
</g>
</g>
<!-- Node3&#45;&gt;Node27 -->
<g id="edge37_Node000027_Node000003" class="edge">
<title>Node3&#45;&gt;Node27</title>
<g id="a_edge37_Node000027_Node000003"><a xlink:title=" ">
<path fill="none" stroke="#9a32cd" stroke-dasharray="5,2" d="M70.3,-499.42C82.16,-507.82 97.48,-517.12 112.75,-522.03 273.88,-573.85 324.09,-533.06 492.75,-547.28 609.23,-557.1 746.58,-572.08 812.77,-579.52"/>
<polygon fill="#9a32cd" stroke="#9a32cd" points="72.56,-496.74 62.44,-493.6 68.39,-502.36 72.56,-496.74"/>
</a>
</g>
<text xml:space="preserve" text-anchor="start" x="407.88" y="-553.53" font-family="Helvetica,sans-Serif" font-size="10.00" fill="grey">GlyphOffset</text>
</g>
<!-- Node29 -->
<g id="Node000029" class="node">
<title>Node29</title>
<g id="a_Node000029"><a xlink:href="structImVector.html" target="_top" xlink:title=" ">
<polygon fill="white" stroke="#666666" points="628.75,-292.4 510.75,-292.4 510.75,-271.65 628.75,-271.65 628.75,-292.4"/>
<text xml:space="preserve" text-anchor="middle" x="569.75" y="-278.9" font-family="Helvetica,sans-Serif" font-size="10.00">ImVector&lt; ImVec2 &gt;</text>
</a>
</g>
</g>
<!-- Node3&#45;&gt;Node29 -->
<g id="edge43_Node000029_Node000003" class="edge">
<title>Node3&#45;&gt;Node29</title>
<g id="a_edge43_Node000029_Node000003"><a xlink:title=" ">
<path fill="none" stroke="#9a32cd" stroke-dasharray="5,2" d="M67.81,-463.85C80.16,-452.78 96.77,-438.77 112.75,-428.03 239.54,-342.85 419.25,-304.73 510.58,-290"/>
<polygon fill="#9a32cd" stroke="#9a32cd" points="65.8,-460.95 60.77,-470.27 70.51,-466.12 65.8,-460.95"/>
</a>
</g>
<text xml:space="preserve" text-anchor="start" x="279" y="-376.38" font-family="Helvetica,sans-Serif" font-size="10.00" fill="grey">Data</text>
</g>
<!-- Node4 -->
<g id="Node000004" class="node">
<title>Node4</title>
<g id="a_Node000004"><a xlink:href="structImVector.html" target="_top" xlink:title=" ">
<polygon fill="white" stroke="#666666" points="2382.75,-644.78 2228.75,-644.78 2228.75,-611.28 2382.75,-611.28 2382.75,-644.78"/>
<text xml:space="preserve" text-anchor="start" x="2236.75" y="-631.28" font-family="Helvetica,sans-Serif" font-size="10.00">ImVector&lt; ImGuiOldColumn</text>
<text xml:space="preserve" text-anchor="middle" x="2305.75" y="-618.53" font-family="Helvetica,sans-Serif" font-size="10.00">Data &gt;</text>
</a>
</g>
</g>
<!-- Node4&#45;&gt;Node1 -->
<g id="edge3_Node000001_Node000004" class="edge">
<title>Node4&#45;&gt;Node1</title>
<g id="a_edge3_Node000001_Node000004"><a xlink:title=" ">
<path fill="none" stroke="#9a32cd" stroke-dasharray="5,2" d="M2394.24,-628.03C2418.99,-628.03 2445.13,-628.03 2467.03,-628.03"/>
<polygon fill="#9a32cd" stroke="#9a32cd" points="2394.5,-624.53 2384.5,-628.03 2394.5,-631.53 2394.5,-624.53"/>
</a>
</g>
<text xml:space="preserve" text-anchor="start" x="2403.75" y="-634.28" font-family="Helvetica,sans-Serif" font-size="10.00" fill="grey">Columns</text>
</g>
<!-- Node5&#45;&gt;Node4 -->
<g id="edge4_Node000004_Node000005" class="edge">
<title>Node5&#45;&gt;Node4</title>
<g id="a_edge4_Node000004_Node000005"><a xlink:title=" ">
<path fill="none" stroke="#9a32cd" stroke-dasharray="5,2" d="M2044.51,-631.95C2098.72,-631.13 2172.98,-630.01 2228.31,-629.18"/>
<polygon fill="#9a32cd" stroke="#9a32cd" points="2044.72,-628.45 2034.77,-632.1 2044.82,-635.44 2044.72,-628.45"/>
</a>
</g>
<text xml:space="preserve" text-anchor="start" x="2128.62" y="-637.8" font-family="Helvetica,sans-Serif" font-size="10.00" fill="grey">Data</text>
</g>
<!-- Node6 -->
<g id="Node000006" class="node">
<title>Node6</title>
<g id="a_Node000006"><a xlink:href="structImDrawListSplitter.html" target="_top" xlink:title=" ">
<polygon fill="white" stroke="#666666" points="2359.12,-388.4 2252.38,-388.4 2252.38,-367.65 2359.12,-367.65 2359.12,-388.4"/>
<text xml:space="preserve" text-anchor="middle" x="2305.75" y="-374.9" font-family="Helvetica,sans-Serif" font-size="10.00">ImDrawListSplitter</text>
</a>
</g>
</g>
<!-- Node6&#45;&gt;Node1 -->
<g id="edge6_Node000001_Node000006" class="edge">
<title>Node6&#45;&gt;Node1</title>
<g id="a_edge6_Node000001_Node000006"><a xlink:title=" ">
<path fill="none" stroke="#9a32cd" stroke-dasharray="5,2" d="M2323.12,-397.34C2365.37,-447.16 2477.04,-578.85 2509.67,-617.33"/>
<polygon fill="#9a32cd" stroke="#9a32cd" points="2325.98,-395.29 2316.84,-389.93 2320.64,-399.82 2325.98,-395.29"/>
</a>
</g>
<text xml:space="preserve" text-anchor="start" x="2407.5" y="-546.28" font-family="Helvetica,sans-Serif" font-size="10.00" fill="grey">Splitter</text>
</g>
<!-- Node12 -->
<g id="Node000012" class="node">
<title>Node12</title>
<g id="a_Node000012"><a xlink:href="structImDrawList.html" target="_top" xlink:title=" ">
<polygon fill="white" stroke="#666666" points="1177.38,-253.4 1105.88,-253.4 1105.88,-232.65 1177.38,-232.65 1177.38,-253.4"/>
<text xml:space="preserve" text-anchor="middle" x="1141.62" y="-239.9" font-family="Helvetica,sans-Serif" font-size="10.00">ImDrawList</text>
</a>
</g>
</g>
<!-- Node6&#45;&gt;Node12 -->
<g id="edge48_Node000012_Node000006" class="edge">
<title>Node6&#45;&gt;Node12</title>
<g id="a_edge48_Node000012_Node000006"><a xlink:title=" ">
<path fill="none" stroke="#9a32cd" stroke-dasharray="5,2" d="M2283.39,-360.3C2232.84,-320.21 2100.49,-226.03 1972.75,-226.03 1368.88,-226.03 1368.88,-226.03 1368.88,-226.03 1301.12,-226.03 1222.28,-233.7 1177.83,-238.74"/>
<polygon fill="#9a32cd" stroke="#9a32cd" points="2280.96,-362.84 2290.95,-366.39 2285.36,-357.39 2280.96,-362.84"/>
</a>
</g>
<text xml:space="preserve" text-anchor="start" x="1645.5" y="-232.28" font-family="Helvetica,sans-Serif" font-size="10.00" fill="grey">_Splitter</text>
</g>
<!-- Node7 -->
<g id="Node000007" class="node">
<title>Node7</title>
<g id="a_Node000007"><a xlink:href="structImVector.html" target="_top" xlink:title=" ">
<polygon fill="white" stroke="#666666" points="2051.75,-388.4 1891.75,-388.4 1891.75,-367.65 2051.75,-367.65 2051.75,-388.4"/>
<text xml:space="preserve" text-anchor="middle" x="1971.75" y="-374.9" font-family="Helvetica,sans-Serif" font-size="10.00">ImVector&lt; ImDrawChannel &gt;</text>
</a>
</g>
</g>
<!-- Node7&#45;&gt;Node6 -->
<g id="edge7_Node000006_Node000007" class="edge">
<title>Node7&#45;&gt;Node6</title>
<g id="a_edge7_Node000006_Node000007"><a xlink:title=" ">
<path fill="none" stroke="#9a32cd" stroke-dasharray="5,2" d="M2063.32,-378.03C2123.8,-378.03 2201.24,-378.03 2251.88,-378.03"/>
<polygon fill="#9a32cd" stroke="#9a32cd" points="2063.36,-374.53 2053.36,-378.03 2063.36,-381.53 2063.36,-374.53"/>
</a>
</g>
<text xml:space="preserve" text-anchor="start" x="2115.12" y="-384.28" font-family="Helvetica,sans-Serif" font-size="10.00" fill="grey">_Channels</text>
</g>
<!-- Node8 -->
<g id="Node000008" class="node">
<title>Node8</title>
<g id="a_Node000008"><a xlink:href="structImDrawChannel.html" target="_top" xlink:title=" ">
<polygon fill="white" stroke="#666666" points="1809.25,-388.4 1715.25,-388.4 1715.25,-367.65 1809.25,-367.65 1809.25,-388.4"/>
<text xml:space="preserve" text-anchor="middle" x="1762.25" y="-374.9" font-family="Helvetica,sans-Serif" font-size="10.00">ImDrawChannel</text>
</a>
</g>
</g>
<!-- Node8&#45;&gt;Node7 -->
<g id="edge8_Node000007_Node000008" class="edge">
<title>Node8&#45;&gt;Node7</title>
<g id="a_edge8_Node000007_Node000008"><a xlink:title=" ">
<path fill="none" stroke="#9a32cd" stroke-dasharray="5,2" d="M1820.98,-378.03C1842.82,-378.03 1868.09,-378.03 1891.57,-378.03"/>
<polygon fill="#9a32cd" stroke="#9a32cd" points="1821.07,-374.53 1811.07,-378.03 1821.07,-381.53 1821.07,-374.53"/>
</a>
</g>
<text xml:space="preserve" text-anchor="start" x="1838.88" y="-384.28" font-family="Helvetica,sans-Serif" font-size="10.00" fill="grey">Data</text>
</g>
<!-- Node9 -->
<g id="Node000009" class="node">
<title>Node9</title>
<g id="a_Node000009"><a xlink:href="structImVector.html" target="_top" xlink:title=" ">
<polygon fill="white" stroke="#666666" points="1616.25,-320.4 1473.5,-320.4 1473.5,-299.65 1616.25,-299.65 1616.25,-320.4"/>
<text xml:space="preserve" text-anchor="middle" x="1544.88" y="-306.9" font-family="Helvetica,sans-Serif" font-size="10.00">ImVector&lt; ImDrawCmd &gt;</text>
</a>
</g>
</g>
<!-- Node9&#45;&gt;Node8 -->
<g id="edge9_Node000008_Node000009" class="edge">
<title>Node9&#45;&gt;Node8</title>
<g id="a_edge9_Node000008_Node000009"><a xlink:title=" ">
<path fill="none" stroke="#9a32cd" stroke-dasharray="5,2" d="M1590.92,-324.25C1631.43,-337.04 1690.09,-355.56 1726.93,-367.19"/>
<polygon fill="#9a32cd" stroke="#9a32cd" points="1592.03,-320.93 1581.45,-321.26 1589.93,-327.61 1592.03,-320.93"/>
</a>
</g>
<text xml:space="preserve" text-anchor="start" x="1637.25" y="-362.28" font-family="Helvetica,sans-Serif" font-size="10.00" fill="grey">_CmdBuffer</text>
</g>
<!-- Node9&#45;&gt;Node12 -->
<g id="edge13_Node000012_Node000009" class="edge">
<title>Node9&#45;&gt;Node12</title>
<g id="a_edge13_Node000012_Node000009"><a xlink:title=" ">
<path fill="none" stroke="#9a32cd" stroke-dasharray="5,2" d="M1461.62,-307.98C1400.6,-305.05 1315.74,-297.98 1243,-281.03 1215.6,-274.64 1185.6,-262.57 1165.6,-253.74"/>
<polygon fill="#9a32cd" stroke="#9a32cd" points="1461.45,-311.48 1471.59,-308.43 1461.76,-304.49 1461.45,-311.48"/>
</a>
</g>
<text xml:space="preserve" text-anchor="start" x="1344" y="-310.66" font-family="Helvetica,sans-Serif" font-size="10.00" fill="grey">CmdBuffer</text>
</g>
<!-- Node10 -->
<g id="Node000010" class="node">
<title>Node10</title>
<g id="a_Node000010"><a xlink:href="structImDrawCmd.html" target="_top" xlink:title=" ">
<polygon fill="white" stroke="#666666" points="1408.25,-274.4 1331.5,-274.4 1331.5,-253.65 1408.25,-253.65 1408.25,-274.4"/>
<text xml:space="preserve" text-anchor="middle" x="1369.88" y="-260.9" font-family="Helvetica,sans-Serif" font-size="10.00">ImDrawCmd</text>
</a>
</g>
</g>
<!-- Node10&#45;&gt;Node9 -->
<g id="edge10_Node000009_Node000010" class="edge">
<title>Node10&#45;&gt;Node9</title>
<g id="a_edge10_Node000009_Node000010"><a xlink:title=" ">
<path fill="none" stroke="#9a32cd" stroke-dasharray="5,2" d="M1419.74,-269.98C1431.54,-271.88 1444.05,-274.29 1455.5,-277.28 1477.35,-282.98 1501.32,-292.05 1518.78,-299.2"/>
<polygon fill="#9a32cd" stroke="#9a32cd" points="1420.61,-266.57 1410.2,-268.54 1419.56,-273.49 1420.61,-266.57"/>
</a>
</g>
<text xml:space="preserve" text-anchor="start" x="1429.25" y="-283.53" font-family="Helvetica,sans-Serif" font-size="10.00" fill="grey">Data</text>
</g>
<!-- Node11 -->
<g id="Node000011" class="node">
<title>Node11</title>
<g id="a_Node000011"><a xlink:href="structImVec4.html" target="_top" xlink:title=" ">
<polygon fill="white" stroke="#666666" points="73.38,-95.4 21.38,-95.4 21.38,-74.65 73.38,-74.65 73.38,-95.4"/>
<text xml:space="preserve" text-anchor="middle" x="47.38" y="-81.9" font-family="Helvetica,sans-Serif" font-size="10.00">ImVec4</text>
</a>
</g>
</g>
<!-- Node11&#45;&gt;Node10 -->
<g id="edge11_Node000010_Node000011" class="edge">
<title>Node11&#45;&gt;Node10</title>
<g id="a_edge11_Node000010_Node000011"><a xlink:title=" ">
<path fill="none" stroke="#9a32cd" stroke-dasharray="5,2" d="M66.07,-66.65C78.15,-55.21 95.11,-41.16 112.75,-33.03 185.37,0.45 209.66,-0.03 289.62,-0.03 289.62,-0.03 289.62,-0.03 1142.62,-0.03 1278.44,-0.03 1350.29,-203.96 1365.7,-253.35"/>
<polygon fill="#9a32cd" stroke="#9a32cd" points="63.94,-63.83 59.27,-73.34 68.86,-68.82 63.94,-63.83"/>
</a>
</g>
<text xml:space="preserve" text-anchor="start" x="685.5" y="-6.28" font-family="Helvetica,sans-Serif" font-size="10.00" fill="grey">ClipRect</text>
</g>
<!-- Node11&#45;&gt;Node16 -->
<g id="edge20_Node000016_Node000011" class="edge">
<title>Node11&#45;&gt;Node16</title>
<g id="a_edge20_Node000016_Node000011"><a xlink:title=" ">
<path fill="none" stroke="#9a32cd" stroke-dasharray="5,2" d="M84.67,-94.93C93.79,-97.17 103.59,-99.38 112.75,-101.03 159.3,-109.42 171.41,-108.6 218.5,-113.03 461.07,-135.85 523.04,-128.42 764.75,-159.03 772.54,-160.02 780.71,-161.17 788.79,-162.37"/>
<polygon fill="#9a32cd" stroke="#9a32cd" points="85.61,-91.56 75.05,-92.48 83.88,-98.34 85.61,-91.56"/>
</a>
</g>
<text xml:space="preserve" text-anchor="start" x="391.75" y="-156.11" font-family="Helvetica,sans-Serif" font-size="10.00" fill="grey">ClipRectFullscreen</text>
<text xml:space="preserve" text-anchor="start" x="391.75" y="-139.36" font-family="Helvetica,sans-Serif" font-size="10.00" fill="grey">TexUvLines</text>
</g>
<!-- Node11&#45;&gt;Node22 -->
<g id="edge39_Node000022_Node000011" class="edge">
<title>Node11&#45;&gt;Node22</title>
<g id="a_edge39_Node000022_Node000011"><a xlink:title=" ">
<path fill="none" stroke="#9a32cd" stroke-dasharray="5,2" d="M56.34,-106.2C77.47,-160.75 138.83,-309.27 218.5,-415.03 235.44,-437.52 260.32,-459.02 275.72,-471.35"/>
<polygon fill="#9a32cd" stroke="#9a32cd" points="59.73,-105.26 52.89,-97.17 53.19,-107.76 59.73,-105.26"/>
</a>
</g>
<text xml:space="preserve" text-anchor="start" x="128.88" y="-388.51" font-family="Helvetica,sans-Serif" font-size="10.00" fill="grey">TexUvLines</text>
</g>
<!-- Node30 -->
<g id="Node000030" class="node">
<title>Node30</title>
<g id="a_Node000030"><a xlink:href="structImDrawCmdHeader.html" target="_top" xlink:title=" ">
<polygon fill="white" stroke="#666666" points="492.75,-50.4 380.75,-50.4 380.75,-29.65 492.75,-29.65 492.75,-50.4"/>
<text xml:space="preserve" text-anchor="middle" x="436.75" y="-36.9" font-family="Helvetica,sans-Serif" font-size="10.00">ImDrawCmdHeader</text>
</a>
</g>
</g>
<!-- Node11&#45;&gt;Node30 -->
<g id="edge47_Node000030_Node000011" class="edge">
<title>Node11&#45;&gt;Node30</title>
<g id="a_edge47_Node000030_Node000011"><a xlink:title=" ">
<path fill="none" stroke="#9a32cd" stroke-dasharray="5,2" d="M74.44,-68.52C85.77,-62.22 99.46,-55.73 112.75,-52.28 204.27,-28.5 315.24,-30.71 380.42,-35.01"/>
<polygon fill="#9a32cd" stroke="#9a32cd" points="72.96,-65.33 66.09,-73.39 76.49,-71.37 72.96,-65.33"/>
</a>
</g>
<text xml:space="preserve" text-anchor="start" x="136.38" y="-58.53" font-family="Helvetica,sans-Serif" font-size="10.00" fill="grey">ClipRect</text>
</g>
<!-- Node31 -->
<g id="Node000031" class="node">
<title>Node31</title>
<g id="a_Node000031"><a xlink:href="structImVector.html" target="_top" xlink:title=" ">
<polygon fill="white" stroke="#666666" points="764.75,-106.4 646.75,-106.4 646.75,-85.65 764.75,-85.65 764.75,-106.4"/>
<text xml:space="preserve" text-anchor="middle" x="705.75" y="-92.9" font-family="Helvetica,sans-Serif" font-size="10.00">ImVector&lt; ImVec4 &gt;</text>
</a>
</g>
</g>
<!-- Node11&#45;&gt;Node31 -->
<g id="edge50_Node000031_Node000011" class="edge">
<title>Node11&#45;&gt;Node31</title>
<g id="a_edge50_Node000031_Node000011"><a xlink:title=" ">
<path fill="none" stroke="#9a32cd" stroke-dasharray="5,2" d="M84.99,-85.64C193.46,-87.46 513.82,-92.83 646.34,-95.05"/>
<polygon fill="#9a32cd" stroke="#9a32cd" points="85.27,-82.15 75.22,-85.48 85.16,-89.15 85.27,-82.15"/>
</a>
</g>
<text xml:space="preserve" text-anchor="start" x="279" y="-96.48" font-family="Helvetica,sans-Serif" font-size="10.00" fill="grey">Data</text>
</g>
<!-- Node12&#45;&gt;Node10 -->
<g id="edge12_Node000010_Node000012" class="edge">
<title>Node12&#45;&gt;Node10</title>
<g id="a_edge12_Node000010_Node000012"><a xlink:title=" ">
<path fill="none" stroke="#9a32cd" stroke-dasharray="5,2" d="M1188.8,-247.32C1230.86,-251.22 1292.22,-256.91 1331.34,-260.55"/>
<polygon fill="#9a32cd" stroke="#9a32cd" points="1189.27,-243.84 1178.99,-246.41 1188.62,-250.81 1189.27,-243.84"/>
</a>
</g>
<text xml:space="preserve" text-anchor="start" x="1246" y="-264.65" font-family="Helvetica,sans-Serif" font-size="10.00" fill="grey">UserCallback</text>
</g>
<!-- Node13 -->
<g id="Node000013" class="node">
<title>Node13</title>
<g id="a_Node000013"><a xlink:href="structImVector.html" target="_top" xlink:title=" ">
<polygon fill="white" stroke="#666666" points="921,-408.4 785.75,-408.4 785.75,-387.65 921,-387.65 921,-408.4"/>
<text xml:space="preserve" text-anchor="middle" x="853.38" y="-394.9" font-family="Helvetica,sans-Serif" font-size="10.00">ImVector&lt; ImDrawIdx &gt;</text>
</a>
</g>
</g>
<!-- Node13&#45;&gt;Node8 -->
<g id="edge53_Node000008_Node000013" class="edge">
<title>Node13&#45;&gt;Node8</title>
<g id="a_edge53_Node000008_Node000013"><a xlink:title=" ">
<path fill="none" stroke="#9a32cd" stroke-dasharray="5,2" d="M932.62,-403.5C990.13,-407.05 1070.2,-411.03 1140.62,-411.03 1140.62,-411.03 1140.62,-411.03 1545.88,-411.03 1605.64,-411.03 1673.68,-398.46 1717,-388.84"/>
<polygon fill="#9a32cd" stroke="#9a32cd" points="933.14,-400.03 922.94,-402.89 932.7,-407.01 933.14,-400.03"/>
</a>
</g>
<text xml:space="preserve" text-anchor="start" x="1345.12" y="-417.28" font-family="Helvetica,sans-Serif" font-size="10.00" fill="grey">_IdxBuffer</text>
</g>
<!-- Node13&#45;&gt;Node12 -->
<g id="edge14_Node000012_Node000013" class="edge">
<title>Node13&#45;&gt;Node12</title>
<g id="a_edge14_Node000012_Node000013"><a xlink:title=" ">
<path fill="none" stroke="#9a32cd" stroke-dasharray="5,2" d="M912.95,-384.7C966.89,-372.39 1038.83,-355.87 1040.25,-355.03 1084.76,-328.73 1120.46,-276.11 1134.36,-253.62"/>
<polygon fill="#9a32cd" stroke="#9a32cd" points="912.19,-381.28 903.21,-386.92 913.74,-388.11 912.19,-381.28"/>
</a>
</g>
<text xml:space="preserve" text-anchor="start" x="969" y="-383.29" font-family="Helvetica,sans-Serif" font-size="10.00" fill="grey">IdxBuffer</text>
</g>
<!-- Node14 -->
<g id="Node000014" class="node">
<title>Node14</title>
<g id="a_Node000014"><a xlink:href="structImVector.html" target="_top" xlink:title=" ">
<polygon fill="white" stroke="#666666" points="923.25,-369.4 783.5,-369.4 783.5,-348.65 923.25,-348.65 923.25,-369.4"/>
<text xml:space="preserve" text-anchor="middle" x="853.38" y="-355.9" font-family="Helvetica,sans-Serif" font-size="10.00">ImVector&lt; ImDrawVert &gt;</text>
</a>
</g>
</g>
<!-- Node14&#45;&gt;Node12 -->
<g id="edge15_Node000012_Node000014" class="edge">
<title>Node14&#45;&gt;Node12</title>
<g id="a_edge15_Node000012_Node000014"><a xlink:title=" ">
<path fill="none" stroke="#9a32cd" stroke-dasharray="5,2" d="M906.32,-345.34C918.05,-342.31 930.44,-339.15 942,-336.28 985.55,-325.47 999.29,-331.35 1040.25,-313.03 1075.16,-297.41 1110.6,-269.15 1128.57,-253.75"/>
<polygon fill="#9a32cd" stroke="#9a32cd" points="905.6,-341.92 896.81,-347.82 907.36,-348.69 905.6,-341.92"/>
</a>
</g>
<text xml:space="preserve" text-anchor="start" x="968.25" y="-342.53" font-family="Helvetica,sans-Serif" font-size="10.00" fill="grey">VtxBuffer</text>
</g>
<!-- Node15&#45;&gt;Node12 -->
<g id="edge44_Node000012_Node000015" class="edge">
<title>Node15&#45;&gt;Node12</title>
<g id="a_edge44_Node000012_Node000015"><a xlink:title=" ">
<path fill="none" stroke="#9a32cd" stroke-dasharray="5,2" d="M618.33,-350.26C661.26,-342.42 726.18,-330.74 782.75,-321.28 897,-302.18 928.26,-310.64 1040.25,-281.03 1066.91,-273.98 1096.29,-262.38 1116.34,-253.85"/>
<polygon fill="#9a32cd" stroke="#9a32cd" points="617.79,-346.8 608.59,-352.04 619.05,-353.69 617.79,-346.8"/>
</a>
</g>
<text xml:space="preserve" text-anchor="start" x="822.62" y="-327.53" font-family="Helvetica,sans-Serif" font-size="10.00" fill="grey">_VtxWritePtr</text>
</g>
<!-- Node15&#45;&gt;Node14 -->
<g id="edge16_Node000014_Node000015" class="edge">
<title>Node15&#45;&gt;Node14</title>
<g id="a_edge16_Node000014_Node000015"><a xlink:title=" ">
<path fill="none" stroke="#9a32cd" stroke-dasharray="5,2" d="M618.23,-359.03C663.38,-359.03 731.84,-359.03 783.09,-359.03"/>
<polygon fill="#9a32cd" stroke="#9a32cd" points="618.5,-355.53 608.5,-359.03 618.5,-362.53 618.5,-355.53"/>
</a>
</g>
<text xml:space="preserve" text-anchor="start" x="694.12" y="-365.28" font-family="Helvetica,sans-Serif" font-size="10.00" fill="grey">Data</text>
</g>
<!-- Node16&#45;&gt;Node12 -->
<g id="edge18_Node000012_Node000016" class="edge">
<title>Node16&#45;&gt;Node12</title>
<g id="a_edge18_Node000012_Node000016"><a xlink:title=" ">
<path fill="none" stroke="#9a32cd" stroke-dasharray="5,2" d="M929.41,-170.9C963.82,-171.8 1004.77,-175.58 1040.25,-186.28 1073.6,-196.34 1107.99,-218.94 1126.59,-232.39"/>
<polygon fill="#9a32cd" stroke="#9a32cd" points="929.58,-167.4 919.52,-170.72 929.46,-174.4 929.58,-167.4"/>
</a>
</g>
<text xml:space="preserve" text-anchor="start" x="976.88" y="-192.53" font-family="Helvetica,sans-Serif" font-size="10.00" fill="grey">_Data</text>
</g>
<!-- Node17 -->
<g id="Node000017" class="node">
<title>Node17</title>
<g id="a_Node000017"><a xlink:href="structImFont.html" target="_top" xlink:title=" ">
<polygon fill="white" stroke="#666666" points="594.62,-648.4 544.88,-648.4 544.88,-627.65 594.62,-627.65 594.62,-648.4"/>
<text xml:space="preserve" text-anchor="middle" x="569.75" y="-634.9" font-family="Helvetica,sans-Serif" font-size="10.00">ImFont</text>
</a>
</g>
</g>
<!-- Node17&#45;&gt;Node16 -->
<g id="edge21_Node000016_Node000017" class="edge">
<title>Node17&#45;&gt;Node16</title>
<g id="a_edge21_Node000016_Node000017"><a xlink:title=" ">
<path fill="none" stroke="#9a32cd" stroke-dasharray="5,2" d="M585.17,-617.96C598.95,-597.62 619.01,-564.73 628.75,-533.03 654.53,-449.09 608.14,-415.14 646.75,-336.28 678.31,-271.82 719.21,-281.5 764.75,-226.03 774.38,-214.31 770.89,-206.49 782.75,-197.03 789.74,-191.45 798.12,-187.12 806.6,-183.79"/>
<polygon fill="#9a32cd" stroke="#9a32cd" points="582.32,-615.92 579.49,-626.13 588.07,-619.91 582.32,-615.92"/>
</a>
</g>
<text xml:space="preserve" text-anchor="start" x="695.25" y="-342.53" font-family="Helvetica,sans-Serif" font-size="10.00" fill="grey">Font</text>
</g>
<!-- Node23 -->
<g id="Node000023" class="node">
<title>Node23</title>
<g id="a_Node000023"><a xlink:href="structImVector.html" target="_top" xlink:title=" ">
<polygon fill="white" stroke="#666666" points="915.38,-536.4 791.38,-536.4 791.38,-515.65 915.38,-515.65 915.38,-536.4"/>
<text xml:space="preserve" text-anchor="middle" x="853.38" y="-522.9" font-family="Helvetica,sans-Serif" font-size="10.00">ImVector&lt; ImFont * &gt;</text>
</a>
</g>
</g>
<!-- Node17&#45;&gt;Node23 -->
<g id="edge30_Node000023_Node000017" class="edge">
<title>Node17&#45;&gt;Node23</title>
<g id="a_edge30_Node000023_Node000017"><a xlink:title=" ">
<path fill="none" stroke="#9a32cd" stroke-dasharray="5,2" d="M584.58,-618.26C598.23,-600.37 620.79,-574.8 646.75,-561.28 691.57,-537.95 748.6,-529.58 791.22,-526.79"/>
<polygon fill="#9a32cd" stroke="#9a32cd" points="581.94,-615.94 578.84,-626.07 587.58,-620.08 581.94,-615.94"/>
</a>
</g>
<text xml:space="preserve" text-anchor="start" x="694.12" y="-567.53" font-family="Helvetica,sans-Serif" font-size="10.00" fill="grey">Data</text>
</g>
<!-- Node17&#45;&gt;Node25 -->
<g id="edge34_Node000025_Node000017" class="edge">
<title>Node17&#45;&gt;Node25</title>
<g id="a_edge34_Node000025_Node000017"><a xlink:title=" ">
<path fill="none" stroke="#9a32cd" stroke-dasharray="5,2" d="M605.72,-650.68C618.49,-654.87 633.13,-659.18 646.75,-662.03 692.79,-671.66 745.55,-677.2 786.1,-680.31"/>
<polygon fill="#9a32cd" stroke="#9a32cd" points="607.09,-647.45 596.5,-647.56 604.85,-654.08 607.09,-647.45"/>
</a>
</g>
<text xml:space="preserve" text-anchor="start" x="695.25" y="-684.64" font-family="Helvetica,sans-Serif" font-size="10.00" fill="grey">Font</text>
</g>
<!-- Node17&#45;&gt;Node27 -->
<g id="edge38_Node000027_Node000017" class="edge">
<title>Node17&#45;&gt;Node27</title>
<g id="a_edge38_Node000027_Node000017"><a xlink:title=" ">
<path fill="none" stroke="#9a32cd" stroke-dasharray="5,2" d="M598.39,-621.62C612.4,-614.11 629.97,-605.87 646.75,-601.28 703.07,-585.87 771.04,-583.09 812.98,-583.1"/>
<polygon fill="#9a32cd" stroke="#9a32cd" points="596.8,-618.5 589.77,-626.42 600.21,-624.62 596.8,-618.5"/>
</a>
</g>
<text xml:space="preserve" text-anchor="start" x="687" y="-607.53" font-family="Helvetica,sans-Serif" font-size="10.00" fill="grey">DstFont</text>
</g>
<!-- Node18 -->
<g id="Node000018" class="node">
<title>Node18</title>
<g id="a_Node000018"><a xlink:href="structImVector.html" target="_top" xlink:title=" ">
<polygon fill="white" stroke="#666666" points="342.5,-686.4 238.75,-686.4 238.75,-665.65 342.5,-665.65 342.5,-686.4"/>
<text xml:space="preserve" text-anchor="middle" x="290.62" y="-672.9" font-family="Helvetica,sans-Serif" font-size="10.00">ImVector&lt; float &gt;</text>
</a>
</g>
</g>
<!-- Node18&#45;&gt;Node17 -->
<g id="edge22_Node000017_Node000018" class="edge">
<title>Node18&#45;&gt;Node17</title>
<g id="a_edge22_Node000017_Node000018"><a xlink:title=" ">
<path fill="none" stroke="#9a32cd" stroke-dasharray="5,2" d="M354.05,-670.8C393.87,-667.07 446.5,-661.41 492.75,-654.03 510.19,-651.25 529.69,-647.12 544.56,-643.76"/>
<polygon fill="#9a32cd" stroke="#9a32cd" points="353.79,-667.31 344.15,-671.71 354.43,-674.28 353.79,-667.31"/>
</a>
</g>
<text xml:space="preserve" text-anchor="start" x="398.88" y="-674.14" font-family="Helvetica,sans-Serif" font-size="10.00" fill="grey">IndexAdvanceX</text>
</g>
<!-- Node19 -->
<g id="Node000019" class="node">
<title>Node19</title>
<g id="a_Node000019"><a xlink:href="structImVector.html" target="_top" xlink:title=" ">
<polygon fill="white" stroke="#666666" points="347.75,-644.4 233.5,-644.4 233.5,-623.65 347.75,-623.65 347.75,-644.4"/>
<text xml:space="preserve" text-anchor="middle" x="290.62" y="-630.9" font-family="Helvetica,sans-Serif" font-size="10.00">ImVector&lt; ImU16 &gt;</text>
</a>
</g>
</g>
<!-- Node19&#45;&gt;Node17 -->
<g id="edge23_Node000017_Node000019" class="edge">
<title>Node19&#45;&gt;Node17</title>
<g id="a_edge23_Node000017_Node000019"><a xlink:title=" ">
<path fill="none" stroke="#9a32cd" stroke-dasharray="5,2" d="M359.46,-633.95C398.45,-634.02 448.36,-634.34 492.75,-635.28 510.04,-635.65 529.54,-636.36 544.45,-636.97"/>
<polygon fill="#9a32cd" stroke="#9a32cd" points="359.5,-630.45 349.5,-633.93 359.49,-637.45 359.5,-630.45"/>
</a>
</g>
<text xml:space="preserve" text-anchor="start" x="406" y="-641.53" font-family="Helvetica,sans-Serif" font-size="10.00" fill="grey">IndexLookup</text>
</g>
<!-- Node20 -->
<g id="Node000020" class="node">
<title>Node20</title>
<g id="a_Node000020"><a xlink:href="structImVector.html" target="_top" xlink:title=" ">
<polygon fill="white" stroke="#666666" points="362.75,-767.4 218.5,-767.4 218.5,-746.65 362.75,-746.65 362.75,-767.4"/>
<text xml:space="preserve" text-anchor="middle" x="290.62" y="-753.9" font-family="Helvetica,sans-Serif" font-size="10.00">ImVector&lt; ImFontGlyph &gt;</text>
</a>
</g>
</g>
<!-- Node20&#45;&gt;Node17 -->
<g id="edge24_Node000017_Node000020" class="edge">
<title>Node20&#45;&gt;Node17</title>
<g id="a_edge24_Node000017_Node000020"><a xlink:title=" ">
<path fill="none" stroke="#9a32cd" stroke-dasharray="5,2" d="M374.34,-763.94C412.53,-763.56 457.18,-757.81 492.75,-738.03 529.91,-717.36 554.56,-670.16 564.19,-648.84"/>
<polygon fill="#9a32cd" stroke="#9a32cd" points="374.76,-760.44 364.75,-763.91 374.74,-767.44 374.76,-760.44"/>
</a>
</g>
<text xml:space="preserve" text-anchor="start" x="419.88" y="-770.02" font-family="Helvetica,sans-Serif" font-size="10.00" fill="grey">Glyphs</text>
</g>
<!-- Node21 -->
<g id="Node000021" class="node">
<title>Node21</title>
<g id="a_Node000021"><a xlink:href="structImFontGlyph.html" target="_top" xlink:title=" ">
<polygon fill="white" stroke="#666666" points="86.5,-819.4 8.25,-819.4 8.25,-798.65 86.5,-798.65 86.5,-819.4"/>
<text xml:space="preserve" text-anchor="middle" x="47.38" y="-805.9" font-family="Helvetica,sans-Serif" font-size="10.00">ImFontGlyph</text>
</a>
</g>
</g>
<!-- Node21&#45;&gt;Node17 -->
<g id="edge26_Node000017_Node000021" class="edge">
<title>Node21&#45;&gt;Node17</title>
<g id="a_edge26_Node000017_Node000021"><a xlink:title=" ">
<path fill="none" stroke="#9a32cd" stroke-dasharray="5,2" d="M97.91,-821.67C185.8,-841.06 371.2,-867.87 492.75,-786.03 542.35,-752.64 561.43,-676.48 566.91,-648.55"/>
<polygon fill="#9a32cd" stroke="#9a32cd" points="98.93,-818.32 88.41,-819.51 97.38,-825.14 98.93,-818.32"/>
</a>
</g>
<text xml:space="preserve" text-anchor="start" x="256.5" y="-848.13" font-family="Helvetica,sans-Serif" font-size="10.00" fill="grey">FallbackGlyph</text>
</g>
<!-- Node21&#45;&gt;Node20 -->
<g id="edge25_Node000020_Node000021" class="edge">
<title>Node21&#45;&gt;Node20</title>
<g id="a_edge25_Node000020_Node000021"><a xlink:title=" ">
<path fill="none" stroke="#9a32cd" stroke-dasharray="5,2" d="M97.76,-796.75C102.82,-795.55 107.88,-794.37 112.75,-793.28 153.27,-784.17 199.23,-774.78 234.14,-767.84"/>
<polygon fill="#9a32cd" stroke="#9a32cd" points="97.16,-793.29 88.26,-799.03 98.8,-800.1 97.16,-793.29"/>
</a>
</g>
<text xml:space="preserve" text-anchor="start" x="145" y="-799.53" font-family="Helvetica,sans-Serif" font-size="10.00" fill="grey">Data</text>
</g>
<!-- Node22&#45;&gt;Node17 -->
<g id="edge27_Node000017_Node000022" class="edge">
<title>Node22&#45;&gt;Node17</title>
<g id="a_edge27_Node000017_Node000022"><a xlink:title=" ">
<path fill="none" stroke="#9a32cd" stroke-dasharray="5,2" d="M306.93,-501.47C323.33,-521.15 351.04,-551.28 380.75,-570.03 384.38,-572.32 494.86,-611.75 544.73,-629.49"/>
<polygon fill="#9a32cd" stroke="#9a32cd" points="309.81,-499.46 300.79,-493.91 304.39,-503.88 309.81,-499.46"/>
</a>
</g>
<text xml:space="preserve" text-anchor="start" x="400.75" y="-615.37" font-family="Helvetica,sans-Serif" font-size="10.00" fill="grey">ContainerAtlas</text>
</g>
<!-- Node23&#45;&gt;Node22 -->
<g id="edge29_Node000022_Node000023" class="edge">
<title>Node23&#45;&gt;Node22</title>
<g id="a_edge29_Node000022_Node000023"><a xlink:title=" ">
<path fill="none" stroke="#9a32cd" stroke-dasharray="5,2" d="M779.76,-520.33C658.49,-510.82 419.09,-492.03 327.99,-484.88"/>
<polygon fill="#9a32cd" stroke="#9a32cd" points="779.36,-523.81 789.61,-521.1 779.91,-516.83 779.36,-523.81"/>
</a>
</g>
<text xml:space="preserve" text-anchor="start" x="556.62" y="-514.65" font-family="Helvetica,sans-Serif" font-size="10.00" fill="grey">Fonts</text>
</g>
<!-- Node24 -->
<g id="Node000024" class="node">
<title>Node24</title>
<g id="a_Node000024"><a xlink:href="structImVector.html" target="_top" xlink:title=" ">
<polygon fill="white" stroke="#666666" points="1225,-608.78 1058.25,-608.78 1058.25,-575.28 1225,-575.28 1225,-608.78"/>
<text xml:space="preserve" text-anchor="start" x="1066.25" y="-595.28" font-family="Helvetica,sans-Serif" font-size="10.00">ImVector&lt; ImFontAtlasCustom</text>
<text xml:space="preserve" text-anchor="middle" x="1141.62" y="-582.53" font-family="Helvetica,sans-Serif" font-size="10.00">Rect &gt;</text>
</a>
</g>
</g>
<!-- Node24&#45;&gt;Node22 -->
<g id="edge31_Node000022_Node000024" class="edge">
<title>Node24&#45;&gt;Node22</title>
<g id="a_edge31_Node000022_Node000024"><a xlink:title=" ">
<path fill="none" stroke="#9a32cd" stroke-dasharray="5,2" d="M1117.16,-566.98C1098.3,-548.61 1070.1,-524.89 1040.25,-513.03 784.27,-411.32 439.57,-456.66 328.05,-475.37"/>
<polygon fill="#9a32cd" stroke="#9a32cd" points="1114.53,-569.3 1124.08,-573.91 1119.49,-564.36 1114.53,-569.3"/>
</a>
</g>
<text xml:space="preserve" text-anchor="start" x="673.5" y="-459.44" font-family="Helvetica,sans-Serif" font-size="10.00" fill="grey">CustomRects</text>
</g>
<!-- Node25&#45;&gt;Node24 -->
<g id="edge32_Node000024_Node000025" class="edge">
<title>Node25&#45;&gt;Node24</title>
<g id="a_edge32_Node000024_Node000025"><a xlink:title=" ">
<path fill="none" stroke="#9a32cd" stroke-dasharray="5,2" d="M899.01,-669.68C949.84,-653.35 1032.86,-626.67 1087.12,-609.23"/>
<polygon fill="#9a32cd" stroke="#9a32cd" points="897.94,-666.35 889.49,-672.74 900.09,-673.01 897.94,-666.35"/>
</a>
</g>
<text xml:space="preserve" text-anchor="start" x="979.5" y="-660.52" font-family="Helvetica,sans-Serif" font-size="10.00" fill="grey">Data</text>
</g>
<!-- Node26 -->
<g id="Node000026" class="node">
<title>Node26</title>
<g id="a_Node000026"><a xlink:href="structImVector.html" target="_top" xlink:title=" ">
<polygon fill="white" stroke="#666666" points="1214.88,-490.4 1068.38,-490.4 1068.38,-469.65 1214.88,-469.65 1214.88,-490.4"/>
<text xml:space="preserve" text-anchor="middle" x="1141.62" y="-476.9" font-family="Helvetica,sans-Serif" font-size="10.00">ImVector&lt; ImFontConfig &gt;</text>
</a>
</g>
</g>
<!-- Node26&#45;&gt;Node22 -->
<g id="edge35_Node000022_Node000026" class="edge">
<title>Node26&#45;&gt;Node22</title>
<g id="a_edge35_Node000022_Node000026"><a xlink:title=" ">
<path fill="none" stroke="#9a32cd" stroke-dasharray="5,2" d="M1078.93,-467.02C1066.17,-464.53 1052.8,-462.07 1040.25,-460.03 866.95,-431.87 822.13,-417.14 646.75,-425.28 528.14,-430.79 488.93,-401.09 380.75,-450.03 370.72,-454.57 372.5,-461.93 362.75,-467.03 352.13,-472.59 339.6,-476.09 328.03,-478.29"/>
<polygon fill="#9a32cd" stroke="#9a32cd" points="1077.97,-470.4 1088.46,-468.91 1079.33,-463.53 1077.97,-470.4"/>
</a>
</g>
<text xml:space="preserve" text-anchor="start" x="686.62" y="-431.53" font-family="Helvetica,sans-Serif" font-size="10.00" fill="grey">Sources</text>
</g>
<!-- Node27&#45;&gt;Node17 -->
<g id="edge41_Node000017_Node000027" class="edge">
<title>Node27&#45;&gt;Node17</title>
<g id="a_edge41_Node000017_Node000027"><a xlink:title=" ">
<path fill="none" stroke="#9a32cd" stroke-dasharray="5,2" d="M821.26,-599.46C804.85,-606.92 784.14,-615.26 764.75,-620.03 704.97,-634.73 632.14,-637.63 595.02,-638.07"/>
<polygon fill="#9a32cd" stroke="#9a32cd" points="822.42,-602.79 830,-595.38 819.46,-596.44 822.42,-602.79"/>
</a>
</g>
<text xml:space="preserve" text-anchor="start" x="686.62" y="-642.23" font-family="Helvetica,sans-Serif" font-size="10.00" fill="grey">Sources</text>
</g>
<!-- Node27&#45;&gt;Node26 -->
<g id="edge36_Node000026_Node000027" class="edge">
<title>Node27&#45;&gt;Node26</title>
<g id="a_edge36_Node000026_Node000027"><a xlink:title=" ">
<path fill="none" stroke="#9a32cd" stroke-dasharray="5,2" d="M894.84,-569.33C953.1,-548.16 1059.26,-509.59 1110.87,-490.84"/>
<polygon fill="#9a32cd" stroke="#9a32cd" points="893.82,-565.97 885.62,-572.68 896.22,-572.55 893.82,-565.97"/>
</a>
</g>
<text xml:space="preserve" text-anchor="start" x="979.5" y="-556.64" font-family="Helvetica,sans-Serif" font-size="10.00" fill="grey">Data</text>
</g>
<!-- Node28 -->
<g id="Node000028" class="node">
<title>Node28</title>
<g id="a_Node000028"><a xlink:href="structImFontBuilderIO.html" target="_top" xlink:title=" ">
<polygon fill="white" stroke="#666666" points="94.75,-760.4 0,-760.4 0,-739.65 94.75,-739.65 94.75,-760.4"/>
<text xml:space="preserve" text-anchor="middle" x="47.38" y="-746.9" font-family="Helvetica,sans-Serif" font-size="10.00">ImFontBuilderIO</text>
</a>
</g>
</g>
<!-- Node28&#45;&gt;Node22 -->
<g id="edge40_Node000022_Node000028" class="edge">
<title>Node28&#45;&gt;Node22</title>
<g id="a_edge40_Node000022_Node000028"><a xlink:title=" ">
<path fill="none" stroke="#9a32cd" stroke-dasharray="5,2" d="M65.73,-730.75C113.09,-678.14 243.5,-533.27 280.01,-492.71"/>
<polygon fill="#9a32cd" stroke="#9a32cd" points="63.23,-728.29 59.14,-738.07 68.44,-732.98 63.23,-728.29"/>
</a>
</g>
<text xml:space="preserve" text-anchor="start" x="123.62" y="-684.4" font-family="Helvetica,sans-Serif" font-size="10.00" fill="grey">FontBuilderIO</text>
</g>
<!-- Node29&#45;&gt;Node12 -->
<g id="edge45_Node000012_Node000029" class="edge">
<title>Node29&#45;&gt;Node12</title>
<g id="a_edge45_Node000012_Node000029"><a xlink:title=" ">
<path fill="none" stroke="#9a32cd" stroke-dasharray="5,2" d="M640.17,-293.5C679.99,-296.31 729,-292.95 764.75,-268.03 780.66,-256.94 766.45,-238.79 782.75,-228.28 835.51,-194.26 861.26,-226.15 924,-228.28 988.05,-230.46 1062.56,-236.25 1105.39,-239.89"/>
<polygon fill="#9a32cd" stroke="#9a32cd" points="640.71,-290.03 630.45,-292.66 640.11,-297.01 640.71,-290.03"/>
</a>
</g>
<text xml:space="preserve" text-anchor="start" x="840.25" y="-234.53" font-family="Helvetica,sans-Serif" font-size="10.00" fill="grey">_Path</text>
</g>
<!-- Node29&#45;&gt;Node16 -->
<g id="edge42_Node000016_Node000029" class="edge">
<title>Node29&#45;&gt;Node16</title>
<g id="a_edge42_Node000016_Node000029"><a xlink:title=" ">
<path fill="none" stroke="#9a32cd" stroke-dasharray="5,2" d="M584.9,-262.47C598.65,-245.04 621.15,-220.32 646.75,-207.28 659.35,-200.86 733.17,-189.52 788.78,-181.66"/>
<polygon fill="#9a32cd" stroke="#9a32cd" points="582.38,-260 579.12,-270.08 587.96,-264.24 582.38,-260"/>
</a>
</g>
<text xml:space="preserve" text-anchor="start" x="678" y="-213.53" font-family="Helvetica,sans-Serif" font-size="10.00" fill="grey">TempBuffer</text>
</g>
<!-- Node30&#45;&gt;Node12 -->
<g id="edge46_Node000012_Node000030" class="edge">
<title>Node30&#45;&gt;Node12</title>
<g id="a_edge46_Node000012_Node000030"><a xlink:title=" ">
<path fill="none" stroke="#9a32cd" stroke-dasharray="5,2" d="M504.07,-35.11C641.57,-26.17 952.23,-12.82 1040.25,-67.03 1103.45,-105.95 1130.66,-200.28 1138.27,-232.24"/>
<polygon fill="#9a32cd" stroke="#9a32cd" points="504.15,-31.6 494.4,-35.76 504.61,-38.59 504.15,-31.6"/>
</a>
</g>
<text xml:space="preserve" text-anchor="start" x="674.25" y="-34.38" font-family="Helvetica,sans-Serif" font-size="10.00" fill="grey">_CmdHeader</text>
</g>
<!-- Node31&#45;&gt;Node12 -->
<g id="edge49_Node000012_Node000031" class="edge">
<title>Node31&#45;&gt;Node12</title>
<g id="a_edge49_Node000012_Node000031"><a xlink:title=" ">
<path fill="none" stroke="#9a32cd" stroke-dasharray="5,2" d="M776.31,-100.84C846.12,-107.91 955.22,-125.18 1040.25,-167.03 1076.14,-184.69 1112.01,-215.94 1129.55,-232.32"/>
<polygon fill="#9a32cd" stroke="#9a32cd" points="776.82,-97.37 766.53,-99.9 776.15,-104.34 776.82,-97.37"/>
</a>
</g>
<text xml:space="preserve" text-anchor="start" x="817" y="-131.5" font-family="Helvetica,sans-Serif" font-size="10.00" fill="grey">_ClipRectStack</text>
</g>
<!-- Node32 -->
<g id="Node000032" class="node">
<title>Node32</title>
<g id="a_Node000032"><a xlink:href="structImVector.html" target="_top" xlink:title=" ">
<polygon fill="white" stroke="#666666" points="924,-90.4 782.75,-90.4 782.75,-69.65 924,-69.65 924,-90.4"/>
<text xml:space="preserve" text-anchor="middle" x="853.38" y="-76.9" font-family="Helvetica,sans-Serif" font-size="10.00">ImVector&lt; ImTextureID &gt;</text>
</a>
</g>
</g>
<!-- Node32&#45;&gt;Node12 -->
<g id="edge51_Node000012_Node000032" class="edge">
<title>Node32&#45;&gt;Node12</title>
<g id="a_edge51_Node000012_Node000032"><a xlink:title=" ">
<path fill="none" stroke="#9a32cd" stroke-dasharray="5,2" d="M935.86,-70.62C970.15,-70.38 1009.2,-75.27 1040.25,-93.28 1096.29,-125.79 1127.33,-203.64 1137.16,-232.24"/>
<polygon fill="#9a32cd" stroke="#9a32cd" points="935.87,-67.12 925.95,-70.85 936.03,-74.12 935.87,-67.12"/>
</a>
</g>
<text xml:space="preserve" text-anchor="start" x="952.5" y="-99.53" font-family="Helvetica,sans-Serif" font-size="10.00" fill="grey">_TextureIdStack</text>
</g>
<!-- Node33 -->
<g id="Node000033" class="node">
<title>Node33</title>
<g id="a_Node000033"><a xlink:href="structImVector.html" target="_top" xlink:title=" ">
<polygon fill="white" stroke="#666666" points="907.5,-276.4 799.25,-276.4 799.25,-255.65 907.5,-255.65 907.5,-276.4"/>
<text xml:space="preserve" text-anchor="middle" x="853.38" y="-262.9" font-family="Helvetica,sans-Serif" font-size="10.00">ImVector&lt; ImU8 &gt;</text>
</a>
</g>
</g>
<!-- Node33&#45;&gt;Node12 -->
<g id="edge52_Node000012_Node000033" class="edge">
<title>Node33&#45;&gt;Node12</title>
<g id="a_edge52_Node000012_Node000033"><a xlink:title=" ">
<path fill="none" stroke="#9a32cd" stroke-dasharray="5,2" d="M919.08,-260.83C976.79,-256.19 1059.1,-249.58 1105.43,-245.86"/>
<polygon fill="#9a32cd" stroke="#9a32cd" points="919.08,-257.32 909.39,-261.61 919.64,-264.3 919.08,-257.32"/>
</a>
</g>
<text xml:space="preserve" text-anchor="start" x="945" y="-264.84" font-family="Helvetica,sans-Serif" font-size="10.00" fill="grey">_CallbacksDataBuf</text>
</g>
</g>
</svg>
