<?xml version="1.0" encoding="UTF-8" standalone="no"?>
<!DOCTYPE svg PUBLIC "-//W3C//DTD SVG 1.1//EN"
 "http://www.w3.org/Graphics/SVG/1.1/DTD/svg11.dtd">
<!-- Generated by graphviz version 13.0.0 (0)
 -->
<!-- Title: tinygltf::Camera Pages: 1 -->
<svg width="387pt" height="180pt"
 viewBox="0.00 0.00 387.00 180.00" xmlns="http://www.w3.org/2000/svg" xmlns:xlink="http://www.w3.org/1999/xlink">
<g id="graph0" class="graph" transform="scale(1 1) rotate(0) translate(4 175.75)">
<title>tinygltf::Camera</title>
<!-- Node1 -->
<g id="Node000001" class="node">
<title>Node1</title>
<g id="a_Node000001"><a xlink:title=" ">
<polygon fill="#999999" stroke="#666666" points="174.3,-20.75 79.55,-20.75 79.55,0 174.3,0 174.3,-20.75"/>
<text xml:space="preserve" text-anchor="middle" x="126.92" y="-7.25" font-family="Helvetica,sans-Serif" font-size="10.00">tinygltf::Camera</text>
</a>
</g>
</g>
<!-- Node2 -->
<g id="Node000002" class="node">
<title>Node2</title>
<g id="a_Node000002"><a xlink:href="structtinygltf_1_1PerspectiveCamera.html" target="_top" xlink:title=" ">
<polygon fill="white" stroke="#666666" points="202.8,-96.25 51.05,-96.25 51.05,-75.5 202.8,-75.5 202.8,-96.25"/>
<text xml:space="preserve" text-anchor="middle" x="126.92" y="-82.75" font-family="Helvetica,sans-Serif" font-size="10.00">tinygltf::PerspectiveCamera</text>
</a>
</g>
</g>
<!-- Node2&#45;&gt;Node1 -->
<g id="edge1_Node000001_Node000002" class="edge">
<title>Node2&#45;&gt;Node1</title>
<g id="a_edge1_Node000001_Node000002"><a xlink:title=" ">
<path fill="none" stroke="#9a32cd" stroke-dasharray="5,2" d="M126.92,-63.76C126.92,-49.76 126.92,-32.05 126.92,-21.22"/>
<polygon fill="#9a32cd" stroke="#9a32cd" points="123.42,-63.75 126.92,-73.75 130.42,-63.75 123.42,-63.75"/>
</a>
</g>
<text xml:space="preserve" text-anchor="start" x="129.92" y="-45" font-family="Helvetica,sans-Serif" font-size="10.00" fill="grey">perspective</text>
</g>
<!-- Node3 -->
<g id="Node000003" class="node">
<title>Node3</title>
<g id="a_Node000003"><a xlink:href="classtinygltf_1_1Value.html" target="_top" xlink:title=" ">
<polygon fill="white" stroke="#666666" points="168.67,-171.75 85.17,-171.75 85.17,-151 168.67,-151 168.67,-171.75"/>
<text xml:space="preserve" text-anchor="middle" x="126.92" y="-158.25" font-family="Helvetica,sans-Serif" font-size="10.00">tinygltf::Value</text>
</a>
</g>
</g>
<!-- Node3&#45;&gt;Node1 -->
<g id="edge5_Node000001_Node000003" class="edge">
<title>Node3&#45;&gt;Node1</title>
<g id="a_edge5_Node000001_Node000003"><a xlink:title=" ">
<path fill="none" stroke="#9a32cd" stroke-dasharray="5,2" d="M74.74,-146.79C49.03,-137.18 20.35,-121.39 5.17,-96.25 -17.33,-58.97 42.94,-33.92 86.5,-21.2"/>
<polygon fill="#9a32cd" stroke="#9a32cd" points="73.5,-150.07 84.1,-150.05 75.8,-143.46 73.5,-150.07"/>
</a>
</g>
<text xml:space="preserve" text-anchor="start" x="8.17" y="-82.75" font-family="Helvetica,sans-Serif" font-size="10.00" fill="grey">extras</text>
</g>
<!-- Node3&#45;&gt;Node2 -->
<g id="edge2_Node000002_Node000003" class="edge">
<title>Node3&#45;&gt;Node2</title>
<g id="a_edge2_Node000002_Node000003"><a xlink:title=" ">
<path fill="none" stroke="#9a32cd" stroke-dasharray="5,2" d="M126.92,-139.26C126.92,-125.26 126.92,-107.55 126.92,-96.72"/>
<polygon fill="#9a32cd" stroke="#9a32cd" points="123.42,-139.25 126.92,-149.25 130.42,-139.25 123.42,-139.25"/>
</a>
</g>
<text xml:space="preserve" text-anchor="start" x="129.92" y="-120.5" font-family="Helvetica,sans-Serif" font-size="10.00" fill="grey">extras</text>
</g>
<!-- Node4 -->
<g id="Node000004" class="node">
<title>Node4</title>
<g id="a_Node000004"><a xlink:href="structtinygltf_1_1OrthographicCamera.html" target="_top" xlink:title=" ">
<polygon fill="white" stroke="#666666" points="378.8,-96.25 221.05,-96.25 221.05,-75.5 378.8,-75.5 378.8,-96.25"/>
<text xml:space="preserve" text-anchor="middle" x="299.92" y="-82.75" font-family="Helvetica,sans-Serif" font-size="10.00">tinygltf::OrthographicCamera</text>
</a>
</g>
</g>
<!-- Node3&#45;&gt;Node4 -->
<g id="edge4_Node000004_Node000003" class="edge">
<title>Node3&#45;&gt;Node4</title>
<g id="a_edge4_Node000004_Node000003"><a xlink:title=" ">
<path fill="none" stroke="#9a32cd" stroke-dasharray="5,2" d="M160.33,-146.18C194.58,-131.63 246.95,-109.38 276.85,-96.68"/>
<polygon fill="#9a32cd" stroke="#9a32cd" points="159.12,-142.89 151.29,-150.02 161.86,-149.33 159.12,-142.89"/>
</a>
</g>
<text xml:space="preserve" text-anchor="start" x="237.01" y="-120.5" font-family="Helvetica,sans-Serif" font-size="10.00" fill="grey">extras</text>
</g>
<!-- Node4&#45;&gt;Node1 -->
<g id="edge3_Node000001_Node000004" class="edge">
<title>Node4&#45;&gt;Node1</title>
<g id="a_edge3_Node000001_Node000004"><a xlink:title=" ">
<path fill="none" stroke="#9a32cd" stroke-dasharray="5,2" d="M267.39,-70.49C246.46,-61.29 218.65,-49.18 193.92,-38.75 179.8,-32.79 163.92,-26.3 151.17,-21.13"/>
<polygon fill="#9a32cd" stroke="#9a32cd" points="265.7,-73.57 276.27,-74.4 268.52,-67.17 265.7,-73.57"/>
</a>
</g>
<text xml:space="preserve" text-anchor="start" x="237.81" y="-45" font-family="Helvetica,sans-Serif" font-size="10.00" fill="grey">orthographic</text>
</g>
</g>
</svg>
