<?xml version="1.0" encoding="UTF-8" standalone="no"?>
<!DOCTYPE svg PUBLIC "-//W3C//DTD SVG 1.1//EN"
 "http://www.w3.org/Graphics/SVG/1.1/DTD/svg11.dtd">
<!-- Generated by graphviz version 13.0.0 (0)
 -->
<!-- Title: ImGuiStorage Pages: 1 -->
<svg width="175pt" height="180pt"
 viewBox="0.00 0.00 175.00 180.00" xmlns="http://www.w3.org/2000/svg" xmlns:xlink="http://www.w3.org/1999/xlink">
<g id="graph0" class="graph" transform="scale(1 1) rotate(0) translate(4 175.75)">
<title>ImGuiStorage</title>
<!-- Node1 -->
<g id="Node000001" class="node">
<title>Node1</title>
<g id="a_Node000001"><a xlink:title=" ">
<polygon fill="#999999" stroke="#666666" points="124.75,-20.75 42,-20.75 42,0 124.75,0 124.75,-20.75"/>
<text xml:space="preserve" text-anchor="middle" x="83.38" y="-7.25" font-family="Helvetica,sans-Serif" font-size="10.00">ImGuiStorage</text>
</a>
</g>
</g>
<!-- Node2 -->
<g id="Node000002" class="node">
<title>Node2</title>
<g id="a_Node000002"><a xlink:href="structImVector.html" target="_top" xlink:title=" ">
<polygon fill="white" stroke="#666666" points="166.75,-96.25 0,-96.25 0,-75.5 166.75,-75.5 166.75,-96.25"/>
<text xml:space="preserve" text-anchor="middle" x="83.38" y="-82.75" font-family="Helvetica,sans-Serif" font-size="10.00">ImVector&lt; ImGuiStoragePair &gt;</text>
</a>
</g>
</g>
<!-- Node2&#45;&gt;Node1 -->
<g id="edge1_Node000001_Node000002" class="edge">
<title>Node2&#45;&gt;Node1</title>
<g id="a_edge1_Node000001_Node000002"><a xlink:title=" ">
<path fill="none" stroke="#9a32cd" stroke-dasharray="5,2" d="M83.38,-63.76C83.38,-49.76 83.38,-32.05 83.38,-21.22"/>
<polygon fill="#9a32cd" stroke="#9a32cd" points="79.88,-63.75 83.38,-73.75 86.88,-63.75 79.88,-63.75"/>
</a>
</g>
<text xml:space="preserve" text-anchor="start" x="86.38" y="-45" font-family="Helvetica,sans-Serif" font-size="10.00" fill="grey">Data</text>
</g>
<!-- Node3 -->
<g id="Node000003" class="node">
<title>Node3</title>
<g id="a_Node000003"><a xlink:href="structImGuiStoragePair.html" target="_top" xlink:title=" ">
<polygon fill="white" stroke="#666666" points="133.75,-171.75 33,-171.75 33,-151 133.75,-151 133.75,-171.75"/>
<text xml:space="preserve" text-anchor="middle" x="83.38" y="-158.25" font-family="Helvetica,sans-Serif" font-size="10.00">ImGuiStoragePair</text>
</a>
</g>
</g>
<!-- Node3&#45;&gt;Node2 -->
<g id="edge2_Node000002_Node000003" class="edge">
<title>Node3&#45;&gt;Node2</title>
<g id="a_edge2_Node000002_Node000003"><a xlink:title=" ">
<path fill="none" stroke="#9a32cd" stroke-dasharray="5,2" d="M83.38,-139.26C83.38,-125.26 83.38,-107.55 83.38,-96.72"/>
<polygon fill="#9a32cd" stroke="#9a32cd" points="79.88,-139.25 83.38,-149.25 86.88,-139.25 79.88,-139.25"/>
</a>
</g>
<text xml:space="preserve" text-anchor="start" x="86.38" y="-120.5" font-family="Helvetica,sans-Serif" font-size="10.00" fill="grey">Data</text>
</g>
</g>
</svg>
