<?xml version="1.0" encoding="UTF-8" standalone="no"?>
<!DOCTYPE svg PUBLIC "-//W3C//DTD SVG 1.1//EN"
 "http://www.w3.org/Graphics/SVG/1.1/DTD/svg11.dtd">
<!-- Generated by graphviz version 13.0.0 (0)
 -->
<!-- Title: tinygltf::Light Pages: 1 -->
<svg width="191pt" height="180pt"
 viewBox="0.00 0.00 191.00 180.00" xmlns="http://www.w3.org/2000/svg" xmlns:xlink="http://www.w3.org/1999/xlink">
<g id="graph0" class="graph" transform="scale(1 1) rotate(0) translate(4 175.75)">
<title>tinygltf::Light</title>
<!-- Node1 -->
<g id="Node000001" class="node">
<title>Node1</title>
<g id="a_Node000001"><a xlink:title=" ">
<polygon fill="#999999" stroke="#666666" points="100,-20.75 19.5,-20.75 19.5,0 100,0 100,-20.75"/>
<text xml:space="preserve" text-anchor="middle" x="59.75" y="-7.25" font-family="Helvetica,sans-Serif" font-size="10.00">tinygltf::Light</text>
</a>
</g>
</g>
<!-- Node2 -->
<g id="Node000002" class="node">
<title>Node2</title>
<g id="a_Node000002"><a xlink:href="structtinygltf_1_1SpotLight.html" target="_top" xlink:title=" ">
<polygon fill="white" stroke="#666666" points="182.88,-96.25 80.62,-96.25 80.62,-75.5 182.88,-75.5 182.88,-96.25"/>
<text xml:space="preserve" text-anchor="middle" x="131.75" y="-82.75" font-family="Helvetica,sans-Serif" font-size="10.00">tinygltf::SpotLight</text>
</a>
</g>
</g>
<!-- Node2&#45;&gt;Node1 -->
<g id="edge1_Node000001_Node000002" class="edge">
<title>Node2&#45;&gt;Node1</title>
<g id="a_edge1_Node000001_Node000002"><a xlink:title=" ">
<path fill="none" stroke="#9a32cd" stroke-dasharray="5,2" d="M114.35,-67.11C100.23,-52.7 80.87,-32.93 69.39,-21.22"/>
<polygon fill="#9a32cd" stroke="#9a32cd" points="111.78,-69.49 121.28,-74.18 116.78,-64.59 111.78,-69.49"/>
</a>
</g>
<text xml:space="preserve" text-anchor="start" x="107.32" y="-45" font-family="Helvetica,sans-Serif" font-size="10.00" fill="grey">spot</text>
</g>
<!-- Node3 -->
<g id="Node000003" class="node">
<title>Node3</title>
<g id="a_Node000003"><a xlink:href="classtinygltf_1_1Value.html" target="_top" xlink:title=" ">
<polygon fill="white" stroke="#666666" points="83.5,-171.75 0,-171.75 0,-151 83.5,-151 83.5,-171.75"/>
<text xml:space="preserve" text-anchor="middle" x="41.75" y="-158.25" font-family="Helvetica,sans-Serif" font-size="10.00">tinygltf::Value</text>
</a>
</g>
</g>
<!-- Node3&#45;&gt;Node1 -->
<g id="edge3_Node000001_Node000003" class="edge">
<title>Node3&#45;&gt;Node1</title>
<g id="a_edge3_Node000001_Node000003"><a xlink:title=" ">
<path fill="none" stroke="#9a32cd" stroke-dasharray="5,2" d="M37.03,-139.34C33.88,-122.06 30.99,-97.03 35,-75.5 38.76,-55.32 48.64,-33.31 54.72,-21.04"/>
<polygon fill="#9a32cd" stroke="#9a32cd" points="33.6,-140.03 39.02,-149.13 40.46,-138.63 33.6,-140.03"/>
</a>
</g>
<text xml:space="preserve" text-anchor="start" x="38" y="-82.75" font-family="Helvetica,sans-Serif" font-size="10.00" fill="grey">extras</text>
</g>
<!-- Node3&#45;&gt;Node2 -->
<g id="edge2_Node000002_Node000003" class="edge">
<title>Node3&#45;&gt;Node2</title>
<g id="a_edge2_Node000002_Node000003"><a xlink:title=" ">
<path fill="none" stroke="#9a32cd" stroke-dasharray="5,2" d="M62.02,-143.82C79.77,-129.33 104.95,-108.76 119.69,-96.72"/>
<polygon fill="#9a32cd" stroke="#9a32cd" points="60.22,-140.77 54.69,-149.81 64.65,-146.19 60.22,-140.77"/>
</a>
</g>
<text xml:space="preserve" text-anchor="start" x="100.46" y="-120.5" font-family="Helvetica,sans-Serif" font-size="10.00" fill="grey">extras</text>
</g>
</g>
</svg>
