<?xml version="1.0" encoding="UTF-8" standalone="no"?>
<!DOCTYPE svg PUBLIC "-//W3C//DTD SVG 1.1//EN"
 "http://www.w3.org/Graphics/SVG/1.1/DTD/svg11.dtd">
<!-- Generated by graphviz version 13.0.0 (0)
 -->
<!-- Title: ImGuiGroupData Pages: 1 -->
<svg width="289pt" height="155pt"
 viewBox="0.00 0.00 289.00 155.00" xmlns="http://www.w3.org/2000/svg" xmlns:xlink="http://www.w3.org/1999/xlink">
<g id="graph0" class="graph" transform="scale(1 1) rotate(0) translate(4 150.5)">
<title>ImGuiGroupData</title>
<!-- Node1 -->
<g id="Node000001" class="node">
<title>Node1</title>
<g id="a_Node000001"><a xlink:title=" ">
<polygon fill="#999999" stroke="#666666" points="151.88,-20.75 54.12,-20.75 54.12,0 151.88,0 151.88,-20.75"/>
<text xml:space="preserve" text-anchor="middle" x="103" y="-7.25" font-family="Helvetica,sans-Serif" font-size="10.00">ImGuiGroupData</text>
</a>
</g>
</g>
<!-- Node2 -->
<g id="Node000002" class="node">
<title>Node2</title>
<g id="a_Node000002"><a xlink:href="structImVec2.html" target="_top" xlink:title=" ">
<polygon fill="white" stroke="#666666" points="52,-146.5 0,-146.5 0,-125.75 52,-125.75 52,-146.5"/>
<text xml:space="preserve" text-anchor="middle" x="26" y="-133" font-family="Helvetica,sans-Serif" font-size="10.00">ImVec2</text>
</a>
</g>
</g>
<!-- Node2&#45;&gt;Node1 -->
<g id="edge1_Node000001_Node000002" class="edge">
<title>Node2&#45;&gt;Node1</title>
<g id="a_edge1_Node000001_Node000002"><a xlink:title=" ">
<path fill="none" stroke="#9a32cd" stroke-dasharray="5,2" d="M19.9,-114.36C15.04,-93.3 11.36,-60.76 27,-38.75 33.5,-29.6 43.36,-23.5 53.84,-19.43"/>
<polygon fill="#9a32cd" stroke="#9a32cd" points="16.45,-115.02 22.37,-123.81 23.22,-113.25 16.45,-115.02"/>
</a>
</g>
<text xml:space="preserve" text-anchor="start" x="30" y="-95.25" font-family="Helvetica,sans-Serif" font-size="10.00" fill="grey">BackupCurrLineSize</text>
<text xml:space="preserve" text-anchor="start" x="30" y="-78.5" font-family="Helvetica,sans-Serif" font-size="10.00" fill="grey">BackupCursorMaxPos</text>
<text xml:space="preserve" text-anchor="start" x="30" y="-61.75" font-family="Helvetica,sans-Serif" font-size="10.00" fill="grey">BackupCursorPos</text>
<text xml:space="preserve" text-anchor="start" x="30" y="-45" font-family="Helvetica,sans-Serif" font-size="10.00" fill="grey">BackupCursorPosPrevLine</text>
</g>
<!-- Node3 -->
<g id="Node000003" class="node">
<title>Node3</title>
<g id="a_Node000003"><a xlink:href="structImVec1.html" target="_top" xlink:title=" ">
<polygon fill="white" stroke="#666666" points="207,-146.5 155,-146.5 155,-125.75 207,-125.75 207,-146.5"/>
<text xml:space="preserve" text-anchor="middle" x="181" y="-133" font-family="Helvetica,sans-Serif" font-size="10.00">ImVec1</text>
</a>
</g>
</g>
<!-- Node3&#45;&gt;Node1 -->
<g id="edge2_Node000001_Node000003" class="edge">
<title>Node3&#45;&gt;Node1</title>
<g id="a_edge2_Node000001_Node000003"><a xlink:title=" ">
<path fill="none" stroke="#9a32cd" stroke-dasharray="5,2" d="M181.26,-114.27C180.46,-93.11 176.21,-60.46 159,-38.75 152.88,-31.03 144.04,-25.34 135.18,-21.21"/>
<polygon fill="#9a32cd" stroke="#9a32cd" points="177.75,-114.03 181.37,-123.98 184.75,-113.94 177.75,-114.03"/>
</a>
</g>
<text xml:space="preserve" text-anchor="start" x="183.85" y="-78.5" font-family="Helvetica,sans-Serif" font-size="10.00" fill="grey">BackupGroupOffset</text>
<text xml:space="preserve" text-anchor="start" x="183.85" y="-61.75" font-family="Helvetica,sans-Serif" font-size="10.00" fill="grey">BackupIndent</text>
</g>
</g>
</svg>
