<?xml version="1.0" encoding="UTF-8" standalone="no"?>
<!DOCTYPE svg PUBLIC "-//W3C//DTD SVG 1.1//EN"
 "http://www.w3.org/Graphics/SVG/1.1/DTD/svg11.dtd">
<!-- Generated by graphviz version 13.0.0 (0)
 -->
<!-- Title: ExampleAppConsole Pages: 1 -->
<svg width="414pt" height="298pt"
 viewBox="0.00 0.00 414.00 298.00" xmlns="http://www.w3.org/2000/svg" xmlns:xlink="http://www.w3.org/1999/xlink">
<g id="graph0" class="graph" transform="scale(1 1) rotate(0) translate(4 293.5)">
<title>ExampleAppConsole</title>
<!-- Node1 -->
<g id="Node000001" class="node">
<title>Node1</title>
<g id="a_Node000001"><a xlink:title=" ">
<polygon fill="#999999" stroke="#666666" points="257.88,-20.75 141.38,-20.75 141.38,0 257.88,0 257.88,-20.75"/>
<text xml:space="preserve" text-anchor="middle" x="199.62" y="-7.25" font-family="Helvetica,sans-Serif" font-size="10.00">ExampleAppConsole</text>
</a>
</g>
</g>
<!-- Node2 -->
<g id="Node000002" class="node">
<title>Node2</title>
<g id="a_Node000002"><a xlink:href="structImVector.html" target="_top" xlink:title=" ">
<polygon fill="white" stroke="#666666" points="111.25,-113 0,-113 0,-92.25 111.25,-92.25 111.25,-113"/>
<text xml:space="preserve" text-anchor="middle" x="55.62" y="-99.5" font-family="Helvetica,sans-Serif" font-size="10.00">ImVector&lt; char * &gt;</text>
</a>
</g>
</g>
<!-- Node2&#45;&gt;Node1 -->
<g id="edge1_Node000001_Node000002" class="edge">
<title>Node2&#45;&gt;Node1</title>
<g id="a_edge1_Node000001_Node000002"><a xlink:title=" ">
<path fill="none" stroke="#9a32cd" stroke-dasharray="5,2" d="M80.15,-85.79C100.07,-72.98 128.94,-54.54 154.38,-38.75 163.89,-32.84 174.62,-26.35 183.23,-21.17"/>
<polygon fill="#9a32cd" stroke="#9a32cd" points="78.4,-82.75 71.89,-91.11 82.19,-88.64 78.4,-82.75"/>
</a>
</g>
<text xml:space="preserve" text-anchor="start" x="157.38" y="-61.75" font-family="Helvetica,sans-Serif" font-size="10.00" fill="grey">History</text>
<text xml:space="preserve" text-anchor="start" x="157.38" y="-45" font-family="Helvetica,sans-Serif" font-size="10.00" fill="grey">Items</text>
</g>
<!-- Node3 -->
<g id="Node000003" class="node">
<title>Node3</title>
<g id="a_Node000003"><a xlink:href="structImVector.html" target="_top" xlink:title=" ">
<polygon fill="white" stroke="#666666" points="269.88,-113 129.38,-113 129.38,-92.25 269.88,-92.25 269.88,-113"/>
<text xml:space="preserve" text-anchor="middle" x="199.62" y="-99.5" font-family="Helvetica,sans-Serif" font-size="10.00">ImVector&lt; const char * &gt;</text>
</a>
</g>
</g>
<!-- Node3&#45;&gt;Node1 -->
<g id="edge2_Node000001_Node000003" class="edge">
<title>Node3&#45;&gt;Node1</title>
<g id="a_edge2_Node000001_Node000003"><a xlink:title=" ">
<path fill="none" stroke="#9a32cd" stroke-dasharray="5,2" d="M199.62,-80.52C199.62,-61.83 199.62,-35.4 199.62,-21.24"/>
<polygon fill="#9a32cd" stroke="#9a32cd" points="196.13,-80.45 199.63,-90.45 203.13,-80.45 196.13,-80.45"/>
</a>
</g>
<text xml:space="preserve" text-anchor="start" x="202.62" y="-53.38" font-family="Helvetica,sans-Serif" font-size="10.00" fill="grey">Commands</text>
</g>
<!-- Node4 -->
<g id="Node000004" class="node">
<title>Node4</title>
<g id="a_Node000004"><a xlink:href="structImGuiTextFilter.html" target="_top" xlink:title=" ">
<polygon fill="white" stroke="#666666" points="377.75,-113 287.5,-113 287.5,-92.25 377.75,-92.25 377.75,-113"/>
<text xml:space="preserve" text-anchor="middle" x="332.62" y="-99.5" font-family="Helvetica,sans-Serif" font-size="10.00">ImGuiTextFilter</text>
</a>
</g>
</g>
<!-- Node4&#45;&gt;Node1 -->
<g id="edge3_Node000001_Node000004" class="edge">
<title>Node4&#45;&gt;Node1</title>
<g id="a_edge3_Node000001_Node000004"><a xlink:title=" ">
<path fill="none" stroke="#9a32cd" stroke-dasharray="5,2" d="M316.99,-83.78C304.23,-70.06 285.19,-51.39 265.62,-38.75 254.58,-31.62 241.36,-25.7 229.67,-21.21"/>
<polygon fill="#9a32cd" stroke="#9a32cd" points="314.07,-85.78 323.38,-90.84 319.26,-81.08 314.07,-85.78"/>
</a>
</g>
<text xml:space="preserve" text-anchor="start" x="310.32" y="-53.38" font-family="Helvetica,sans-Serif" font-size="10.00" fill="grey">Filter</text>
</g>
<!-- Node5 -->
<g id="Node000005" class="node">
<title>Node5</title>
<g id="a_Node000005"><a xlink:href="structImVector.html" target="_top" xlink:title=" ">
<polygon fill="white" stroke="#666666" points="405.12,-201.25 260.12,-201.25 260.12,-167.75 405.12,-167.75 405.12,-201.25"/>
<text xml:space="preserve" text-anchor="start" x="268.12" y="-187.75" font-family="Helvetica,sans-Serif" font-size="10.00">ImVector&lt; ImGuiTextFilter</text>
<text xml:space="preserve" text-anchor="middle" x="332.62" y="-175" font-family="Helvetica,sans-Serif" font-size="10.00">::ImGuiTextRange &gt;</text>
</a>
</g>
</g>
<!-- Node5&#45;&gt;Node4 -->
<g id="edge4_Node000004_Node000005" class="edge">
<title>Node5&#45;&gt;Node4</title>
<g id="a_edge4_Node000004_Node000005"><a xlink:title=" ">
<path fill="none" stroke="#9a32cd" stroke-dasharray="5,2" d="M332.62,-156.15C332.62,-141.28 332.62,-123.82 332.62,-113.24"/>
<polygon fill="#9a32cd" stroke="#9a32cd" points="329.13,-155.82 332.63,-165.82 336.13,-155.82 329.13,-155.82"/>
</a>
</g>
<text xml:space="preserve" text-anchor="start" x="335.62" y="-137.25" font-family="Helvetica,sans-Serif" font-size="10.00" fill="grey">Filters</text>
</g>
<!-- Node6 -->
<g id="Node000006" class="node">
<title>Node6</title>
<g id="a_Node000006"><a xlink:href="structImGuiTextFilter_1_1ImGuiTextRange.html" target="_top" xlink:title=" ">
<polygon fill="white" stroke="#666666" points="405.5,-289.5 259.75,-289.5 259.75,-256 405.5,-256 405.5,-289.5"/>
<text xml:space="preserve" text-anchor="start" x="267.75" y="-276" font-family="Helvetica,sans-Serif" font-size="10.00">ImGuiTextFilter::ImGuiText</text>
<text xml:space="preserve" text-anchor="middle" x="332.62" y="-263.25" font-family="Helvetica,sans-Serif" font-size="10.00">Range</text>
</a>
</g>
</g>
<!-- Node6&#45;&gt;Node5 -->
<g id="edge5_Node000005_Node000006" class="edge">
<title>Node6&#45;&gt;Node5</title>
<g id="a_edge5_Node000005_Node000006"><a xlink:title=" ">
<path fill="none" stroke="#9a32cd" stroke-dasharray="5,2" d="M332.62,-244.05C332.62,-230.05 332.62,-213.56 332.62,-201.65"/>
<polygon fill="#9a32cd" stroke="#9a32cd" points="329.13,-244.01 332.63,-254.01 336.13,-244.01 329.13,-244.01"/>
</a>
</g>
<text xml:space="preserve" text-anchor="start" x="335.62" y="-225.5" font-family="Helvetica,sans-Serif" font-size="10.00" fill="grey">Data</text>
</g>
</g>
</svg>
