<?xml version="1.0" encoding="UTF-8" standalone="no"?>
<!DOCTYPE svg PUBLIC "-//W3C//DTD SVG 1.1//EN"
 "http://www.w3.org/Graphics/SVG/1.1/DTD/svg11.dtd">
<!-- Generated by graphviz version 13.0.0 (0)
 -->
<!-- Title: Swapchain.cpp Pages: 1 -->
<svg width="725pt" height="98pt"
 viewBox="0.00 0.00 725.00 98.00" xmlns="http://www.w3.org/2000/svg" xmlns:xlink="http://www.w3.org/1999/xlink">
<g id="graph0" class="graph" transform="scale(1 1) rotate(0) translate(4 94.25)">
<title>Swapchain.cpp</title>
<!-- Node1 -->
<g id="Node000001" class="node">
<title>Node1</title>
<g id="a_Node000001"><a xlink:title=" ">
<polygon fill="#999999" stroke="#666666" points="397.5,-90.25 308.75,-90.25 308.75,-69.5 397.5,-69.5 397.5,-90.25"/>
<text xml:space="preserve" text-anchor="middle" x="353.12" y="-76.75" font-family="Helvetica,sans-Serif" font-size="10.00">Swapchain.cpp</text>
</a>
</g>
</g>
<!-- Node2 -->
<g id="Node000002" class="node">
<title>Node2</title>
<g id="a_Node000002"><a xlink:title=" ">
<polygon fill="#e0e0e0" stroke="#999999" points="150.25,-27.12 0,-27.12 0,-6.38 150.25,-6.38 150.25,-27.12"/>
<text xml:space="preserve" text-anchor="middle" x="75.12" y="-13.62" font-family="Helvetica,sans-Serif" font-size="10.00">../include/Core/Swapchain.h</text>
</a>
</g>
</g>
<!-- Node1&#45;&gt;Node2 -->
<g id="edge1_Node000001_Node000002" class="edge">
<title>Node1&#45;&gt;Node2</title>
<g id="a_edge1_Node000001_Node000002"><a xlink:title=" ">
<path fill="none" stroke="#63b8ff" d="M308.46,-69.05C260.13,-58.43 182.99,-41.47 130.75,-29.98"/>
<polygon fill="#63b8ff" stroke="#63b8ff" points="131.68,-26.6 121.16,-27.87 130.17,-33.44 131.68,-26.6"/>
</a>
</g>
</g>
<!-- Node3 -->
<g id="Node000003" class="node">
<title>Node3</title>
<g id="a_Node000003"><a xlink:title=" ">
<polygon fill="#e0e0e0" stroke="#999999" points="279.75,-33.5 168.5,-33.5 168.5,0 279.75,0 279.75,-33.5"/>
<text xml:space="preserve" text-anchor="start" x="176.5" y="-20" font-family="Helvetica,sans-Serif" font-size="10.00">../include/Managers</text>
<text xml:space="preserve" text-anchor="middle" x="224.12" y="-7.25" font-family="Helvetica,sans-Serif" font-size="10.00">/Image.h</text>
</a>
</g>
</g>
<!-- Node1&#45;&gt;Node3 -->
<g id="edge2_Node000001_Node000003" class="edge">
<title>Node1&#45;&gt;Node3</title>
<g id="a_edge2_Node000001_Node000003"><a xlink:title=" ">
<path fill="none" stroke="#63b8ff" d="M332.4,-69.05C315.26,-60.93 290.32,-49.11 268.69,-38.87"/>
<polygon fill="#63b8ff" stroke="#63b8ff" points="270.29,-35.75 259.76,-34.63 267.29,-42.08 270.29,-35.75"/>
</a>
</g>
</g>
<!-- Node4 -->
<g id="Node000004" class="node">
<title>Node4</title>
<g id="a_Node000004"><a xlink:title=" ">
<polygon fill="#e0e0e0" stroke="#999999" points="408.75,-33.5 297.5,-33.5 297.5,0 408.75,0 408.75,-33.5"/>
<text xml:space="preserve" text-anchor="start" x="305.5" y="-20" font-family="Helvetica,sans-Serif" font-size="10.00">../include/Managers</text>
<text xml:space="preserve" text-anchor="middle" x="353.12" y="-7.25" font-family="Helvetica,sans-Serif" font-size="10.00">/ShaderLoader.h</text>
</a>
</g>
</g>
<!-- Node1&#45;&gt;Node4 -->
<g id="edge3_Node000001_Node000004" class="edge">
<title>Node1&#45;&gt;Node4</title>
<g id="a_edge3_Node000001_Node000004"><a xlink:title=" ">
<path fill="none" stroke="#63b8ff" d="M353.12,-69.05C353.12,-62.63 353.12,-53.9 353.12,-45.45"/>
<polygon fill="#63b8ff" stroke="#63b8ff" points="356.63,-45.5 353.13,-35.5 349.63,-45.5 356.63,-45.5"/>
</a>
</g>
</g>
<!-- Node5 -->
<g id="Node000005" class="node">
<title>Node5</title>
<g id="a_Node000005"><a xlink:title=" ">
<polygon fill="#e0e0e0" stroke="#999999" points="537.75,-33.5 426.5,-33.5 426.5,0 537.75,0 537.75,-33.5"/>
<text xml:space="preserve" text-anchor="start" x="434.5" y="-20" font-family="Helvetica,sans-Serif" font-size="10.00">../include/Managers</text>
<text xml:space="preserve" text-anchor="middle" x="482.12" y="-7.25" font-family="Helvetica,sans-Serif" font-size="10.00">/BufferManager.h</text>
</a>
</g>
</g>
<!-- Node1&#45;&gt;Node5 -->
<g id="edge4_Node000001_Node000005" class="edge">
<title>Node1&#45;&gt;Node5</title>
<g id="a_edge4_Node000001_Node000005"><a xlink:title=" ">
<path fill="none" stroke="#63b8ff" d="M373.85,-69.05C390.99,-60.93 415.93,-49.11 437.56,-38.87"/>
<polygon fill="#63b8ff" stroke="#63b8ff" points="438.96,-42.08 446.49,-34.63 435.96,-35.75 438.96,-42.08"/>
</a>
</g>
</g>
<!-- Node6 -->
<g id="Node000006" class="node">
<title>Node6</title>
<g id="a_Node000006"><a xlink:title=" ">
<polygon fill="#e0e0e0" stroke="#999999" points="716.5,-27.12 555.75,-27.12 555.75,-6.38 716.5,-6.38 716.5,-27.12"/>
<text xml:space="preserve" text-anchor="middle" x="636.12" y="-13.62" font-family="Helvetica,sans-Serif" font-size="10.00">../include/Utils/MemoryUtils.h</text>
</a>
</g>
</g>
<!-- Node1&#45;&gt;Node6 -->
<g id="edge5_Node000001_Node000006" class="edge">
<title>Node1&#45;&gt;Node6</title>
<g id="a_edge5_Node000001_Node000006"><a xlink:title=" ">
<path fill="none" stroke="#63b8ff" d="M397.97,-69.19C447.15,-58.57 526.17,-41.5 579.57,-29.97"/>
<polygon fill="#63b8ff" stroke="#63b8ff" points="580.04,-33.44 589.08,-27.91 578.56,-26.6 580.04,-33.44"/>
</a>
</g>
</g>
</g>
</svg>
