<?xml version="1.0" encoding="UTF-8" standalone="no"?>
<!DOCTYPE svg PUBLIC "-//W3C//DTD SVG 1.1//EN"
 "http://www.w3.org/Graphics/SVG/1.1/DTD/svg11.dtd">
<!-- Generated by graphviz version 13.0.0 (0)
 -->
<!-- Title: tiny_obj_loader.h Pages: 1 -->
<svg width="172pt" height="86pt"
 viewBox="0.00 0.00 172.00 86.00" xmlns="http://www.w3.org/2000/svg" xmlns:xlink="http://www.w3.org/1999/xlink">
<g id="graph0" class="graph" transform="scale(1 1) rotate(0) translate(4 81.5)">
<title>tiny_obj_loader.h</title>
<!-- Node1 -->
<g id="Node000001" class="node">
<title>Node1</title>
<g id="a_Node000001"><a xlink:title=" ">
<polygon fill="#999999" stroke="#666666" points="127.5,-77.5 28.25,-77.5 28.25,-56.75 127.5,-56.75 127.5,-77.5"/>
<text xml:space="preserve" text-anchor="middle" x="77.88" y="-64" font-family="Helvetica,sans-Serif" font-size="10.00">tiny_obj_loader.h</text>
</a>
</g>
</g>
<!-- Node2 -->
<g id="Node000002" class="node">
<title>Node2</title>
<g id="a_Node000002"><a xlink:title=" ">
<polygon fill="#e0e0e0" stroke="#999999" points="37.75,-20.75 0,-20.75 0,0 37.75,0 37.75,-20.75"/>
<text xml:space="preserve" text-anchor="middle" x="18.88" y="-7.25" font-family="Helvetica,sans-Serif" font-size="10.00">map</text>
</a>
</g>
</g>
<!-- Node1&#45;&gt;Node2 -->
<g id="edge1_Node000001_Node000002" class="edge">
<title>Node1&#45;&gt;Node2</title>
<g id="a_edge1_Node000001_Node000002"><a xlink:title=" ">
<path fill="none" stroke="#63b8ff" d="M67.33,-56.34C59.1,-48.71 47.48,-37.92 37.67,-28.82"/>
<polygon fill="#63b8ff" stroke="#63b8ff" points="40.15,-26.34 30.44,-22.11 35.39,-31.48 40.15,-26.34"/>
</a>
</g>
</g>
<!-- Node3 -->
<g id="Node000003" class="node">
<title>Node3</title>
<g id="a_Node000003"><a xlink:title=" ">
<polygon fill="#e0e0e0" stroke="#999999" points="99.75,-20.75 56,-20.75 56,0 99.75,0 99.75,-20.75"/>
<text xml:space="preserve" text-anchor="middle" x="77.88" y="-7.25" font-family="Helvetica,sans-Serif" font-size="10.00">string</text>
</a>
</g>
</g>
<!-- Node1&#45;&gt;Node3 -->
<g id="edge2_Node000001_Node000003" class="edge">
<title>Node1&#45;&gt;Node3</title>
<g id="a_edge2_Node000001_Node000003"><a xlink:title=" ">
<path fill="none" stroke="#63b8ff" d="M77.88,-56.34C77.88,-49.72 77.88,-40.72 77.88,-32.52"/>
<polygon fill="#63b8ff" stroke="#63b8ff" points="81.38,-32.59 77.88,-22.59 74.38,-32.59 81.38,-32.59"/>
</a>
</g>
</g>
<!-- Node4 -->
<g id="Node000004" class="node">
<title>Node4</title>
<g id="a_Node000004"><a xlink:title=" ">
<polygon fill="#e0e0e0" stroke="#999999" points="164.25,-20.75 117.5,-20.75 117.5,0 164.25,0 164.25,-20.75"/>
<text xml:space="preserve" text-anchor="middle" x="140.88" y="-7.25" font-family="Helvetica,sans-Serif" font-size="10.00">vector</text>
</a>
</g>
</g>
<!-- Node1&#45;&gt;Node4 -->
<g id="edge3_Node000001_Node000004" class="edge">
<title>Node1&#45;&gt;Node4</title>
<g id="a_edge3_Node000001_Node000004"><a xlink:title=" ">
<path fill="none" stroke="#63b8ff" d="M89.14,-56.34C98.01,-48.63 110.59,-37.7 121.12,-28.54"/>
<polygon fill="#63b8ff" stroke="#63b8ff" points="123.31,-31.27 128.57,-22.07 118.72,-25.99 123.31,-31.27"/>
</a>
</g>
</g>
</g>
</svg>
