<?xml version="1.0" encoding="UTF-8" standalone="no"?>
<!DOCTYPE svg PUBLIC "-//W3C//DTD SVG 1.1//EN"
 "http://www.w3.org/Graphics/SVG/1.1/DTD/svg11.dtd">
<!-- Generated by graphviz version 13.0.0 (0)
 -->
<!-- Title: tiny_gltf.h Pages: 1 -->
<svg width="774pt" height="86pt"
 viewBox="0.00 0.00 774.00 86.00" xmlns="http://www.w3.org/2000/svg" xmlns:xlink="http://www.w3.org/1999/xlink">
<g id="graph0" class="graph" transform="scale(1 1) rotate(0) translate(4 81.5)">
<title>tiny_gltf.h</title>
<!-- Node1 -->
<g id="Node000001" class="node">
<title>Node1</title>
<g id="a_Node000001"><a xlink:title=" ">
<polygon fill="#999999" stroke="#666666" points="421.12,-77.5 356.38,-77.5 356.38,-56.75 421.12,-56.75 421.12,-77.5"/>
<text xml:space="preserve" text-anchor="middle" x="388.75" y="-64" font-family="Helvetica,sans-Serif" font-size="10.00">tiny_gltf.h</text>
</a>
</g>
</g>
<!-- Node2 -->
<g id="Node000002" class="node">
<title>Node2</title>
<g id="a_Node000002"><a xlink:title=" ">
<polygon fill="#e0e0e0" stroke="#999999" points="41.5,-20.75 0,-20.75 0,0 41.5,0 41.5,-20.75"/>
<text xml:space="preserve" text-anchor="middle" x="20.75" y="-7.25" font-family="Helvetica,sans-Serif" font-size="10.00">array</text>
</a>
</g>
</g>
<!-- Node1&#45;&gt;Node2 -->
<g id="edge1_Node000001_Node000002" class="edge">
<title>Node1&#45;&gt;Node2</title>
<g id="a_edge1_Node000001_Node000002"><a xlink:title=" ">
<path fill="none" stroke="#63b8ff" d="M356.15,-63.72C297.23,-58.96 168.99,-46.68 53.03,-21.19"/>
<polygon fill="#63b8ff" stroke="#63b8ff" points="53.85,-17.79 43.33,-19.01 52.32,-24.62 53.85,-17.79"/>
</a>
</g>
</g>
<!-- Node3 -->
<g id="Node000003" class="node">
<title>Node3</title>
<g id="a_Node000003"><a xlink:title=" ">
<polygon fill="#e0e0e0" stroke="#999999" points="110.38,-20.75 59.12,-20.75 59.12,0 110.38,0 110.38,-20.75"/>
<text xml:space="preserve" text-anchor="middle" x="84.75" y="-7.25" font-family="Helvetica,sans-Serif" font-size="10.00">cassert</text>
</a>
</g>
</g>
<!-- Node1&#45;&gt;Node3 -->
<g id="edge2_Node000001_Node000003" class="edge">
<title>Node1&#45;&gt;Node3</title>
<g id="a_edge2_Node000001_Node000003"><a xlink:title=" ">
<path fill="none" stroke="#63b8ff" d="M356.26,-61.66C307.49,-54.74 212.26,-40.37 121.69,-21"/>
<polygon fill="#63b8ff" stroke="#63b8ff" points="122.67,-17.63 112.16,-18.93 121.19,-24.47 122.67,-17.63"/>
</a>
</g>
</g>
<!-- Node4 -->
<g id="Node000004" class="node">
<title>Node4</title>
<g id="a_Node000004"><a xlink:title=" ">
<polygon fill="#e0e0e0" stroke="#999999" points="175.12,-20.75 128.38,-20.75 128.38,0 175.12,0 175.12,-20.75"/>
<text xml:space="preserve" text-anchor="middle" x="151.75" y="-7.25" font-family="Helvetica,sans-Serif" font-size="10.00">cmath</text>
</a>
</g>
</g>
<!-- Node1&#45;&gt;Node4 -->
<g id="edge3_Node000001_Node000004" class="edge">
<title>Node1&#45;&gt;Node4</title>
<g id="a_edge3_Node000001_Node000004"><a xlink:title=" ">
<path fill="none" stroke="#63b8ff" d="M355.92,-59.57C317.45,-51.73 251.55,-37.82 186.34,-21.3"/>
<polygon fill="#63b8ff" stroke="#63b8ff" points="187.49,-17.98 176.93,-18.89 185.75,-24.76 187.49,-17.98"/>
</a>
</g>
</g>
<!-- Node5 -->
<g id="Node000005" class="node">
<title>Node5</title>
<g id="a_Node000005"><a xlink:title=" ">
<polygon fill="#e0e0e0" stroke="#999999" points="242.25,-20.75 193.25,-20.75 193.25,0 242.25,0 242.25,-20.75"/>
<text xml:space="preserve" text-anchor="middle" x="217.75" y="-7.25" font-family="Helvetica,sans-Serif" font-size="10.00">cstdint</text>
</a>
</g>
</g>
<!-- Node1&#45;&gt;Node5 -->
<g id="edge4_Node000001_Node000005" class="edge">
<title>Node1&#45;&gt;Node5</title>
<g id="a_edge4_Node000001_Node000005"><a xlink:title=" ">
<path fill="none" stroke="#63b8ff" d="M358.18,-56.34C328.75,-46.91 284.25,-32.67 253.27,-22.75"/>
<polygon fill="#63b8ff" stroke="#63b8ff" points="254.54,-19.48 243.95,-19.76 252.41,-26.15 254.54,-19.48"/>
</a>
</g>
</g>
<!-- Node6 -->
<g id="Node000006" class="node">
<title>Node6</title>
<g id="a_Node000006"><a xlink:title=" ">
<polygon fill="#e0e0e0" stroke="#999999" points="308.88,-20.75 260.62,-20.75 260.62,0 308.88,0 308.88,-20.75"/>
<text xml:space="preserve" text-anchor="middle" x="284.75" y="-7.25" font-family="Helvetica,sans-Serif" font-size="10.00">cstdlib</text>
</a>
</g>
</g>
<!-- Node1&#45;&gt;Node6 -->
<g id="edge5_Node000001_Node000006" class="edge">
<title>Node1&#45;&gt;Node6</title>
<g id="a_edge5_Node000001_Node000006"><a xlink:title=" ">
<path fill="none" stroke="#63b8ff" d="M370.16,-56.34C354.33,-48.01 331.35,-35.91 313.21,-26.36"/>
<polygon fill="#63b8ff" stroke="#63b8ff" points="315,-23.34 304.52,-21.78 311.74,-29.54 315,-23.34"/>
</a>
</g>
</g>
<!-- Node7 -->
<g id="Node000007" class="node">
<title>Node7</title>
<g id="a_Node000007"><a xlink:title=" ">
<polygon fill="#e0e0e0" stroke="#999999" points="376.25,-20.75 327.25,-20.75 327.25,0 376.25,0 376.25,-20.75"/>
<text xml:space="preserve" text-anchor="middle" x="351.75" y="-7.25" font-family="Helvetica,sans-Serif" font-size="10.00">cstring</text>
</a>
</g>
</g>
<!-- Node1&#45;&gt;Node7 -->
<g id="edge6_Node000001_Node000007" class="edge">
<title>Node1&#45;&gt;Node7</title>
<g id="a_edge6_Node000001_Node000007"><a xlink:title=" ">
<path fill="none" stroke="#63b8ff" d="M382.14,-56.34C377.29,-49.17 370.57,-39.23 364.68,-30.51"/>
<polygon fill="#63b8ff" stroke="#63b8ff" points="367.65,-28.66 359.16,-22.33 361.85,-32.58 367.65,-28.66"/>
</a>
</g>
</g>
<!-- Node8 -->
<g id="Node000008" class="node">
<title>Node8</title>
<g id="a_Node000008"><a xlink:title=" ">
<polygon fill="#e0e0e0" stroke="#999999" points="459.12,-20.75 394.38,-20.75 394.38,0 459.12,0 459.12,-20.75"/>
<text xml:space="preserve" text-anchor="middle" x="426.75" y="-7.25" font-family="Helvetica,sans-Serif" font-size="10.00">functional</text>
</a>
</g>
</g>
<!-- Node1&#45;&gt;Node8 -->
<g id="edge7_Node000001_Node000008" class="edge">
<title>Node1&#45;&gt;Node8</title>
<g id="a_edge7_Node000001_Node000008"><a xlink:title=" ">
<path fill="none" stroke="#63b8ff" d="M395.54,-56.34C400.52,-49.17 407.42,-39.23 413.47,-30.51"/>
<polygon fill="#63b8ff" stroke="#63b8ff" points="416.33,-32.53 419.15,-22.32 410.57,-28.54 416.33,-32.53"/>
</a>
</g>
</g>
<!-- Node9 -->
<g id="Node000009" class="node">
<title>Node9</title>
<g id="a_Node000009"><a xlink:title=" ">
<polygon fill="#e0e0e0" stroke="#999999" points="520.62,-20.75 476.88,-20.75 476.88,0 520.62,0 520.62,-20.75"/>
<text xml:space="preserve" text-anchor="middle" x="498.75" y="-7.25" font-family="Helvetica,sans-Serif" font-size="10.00">limits</text>
</a>
</g>
</g>
<!-- Node1&#45;&gt;Node9 -->
<g id="edge8_Node000001_Node000009" class="edge">
<title>Node1&#45;&gt;Node9</title>
<g id="a_edge8_Node000001_Node000009"><a xlink:title=" ">
<path fill="none" stroke="#63b8ff" d="M408.42,-56.34C425.31,-47.93 449.92,-35.68 469.18,-26.09"/>
<polygon fill="#63b8ff" stroke="#63b8ff" points="470.51,-29.34 477.9,-21.75 467.39,-23.08 470.51,-29.34"/>
</a>
</g>
</g>
<!-- Node10 -->
<g id="Node000010" class="node">
<title>Node10</title>
<g id="a_Node000010"><a xlink:title=" ">
<polygon fill="#e0e0e0" stroke="#999999" points="576.62,-20.75 538.88,-20.75 538.88,0 576.62,0 576.62,-20.75"/>
<text xml:space="preserve" text-anchor="middle" x="557.75" y="-7.25" font-family="Helvetica,sans-Serif" font-size="10.00">map</text>
</a>
</g>
</g>
<!-- Node1&#45;&gt;Node10 -->
<g id="edge9_Node000001_Node000010" class="edge">
<title>Node1&#45;&gt;Node10</title>
<g id="a_edge9_Node000001_Node000010"><a xlink:title=" ">
<path fill="none" stroke="#63b8ff" d="M419.59,-56.32C445.94,-47.91 485.14,-35.34 527.62,-21.43"/>
<polygon fill="#63b8ff" stroke="#63b8ff" points="528.63,-24.78 537.04,-18.33 526.45,-18.13 528.63,-24.78"/>
</a>
</g>
</g>
<!-- Node11 -->
<g id="Node000011" class="node">
<title>Node11</title>
<g id="a_Node000011"><a xlink:title=" ">
<polygon fill="#e0e0e0" stroke="#999999" points="638.62,-20.75 594.88,-20.75 594.88,0 638.62,0 638.62,-20.75"/>
<text xml:space="preserve" text-anchor="middle" x="616.75" y="-7.25" font-family="Helvetica,sans-Serif" font-size="10.00">string</text>
</a>
</g>
</g>
<!-- Node1&#45;&gt;Node11 -->
<g id="edge10_Node000001_Node000011" class="edge">
<title>Node1&#45;&gt;Node11</title>
<g id="a_edge10_Node000001_Node000011"><a xlink:title=" ">
<path fill="none" stroke="#63b8ff" d="M421.33,-59.32C458.39,-51.43 520.94,-37.66 583.58,-21.2"/>
<polygon fill="#63b8ff" stroke="#63b8ff" points="584.22,-24.65 592.99,-18.7 582.42,-17.88 584.22,-24.65"/>
</a>
</g>
</g>
<!-- Node12 -->
<g id="Node000012" class="node">
<title>Node12</title>
<g id="a_Node000012"><a xlink:title=" ">
<polygon fill="#e0e0e0" stroke="#999999" points="701,-20.75 656.5,-20.75 656.5,0 701,0 701,-20.75"/>
<text xml:space="preserve" text-anchor="middle" x="678.75" y="-7.25" font-family="Helvetica,sans-Serif" font-size="10.00">utility</text>
</a>
</g>
</g>
<!-- Node1&#45;&gt;Node12 -->
<g id="edge11_Node000001_Node000012" class="edge">
<title>Node1&#45;&gt;Node12</title>
<g id="a_edge11_Node000001_Node000012"><a xlink:title=" ">
<path fill="none" stroke="#63b8ff" d="M421.31,-61.71C468.62,-55.01 559.31,-41.13 645.16,-21.15"/>
<polygon fill="#63b8ff" stroke="#63b8ff" points="645.75,-24.61 654.68,-18.9 644.14,-17.8 645.75,-24.61"/>
</a>
</g>
</g>
<!-- Node13 -->
<g id="Node000013" class="node">
<title>Node13</title>
<g id="a_Node000013"><a xlink:title=" ">
<polygon fill="#e0e0e0" stroke="#999999" points="766.12,-20.75 719.38,-20.75 719.38,0 766.12,0 766.12,-20.75"/>
<text xml:space="preserve" text-anchor="middle" x="742.75" y="-7.25" font-family="Helvetica,sans-Serif" font-size="10.00">vector</text>
</a>
</g>
</g>
<!-- Node1&#45;&gt;Node13 -->
<g id="edge12_Node000001_Node000013" class="edge">
<title>Node1&#45;&gt;Node13</title>
<g id="a_edge12_Node000001_Node000013"><a xlink:title=" ">
<path fill="none" stroke="#63b8ff" d="M421.36,-63C477.77,-57.28 597.37,-43.75 708.03,-20.84"/>
<polygon fill="#63b8ff" stroke="#63b8ff" points="708.51,-24.32 717.57,-18.84 707.07,-17.47 708.51,-24.32"/>
</a>
</g>
</g>
</g>
</svg>
