<?xml version="1.0" encoding="UTF-8" standalone="no"?>
<!DOCTYPE svg PUBLIC "-//W3C//DTD SVG 1.1//EN"
 "http://www.w3.org/Graphics/SVG/1.1/DTD/svg11.dtd">
<!-- Generated by graphviz version 13.0.0 (0)
 -->
<!-- Title: Vertex.h Pages: 1 -->
<svg width="331pt" height="256pt"
 viewBox="0.00 0.00 331.00 256.00" xmlns="http://www.w3.org/2000/svg" xmlns:xlink="http://www.w3.org/1999/xlink">
<g id="graph0" class="graph" transform="scale(1 1) rotate(0) translate(4 251.75)">
<title>Vertex.h</title>
<!-- Node1 -->
<g id="Node000001" class="node">
<title>Node1</title>
<g id="a_Node000001"><a xlink:title=" ">
<polygon fill="#999999" stroke="#666666" points="164.38,-247.75 107.88,-247.75 107.88,-227 164.38,-227 164.38,-247.75"/>
<text xml:space="preserve" text-anchor="middle" x="136.12" y="-234.25" font-family="Helvetica,sans-Serif" font-size="10.00">Vertex.h</text>
</a>
</g>
</g>
<!-- Node2 -->
<g id="Node000002" class="node">
<title>Node2</title>
<g id="a_Node000002"><a xlink:href="Buffer_8h.html" target="_top" xlink:title=" ">
<polygon fill="white" stroke="#666666" points="162.88,-191 109.38,-191 109.38,-170.25 162.88,-170.25 162.88,-191"/>
<text xml:space="preserve" text-anchor="middle" x="136.12" y="-177.5" font-family="Helvetica,sans-Serif" font-size="10.00">Buffer.h</text>
</a>
</g>
</g>
<!-- Node1&#45;&gt;Node2 -->
<g id="edge1_Node000001_Node000002" class="edge">
<title>Node1&#45;&gt;Node2</title>
<g id="a_edge1_Node000001_Node000002"><a xlink:title=" ">
<path fill="none" stroke="#63b8ff" d="M136.12,-215.13C136.12,-206.91 136.12,-197.93 136.12,-191.33"/>
<polygon fill="#63b8ff" stroke="#63b8ff" points="132.63,-215.07 136.13,-225.07 139.63,-215.07 132.63,-215.07"/>
</a>
</g>
</g>
<!-- Node3 -->
<g id="Node000003" class="node">
<title>Node3</title>
<g id="a_Node000003"><a xlink:href="BufferManager_8h.html" target="_top" xlink:title=" ">
<polygon fill="white" stroke="#666666" points="96.25,-134.25 0,-134.25 0,-113.5 96.25,-113.5 96.25,-134.25"/>
<text xml:space="preserve" text-anchor="middle" x="48.12" y="-120.75" font-family="Helvetica,sans-Serif" font-size="10.00">BufferManager.h</text>
</a>
</g>
</g>
<!-- Node1&#45;&gt;Node3 -->
<g id="edge9_Node000001_Node000003" class="edge">
<title>Node1&#45;&gt;Node3</title>
<g id="a_edge9_Node000001_Node000003"><a xlink:title=" ">
<path fill="none" stroke="#63b8ff" d="M121.42,-217.87C114.89,-209.65 107.11,-199.85 100.12,-191 84.37,-171.06 66.01,-147.68 55.86,-134.74"/>
<polygon fill="#63b8ff" stroke="#63b8ff" points="118.49,-219.81 127.45,-225.46 123.97,-215.46 118.49,-219.81"/>
</a>
</g>
</g>
<!-- Node4 -->
<g id="Node000004" class="node">
<title>Node4</title>
<g id="a_Node000004"><a xlink:href="MeshManager_8h.html" target="_top" xlink:title=" ">
<polygon fill="white" stroke="#666666" points="226.75,-20.75 133.5,-20.75 133.5,0 226.75,0 226.75,-20.75"/>
<text xml:space="preserve" text-anchor="middle" x="180.12" y="-7.25" font-family="Helvetica,sans-Serif" font-size="10.00">MeshManager.h</text>
</a>
</g>
</g>
<!-- Node1&#45;&gt;Node4 -->
<g id="edge10_Node000001_Node000004" class="edge">
<title>Node1&#45;&gt;Node4</title>
<g id="a_edge10_Node000001_Node000004"><a xlink:title=" ">
<path fill="none" stroke="#63b8ff" d="M166.35,-221.19C209.86,-197.4 288.4,-146.81 320.12,-77.5 338.64,-37.05 274.7,-21.26 227.19,-15.16"/>
<polygon fill="#63b8ff" stroke="#63b8ff" points="164.86,-218.01 157.68,-225.81 168.15,-224.19 164.86,-218.01"/>
</a>
</g>
</g>
<!-- Node2&#45;&gt;Node3 -->
<g id="edge2_Node000002_Node000003" class="edge">
<title>Node2&#45;&gt;Node3</title>
<g id="a_edge2_Node000002_Node000003"><a xlink:title=" ">
<path fill="none" stroke="#63b8ff" d="M111.02,-164.01C95.78,-154.53 76.82,-142.73 63.72,-134.58"/>
<polygon fill="#63b8ff" stroke="#63b8ff" points="108.77,-166.73 119.11,-169.04 112.47,-160.78 108.77,-166.73"/>
</a>
</g>
</g>
<!-- Node5 -->
<g id="Node000005" class="node">
<title>Node5</title>
<g id="a_Node000005"><a xlink:href="DescriptorBuilder_8h.html" target="_top" xlink:title=" ">
<polygon fill="white" stroke="#666666" points="223.62,-134.25 114.62,-134.25 114.62,-113.5 223.62,-113.5 223.62,-134.25"/>
<text xml:space="preserve" text-anchor="middle" x="169.12" y="-120.75" font-family="Helvetica,sans-Serif" font-size="10.00">DescriptorBuilder.h</text>
</a>
</g>
</g>
<!-- Node2&#45;&gt;Node5 -->
<g id="edge4_Node000002_Node000005" class="edge">
<title>Node2&#45;&gt;Node5</title>
<g id="a_edge4_Node000002_Node000005"><a xlink:title=" ">
<path fill="none" stroke="#63b8ff" d="M147.89,-160.1C153.11,-151.45 159.02,-141.64 163.28,-134.58"/>
<polygon fill="#63b8ff" stroke="#63b8ff" points="144.97,-158.17 142.81,-168.54 150.97,-161.78 144.97,-158.17"/>
</a>
</g>
</g>
<!-- Node3&#45;&gt;Node4 -->
<g id="edge3_Node000003_Node000004" class="edge">
<title>Node3&#45;&gt;Node4</title>
<g id="a_edge3_Node000003_Node000004"><a xlink:title=" ">
<path fill="none" stroke="#63b8ff" d="M58.27,-103.47C66.47,-89.2 79.1,-70.04 94.12,-56.75 111.83,-41.09 135.89,-28.99 154.06,-21.24"/>
<polygon fill="#63b8ff" stroke="#63b8ff" points="55.37,-101.48 53.62,-111.93 61.51,-104.85 55.37,-101.48"/>
</a>
</g>
</g>
<!-- Node5&#45;&gt;Node4 -->
<g id="edge8_Node000005_Node000004" class="edge">
<title>Node5&#45;&gt;Node4</title>
<g id="a_edge8_Node000005_Node000004"><a xlink:title=" ">
<path fill="none" stroke="#63b8ff" d="M135.03,-107.97C112.51,-95.84 89.18,-77.39 101.12,-56.75 111.19,-39.37 130.71,-28.06 147.83,-21.09"/>
<polygon fill="#63b8ff" stroke="#63b8ff" points="133.33,-111.03 143.84,-112.4 136.48,-104.78 133.33,-111.03"/>
</a>
</g>
</g>
<!-- Node6 -->
<g id="Node000006" class="node">
<title>Node6</title>
<g id="a_Node000006"><a xlink:href="DescriptorManager_8h.html" target="_top" xlink:title=" ">
<polygon fill="white" stroke="#666666" points="227.75,-77.5 110.5,-77.5 110.5,-56.75 227.75,-56.75 227.75,-77.5"/>
<text xml:space="preserve" text-anchor="middle" x="169.12" y="-64" font-family="Helvetica,sans-Serif" font-size="10.00">DescriptorManager.h</text>
</a>
</g>
</g>
<!-- Node5&#45;&gt;Node6 -->
<g id="edge5_Node000005_Node000006" class="edge">
<title>Node5&#45;&gt;Node6</title>
<g id="a_edge5_Node000005_Node000006"><a xlink:title=" ">
<path fill="none" stroke="#63b8ff" d="M169.12,-101.63C169.12,-93.41 169.12,-84.43 169.12,-77.83"/>
<polygon fill="#63b8ff" stroke="#63b8ff" points="165.63,-101.57 169.13,-111.57 172.63,-101.57 165.63,-101.57"/>
</a>
</g>
</g>
<!-- Node7 -->
<g id="Node000007" class="node">
<title>Node7</title>
<g id="a_Node000007"><a xlink:href="Material_8h.html" target="_top" xlink:title=" ">
<polygon fill="white" stroke="#666666" points="310.88,-77.5 245.38,-77.5 245.38,-56.75 310.88,-56.75 310.88,-77.5"/>
<text xml:space="preserve" text-anchor="middle" x="278.12" y="-64" font-family="Helvetica,sans-Serif" font-size="10.00">Material.h</text>
</a>
</g>
</g>
<!-- Node5&#45;&gt;Node7 -->
<g id="edge6_Node000005_Node000007" class="edge">
<title>Node5&#45;&gt;Node7</title>
<g id="a_edge6_Node000005_Node000007"><a xlink:title=" ">
<path fill="none" stroke="#63b8ff" d="M198.88,-107.93C217.97,-98.34 242.2,-86.17 258.81,-77.83"/>
<polygon fill="#63b8ff" stroke="#63b8ff" points="197.33,-104.79 189.96,-112.41 200.47,-111.05 197.33,-104.79"/>
</a>
</g>
</g>
<!-- Node7&#45;&gt;Node4 -->
<g id="edge7_Node000007_Node000004" class="edge">
<title>Node7&#45;&gt;Node4</title>
<g id="a_edge7_Node000007_Node000004"><a xlink:title=" ">
<path fill="none" stroke="#63b8ff" d="M250.65,-50.78C233.6,-41.25 212.22,-29.31 197.49,-21.08"/>
<polygon fill="#63b8ff" stroke="#63b8ff" points="248.85,-53.78 259.28,-55.6 252.26,-47.67 248.85,-53.78"/>
</a>
</g>
</g>
</g>
</svg>
