<?xml version="1.0" encoding="UTF-8" standalone="no"?>
<!DOCTYPE svg PUBLIC "-//W3C//DTD SVG 1.1//EN"
 "http://www.w3.org/Graphics/SVG/1.1/DTD/svg11.dtd">
<!-- Generated by graphviz version 13.0.0 (0)
 -->
<!-- Title: VulkanDevices.h Pages: 1 -->
<svg width="209pt" height="142pt"
 viewBox="0.00 0.00 209.00 142.00" xmlns="http://www.w3.org/2000/svg" xmlns:xlink="http://www.w3.org/1999/xlink">
<g id="graph0" class="graph" transform="scale(1 1) rotate(0) translate(4 138.25)">
<title>VulkanDevices.h</title>
<!-- Node1 -->
<g id="Node000001" class="node">
<title>Node1</title>
<g id="a_Node000001"><a xlink:title=" ">
<polygon fill="#999999" stroke="#666666" points="107.47,-134.25 11.22,-134.25 11.22,-113.5 107.47,-113.5 107.47,-134.25"/>
<text xml:space="preserve" text-anchor="middle" x="59.35" y="-120.75" font-family="Helvetica,sans-Serif" font-size="10.00">VulkanDevices.h</text>
</a>
</g>
</g>
<!-- Node2 -->
<g id="Node000002" class="node">
<title>Node2</title>
<g id="a_Node000002"><a xlink:href="GraphicsPipeline_8h.html" target="_top" xlink:title=" ">
<polygon fill="white" stroke="#666666" points="126.72,-20.75 19.97,-20.75 19.97,0 126.72,0 126.72,-20.75"/>
<text xml:space="preserve" text-anchor="middle" x="73.35" y="-7.25" font-family="Helvetica,sans-Serif" font-size="10.00">GraphicsPipeline.h</text>
</a>
</g>
</g>
<!-- Node1&#45;&gt;Node2 -->
<g id="edge1_Node000001_Node000002" class="edge">
<title>Node1&#45;&gt;Node2</title>
<g id="a_edge1_Node000001_Node000002"><a xlink:title=" ">
<path fill="none" stroke="#63b8ff" d="M30.92,-107.11C12.22,-94.52 -7.05,-75.88 3.35,-56.75 12.47,-39.95 30.8,-28.41 46.41,-21.18"/>
<polygon fill="#63b8ff" stroke="#63b8ff" points="28.88,-109.96 39.22,-112.31 32.6,-104.03 28.88,-109.96"/>
</a>
</g>
</g>
<!-- Node3 -->
<g id="Node000003" class="node">
<title>Node3</title>
<g id="a_Node000003"><a xlink:href="MeshManager_8h.html" target="_top" xlink:title=" ">
<polygon fill="white" stroke="#666666" points="105.97,-77.5 12.72,-77.5 12.72,-56.75 105.97,-56.75 105.97,-77.5"/>
<text xml:space="preserve" text-anchor="middle" x="59.35" y="-64" font-family="Helvetica,sans-Serif" font-size="10.00">MeshManager.h</text>
</a>
</g>
</g>
<!-- Node1&#45;&gt;Node3 -->
<g id="edge2_Node000001_Node000003" class="edge">
<title>Node1&#45;&gt;Node3</title>
<g id="a_edge2_Node000001_Node000003"><a xlink:title=" ">
<path fill="none" stroke="#63b8ff" d="M59.35,-101.63C59.35,-93.41 59.35,-84.43 59.35,-77.83"/>
<polygon fill="#63b8ff" stroke="#63b8ff" points="55.85,-101.57 59.35,-111.57 62.85,-101.57 55.85,-101.57"/>
</a>
</g>
</g>
<!-- Node4 -->
<g id="Node000004" class="node">
<title>Node4</title>
<g id="a_Node000004"><a xlink:href="Swapchain_8h.html" target="_top" xlink:title=" ">
<polygon fill="white" stroke="#666666" points="201.1,-77.5 123.6,-77.5 123.6,-56.75 201.1,-56.75 201.1,-77.5"/>
<text xml:space="preserve" text-anchor="middle" x="162.35" y="-64" font-family="Helvetica,sans-Serif" font-size="10.00">Swapchain.h</text>
</a>
</g>
</g>
<!-- Node1&#45;&gt;Node4 -->
<g id="edge3_Node000001_Node000004" class="edge">
<title>Node1&#45;&gt;Node4</title>
<g id="a_edge3_Node000001_Node000004"><a xlink:title=" ">
<path fill="none" stroke="#63b8ff" d="M87.72,-107.79C105.71,-98.23 128.47,-86.13 144.09,-77.83"/>
<polygon fill="#63b8ff" stroke="#63b8ff" points="86.28,-104.59 79.1,-112.38 89.57,-110.77 86.28,-104.59"/>
</a>
</g>
</g>
<!-- Node4&#45;&gt;Node2 -->
<g id="edge4_Node000004_Node000002" class="edge">
<title>Node4&#45;&gt;Node2</title>
<g id="a_edge4_Node000004_Node000002"><a xlink:title=" ">
<path fill="none" stroke="#63b8ff" d="M136.95,-50.51C121.55,-41.03 102.37,-29.23 89.12,-21.08"/>
<polygon fill="#63b8ff" stroke="#63b8ff" points="134.79,-53.29 145.14,-55.54 138.46,-47.32 134.79,-53.29"/>
</a>
</g>
</g>
</g>
</svg>
