<?xml version="1.0" encoding="UTF-8" standalone="no"?>
<!DOCTYPE svg PUBLIC "-//W3C//DTD SVG 1.1//EN"
 "http://www.w3.org/Graphics/SVG/1.1/DTD/svg11.dtd">
<!-- Generated by graphviz version 13.0.0 (0)
 -->
<!-- Title: VulkanInstance.h Pages: 1 -->
<svg width="235pt" height="199pt"
 viewBox="0.00 0.00 235.00 199.00" xmlns="http://www.w3.org/2000/svg" xmlns:xlink="http://www.w3.org/1999/xlink">
<g id="graph0" class="graph" transform="scale(1 1) rotate(0) translate(4 195)">
<title>VulkanInstance.h</title>
<!-- Node1 -->
<g id="Node000001" class="node">
<title>Node1</title>
<g id="a_Node000001"><a xlink:title=" ">
<polygon fill="#999999" stroke="#666666" points="122,-191 23.5,-191 23.5,-170.25 122,-170.25 122,-191"/>
<text xml:space="preserve" text-anchor="middle" x="72.75" y="-177.5" font-family="Helvetica,sans-Serif" font-size="10.00">VulkanInstance.h</text>
</a>
</g>
</g>
<!-- Node2 -->
<g id="Node000002" class="node">
<title>Node2</title>
<g id="a_Node000002"><a xlink:href="Swapchain_8h.html" target="_top" xlink:title=" ">
<polygon fill="white" stroke="#666666" points="77.5,-77.5 0,-77.5 0,-56.75 77.5,-56.75 77.5,-77.5"/>
<text xml:space="preserve" text-anchor="middle" x="38.75" y="-64" font-family="Helvetica,sans-Serif" font-size="10.00">Swapchain.h</text>
</a>
</g>
</g>
<!-- Node1&#45;&gt;Node2 -->
<g id="edge1_Node000001_Node000002" class="edge">
<title>Node1&#45;&gt;Node2</title>
<g id="a_edge1_Node000001_Node000002"><a xlink:title=" ">
<path fill="none" stroke="#63b8ff" d="M63.55,-159.76C60.16,-151.93 56.48,-142.78 53.75,-134.25 47.43,-114.52 42.71,-90.66 40.38,-77.68"/>
<polygon fill="#63b8ff" stroke="#63b8ff" points="60.27,-161 67.56,-168.69 66.66,-158.13 60.27,-161"/>
</a>
</g>
</g>
<!-- Node4 -->
<g id="Node000004" class="node">
<title>Node4</title>
<g id="a_Node000004"><a xlink:href="VulkanDevices_8h.html" target="_top" xlink:title=" ">
<polygon fill="white" stroke="#666666" points="158.88,-134.25 62.62,-134.25 62.62,-113.5 158.88,-113.5 158.88,-134.25"/>
<text xml:space="preserve" text-anchor="middle" x="110.75" y="-120.75" font-family="Helvetica,sans-Serif" font-size="10.00">VulkanDevices.h</text>
</a>
</g>
</g>
<!-- Node1&#45;&gt;Node4 -->
<g id="edge3_Node000001_Node000004" class="edge">
<title>Node1&#45;&gt;Node4</title>
<g id="a_edge3_Node000001_Node000004"><a xlink:title=" ">
<path fill="none" stroke="#63b8ff" d="M86.1,-160.39C92.16,-151.66 99.06,-141.72 104.02,-134.58"/>
<polygon fill="#63b8ff" stroke="#63b8ff" points="83.23,-158.38 80.41,-168.59 88.98,-162.37 83.23,-158.38"/>
</a>
</g>
</g>
<!-- Node3 -->
<g id="Node000003" class="node">
<title>Node3</title>
<g id="a_Node000003"><a xlink:href="GraphicsPipeline_8h.html" target="_top" xlink:title=" ">
<polygon fill="white" stroke="#666666" points="125.12,-20.75 18.38,-20.75 18.38,0 125.12,0 125.12,-20.75"/>
<text xml:space="preserve" text-anchor="middle" x="71.75" y="-7.25" font-family="Helvetica,sans-Serif" font-size="10.00">GraphicsPipeline.h</text>
</a>
</g>
</g>
<!-- Node2&#45;&gt;Node3 -->
<g id="edge2_Node000002_Node000003" class="edge">
<title>Node2&#45;&gt;Node3</title>
<g id="a_edge2_Node000002_Node000003"><a xlink:title=" ">
<path fill="none" stroke="#63b8ff" d="M50.52,-46.6C55.73,-37.95 61.64,-28.14 65.9,-21.08"/>
<polygon fill="#63b8ff" stroke="#63b8ff" points="47.6,-44.67 45.43,-55.04 53.59,-48.28 47.6,-44.67"/>
</a>
</g>
</g>
<!-- Node4&#45;&gt;Node2 -->
<g id="edge6_Node000004_Node000002" class="edge">
<title>Node4&#45;&gt;Node2</title>
<g id="a_edge6_Node000004_Node000002"><a xlink:title=" ">
<path fill="none" stroke="#63b8ff" d="M88.77,-106.16C76.57,-96.88 61.82,-85.67 51.51,-77.83"/>
<polygon fill="#63b8ff" stroke="#63b8ff" points="86.59,-108.9 96.67,-112.17 90.83,-103.33 86.59,-108.9"/>
</a>
</g>
</g>
<!-- Node4&#45;&gt;Node3 -->
<g id="edge4_Node000004_Node000003" class="edge">
<title>Node4&#45;&gt;Node3</title>
<g id="a_edge4_Node000004_Node000003"><a xlink:title=" ">
<path fill="none" stroke="#63b8ff" d="M103.67,-102.63C95.25,-78.56 81.53,-39.34 75.18,-21.18"/>
<polygon fill="#63b8ff" stroke="#63b8ff" points="100.32,-103.66 106.93,-111.94 106.93,-101.35 100.32,-103.66"/>
</a>
</g>
</g>
<!-- Node5 -->
<g id="Node000005" class="node">
<title>Node5</title>
<g id="a_Node000005"><a xlink:href="MeshManager_8h.html" target="_top" xlink:title=" ">
<polygon fill="white" stroke="#666666" points="227.38,-77.5 134.12,-77.5 134.12,-56.75 227.38,-56.75 227.38,-77.5"/>
<text xml:space="preserve" text-anchor="middle" x="180.75" y="-64" font-family="Helvetica,sans-Serif" font-size="10.00">MeshManager.h</text>
</a>
</g>
</g>
<!-- Node4&#45;&gt;Node5 -->
<g id="edge5_Node000004_Node000005" class="edge">
<title>Node4&#45;&gt;Node5</title>
<g id="a_edge5_Node000004_Node000005"><a xlink:title=" ">
<path fill="none" stroke="#63b8ff" d="M132.12,-106.16C143.98,-96.88 158.32,-85.67 168.34,-77.83"/>
<polygon fill="#63b8ff" stroke="#63b8ff" points="130.18,-103.24 124.46,-112.15 134.49,-108.75 130.18,-103.24"/>
</a>
</g>
</g>
</g>
</svg>
